<svg xmlns="http://www.w3.org/2000/svg" width="104" height="104"  xmlns:v="https://vecta.io/nano"><ellipse cx="52.1" cy="52.1" rx="51.9" ry="51.8" fill="#d37575"/><circle cx="52.1" cy="52.1" r="39.2" fill="#fff"/><path d="M64.7 60.9c-1.7-1.7-3.9-1.7-5.6 0l-3.9 3.9c-.4.4-.6.4-1.1.2-.8-.5-1.7-.8-2.6-1.3-3.8-2.4-7-5.5-9.8-8.9-1.4-1.7-2.6-3.5-3.5-5.6-.2-.4-.1-.7.2-1l3.9-3.9c1.8-1.8 1.8-3.9 0-5.7L36 32.3c-1.7-1.7-3.9-1.7-5.6 0l-3.9 3.9c-1.2 1.2-1.9 2.6-2 4.3-.2 2.7.5 5.3 1.4 7.8 1.9 5.2 4.9 9.8 8.5 14.1 4.8 5.7 10.6 10.3 17.3 13.5 3 1.5 6.2 2.6 9.6 2.8 2.4.1 4.4-.5 6-2.3 1.1-1.3 2.4-2.4 3.6-3.6 1.8-1.8 1.8-3.9 0-5.7l-6.2-6.2zm-16.2-8.1S52 37 64.9 37v-5l7.9 9-6.5 9-1.1-7.6c.1-.1-15.9 6.8-16.7 10.4z" fill="#d37575"/></svg>