<svg xmlns="http://www.w3.org/2000/svg" xmlns:xlink="http://www.w3.org/1999/xlink" width="104" height="104" xmlns:v="https://vecta.io/nano"><ellipse cx="52.1" cy="52.1" rx="51.9" ry="51.8" fill="#68bc8c"/><circle cx="52.1" cy="52.1" r="39.2" fill="#fff"/><defs><circle id="A" cx="52.1" cy="52.1" r="39.2"/></defs><clipPath id="B"><use xlink:href="#A"/></clipPath><g clip-path="url(#B)"><path d="M56.7 83.8v9.6h-5.6v-7.7c0-2.8 1-5.5 2.8-7.6h0c1.7 1.4 2.6 3.5 2.8 5.7z" fill="#e75163"/><path d="M28.7 69.1s-.1 0-.1-.1v7.5a9.46 9.46 0 0 0 11.1 0h0V69l-11 .1z" fill="#efc597"/><path d="M17.2 85.6v7.7h-5.7v-9.6c.2-2.2 1.2-4.3 2.8-5.8 1.8 2.2 2.9 4.9 2.9 7.7h0z" fill="#e75163"/><path d="M47.1 52.6l-3.4 13.1c-3.6 4.6-9.8 6-15 3.4 0 0-.1 0-.1-.1-1.6-.8-3-1.9-4.1-3.3h0l-3.4-13.1c.1 0 .3-.1.4-.1h0c.1.3.3.5.5.7 0 0 3.1.7 3.1.5l.4-5.4c0-.3.3-.5.5-.5l1 .1c4.2.4 8.2-1.4 10.6-4.8 3 2 5.1 5.1 5.9 8.6l.6 2.4 2.1-1c.2-.2.3-.5.4-.7h0c.2.1.4.1.5.2h0z" fill="#ffd8b7"/><path d="M51.9 76.6l-11-3.7h-1.2v20.6h11.4v-7.8c0-2.8 1-5.5 2.8-7.6h0a9.51 9.51 0 0 0-2-1.5z" fill="#fb6771"/><path d="M39.7 93.4h0-11.2v-17a9.46 9.46 0 0 0 11.1 0h0v17z" fill="#d4e1f4"/><path d="M16.3 76.6c-.7.4-1.4.8-2.1 1.4 1.8 2.1 2.9 4.8 2.9 7.7v7.8h11.4v-21l-12.2 4.1z" fill="#fb6771"/><path d="M31.8 69.2c-3.2-1.9-5.1-5.4-5.1-9.1v-5c0-1.2.3-2.3.8-3.4.5-1 1.3-1.9 2.3-2.6.2-.1.4-.3.7-.4.4-.2.6-.6.6-1.1 0-.2-.1-.4-.2-.5h0l-7.5-.4c-.4.7-.6 4.2-.7 6.5V58l2 7.6c1.1 1.4 2.5 2.5 4.1 3.3 0 0 .1 0 .1.1 1.7.8 3.5 1.3 5.4 1.3h.1a6.2 6.2 0 0 1-2.6-1.1h0z" fill="#e8bfa0"/><path d="M34.1 34.5c7.1 0 12.9 5.8 12.9 12.9v.9l-.3 4.1v.1c0 .3-.2.5-.4.7l-2.1 1-.6-2.4c-.8-3.5-3-6.5-5.9-8.6-2.4 3.4-6.5 5.2-10.6 4.8l-1-.1c-.3 0-.5.2-.6.4l-.4 5.4c0 .2-3.1-.5-3.1-.5-.3-.1-.5-.4-.5-.7v-.2l-.3-4v-.9c0-7.2 5.8-12.9 12.9-12.9h0z" fill="#6d7486"/><g fill="#d4e1f4"><path d="M43.9 73.7h-5.6v-1.6h5.6a1.79 1.79 0 0 0 1.8-1.8v-4.5h1.6v4.5a3.37 3.37 0 0 1-3.4 3.4zm7.7-18.3H50V47a15.88 15.88 0 0 0-15.9-15.9A15.88 15.88 0 0 0 18.2 47v8.4h-1.6V47c0-9.6 7.9-17.5 17.5-17.5S51.6 37.4 51.6 47v8.4z"/></g><g fill="#f4f8fc"><path d="M21 81.4c-.4 0-.8-.4-.8-.8v-.8c0-.4.4-.8.8-.8s.8.4.8.8v.8c0 .4-.3.8-.8.8zm0 8.6c-.4 0-.8-.4-.8-.8v-6.1c0-.4.4-.8.8-.8s.8.4.8.8v6.1c0 .4-.3.8-.8.8z"/></g><path d="M46.5 67.2h-.1l3.8-14.5.3.1c.1 0 .2.1.3.1 1.9.7 3 2.7 2.5 4.6l-1.8 7.1c-.5 2.1-2.6 3.3-4.7 2.8l-.3-.2z" fill="#5fa8ed"/><g fill="#4689d3"><path d="M43.7 65.6l3.4-13.1.2-.7 2.9.8-3.8 14.5-2.9-.8.2-.7zm-22.6-13l3.4 13.1.2.7-2.9.8L18 52.6l2.9-.8.2.8z"/></g><path d="M18 52.6l3.8 14.5-.3.1c-2.1.5-4.2-.7-4.7-2.8L15 57.3c-.5-1.9.6-3.9 2.5-4.6.1 0 .2-.1.3-.1h.2z" fill="#5fa8ed"/><path d="M38.8 71.5v2.8c0 .2-.2.3-.3.3h-5.1c-.2 0-.3-.2-.3-.3v-2.8c0-.2.2-.3.3-.3h5.1c.1-.1.3.1.3.3z" fill="#6d7486"/></g><circle cx="79.3" cy="57.1" r="22.1" fill="#68bc8c"/><g fill="none" stroke="#fff"><circle cx="79.4" cy="57.6" r="16.7" stroke-width="2"/><path d="M77.9 46.6l2.7 10.6-8.1 8.1" stroke-width="3" stroke-miterlimit="10"/></g></svg>