<svg xmlns="http://www.w3.org/2000/svg" xmlns:xlink="http://www.w3.org/1999/xlink" width="445" height="297" xmlns:v="https://vecta.io/nano"><style><![CDATA[.Dq{clip-path:url(#S)}.Dr{clip-path:url(#W)}.Ds{clip-path:url(#U)}.Dt{clip-path:url(#Y)}.Du{clip-path:url(#a)}.Dv{fill:#fff}.Dw{enable-background:new}.Dx{fill:#ffcebf}.Dy{fill:#fddeb2}.Dz{fill:#e5e5e5}.EA{fill:#d46669}.EB{fill:#d4676a}.EC{fill:#d5686b}.ED{fill:#d5696c}.EE{fill:#d56a6d}.EF{fill:#d56b6e}.EG{fill:#d66c6f}.EH{fill:#d66d70}.EI{fill:#d66e71}.EJ{fill:#d66f72}.EK{fill:#d77073}.EL{fill:#d77174}.EM{fill:#d77275}.EN{fill:#d87376}.EO{fill:#d87477}.EP{fill:#d87578}.EQ{fill:#d87679}.ER{fill:#d9787a}.ES{fill:#d9797b}.ET{fill:#d97a7c}.EU{fill:#d97b7d}.EV{fill:#da7c7e}.EW{fill:#da7d7f}.EX{fill:#da7e80}.EY{fill:#db7f81}.EZ{fill:#db8082}.Ea{fill:#db8183}.Eb{fill:#daa77b}.Ec{fill:#331b19}.Ed{fill:#7accc8}.Ee{fill:#5bc1b9}.Ef{fill:#4baaa5}.Eg{fill:#422918}.Eh{fill:#004b80}.Ei{fill:#c6c6c6}.Ej{fill:#282828}.Ek{fill:#f7d194}]]></style><path d="M220 227.9h1v6h-1zm0 13.2h1v6h-1zm170.9-81.8H388v-1h1.9v-3.1h1v4.1zm-8.9 0h-6v-1h6v1zm-12 0h-6v-1h6v1zm-12 0h-6v-1h6v1zm-12 0h-6v-1h6v1zm-12 0h-6v-1h6v1zm-12 0h-6v-1h6v1zm-12 0h-6v-1h6v1zm-12 0h-6v-1h6v1zm-12 0h-6v-1h6v1zm-12 0h-6v-1h6v1zm-12 0h-6v-1h6v1zm-12 0h-6v-1h6v1zm-12 0h-6v-1h6v1zm-12 0h-6v-1h6v1zm-12 0h-6v-1h6v1zm-12 0h-6v-1h6v1zm-12 0h-6v-1h6v1zm-12 0h-6v-1h6v1zm-12 0h-6v-1h6v1zm-12 0h-6v-1h6v1zm-12 0h-6v-1h6v1zm-12 0h-6v-1h6v1zm-12 0h-6v-1h6v1zm-12 0h-6v-1h6v1zm-12 0h-6v-1h6v1zm-12 0h-6v-1h6v1zm-12 0h-6v-1h6v1zm-12 0h-5.1v-1.9h1v.9H58v1zm-4.1-7.9h-1v-6h1v6zm337-2.2h-1v-6h1v6zm-337-9.8h-1v-6h1v6zm337-2.2h-1v-6h1v6zm-337-9.8h-1v-6h1v6zm337-2.2h-1v-6h1v6zm-337-9.8h-1v-6h1v6zm337-2.2h-1v-6h1v6zm-337-9.8h-1v-6h1v6zm337-2.2h-1v-6h1v6zm-337-9.8h-1v-6h1v6zm337-2.2h-1v-6h1v6zm-337-9.8h-1v-6h1v6zm337-2.2h-1v-4.5h-.5v-1h1.5v5.5zm-7.5-4.5h-6v-1h6v1zm-12 0h-6v-1h6v1zm-12 0h-6v-1h6v1zm-12 0h-6v-1h6v1zm-12 0h-6v-1h6v1zm-12 0h-6v-1h6v1zm-12 0h-6v-1h6v1zm-12 0h-6v-1h6v1zm-12 0h-6v-1h6v1zm-12 0h-6v-1h6v1zm-12 0h-6v-1h6v1zm-12 0h-6v-1h6v1zm-12 0h-6v-1h6v1zm-12 0h-6v-1h6v1zm-12 0h-6v-1h6v1zm-12 0h-6v-1h6v1zm-12 0h-6v-1h6v1zm-12 0h-6v-1h6v1zm-12 0h-6v-1h6v1zm-12 0h-6v-1h6v1zm-12 0h-6v-1h6v1zm-12 0h-6v-1h6v1zm-12 0h-6v-1h6v1zm-12 0h-6v-1h6v1zm-12 0h-6v-1h6v1zm-12 0h-6v-1h6v1zm-12 0h-6v-1h6v1zm-12 0h-6v-1h6v1zm74.4 136.1h-1v-6h1v6zm-80.4-5.2h-1v-6h1v6zm80.4-6.8h-1v-1.4h-3.6v-1l4.6-.1v2.5zm-76.6-.5v-1l6-.1v1l-6 .1zm12-.1v-1l6-.1v1l-6 .1zm12-.2v-1l6-.1v1l-6 .1zm12-.1v-1l6-.1v1l-6 .1zm12-.1v-1l6-.1v1l-6 .1zm12-.2v-1l6-.1v1l-6 .1zm274.3 13.2h-1v-6h1v6zm-79.9-4.7h-1v-6h1v6zm79.9-7.3h-1v-1.4h-3.6v-1l4.6-.1v2.5zm-76.6-.4v-1l6-.1v1l-6 .1zm12-.2v-1l6-.1v1l-6 .1zm12-.1v-1l6-.1v1l-6 .1zm12-.2v-1l6-.1v1l-6 .1zm12-.1v-1l6-.1v1l-6 .1zm12-.2v-1l6-.1v1l-6 .1z" fill="#727272"/><g fill="#ffac9c"><circle cx="219.9" cy="38.5" r="34" opacity=".5" class="Dw"/><circle cx="219.9" cy="38.5" r="29.5"/></g><defs><circle id="A" cx="219.9" cy="38.5" r="29.5"/><path id="B" d="M56.3 102.4a.68.68 0 1 1-1.4 0 .68.68 0 1 1 1.4 0z"/><path id="C" d="M390.1 130.2a12.08 12.08 0 1 1 0-24.2 12.08 12.08 0 1 1 0 24.2zm0-23.2c-6.1 0-11.1 5-11.1 11.1s5 11.1 11.1 11.1 11.1-5 11.1-11.1-5-11.1-11.1-11.1z"/><path id="D" d="M258.4 171.6c0 .5.4.8.8.8.5 0 .8-.4.8-.8 0-.5-.4-.8-.8-.8-.5-.1-.8.3-.8.8z"/></defs><clipPath id="E"><use xlink:href="#A"/></clipPath><g clip-path="url(#E)"><path d="M228 56l-7 3.3-7-3.3 1.3-6.4h11.1z" class="Eb"/><g fill="#e3b48a"><path d="M231.3 35.9c-.2 2.5-.6 5.2-1.1 7.6-.4.5-.3 3.8-1.3 5.4-.8 1.3-2.9 2.2-4.8 4.1-1.2 1.2-5.5.9-6.3 0-1.1-1.3-4.2-2.7-5-4-1-1.5-.8-3.6-1.2-5.2-.5-2.2-1-4.9-1.2-7.8-.7-8.1 4.7-11.7 10.5-11.7 5.7-.1 11.1 3.5 10.4 11.6z"/><path d="M233.4 39.3c-.1.9-.9 2.5-1.3 3-.2.4-1.4 1.1-1.9 1.1s-.3-1.5-.5-1.9c-.2-.5-.3-1.5-.2-2.6 0-1.8 1.1-2.5 2.2-2.4 1 .1 2 1 1.7 2.8zm-25 0c.1.9.9 2.5 1.3 3 .2.4 1.4 1.1 1.9 1.1s.3-1.5.5-1.9c.2-.5.3-1.5.2-2.6 0-1.8-1.1-2.5-2.2-2.4s-2 1-1.7 2.8z"/></g><path d="M210.5 37.3l1 4.1s.7-.5 0-2.4-.1-3.3-.2-5.4c-.2-2.2.2-3.4.8-3.8 2.6-1.9 5.5-.6 7.5-.6s3.5-1 5.9-1 3.9 1.5 4.3 2.5c.2.4.3 2 .3 3.7.1 2.2.5 2 .4 3.3l-.2 3.9 1.2-5 1.1.3s.9-9.5-.8-11.6c-1.7-2.2-6.8-4.9-12-4.9-4.4 0-9.9 4-10.9 6.6-.8 2.1-.6 4.7-.3 6.9 0 .5 0 .8.5 1.1.2.1.6.2.7-.1.1-.2-.2-.6-.3-.8-.1-.3-.2-.6-.2-.9 0-.7-.1-1.4.1-2 .1-.6.5-1.1.9-1.6.7-.8 1.4-1.7 2.2-2.3.7-.6 1.9-.9 2.8-.9 1.5 0 2.8.4 4.3.1.8-.1 1.6-.2 2.5-.2.7 0 1.5.1 2.2.1 1.3 0 2.4-.1 3.6.4 1.1.5 2.2 1.2 2.6 2.4.4 1 .4 1.9.3 2.9-.1.9 0 2 .1 2.9.1.6.4 1.2.4 1.8.2-.3.9.1 1.2.2-.3-.8 0-1.5.4-2.2.3-.7.3-1.5.3-2.3 0-.7-.2-1.2-.2-1.8s0-1.2.1-1.8c0-.7.1-1.2-.2-1.9-.2-.8-.5-1.3-1-1.9-.4-.5-.8-1-1.3-1.5-.5-.4-1.2-.7-1.8-1-.7-.3-1.4-.6-2-.9-.3-.2-.7-.3-1-.5-.4-.2-.5-.2-1-.2-.3 0-.7 0-1-.1-.3-.2-.6-.4-.9-.5-.6-.2-1.2-.5-1.8-.6-.7-.1-1.1.2-1.7.3-.4.1-.7 0-1-.2-.4-.1-.7 0-1.2 0-.7.1-1.1.2-1.7.7-.2.2-.3.4-.6.6-.2.2-.5.2-.8.3-1 .5-2.5 1.1-3.2 1.9-.7.9-1 2-1.9 2.8-.5.5-.7.8-.7 1.5v.9c-.1.3-.3.5-.4.8-.2.6.1 1.2.2 1.8s0 1.3 0 1.9v.9c0 .3.2.5.2.8s0 .6.1.8.7 1.3.5 1.5c0 0 1.3-1 1.6.2z" class="Ec"/><path d="M229.3 72V56.1l-8.7 2.7-8.3-2.7V72z" fill="#e6e6e6"/><g fill="#655351"><path d="M220.9 58.8s-2.4.8-2.4 1.6c0 .7 1.3 2.6 1.3 2.6h2.4s1.1-1.9 1.1-2.6c-.1-.8-2.4-1.6-2.4-1.6z"/><path d="M223 72l-.8-9h-2.4l-.9 9z"/></g><g class="Dv"><path d="M231.3 55.5l-7.4 4.9-3-1.6 6.4-6.5z"/><path d="M210.5 55.4l7.3 5 3.1-1.6-6.4-6.5z"/></g><path d="M241.5 72c-.7-6.7-1.5-13.2-2.5-14.3-2.1-2.5-10.8-4.7-10.8-4.7l-2.7 19h16z" fill="#1d2c42"/><path d="M229.1 72l4.6-9.1-3.6-1.9 2.6-1.6-4.4-6.4-2.7 19z" fill="#0d3857"/><path d="M216.3 72l-2.7-19s-8.6 2.1-10.8 4.7c-1 1.2-1.9 7.6-2.5 14.3h16z" fill="#1d2c42"/><path d="M212.7 72h3.5l-2.7-19-4.4 6.4 2.6 1.6-3.6 1.9z" fill="#0d3857"/><path d="M219.5 49s1.6-.2 2 0l.9.4" class="Eb"/></g><circle cx="54.6" cy="230.8" r="22" opacity=".4" class="Dw Ed"/><circle cx="54.6" cy="230.8" r="16.9" class="Ee"/><defs><circle id="F" cx="54.6" cy="230.8" r="16.9"/></defs><clipPath id="G"><use xlink:href="#F"/></clipPath><g clip-path="url(#G)"><defs><circle id="H" cx="54.5" cy="230.5" r="17.6"/></defs><clipPath id="I"><use xlink:href="#H"/></clipPath><g clip-path="url(#I)"><path d="M60.6 236.9H49c-3 0-4.5-3.4-2.6-5.6l.1-.1c.8-1 1.3-2.3 1.3-3.5v-2.3a7.13 7.13 0 0 1 7.1-7.1 7.13 7.13 0 0 1 7.1 7.1v2.3c0 1.3.4 2.5 1.3 3.6 1.9 2.1.2 5.6-2.7 5.6z" fill="#c59191"/><path d="M66.7 242.6v7.7H42.8v-7.6c0-1.7 1-3.3 2.6-4l3.8-1.6 1.3-.6c1-.4 1.6-1.4 1.6-2.5v-.5h5v.5c0 1 .6 2.1 1.6 2.5l5.2 2.3c1.9.6 2.8 2.2 2.8 3.8h0z" class="Dv"/><path d="M49.4 238.9c1.3.4 3.2.8 5.6.8 2.3 0 4-.4 5.3-.9l.6-1.5-1.9-.8c-1-.4-1.6-1.4-1.6-2.5v-.4h-5v.5c0 1-.6 2.1-1.6 2.5l-1.6.7.2 1.6z" class="Dx"/><g fill="#8795de"><path d="M64.2 238.7l-3.9-1.6v13.3h6.5v-7.7c-.1-1.7-1-3.3-2.6-4h0zm-14.8-1.6v13.3h-6.5v-7.6c0-1.7 1-3.3 2.6-4l3.9-1.7z"/></g><path d="M56.6 236.3c.6 0 1.1-.1 1.6-.3-.5-.5-.9-1.2-.9-2v-.4h-5v.5c0 .3-.1.8-.3 1.1.8.7 1.8 1.2 3 1.2l1.6-.1z" fill="#ffb09e"/><path d="M59.9 225.9v4.2c0 2.3-1.9 4.3-4.3 4.3H54c-2.3 0-4.3-1.9-4.3-4.3v-4.2a2.73 2.73 0 0 1 2.8-2.8h4.6c1.5 0 2.8 1.2 2.8 2.8h0z" class="Dx"/><path d="M59.9 228h0c-.2.5-.6 1.6-1.6 2.3-.4.3-1 .6-1.6.8-.3.1-.4.3-.3.6s.3.3.4.3h.1a4.98 4.98 0 0 0 1.9-1c.3-.3.7-.6 1-1v-.1l.1-1.9z" fill="#7a6d79"/><path d="M56.2 232.5h-1.1c-.5 0-1-.4-1-1a.94.94 0 0 1 1-1h1.1c.5 0 1 .4 1 1s-.5 1-1 1z" fill="#685e68"/><path d="M55.8 222c.1-1.4 1.4-2.3 2.7-2.8 2.1 1.2 3.5 3.6 3.5 6.2v.5c-.1 0-.3.1-.3.1-.7.1-1.3.1-1.6 0-2.8-.5-4.4-2.4-4.3-4z" fill="#b98080"/><path d="M54.8 218.2c1.6 0 3.1.5 4.3 1.5-.6 1-2 3.1-4.5 4.6-1.9 1.1-3.7 1.5-4.8 1.6h-2.1v-.5c0-4 3.2-7.2 7.1-7.2z" fill="#c59191"/><circle cx="55" cy="245.7" r="1.4" fill="#c9bfc8"/></g></g><circle cx="70.7" cy="219.2" r="9.7" class="Ef"/><path d="M70.7 229.4c-5.6 0-10.2-4.6-10.2-10.2S65.1 209 70.7 209s10.2 4.6 10.2 10.2-4.6 10.2-10.2 10.2zm0-19.4c-5.1 0-9.2 4.1-9.2 9.2s4.1 9.2 9.2 9.2 9.2-4.1 9.2-9.2-4.1-9.2-9.2-9.2zm-.8 7.9h0l-1.5.7-.3-1.3 2-.9h1.5v7.5h-1.7v-6z" class="Dv"/><circle cx="387.5" cy="230.8" r="22" opacity=".4" class="Dw Ed"/><circle cx="387.5" cy="230.8" r="16.9" class="Ee"/><defs><circle id="J" cx="387.5" cy="230.8" r="16.9"/></defs><clipPath id="K"><use xlink:href="#J"/></clipPath><g clip-path="url(#K)"><defs><circle id="L" cx="387.4" cy="229.9" r="18"/></defs><clipPath id="M"><use xlink:href="#L"/></clipPath><g clip-path="url(#M)"><path d="M399.2 248v5.3h-3.1V249c0-1.5.5-3 1.6-4.3h0c.8.9 1.4 2 1.5 3.3z" fill="#e75163"/><path d="M383.5 239.7h0l-.1 4.1c1.9 1.3 4.4 1.3 6.2 0h0v-4.2l-6.1.1z" fill="#efc597"/><path d="M377.1 249v4.4h-3.2v-5.3a4.94 4.94 0 0 1 1.6-3.2c.9 1 1.6 2.5 1.6 4.1h0z" fill="#e75163"/><path d="M393.8 230.6l-1.9 7.3c-2 2.6-5.5 3.4-8.4 1.9h-.1c-.9-.4-1.7-1.1-2.3-1.9h0l-2-7.3c.1 0 .2 0 .3-.1h0c0 .2.2.3.3.4 0 0 1.7.4 1.8.3l.3-3c0-.2.2-.3.3-.3h0l.5.1c2.3.3 4.6-.8 6-2.7a8.11 8.11 0 0 1 3.3 4.8l.4 1.3 1.2-.5a.76.76 0 0 0 .2-.4h0c0 0 0 0 .1.1h0z" fill="#ffd8b7"/><path d="M396.4 244l-6.1-2.1h-.7v11.5h6.4V249c0-1.5.5-3 1.6-4.3h0c-.4-.3-.7-.6-1.2-.7z" fill="#fb6771"/><path d="M389.6 253.3h0-6.2v-9.5c1.9 1.3 4.4 1.3 6.2 0h0v9.5z" fill="#d4e1f4"/><path d="M376.5 244c-.4.2-.8.4-1.2.8 1.1 1.2 1.6 2.7 1.6 4.3v4.4h6.4v-11.7l-6.8 2.2z" fill="#fb6771"/><path d="M385.2 239.9c-1.8-1.1-2.8-3-2.8-5.1V232c0-.6.2-1.3.4-1.9.3-.6.7-1.1 1.3-1.4.1-.1.3-.2.4-.3.2-.1.4-.4.3-.6 0-.1 0-.2-.1-.3h0l-4.2-.2c-.2.4-.4 2.3-.4 3.6v2.7l1.1 4.3c.6.8 1.4 1.4 2.3 1.9h.1c1 .4 2 .7 3 .7h0l-1.4-.6z" fill="#e8bfa0"/><path d="M386.5 220.4a7.17 7.17 0 0 1 7.2 7.2v.5l-.2 2.3v.1c0 .2-.1.3-.2.4l-1.2.5-.4-1.3c-.4-2-1.7-3.6-3.3-4.8-1.3 1.9-3.6 2.9-6 2.7h-.4c-.2 0-.3.1-.3.3h0l-.3 3c0 .1-1.8-.3-1.8-.3-.2-.1-.3-.2-.3-.4v-.1l-.2-2.2v-.5c.2-4.2 3.4-7.4 7.4-7.4h0z" fill="#6d7486"/><g fill="#d4e1f4"><path d="M392 242.3h-3.1v-.9h3.1c.5 0 1-.4 1-1v-2.5h.9v2.5c0 1.1-.8 1.9-1.9 1.9zm4.3-10.1h-.9v-4.7c0-4.9-4-8.9-8.9-8.9s-8.9 4-8.9 8.9v4.7h-.9v-4.7a9.82 9.82 0 0 1 9.8-9.8 9.82 9.82 0 0 1 9.8 9.8v4.7z"/></g><g fill="#f4f8fc"><path d="M379.2 246.6c-.3 0-.4-.2-.4-.4v-.4c0-.3.2-.4.4-.4s.4.2.4.4v.4c0 .3-.1.4-.4.4zm0 4.8c-.3 0-.4-.2-.4-.4v-3.4c0-.3.2-.4.4-.4s.4.2.4.4v3.4c0 .3-.1.4-.4.4z"/></g><path d="M393.4 238.7h0l2-8.1h.2c.1 0 .1 0 .2.1 1.1.4 1.7 1.5 1.3 2.6l-1.1 3.9c-.2 1.2-1.4 1.9-2.6 1.5h0z" fill="#5fa8ed"/><g fill="#4689d3"><path d="M391.9 237.8l1.9-7.3.1-.4 1.6.4-2.1 8.1-1.6-.4.1-.4zm-12.7-7.2l2 7.3.1.4-1.6.4-2.1-8.1 1.6-.4v.4z"/></g><path d="M377.5 230.6l2.1 8.1h-.2c-1.2.3-2.3-.4-2.7-1.5l-1.1-3.9c-.3-1.1.4-2.2 1.3-2.6.1 0 .1 0 .2-.1h.4z" fill="#5fa8ed"/><path d="M389.2 241.1v1.6c0 .1-.1.2-.2.2h0-3c-.1 0-.2-.1-.2-.2h0v-1.6c0-.1.1-.2.2-.2h2.8c.3 0 .4 0 .4.2z" fill="#6d7486"/></g></g><circle cx="403.6" cy="219.2" r="9.7" class="Ef"/><path d="M403.6 229.4c-5.6 0-10.2-4.6-10.2-10.2S398 209 403.6 209s10.2 4.6 10.2 10.2-4.6 10.2-10.2 10.2zm0-19.4c-5.1 0-9.2 4.1-9.2 9.2s4.1 9.2 9.2 9.2 9.2-4.1 9.2-9.2-4.1-9.2-9.2-9.2zm-2.8 12.1a3.43 3.43 0 0 0 1.7.5c.9 0 1.4-.4 1.4-1 0-.7-.7-1.1-1.5-1.1h-.7v-1.3h.7c.6 0 1.3-.2 1.3-.9 0-.4-.4-.8-1.1-.8-.6 0-1.3.3-1.6.4l-.4-1.3c.4-.3 1.3-.6 2.3-.6 1.6 0 2.5.8 2.5 1.9 0 .8-.5 1.4-1.4 1.7h0c.9.2 1.6.8 1.6 1.8 0 1.3-1.2 2.3-3.1 2.3-1 0-1.8-.3-2.2-.5l.5-1.1z" class="Dv"/><g class="Ed"><circle cx="219.5" cy="270" r="22" opacity=".4" class="Dw"/><circle cx="219.5" cy="270" r="16.9"/></g><defs><circle id="N" cx="219.5" cy="270" r="16.9"/></defs><clipPath id="O"><use xlink:href="#N"/></clipPath><g clip-path="url(#O)"><circle cx="219.4" cy="269.9" r="16.8" class="Ee"/><defs><circle id="P" cx="219.4" cy="269.9" r="16.8"/></defs><clipPath id="Q"><use xlink:href="#P"/></clipPath><g clip-path="url(#Q)"><path d="M226.9 276c-.4-.4-.9-.7-1.5-.9.3-.4.7-1.2.5-2.3-.2-1.2-.8-1.9-1.7-2.2-.8-.3-1.7-.3-2.5-.3h-3.1c-.2 0-.3.2-.3.3v10.9c0 .2.2.3.3.3h10c.2 0 .3-.2.3-.3.1-3-1-4.6-2-5.5z" fill="#514e4d"/><g class="Dx"><path d="M229.2 279.9l-7.6-2.3v-5.2c0-.2-.2-.3-.3-.3h-5.5c-.2 0-.3.2-.3.3v5.2l-7.6 2.3c-.9.2-1.6 1.2-1.6 2.1v5h24.4v-5c.1-1-.6-1.8-1.5-2.1h0z"/><path d="M224.1 263.9h-10.9c-.2 0-.3.2-.3.3v6.4c0 1.7.7 3.2 2.2 4.3 1.1.9 2.6 1.5 3.6 1.5 2 0 5.8-2.1 5.8-5.8v-6.4c-.1-.2-.2-.3-.4-.3z"/></g><path d="M226 260.6c-1-1.3-2.6-2.1-4.6-2.2-.9-.1-1.7 0-2.6.2-2.3-.6-5-.1-6.6 1.2-1.2.9-1.8 2.7-1.8 4.1 0 3.7 2.3 6.1 2.4 6.2.2.2.3.2.5 0 .1-.1.1-.2.1-.2 0-1.6.6-3 1.7-4 .4-.3.8-.7 1.3-.9.2 1.7 1.2 1.7 1.2 1.7s.2 0 .2-.1c.8-.8 1.7-1.7 2.5-1.7 1.2 0 2.1 1.4 2.6 2.5.3.8.6 1.7.7 2.6 0 .2.2.3.4.2.1 0 .2-.1.2-.1.1-.1 1.7-1.7 2.2-3.3.5-1.8.8-4.7-.4-6.2h0z" fill="#514e4d"/><defs><path id="R" d="M229.2 279.9L223 278c-.6 2.5-3.1 4-5.5 3.4-1.7-.4-3-1.7-3.4-3.4l-6.2 1.9c-.9.2-1.6 1.2-1.6 2.1v5h24.4v-5c.1-1-.6-1.8-1.5-2.1h0z"/></defs><clipPath id="S"><use xlink:href="#R"/></clipPath><g fill="#fce6aa"><path d="M206.3 286.7l.3.3h-.3z" class="Dq"/><path d="M206.3 286l1 1h-.7l-.3-.3z" class="Dq"/></g><path d="M206.3 285.2l1.8 1.8h-.8l-1-1z" fill="#fce6ab" class="Dq"/><path d="M206.3 284.5l2.5 2.5h-.7l-1.8-1.8z" fill="#fce7ac" class="Dq"/><path d="M206.3 283.8l3.2 3.2h-.7l-2.5-2.5z" fill="#fce7ad" class="Dq"/><path d="M206.3 283.1l3.9 3.9h-.7l-3.2-3.2z" fill="#fce7ae" class="Dq"/><path d="M206.3 282.4l4.6 4.6h-.7l-3.9-3.9z" fill="#fce8af" class="Dq"/><path d="M206.3 281.7l5.3 5.3h-.7l-4.6-4.6z" fill="#fce8b0" class="Dq"/><path d="M206.3 280.9l6.1 6.1h-.8l-5.3-5.3z" fill="#fce8b1" class="Dq"/><path d="M206.3 280.2l6.8 6.8h-.7l-6.1-6.1z" fill="#fce9b2" class="Dq"/><path d="M206.3 279.5l7.5 7.5h-.7l-6.8-6.8z" fill="#fce9b3" class="Dq"/><path d="M206.3 278.8l8.2 8.2h-.7l-7.5-7.5z" fill="#fce9b4" class="Dq"/><path d="M206.3 278.1l8.9 8.9h-.7l-8.2-8.2z" fill="#fce9b5" class="Dq"/><path d="M206.9 278l9 9h-.7l-8.9-8.9v-.1z" fill="#fceab6" class="Dq"/><path d="M207.6 278l9 9h-.7l-9-9z" fill="#fceab7" class="Dq"/><path d="M208.4 278l9 9h-.8l-9-9z" fill="#fceab8" class="Dq"/><path d="M209.1 278l9 9h-.7l-9-9z" fill="#fcebb9" class="Dq"/><path d="M209.8 278l9 9h-.7l-9-9z" fill="#fcebba" class="Dq"/><path d="M210.5 278l9 9h-.7l-9-9z" fill="#fcebbb" class="Dq"/><path d="M211.2 278l9 9h-.7l-9-9z" fill="#fcecbc" class="Dq"/><path d="M211.9 278l9 9h-.7l-9-9z" fill="#fcecbd" class="Dq"/><path d="M212.6 278l9 9h-.7l-9-9z" fill="#fcecbe" class="Dq"/><path d="M213.4 278l9 9h-.8l-9-9z" fill="#fdedc0" class="Dq"/><path d="M214.1 278l9 9h-.7l-9-9z" fill="#fdedc1" class="Dq"/><path d="M214.8 278l9 9h-.7l-9-9z" fill="#fdedc2" class="Dq"/><path d="M215.5 278l9 9h-.7l-9-9z" fill="#fdeec3" class="Dq"/><path d="M216.2 278l9 9h-.7l-9-9z" fill="#fdeec4" class="Dq"/><path d="M216.9 278l9 9h-.7l-9-9z" fill="#fdeec5" class="Dq"/><path d="M217.7 278l9 9h-.8l-9-9z" fill="#fdefc6" class="Dq"/><path d="M218.4 278l9 9h-.7l-9-9z" fill="#fdefc7" class="Dq"/><path d="M219.1 278l9 9h-.7l-9-9z" fill="#fdefc8" class="Dq"/><path d="M219.8 278l9 9h-.7l-9-9z" fill="#fdf0c9" class="Dq"/><path d="M220.5 278l9 9h-.7l-9-9z" fill="#fdf0ca" class="Dq"/><path d="M221.2 278l9 9h-.7l-9-9z" fill="#fdf0cb" class="Dq"/><path d="M221.9 278l8.9 8.9v.1h-.6l-9-9z" fill="#fdf0cc" class="Dq"/><path d="M222.7 278l8.1 8.1v.8l-8.9-8.9z" fill="#fdf1cd" class="Dq"/><path d="M223.4 278l7.4 7.4v.7l-8.1-8.1z" fill="#fdf1ce" class="Dq"/><path d="M224.1 278l6.7 6.7v.7l-7.4-7.4z" fill="#fdf1cf" class="Dq"/><path d="M224.8 278l6 6v.7l-6.7-6.7z" fill="#fdf2d0" class="Dq"/><path d="M225.5 278l5.3 5.3v.7l-6-6z" fill="#fdf2d1" class="Dq"/><path d="M226.2 278l4.6 4.6v.7l-5.3-5.3z" fill="#fdf2d2" class="Dq"/><path d="M226.9 278l3.9 3.9v.7l-4.6-4.6z" fill="#fdf3d3" class="Dq"/><g fill="#fdf3d4"><path d="M227.7 278l3.1 3.1v.8l-3.9-3.9z" class="Dq"/><path d="M230.8 281.1l-3.1-3.1h3.1z" class="Dq"/></g><defs><path id="T" d="M230.8 282c0-1-.7-1.8-1.6-2.1l-3.8-1.2-4.3 8.3h9.7v-5z"/></defs><clipPath id="U"><use xlink:href="#T"/></clipPath><path d="M221.1 286.9l.1.1h-.1z" class="Ds EA"/><path d="M221.1 286.5l.5.5h-.4l-.1-.1z" class="Ds EB"/><path d="M221.1 286.1l.9.9h-.4l-.5-.5z" class="Ds EC"/><path d="M221.1 285.7l1.3 1.3h-.4l-.9-.9z" class="Ds ED"/><path d="M221.1 285.3l1.7 1.7h-.4l-1.3-1.3z" class="Ds EE"/><path d="M221.1 284.9l2.1 2.1h-.4l-1.7-1.7z" class="Ds EF"/><path d="M221.1 284.5l2.5 2.5h-.4l-2.1-2.1z" class="Ds EG"/><path d="M221.1 284.1l2.9 2.9h-.4l-2.5-2.5z" class="Ds EH"/><path d="M221.1 283.7l3.3 3.3h-.4l-2.9-2.9z" class="Ds EI"/><path d="M221.1 283.3l3.7 3.7h-.4l-3.3-3.3z" class="Ds EJ"/><path d="M221.1 282.9l4.1 4.1h-.4l-3.7-3.7z" class="Ds EK"/><path d="M221.1 282.5l4.5 4.5h-.4l-4.1-4.1z" class="Ds EL"/><path d="M221.1 282.1l4.9 4.9h-.4l-4.5-4.5z" class="Ds EM"/><path d="M221.1 281.7l5.3 5.3h-.4l-4.9-4.9z" class="Ds EN"/><path d="M221.1 281.3l5.7 5.7h-.4l-5.3-5.3z" class="Ds EO"/><path d="M221.1 280.9l6.1 6.1h-.4l-5.7-5.7z" class="Ds EP"/><path d="M221.1 280.5l6.5 6.5h-.4l-6.1-6.1z" class="Ds EQ"/><path d="M221.1 280.2l.1-.1 6.8 6.9h-.4l-6.5-6.5z" class="Ds ER"/><path d="M221.2 280.1l.2-.2 7 7.1h-.4z" class="Ds ES"/><path d="M221.4 279.9l.2-.2 7.2 7.3h-.4z" class="Ds ET"/><path d="M221.6 279.7l.2-.2 7.4 7.5h-.4z" class="Ds EU"/><path d="M221.8 279.5l.2-.2 7.6 7.7h-.4z" class="Ds EV"/><path d="M222 279.3l.2-.2 7.8 7.9h-.4z" class="Ds EW"/><path d="M222.2 279.1l.2-.2 8 8.1h-.4z" class="Ds EX"/><path d="M222.4 278.9l.2-.2 8.2 8.3h-.4z" class="Ds EY"/><path d="M222.6 278.7h.3l7.9 7.9v.4z" class="Ds EZ"/><path d="M223.3 278.7l7.5 7.5v.4l-7.9-7.9z" class="Ds Ea"/><path d="M223.7 278.7l7.1 7.1v.4l-7.5-7.5z" fill="#db8284" class="Ds"/><path d="M224.1 278.7l6.7 6.7v.4l-7.1-7.1z" fill="#dc8385" class="Ds"/><path d="M224.5 278.7l6.3 6.3v.4l-6.7-6.7z" fill="#dc8486" class="Ds"/><path d="M224.9 278.7l5.9 5.9v.4l-6.3-6.3z" fill="#dc8587" class="Ds"/><path d="M225.3 278.7l5.5 5.5v.4l-5.9-5.9z" fill="#dc8688" class="Ds"/><path d="M225.7 278.7l5.1 5.1v.4l-5.5-5.5z" fill="#dd8789" class="Ds"/><g fill="#dd888a"><path d="M226.1 278.7l4.7 4.7v.4l-5.1-5.1z" class="Ds"/><path d="M230.8 283.4l-4.7-4.7h4.7z" class="Ds"/></g><defs><path id="V" d="M206.4 282c0-1 .7-1.8 1.6-2.1l3.8-1.2 4.3 8.3h-9.7v-5z"/></defs><clipPath id="W"><use xlink:href="#V"/></clipPath><g class="EA"><path d="M206.4 282.6l4.4 4.4h-4.4z" class="Dr"/><path d="M206.4 282.3l4.7 4.7h-.3l-4.4-4.4z" class="Dr"/></g><path d="M206.4 282l5 5h-.3l-4.7-4.7z" class="Dr EB"/><path d="M206.4 281.8l5.2 5.2h-.2l-5-5z" class="Dr EC"/><path d="M206.4 281.5l5.5 5.5h-.3l-5.2-5.2z" class="Dr ED"/><path d="M206.4 281.2l5.8 5.8h-.3l-5.5-5.5z" class="Dr EE"/><path d="M206.4 280.9l6.1 6.1h-.3l-5.8-5.8z" class="Dr EF"/><path d="M206.4 280.6l6.4 6.4h-.3l-6.1-6.1z" class="Dr EG"/><path d="M206.4 280.3l6.7 6.7h-.3l-6.4-6.4z" class="Dr EH"/><path d="M206.4 280l7 7h-.3l-6.7-6.7z" class="Dr EI"/><path d="M206.4 279.7l7.3 7.3h-.3l-7-7z" class="Dr EJ"/><path d="M206.4 279.5l7.5 7.5h-.2l-7.3-7.3z" class="Dr EK"/><path d="M206.4 279.2l7.8 7.8h-.3l-7.5-7.5z" class="Dr EL"/><path d="M206.4 278.9l8.1 8.1h-.3l-7.8-7.8z" class="Dr EM"/><path d="M206.5 278.7l8.3 8.3h-.3l-8.1-8.1v-.2z" class="Dr EN"/><path d="M206.8 278.7l8.3 8.3h-.3l-8.3-8.3z" class="Dr EO"/><path d="M207.1 278.7l8.3 8.3h-.3l-8.3-8.3z" class="Dr EP"/><path d="M207.4 278.7l8.3 8.3h-.3l-8.3-8.3z" class="Dr EQ"/><path d="M207.6 278.7l8.3 8.3h-.2l-8.3-8.3z" class="Dr ER"/><path d="M207.9 278.7l8.2 8.2v.1h-.2l-8.3-8.3z" class="Dr ES"/><path d="M208.2 278.7l7.9 7.9v.3l-8.2-8.2z" class="Dr ET"/><path d="M208.5 278.7l7.6 7.6v.3l-7.9-7.9z" class="Dr EU"/><path d="M208.8 278.7l7.3 7.3v.3l-7.6-7.6z" class="Dr EV"/><path d="M209.1 278.7l7 7v.3l-7.3-7.3z" class="Dr EW"/><path d="M209.4 278.7l6.7 6.7v.3l-7-7z" class="Dr EX"/><path d="M209.6 278.7l6.5 6.5v.2l-6.7-6.7z" class="Dr EY"/><path d="M209.9 278.7l6.2 6.2v.3l-6.5-6.5z" class="Dr EZ"/><path d="M210.2 278.7l5.9 5.9v.3l-6.2-6.2z" class="Dr Ea"/><path d="M210.5 278.7l5.6 5.6v.3l-5.9-5.9z" fill="#db8284" class="Dr"/><path d="M210.8 278.7l5.3 5.3v.3l-5.6-5.6z" fill="#dc8385" class="Dr"/><path d="M211.1 278.7l5 5v.3l-5.3-5.3z" fill="#dc8486" class="Dr"/><path d="M211.4 278.7l4.7 4.7v.3l-5-5z" fill="#dc8587" class="Dr"/><path d="M211.7 278.7l4.4 4.4v.3l-4.7-4.7z" fill="#dc8688" class="Dr"/><path d="M211.9 278.7l4.2 4.2v.2l-4.4-4.4z" fill="#dd8789" class="Dr"/><g fill="#dd888a"><path d="M212.2 278.7l3.9 3.9v.3l-4.2-4.2z" class="Dr"/><path d="M216.1 282.6l-3.9-3.9h3.9z" class="Dr"/></g><path d="M220 274.5h-2.5c-.1 0-.2 0-.3-.1l-4.6-2.3c-.2-.1-.4-.3-.4-.6v-6.4c0-2.4 1.9-4.3 4.3-4.3h4.1c2.4 0 4.3 1.9 4.3 4.3v6.4a.68.68 0 1 1-1.4 0v-6.4c0-1.7-1.3-3-3-3h-4.1c-1.7 0-3 1.3-3 3v6l4.1 2h2.3a.68.68 0 0 1 .7.7c0 .3-.2.7-.5.7z" fill="#a6a6b9"/><path d="M225.7 267.6h-1.4a.68.68 0 0 0-.7.7v3.2a.68.68 0 0 0 .7.7h1.5c.6 0 1-.5 1-1v-2.4c0-.7-.6-1.2-1.1-1.2z" class="Dx"/><defs><path id="X" d="M225 267.6h-1.4v3.9a.68.68 0 0 0 .7.7h.7v-4.6z"/></defs><clipPath id="Y"><use xlink:href="#X"/></clipPath><g class="EA"><path d="M223.6 271.8l.4.4h-.4z" class="Dt"/><path d="M223.6 271.6l.6.6h-.2l-.4-.4z" class="Dt"/></g><path d="M223.6 271.4l.8.8h-.2l-.6-.6z" class="Dt EB"/><path d="M223.6 271.2l1 1h-.2l-.8-.8z" class="Dt EC"/><path d="M223.6 270.9l1.3 1.3h-.3l-1-1z" class="Dt ED"/><path d="M223.6 270.7l1.4 1.4v.1h-.1l-1.3-1.3z" class="Dt EE"/><path d="M223.6 270.5l1.4 1.4v.2l-1.4-1.4z" class="Dt EF"/><path d="M223.6 270.3l1.4 1.4v.2l-1.4-1.4z" class="Dt EG"/><path d="M223.6 270.1l1.4 1.4v.2l-1.4-1.4z" class="Dt EH"/><path d="M223.6 269.9l1.4 1.4v.2l-1.4-1.4z" class="Dt EI"/><path d="M223.6 269.7l1.4 1.4v.2l-1.4-1.4z" class="Dt EJ"/><path d="M223.6 269.5l1.4 1.4v.2l-1.4-1.4z" class="Dt EK"/><path d="M223.6 269.3l1.4 1.4v.2l-1.4-1.4z" class="Dt EL"/><path d="M223.6 269.1l1.4 1.4v.2l-1.4-1.4z" class="Dt EM"/><path d="M223.6 268.8l1.4 1.4v.3l-1.4-1.4z" class="Dt EN"/><path d="M223.6 268.6l1.4 1.4v.2l-1.4-1.4z" class="Dt EO"/><path d="M223.6 268.4l1.4 1.4v.2l-1.4-1.4z" class="Dt EP"/><path d="M223.6 268.2l1.4 1.4v.2l-1.4-1.4z" class="Dt EQ"/><path d="M223.6 268l1.4 1.4v.2l-1.4-1.4z" class="Dt ER"/><path d="M223.6 267.8l1.4 1.4v.2l-1.4-1.4z" class="Dt ES"/><path d="M223.6 267.6l1.4 1.4v.2l-1.4-1.4v-.2z" class="Dt ET"/><path d="M223.8 267.6l1.2 1.2v.2l-1.4-1.4z" class="Dt EU"/><path d="M224 267.6l1 1v.2l-1.2-1.2z" class="Dt EV"/><path d="M224.2 267.6l.8.8v.2l-1-1z" class="Dt EW"/><path d="M224.5 267.6l.5.5v.3l-.8-.8z" class="Dt EX"/><path d="M224.7 267.6l.3.3v.2l-.5-.5z" class="Dt EY"/><path d="M224.9 267.6l.1.1v.2l-.3-.3z" class="Dt EZ"/><path d="M225 267.7l-.1-.1h.1z" class="Dt Ea"/><path d="M211.5 267.6h1.4a.68.68 0 0 1 .7.7v3.2a.68.68 0 0 1-.7.7h-1.5c-.6 0-1-.5-1-1v-2.4c0-.7.5-1.2 1.1-1.2z" class="Dx"/><defs><path id="Z" d="M212.2 267.6h1.4v3.9a.68.68 0 0 1-.7.7h-.7v-4.6z"/></defs><clipPath id="a"><use xlink:href="#Z"/></clipPath><g class="EA"><path d="M213.1 272.2l.5-.5v.5z" class="Du"/><path d="M212.9 272.2l.7-.7v.2l-.5.5z" class="Du"/></g><path d="M212.7 272.2l.9-.9v.2l-.7.7z" class="Du EB"/><path d="M212.5 272.2l1.1-1.1v.2l-.9.9z" class="Du EC"/><path d="M212.3 272.2l1.3-1.3v.2l-1.1 1.1z" class="Du ED"/><path d="M212.2 272.1l1.4-1.4v.2l-1.3 1.3h-.1z" class="Du EE"/><path d="M212.2 271.9l1.4-1.4v.2l-1.4 1.4z" class="Du EF"/><path d="M212.2 271.7l1.4-1.4v.2l-1.4 1.4z" class="Du EG"/><path d="M212.2 271.5l1.4-1.4v.2l-1.4 1.4z" class="Du EH"/><path d="M212.2 271.2l1.4-1.4v.3l-1.4 1.4z" class="Du EI"/><path d="M212.2 271l1.4-1.4v.2l-1.4 1.4z" class="Du EJ"/><path d="M212.2 270.8l1.4-1.4v.2l-1.4 1.4z" class="Du EK"/><path d="M212.2 270.6l1.4-1.4v.2l-1.4 1.4z" class="Du EL"/><path d="M212.2 270.4l1.4-1.4v.2l-1.4 1.4z" class="Du EM"/><path d="M212.2 270.2l1.4-1.4v.2l-1.4 1.4z" class="Du EN"/><path d="M212.2 270l1.4-1.4v.2l-1.4 1.4z" class="Du EO"/><path d="M212.2 269.8l1.4-1.4v.2l-1.4 1.4z" class="Du EP"/><path d="M212.2 269.6l1.4-1.4v.2l-1.4 1.4z" class="Du EQ"/><path d="M212.2 269.4l1.4-1.4v.2l-1.4 1.4z" class="Du ER"/><path d="M212.2 269.1l1.4-1.4v.3l-1.4 1.4z" class="Du ES"/><path d="M212.2 268.9l1.3-1.3h.1v.1l-1.4 1.4z" class="Du ET"/><path d="M212.2 268.7l1.1-1.1h.2l-1.3 1.3z" class="Du EU"/><path d="M212.2 268.5l.9-.9h.2l-1.1 1.1z" class="Du EV"/><path d="M212.2 268.3l.7-.7h.2l-.9.9z" class="Du EW"/><path d="M212.2 268.1l.5-.5h.2l-.7.7z" class="Du EX"/><path d="M212.2 267.9l.3-.3h.2l-.5.5z" class="Du EY"/><path d="M212.2 267.7l.1-.1h.2l-.3.3z" class="Du EZ"/><path d="M212.3 267.6l-.1.1v-.1z" class="Du Ea"/></g></g><circle cx="235.6" cy="258.4" r="9.7" class="Ef"/><path d="M235.6 268.6c-5.6 0-10.2-4.6-10.2-10.2s4.6-10.2 10.2-10.2 10.2 4.6 10.2 10.2-4.6 10.2-10.2 10.2zm0-19.4c-5.1 0-9.2 4.1-9.2 9.2s4.1 9.2 9.2 9.2 9.2-4.1 9.2-9.2-4.1-9.2-9.2-9.2zm-3.1 13.8v-1.1l1-.9c1.6-1.5 2.4-2.3 2.5-3.2 0-.6-.4-1.1-1.2-1.1-.6 0-1.2.3-1.6.6l-.5-1.3c.6-.4 1.4-.8 2.5-.8 1.7 0 2.6 1 2.6 2.4 0 1.3-.9 2.3-2 3.2l-.7.6h2.8v1.4h-5.4v.2z" class="Dv"/><path d="M220.9 99h-1v-4.5h1V99zm0-10.5h-1v-6h1v6z" fill="#727272"/><g fill="#f9d980"><circle cx="56" cy="85.9" r="34" opacity=".5" class="Dw"/><circle cx="56" cy="85.9" r="29.5"/></g><defs><circle id="b" cx="56" cy="85.9" r="29.5"/></defs><clipPath id="c"><use xlink:href="#b"/></clipPath><g clip-path="url(#c)"><path d="M58.2 195.2s1.8 2.5 3.5 1.9c.8-.3-.7-2.1-.8-4s2.5-26 2.5-27.8c0-1.9-.7-5.2-.7-5.2s1.7-3.8 1.6-14.3c-.1-4.8-6.7-6.9-7.1-.5s-.4 15.1-.4 15.1-.4 1.8 0 4.9c.3 2.7 1.4 29.9 1.4 29.9z" class="Dy"/><g class="Eg"><path d="M61.6 194.4c.4 1.1 2.4 3.5 3.4 5.7.7 1.5.7 1.9.2 2.3s-2.7.7-3.6-.3l-3.9-4.4c-.4-.6.2-3 .4-3 .3 0 .2.6 1.1.6.1-.3-.1-.2.3-.6.5-.6 2.1-.3 2.1-.3zM45.1 82.2c0 2 4.9 8.2 10.4 8.2 5.6 0 10.4-6.6 10.4-8.6s-4.5-1.9-10.1-1.9c-5.5-.1-10.7.3-10.7 2.3z"/></g><path d="M53.5 195.2s-1.8 2.5-3.5 1.9c-.8-.3.7-2.1.8-4s-2.5-26-2.5-27.8c0-1.9.7-5.2.7-5.2s-1.7-3.8-1.6-14.3c.1-4.8 7.6-6.9 8-.5s-.5 15-.5 15 .4 1.8 0 4.9c-.3 2.8-1.4 30-1.4 30z" class="Dy"/><path d="M50.9 95.3h8.9V92s-.9-.9-3.9-.9-4.2.6-4.2.6l-.8 3.6z" fill="#042439"/><g class="Dy"><path d="M72.2 132c.5 1.9.3 4.3-.5 4.5s-1.8-1.6-2.3-3.1c-.1-.2.1 1.2-.6 1.1-.4-.1-.6-2.3-.4-2.8.6-1.4 1.1-2 1.6-2.1.8-.2 1.8.5 2.2 2.4zM48 102.2h15.2l1.4-7.5-6.5-1.3v-4.3H53v4.3l-6.4 1.3z"/></g><path d="M53 90s1.1 1.7 2.6 1.7 2.5-1.7 2.5-1.7v-.9H53v.9z" fill="#e4c9a5"/><g class="Dy"><path d="M64.3 82.9c-1.8 5.2-4.5 7.7-8.5 7.7s-6.6-2.6-8.6-7.7c-1.3-3.5-.7-7.7-.7-7.7 0-4.9 1.5-10.2 9.2-10.2 7.8 0 9.2 6.1 9.2 10.9.1 0 .3 4.3-.6 7z"/><path d="M44.3 80.8c.5 1.6 2.2 2.5 2.6 1.6.4-.8 1.1-1.3.9-2.7s-2-2.9-2.8-2.4c-1.3.7-1.1 2.2-.7 3.5zm22.6-.2c-.5 1.6-2.2 2.5-2.6 1.6-.4-.8-1.1-1.3-.9-2.7s2-2.9 2.8-2.4c1.3.7 1.1 2.2.7 3.5z"/></g><path d="M64.1 79.8s.7-3 2.4-2.5l.1-3.4s.8-.5.9-1.1C66 71.1 65 62.5 56.1 62.2c-1.8-.1-3.9-.2-5.3 1.7-3.3-1.7-5.4 5.2-6.8 7.1-.1.2 1 .5 1 .7-.4 2-.6 4.2-.3 5.8 1.7-1.1 2.4 2.3 2.4 2.3l.6-.1s-1-1.7.3-3c-.2-5.3 2.5-4.7 3.5-6 3.5-3.3 1.5.9 6 2.7 4.2 1.7 6 1.5 5.7 3.2 1.3 1.1.5 3 .5 3l.4.2z" class="Eg"/><path d="M48 126.4h15.2L63 94.6l-4-1.4s-1 1.5-3.3 1.5-3.1-1.5-3.1-1.5l-4.3 1.2-.3 32z" class="Dv"/><path d="M62.1 194c2.2-12.9 3.4-69.3 3.4-63.2 0-2.8-2.3-4.4-2.3-4.4H48s-1.9 1.3-1.9 4.7c0-6.5-.4 46.4 4 62.8h4.5l1-36.4.3-20.1h.8l-.3 20.7c-.1 8.7 1 35.8 1 35.8h4.7v.1z" fill="#212728"/><path d="M59.8 92l-1.3 4.7-2.8 2.7L55 134l11.1-.5-.7-23.3c0-2.2.6-5.6.6-5.6l.2-9.8-4.5-.8-1.9-2z" class="Eh"/><path d="M59.2 91.7c.5 2.2-3.5 7.7-3.5 7.7l3.6-.5-.4-1.4 2.1.1.8-3.7c-.1.1-1.3-1.7-2.6-2.2z" fill="#0573b0"/><path d="M70.1 101.2c.3 1.3 2.2 22.5 2.1 28.3-.4.7-3.7 2-4.1 1.5l-2.4-28.5c0-1.8-1.5-7.9.3-7.9 1.9.1 3.2 2.3 4.1 6.6z" class="Eh"/><path d="M38.7 132c-.5 1.9-.3 4.3.5 4.5.7.2 1.8-1.6 2.3-3.1.1-.2-.1 1.2.6 1 .4-.1.6-2.3.4-2.7-.6-1.4-1-1.9-1.6-2.1-.8-.2-1.7.5-2.2 2.4z" class="Dy"/><g class="Eh"><path d="M51.2 92l1.8 4.8 2.6 2.6-.7 34.6-10-.5.7-23.3c0-2.2-.6-5.6-.6-5.6l-.2-9.8 4.4-.8 2-2z"/><path d="M40.8 101.2c-.3 1.3-2.2 22.4-2.1 28.3.4.7 3.7 2 4.1 1.5l2.4-28.5c0-1.8 1.5-7.9-.3-7.9-1.8.1-3.2 2.3-4.1 6.6z"/></g><path d="M50.1 194.4c-.4 1.1-2.4 3.5-3.4 5.7-.7 1.5-.7 1.9-.2 2.3s2.7.7 3.6-.3l3.9-4.4c.4-.6-.2-3-.4-3-.3 0-.2.6-1.1.6-.1-.3.1-.2-.3-.6-.5-.6-2.1-.3-2.1-.3z" class="Eg"/><path d="M51.7 91.7c-.5 2.2 3.9 7.7 3.9 7.7L52 99l.1-1.4-2.1.1-.7-3.7s1.2-1.8 2.4-2.3z" fill="#0573b0"/><g class="Dv"><use xlink:href="#B"/><path d="M56.3 107.8a.7.7 0 1 1-1.4 0 .7.7 0 1 1 1.4 0zm0 5.4a.7.7 0 1 1-1.4 0 .7.7 0 1 1 1.4 0z"/><circle cx="55.7" cy="118.6" r=".7"/><path d="M56.3 124a.7.7 0 1 1-1.4 0 .7.7 0 1 1 1.4 0zm0 5.4a.7.7 0 1 1-1.4 0 .7.7 0 1 1 1.4 0z"/></g></g><circle cx="55.1" cy="118.1" r="11.6" fill="#f9d980"/><path d="M55.1 130.2a12.08 12.08 0 1 1 0-24.2 12.08 12.08 0 1 1 0 24.2zm0-23.2C49 107 44 112 44 118.1s5 11.1 11.1 11.1 11.1-5 11.1-11.1-5-11.1-11.1-11.1z" class="Dv"/><path d="M57.3 111.8h-4.7a1.54 1.54 0 0 0-1.5 1.5v11.1a1.54 1.54 0 0 0 1.5 1.5h4.7a1.54 1.54 0 0 0 1.5-1.5v-11.1a1.54 1.54 0 0 0-1.5-1.5zm-3 .9h1.4c.1 0 .2.1.2.2s-.1.2-.2.2h-1.4c-.1 0-.2-.1-.2-.2s.1-.2.2-.2zm-.8.1c.1-.1.2-.1.3 0 0 0 .1.1.1.2s0 .1-.1.2c0 0-.1.1-.2.1s-.1 0-.2-.1c0 0-.1-.1-.1-.2.1-.1.1-.2.2-.2zm1.4 12.6a.68.68 0 1 1 0-1.4.68.68 0 1 1 0 1.4zm3.2-1.8h-6.2v-9.7h6.2v9.7z"/><g fill="#e8cef4"><circle cx="391" cy="85.9" r="34" opacity=".5" class="Dw"/><circle cx="391" cy="85.9" r="29.5"/></g><defs><circle id="d" cx="391" cy="85.9" r="29.5"/></defs><clipPath id="e"><use xlink:href="#d"/></clipPath><g clip-path="url(#e)"><g class="Ec"><path d="M400.7 95.3c0 2.8-2.3 5.1-5.1 5.1s-5.1-2.3-5.1-5.1 2.3-5.1 5.1-5.1c2.9 0 5.1 2.3 5.1 5.1z"/><path d="M379.5 86.2c0 1.3.5 2.3 3.5 6.1s7.4 2.8 8.2 2.8 5.1.7 7.7-2.3c1.1-1.3 3.2-4.2 3.2-6.2"/></g><path d="M396.9 99.3l-1.3 12.8s-.9 3-4.5 3c-3.6.1-4.8-2.3-4.8-2.3L385 100s1.6-3.3 1.3-5.8 9.4-2.7 9-.1 1.6 5.2 1.6 5.2z" class="Eb"/><g fill="#e3b48a"><path d="M401.4 80.5c-.2 2.4-.6 5.1-1.1 7.5-.2.7-.3 1.8-.8 2.7-1 1.8-5.4 6.5-7 6.8-.6.1-3 .1-3.7-.3-2.2-1.2-5.3-4.8-6.1-6.5-.4-.8-.7-1.7-.9-2.7-.5-2.1-.9-4.7-1.1-7.5-.7-8 4.6-11.5 10.3-11.5s11 3.5 10.4 11.5z"/><path d="M403.4 83.9c-.1.9-.9 2.5-1.3 3-.2.4-1.4 1.1-1.9 1.1s-.3-1.4-.5-1.9-.3-1.5-.2-2.6c0-1.8 1.1-2.4 2.2-2.3s2 .9 1.7 2.7zm-24.8 0c.1.9.9 2.5 1.3 3 .2.4 1.4 1.1 1.9 1.1s.3-1.4.5-1.9.3-1.5.2-2.6c0-1.8-1.1-2.4-2.2-2.3-1 .1-1.9.9-1.7 2.7z"/></g><path d="M380.6 81.2s0 2.4.4 2.3c.3 0 .4-1 0-2.8-.4-1.9.3-4.5.7-4.9 1.3-1 2.4.5 6.1 0 4.2-.6 4.8-4.4 7.7-2.7 3.1.3 4.4 2 5 5.3s-.6 5.6 0 5.6.3-2.3 1-2.7c.7-.3 1.1.1 1.1.1s1.5-7.3-.8-11.5c-1.7-3.2-2.9-4.5-8.1-4.5-5.8-3.4-12.7 4.1-13.9 6.5-1.7 3.5-1 10.4-.6 9.8s1.4-.5 1.4-.5z" class="Ec"/><g class="Dv"><path d="M381.3 87c0 .2-.2.3-.3.3-.2 0-.3-.2-.3-.3 0-.2.2-.3.3-.3s.3.1.3.3zm19.6 0c0 .2-.2.3-.3.3-.2 0-.3-.2-.3-.3 0-.2.2-.3.3-.3.2 0 .3.1.3.3zm-4 34.1v-13.6s-2.1 1.4-5.8 1.4c-3.6 0-5.8-1.4-5.8-1.4v13.6h11.6z"/></g><path d="M389.3 121.1l-.4-1.2-3.2-21.6s-1.7 1.5-4.4 2.6c-2.3 1-5.5 1.5-6.5 2.6-1.2 1.4-2.3 10-3 17.6h17.5z" fill="#272126"/><path d="M380.6 103.4l6.3 17.7h2.4l-.4-1.2-3.2-21.6-5.3 2.4 4.2 4.8z" fill="#352e35"/><path d="M410.3 121.1c-.7-7.7-1.8-16.3-3-17.6-1-1.2-4.2-1.7-6.4-2.6-2.6-1.1-4.3-2.6-4.3-2.6l-3.2 21.6-.4 1.2h17.3z" fill="#272126"/><path d="M395.5 121.1l8.5-18.2-4.5 1.4 3.2-3.4-6.1-2.6-3.1 21.6-.5 1.2z" fill="#352e35"/></g><circle cx="390.1" cy="118.1" r="11.6" fill="#e8cef4"/><use xlink:href="#C" class="Dv"/><path d="M392.3 111.8h-4.7a1.54 1.54 0 0 0-1.5 1.5v11.1a1.54 1.54 0 0 0 1.5 1.5h4.7a1.54 1.54 0 0 0 1.5-1.5v-11.1c-.1-.8-.7-1.5-1.5-1.5zm-3.1.9h1.4c.1 0 .2.1.2.2s-.1.2-.2.2h-1.4c-.1 0-.2-.1-.2-.2s.1-.2.2-.2zm-.8.1c.1-.1.2-.1.3 0 0 0 .1.1.1.2s0 .1-.1.2c0 0-.1.1-.2.1s-.1 0-.2-.1c0 0-.1-.1-.1-.2.2-.1.2-.2.2-.2zm1.5 12.6a.68.68 0 1 1 0-1.4.68.68 0 0 1 .7.7c-.1.4-.4.7-.7.7zm3.2-1.8h-6.2v-9.7h6.2v9.7z"/><circle cx="220" cy="70.7" r="11.6" fill="#ffac9c"/><use xlink:href="#C" x="-170.1" y="-47.4" class="Dv"/><path d="M222.2 64.4h-4.7a1.54 1.54 0 0 0-1.5 1.5V77a1.54 1.54 0 0 0 1.5 1.5h4.7a1.54 1.54 0 0 0 1.5-1.5V65.9a1.54 1.54 0 0 0-1.5-1.5zm-3 .9h1.4c.1 0 .2.1.2.2s-.1.2-.2.2h-1.4c-.1 0-.2-.1-.2-.2s.1-.2.2-.2zm-.8.1c.1-.1.2-.1.3 0 0 0 .1.1.1.2s0 .1-.1.2c0 0-.1.1-.2.1s-.1 0-.2-.1c0 0-.1-.1-.1-.2.1-.1.1-.2.2-.2zm1.4 12.5a.68.68 0 1 1 0-1.4.68.68 0 0 1 .7.7c0 .5-.3.7-.7.7zm3.2-1.7h-6.2v-9.7h6.2v9.7z"/><path d="M303 232.7H141c-15.5 0-28-12.6-28-28v-84.6c0-15.5 12.6-28 28-28h162c15.5 0 28 12.6 28 28v84.6c0 15.5-12.6 28-28 28z" fill="#a6c8ff" opacity=".52"/><defs><path id="f" d="M299.7 223.7H142.8c-12.3 0-22.3-10-22.3-22.3v-77.9c0-12.3 10-22.3 22.3-22.3h156.9c12.3 0 22.3 10 22.3 22.3v77.9c0 12.3-10 22.3-22.3 22.3z"/></defs><use xlink:href="#f" fill="#a6c8ff"/><clipPath id="g"><use xlink:href="#f"/></clipPath><g clip-path="url(#g)"><g class="Ei"><path d="M127.1 265.7h162v1.5h-162zm15.7 2.4h162v1.5h-162zm36 2.4h101.9v1.5H178.8z"/></g><path d="M201.7 215.2h5.3v47.1h-5.3z" fill="#515151"/><g fill="#2d2d2d"><path d="M182.6 266v-.2c0-2.3 1.4-4.1 3.1-4.1H223c1.7 0 3.1 1.8 3.1 4.1v.2h-43.5zm16.9-53.3h9.7v11h-9.7z"/></g><g fill="#ff740d"><path d="M207.6 212.3h33v2.5h-33z"/><path d="M196.9 146h-30.1s.1 5.7.7 16.7 5.4 38.3 8.3 42.3c3 4 9.7 11.6 32.1 8.2 6.1-10.1-11-67.2-11-67.2z"/></g><path d="M166.8 146c0 .3 3.9 31.9 6.1 44.8 2.3 13.8 6.1 19.1 14.4 20.2 4.9.6 15.2.7 22.8.7v3h-3.4c-7.1 0-15.4-.1-19.8-.7-11.2-1.5-14.8-9.8-17-22.7-2.2-13-6.1-43.5-6.1-43.9l3-1.4z" fill="#ff9810"/><path d="M251.2 259.7l-9.4-61.5c-.3-1.8.2-3.5 1.3-4.8 1.3-1.5 3.3-2.3 5.5-2.3h37.7c2.2 0 4.2.9 5.5 2.3 1.1 1.3 1.6 3 1.3 4.8l-9.3 61.4c-.6 3.8-3.1 6.7-5.7 6.7h-21.2c-2.6.1-5.2-2.8-5.7-6.6zm-2.5-66.1c-1.5 0-2.8.5-3.6 1.5-.7.8-.9 1.7-.8 2.8l9.4 61.5c.4 2.7 2.1 4.6 3.3 4.6h21.2c1.2 0 2.9-2 3.3-4.6l9.3-61.4c.2-1-.1-2-.8-2.8-.8-.9-2.1-1.5-3.6-1.5h-37.7z" fill="#636363"/><path d="M238.2 224.1h25.4v42.4h-25.4z" class="Dz"/><path d="M263.5 224.1h16.2v42.4h-16.2z" fill="#f7f7f7"/><path d="M277.5 228.2h-12.7v-.8h13.7v35.7h-1z" class="Dz"/><path d="M195.8 116s-4.6 3.2-6.2 12.7c-1.5 9.5-7.5 27.7-1 24.7 10.9-4.9 16.3.8 21.7.8 10.8 0 8.4.1 8-4.1s-1.5-26.9-3.7-31.4c-2.9-6.3-12.5-9.3-18.8-2.7z" class="Ej"/><path d="M213.5 151.1s3.9 2.5 5.4 9.9 6.1 16.5 6.1 16.5h24v8.1h-31.6l-8.8-15.6 4.9-18.9z" fill="#1e388c"/><path d="M196.2 145.9s-5.9 1.8-11.1 5.2c-5.2 3.3-5 4.5-5 4.5s1.9 21.2.7 30-3.3 18.3 2.3 23.5c0-6 9.6-23.5 34.7-17.4-2.7-6.5-6.1-6-4.9-9.4 1.2-3.3.8-5 2.8-8.3 2.9-4.9.9-10.2.9-10.2l-3-12.7-6.2-4.1-11.2-1.1z" fill="#253b99"/><path d="M207.1 145.7s1.9 2.8 1.4 5.9-4.5 3.7-8.5 3.3-10.2-7.6-2.7-9.9c4.6.9 9.8.7 9.8.7z" class="Dv"/><path d="M197.9 140s0 5.2-2.8 8.2c3.3 2.8 7.3 3.8 9.6 3.8 1 0 2.6-3.2 2.6-3.2s-.6-4.6 0-8.9c-2.4-1-9.4.1-9.4.1z" fill="#edbf7e"/><path d="M195.6 128.6s-1.2 9.4 2.8 12.6c3.2 2.7 6.3 4.2 8.9 3.7s5.6-3.7 6.8-6.9c1.3-3.2 1.8-7.2.6-11.8-.6-2.3-6.1-12.4-15.8-9.8-7.8 2-3.3 12.2-3.3 12.2z" class="Ek"/><path d="M212.9 122.7s0 3.7 2.9 7c.2-.5 0-.6-1-5.1s-8.5-11.4-16.3-9.8-7.1 13.7-5 18.5c1.7-1.8 19.5-8.9 19.4-10.6z" class="Ej"/><g fill="#cecece"><path d="M215.8 129v-4.9c0-6.2-5-11.3-11.2-11.3s-11.2 5.1-11.2 11.3v4.9h-1v-4.9c0-6.8 5.5-12.3 12.2-12.3s12.2 5.5 12.2 12.3v4.9h-1zm-5.4 12.3c2.1 0 3.7-.6 4.8-1.8 1.3-1.4 1.4-3.1 1.4-3.2h-.4s-.1 1.6-1.2 2.9c-1.2 1.3-3 1.9-5.5 1.7v.5c.3-.1.6-.1.9-.1z"/></g><path d="M207.4 141c0 .4.3.7.6.7h1.4c.3 0 .6-.3.6-.7h0c0-.4-.3-.7-.6-.7H208c-.3 0-.6.3-.6.7h0z" class="Ej"/><path d="M215.8 126.8c.1-.1.3-.1.4-.2 1.4-.3 2.4 2.3 2.3 5.6-.2 3.3-1.4 5.5-2.7 5.1a.76.76 0 0 1-.4-.2c.9-3.9 1-6.1.4-10.3z" fill="#ff3369"/><path d="M214.6 136.5c-.1.4.1.7.4.8h0c.3.1.6-.1.7-.5.8-3.7.9-5.7.4-9.6 0-.4-.3-.7-.6-.6h0c-.3.1-.5.4-.5.8.4 3.7.3 5.6-.4 9.1z" fill="#6d6d6d"/><path d="M193.7 126.9c-.2 0-.3.1-.5.1-1.6.6-2.1 3.1-1.8 5.8s1.3 5.1 3 5.3c.2 0 .4 0 .5-.1 1.5-4.6.5-7.8-1.2-11.1z" fill="#ff3369"/><path d="M196.3 137.6c-.1.4-.7.8-1.1.8h0c-.4 0-.7-.2-.7-.3 1.6-3.7.9-9-1.1-11.1 0-.2.2-.3.5-.4h0c.3-.1.9-.1 1.2.4 1.7 2.3 2.4 6.6 1.2 10.6z" fill="#6d6d6d"/><g class="Dv"><path d="M203.8 151.9s2.6 3.4 3 11.4 0 13.3 0 13.3l6-5.7s-4.5-15.5-6.1-17.9c-1.6-2.5-1.8-2.2-2.9-1.1z"/><path d="M204.7 151.9s-1.5-1.7-2.4-.3-2 20-2 20 5.6 7.5 5.7 9.4c.3-6.5.6-23.5-1.3-29.1z"/></g><path d="M200.3 178.7s2.9.5 5.2-.3c2.3-.7 4.8-1.6 6.1-1.6s6.9 4 6.5 6.1c-.2 1-.7.6-3.6.7s-13.3 1.5-13.3 1.5l-.9-6.4z" class="Ek"/><path d="M191.7 178.5h11.7v7.5h-11.7v-7.5z" class="Dv"/><path d="M176.2 162.5s2.7-9 7.1-9.4 5.2 6.4 2.3 11.4c-2.5 4.5-5.5 13.4-5.5 13.4h21.7v8.1h-27.6c-5.5 0-6-3.8-4.3-8.3l6.3-15.2z" fill="#3150af"/><path d="M174.5 186.1h124.6v2.9H174.5z" fill="#f49c1e"/><path d="M169.5 188.9h124.6v2.9H169.5z" fill="#3d3d3d"/><path d="M141 188.9h40.8v2.9H141z" fill="#545454"/><path d="M137.5 186.1h37v2.9h-37z" fill="#ffac3e"/><g class="Dz"><path d="M266.4 258.3h10.4v1.8h-10.4zm0-4.1h10.4v1.8h-10.4zm0-4.1h10.4v1.8h-10.4z"/></g><g class="Ei"><use xlink:href="#D"/><path d="M261.2 171.6c0 .5.4.8.8.8.5 0 .8-.4.8-.8 0-.5-.4-.8-.8-.8-.5-.1-.8.3-.8.8z"/></g><path d="M212.3 183.5h49.2v2.6h-49.2z" class="Dz"/><path d="M203.4 183.5h9v2.6h-9z" fill="#f4f4f4"/><path d="M217.8 175.3c-.2 1 1.3 3.6 2.4 3.6l49.2-1.8c1 0 2-.8 2.2-1.8l7.1-30c.2-1-1.7-3.3-2.7-3.3h-50c-1 0-2 .8-2.2 1.8l-6 31.5z" class="Dv"/><path d="M219 177.2c-.2 1 .5 1.8 1.5 1.8h50c1 0 2-.8 2.2-1.8l5.9-31.4c.2-1-.5-1.8-1.5-1.8h-50c-1 0-2 .8-2.2 1.8l-5.9 31.4z" class="Dz"/><path d="M256 160.6l2.1 16.7c.4 4.5 1.1 8.8-4.2 8.8h-11.7l2.8-1.4 1.2-2.9-1.9-21.3 11.7.1z" fill="#f7f7f7"/><path d="M230 186.1h11.7c1.7 0 3-.4 3.8-1.3 1.5-1.6 1.2-4.3 1-7.2l-.1-.8c-.4-4.4-2-16.1-2-16.2l-.7 2.4c0 .1 1.4 9.5 1.7 13.9l.1.8c.2 2.6.5 5.1-.7 6.4-.6.7-1.6 1-3.1 1H230v1z" class="Dv"/><g class="Ei"><path d="M268.9 245.5c.4 0 .7-.1 1-.4 4.6-3.7 4.2-36.4 4.1-52.1v-2c-.2-15.6-14.5-19.7-14.6-19.7l-.1.5c.1 0 14.1 4.1 14.3 19.3v2c.2 14.4.5 48.2-3.9 51.7-.3.2-.6.3-.9.2l-.1.5c-.1 0 .1 0 .2 0z"/><path d="M273.1 245.5c.4 0 .7-.1 1-.4 4.6-3.7 4.2-36.4 4.1-52.1v-2c-.2-15.6-15.9-19.7-16.1-19.7l-.1.5c.2 0 15.5 4.1 15.7 19.3v2c.2 14.4.5 48.2-3.9 51.7-.3.2-.6.3-.9.2l-.1.5h.3z"/></g><path d="M233.1 202.1s-1.7 10.4-6.3 10.1c-4.6-.2-5.9-6.5-5.8-8.9s12.1-1.2 12.1-1.2z" fill="#132c6d"/><path d="M210.6 196.4c18.4-3.9 25.8-3 31.2 1.4 5.5 4.5 20.5 30 20.5 30s2.7 3.8 8.1 2.2c5.4-1.5 7.4-3.2 8.4-3.1.9.1-1.1 6.1-5.3 8.6-4.3 2.5-10.9 3.5-11.9 2.6-1-1.5-3.8-6.9-4.6-8-2.8-4.2-7.1-6.8-11.3-11.9-4.1-4.9-8.1-12.3-10.8-14.5-2-1.7-14.6 1.2-29 4.8s-18.5-7.7-18.5-7.7 4.8-.5 23.2-4.4z" class="Ek"/><path d="M221.4 205.3s15.6-7.7 16.7 2.4c.7 6.1-12.1 36.7-13.7 44.6-.1 1.7.3 4.3 3.1 6.2 4.7 3.2 7.2 3.7 7.8 4.4s-5.3 3.1-10 1.4-9.7-6.1-9.6-7.4c.6-2.1 1.1-3 1.2-3.9 0 0 1.4-3.2 1.7-4.4 1-3.6 1.8-15.1 4-24.1 1.7-6.8 6.5-12.1 6.5-14 0-2.5-9.1.2-11-.4-1.9-.7 3.3-4.8 3.3-4.8z" fill="#efc484"/><path d="M218.7 191.6s13.8.9 16.3 2.9c-9.3 0-11.1 3.9-11.8 6.5-.7 2.5.3 11.1 3.5 11.3l-24.8.4c-8.1 0-22.4.8-21.1-11 20.9-17.9 37.9-10.1 37.9-10.1z" fill="#1d3789"/><path d="M216.3 257.9s3.6 2.7 8.7 4.6c0-1.2 10.9 1.9 13.3 2.8.2.1.5 1.6-.5 2.7-2.1 2.3-6.1 2.1-10.4.2-1.8-.8-3.3-2.3-5.3-3.3-3-1.6-6.2-2.8-6.3-3.1-.8-2.5.5-3.9.5-3.9z" fill="#212121"/><path d="M216.4 254.5s3.6 5.2 8.7 7.1c0-1.2 1.4-3.6 3.8-2.6 4.3 2.2 11.4 5.4 9 7.4s-5.4 2.4-9.8.5c-1.4-.6-3.4-2.3-5.1-3.3-3.7-2-7.2-3.4-7.3-4.3-.5-2.7.7-4.8.7-4.8z" fill="#353535"/><path d="M261.5 238.6s4.4-1.2 9-3.9c-1-.8 8.2-7.4 10.4-8.7.2-.1 1.6.6 1.8 2.1.5 3-2.2 6-6.3 8.3-4.2 2.3-11.8 5.4-12.3 5.2-2.4-1.1-2.6-3-2.6-3z" fill="#212121"/><path d="M259.9 235.5s5.2 1.3 9.8-1.5c-1-.8-1.9-3.3.3-4.6 4.4-2 11.3-5.6 11.4-2.5s-1.5 5.7-5.6 8c-4.2 2.3-12.6 5.8-13.6 5.2-2.4-1.4-2.3-4.6-2.3-4.6z" fill="#353535"/><path d="M153.1 259.7l-9.4-61.5c-.3-1.8.2-3.5 1.3-4.8 1.3-1.5 3.3-2.3 5.5-2.3h37.7c2.2 0 4.2.9 5.5 2.3 1.1 1.3 1.6 3 1.3 4.8l-9.3 61.4c-.6 3.8-3.1 6.7-5.7 6.7h-21.2c-2.6.1-5.1-2.8-5.7-6.6zm-2.5-66.1c-1.5 0-2.8.5-3.6 1.5-.7.8-.9 1.7-.8 2.8l9.4 61.5c.4 2.7 2.1 4.6 3.3 4.6h21.2c1.2 0 2.9-2 3.3-4.6l9.3-61.4c.2-1-.1-2-.8-2.8-.8-.9-2.1-1.5-3.6-1.5h-37.7z" fill="#636363"/></g></svg>