<svg xmlns="http://www.w3.org/2000/svg" xmlns:xlink="http://www.w3.org/1999/xlink" width="445" height="297" xmlns:v="https://vecta.io/nano"><style><![CDATA[.X{fill:#00567a}.Y{stroke-miterlimit:10}.Z{fill:#134f5e}.a{fill:#0075a3}.b{stroke-dasharray:3.0069,3.0069}.c{stroke-dasharray:3.0332,3.0332}]]></style><g fill="none" stroke="#000" stroke-width=".75" class="Y"><path d="M409.7 247.5v1.5h-1.5"/><path d="M405.2 249H33.8" class="b"/><path d="M32.3 249h-1.5v-1.5"/><path d="M30.8 244.5V39.7" class="c"/><path d="M30.8 38.2v-1.5h1.5"/><path d="M35.3 36.7h371.4" class="b"/><path d="M408.2 36.7h1.5v1.5"/><path d="M409.7 41.2V246" class="c"/><path d="M119.5 147.1H118"/><path d="M115.1 147.1H33.8" stroke-dasharray="2.9561,2.9561"/><path d="M32.3 147.1h-1.5m378.3 1h-1.5"/><path d="M404.6 148.1h-77.4" stroke-dasharray="3.0339,3.0339"/><path d="M325.7 148.1h-1.5"/></g><path d="M53.4 72.1H24.5c-5.8 0-10.6-4.7-10.6-10.6V32.6c0-5.8 4.7-10.6 10.6-10.6h28.9C59.3 22 64 26.8 64 32.6v28.9a10.54 10.54 0 0 1-10.6 10.6z" fill="#abdb91"/><path d="M80.6 167.9H51.7c-5.8 0-10.6-4.7-10.6-10.6v-28.9c0-5.8 4.7-10.6 10.6-10.6h28.9c5.8 0 10.6 4.7 10.6 10.6v28.9a10.54 10.54 0 0 1-10.6 10.6z" fill="#afa1e5"/><path d="M53.4 263.7H24.5c-5.8 0-10.6-4.7-10.6-10.6v-28.9c0-5.8 4.7-10.6 10.6-10.6h28.9c5.8 0 10.6 4.7 10.6 10.6v28.9a10.54 10.54 0 0 1-10.6 10.6z" fill="#d683b3"/><use xlink:href="#B" fill="#faf17a"/><use xlink:href="#B" x="-37" y="-95.8" fill="#89fad6"/><path d="M421.4 72.1h-28.9c-5.8 0-10.6-4.7-10.6-10.6V32.6c0-5.8 4.7-10.6 10.6-10.6h28.9c5.8 0 10.6 4.7 10.6 10.6v28.9c0 5.9-4.8 10.6-10.6 10.6z" fill="#64cdf7"/><path d="M46.5 51.8c-.9-.9-2-.9-2.9 0l-2 2.1c-.2.2-.3.2-.6.1-.4-.2-.9-.4-1.3-.7a20.85 20.85 0 0 1-5.1-4.7c-.7-.9-1.4-1.9-1.8-2.9-.1-.2-.1-.4.1-.5l2-2c.9-.9.9-2.1 0-3l-3.3-3.3c-.9-.9-2-.9-2.9 0l-2.1 2c-.7.6-1 1.4-1 2.3-.1 1.4.2 2.8.7 4.1 1 2.7 2.6 5.2 4.4 7.4 2.5 3 5.6 5.4 9.1 7.1 1.6.8 3.2 1.4 5 1.5 1.2 0 2.2-.3 3.1-1.3.6-.7 1.3-1.3 1.9-1.9.9-.9.9-2.1 0-3l-3.3-3.3zm-1.1-4.6l2.1-.4c-.3-2-1.3-3.7-2.7-5.1a9.61 9.61 0 0 0-5.4-2.7l-.3 2.1c1.6.2 3 .9 4.2 2.1 1.1 1.2 1.8 2.5 2.1 4zm3.3-9.2a15.81 15.81 0 0 0-9-4.5l-.3 2.1c3 .4 5.6 1.8 7.8 3.9 2 2 3.3 4.6 3.8 7.3l2.1-.4c-.5-3.1-2.1-6.1-4.4-8.4zm28.9 103.9h-8.1v.3c0 2.4-2 4.4-4.4 4.4h-.6v8.4a2.69 2.69 0 0 0 2.7 2.7h10.5a2.69 2.69 0 0 0 2.7-2.7v-10.5c-.1-1.4-1.3-2.6-2.8-2.6zm-1 7.6h-.4v4.8c0 .5-.4.8-.8.8s-.8-.4-.8-.8v-4.8h-1v.3a5.34 5.34 0 0 1-5.3 5.3c-.5 0-.8-.4-.8-.8 0-.5.4-.8.8-.8 2 0 3.6-1.6 3.6-3.6v-.3H70c-.5 0-.8-.4-.8-.8 0-.5.4-.8.8-.8h4.5v-2.4c0-.5.4-.8.8-.8s.8.4.8.8v2.4h.4c.5 0 .8.4.8.8.1.3-.3.7-.7.7zm-22-4.6h10.5a2.69 2.69 0 0 0 2.7-2.7v-10.5a2.69 2.69 0 0 0-2.7-2.7H54.6a2.69 2.69 0 0 0-2.7 2.7v10.5a2.69 2.69 0 0 0 2.7 2.7zm1.7-5l2.8-6.6c.1-.3.4-.5.8-.5.3 0 .6.2.8.5l2.8 6.6c.2.4 0 .9-.4 1.1-.1 0-.2.1-.3.1-.3 0-.6-.2-.8-.5l-.6-1.3h-2.9l-.6 1.3c-.2.4-.7.6-1.1.4-.5-.1-.7-.6-.5-1.1z" class="Z"/><path d="M60.6 137.6l-.7-1.7-.7 1.7h1.4z"/><path d="M44.7 244.1c-.9-.9-2-.9-2.8 0l-2 2c-.2.2-.3.2-.5.1-.4-.2-.9-.4-1.3-.7-1.9-1.2-3.5-2.8-5-4.5-.7-.9-1.3-1.8-1.8-2.8-.1-.2-.1-.4.1-.5.7-.6 1.3-1.3 2-2 .9-.9.9-2 0-2.9l-3.2-3.2c-.9-.9-2-.9-2.8 0l-2 2c-.6.6-.9 1.3-1 2.2-.1 1.4.2 2.7.7 4 1 2.6 2.5 5 4.3 7.1 2.4 2.9 5.4 5.2 8.8 6.9 1.5.7 3.1 1.3 4.9 1.4 1.2.1 2.2-.2 3.1-1.2l1.8-1.8c.9-.9.9-2 0-2.9-1.2-1.1-2.3-2.2-3.3-3.2z" class="Z"/><path d="M36.9 241l7.4-10.5 4.2 9.5 5.2-7.4" fill="none" stroke="#134f5e" class="Y"/><g class="Z"><circle cx="48.5" cy="238.9" r="2.6"/><circle cx="44.3" cy="229.5" r="2.6"/><path d="M50.6 232.6l.5-.1 3.8-1.3c.2-.1.5.1.5.3v3.7l-4.8-2.6zM408.7 32.9c-4.9 0-9.2 2.4-11.9 6.2.5.4 1.1.8 1.6 1.5 2-2.9 5.1-5 8.8-5.4l1.5 2.5 1.5-2.5c5.6.7 10.1 5.2 10.8 10.8l-2.5 1.5L421 49c-.5 3.8-2.6 7-5.7 9 .2.4.3.9.3 1.4 0 .3 0 .7-.1 1 4.6-2.4 7.7-7.3 7.7-12.8 0-8.2-6.5-14.7-14.5-14.7zm3.7 23.9c-3.3-2.7-4.3-1.4-5.8.2-1.1 1.1-3.7-1.2-6.1-3.5-2.3-2.3-4.5-5-3.5-6.1 1.5-1.5 2.8-2.5.1-5.8s-4.5-.8-6 .7c-1.7 1.7-.1 8 6.2 14.3 6.3 6.2 12.6 7.9 14.3 6.2 1.6-1.5 4.2-3.3.8-6zm-10.2-7.1c0-3 3.5-3.5 3.5-4.7 0-.6-.5-.8-.9-.8-.8 0-1.2.9-1.2.9l-1.5-1s.7-1.7 2.8-1.7c1.3 0 2.7.8 2.7 2.5 0 2.5-3.2 3-3.3 4h3.4v1.7h-5.6c.2-.4.1-.6.1-.9zm6.5-2.3l3.1-4.9h2.4V47h1v1.6h-1v1.9h-1.9v-1.9h-3.6v-1.2zm3.6-.4v-1.8c0-.4.1-.9.1-.9h0s-.2.5-.4.8l-1.2 1.8 1.5.1zm-32.2 95.9c0-.6-.5-1-1-1-.6 0-1 .5-1 1 0 4.1-3.3 7.4-7.4 7.4s-7.4-3.3-7.4-7.4c0-.6-.5-1-1-1-.6 0-1 .5-1 1 0 4.8 3.6 8.9 8.4 9.4v2.8h-3.8c-.6 0-1 .5-1 1 0 .6.5 1 1 1h9.7c.6 0 1-.5 1-1 0-.6-.5-1-1-1h-3.8v-2.8c4.6-.5 8.3-4.5 8.3-9.4zm-9.5-15.3c-3.2 0-5.8 2.6-5.8 5.8v9.4c0 3.2 2.6 5.8 5.8 5.9 3.2 0 5.8-2.6 5.8-5.8v-9.5c0-3.2-2.6-5.8-5.8-5.8zm41.6 111.2l8.5 5.4v-11zm-16.8-5.6v11l8.5-5.4zm23.7-3.2h-22.2c-.8 0-1.4.6-1.5 1.3l12.6 8.3 12.6-8.3c-.1-.8-.7-1.3-1.5-1.3zm-8.4 9.7l-2.2 1.5c-.1.1-.3.1-.4.1-.2 0-.3 0-.4-.1l-2.2-1.5-9.9 6.3c.1.8.7 1.3 1.5 1.3h22.2c.8 0 1.4-.6 1.5-1.3l-10.1-6.3z"/></g><circle transform="matrix(.9999 -.01018 .01018 .9999 -1.3493 2.242)" cx="219.6" cy="133.7" r="110.4" fill="#c1e9f4"/><path d="M196.9 97.4c-.8 20.7-20.9 38.5-21.7 57-.8 24.2 31 25.7 50.3 25.7 22.4 0 44.9-5 42.6-29.9-1.5-19.2-17.8-31.4-20.9-49.2v-1.4" class="X"/><g fill="#ff6c7a"><path d="M295.9 235.1c0 12.2-8.7 22.2-19.3 22.2H166.9c-10.7 0-19.3-9.9-19.3-22.2h0c0-12.2 8.7-22.2 19.3-22.2h109.6c10.7 0 19.4 10 19.4 22.2h0z"/><path d="M290.8 221.1c0 18.5-22.9 33.5-41.6 33.5h-54.9c-18.7 0-41.6-15-41.6-33.5l5.8-17.6c0-18.5 17.1-33.5 35.8-33.5h54.9c18.7 0 35.8 15 35.8 33.5l5.8 17.6z"/></g><g fill="#f9c4ac"><path d="M236.6 173.3c0 4.2-7.5 6.6-14.8 6.6h0c-7.3 0-14.8-2.5-14.8-6.6l3.1-21.9c0-4.2 4.5-7.5 11.8-7.5h0c7.3 0 11.8 3.4 11.8 7.5l2.9 21.9z"/><path d="M251.4 123.7c0 23.9-13.3 36.2-29.7 36.2S192 147.6 192 123.7 205.3 85 221.7 85s29.7 14.8 29.7 38.7z"/></g><path d="M209.8 105.2c8.6 11.7 37.7 15.1 42.6 15.1h0c0-23.9-13.7-37-30.7-37-16.9 0-30.7 13-30.7 37 13.3 0 18.9-16 18.8-15.1h0s-.5-.8 0 0z" class="X"/><g fill="#fff"><path d="M206.4 162.9l-10.7 9.3c3 4.3 13.6 15 17 18l9.4-10.1-15.7-17.2z"/><path d="M221.3 180.1l9.4 10.1c3.4-3 14.1-13.7 17-18l-10.7-9.3-15.7 17.2z"/></g><g fill="none" stroke="#009edb" class="Y"><path d="M191.1,115.2c0-23.9,13.7-37,30.7-37c16.9,0,30.7,13,30.7,37" stroke-width="4"/><path d="M229.7,149.7c7.7,0,21.7,0,21.7-11.5" stroke-width="3.5"/></g><path d="M228.8 154.4c5.5 0 5.5-8.5 0-8.5s-5.5 8.5 0 8.5h0z" class="X"/><path d="M191.1 134.1c0 3.7.3 6.7-3.5 6.7h0c-3.8 0-6.9-3-6.9-6.7v-12.2c0-3.7 3.1-6.7 6.9-6.7h0c3.8 0 3.5 3 3.5 6.7v12.2z" fill="#009edb"/><path d="M194.5 139.8a3.01 3.01 0 0 1-3 3h0a3.01 3.01 0 0 1-3-3v-23.7c0-1.7 1.4-3.1 3-3.1h0c1.7 0 3 1.4 3 3.1v23.7z" fill="#003f5b"/><path d="M252.3 134.1c0 3.7-.3 6.7 3.5 6.7h0c3.8 0 6.9-3 6.9-6.7v-12.2c0-3.7-3.1-6.7-6.9-6.7h0c-3.8 0-3.5 3-3.5 6.7v12.2z" fill="#009edb"/><path d="M248.9 139.8a3.01 3.01 0 0 0 3 3h0a3.01 3.01 0 0 0 3-3v-23.7c0-1.7-1.4-3.1-3-3.1h0c-1.7 0-3 1.4-3 3.1v23.7z" fill="#003f5b"/><path d="M289.7 266c0 3.3-2.6 6-5.9 6H159.6c-3.2 0-5.9-2.7-5.9-6h0c0-3.3 2.6-6 5.9-6h124.2c3.3-.1 5.9 2.6 5.9 6h0z" class="a"/><path d="M282.5 263.4c0 7.5-6.1 13.6-13.6 13.6h-94.3c-7.5 0-13.6-6.1-13.6-13.6v-57.7c0-7.5 6.1-13.6 13.6-13.6h94.3c7.5 0 13.6 6.1 13.6 13.6v57.7z" class="X"/><path d="M278.3 260.6c0 6.8-5.7 12.3-12.7 12.3h-87.7c-7 0-12.7-5.5-12.7-12.3v-52.1c0-6.8 5.7-12.3 12.7-12.3h87.7c7 0 12.7 5.5 12.7 12.3v52.1z" class="a"/><circle cx="221.7" cy="220.9" r="9.4" class="X"/><path d="M227.7 220.9a6.02 6.02 0 0 1-6 6 6.02 6.02 0 0 1-6-6 6.02 6.02 0 0 1 6-6 6.02 6.02 0 0 1 6 6z" class="a"/><path d="M224.1 220.9c0 1.3-1.1 2.4-2.4 2.4s-2.4-1.1-2.4-2.4 1.1-2.4 2.4-2.4c1.4 0 2.4 1.1 2.4 2.4z" fill="#fff"/><defs ><path id="B" d="M422.5 263.7h-28.9c-5.8 0-10.6-4.7-10.6-10.6v-28.9c0-5.8 4.7-10.6 10.6-10.6h28.9c5.8 0 10.6 4.7 10.6 10.6v28.9c0 5.9-4.8 10.6-10.6 10.6z"/></defs></svg>