<svg xmlns="http://www.w3.org/2000/svg" xmlns:xlink="http://www.w3.org/1999/xlink" width="445" height="300" xmlns:v="https://vecta.io/nano"><style><![CDATA[.e{fill:#f75959}.f{stroke-miterlimit:10}.g{fill:#0c3656}.h{fill:none}.i{fill:#37bd9c}.j{stroke:#bde5cf}.k{fill:#fcc24b}.l{fill:#ffdcc0}.m{fill:#ff9490}.n{fill:#e9a056}.o{fill:#af835b}.p{fill:#41b092}.q{fill:#ffc064}]]></style><path d="M71.4 195.3H48.9a6.7 6.7 0 0 1-6.7-6.7v-39.7a6.7 6.7 0 0 1 6.7-6.7h22.5a6.7 6.7 0 0 1 6.7 6.7v39.7a6.7 6.7 0 0 1-6.7 6.7z" class="f h j"/><path d="M185.1 50.9c.6-2.7 1-5.4 1-8.3s-.3-5.6-1-8.3l-7.5 1.1c-.6-2.5-1.6-4.8-2.9-6.9l6.1-4.5c-2.9-4.8-7-8.8-11.7-11.7l-4.5 6.1c-2.1-1.2-4.5-2.2-6.9-2.9l1.1-7.5c-2.7-.6-5.4-1-8.3-1s-5.6.3-8.3 1l1.1 7.5c-2.5.6-4.8 1.6-6.9 2.9l-4.5-6.1c-4.8 2.9-8.8 7-11.7 11.7l6.1 4.5c-1.2 2.1-2.2 4.5-2.9 6.9l-7.5-1.1c-.6 2.7-1 5.4-1 8.3s.3 5.6 1 8.3l7.5-1.1c.6 2.5 1.6 4.8 2.9 6.9l-6.1 4.5c2.9 4.8 7 8.8 11.7 11.7l4.5-6.1c2.1 1.2 4.5 2.2 6.9 2.9l-1.1 7.5c2.7.6 5.4 1 8.3 1s5.6-.3 8.3-1l-1.1-7.5c2.5-.6 4.8-1.6 6.9-2.9l4.5 6.1c4.8-2.9 8.8-7 11.7-11.7l-6.1-4.5c1.2-2.1 2.2-4.5 2.9-6.9l7.5 1.1zm-34.6 8.9c-9.5 0-17.2-7.7-17.2-17.2s7.7-17.2 17.2-17.2 17.2 7.7 17.2 17.2-7.7 17.2-17.2 17.2zm55.7 33.4c0-1.5-.1-3.1-.4-4.7s-.9-3.1-1.5-4.4l-4 1.5c-.6-1.3-1.5-2.4-2.4-3.5l2.8-3.2c-2.2-2.3-4.9-4-7.8-5.1l-1.8 3.9c-1.3-.4-2.7-.7-4.1-.8l-.3-4.3c-1.5 0-3.1.1-4.7.4s-3.1.9-4.4 1.5l1.5 4c-1.3.6-2.4 1.5-3.5 2.4l-3.2-2.8c-2.3 2.2-4 4.9-5.1 7.8l3.9 1.8c-.4 1.3-.7 2.7-.8 4.1l-4.3.3c0 1.5.1 3.1.4 4.7s.9 3.1 1.5 4.4l4-1.5c.6 1.3 1.5 2.4 2.4 3.5l-2.8 3.2c2.2 2.3 4.9 4 7.8 5.1l1.8-3.9c1.3.4 2.7.7 4.1.8l.3 4.3c1.5 0 3.1-.1 4.7-.4s3.1-.9 4.4-1.5l-1.5-4c1.3-.6 2.4-1.5 3.5-2.4l3.2 2.8c2.3-2.2 4-4.9 5.1-7.8l-3.9-1.8c.4-1.3.7-2.7.8-4.1l4.3-.3zm-18 9c-5.2 1.1-10.4-2.2-11.5-7.4s2.2-10.4 7.4-11.5 10.4 2.2 11.5 7.4-2.2 10.4-7.4 11.5zm133-56.7c0-1-.1-2-.3-3s-.6-2-1-2.9l-2.6 1c-.4-.8-.9-1.6-1.5-2.2l1.8-2.1c-1.4-1.5-3.1-2.6-5-3.2l-1.1 2.5c-.9-.3-1.7-.4-2.7-.5l-.2-2.7c-1 0-2 .1-3 .3s-2 .6-2.9 1l1 2.6c-.8.4-1.6.9-2.2 1.5l-2.1-1.8c-1.5 1.4-2.6 3.1-3.2 5l2.5 1.1c-.3.9-.4 1.7-.5 2.7l-2.7.2c0 1 .1 2 .3 3s.6 2 1 2.9l2.6-1c.4.8.9 1.6 1.5 2.2l-1.8 2.1c1.4 1.5 3.1 2.6 5 3.2l1.1-2.5c.9.3 1.7.4 2.7.5l.2 2.7c1 0 2-.1 3-.3s2-.6 2.9-1l-1-2.6c.8-.4 1.6-.9 2.2-1.5l2.1 1.8c1.5-1.4 2.6-3.1 3.2-5l-2.5-1.1c.3-.9.4-1.7.5-2.7l2.7-.2zm-11.5 5.8c-3.3.7-6.6-1.4-7.4-4.8-.7-3.3 1.4-6.6 4.8-7.4 3.3-.7 6.6 1.4 7.4 4.8.6 3.3-1.5 6.6-4.8 7.4zM60.1 136.1c0-1-.1-2-.3-3s-.6-2-1-2.9l-2.6 1c-.4-.8-.9-1.6-1.5-2.2l1.8-2.1c-1.4-1.5-3.1-2.6-5-3.2l-1.1 2.5c-.9-.3-1.7-.4-2.7-.5l-.2-2.7c-1 0-2 .1-3 .3s-2 .6-2.9 1l1 2.6c-.8.4-1.6.9-2.2 1.5l-2.1-1.8c-1.5 1.4-2.6 3.1-3.2 5l2.5 1.1c-.3.9-.4 1.7-.5 2.7l-2.7.2c0 1 .1 2 .3 3s.6 2 1 2.9l2.6-1c.4.8.9 1.6 1.5 2.2l-1.8 2.1c1.4 1.5 3.1 2.6 5 3.2l1.1-2.5c.9.3 1.7.4 2.7.5l.2 2.7c1 0 2-.1 3-.3s2-.6 2.9-1l-1-2.6c.8-.4 1.6-.9 2.2-1.5l2.1 1.8c1.5-1.4 2.6-3.1 3.2-5l-2.5-1.1c.3-.9.4-1.7.5-2.7l2.7-.2zm-11.5 5.7c-3.3.7-6.6-1.4-7.4-4.8-.7-3.3 1.4-6.6 4.8-7.4 3.3-.7 6.6 1.4 7.4 4.8.7 3.4-1.5 6.7-4.8 7.4z" fill="#d6f2e9"/><path d="M135.8 147.7H70.9a5.59 5.59 0 0 1-5.6-5.6V98.4a5.59 5.59 0 0 1 5.6-5.6h64.9a5.59 5.59 0 0 1 5.6 5.6v43.7c.1 3.1-2.5 5.6-5.6 5.6z" fill="#fff" class="f j"/><path d="M135.8 92.8H70.9a5.59 5.59 0 0 0-5.6 5.6v3.2h76.2v-3.2c0-3.1-2.6-5.6-5.7-5.6z" fill="#aae2d3"/><path d="M71 109.7h11.6v11.6H71zm17.1 0h11.6v11.6H88.1zm17.1 0h11.6v11.6h-11.6zm17 0h11.6v11.6h-11.6zM71 126.4h11.6V138H71zm17.1 0h11.6V138H88.1zm17.1 0h11.6V138h-11.6zm17 0h11.6V138h-11.6z" class="f h j"/><path d="M72 113.6s2.6 2.7 4.2 5.7c2.3-4.1 6.4-8.8 6.4-8.8s-4.1 1.9-6.4 6.1c-1.8-1.8-4.2-3-4.2-3zm34.1 15.3s2.6 2.7 4.2 5.7c2.3-4.1 6.4-8.8 6.4-8.8s-4.1 1.9-6.4 6.1c-1.8-1.8-4.2-3-4.2-3z" class="i"/><g class="f h j"><path d="M247 100.7V74.5c0-4.3 3.5-7.8 7.8-7.8H301c4.3 0 7.8 3.5 7.8 7.8v26.2c0 4.3-3.5 7.8-7.8 7.8h-46.2c-4.3 0-7.8-3.5-7.8-7.8zm123.6 104.6h-37.9c-6.2 0-11.3-5.1-11.3-11.3v-66.9c0-6.2 5.1-11.3 11.3-11.3h37.9c6.2 0 11.3 5.1 11.3 11.3V194c0 6.2-5.1 11.3-11.3 11.3z"/><path d="M408.2 230.6H382c-4.3 0-7.8-3.5-7.8-7.8v-46.2c0-4.3 3.5-7.8 7.8-7.8h26.2c4.3 0 7.8 3.5 7.8 7.8v46.2c0 4.3-3.5 7.8-7.8 7.8z"/></g><circle cx="255.1" cy="58.5" r="28.7" fill="#d6f2e9"/><circle transform="matrix(.9262 -.3771 .3771 .9262 -3.2195 100.5024)" cx="255.1" cy="58.5" r="24.3" stroke="#fff" stroke-width="2" class="h"/><g fill="#fff"><path d="M256 37.8c0 .5-.4.9-.9.9s-.9-.4-.9-.9.4-.9.9-.9.9.4.9.9zm0 41.3c0 .5-.4.9-.9.9s-.9-.4-.9-.9.4-.9.9-.9.9.4.9.9zm19.7-19.7c-.5 0-.9-.4-.9-.9s.4-.9.9-.9.9.4.9.9c.1.5-.4.9-.9.9zm-41.3 0c-.5 0-.9-.4-.9-.9s.4-.9.9-.9.9.4.9.9-.4.9-.9.9zm10.8-17.5a.55.55 0 0 1-.5-.3l-.9-1.6c-.1-.3-.1-.6.2-.7s.6-.1.7.2l.9 1.6c.1.3.1.6-.2.7 0 .1-.1.1-.2.1zm20.7 35.8a.55.55 0 0 1-.5-.3l-.9-1.6c-.1-.3-.1-.6.2-.7s.6-.1.7.2l.9 1.6c.1.3.1.6-.2.7 0 .1-.1.1-.2.1zM238 49.1c-.1 0-.2 0-.3-.1l-1.6-.9c-.3-.1-.3-.5-.2-.7.1-.3.5-.3.7-.2l1.6.9c.3.1.3.5.2.7 0 .2-.2.3-.4.3zm35.8 20.7c-.1 0-.2 0-.3-.1l-1.6-.9c-.3-.1-.3-.5-.2-.7.1-.3.5-.3.7-.2l1.6.9c.3.1.3.5.2.7s-.2.3-.4.3z"/><path d="M272.2 49.1a.55.55 0 0 1-.5-.3c-.1-.3-.1-.6.2-.7l1.6-.9c.3-.1.6-.1.7.2s.1.6-.2.7l-1.6.9c-.1.1-.1.1-.2.1zm-35.8 20.7a.55.55 0 0 1-.5-.3c-.1-.3-.1-.6.2-.7l1.6-.9c.3-.1.6-.1.7.2s.1.6-.2.7l-1.6.9c0 .1-.1.1-.2.1zm28.5-27.9c-.1 0-.2 0-.3-.1-.3-.1-.3-.5-.2-.7l.9-1.6c.1-.3.5-.3.7-.2.3.1.3.5.2.7l-.9 1.6c0 .2-.2.3-.4.3zm-20.6 35.8c-.1 0-.2 0-.3-.1-.3-.1-.3-.5-.2-.7l.9-1.6c.1-.3.5-.3.7-.2.3.1.3.5.2.7l-.9 1.6c0 .2-.2.3-.4.3zm11.8-18.2l-11.5 9.4 9.4-11.5c.5-.6 1.5-.7 2.1-.2s.7 1.5.2 2.1c0 .1-.1.2-.2.2z"/><path d="M253.7 58.7l-4.6-20.4 7.5 19.5c.3.8-.1 1.6-.9 1.9s-1.6-.1-1.9-.9c0 .1 0 0-.1-.1z"/></g><path d="M191.9 122.7h39.9v21.1h-39.9z" class="g"/><path d="M232 130.2h-40.3c-2.2 0-4-1.8-4-4v-17.5c0-2.2 1.8-4 4-4H232c2.2 0 4 1.8 4 4v17.5c.1 2.2-1.7 4-4 4z" class="i"/><path d="M193.9 104.7v25.5m7.2-25.5v25.5m7.2-25.5v25.5m7.2-25.5v25.5m7.1-25.5v25.5m7.2-25.5v25.5" stroke-width="2" stroke="#21a582" class="f h"/><path d="M276.3 161l-18.6-18.6a1.57 1.57 0 0 0-2.2 0l-10.2 10.2a1.57 1.57 0 0 0 0 2.2l18.6 18.6a1.57 1.57 0 0 0 2.2 0l10.2-10.2a1.41 1.41 0 0 0 0-2.2zm-128.9 0l18.6-18.6a1.57 1.57 0 0 1 2.2 0l10.2 10.2a1.57 1.57 0 0 1 0 2.2l-18.6 18.6a1.57 1.57 0 0 1-2.2 0l-10.2-10.2a1.57 1.57 0 0 1 0-2.2z" class="i"/><circle transform="matrix(.9876 -.1573 .1573 .9876 -31.0148 35.9901)" cx="211.9" cy="214" r="77.4" class="e"/><circle cx="211.9" cy="214" r="67.9" class="g"/><circle cx="211.9" cy="214" r="64.7" fill="#fffce3"/><g class="e"><path d="M214.5 155.8a2.65 2.65 0 0 1-2.6 2.6 2.65 2.65 0 0 1-2.6-2.6 2.65 2.65 0 0 1 2.6-2.6 2.65 2.65 0 0 1 2.6 2.6zm0 116.3a2.65 2.65 0 0 1-2.6 2.6 2.65 2.65 0 0 1-2.6-2.6 2.65 2.65 0 0 1 2.6-2.6c1.4 0 2.6 1.1 2.6 2.6z"/><use xlink:href="#B"/><use xlink:href="#B" x="-116.2"/></g><g class="p"><use xlink:href="#C"/><use xlink:href="#C" x="58.1" y="100.7"/><path d="M163.8 187c-.1 0-.3 0-.4-.1l-4.5-2.6c-.4-.2-.5-.7-.3-1.1s.7-.5 1.1-.3l4.5 2.6c.4.2.5.7.3 1.1-.2.2-.4.4-.7.4zm100.7 58.1c-.1 0-.3 0-.4-.1l-4.5-2.6c-.4-.2-.5-.7-.3-1.1s.7-.5 1.1-.3l4.5 2.6c.4.2.5.7.3 1.1-.2.2-.5.4-.7.4z"/><path d="M260 187c-.3 0-.5-.1-.7-.4-.2-.4-.1-.8.3-1.1l4.5-2.6c.4-.2.8-.1 1.1.3s.1.8-.3 1.1l-4.5 2.6c-.2 0-.3.1-.4.1zm-100.7 58.1c-.3 0-.5-.1-.7-.4-.2-.4-.1-.8.3-1.1l4.5-2.6c.4-.2.8-.1 1.1.3.2.4.1.8-.3 1.1l-4.5 2.6c-.1.1-.3.1-.4.1z"/><use xlink:href="#D"/><use xlink:href="#D" x="-58.1" y="100.7"/></g><path d="M219 214a7.13 7.13 0 0 1-7.1 7.1 7.13 7.13 0 0 1-7.1-7.1 7.13 7.13 0 0 1 7.1-7.1c3.9-.1 7.1 3.1 7.1 7.1z" class="e"/><g class="g"><path d="M209.4 217.5l-30.3-23 34.6 15.9c2.1 1 3 3.4 2 5.5s-3.4 3-5.5 2c-.3-.1-.6-.2-.8-.4z"/><path d="M210.2 210.4l42.1-19.7-38 26.8c-1.9 1.3-4.5.9-5.8-1s-.9-4.5 1-5.8c.3-.1.5-.2.7-.3z"/></g><circle transform="matrix(.2323 -.9726 .9726 .2323 1.1571 210.9317)" cx="134.2" cy="104.7" r="21.9" class="e"/><circle transform="matrix(.2298 -.9732 .9732 .2298 1.4368 211.2813)" cx="134.2" cy="104.7" r="15.9" class="k"/><path d="M145.1,104.7c0,6-4.9,10.9-10.9,10.9c-6,0-10.9-4.9-10.9-10.9c0-6,4.9-10.9,10.9-10.9       C140.2,93.8,145.1,98.7,145.1,104.7z" class="e"/><path d="M139.9 104.7c0 3.2-2.6 5.7-5.7 5.7s-5.7-2.6-5.7-5.7c0-3.2 2.6-5.7 5.7-5.7s5.7 2.6 5.7 5.7z" class="k"/><g class="g"><path d="M135.1 105.6h-3.6l3.6-3.6zm-23.2-23.2h-4.1v-1h3v-3.1h1.1zm-1.9-1.9h-4.1v-1h3v-3.1h1.1z"/><path d="M108.954 80.178l.707-.707 24.748 24.749-.707.707z"/></g><circle cx="321.2" cy="113.1" r="40" class="p"/><circle transform="matrix(.162 -.9868 .9868 .162 157.5276 411.76)" cx="321.2" cy="113.1" r="35.6" fill="#2e8586"/><circle cx="321.2" cy="113.1" r="33.8" fill="#fffce3"/><g class="e"><circle cx="321.2" cy="83.1" r="1.3"/><circle cx="321.2" cy="143.2" r="1.3"/><path d="M351.2 114.5c-.7 0-1.3-.6-1.3-1.3s.6-1.3 1.3-1.3 1.3.6 1.3 1.3-.5 1.3-1.3 1.3z"/><circle cx="291.2" cy="113.1" r="1.3"/></g><g class="p"><path d="M306.8 89.1c-.3 0-.5-.1-.7-.4l-1.3-2.3c-.2-.4-.1-.8.3-1.1.4-.2.8-.1 1.1.3l1.3 2.3c.2.4.1.8-.3 1.1-.1 0-.2.1-.4.1zm30.1 52c-.3 0-.5-.1-.7-.4l-1.3-2.3c-.2-.4-.1-.8.3-1.1.4-.2.8-.1 1.1.3l1.3 2.3c.2.4.1.8-.3 1.1-.2.1-.3.1-.4.1zm-40.6-41.5c-.1 0-.3 0-.4-.1l-2.3-1.3c-.4-.2-.5-.7-.3-1.1s.7-.5 1.1-.3l2.3 1.3c.4.2.5.7.3 1.1-.1.2-.4.4-.7.4zm52.1 30c-.1 0-.3 0-.4-.1l-2.3-1.3c-.4-.2-.5-.7-.3-1.1s.7-.5 1.1-.3l2.3 1.3c.4.2.5.7.3 1.1-.2.3-.5.4-.7.4z"/><path d="M346 99.6c-.3 0-.5-.1-.7-.4-.2-.4-.1-.8.3-1.1l2.3-1.3c.4-.2.8-.1 1.1.3.2.4.1.8-.3 1.1l-2.3 1.3c-.1 0-.2.1-.4.1zm-52 30c-.3 0-.5-.1-.7-.4-.2-.4-.1-.8.3-1.1l2.3-1.3c.4-.2.8-.1 1.1.3.2.4.1.8-.3 1.1l-2.3 1.3c-.1.1-.3.1-.4.1zm41.5-40.5c-.1 0-.3 0-.4-.1-.4-.2-.5-.7-.3-1.1l1.3-2.3c.2-.4.7-.5 1.1-.3s.5.7.3 1.1l-1.3 2.3c-.1.2-.4.4-.7.4zm-30 52c-.1 0-.3 0-.4-.1-.4-.2-.5-.7-.3-1.1l1.3-2.3c.2-.4.7-.5 1.1-.3s.5.7.3 1.1l-1.3 2.3c-.2.2-.4.4-.7.4z"/></g><circle cx="321.2" cy="113.1" r="3.7" class="e"/><g fill="#2e8586"><path d="M320.2 111.3l18.9-8.3-16.9 11.9c-.9.7-2.2.4-2.9-.5s-.4-2.2.5-2.9a.76.76 0 0 0 .4-.2z"/><path d="M322.6 111.6l19.5 21.6-22.3-18.6c-.9-.7-1-2-.3-2.9s2-1 2.9-.3l.2.2z"/></g><use xlink:href="#E" class="g"/><g class="l"><path d="M323.1 213.5c0 .7-3.1 26.9-3.1 28.5s1.5 8.4.9 15.6c-1 12.4-5.5 28.4-6 29.5s-2.5.1-2.5.1-5.2-28.8-6.5-46.1c-1.8-23.7 3.5-45.2 3.5-45.2"/><path d="M312.5 287.2c-.3.6-3.3 1.7-3 1.9.2.2 1.4.3 3.1-.1 1.5-.4 2.4-.8 2.5-1.2l-.2-1"/></g><use xlink:href="#E" x="22.9" class="g"/><g class="l"><path d="M341.9 212.9c0 .7-1 27.5-1 29.1s2.1 6.7 2 15.6c-.1 12.4-4.5 28.4-5 29.5s-2.5.1-2.5.1-7.3-28.8-8.6-46.1c-1.8-23.7-.5-45.2-.5-45.2"/><path d="M335.4 287.2c-.3.6-3.3 1.7-3 1.9.2.2 1.4.3 3.1-.1 1.5-.4 2.4-.8 2.5-1.2l-.2-1"/></g><path d="M311.7 187.4c-6.6 6.2-8.8 15.3-9.2 24s-.5 32.2-.5 32.2 8.1 4.1 19 4.8c15.5 1 23.6-5.8 23.6-5.8s1.4-29.2-4-44.5c-2.5-7.1-7.3-12.4-7.3-12.4" class="e"/><path d="M357.5 124l.1-1.3s-.5-1.3-.4-2.6.8-3.8 1.2-3.3c.5.6-.5 2.3.4 2 .7-.2 1-.7 1.3-1.4.5-1.1.9-2.8 1.5-2.4s.6 1.3.3 4c-.3 2.6-1.7 4.1-1.7 4.1l-.3 1.8" class="l"/><path d="M333.8 152.3c11.8-8.7 19.5-15.1 23.8-29.1l2.5 1c.6 18.7-9.2 32.3-22 46" class="k"/><path d="M284.8 126.3l-.3-1.2s.3-1.4.1-2.6c-.3-1.2-1.2-3.7-1.6-3.1s.8 2.2-.2 2c-.7-.2-1.1-.6-1.4-1.2-.6-1-1.3-2.7-1.8-2.2-.5.4-.4 1.4.2 4s2.2 3.9 2.2 3.9l.5 1.7" class="l"/><g class="k"><path d="M314.3,151.8c-12.6-3.2-23.7-12.8-29.6-26.3l-2.4,1.3c1.7,18.7,12.2,30.4,26.5,42.4"/><path d="M339.8 162.3c-1.3 13.1-2.6 18.5-2.6 22.3s2.7 7.3-5.8 9.1c-5.7 1.2-15.4 1.3-20.8-1.3-3.8-1.8-2.6-4-1.4-7.6 1.3-3.7-1.7-12.4-2.2-15.6-.8-5.4 3-11.3 3-11.3s-1.9-6.6 5.1-6.1c7.1.6 26.1-2.7 24.7 10.5z"/></g><path d="M337.8 158c-.7-2.2-3-3.9-3.7-5.9-1-3-.2-6.5-2.2-9-1-1.2-2.5-2-3.1-3.4-.4-1.1-.1-2.4-.2-3.6-.3-3.5-4.2-5.9-7.4-6.2-4.4-.3-8.2 4.1-8.9 8.1-.3 1.8.2 3.6-.1 5.4-.5 3.4-3.6 6.4-2.5 9.7.8 2.7 4.1 3.9 5.8 6.1 1.2 1.6 1.6 3.8 2.7 5.5 3.6 5.5 11.1 7.4 16 4.1 2.9-2 5.1-5.6 3.6-10.8z" class="g"/><g class="i"><path d="M234.9 92.2c-2.2 1.3-2.6 1.6-3.8 3.8-1.3-2.2-1.6-2.6-3.8-3.8 2.2-1.3 2.6-1.6 3.8-3.8 1.3 2.2 1.6 2.6 3.8 3.8zm-130.8 74.5c-2.2 1.3-2.6 1.6-3.8 3.8-1.3-2.2-1.6-2.6-3.8-3.8 2.2-1.3 2.6-1.6 3.8-3.8 1.2 2.2 1.5 2.6 3.8 3.8z"/><circle cx="365.7" cy="173.2" r="3.8"/></g><g stroke="#37bd9c" class="h"><path d="M224 64.1c0 1-.8 1.7-1.7 1.7-1 0-1.7-.8-1.7-1.7 0-1 .8-1.7 1.7-1.7s1.7.8 1.7 1.7z" class="f"/><circle cx="93.7" cy="59.9" r="1.7"/><circle cx="297.1" cy="191.8" r="1.7"/><circle cx="166.6" cy="128.2" r="1.7"/><path d="M63.1 208.1c0 1-.8 1.7-1.7 1.7s-1.7-.8-1.7-1.7c0-1 .8-1.7 1.7-1.7s1.7.7 1.7 1.7z" class="f"/><circle cx="384.9" cy="272.1" r="1.7"/></g><path d="M18.5 290.7h408.2v1H18.5z" class="i"/><path d="M105.1 200.2s3.6.4 6.3.2c3.4-.2 7.7-.3 8.5.6s.8.9-.7 1.7c-1.2.6-5.8 2.7-8.9 1.7s-7.1-.8-7.1-.8l1.9-3.4z" class="m"/><path d="M67.1 166.3s6.6 32.8 14.5 35.4c3.9 1.2 20.9 3.6 25.9 3.6 0 0 1.2-1.1.6-5.1 0 0-18-5.4-20.7-8.8-4-5 1-21.5-3.9-26.2-5-4.6-13-6.3-16.4 1.1z" fill="#5faae4"/><g fill="#80c1ee"><path d="M68.8 288.7h3.8c.2 0 .3-.2.3-.3v-55.8c0-.2-.2-.3-.3-.3h-3.8c-.2 0-.3.2-.3.3v55.8c0 .2.2.3.3.3z"/><path d="M50.8 292.5c2.1-4.3 10.2-7.5 19.9-7.5s17.8 3.2 19.9 7.5H50.8zm4.9-14.7h30c.1 0 .2-.1.2-.2v-1.9c0-.1-.1-.2-.2-.2h-30c-.1 0-.2.1-.2.2v1.9c.1.1.1.2.2.2z"/></g><g fill="#003261"><path d="M68.1 227.1c1.4 2.3 2.9 4.5 4.6 6.5 5 6.3 10.5 11.6 11.4 16.5.2 1 .5 2 .9 3.2.4 1.1.9 2.3 1.5 3.5 2.1 4.6 5.3 9.8 8.5 14.5a366.19 366.19 0 0 0 10.7 14.9l9.5-.4c-.4-.9-4.5-12.2-10-25.9l-6.9-17.2-.9-2.3-2.1-5.2L86 212s-20.8-7.9-22.9-2.8c-2 4.3-.5 8.4 5 17.9z"/><path d="M105.9 284.6s.5 7.8 2 7.9h7.7l9.5-.1s-.1-2.3-2.9-2.8-7.5-2.4-9.1-6.1c-1.7-3.8-7.2 1.1-7.2 1.1zM84 262.2s-6.6 4.2-6 5.6l3.7 6.7 4.7 8.3s2-1.2 1-3.8c-.9-2.7-1.5-7.7.9-11 2.6-3.4-4.3-5.8-4.3-5.8z"/></g><path d="M93.3 208.6s28.1 20.2 31.2 26.5c2.4 5-35.8 36.4-35.8 36.4s-5.6-5.5-6.3-8.2c0 0 13.1-18.9 23.6-25 3.1-1.8-37.2-6.3-41.6-13.1s-2-15.8-2-15.8l30.9-.8z" fill="#00448c"/><path d="M43 238.3h55.2c.5 0 1-.4 1-1v-11.1c0-.5-.4-1-1-1H43c-.5 0-1 .4-1 1v11.1a.94.94 0 0 0 1 1z" fill="#ff7469"/><path d="M80.9 151.5c2.6 1.6 4 3.6 4 3.6-6.2 1.6-16.6-4.2-16.6-4.2s4-2.7 5.5-8.6c.1-.3.1-.6.2-.9.2-1 .3-2.1.3-3.2l7.7 6.9s-.1 1.8-.7 4.8c-.2.4-.3 1-.4 1.6z" class="m"/><path d="M93.7 207.5c0 .1 0 .1-.1.2-.6 1.7-9.7 7.4-15.8 9.7-3.8 1.4-17.1 4.6-18 1.9-1-3.2 2.7-26.3 1.8-38.3-1.1-14.7 3-28.1 8.7-32.4.4-.3 1.3.5 3.7 1.7 2.3 1.1 4.8 1.4 6.9.9l1.9 1.6c2.6 2.4 5.5 5.6 6.8 10.5.8 3 1.4 7.8 1.9 13.2.2 2.1.3 4.3.5 6.5l.5 10.4v2.3c.1 2.6.1 5.1.1 7.2 0 1.1.3 1.8.5 2.4s.5 1.1.6 1.5v.7z" fill="#9fd4ff"/><path d="M81.9 145s-.1 1.8-.7 4.8c-4.7-1.5-6.8-5.7-7.5-7.5-.2-.5-.3-.8-.3-.8s.2 0 .5-.1c.7-.1 1.9-.4 3.2-.7l4.8 4.3z" fill="#ff8585"/><path d="M83.3 146.5s-10.3-.3-10-6.7-.9-10.8 5.7-10.9 7.8 2.4 8.2 4.6-1.2 12.9-3.9 13z" class="m"/><g fill="#00448c"><path d="M121.013 201.89l-.856-.278 7.601-23.395.856.278z"/><path d="M121.077 201.852l-25.895-.553.032-1.5 25.895.553z"/></g><path d="M72 127.9c-.1-.1-.2-.2-.7-.3 0 0 .4-.1.8-.1.2-.6.7-1.5 1.7-1.6 0 0-.6.2-.8.8 1.4-1 4-1.4 10.8.4 8.9 2.3 4.9 7.6 3.6 8.1s-3.9-1.9-6.1-2.1-3.2 2.9-4 3.2-.4-.4-1.3-1-1.3 1-1.2 2.1-1.5 2.3-1.5 2.3l-1.1-1.7c-1.1-1.7-1.3-8.3-.4-9.5.1-.4.2-.5.2-.6z" fill="#1f3765"/><path d="M93.1 205.3c-2.5-.4-8.7-1.6-13.1-4.4-8.1-5.1-12.9-30.7-12.9-30.7l12.7 16.2 12.7 9.3v.1c.1 2.6.1 5.1.1 7.2.1.9.3 1.7.5 2.3z" fill="#7eb8f0"/><g class="m"><path d="M105.1 193.4s.9.3 1.9 0 4.6-1.2 5.2-.9 2.5 1.8 2.9 2.1 1.1 1.6 1.1 1.6c-.4.3-1.5-.7-2.1-.8s-5.1 1.5-6.3 1.4-3.1-.7-3.1-.7l.4-2.7z"/><path d="M112.6 194.8c0 .1 1.2 2 2.5 1.6L114 195l-1.4-.2zm-5.5-1.4s1.5-1 2.1-1.6c0 0 .2.2.2.4 0 .4-.5 1-.5 1l-1.8.2z"/></g><path d="M80 157.3c-6.7-5.7-16.6.8-14.3 9.2 2.8 9.8 8.1 25.9 13.7 27.5 3.9 1.1 21 2.9 26 2.8 0 0 .9.4.3-3.6 0 0-18.7-5.8-20.8-9.6-1.1-2 .4-21.6-4.7-26-.1-.2-.2-.3-.2-.3z" fill="#9fd4ff"/><path d="M353.281 263.254l.125-26.9 27.4.128-.125 26.9z" class="n"/><path d="M353.387 241.201l.023-4.9 27.4.128-.023 4.9z" class="o"/><path d="M352.715 235.837l28.3.132-.023 4.9-28.3-.132z" class="n"/><path d="M369.3 235.9v8.1l-.5-.8-.6.8-.5-.8-.5.8-.5-.8-.5.8-.5-.8-.5.8v-8.1z" fill="#ea8237"/><path d="M351.572 290.608l.125-26.9 27.4.128-.125 26.9z" class="n"/><path d="M351.679 268.555l.023-4.9 27.4.127-.023 4.9z" class="o"/><path d="M351.015 263.137l28.3.132-.023 4.9-28.3-.132z" class="n"/><path d="M367.6 263.2v8.2l-.5-.8-.5.7-.6-.7-.5.7-.5-.7-.5.7-.5-.7-.5.7v-8.1z" class="q"/><g class="o"><path d="M374.113 290.659l.125-26.9 27.4.128-.125 26.9z"/><path d="M374.22 268.706l.023-4.9 27.4.128-.023 4.9z"/><path d="M373.616 263.237l28.3.132-.023 4.9-28.3-.132z"/><path d="M390.2 263.4l-.1 8.1-.5-.8-.5.8-.5-.8-.5.7-.5-.7-.5.7-.6-.7-.5.7.1-8.1z"/></g><path d="M375.77 290.731l.125-26.9 27.4.128-.125 26.9z" class="q"/><path d="M375.877 268.678l.023-4.9 27.4.128-.023 4.9z" class="o"/><path d="M375.216 263.237l28.3.132-.023 4.9-28.3-.132z" class="q"/><path d="M391.8 263.4v8.1l-.5-.8-.5.8-.5-.8-.6.8-.5-.8-.5.7-.5-.7-.5.7v-8.1z" fill="#ea8237"/><defs ><path id="B" d="M270 216.6a2.65 2.65 0 0 1-2.6-2.6 2.65 2.65 0 0 1 2.6-2.6 2.65 2.65 0 0 1 2.6 2.6 2.65 2.65 0 0 1-2.6 2.6z"/><path id="C" d="M184.1 166.6c-.3 0-.5-.1-.7-.4l-2.6-4.5c-.2-.4-.1-.8.3-1.1.4-.2.8-.1 1.1.3l2.6 4.5c.2.4.1.8-.3 1.1-.1.1-.2.1-.4.1z"/><path id="D" d="M239.6 166.6c-.1 0-.3 0-.4-.1-.4-.2-.5-.7-.3-1.1l2.6-4.5c.2-.4.7-.5 1.1-.3s.5.7.3 1.1l-2.6 4.5c-.1.3-.4.4-.7.4z"/><path id="E" d="M315.1 287.7s.3.8.3 1.2l-.2 1.6h-.5l-.1-.8s-1.2.1-2.5.8c-.6.3-3.3.1-3.8-.1-.5-.3-.3-.7-.1-.9s3.3-1.3 3.3-1.3"/></defs></svg>