<svg xmlns="http://www.w3.org/2000/svg" xmlns:xlink="http://www.w3.org/1999/xlink" width="445" height="334" xmlns:v="https://vecta.io/nano"><style><![CDATA[.AR{fill:#21b24b}.AS{enable-background:new}.AT{fill:#fff}.AU{opacity:.35}.AV{fill:#e6c69f}.AW{fill:#eea886}.AX{fill:#323657}.AY{fill:#e9f0ff}.AZ{fill:#768f9b}.Aa{fill:#292c47}.Ab{fill:#f63c2b}.Ac{fill:#0094d3}.Ad{fill:#1d262c}.Ae{fill:#009de2}.Af{fill:#ff5e26}.Ag{stroke-miterlimit:10}]]></style><path d="M139.6 300.5S95.2 313.4 58.3 278c0 0 9.4-44.4-27.1-70-41.3-29-8.4-77.1-1.6-79.3 0 0 12.9-67.8 53.4-67.8h40.5s14.3-32.6 51.1-33.3c50.7-.9 71.3 10 71.3 10s46-12.5 69.6-.8c27.8 13.6 24.6 9.6 24.6 9.6s20.6 17.1 36.6 13.9 40 5.8 41 32.2c0 0-14.3 42.8 17 63.9 0 0 13.1 20.3-2.5 55.7 0 0-7.8 57.9-26.8 70.7-18.9 12.9-105.1 28.5-134.6 11.8-22-12.6-78.2 10.7-97.2 8.3s-34-2.4-34-2.4z" class="AY"/><path d="M311.6 131.1c-13.2 0-24-10.7-24-24s10.7-24 24-24c13.2 0 24 10.7 24 24 0 13.2-10.8 24-24 24zm0-44.4c-11.2 0-20.4 9.1-20.4 20.4 0 11.2 9.1 20.4 20.4 20.4 11.2 0 20.4-9.1 20.4-20.4a20.36 20.36 0 0 0-20.4-20.4z" fill="#ff7759"/><path d="M95.6 217.5c-1 0-1.9-.2-2.8-.5-.9-.4-1.6-.8-2.3-1.4-.6-.6-1.2-1.3-1.5-2.1-.4-.8-.6-1.6-.6-2.6 0-.9.2-1.8.6-2.6s.9-1.5 1.5-2.1 1.4-1.1 2.3-1.4c.9-.4 1.8-.5 2.8-.5s1.9.2 2.8.5c.9.4 1.6.8 2.3 1.4.6.6 1.2 1.3 1.5 2.1.4.8.6 1.6.6 2.6 0 .9-.2 1.8-.6 2.6s-.9 1.5-1.5 2.1-1.4 1.1-2.3 1.4c-.9.4-1.8.5-2.8.5zm-4.7 16.1l12.2-14.3 11.3-14.9 2.6 2.3-11.9 14.1L93.4 236l-2.5-2.4zm4.7-19c.4 0 .8-.1 1.2-.3s.7-.5 1-.8.5-.7.7-1.2.2-.9.2-1.4c0-1-.3-1.9-.9-2.6s-1.3-1.1-2.2-1.1c-.4 0-.8.1-1.2.3s-.7.5-1 .8c-.3.4-.5.7-.7 1.2-.2.4-.2.9-.2 1.4 0 1 .3 1.9.9 2.6.6.8 1.4 1.1 2.2 1.1zm16.8 21.5c-1 0-1.9-.2-2.8-.5-.9-.4-1.6-.8-2.3-1.4s-1.2-1.3-1.5-2c-.4-.8-.6-1.6-.6-2.6s.2-1.8.6-2.6.9-1.5 1.5-2.1 1.4-1.1 2.3-1.4c.9-.4 1.8-.5 2.8-.5s1.9.2 2.8.5c.9.4 1.6.8 2.3 1.4.6.6 1.2 1.3 1.5 2.1.4.8.5 1.6.5 2.6s-.2 1.8-.5 2.6c-.4.8-.9 1.5-1.5 2s-1.4 1.1-2.3 1.4-1.8.5-2.8.5zm0-2.9c.4 0 .8-.1 1.2-.3s.7-.5 1-.8c.3-.4.5-.7.7-1.2.2-.4.2-.9.2-1.4s-.1-1-.2-1.5c-.2-.5-.4-.8-.7-1.2s-.6-.6-1-.8-.8-.3-1.2-.3-.8.1-1.2.3-.7.5-1 .8c-.3.4-.5.7-.7 1.2s-.2.9-.2 1.4c0 1 .3 1.9.9 2.6.6.8 1.3 1.2 2.2 1.2z" fill="#ff6a59"/><linearGradient id="A" gradientUnits="userSpaceOnUse" x1="28.152" y1="97.85" x2="274.513" y2="97.85"><stop offset="0" stop-color="#ffc05c"/><stop offset="1" stop-color="#ff3857"/></linearGradient><path d="M87.5 92.3h154.3v11.1H87.5z" fill="url(#A)"/><linearGradient id="B" gradientUnits="userSpaceOnUse" x1="28.152" y1="84.55" x2="274.513" y2="84.55"><stop offset="0" stop-color="#ffc05c"/><stop offset="1" stop-color="#ff3857"/></linearGradient><path d="M87.5 83.1h154.3V86H87.5z" fill="url(#B)"/><linearGradient id="C" gradientUnits="userSpaceOnUse" x1="28.152" y1="114.95" x2="274.514" y2="114.95"><stop offset="0" stop-color="#ffc05c"/><stop offset="1" stop-color="#ff3857"/></linearGradient><path d="M87.5 109.4h78.9v11.1H87.5z" fill="url(#C)"/><path d="M283.4 220.6h3.9v17.8h-3.9zm5.7 0h1.9v17.8h-1.9zm3.8 0h3.5v17.8h-3.5zm5.4 0h2.1v17.8h-2.1zm3.6 0h1v17.8h-1zm2.5 0h3.4v17.8h-3.4zm4.7 0h2.6v17.8h-2.6zm3.8 0h1.3v17.8h-1.3zm2.7 0h3.6v17.8h-3.6zm4.5 0h2.7v17.8h-2.7zm3.9 0h1.3v17.8H324zm2.4 0h1.9v17.8h-1.9zm3.2 0h5.9v17.8h-5.9z" fill="#ff7759"/><g opacity=".14" fill="#90c2d6"><path d="M359.6 256.3H79c-6.3 0-11.4-5.1-11.4-11.4v-155c0-6.3 5.1-11.4 11.4-11.4h280.5c6.3 0 11.4 5.1 11.4 11.4v155c.1 6.3-5 11.4-11.3 11.4z"/><path d="M371 256.3H67.6V92.6H371z"/></g><path d="M347.2 249.7h-268c-6.3 0-11.4-5.1-11.4-11.4V80.6c0-6.3 5.1-11.4 11.4-11.4h268c6.3 0 11.4 5.1 11.4 11.4v157.7c.1 6.3-5 11.4-11.4 11.4z" fill="#8094b1"/><path d="M358.7 249.7H67.8V83.5h290.9z" stroke="#c5d6dd" stroke-width=".5" class="AT Ag"/><path d="M78.6 90.5h192.8V96H78.6zm0 9.4h192.8v9.5H78.6zm0 14.6h192.8v16.6H78.6z" opacity=".88" fill="#f4f4f6" class="AS"/><path d="M175.2 247.3H186v1.3h-10.8z" class="AZ"/><path d="M91.6 214.8c-1 0-1.9-.2-2.8-.5-.9-.4-1.6-.8-2.3-1.4-.6-.6-1.2-1.3-1.5-2.1-.4-.8-.6-1.6-.6-2.6 0-.9.2-1.8.6-2.6s.9-1.5 1.5-2.1 1.4-1.1 2.3-1.4c.9-.4 1.8-.5 2.8-.5s1.9.2 2.8.5c.9.4 1.6.8 2.3 1.4.6.6 1.2 1.3 1.5 2.1.4.8.6 1.6.6 2.6s-.2 1.8-.6 2.6-.9 1.5-1.5 2.1-1.4 1.1-2.3 1.4-1.8.5-2.8.5zm-4.7 16.1l12.2-14.3 11.3-14.9 2.6 2.3-11.9 14.1-11.7 15.1-2.5-2.3zm4.7-19c.4 0 .8-.1 1.2-.3s.7-.5 1-.8c.3-.4.5-.7.7-1.2s.2-.9.2-1.4c0-1-.3-1.9-.9-2.6s-1.3-1.1-2.2-1.1c-.4 0-.8.1-1.2.3s-.7.5-1 .8c-.3.4-.5.7-.7 1.2-.2.4-.2.9-.2 1.4 0 1 .3 1.9.9 2.6.6.8 1.3 1.1 2.2 1.1zm16.8 21.5c-1 0-1.9-.2-2.8-.5-.9-.4-1.6-.8-2.3-1.4-.6-.6-1.2-1.3-1.5-2-.4-.8-.6-1.6-.6-2.6 0-.9.2-1.8.6-2.6s.9-1.5 1.5-2.1 1.4-1.1 2.3-1.4c.9-.4 1.8-.5 2.8-.5s1.9.2 2.8.5c.9.4 1.6.8 2.3 1.4.6.6 1.2 1.3 1.5 2.1.4.8.5 1.6.5 2.6 0 .9-.2 1.8-.5 2.6-.4.8-.9 1.5-1.5 2-.6.6-1.4 1.1-2.3 1.4a8.21 8.21 0 0 1-2.8.5zm0-2.9c.4 0 .8-.1 1.2-.3s.7-.5 1-.8c.3-.4.5-.7.7-1.2.2-.4.2-.9.2-1.4s-.1-1-.2-1.5c-.2-.5-.4-.8-.7-1.2s-.6-.6-1-.8-.8-.3-1.2-.3-.8.1-1.2.3-.7.5-1 .8-.5.7-.7 1.2-.2.9-.2 1.4c0 1 .3 1.9.9 2.6.6.8 1.3 1.2 2.2 1.2z" fill="#e0e0e0"/><path d="M270.6 218h4.8v14.2h-4.8zm7.1 0h2.4v14.2h-2.4zm4.7 0h4.4v14.2h-4.4zm6.8 0h2.6v14.2h-2.6zm4.5.1h1.2v14.2h-1.2zm3-.1h4.2v14.2h-4.2zm5.9 0h3.2v14.2h-3.2zm4.7 0h1.6v14.2h-1.6zm3.4 0h4.5v14.2h-4.5zm5.6 0h3.4v14.2h-3.4zm4.9 0h1.7v14.2h-1.7zm3 0h2.3v14.2h-2.3zm4 .1h7.4v14.2h-7.4z" class="AZ"/><path d="M314.2 155.2c-15.3 0-27.7-12.4-27.7-27.7s12.4-27.7 27.7-27.7 27.7 12.4 27.7 27.7-12.5 27.7-27.7 27.7zm0-51.3c-13 0-23.6 10.6-23.6 23.6s10.6 23.6 23.6 23.6 23.6-10.6 23.6-23.6-10.6-23.6-23.6-23.6z" fill="#d9e6fc"/><path d="M282.6 174.8h52.9v11.8h-52.9zm0 15h52.9v7h-52.9z" opacity=".88" fill="#f4f4f6" class="AS"/><path d="M232.1 267h-90.2a8.71 8.71 0 0 1-8.7-8.7V125.8a8.71 8.71 0 0 1 8.7-8.7h90.2a8.71 8.71 0 0 1 8.7 8.7v132.5a8.64 8.64 0 0 1-8.7 8.7z" stroke="#bcd4f7" class="AY Ag"/><path d="M214.3 243.5c-8.8 0-16-7.2-16-16s7.2-16 16-16 16 7.2 16 16c0 8.9-7.2 16-16 16zm0-28.8c-7.1 0-12.9 5.8-12.9 12.9s5.8 12.9 12.9 12.9 12.9-5.8 12.9-12.9-5.8-12.9-12.9-12.9zm-1.3 17.5l-5.4-5.4 1.5-1.6 3.9 3.8 5.2-5.3 1.6 1.6zm-64.5-10.7h26.7v3.6h-26.7zm0 8.6H188v3.6h-39.5z" class="AZ"/><circle cx="184.3" cy="162.5" r="30.9" fill="#d9dde2"/><circle cx="184.3" cy="158.4" r="30.9" stroke="#c5d6dd" stroke-width=".5" class="AT"/><path d="M199.2 139.8l-1.3 5.8h-33.7v1.3l4.9 22.5v.6h2.8l.7 2.9h1c-.9.4-1.6 1.2-1.6 2.3 0 1.3 1.1 2.5 2.5 2.5s2.5-1.1 2.5-2.5c0-1.1-.6-1.9-1.6-2.3H189c-.9.4-1.6 1.2-1.6 2.3 0 1.3 1.1 2.5 2.5 2.5 1.3 0 2.5-1.1 2.5-2.5 0-1.1-.6-1.9-1.6-2.3h1.1v-1.1h-18.4l-.5-1.9h20.9v-.6l4-18.4 2.3-10.1h14.1v-1.1l-15.1.1zm-23.4 35.4c0 .8-.6 1.4-1.4 1.4s-1.4-.6-1.4-1.4.6-1.4 1.4-1.4 1.4.7 1.4 1.4zm15.5 0c0 .8-.6 1.4-1.4 1.4s-1.4-.6-1.4-1.4.6-1.4 1.4-1.4c.7 0 1.4.7 1.4 1.4zM177 154.6h8.8l-.5 6.4h-7.9l-.4-6.4zm-.7 6.4h-7.8l-1.4-6.4h8.8l.4 6.4zm9.6-7.7h-9l-.5-6.4h9.9l-.4 6.4zm1.6-6.4h9.9l-1.4 6.4h-9l.5-6.4zm-2.2 15.4l-.5 6.4H178l-.5-6.4h7.8zm1.1 0h7.7l-1.4 6.4h-6.8l.5-6.4zm8-1.3h-7.8l.5-6.4h8.8l-1.3 6.3-.2.1zm-19.1-14.1l.5 6.4h-9l-1.4-6.4h9.9zm-6.6 15.4h7.7l.5 6.4H170l-1.3-6.4z" class="AZ"/><path d="M261.2 244.4s-.5.8-.5 1.4c-.1.5-.5 1.2-.6 1.6-.2.4-.8 2.3-.8 2.8 0 .2.4 1.5.4 1.8-.1.4-.3 1.2.1 1.2s.8-.6.8-.6-.1.4.3.5c.6.3.9.1.9.1s.2.4.5.5c.6.1.9-.1.9-.1s.3.2.7.2c.5 0 .8-.5.8-.5s.6.1.9-.2c.2-.3.2-.6.2-.9.1-.3 0-2.9-.9-4.7-.9-1.9.2-3.6.2-3.6l-3.9.5z" class="AW"/><path d="M260.3 252.5s-.1-2.3.5-2.8.7.4.7.4-.1-.8.6-.9c.6-.1.7.9.7.9s.1-.6.8-.5.5.9.5.9.6-.8 1.1-.1c.7 1.3 0 2.8 0 2.8s-.2.4-.9.2c0 0-.5.9-1.5.2 0 0-1 .6-1.4-.4.2.1-1 .6-1.1-.7z" fill="#db9c7c"/><path d="M253.3 211.2l5.3 18c.4 1.5 1.4 16 1.6 16.6s5.2 1.4 5.2 1.4l-.6-19.1c-.1-1-5.5-21.3-7.1-22-1.2-.5-1.8-.1-3.3 1-2.2 1.5-1.1 4.1-1.1 4.1z" class="AX"/><use xlink:href="#E" fill="#424773"/><path d="M256.9 303.6s-1.2 1.5-2.5 2.2c-1.2.6-3.1.9-3.8 1.6-.5.5-1.9 2.6 3.2 2.6 5-.1 7.4.3 8-.5.5-.8-.8-6-.8-6s-1.3.4-4.1.1z" class="Aa"/><use xlink:href="#E" x="-28.3" fill="#424773"/><g class="Aa"><path d="M228.5 303.6s-1.2 1.5-2.5 2.2c-1.2.6-5.7 1.2-6.4 1.9-.5.5-1.4 2.5 5.7 2.3 5-.1 7.4.3 8-.5.5-.8-.8-6-.8-6s-1 .4-4 .1zm24.7-66.7s3.7 5.9 3.5 11.2c-.3 5.3 1.3 11.2 1.9 16.7.6 6.2 3.2 21 3.3 24.2.1 3.3-.4 13.9-.4 13.9l-5.1.1s-4.3-25.7-5.4-28.3-6.6-21.4-6.8-23.4 9-14.4 9-14.4z"/><path d="M233.7 237.7l-3.2 17.9c-.4 3.3-.6 15.8-.8 17.9-.2 2-1.8 26.6-2.2 29.7h6.5s5-17.9 5-26.4 3.9-18.4 6.4-24.1 8.2-5.7 9.7-16.1c0 0-19.4-2.2-21.4 1.1z"/></g><g class="AW"><path d="M247 187.2s-5-1.9-7.3 1.9-2.1 11.4.4 12.4c2.5.9 6.3.5 7.6-1.9s2.5-5.8 2.4-8.1c0-2.4-1.8-3.7-3.1-4.3z"/><path d="M240.7 201.7s.2 1.3-.1 2 6.4.7 6.4.7.5-3.6 1.6-6.7-7.9 4-7.9 4z"/></g><path d="M248.6 197.7s-.5.8-2.4.5-4.3-2.9-5-3.2c-.8-.3-.8-.8-.8-.8l-.5.8h-.9s.8-2.3-.4-3.2 1.2-7.4 7.4-5.2c0 0 4.7 1.3 4.6 4-.2 2.7-.9 5.7-2 7.1z" class="AX"/><path d="M240.2 203.6s0-1.3.6-1.4 6.3-.7 7-.4v1.5c0-.1-1.3.8-7.6.3z" fill="#e2d2ca"/><path d="M240.5 193.3c.1-.5 1.2-1.8 1.7-.4s-.6 3.2-1.3 3.1c-.6-.1-.7-1.5-.4-2.7z" class="AW"/><path d="M217.3 218.6h0c-.1 0-.1 0 0 0zm31.1-30.9s6.4.5.2 10l-.2-10z" class="AX"/><path d="M205.1 189.6c.2-.6.9-.8.9-.8.3-.4 1-.6 1-.6 0-.1 0-.1.1-.1-.5-.5-1.8-1.4-1.8-1.6-.1-.2-.1-.2.2-.4.2-.1 2.3 1.3 3 1.8.2.1.3.2.4.2.2.2.6.3.9.6l.1.1c.4.5 1.2 4.1 1.2 4.1l-1.5.6-1.5 1.2-2.1-1.8c-.4-.4-.6-.9-.8-1.2 0-.1-.1-.1-.1-.2-.2-.3-.5-.6-.5-.6-.2-.2-.2-.7-.2-.7 0-.4.7-.6.7-.6z" fill="#efaa88"/><path d="M230.6 205.5c4-.5 9.5-1.9 9.5-1.9l7.7-.3s7 1.5 9.8 2.8c.2.1.2 6.3 1 7.8l-2.3 4.9s-1.3 9.6-1.6 13.8c-.1 1.9 2.8 18.3 2.8 18.3s-3 .9-8.3 1.5-18.3-.2-18.3-.8c-.1-.6 2.5-23 2.6-24.1.2-1.8-.6-11.2-.6-11.2-1.2-.9-11.8-5.9-14.7-8.4-.8-.7-4-3.9-5-5-3.3-3.9-6-7.2-6.3-7.9-.4-.4 3.6-2.6 3.9-2.7s4.7 5.6 6.4 7.5c.8.8 3.9 3.1 3.9 3.1s7.1 2.7 9.5 2.6z" class="AX"/><path d="M103.5 147.1c-5.6 0-10.5 2.8-13.5 7a8.63 8.63 0 0 1 1.8 1.6c2.2-3.3 5.8-5.7 10-6.1l1.7 2.9 1.7-2.9c6.4.8 11.5 5.9 12.2 12.2l-2.9 1.7 2.9 1.7c-.5 4.3-3 8-6.4 10.2.2.5.4 1 .4 1.6 0 .4 0 .8-.1 1.1 5.2-2.8 8.7-8.3 8.7-14.5a16.52 16.52 0 0 0-16.5-16.5zm4.2 27.1c-3.8-3-4.9-1.6-6.6.2-1.2 1.2-4.3-1.3-6.9-3.9s-5.2-5.7-3.9-6.9c1.7-1.7 3.2-2.8.2-6.6s-5.1-.9-6.7.8c-1.9 1.9-.1 9.1 7 16.2s14.3 8.9 16.2 7c1.6-1.7 4.5-3.8.7-6.8zm-11.6-8.1c0-3.4 3.9-4 3.9-5.3 0-.6-.5-.9-1-.9-.9 0-1.3 1-1.3 1l-1.6-1.1s.8-2 3.2-2c1.5 0 3.1.9 3.1 2.8 0 2.9-3.7 3.4-3.7 4.6h3.9v1.9h-6.3c-.1-.3-.2-.6-.2-1zm7.4-2.6l3.5-5.6h2.8v5.1h1.1v1.9h-1.1v2.2h-2.2v-2.2h-4v-1.4h-.1zm4-.4v-2c0-.5.1-1 .1-1h0s-.2.6-.5.9l-1.4 2.1h1.8z" fill="#e0e0e0"/><circle cx="314" cy="127.9" r="23.2" fill="#edf3ff"/><defs><circle id="D" cx="314" cy="127.9" r="23.2"/><path id="E" d="M256.5 301l.4 2.9c0 .4 4-.2 4-.2l.3-3s-4.2 0-4.7.3z"/><path id="F" d="M51 228.9c.1.1.1.4-.1.6l-.1.1c-.2.2-.5.2-.6.1l-5.7-5.6c-.1-.1-.1-.4.1-.6l.1-.1c.2-.2.5-.2.6-.1l5.7 5.6z"/><path id="G" d="M37.4 228.9c-.1.1-.1.4.1.6l.1.1c.2.2.5.2.6.1l5.7-5.6c.1-.1.1-.4-.1-.6l-.1-.1c-.2-.2-.5-.2-.6-.1l-5.7 5.6z"/><path id="H" d="M390.7 299.2s-1.1 1.5-3.7 3.6c-2.6 2-3.3 1.6-3.3 2.3-.1.8 10.9 0 10.9 0V299c-.1 0-3.9 0-3.9.2z"/></defs><clipPath id="I"><use xlink:href="#D"/></clipPath><g clip-path="url(#I)"><path d="M323.1 137.8h-17.4c-4.3 0-6.7-5-3.9-8.4l.2-.2c1.2-1.5 1.9-3.3 1.9-5.2v-3.3c0-5.9 4.7-10.6 10.7-10.6s10.6 4.7 10.6 10.6v3.5c0 1.9.7 3.8 1.9 5.3 2.7 3.2.3 8.3-4 8.3z" fill="#303133"/><path d="M332.2 146.4v11.5h-35.6v-11.4c0-2.6 1.5-4.9 3.9-5.9l5.7-2.5 1.9-.8c1.5-.6 2.4-2.1 2.4-3.7v-.8h7.6v.7c0 1.6.9 3 2.5 3.7l7.8 3.3c2.3 1.1 3.8 3.4 3.8 5.9h0z" class="AT"/><path d="M306.2 140.8c2 .6 4.9 1.2 8.4 1.2 3.3-.1 6-.7 7.9-1.3l.9-2.2-2.9-1.2c-1.5-.6-2.5-2.1-2.5-3.7v-.7h-7.6v.8c0 1.6-.9 3-2.4 3.7l-2.3 1 .5 2.4z" fill="#ffcebf"/><g fill="#6473b2"><path d="M328.4 140.6l-5.9-2.5V158h9.7v-11.5c0-2.6-1.5-4.9-3.8-5.9h0zm-22.2-2.5v19.8h-9.7v-11.4c0-2.6 1.5-4.9 3.9-5.9l5.8-2.5z"/></g><path d="M317 137c.9 0 1.7-.2 2.5-.5-.8-.8-1.3-1.8-1.3-2.9v-.7h-7.6v.8c0 .6-.1 1.1-.4 1.6 1.2 1.1 2.7 1.8 4.4 1.8l2.4-.1z" fill="#ffb09e"/><path d="M321.9 121.4v6.3c0 3.5-2.9 6.4-6.4 6.4h-2.3c-3.5 0-6.4-2.9-6.4-6.4v-6.3a4.23 4.23 0 0 1 4.2-4.2h6.8c2.3.1 4.1 1.9 4.1 4.2h0z" fill="#ffcebf"/><path d="M321.9 124.7h0c-.2.8-.8 2.3-2.3 3.5-.7.5-1.5.9-2.3 1.1-.4.1-.6.5-.5.9s.4.5.7.5h.2c1.1-.3 2-.8 2.8-1.4.6-.5 1.1-.9 1.4-1.4v-3.2z" fill="#7a6d79"/><path d="M316.5 131.3h-1.7c-.8 0-1.4-.6-1.4-1.4s.6-1.4 1.4-1.4h1.7c.8 0 1.4.6 1.4 1.4 0 .7-.6 1.4-1.4 1.4z" fill="#685e68"/><g fill="#303133"><path d="M315.8 115.6c.2-2 2.1-3.4 4-4.1 3.1 1.9 5.2 5.3 5.2 9.1v.7c-.2.1-.4.1-.5.1-1.1.2-1.9.1-2.5 0-3.9-.4-6.3-3.3-6.2-5.8z"/><path d="M314.4 110c2.4 0 4.6.8 6.4 2.2-.9 1.5-2.9 4.6-6.7 6.9-2.8 1.7-5.5 2.2-7.1 2.5h-3.1v-.8c-.1-6 4.6-10.8 10.5-10.8z"/></g><g class="AT"><circle cx="290.5" cy="117.7" r=".7"/><circle cx="293.4" cy="117.7" r=".7"/><circle cx="296.3" cy="117.7" r=".7"/></g></g><g class="AT"><circle cx="79" cy="76.5" r="2"/><circle cx="84.8" cy="76.5" r="2"/><circle cx="90.4" cy="76.5" r="2"/></g><g stroke="#fff" stroke-width="2" class="AY"><circle cx="140.9" cy="46.4" r="15.4"/><circle cx="47.9" cy="86" r="15.4"/><circle cx="22.6" cy="162.5" r="15.4"/><circle cx="44.1" cy="230.4" r="15.4"/><circle cx="424.6" cy="199" r="15.4"/><circle cx="409.2" cy="104.7" r="15.4"/><circle cx="350.9" cy="46.5" r="15.4"/><circle cx="248.7" cy="43" r="15.4"/></g><g class="AR AS"><path d="M137.6 46.1h.1c.1-.1.2-.1.3-.2s.1-.2.1-.4c0-.1 0-.2-.1-.3 0-.1-.1-.1-.1-.2-.1-.1-.1-.1-.2-.1h-.6V46h.2c.2.1.3.1.3.1z" class="AU"/><path d="M148.7 42.8H133c-.5 0-.9.4-.9.9v5.6c0 .2.1.5.3.6s.4.2.6.2h15.6c.5 0 .9-.4.9-.9v-5.6c.1-.4-.3-.8-.8-.8zm-12.1 1.5c.1 0 .3-.1.5-.1h.6c.2 0 .4 0 .5.1.2 0 .3.1.4.2l.3.3c.1.1.1.3.1.5 0 .1 0 .2-.1.3 0 .1-.1.2-.1.3-.1.1-.1.2-.2.2-.1.1-.2.1-.3.2v.1c.1 0 .2.1.3.1l.2.2c.1.1.1.2.2.3s.1.2.1.4-.1.4-.1.6c-.1.2-.2.3-.3.4s-.3.2-.5.2c-.2.1-.4.1-.5.1h-.8c-.1 0-.2-.1-.3-.1v-4.3zm5.6 2.8c0 .5-.1.9-.4 1.2-.2.2-.5.4-.9.4-.5 0-.8-.1-1-.4-.2-.2-.4-.6-.4-1.1v-2.9h.8V47c0 .4.1.6.1.7.1.1.2.2.5.2.2 0 .4-.1.4-.2.1-.1.1-.4.1-.7v-2.8h.7l.1 2.9zm2.3-.6l-.2.5v1.6h-.8V47l-.2-.5-.9-2.2h.9l.6 1.6.1.5h.1l.1-.5.6-1.6h.8l-1.1 2.2zm-6.4.3c-.1-.1-.1-.1-.2-.1h-.5V48h.4c.2 0 .3-.1.4-.2s.2-.3.2-.5c0-.1 0-.2-.1-.3s-.1-.2-.2-.2zm2.3-9.9h1v5.3h-1zm-5.649 2.097l.707-.707 3.182 3.182-.707.707zm8.355 2.543l3.182-3.182.707.707-3.182 3.182zM140.4 50.8h1v5.3h-1zm-5.603 3.113l3.181-3.183.707.707-3.181 3.183zm8.383-2.41l.707-.707 3.182 3.182-.707.707z" opacity=".38"/><path d="M56.7 87.4v-3.9c0-.1.1-.4 0-.5-.1-.2-.4-.2-.6-.2-3.3-.4-6.6-.6-10-1l-2.9-.3c.1 0 .1 0 0-.1l-.3-.3c-.3-.4-.6-.7-.9-1.1s-.5-.6-.8-1c-.1-.1-.2-.4-.4-.5s-.6 0-.8 0h-.6c-.1 0-.3-.2-.4-.2-.9-.3-1.2 1.3-.3 1.3.2 0 .4 0 .6-.2.1-.1.1-.1.4-.1h.7l.1.1c.5.6 1 1.3 1.5 1.9.1.1.1.1.1.2v8.9c-.1.1-.2.1-.2.2-.3.2-.6.5-.8.8-.1.1-.4.2-.4.4-.1.2 0 .5 0 .7 0 .1.1.1.1.1h.6v.1c.1.1.1.1.1.2-1 .7-.6 2.2.6 2.3h.2c1.2-.1 1.6-1.6.6-2.3l.2-.2h8.1v.1c.1.1.1.1.1.2-1 .7-.5 2.2.7 2.3 1.3.1 1.6-1.6.7-2.3.1-.1.1-.1.1-.2v-.1h1.1c.1 0 .1-.1.1-.1v-.7c0-.1-.1-.1-.1-.1H42.2c.2-.1.3-.3.5-.4l.7-.7s.5-.1.8-.1l4.7-.6c1.8-.2 3.7-.5 5.5-.7.6-.1 1.2-.2 1.8-.2.1 0 .6 0 .7-.2 0-.4-.2-1.1-.2-1.5zm-4.8 6c.3 0 .6.2.6.6 0 .3-.2.6-.6.6-.3 0-.6-.2-.6-.6a.65.65 0 0 1 .6-.6zm-9.8 0c.3 0 .6.2.6.6 0 .3-.2.6-.6.6-.3 0-.6-.2-.6-.6a.65.65 0 0 1 .6-.6zm3.5-11.1c.2 0 .3.1.5.1v.8c-.2 0-.3 0-.5-.1v-.8zm0 1.3a.9.9 0 0 1 .5.1v.8h-.5v-.9zm.5 1.3v.8h-.4v-.8c0-.1.3 0 .4 0zm-2.7 5.3c-.2 0-.3.1-.5.1V89c.2 0 .3 0 .5-.1v1.3zm0-1.8c-.2 0-.3 0-.5.1v-.9h.5v.8zm0-1.3h-.5v-.9h.5v.9zm0-1.4h-.5v-.9h.5v.9zm0-1.4h-.5v-.9a.9.9 0 0 1 .5.1v.8zm0-1.4h0a.45.45 0 0 1-.5 0V82l.5.1c-.1 0-.1.7 0 .8h0zm.8 7.1c-.2 0-.3.1-.5.1v-1.2c.2 0 .3 0 .5-.1V90zm0-1.7h-.5v-.9h.5v.9zm0-1.3h-.5v-.9h.5v.9zm0-1.3h-.5v-.9h.5v.9zm0-1.4h0c-.2.1-.3.1-.5.1v-.9l.5.1v.7c0-.1 0-.1 0 0zm0-1.3h-.4v-.9c.2 0 .3.1.5.1-.1.2-.1.8-.1.8zm1 6.9c-.2 0-.3.1-.5.1v-1.2c.2 0 .3 0 .5-.1v1.2zm0-1.6h-.5v-.8h.5v.8zm0-1.3h-.5v-.8h.5v.8zm-.5-1.3v-.8h.5v.8h-.5zm.5-1.3h-.5v-.8a1.34 1.34 0 0 0 .5.1v.7zm0-1.3c-.2 0-.3 0-.5-.1v-.8c.2 0 .3.1.5.1v.8zm.9 6.6c-.2 0-.3.1-.5.1v-1.1c.2 0 .3 0 .5-.1v1.1zm0-1.5h-.5v-.8h.5v.8zm0-1.3h-.5v-.8h.5v.8zm.5-4.5c.2 0 .3.1.5.1v.8c-.2 0-.3 0-.5-.1v-.8zm0 1.3a.9.9 0 0 1 .5.1v.8h-.5v-.9zm0 1.2h.5v.8h-.5v-.8zm.5 1.2v.8h-.4v-.8c-.1 0 .2 0 .4 0zm0 3.5c-.2 0-.3.1-.5.1v-1.1c.2 0 .3 0 .5-.1v1.1zm0-1.4h-.5v-.8l.5-.1c0 0 0 .8 0 .9zm.8 1.4h-.4v-1.1l.4-.1v1.2zm0-1.5h-.4v-.8h.4v.8zm0-1.2h-.5v-.8h.5v.8zm0-1.2h-.5v-.8h.5v.8zm0-1.2h-.5v-.8a.9.9 0 0 1 .5.1v.7zm0-1.3c-.2 0-.3 0-.5-.1v-.8c.2 0 .3.1.5.1v.8zm1 6.3l-.5.1v-1.1c.2 0 .3 0 .5-.1v1.1zm0-1.4h-.5v-.7h.5v.7zm0-1.2h-.5v-.7h.5v.7zm0-1.2h-.5V85h.5v.7zm0-1.2h-.5v-.7a.9.9 0 0 1 .5.1v.6zm0-1.2h-.5v-.7c.2 0 .3.1.5.1v.6zm.9 6c-.2 0-.3.1-.5.1v-.9c.2 0 .3 0 .5-.1v.9zm0-1.3h-.5v-.7h.5v.7zm0-1.2h-.5v-.7h.5v.7zm0-1.1h-.5V85h.5v.7zm0-1.2h-.5v-.7a.9.9 0 0 1 .5.1v.6zm0-1.1c-.2 0-.3 0-.5-.1v-.7c.2 0 .3.1.5.1v.7zm.9 5.8c-.2 0-.3.1-.5.1v-.9h.5v.8zm0-1.3c-.2 0-.3 0-.5.1v-.6h.5v.5zm0-1.1h-.5v-.6h.5v.6zm0-1.1h-.5v-.6h.5v.6zm0-1.2h-.5v-.6a.9.9 0 0 1 .5.1v.5zm0-1.1c-.2 0-.3 0-.5-.1v-.6c.2 0 .3.1.5.1v.6zm1 5.7c-.2 0-.3.1-.5.1v-.8c.2 0 .3 0 .5-.1v.8zm0-1.3h-.5v-.6h.5v.6zm0-1h-.5v-.6h.5v.6zm0-1.1h-.5v-.6h.5v.6zm0-1.1h-.5V84c.2 0 .3 0 .5.1v.5zm0-1.1c-.2 0-.3 0-.5-.1v-.6c.2 0 .3.1.5.1v.6zm.9 5.5c-.2 0-.3.1-.5.1v-.8h.5v.7zm0-1.2c-.2 0-.3 0-.5.1v-.6h.5v.5zm0-1.1h-.5v-.6h.5v.6zm0-1h-.5v-.6h.5v.6zm0-1.1h-.5V84c.2 0 .3 0 .5.1v.5zm0-1.1h-.5v-.6c.2 0 .3.1.5.1v.5zm.9 5.4c-.2 0-.3.1-.5.1v-.7c.2 0 .3 0 .5-.1v.7zm0-1.2H53v-.6h.5v.6zm0-1H53v-.6h.5v.6zm0-1H53v-.6h.5v.6zm0-1H53v-.6a.9.9 0 0 1 .5.1v.5zm0-1.1c-.2 0-.3 0-.5-.1v-.6c.2 0 .3.1.5.1v.6zm.9 5.1c-.2 0-.3.1-.5.1v-.6h.5v.5zm0-1.1c-.2 0-.3 0-.5.1v-.5h.5v.4zm0-1h-.5v-.5h.5v.5zm0-.9h-.5v-.5h.5v.5zm0-1h-.5v-.5a.9.9 0 0 1 .5.1v.4zm0-1c-.2 0-.3 0-.5-.1v-.5c.2 0 .3.1.5.1v.5zm1 4.9c-.2 0-.3.1-.5.1v-.6c.2 0 .3 0 .5-.1v.6zm0-1c-.2 0-.3 0-.5.1v-.5h.5v.4zm0-1h-.5v-.5h.5v.5zm0-.9h-.5v-.5h.5v.5zm0-1h-.5v-.5a.9.9 0 0 1 .5.1v.4zm0-.9c-.2 0-.3 0-.5-.1v-.5c.2 0 .3.1.5.1v.5zm.8 4.7c-.2 0-.3.1-.5.1v-.5h.5v.4zm0-1c-.2 0-.3 0-.5.1v-.5h.5v.4zm0-.9h-.5v-.5h.5v.5zm0-.9h-.5v-.5h.5v.5zm0-1h-.5v-.5c.2 0 .3 0 .5.1v.4zm0-.9c-.2 0-.3 0-.5-.1v-.5c.2 0 .3.1.5.1v.5z" class="AU"/></g><g class="AR AU"><path d="M29.5 162.2h0a2.37 2.37 0 0 0-1.7-2.3v-1.6c0-2.8-2.2-4.9-4.9-4.9h-.6c-2.7 0-4.9 2.2-4.9 4.8h1.8c.1-1.7 1.5-3 3.2-3h.6c1.8 0 3.2 1.5 3.2 3.2v1.5h-8.1c-1.3 0-2.5 1.1-2.5 2.5v7.1c0 1.3 1.1 2.5 2.5 2.5H27c.7 0 1.4-.3 1.8-.8H16.3c-.2-.2-.3-.4-.4-.6h13.4c.1-.3.2-.6.2-1.1V164H15.7v-.6h13.8v-.6H15.7v-.6h13.8zm-6.9 4.6c.6 0 1.2.5 1.2 1.2 0 .4-.2.7-.5.9v1.2h-1.5v-1.2c-.3-.2-.4-.6-.4-.9 0-.7.5-1.2 1.2-1.2zm6.5 4s0-.1 0 0c0-.1 0 0 0 0z"/><path d="M28.9 171c.1-.1.1-.2.2-.2-.1.1-.1.2-.2.2z"/><path d="M28.9 171h0zm.2-.3c.1-.1.1-.2.2-.3-.1.2-.1.2-.2.3z"/></g><g class="AR AU"><path d="M34.8 229.8l1.7 7.5c.1.6.4.9.9.9h13.3c.5 0 .8-.4.9-.9l1.7-7.5H34.8zm4.6 6.7c0 .1-.1.2-.2.2h-.6c-.1 0-.2-.1-.2-.2V232c0-.1.1-.2.2-.2h.6c.1 0 .2.1.2.2v4.5zm2.7 0c0 .1-.1.2-.2.2h-.6c-.1 0-.2-.1-.2-.2V232c0-.1.1-.2.2-.2h.7c.1 0 .2.1.2.2v4.5h-.1zm2.5 0c0 .1-.1.2-.2.2h-.6c-.1 0-.2-.1-.2-.2V232c0-.1.1-.2.2-.2h.6c.1 0 .2.1.2.2v4.5zm2.7 0c0 .1-.1.2-.2.2h-.6c-.1 0-.2-.1-.2-.2V232c0-.1.1-.2.2-.2h.6c.1 0 .2.1.2.2v4.5zm2.4 0c0 .1-.1.2-.2.2h-.6c-.1 0-.2-.1-.2-.2V232c0-.1.1-.2.2-.2h.6c.1 0 .2.1.2.2v4.5z"/><path d="M54.8 229.9c0 .4-.3.6-.6.6H33.9c-.4 0-.6-.3-.6-.6v-1.1c0-.4.3-.6.6-.6h20.3c.4 0 .6.3.6.6v1.1z"/><use xlink:href="#F"/><use xlink:href="#F" y="-0.1"/><path d="M50.7 229c0 .1-.1.2-.2.2s-.2-.1-.2-.2.1-.2.2-.2.2.2.2.2z"/><use xlink:href="#G"/><use xlink:href="#G" y="-0.1"/><path d="M37.7 229c0 .1.1.2.2.2s.2-.1.2-.2-.1-.2-.2-.2-.2.2-.2.2z"/></g><circle cx="329.6" cy="292.4" r="15.4" stroke="#fff" stroke-width="2" class="AY"/><path d="M333.3 295.8c-.5-.5-1-.5-1.5 0l-1 1c-.1.1-.2.1-.3.1-.2-.1-.5-.2-.7-.4-1-.6-1.9-1.5-2.6-2.4-.4-.5-.7-.9-.9-1.5 0-.1 0-.2.1-.3l1-1c.5-.5.5-1 0-1.5l-1.6-1.6c-.5-.4-1-.4-1.5 0-.4.3-.7.7-1 1s-.5.7-.5 1.1c-.1.7.1 1.4.4 2.1.5 1.4 1.3 2.6 2.3 3.8 1.3 1.5 2.8 2.7 4.6 3.6.8.4 1.6.7 2.6.7.6 0 1.2-.1 1.6-.6l1-1c.5-.5.5-1 0-1.5-.9-.5-1.5-1.1-2-1.6zm-.6-2.4l1.1-.2c-.2-1-.6-1.9-1.4-2.6-.8-.8-1.7-1.2-2.8-1.4l-.2 1.1c.8.1 1.6.5 2.1 1.1.7.6 1.1 1.3 1.2 2zm1.7-4.7c-1.2-1.2-2.8-2-4.6-2.3l-.2 1.1a6.96 6.96 0 0 1 4 2c1 1 1.7 2.3 1.9 3.7l1.1-.2c-.2-1.6-1-3.1-2.2-4.3z" class="AR AU"/><g class="AU"><path d="M418.3 206.2c0 .7.6 1.2 1.2 1.2h8.6c.7 0 1.2-.6 1.2-1.2v-15.5c0-.7-.6-1.2-1.2-1.2h-8.5c-.7 0-1.2.6-1.2 1.2l-.1 15.5z" class="AR"/><path d="M419.5 203.4c0 .1.1.1.1.1h8.4c.1 0 .1-.1.1-.1v-11.1c0-.1-.1-.1-.1-.1h-8.4c-.1 0-.1.1-.1.1v11.1z" class="AT"/><path d="M423 205.4c0 .5.4.9.9.9s.9-.4.9-.9-.4-.9-.9-.9c-.6 0-.9.4-.9.9z" class="AR"/><path d="M423.3 205.4a.47.47 0 0 1 .5-.5h0a.47.47 0 0 1 .5.5h0a.47.47 0 0 1-.5.5h0c-.3.1-.5-.2-.5-.5h0zm.5.4c.2 0 .4-.2.4-.4h0c0-.2-.2-.4-.4-.4h0c-.2 0-.4.2-.4.4h0c0 .2.2.4.4.4h0z" class="AT"/><g class="AR"><path d="M422.4 190.8c0 .1.1.1.1.1h2.6c.1 0 .1-.1.1-.1v-.1c0-.1-.1-.1-.1-.1h-2.6c-.1 0-.1.1-.1.1v.1zm6.6.4c-1.9 0-3.5 1.6-3.5 3.5 0 .7.2 1.3.5 1.8l-.9 2 2.1-.8c.5.4 1.2.5 1.8.5 1.9 0 3.5-1.6 3.5-3.5s-1.5-3.5-3.5-3.5z"/><path d="M429 190.9c-1.9 0-3.5 1.6-3.5 3.5 0 .7.2 1.3.5 1.8l-.9 2 2.1-.8c.5.4 1.2.5 1.8.5 1.9 0 3.5-1.6 3.5-3.5s-1.6-3.5-3.5-3.5z"/></g><path d="M429.6 193.6c-.2-.2-.3-.2-.5-.2s-.4.1-.4.3c0 .5 1.2.4 1.2 1.3 0 .5-.2.8-.7.9v.5h-.5v-.5c-.3-.1-.6-.2-.8-.4l.3-.5c.2.2.5.3.6.3.2 0 .4-.1.4-.3 0-.5-1.2-.5-1.2-1.3 0-.5.3-.8.7-.9v-.5h.5v.5c.3.1.5.2.7.4l-.3.4z" class="AT"/></g><g class="AR AS"><path d="M417.2 103.5l-2.4-5.8-1.6 1.2c-1.3-.9-2.8-1.3-4.4-1.3h-.1c-2.1 0-4.1.8-5.6 2.3s-2.3 3.5-2.3 5.6c0 1.3.4 2.6 1 3.7h-.4s.2.1.5.1c1.3 2.4 3.9 4 6.9 4h.1c2.1 0 4.1-.8 5.6-2.3s2.3-3.5 2.3-5.6c0-.9-.2-1.8-.5-2.6l.9.7zm-3.6 7.4c.2-.3.3-.6.5-1 .2.1.2.2.3.2-.1.2-.3.4-.5.5 0 .1-.1.2-.3.3zm-3.3 1.7c.5-.6 1.1-1.9 1.5-3.6.9.2 1.5.5 1.9.6-.4 1-.8 1.6-1.1 2-.7.5-1.4.8-2.3 1zm-1.3.2v-4c.1 0 .1-.1.1-.1.9 0 1.7.1 2.3.2-.5 2-1.3 3.3-1.7 3.8-.2.1-.4.1-.7.1zm-4.1-1.1c-.2-.4-.7-1-1.1-1.9l.1-.1c.6.1 1.3 0 2-.1.4 1.5 1 2.5 1.4 3-.9-.1-1.7-.5-2.4-.9zm-1.7-1.6c.1-.1.1-.1.3-.2.2.4.3.7.5 1-.4-.2-.6-.5-.8-.8zm-1.7-4.4h1.2c.1 1.4.3 2.6.6 3.5-.2 0-.4.1-.6.1-.8-1-1.2-2.3-1.2-3.6zm2.2-5.5c-.1.2-.2.5-.4.8l-.2-.2c.1-.2.3-.4.5-.5 0 0 0-.1.1-.1zm10.8 5h-1.2c.4-.5.8-1.1 1.1-1.8.1.6.1 1.2.1 1.8zm-10.4 3.9c-.2.1-.4.1-.5.1-.3-.9-.5-2-.6-3.5h2.3c0 1.1.1 2 .4 2.9-.1 0-.1 0-.1.1-.7.1-1.1.2-1.5.4zm1.6-3.4h2.9v.9c-.8.7-1.6 1.3-2.6 1.8-.1-.8-.3-1.7-.3-2.7zm3.3-3c1 0 1.8-.1 2.5-.2 0 .1.1.2.1.4-.4.7-1 1.6-1.7 2.5h-.9v-2.7zm3.1-.8c-.1 0-.2.1-.3.1-.1-.3-.2-.6-.2-.8h.9c-.1-.1-.2.2-.4.7zm-3.1 3.8h.5l-.5.5v-.5zm2.2-5.4c-.4-1-.9-1.6-1.2-2 .9.2 1.8.5 2.6 1l-1.4 1zm-.3.3l-.6.5h.9l.3.9c-.6.1-1.5.2-2.5.2v-4.1h.5c-.1.1.8.9 1.4 2.5zm-2.3 4.7h-2.9c0-1.1.1-2 .3-2.8.7.1 1.5.2 2.5.2l.1 2.6zm-3.3 0H403c0-1.5.2-2.7.5-3.6.5.2 1.1.5 2 .7-.1.8-.2 1.8-.2 2.9zm6.5 1.6l-.2 1.6c-.5-.1-1.1-.2-1.6-.2.5-.3 1.1-.8 1.8-1.4zm.4-.4l.8-.8h1.6c0 1.5-.3 2.6-.6 3.6-.5-.2-1.1-.5-2-.7.1-.6.1-1.3.2-2.1zm-3.6-4.2c-.9 0-1.8-.1-2.5-.2.6-2.6 1.9-3.8 1.9-3.8v-.1c.2 0 .4 0 .5-.1v4.2h.1zm-1.2-4c-.5.5-1.2 1.8-1.7 3.7a8.84 8.84 0 0 1-2-.7c.4-.9.7-1.5 1-1.9.8-.6 1.7-.9 2.7-1.1zm-4.6 2.9c.1.1.2.2.4.2-.4 1-.6 2.3-.6 3.9h-1.1c0-1.5.5-2.9 1.3-4.1zm.4 8.4c-.1.1-.2.2-.3.2-.1-.1-.1-.2-.2-.3.2 0 .3.1.5.1zm3.1-.1a11.2 11.2 0 0 0 2.3-.6v3.9c-.2 0-.5 0-.7-.1-.4-.4-1.1-1.5-1.6-3.2zm8.3.3c-.1-.1-.2-.2-.4-.3.4-1 .6-2.3.6-3.8h1.2c0 1.4-.5 2.8-1.4 4.1zm.3-4.6c0-.9-.1-1.6-.2-2.3.1-.3.3-.6.4-.9l.2.1c.5.9.8 2 .8 3.1h-1.2zm-70.5-63.7h13.4c.1 0 .2 0 .2-.1v-.6c0-.1-.1-.1-.2-.1h-13.4c-.1 0-.2 0-.2.1v.6c-.1.1.1.1.2.1z" class="AU"/><path d="M357.8 41.9h-13.6a1.11 1.11 0 0 0-1.1 1.1v9.5a1.11 1.11 0 0 0 1.1 1.1h13.6a1.11 1.11 0 0 0 1.1-1.1V43c-.1-.6-.5-1.1-1.1-1.1zm.7 8h-4.3a1.11 1.11 0 0 1-1.1-1.1v-2.2a1.11 1.11 0 0 1 1.1-1.1h4.3v4.4zm-3.1-1a1.11 1.11 0 0 0 1.1-1.1 1.11 1.11 0 0 0-1.1-1.1 1.11 1.11 0 0 0-1.1 1.1c0 .5.4 1.1 1.1 1.1z" class="AU"/></g><g class="AV"><path d="M35.7 224.1c-1.8.5-2.9 2.5-2.3 4.4.5 1.5 1.3 3.5 2.8 5.7 3.6 5.7 6.4 13.2 9 13.2s3.6-4.7 1.2-10.8c-2.2-5.5-4.3-12.8-6.2-13.1-1-.2-2.9.2-4.5.6zm-1.4 23.6c-2-5.8-15.5 14-18.3 20.3s1 3.3 8-4.9c7-8.1 11-13.1 10.3-15.4z"/><path d="M47.1 244.1c-5.3-3.2-3.1 20.7-1.2 27.3 1.8 6.6 2.9 1.9 3.1-8.8.2-10.9.2-17.3-1.9-18.5zm-14.7-20.4c-1.9-.5-3.9.9-4.2 2.8-.2 1.6-.4 3.7.1 6.4.9 6.8.2 14.9 2.7 16.2s5.6-2.4 5.9-9.1c.4-6 1.6-13.5 0-14.7-.9-.6-2.8-1.2-4.5-1.6z"/></g><path d="M27.7 191.3c.1-3.7-.4-7.8 3-10.7 2.2-2.2 4.7-2 6.6-1.5 1.6.5 2.3 2.1 2.6 3.6.5 2.5 0 5-.3 7.4-.2 1.3-.2 2.6-.2 4 0 1.1.1 2 .2 3.1.1.8 0 1.5-.3 2.2-.4.9-1.1 1.3-2 1.3-1.5 0-2.9 0-4.3.1-.8.1-1.6.1-2.4.2-1.1.3-2.2.2-3.2-.2-1.6-.6-2.8-2-3.6-3.5.1.1 3.8-1.6 3.9-6z" class="Ad"/><g class="AV"><path d="M30.081 194.801l1.336-4.714 4.137 1.173-1.336 4.714z"/><path d="M33.3 191.8s2.6 1.7 3.5.9c.8-.7 3.5-5.4 2.5-8.6-.9-3.2-4.9-4.6-7.2-3.2-2.3 1.3-2.7 8.9-1.1 9.8l2.3 1.1zm-16.2 33.1c-1.4-.6-2.2 1.9-2.5 2.8-.4 1.4.2 3.3.8 3.5s1.3-3.1 1.5-3.2-.1 1.6.5 1.6c.5.1 1.1-2 1-2.9-.2-.9-.5-1.4-1.3-1.8zm14.8-28c-.8-.3-1.7.1-2.3.6-2.6 2.8-11.2 12.1-9.3 14.2 2.2 2.5 9.3-6.3 11.1-9.1 1.4-2.4 2.4-5.1.5-5.7z"/><path d="M23 209.4c.4.6.5 1.3.3 2-1.1 3.3-5 15.3-6.6 15.5-1.8.2 3.2-17.5 4.1-17.7.7-.3 1.5-.7 2.2.2z"/></g><path d="M27.5 198.7s-6.3 7.1-7.4 10.3c-1 2.8-2.4 8.7-2.4 8.7l3.4 1.1s2.2-6.9 2.5-7.3c.2-.4 6.1-5.6 7.7-8 1.5-2.5 3.2-5.6 1.2-7-2.3-1.6-5 2.2-5 2.2z" class="Ab"/><path d="M31.8 194.2c-1.4-.5-2.9.1-3.6 1.4a12.49 12.49 0 0 0-1.8 7.3c.5 5.5 3.5 6.4 3.5 12.1s-1.9 9.7-1.6 10.3 13.1 1.3 14-.2-2.1-6.9-2.1-11.4 1.6-5.3 1.3-8.8c-.4-3.5-4.1-5.7-6.4-8.4-.9-1.1-2.1-1.9-3.3-2.3z" class="AV"/><path d="M43.1 225.2s6.9 15.1 6.9 20.7-.8 24.6-.8 24.6l-4.3.1-1.9-22.4c-.4-1.1-12.8-12.5-12.8-22-.1-9.6 12.9-1 12.9-1z" class="Ac"/><path d="M27.6 225.3s-2 3.1-1.8 8.3c.3 5.2 3.2 13.2 2.5 14.7-.8 1.5-12.8 19-12.8 19l3.2 2.9s17.5-18.7 18.2-21.6c.8-2.8 3.9-19.8 3.9-22.7 0-2.8-13.2-.6-13.2-.6z" class="Ae"/><path d="M29.2 193.8c.4-.2.9-.2 1.3-.2 1.1.2 3.4.9 5.2 2.6 2.3 2.4 6.1 4.7 6.7 9 .5 4.3-1.8 5.2-1.1 10 .8 4.7 2.8 9.3 1.8 10-.9.7-3.5 1.3-7.4 1.2-4-.1-8.6-.1-8.5-1.3s2.8-6.7 1.9-11.2c-.9-4.6-2.9-8.3-2.9-12.8-.2-4.1 1.4-6.5 3-7.3z" class="Af"/><g class="AV"><path d="M56 216.8c-.3 1.3 2 1.6 2.8 1.6 1.3.1 2.9-.8 2.9-1.3.1-.5-2.9-.6-3-.7s1.3-.2 1.3-.7-1.9-.6-2.7-.3c-.6.3-1.1.6-1.3 1.4z"/><path d="M61.8 217.2c-.1.5-1.5 1.3-2.8 1.3 0-.7.1-1.7.1-1.9.9.1 2.7.2 2.7.6zm-31-18.4c-.5.7-.5 1.6-.1 2.3 1.8 3.3 8 14.4 10.5 13.3 3-1.3-3-10.8-5.2-13.4-1.7-2-4-3.8-5.2-2.2z"/><path d="M40 212.1c.5-.5 1.3-.6 1.9-.5 3.4.8 15.8 3.7 16 5.2.4 1.8-17.6-1.6-18-2.5-.2-.7-.8-1.5.1-2.2z"/></g><path d="M31.1 203.5s5.6 9.8 8.1 11.2c2.5 1.3 8.7 1.8 8.7 1.8l.8-3.3s-6.5-1.5-6.7-1.8c-.3-.3-3.3-7.6-5.2-9.8-1.8-2.2-4.3-4.8-6.3-3.3-2 1.4.6 5.2.6 5.2z" class="Ab"/><path d="M48.4 271.9s.8.9 2.6 2.2c1.8 1.2 2.2.9 2.3 1.3.1.5-7.1.5-7.1.5l-.1-4h2.3zm-31.3-1.3s-.1 1.3.3 3.4.9 2.2.6 2.6-5.3-4.7-5.3-4.7l2.8-2.9c0-.1 1.7 1.5 1.6 1.6z" fill="#343563"/><path d="M30.7 194.1h0l-.3-1.4c.2-3.7-1.5-7-1.5-7s2.2-5.4 3-5.9c.6-.4 3.8-.4 3.8-.4l3.7 2c0 .1-.4 1-1.2 1.8h0c-.2.2-.6.5-.9.6-1.6.8-3.9 2.1-3.7 4.5 0 .4.1.9.2 1.5.4 2.9.7 7.8-3.8 9.2-.2 0 .7-2.8.7-4.9z" class="Ad"/><g class="Ac"><path d="M62.5 226.5l-.4-.1c.6-2.6 1.1-6.2-.3-8.3-.6-.9-1.6-1.5-2.9-1.7h-.3c-3.2 0-6 7.7-6 7.8l-.3-.1c.1-.4 3.1-8.6 6.7-8 1.3.2 2.4.8 3.1 1.9 1.5 2.2 1.1 5.9.4 8.5z"/><path d="M61.4 226.3l-.4-.1c.6-2.6 1.1-6.2-.3-8.3-.6-.9-1.6-1.5-2.9-1.7-3.3-.5-6.3 7.7-6.4 7.7l-.3-.1c.1-.4 2.9-8 6.4-8h.4c1.3.2 2.4.8 3.1 1.9 1.6 2.2 1 5.9.4 8.6z"/><path d="M63.3 226.4l-4 19.9-15.3-3 .1-.2 6.6-19.4z"/></g><path d="M59.3 246.3l-1 .7-16.2-3.4 1.9-.5h.1l-.1.2z" fill="#00759d"/><path d="M50.7 223.7l-6.6 19.4H44l-1.9.5 6.9-19.4z" fill="#0088be"/><g class="Af"><path d="M55.2 225.4l-.4-.1c.1-.4 1-9 4.6-9.4 1.4-.1 2.5.2 3.5 1.1 1.9 1.8 2.3 5.5 2.3 8.3H65c0-2.7-.4-6.3-2.2-8-.8-.8-1.9-1.1-3.2-1-3.4.4-4.4 9.1-4.4 9.1z"/><path d="M54.1 225.4l-.4-.1c.1-.4 1-9 4.6-9.4 1.4-.1 2.5.2 3.5 1.1 1.9 1.8 2.3 5.5 2.3 8.3h-.4c0-2.7-.4-6.3-2.2-8-.8-.8-1.9-1.1-3.2-1-3.3.4-4.2 9.1-4.2 9.1z"/><path d="M66.1 225l.9 20.4-15.7.7v-.2l1.9-20.5z"/></g><path d="M67 245.4l-.9.9-16.5.5 1.7-.9v.2z" fill="#df2a22"/><path d="M53.2 225.4l-1.9 20.5-1.7.9 2-20.4z" class="Ab"/><g class="AV"><path d="M404.1 274c5.6-2.2 2.6 18.3.9 24.1-1.8 5.7-1.6 2.2-2.2-7.6s-.9-15.6 1.3-16.5zm-8.9-.5c5.8-1.4 1.4 18.8-.9 24.3-2.3 5.4-2.5 1.7-2.1-8.1.4-9.9.7-15.7 3-16.2z"/><path d="M391.1 294.1l-.2 7.3 3-.1 1.8-7.8zm10.4-.1l.9 7.4 2.9-.5.7-8.1zm1.7-44.8c2.1-.6 4.3.8 4.7 2.9.4 1.7.8 6 .8 9-.1 7.5.2 14.5-2.5 16s-6.3-2.4-7-9.7c-.7-6.6-2.6-14.7-.8-16.2.8-.8 2.9-1.5 4.8-2z"/><path d="M398.2 249.4c2-.1 3.7 1.6 3.9 3.8.1 1.8-.2 6-.7 8.9-1.2 7.3-2 14.1-4.7 14.9-2.7.9-5.3-3.7-4.9-10.9.4-6.6-.1-14.8 1.8-15.9.9-.5 2.9-.7 4.6-.8z"/></g><path d="M391.3 242.9l-1.6 53.4 6.7-.1s6.3-40.1 5.9-46.6c-.5-6.5-11-6.7-11-6.7z" class="Ab"/><path d="M408.8 247.6l-.3 26.9-1.4 21.8h-5.9s-4.3-41-4.5-50.9c-.1-9.9 12.1 2.2 12.1 2.2z" class="Af"/><g class="AV"><path d="M402.4 214.7c.3 1-.1 2-.8 2.8-3.4 3.2-15.1 13.5-17.6 11.2-2.9-2.8 7.9-11.4 11.4-13.5 2.8-1.7 6.2-2.9 7-.5z"/><path d="M387.2 227.3c.1-.9-.4-1.7-1.1-2.2-3.4-2.6-15.7-12.2-17.4-11.3-1.9 1.1 15.2 15.6 16.3 15.3 1-.3 2.2-.4 2.2-1.8z"/><path d="M364.7 210.8c.4-.5 2.7 1.4 3.5 1.9.1.1.2.1.2.1v-.1c-.1-.4-1.1-1.4-.7-1.8.4-.5 2.2 1 2.9 2 .1.1.1.1.1.2.6.9.7 1.6.2 2.6-.9 1.6-3.5-.3-4.3-.9-.7-.5-1.3-1.4-1.6-2.2s-.5-1.5-.3-1.8z"/></g><path d="M395.6 214.1s-9.7 7.4-10.6 7.5-10.8-6.1-10.8-6.1l-2.6 3.3s10.8 10.9 13.1 11 8.7-3.7 8.7-3.7l2.2-12z" class="Ac"/><path d="M404.5 210.6l-5.7 2.2-.4-3.6s-.2.1-.5.2c-.8.3-2.2.6-3.7-.5-.4-.2-.6-.6-.8-1.1-.3-.8-.4-1.8-.4-2.9v-.3c.1-2.8.8-5.9.8-5.9h-.1l.1-.1s2.9-.6 3.6.8c.5 1.1-.2 1.9.2 2.6.7 1 2.1-2.2 2.8-2s1.3 1.1.4 2.5c-1.3 2.1 3.2 3.1 3.2 3.1h.1l-.1.1.5 4.9z" class="AV"/><path d="M397.8 212.1c-1.1.6-2.9 1.9-4.3 4-2 3.1-3 16.8-3 22.1 0 3.3-.1 3.9.5 7.4 0 0 6.4 2.5 11 2.5 3.5.4 6.3.3 6.7-.2.6-.7.4-1.4.5-6.4s1-12.3 1.7-21.6c.4-5.4-2.3-7.7-4.2-9.2h-.1.1c-1.1-.8-1.9-1.3-2.2-1.4-1.1.9-2.8 2-5.8 2.3h0c-.1.1-.5.3-.9.5m-1.1 2.7h0zm-.8 2.2h0z" class="Ae"/><g class="AV"><path d="M408.3 213.9c.9.5 1.3 1.5 1.3 2.6-.3 4.6-1.6 20.2-5 20.2-4 0-2-13.7-1-17.6.9-3.2 2.5-6.4 4.7-5.2z"/><path d="M405 233.5c-.6-.6-1.6-.7-2.4-.5-4.2 1.1-19.2 5.2-19.5 7.1-.4 2.2 21.6-2.8 22-3.9.4-.8 1-1.8-.1-2.7z"/></g><path d="M409.9 214c-1-1.1-2.7-1.3-4-.6-1.2.7-2.5 2.3-3.1 5.8-1.3 7.1-1.1 12.7-1.5 13.1s-14.5 5-14.5 5l1 3.9s17-1 18.9-4.2 3.3-10.9 3.9-15.8c.3-3.6.6-5.8-.7-7.2z" class="Ac"/><g class="Ae"><use xlink:href="#H"/><use xlink:href="#H" x="11.2"/></g><path d="M387.5 236l-2.5-10.1-14.2-1.3 3.5 12.9 14.2 2.6-1-4.1zm-9.5-3.8c-.2-.7 0-1.3.5-1.5s1 .3 1.2 1 0 1.3-.5 1.5c-.4.1-.9-.3-1.2-1z" class="AT"/><path d="M378.6 230.8c-.5.1-.7.8-.5 1.5s.8 1.1 1.2 1c.5-.1.7-.8.5-1.5s-.8-1.2-1.2-1zm8.9 5.2l1 4.2 8-3z" fill="#c4b9a1"/><path d="M388.5 240.2l-14.2-2.6v.6l14.2 2.5c0 .1 0-.5 0-.5v.6l8-3v-.6" fill="#f8f6f5"/><path d="M386 240.5c-.1 0-.2-.1-.3-.1s-.3-.1-.4-.1-.3 0-.4-.1c-.1 0-.1-.1-.1-.1l-.1-.1c-.2-.1-.4-.1-.6-.2-.2-.2-.2-.4-.3-.6v-.1a1.96 1.96 0 0 0-.9-.9c-.5-.2-1.2-.1-1.6.2-.4.2-.3.6-.2.9.2.5.4.9.8 1.2.4.2.8.4 1.3.5.2.1.5.1.8.1.2 0 .5-.1.8-.1s.5-.1.7-.2a.55.55 0 0 0 .5-.3c-.1 0 0 0 0 0z" class="AV"/><path d="M406.6 200.1h0c.1-.2.2-.4.2-.8 0-.2-.1-.4-.2-.6-.4-.5-1.5-.5-1.6-1s.2-.8.4-1.2h0c.1-.2.1-.5-.1-.9-.6-1.1-2.2-.7-2.7-1.1s0-1.5-1-1.8-1.6.7-2.5.5-1.4-1.5-2.3-1.3c-.9.1-1.2.8-1.8 1-.3.1-.6.2-1 .4-.3.1-.6.3-.8.6 0 .1-.1.1-.1.1v.1c0 .1 0 .1-.1.1v.4c0 .3.1.5.1.8 0 .1 0 .2-.1.3-.1.2-.3.3-.4.5-.2.2-.3.5-.2 1 .1 1 1.1 1.4 1.1 1.4h0l.1.1.1-.1s2.9-.6 3.6.8c.5 1.1-.2 1.9.2 2.6.7 1 2.1-2.2 2.8-2s1.3 1.1.4 2.5c-1.3 2.1 3.2 3.1 3.2 3.1h.1c.1-.2.4-.5.8-1.1h0c.4-.2 1.1-.5 1.5-1.1.5-.6.1-1.1-.1-1.6-.1-.1-.1-.2-.1-.4-.1-.1-.1-.2-.1-.4s.4-.4.6-.9z" class="Ad"/><path d="M96 305.9s-.9 1.6-1.4 2.2c-.6.6-2.7 1.8-2.7 3.6 0 2 3.6 1.5 5 1.4s1.5-1.2 2.1-2.3c.6-1.2 1.2-.9 1.3-1.9.1-.9-.6-3-.6-3H96z" fill="#202338"/><path d="M99.6 305.3s.2.9.1.9-4 .7-4 0c0-.6.4-1.2.4-1.2l3.5.3z" fill="#81807e"/><path d="M111.9 215l-5.8-5.2 3.3-2.8 5.2 5.4z" fill="#51578c"/><path d="M111.7 214.4l-5-4.5 2.9-2.4 4.5 4.8z" fill="#3e3b42"/><g fill="#e3a080"><path d="M115.2 215.1s-.9-.2-.6-1.2c.2-1-.1-1.2-.1-1.2l-3 2.8s1.5 1.3 1.9 1.4c.4 0 2.2-1.3 1.8-1.8z"/><path d="M111.4 215.4s-1.9-1.1-2-1.3c-.2-.2-1-.9-1.3-1.3-.4-.5 1.1-.5 1.5 0s.8.5 1.1.6 1.8.4 2 .8c.3.5-1.3 1.2-1.3 1.2zm2.5-3.3s-.2.3-.4-.1c-.2-.3-.2-1.1.3-.9.4.2.1 1 .1 1zm-.6-1s-.1.5-.4.3-.5-1.2-.1-1.1c.5 0 .5.8.5.8zm-.8-.8s0 .6-.4.5c-.2-.1-.6-1.3-.1-1.3s.5.8.5.8z"/></g><path d="M112.5 216.7l2.8-2.5 11.4 9.4c1.7 1.2-2 4.6-3.4 4.3-3.9-1.1-10.4-1.3-13.9-3.2-5.3-2.9-1.9-8-.2-7.5 1.6.5 7.8 3.8 7.8 3.8l-4.5-4.3z" class="AX"/><path d="M117.3 305.6s1.8 1.9 3.5 2.3 3 .9 3 2-5.1 1.9-7.1.7c-3-1.7-3.3-1.2-3.6-2-.4-.8.4-3.1.4-3.3 0-.3 3.8.3 3.8.3z" fill="#202338"/><path d="M117.1 304.7l.2.9s-4 .5-3.9-.2l.2-1.2 3.5.5z" fill="#81807e"/><path d="M113.6 250.3s1.4 13.9 2.2 18.7c.9 5.6 1.2 10.2 1.4 13.1.3 3.6.4 21.5.6 22.5.2 1.1-4.7.3-4.7.3l-3.3-27.2c-.8-3.6-4-19.1-4.7-18.1-.8 1-1.8 18.1-2.3 20.9-.6 2.8-2.3 25.1-2.3 25.1s-3.9.8-5-.1c0 0-.5-19.1-.1-24.5.1-2-2.4-24.3.8-33.3 1.4-4.8 17.4 2.6 17.4 2.6z" class="Aa"/><path d="M89 252.2s2.4.8 3.5.5c1-.2.5-12.6.5-15.2.1-2.1 1.2-7.6 1.2-7.6h0c.1.4 1.6 6.1 1.7 8.9.1 2.9-.4 13.8-.4 13.8l3.9 1.8 13.3.4h1.9l-.4-8.7c-.1-1.4-.4-3.9-.3-6.4 0 0-.1-2.6.2-3.7 0-4.9.4-9.8.4-9.8.2-2.2.3-4.3.4-6.3-.5-.3-1.2-.6-1.7-.9-1.6-.8-3.9-1.8-5.3-2.5-.8-.4-1.6-.6-1.6-.6l-6.2-.5c-.2 0-.9.2-1.8.6-2 .8-6 2.3-6.6 2.8-.9.6-2.9 16.3-2.9 17.4-.5 2 .2 16 .2 16z" fill="#e8734d"/><path d="M99.9 215.4c.4 3.9 4.7 3.9 4.7 3.9s1.8-1.6 1.7-2.7v-.1c0-.2-.3-.5-.3-.9v-.4c0-.3 0-.6.1-.8v-.3l-1.6-1.6c-1.5-1.5-3.7-3.5-3.7-2.7v.2c.5 1.8-.9 5.4-.9 5.4z" class="AW"/><g fill="#b57343"><path d="M88.2 260.2s.2-3.1 1.1-3.6c.8-.5.4.5.4.5l-.6 3.2c-.1 0-.9-.1-.9-.1z"/><path d="M96.4 262.4l-10.9-3.2-.1 13.4 10.7 6.7z"/><path d="M96.1 279.3l-1.4.2-10.5-6.7.4-13.6h.9z"/></g><path d="M102.9 217.7l1.8 1.6s-2-.1-2.5-.5l.7-1.1z" fill="#a09ea6"/><path d="M114.2 252.8s-8.4.7-15.8 0v2.4s11.1 1.6 16.2-.5l-.4-1.9z" class="Aa"/><path d="M107 216.3s1.3 3.2 2.4 10.4c.4 2.8 1.1 7.4 1.6 12.2h0c.4 3.7 1.4 7.6 1.7 10.4L114 261l2.3-1.5c.4-.3.8-.7.6-1.1-.6-2-1.8-8.8-2.6-14.7h0c-.1-.3-.1-.6-.1-.8v-.1c-.1-1.2-.2-2.3-.4-3.3-.1-.8 0-1.6.1-2.3l.5-10.8c.2-2.3.3-4.4.4-6.4-.5-.2-1.2-.8-1.8-1l-3.6-1.6c-.6-.3-1.2-.4-1.7-.6l-.7-.5zm-13.9 21.4c-.2 2.4.8 15.7-.2 15.9s-4.7-.6-4.7-.6-.5-14.3-.3-15.8c.1-1.1 1.9-17.5 2.8-18.2.5-.4 4.5-1.8 6.4-2.5.4-.1 1.5-.6 1.8-.7.4.5 4 8.8 4.3 15.3.1 2-.4 6.1-.7 9.6l-1.1 9.5-1.1 10.8-6-2.7c-1-.5-2.3-2.5-1.9-3.5 1.4-3.9 3.1-10.5 3.1-13.9 0 0-.6-8.3-1.2-10.2 0 .1-.9 3.9-1.2 7z" class="AX"/><path d="M92 253.4l.7 2.7c.4 1.4.8 1.8.6 2.5-.1.6-.8 1-.9.8-.2-.2-.2-2.4-1.1-2.5-.9 0 .2 2.8-.3 2.6s-2.6-1.4-2.5-2.5c.2-1.1 1-1.9 1-3.6 0-1.5.5-2.2.5-2.2l2 2.2z" class="AW"/><path d="M91.3 256.9s1.2.4 1.1 4.5l-1.4-.2s.1-2.3-.4-3.6c.1 0 .1-.8.7-.7z" fill="#b57343"/><path d="M93.3 244.4l-.1 10.6s-2.1-.1-5-1.2l-.2-14.9 5.3 5.5z" class="AX"/><path d="M106.6 218s.2 2.2-1.7 2.2c-1.9.1-3.3-1.8-3.3-1.8l3.1.8 1.9-1.6v.4z" fill="#cac7d1"/><path d="M100.2 214.7s1.8 2.3 2.7 3l-1.5 2.5-2.6-4.5 1.4-1z" fill="#eae6f2"/><path d="M106.2 218.1l-1.6 1.2s1.4-2.6 1.4-3.7l.2 2.5z" fill="#a09ea6"/><path d="M106.1 215.6l1 .8 1.1 3.4-2-1.7z" fill="#eae6f2"/><path d="M111.1 204.2s1.1 2.8.4 3c-.6.3.4 2.9.5 3.4s-1.1.6-1.4.8-1.4 3.5-2.4 3.5-5.3-2-6.4-3.4-1.5-7.2-.4-9.5c1.1-2.2 7.7-2.5 9.7 2.2z" class="AW"/><path d="M111.4 204.8s1.7-2.6-.6-5-7.6.8-8.1.9-3.9.8-2.7 5.7l1.1 4.5s1.3-2.3 1.9-2.7c.9-.5 2.9-.2 2.9-.2s-.6-2.5.8-2.7c1.3-.1 3.2-1.1 4.7-.5z" fill="#754836"/><path d="M104.3 206.5c-.1-.4-.4-1.8-1.6-1.1-1.3.7.4 3.6.6 3.7.1.1 1.8.3 1-2.6z" class="AW"/><path d="M102 211.8c.1.1 1 2.5 4 3.6v-.2c0-.3 0-.6.1-.8v-.2c0 .1-3.2-1.4-4.1-2.4z" fill="#a77860"/><g class="AR AS"><path d="M248.2 44l-.6 2.4.8 1.9.8-1.9-.6-2.4s.2-.1.6-.9c-.4-.4-1.3-.4-1.7 0 .5.8.7.9.7.9zm.2-10.4c2 0 3.7 2 3.7 4.6h.5c0-2.8-1.9-5.1-4.2-5.1s-4.2 2.3-4.2 5.1h.5c.1-2.6 1.7-4.6 3.7-4.6z" opacity=".21"/><path d="M244.2 36.9c-.4 0-.6.3-.6.6v1.2c0 .4.3.6.6.6h.6v-2.5l-.6.1zm9.4 6.5c-.8-.2-1.7-.3-2.6-.4h0l-.1.2-2.5 5.8-2.6-6-2.6.4c-1.3.4-3 .9-3 2.6v5.3s.4.4 1.6.4 1.5-.4 1.5-.4V49c0-.2.2-.4.4-.4s.4.2.4.4v3s1.3.8 4.2.8 4.4-.8 4.4-.8v-3c0-.2.2-.4.4-.4s.4.2.4.4v2.3s.7.4 1.6.4 1.4-.4 1.4-.4V46c.1-1.2-1.6-2.2-2.9-2.6zm-1.3 4.8H250v-.9h2.3v.9zm.5-9.2l-.4-.2-.8 1.6h-2c-.1-.2-.4-.4-.7-.4-.4 0-.8.2-.8.6 0 .3.4.6.8.6.3 0 .6-.1.7-.4h2.2l1-1.8z" opacity=".21"/></g><g opacity=".21" class="AR"><path d="M248.9 40c-.4 0-.8.2-.8.6 0 .3.4.6.8.6.3 0 .6-.1.7-.4h1.3c.1-.2.2-.3.3-.5h-1.6c-.1-.2-.4-.3-.7-.3z"/><path d="M249.7 41.1c-.2.2-.5.4-.8.4-.6 0-1-.4-1-.8 0-.5.5-.8 1-.8.4 0 .6.1.8.4h1.6c.3-.6.4-1.2.4-1.9 0-2.2-1.5-4-3.3-4s-3.3 1.8-3.3 4 1.5 4 3.3 4c.9 0 1.7-.4 2.3-1.1l-1-.2z"/></g><path d="M252.8 36.9h-.6v2.5h.6c.4 0 .6-.3.6-.6v-1.2c0-.4-.3-.7-.6-.7z" class="AR AS AU"/></svg>