<svg xmlns="http://www.w3.org/2000/svg" xmlns:xlink="http://www.w3.org/1999/xlink" width="445" height="300" xmlns:v="https://vecta.io/nano"><style><![CDATA[.z{fill:#af835b}.AA{fill:#e9a056}.AB{fill:#ffc064}.AC{fill:#827cdc}.AD{fill:#ea8237}.AE{fill:#fff}.AF{fill:#3d38a0}.AG{opacity:.3}.AH{fill:#ed9c80}.AI{fill:#b0affd}.AJ{fill:#4444ad}.AK{stroke:#fefefe}.AL{fill:#5146af}.AM{fill:#2c1e56}.AN{fill:#0a0a0a}.AO{stroke-width:.254}.AP{fill:#ffbfae}.AQ{fill:#ffae43}.AR{stroke-width:.127}]]></style><path d="M420.3 247.4c0 2.8-67.6 5.1-150.9 5.1s-150.9-2.3-150.9-5.1 67.6-5.1 150.9-5.1 150.9 2.3 150.9 5.1zm-120.7 23c0 2-58.9 3.7-131.6 3.7s-131.6-1.6-131.6-3.7c0-2 58.9-3.7 131.6-3.7s131.6 1.7 131.6 3.7z" fill="#e1e1fe"/><path d="M318.4,17.5v218.3c0,6.1-4.9,11-11,11h-96.7c-6.1,0-11-4.9-11-11V17.5c0-6.1,4.9-11,11-11h96.7      C313.5,6.5,318.4,11.4,318.4,17.5z" class="AC"/><path d="M318.4 17.5v8.9H199.6v-8.9a10.97 10.97 0 0 1 11-11h96.7c6.2 0 11.1 4.9 11.1 11zm0 209.4v2.8c0 9.5-7.7 17.1-17.1 17.1h-84.5c-9.5 0-17.1-7.7-17.1-17.1v-2.8h118.7zm0-171.5h3.2v45.4h-3.2zm-121.8-.8h3v22.1h-3zm.4 32.6h2.6v13.6H197z" class="AF"/><path d="M241.1 14c2.8 3.6-1.3 7.7-5 5-2.7-3.7 1.4-7.8 5-5zm8.2 2.5a1.6 1.6 0 1 1-3.2 0 1.58 1.58 0 0 1 1.6-1.6c.9-.1 1.6.7 1.6 1.6zm4.1-2h31.2v4h-31.2zm10.5 217.6c5.1 6.9-2.6 14.6-9.5 9.5l-.2-.2c-5.1-6.9 2.6-14.6 9.5-9.5l.2.2z" class="AE"/><path d="M202.2 26.5h112.6v200.4H202.2z" fill="#eff2f4"/><path d="M307.9 271.1c0 1 9.7 1.8 21.6 1.8s21.6-.8 21.6-1.8-9.7-1.8-21.6-1.8-21.6.8-21.6 1.8zm-200.1 22.6c0 1 9.7 1.8 21.6 1.8s21.6-.8 21.6-1.8-9.7-1.8-21.6-1.8c-12 0-21.6.8-21.6 1.8z" opacity=".25" class="AI"/><g class="z"><use xlink:href="#B"/><use xlink:href="#C"/><use xlink:href="#D"/><use xlink:href="#E"/></g><use xlink:href="#B" x="1.3" class="AA"/><use xlink:href="#C" x="1.3" class="z"/><use xlink:href="#D" x="1.3" class="AA"/><use xlink:href="#E" x="1.3" class="AD"/><g class="z"><use xlink:href="#B" x="-11.6" y="-21.6"/><use xlink:href="#C" x="-11.5" y="-21.6"/><use xlink:href="#D" x="-11.5" y="-21.6"/><use xlink:href="#E" x="-11.6" y="-21.6"/></g><use xlink:href="#B" x="-10.3" y="-21.6" fill="#d38c4c"/><use xlink:href="#C" x="-10.2" y="-21.6" class="z"/><use xlink:href="#D" x="-10.2" y="-21.6" fill="#d38c4c"/><use xlink:href="#E" x="-10.3" y="-21.6" class="AD"/><path d="M274.5 270.4L190 249.6l-9.5-6.2L288 270.2z" class="AF"/><path d="M115.7 164h97.2v84.2h-97.2z" class="AC"/><path d="M40.1 228.3c1.7 3.2.4 7.2-2.9 8.9-3.2 1.7-7.2.4-8.9-2.9-1.7-3.2-.4-7.2 2.9-8.9 3.3-1.6 7.2-.4 8.9 2.9z" class="AF"/><path d="M110.1 176v2.3l-.3 30.8-58.8.3.1-.1.1-.2.1-.1 22.1-31c.6-.8 1.4-1.3 2.4-1.4l30.6-3.6a3.36 3.36 0 0 1 3.7 3z" class="AC"/><path d="M110 176.9v1.4c0-.8-.5-1.7-1.1-2.2s-1.3-.8-2.1-.7L77.1 179c-1 .1-2 .7-2.6 1.6L54.2 209l-.5-.1 20.4-28.7c.7-1 1.7-1.6 2.9-1.7l29.7-3.5c.9-.1 1.8.2 2.5.8.4.3.7.7.8 1.1z" class="AJ"/><path d="M105.7 180.7v28.2H61.9v-3.4c0-1 .3-2 .9-2.8l13.3-19.8c.8-1.1 2-1.9 3.3-2l4.5-.5 18.8-2.2c.7-.1 1.4.1 1.9.5.7.3 1.1 1.1 1.1 2z" fill="#b9c9ef"/><path d="M110.1 209v45.4H54.6c-5.4 0-21.2-.4-21.2-.4v-23c0-10.8 7.2-19.8 16.8-21.8h0c.3-.1.6-.1.9-.2h59z" class="AC"/><path d="M102.5 215.2h-6.7c-1 0-1.7-.8-1.7-1.7h0c0-1 .8-1.7 1.7-1.7h6.7c1 0 1.7.8 1.7 1.7h0c0 .9-.8 1.7-1.7 1.7z" class="AF"/><path d="M104.2 213.4c0 .5-.2.9-.5 1.2s-.8.5-1.2.5h-6.7c-1 0-1.7-.8-1.7-1.7 0-.2 0-.4.1-.6.2.7.9 1.1 1.6 1.1h6.7c.5 0 .9-.2 1.2-.5.2-.2.3-.4.4-.6.1.2.1.4.1.6z" fill="#262691"/><path d="M97.6 178.6l-21.1 30.2H64l19.9-28.6zm8.1 2.1v5.2l-16 22.9h-6.3l21.2-30.3c.7.5 1.1 1.3 1.1 2.2zm0 11.5v16.7H94.1z" opacity=".5" fill="#8eb9bf"/><path d="M35.1 252.5h-3.3c-2.8 0-5.1-2.3-5.1-5.1h0c0-2.8 2.3-5.1 5.1-5.1h3.3c2.8 0 5.1 2.3 5.1 5.1h0c0 2.8-2.3 5.1-5.1 5.1z" fill="#a4a4f7"/><use xlink:href="#F" class="AN"/><g class="AF"><path d="M214.1 254.3h-180c-1.6 0-2.8-1.3-2.8-2.8v-1.3c0-1.6 1.3-2.8 2.8-2.8h180c1.6 0 2.8 1.3 2.8 2.8v1.3c.1 1.6-1.2 2.8-2.8 2.8z"/><use xlink:href="#F" x="-104"/></g><circle cx="77.7" cy="255.2" r="15" class="AC"/><circle transform="matrix(.7071 -.7071 .7071 .7071 -157.6705 129.6536)" cx="77.7" cy="255.2" r="11.4" fill="#fefefe"/><circle cx="77.7" cy="255.2" r="8.3" class="AC"/><circle cx="77.7" cy="255.2" r="7.6" fill="none" class="AK AO"/><use xlink:href="#G" fill="#a4a4f7"/><circle cx="77.7" cy="255.2" r="1.5" class="AC"/><circle cx="77.7" cy="255.2" r="1.9" fill="none" class="AK AR"/><circle cx="181.8" cy="255.2" r="15" fill="#173a2c"/><circle transform="matrix(.7071 -.7071 .7071 .7071 -127.1839 203.2548)" cx="181.8" cy="255.2" r="11.4" fill="#fefefe"/><circle cx="181.8" cy="255.2" r="8.3" class="AN"/><circle cx="181.8" cy="255.2" r="7.6" fill="none" class="AK AO"/><use xlink:href="#G" x="104.1" fill="#81172b"/><path d="M178.4 256c-.1-.3-.1-.6-.1-.9 0-.5.1-.9.2-1.3m2.6 4.8c-.8-.2-1.6-.6-2.1-1.3m5.1.5c-.4.4-1 .7-1.6.8m2.8-3.4c0 .6-.2 1.2-.5 1.8" fill="none" stroke="#0a0a0a" stroke-linecap="round" stroke-miterlimit="10" class="AO"/><path d="M183.3 255.2a1.54 1.54 0 0 1-1.5 1.5 1.54 1.54 0 0 1-1.5-1.5 1.54 1.54 0 0 1 1.5-1.5c.8-.1 1.5.6 1.5 1.5z" class="AN"/><circle cx="181.8" cy="255.2" r="1.9" fill="none" class="AK AR"/><use xlink:href="#H" class="AA"/><use xlink:href="#I" class="z"/><use xlink:href="#J" class="AA"/><path d="M259.6 197.2l-2.3 9.2-.3-1.1-.8.8-.4-1.1-.8.8-.4-1-.8.7-.3-1-.8.7 2.2-9.2z" class="AD"/><use xlink:href="#H" x="-9.461" y="30.682" class="AA"/><use xlink:href="#I" x="-9.434" y="30.59" class="z"/><use xlink:href="#J" x="-9.395" y="30.606" class="AA"/><path d="M250.2 227.8l-2.3 9.2-.4-1.1-.8.8-.3-1-.8.7-.4-1-.8.7-.4-1-.8.7 2.3-9.2z" class="AB"/><g class="z"><use xlink:href="#H" x="16.122" y="37.009"/><use xlink:href="#I" x="16.145" y="36.911"/><use xlink:href="#J" x="16.209" y="36.904"/><path d="M275.8 234.1l-2.3 9.2-.4-1-.8.7-.3-1-.8.7-.4-1-.8.7-.3-1-.8.7 2.2-9.2z"/></g><use xlink:href="#H" x="18.047" y="37.474" class="AB"/><use xlink:href="#I" x="18.07" y="37.376" class="z"/><use xlink:href="#J" x="18.1" y="37.406" class="AB"/><path d="M277.7 234.6l-2.3 9.2-.4-1.1-.8.8-.3-1.1-.8.8-.4-1-.8.7-.4-1-.8.7 2.3-9.2z" class="AD"/><g opacity=".2" fill="#989898"><use xlink:href="#K"/><use xlink:href="#K" x="15.4"/><use xlink:href="#K" x="30.9"/><use xlink:href="#K" x="46.4"/><path d="M197.4 236.9H193a1.79 1.79 0 0 1-1.8-1.8v-57.9a1.79 1.79 0 0 1 1.8-1.8h4.4a1.79 1.79 0 0 1 1.8 1.8v57.9a1.79 1.79 0 0 1-1.8 1.8z"/></g><path d="M183 221.8v14.3l-.7-1.4-.7 1.4-.8-1.4-.7 1.4-.7-1.4-.8 1.4-.7-1.4-.7 1.4v-14.3z" class="z"/><path d="M162.673 222.822l39.2-.045.054 47.4-39.2.045z" class="AA"/><path d="M162.595 222.822l39.2-.045.01 8.6-39.2.045z" class="z"/><path d="M161.695 221.823l40.5-.046.01 8.6-40.5.046z" class="AA"/><path d="M185.4 221.8v14.3l-.7-1.4-.8 1.4-.7-1.4-.7 1.4-.8-1.4-.7 1.4-.7-1.4-.8 1.4v-14.3z" class="AB"/><g class="z"><path d="M140.456 269.89l.032-27.9 28.5.032-.032 27.9z"/><path d="M140.526 247.059l.006-5.1 28.5.032-.006 5.1z"/><path d="M169.677 246.514l-29.5-.034.006-5.1 29.5.034z"/><path d="M152.5 241.4v8.4l.5-.8.5.8.6-.8.5.9.5-.9.6.9.5-.9.5.9v-8.5z"/></g><path d="M138.727 269.957l.032-27.9 28.5.032-.032 27.9z" class="AB"/><path d="M138.797 247.026l.006-5.1 28.5.032-.006 5.1z" class="z"/><path d="M168.015 246.511l-29.5-.033.006-5.1 29.5.033z" class="AB"/><path d="M150.7 241.4v8.4l.6-.8.5.8.5-.8.6.8.5-.8.5.9.6-.9.5.9v-8.5z" class="AD"/><path d="M110.1 209v.3H50.2c.3-.1.6-.1.9-.2l.1-.1h58.9z" class="AJ"/><g opacity=".5"><path d="M67.1 203.5v7.1c0 .9-1.1 1.2-1.6.5l-1.2-1.9a4.21 4.21 0 0 1 .2-4.9l1-1.3c.5-.8 1.6-.4 1.6.5z" fill="#020202" class="AG"/><g fill="#020202" class="AG"><use xlink:href="#L"/><path d="M60.601 208.92l5.117-3.321.925 1.426-5.117 3.321z"/><path d="M62.6 211.2c-.1.3-.2.5-.4.7-.3.3-.8.5-1.3.5h-3a1.79 1.79 0 0 1-1.8-1.8c0-.5.2-1 .5-1.3l.3-.3c-.1.2-.1.4-.1.6a1.79 1.79 0 0 0 1.8 1.8h3c.4.1.8 0 1-.2z" opacity=".5"/></g></g><g fill="#5858c4"><path d="M61.193 208.891l5.117-3.321.925 1.426-5.117 3.321z"/><path d="M67.7 203.5v7.1c0 .9-1.1 1.2-1.6.5l-1.2-1.9a4.21 4.21 0 0 1 .2-4.9l1-1.3c.4-.8 1.6-.4 1.6.5z"/></g><path d="M67.7 210.9c-.2.7-1.2 1-1.6.3l-1.2-1.9a4.21 4.21 0 0 1 .2-4.9l1-1.3c.2-.2.4-.3.6-.4l-.7 1c-1.1 1.5-1.1 3.4-.2 4.9l1.2 1.9c.1.2.4.4.7.4z" class="AJ"/><use xlink:href="#L" x="0.6" fill="#5858c4"/><path d="M63.2 211.2c-.1.3-.2.5-.4.7-.3.3-.8.5-1.3.5h-3a1.79 1.79 0 0 1-1.8-1.8c0-.5.2-1 .5-1.3l.3-.3c-.1.2-.1.4-.1.6a1.79 1.79 0 0 0 1.8 1.8h3c.4.1.7 0 1-.2z" class="AJ"/><path d="M329.1 191.6c-1.3 2.6-1.6 8.2-3 10.8-.7 1.3-6 8.6-9.9 12.1-.5-1.3-3.2.2-2.4-.9 2.5-3.6 7.3-7.7 7.9-13.3.4-3.7 3.2-12.3 3.2-12.3" fill="#d8826a"/><path d="M341.1 272.2c1.7-.1 3.5-1.1 4.2-1.2l2.8-.6c.5-.1-.4-3-1.1-3.1 0 0-.1.1-.4.3-.4.2-1.1.5-2 .4-1.1 1-1 1.3-2.3 2.1-.6.3-1.2.8-1.6 1.2-.5.5-.6 1 .4.9z" class="AL"/><path d="M346.6 266s.3 1.2.5 1.4c-1.3 1.5-2.5.7-2.5.7v-.2l-.3-1.5 2.3-.4z" class="AH"/><path d="M316.3 271.5c1.7.4 3.6.1 4.4.2.6.1 2.4.3 2.9.3s.6-3-.1-3.3c0 0-.2.1-.4.1-.4.1-1.1.1-2-.2-1.3.6-1.4.9-2.9 1.3-.6.1-1.4.4-1.9.7-.7.2-1 .6 0 .9z" class="AL"/><path d="M323.5 267.4s-.1 1.2 0 1.5c-1.8 1-2.6-.1-2.6-.1l.1-.2.2-1.5 2.3.3z" class="AH"/><g class="AL"><path d="M338.9 220.9s3.6-7.4-1.5-13.2c0 0-4.8 1.8-8.6 1.8-3 0-4.5-.4-4.5-.4s-1 5.5-1.2 14.1l15.8-2.3zm-11.4 25.2c0 7.4-2.6 16.9-3.5 22.3h-.3c-2-.1-3.1-.4-3.1-.4v-.6c.7-8.7.5-22.9.6-27.4 0-.3 0-.6.1-.9.5-3.3 3.9-2.6 5.1.5a9.83 9.83 0 0 1 .5 1.6c.1.2.1.5.1.7h0l.3 2.4v.9c.2.4.2.7.2.9z"/><path d="M332.7 224c0 .1 0 .2-.1.3-.8 3.2-3 10.7-4.5 15.2h0c-.4 1-.7 1.9-.9 2.6h0c-.1.3-.5.6-.9.8-.2.1-.4.2-.7.2-1.7.4-4.2-.4-4.2-3.8 0-.4 0-.8.1-1.2.4-2.7 2-18 2.2-19.4.2-1.5.6-3.6 1.4-3.8 3.9-1.2 8.9 3.6 7.6 9.1z"/><path d="M327.3 240.8l.8-1.3c-.1.3-.7 2.6-.7 5v1.7c-.1.6-1-2.6-1.2-3.3v-.1l.8-1.4.3-.6z"/></g><path d="M332.6 224.3c-.8 3.2-3 10.7-4.5 15.2-.1.3-.7 2.6-.7 5v1.7c0 7.4-2.6 16.9-3.5 22.3h-.3s1-8.8 2.2-14.9c.9-4.7.1-8.8-.4-10.4-.1-.5-.2-.8-.2-.8l1.1-2.6c1.3-3.4 1.8-11.5 1.8-11.5-2.2-5.9-2.1-13.1-2.1-13.1l2.2.4 3.7 5 .7 3.7z" opacity=".5" fill="#013651"/><g class="AL"><path d="M339.4 240.3c-2.5-2.6-6.2-1.7-4.7 2.2 1.6 4.2 6.5 15.9 9 24.2l.2.5s1.2-.1 3.3-.8c-1.1-5.4-1.6-14.5-4.2-21-.9-2-2.3-3.8-3.6-5.1z"/><path d="M326.2 215.1c-.1-6.1 7.2-1.6 10.7.6 1.5.9 1.9 2.7 2 4.3l1.2 21.2c.5 6.8-5.2 2.7-5.6.8-1.1-4.8-8.3-23.6-8.3-26.9z"/><path d="M339.9 237s0 3.2 2.5 7.4l-4.5-2.6c-.2-.3-.8-3.5-.7-3.8.1-.4 2.7-1 2.7-1z"/></g><path d="M322.2 167.7s-1.2 10.9 7.1 8.6c.4.1 2.9-.6 3.3-3.9s-1.5-6.8-1.7-6.9-5.3-.3-5.5-.3c-.3.1-3.2 2.5-3.2 2.5z" class="AH"/><path d="M329.1 170.5s-1.3-.6-.9-2.3c.3-1.7.1-1.8-1.2-1.1s-7.6 4.2-6.5-3.9c.7.4 3 .4 3.5-.6s5.9-3.7 7.9.3c1.4.1 3 1.7 2.9 4.9-.2 3.2-1.3 7.3-2.5 7.5s-1.8-.7-1.8-2.2c.1-.8 2.4-1.8.7-4.2-.7-.8-2.8-.2-2.1 1.6z" class="AM"/><path d="M330.7 175.4s-.2 2.3.5 3.3c-1.7 1.4-4.9 1.1-4.9 1.1s1-1 0-4.3 4.4-.1 4.4-.1z" class="AH"/><path d="M321.3 193.1s2.3 1.8 3.9 1.9l-.9-9.9-3 8z" class="AE"/><path d="M321.3 193.1s2.3 1.8 3.9 1.9l-.6-10-.2.1c-.4 1.3-1.2 4-1.1 6.7v1.8c0 .4-1.2-.2-2-.5z" class="AG AI"/><path d="M323.1 208.8s.1 0 .3.1c1.3.5 7 2.3 14-1.3l.9-.5s-1.1-2.6-1.4-10.1c-.2-7.5 0-8.4-1.3-12.1-1.1-3.3-4.7-7.3-4.7-7.3s-3.4 2.1-4.6 2.1c-1.5 3.7-3.1 8.6-2.6 12.1.4 2.3 0 9.1-.3 13.4l-.3 3.6z" class="AE"/><path d="M323.1 208.8s.1 0 .3.1c3-2.3 6.9-5.7 8-7.2 1.3-1.7 1.7-4.7 1.9-6h.6c1-5.2-.6-9.8-.6-9.8l-5.5 2-2.1 6.2s1.5.7 2.7.9c-.2 1.9-.6 5-.9 5.6-.2.5-2.2 2.6-4.1 4.6l-.3 3.6z" class="AG AI"/><path d="M302.549 215.974l.021-18.9 19.3.022-.021 18.9z" class="AB"/><path d="M302.502 200.447l.004-3.4 19.3.022-.004 3.4z" class="z"/><path d="M322.282 200.09l-19.9-.023.004-3.4 19.9.023z" class="AB"/><path d="M310.6 196.7v5.7l.4-.6.4.6.3-.6.4.6.3-.6.4.6.3-.6.4.6v-5.7z" class="AD"/><g class="AH"><path d="M317.3 214.1c0 .6-1.1 2.1-1.9 2.3-.3.1-.6.1-.8 0-.4.2-1.6.3-1.1-.4-.8.6-1.6.6-2.6.5-.3 0-.3-.4.4-.6 1-.3 1.7-.9 2.2-1.8-.1-.1-.3.1-.7.1-.4.1-.7-.1-.7-.3 0-.1.5-.3.6-.4l1.3-.9c.5-.3.8-.5 1.4-.5.1 0 1 .1.8.4"/><path d="M333.2 192.1c-1.2 2.4-4.3 10.2-4.7 11.1-1.9 3.5-11.4 11.2-11.4 11.2s-1.6-.3-1.6-1.9c2.7-1.8 7.9-9.8 8.9-10.8.7-.6 3.9-13 3.9-13"/></g><path d="M333.2 185.6s1 4.2 0 9.4c-4.2.2-7.5-.9-7.5-.9l1.4-6.9" class="AE"/><path d="M130.1 218.8c1.7 2 3.1 6.7 4.8 8.6.8 1 6.9 6.1 11 8.3.2-1.2 2.7-.5 1.8-1.3-2.9-2.5-7.8-5.1-9.5-9.7-1.1-3.1-5.2-9.8-5.2-9.8" fill="#d8826a"/><path d="M140.291 219.91l16.9-.019.019 16.5-16.9.019z" class="AA"/><path d="M140.298 219.91l16.9-.019.003 3-16.9.019z" class="z"/><path d="M139.898 219.61l17.4-.02.003 3-17.4.02z" class="AA"/><path d="M150.1 219.6v5l-.3-.5-.3.5-.3-.5-.3.5-.3-.5-.4.5-.3-.5-.3.5v-5z" class="AB"/><path d="M123 284.9s-.6 3.3-.4 3.7.9 1.6 1.6 2.1c.7.4 2.4 1 2.5 1.2s.1.5-.1.7c-.6.5-1.6.7-2.3.6-2.2-.3-2.4-1.3-3.7-1.4-.2 0-.6.3-1.2 0s-.9-.9-.9-1.4c.1-.9.6-1.7.9-2.4s.5-3.8.5-3.8" class="AP"/><path d="M127.9 229.5l-8.7.2s-3.4 4.8-2 9.4c.7 2.2 1.5 3.3 1.9 4.4.4 1 3 15.1 2.8 16.1s-1.3 4-1.7 7c-.5 3.7-.1 15.6-.4 18.7 1.1.6 2 .6 3 .5 1.2-9.2 4.2-21.5 4.6-26 .4-4.6 1-19.3.5-30.3z" fill="#ff8a29"/><path d="M127.1 244.5s-6.1-12.9-7.2-10c-1.9 4.7 1.8 7.2 1.8 7.2 1.4 2.3 4.7 15.4 4.9 18.2.1 1.4 0 2.9.1 4.3 0 .1.1.3.1.4.4-2.2.6-4 .7-5.2.3-3.2.2-8.4-.1-15-.2.1-.3.1-.3.1z" fill="#f47211"/><path d="M126.8 292.7c.2-.3.2-.7 0-.8s-1-.6-1.4-.8-1.1-.3-.9-.2-.2.6-.6.6c-1.4-.1-2.4-.9-3.2-1.1-1.1-.3-1.6-1.6-1.7-1.8-.2.1-.7 1.2-.8 1.6-.1.3-.2.9-.1 1.2.1.2.2.7.2 1.1 0 0 .2.2.8.3.4.1.9 0 .9 0l.1-.7s.3 0 .7.1 1 .4 1.1.5c.2.2.3.5.5.6.6.3 1.1.4 1.8.4 1.4-.1 2.3-.5 2.6-1z" class="AM"/><path d="M130.2 286.3h2.7c-.1 1.7.2 3 .3 3.1.2.4 1.1 1.5 1.9 1.8s2.6.6 2.7.8c.2.2.2.5 0 .7-.5.6-1.6 1-2.3 1-2.3 0-2.7-.9-4-.8-.2 0-.6.4-1.3.2s-1.1-.7-1.1-1.2c0-.9.7-1.8.9-2.5.2-.2.2-2.9.2-3.1z" class="AP"/><path d="M121.5 228.4l8.7 2.3c2.7 10.6 4.5 22.3 4.2 28.9-.1 3.8-1.2 19.7-1.3 26.2v.6c-1 0-1.9 0-2.9-.1v-.3c-.3-4-2-14.4-2-17.9 0-4.1 1.1-7.8 1.1-7.8l-6.3-18.2c-.4-1.1-2.7-1.5-3.2-4.2-.9-4.6 1.7-9.5 1.7-9.5z" fill="#ff8a29"/><path d="M138.1 292.8c.1-.3.1-.7-.1-.8s-1.1-.5-1.5-.6c-.5-.1-1.2-.2-.9-.1s-.1.6-.5.7c-1.4.2-2.6-.6-3.4-.6-1.2-.1-1.7-1.3-1.7-1.5-.2.2-.8 1.3-.8 1.7 0 .3-.1.9 0 1.2.1.2.3.6.3 1.1 0 0 .3.1.9.1.4 0 .9-.1.9-.1v-.7s.3-.1.7-.1.9.2 1.2.4c.2.1.4.4.6.4.7.2 1.1.2 1.9.1 1.4-.1 2.2-.7 2.4-1.2z" class="AM"/><path d="M129.4 206.4c.6.2.4 1.6 1 1.8.4.1 1.3-.1 1.7.2 2.1 1.2 1.6 3.5 1.9 6.4.9 2.2 1.2 4.3.5 5.5-.9 1.6-1.8 2-2.8 3.3-.8 1-1 3-1.2 5.1 0 .4.3 1 .2 1.4-.2.7-1.2.9-2.4.9-2.7.1-6.7-.9-7.9-.8-1.1.1-2.2-.5-2.1-1.1.1-.5.5-.7.7-1.6.4-2 .6-6.9.9-8.6.8-4.3 1.3-7.5 3-11.4" class="AE"/><path d="M135.6 216.5a18.85 18.85 0 0 0-2.5-3.1l-2.3 1c1.1 2 1.3 4.5 1.8 6.7.5 0 1.3-.1 1.3-.1.2-.4.1-.2.4-.7.6-.8 1.2-2.2 1.3-3.8z" class="AG AI"/><g class="AP"><path d="M137 200.5c.2-1 .4-2.1.4-3-.1-1.7-.3-4.1-3.1-5.1s-5.9-.3-6.8 1.7-.7 5.1-.8 6.8c-.1 1.6-1.3 3.6-1.3 3.6l6.1 2.5s1-2.2 1.4-2.4c.4-.3.6.8 1.9.6.6-.1 1.2-1.1 1.6-2.4v-.1c.3 0 .6 0 .7-.1.4-.1.4-.3.3-.6-.3-.4-.4-1-.4-1.5zm8.7 34.7c0 .5 1 1.8 1.7 2 .2.1.5.1.7 0 .3.1 1.4.2 1-.4.7.6 1.4.5 2.3.5.3 0 .3-.3-.3-.5-.9-.2-1.5-.8-1.9-1.6.1-.1.2.1.6.1.4.1.6-.1.6-.3 0-.1-.5-.3-.6-.3-.4-.3-.8-.5-1.2-.8s-.7-.4-1.2-.4c-.1 0-.9.1-.7.4"/><path d="M131.9 215.9c1 2.1 3.7 8.9 4.1 9.7 1.6 3.1 10 9.8 10 9.8s1.4-.2 1.4-1.6c-2.4-1.6-6.9-8.6-7.8-9.5-.6-.5-3.4-11.4-3.4-11.4"/></g><path d="M134 208.2c-2.3-.9-4.5-.8-6.3-2.6-1.8 1.4 2.3 9.3 3.2 9.5 1 .2 2.3 4.6 2.6 5.2 3.2-.1 4.3-1.9 4.3-1.9-1.2-3.9-1.5-9.4-3.8-10.2z" class="AE"/><path d="M132.2 208.4c-.2-.6-.6-1.1-.7-1.7s0-1.3.3-1.8c.2-.3.5-.5.8-.8 1.3-1 1.7-1.8 1.2-3.3-.1-.5-.3-1-.2-1.5 0-.5.1-.9.6-1 .3 0 .6 0 .7.3.1.2-.1 1.7.4.8.5-.8.9-.9.8-2.7 0-.2-.1-1.1 0-1.2.8.6 1.1 1.7 1.2 2.4.6-.3.8-1.2.8-1.5 0-.7-.1-1.3-.4-1.8-1.1-2.3-2.3-2.8-3.3-3.2s-2-.8-3-.8-2.3.4-2.6 1.1c-1.4-.4-2.2.9-2.6 1.4-.5.6-.8 1.4-1.1 2.2-.4 1.1-.4 2.3-.7 3.5-.2.9-.6 1.9-1.3 2.6-.7.6-1.7.7-2.4 1.3-1 .7-1.5 2-1.4 3.2s.7 2.5 0 3.6c-.2.4-.6.7-.8 1-.5.8-.4 2 .1 2.9s1.5 1.8 2.5 2.1 1.7.4 2.7.3c1.7-.1 3.2 0 5-1.6 1-.9.4-1.4 1.4-2.4.6-.5 1.4-.8 1.8-1.5.3-.4.4-1.2.2-1.9 0 .1 0 .1 0 0z" class="AM"/><path d="M355.3 246.8h25.6" class="AA"/><path d="M395.5 246.8l-18.7.1" class="z"/><path d="M396.6 246.8l-18.6.1" class="AB"/><defs><circle id="A" cx="258.9" cy="121" r="43"/><path id="B" d="M200.188 226.612l21.4-.024.024 21-21.4.024z"/><path id="C" d="M200.098 226.612l21.4-.024.004 3.8-21.4.024z"/><path id="D" d="M199.598 226.213l22.1-.025.004 3.8-22.1.025z"/><path id="E" d="M212.6 226.2v6.3l-.4-.6-.4.6-.4-.6-.4.6-.4-.6-.4.6-.4-.6-.4.6v-6.3z"/><path id="F" d="M165.6 247.4l2.9-4c3.1-4.2 8-6.8 13.2-6.8h0c5.2 0 10 2.5 13.1 6.6l3 4.1"/><path id="G" d="M82.4 255.2c0 2.6-2.1 4.7-4.7 4.7s-4.7-2.1-4.7-4.7 2.1-4.7 4.7-4.7c2.6-.1 4.7 2 4.7 4.7z"/><path id="H" d="M233.852 223.806l7.527-30.483 31.163 7.694-7.527 30.483z"/><path id="I" d="M240.008 198.866l1.366-5.534 31.163 7.694-1.366 5.534z"/><path id="J" d="M240.755 192.5l32.133 7.934-1.366 5.534-32.133-7.934z"/><path id="K" d="M135.6 236.9h-4.4a1.79 1.79 0 0 1-1.8-1.8v-57.9a1.79 1.79 0 0 1 1.8-1.8h4.4a1.79 1.79 0 0 1 1.8 1.8v57.9a1.79 1.79 0 0 1-1.8 1.8z"/><path id="L" d="M60.9 212.5h-3a1.79 1.79 0 0 1-1.8-1.8h0a1.79 1.79 0 0 1 1.8-1.8h3a1.79 1.79 0 0 1 1.8 1.8h0a1.79 1.79 0 0 1-1.8 1.8z"/><path id="M" d="M280.2 116.1h2.8c1.9 0 3.5 1.6 3.5 3.5v7.8c0 1.9-1.6 3.5-3.5 3.5h-2.8c-1.9 0-3.5-1.6-3.5-3.5v-7.8c0-2 1.6-3.5 3.5-3.5z"/><path id="N" d="M235.8 47.2c-.1-.3-.4-.6-.8-.6l-3.6-.5-1.6-3.3c-.3-.6-1.4-.6-1.7 0l-1.6 3.3-3.6.5c-.4.1-.7.3-.8.6s0 .7.2 1l2.6 2.5-.6 3.6c-.1.4.1.7.4.9s.7.2 1 .1l3.2-1.7 3.2 1.7c.1.1.3.1.4.1.2 0 .4-.1.6-.2.3-.2.4-.6.4-.9l-.6-3.6 2.6-2.5c.3-.3.4-.7.3-1z"/></defs><use xlink:href="#A" fill="#8888e9"/><clipPath id="O"><use xlink:href="#A"/></clipPath><g clip-path="url(#O)"><path d="M283.8 118.2v-5.8c0-13.8-10.6-25-23.7-25s-23.7 11.2-23.7 25v5.8h47.4z" fill="#f2c64c"/><g fill="#262222"><path d="M279.2 117.7V113c0-11.2-8.6-20.2-19.2-20.2s-19.2 9-19.2 20.2v4.7h38.4z"/><path d="M236.3 116.8h47.5v22.3c0 2.3-1.8 4.1-4.1 4.1h0-39.2c-2.3 0-4.1-1.8-4.1-4.1h0v-22.3h-.1z"/></g><path d="M279.2 116.1v4.9c0 1.2-.1 2.5-.4 3.7a19.28 19.28 0 0 1-18.9 15.5 17.59 17.59 0 0 1-4.6-.6c-7.2-1.8-12.8-7.6-14.2-14.9-.2-1.2-.4-2.5-.4-3.7v-4.9c7.3-.9 7.2-11.6 15.5-10.8 10.1-7.9 10.9 10.8 23 10.8z" fill="#ffc4b7"/><path d="M291.7 172h-63.4l1.6-12.9c.9-7.3 6.1-13.3 13.1-15.3 2.4-.7 4.8-1.2 7.3-1.6 3.2-.5 6.4-.8 9.7-.8 5.7 0 11.4.8 16.9 2.3h0c7 2 12.2 8 13.1 15.3l1.7 13z" fill="#7cc6f7"/><path d="M264.4 154.5L260 149l-4.7 5.5s-6.5-1.3-5-12.3c3.2-.5 6.4-.8 9.7-.8 3.1 0 6.3.2 9.4.7v.1c1.5 11-5 12.3-5 12.3h0z" fill="#54afe2"/><path d="M264.7 139.6v6.7L260 149l-4.7-2.7v-6.7a21.3 21.3 0 0 0 9.4 0h0z" fill="#fdb0a0"/><path d="M260,149l-5,23h9.6L260,149z" fill="#ffc269"/><g class="AQ"><use xlink:href="#M"/><path d="M237.1 116.1h2.8c1.9 0 3.5 1.6 3.5 3.5v7.8c0 1.9-1.6 3.5-3.5 3.5h-2.8c-1.9 0-3.5-1.6-3.5-3.5v-7.8c0-2 1.6-3.5 3.5-3.5z"/></g><path d="M255.1,136.7h-13.8c-2.4,0-4.3-1.9-4.3-4.3v-1.6c0-0.8,0.7-1.5,1.5-1.5s1.5,0.7,1.5,1.5v1.6       c0,0.7,0.6,1.3,1.3,1.3h13.8c0.8,0,1.5,0.7,1.5,1.5S255.9,136.7,255.1,136.7z" fill="#f2c64c"/><path d="M260.8 138.1h-5.7v-5.6h5.7c1.6 0 2.8 1.3 2.8 2.8s-1.3 2.8-2.8 2.8h0z" class="AQ"/></g><path d="M366.3 202.3v13l.6-1.3.7 1.3.7-1.3.6 1.3.7-1.3.7 1.3.6-1.3.7 1.3v-12.9z" class="z"/><path d="M384.7 246.1v-42.9h-35.4l-.1 42.9" class="AA"/><path d="M349.279 210.968l.009-7.8 35.5.04-.009 7.8z" class="z"/><path d="M385.559 210.164l-36.6-.042.009-7.7 36.6.042z" class="AA"/><path d="M364.1 202.3v13l.7-1.3.7 1.3.6-1.3.7 1.3.6-1.3.7 1.3.7-1.3.6 1.3v-13z" class="AB"/><g class="z"><path d="M379 246.2v-25.3l25.8-.1v25.3"/><path d="M378.998 220.915l25.8-.029.005 4.6-25.8.029z"/><path d="M378.298 220.315l26.7-.03.005 4.6-26.7.03z"/><path d="M393.9 220.3v7.7l-.4-.8-.5.8-.5-.8-.5.8-.5-.8-.5.8-.4-.8-.5.8v-7.7z"/></g><path d="M380.5 246.2v-25.3l25.8-.1v25.3" class="AB"/><path d="M380.498 220.915l25.8-.029.005 4.6-25.8.029z" class="z"/><path d="M379.898 220.315l26.7-.03.005 4.6-26.7.03z" class="AB"/><path d="M395.5 220.3v7.7l-.5-.8-.5.8-.4-.8-.5.8-.5-.8-.5.8-.5-.8-.5.8v-7.7z" class="AD"/><g class="AQ"><use xlink:href="#N"/><use xlink:href="#N" x="15.1"/><use xlink:href="#N" x="30.2"/><use xlink:href="#N" x="45.4"/><path d="M296.3 47.2c-.1-.3-.4-.6-.8-.6l-3.6-.5-1.6-3.3c-.3-.6-1.4-.6-1.7 0L287 46l-3.6.5c-.4.1-.7.3-.8.6s0 .7.2 1l2.6 2.5-.6 3.6c-.1.4.1.7.4.9.2.1.4.2.6.2s.3 0 .4-.1l3.2-1.7 3.2 1.7c.3.2.7.1 1-.1s.4-.6.4-.9l-.6-3.6 2.6-2.5c.3-.2.4-.6.3-.9z"/></g></svg>