<svg xmlns="http://www.w3.org/2000/svg" xmlns:xlink="http://www.w3.org/1999/xlink" width="445" height="445" xmlns:v="https://vecta.io/nano"><style><![CDATA[.AX{fill:#c9c9c9}.AY{fill:#414143}.AZ{fill:#446799}.Aa{fill:#d7e1ea}.Ab{fill:#fefffa}.Ac{fill:#687fa4}.Ad{fill:#f7d1b8}.Ae{clip-path:url(#AX)}.Af{clip-path:url(#Ad)}.Ag{clip-path:url(#Aj)}.Ah{fill:#c4c8ce}.Ai{clip-path:url(#Ap)}.Aj{clip-path:url(#Av)}.Ak{clip-path:url(#BB)}.Al{clip-path:url(#BH)}.Am{clip-path:url(#BN)}.An{clip-path:url(#BT)}.Ao{fill:#f6d2b6}.Ap{fill:#5d5d5d}.Aq{opacity:.11}.Ar{fill:#abe5e7}.As{fill:#dcf9ff}.At{fill:#a9b6c7}.Au{fill:#726696}.Av{fill:#5f6074}.Aw{fill:#508466}.Ax{fill:#596d8e}.Ay{fill:#b4b4b6}.Az{fill:#85a2d3}.BA{fill:#365b83}.BB{fill:#385c85}.BC{fill:#365c86}.BD{fill:#58595b}.BE{fill:#474c51}.BF{fill:#8b6b9b}.BG{fill:#0a9cfa}]]></style><use xlink:href="#B" class="BD"/><use xlink:href="#C" class="AZ"/><path d="M435.1 255.8L401.6 275c-1.1.6-2.5.6-3.6 0l-65.6-37.4c-.6-.3-.9-.9-.9-1.5.1-.1.1-.2.2-.3-.1.1-.1.2-.2.3 0-.6.3-1.1.8-1.5l34.7-19.9c.7-.4 1.5-.4 2.2 0L435 252c.7.4 1.1 1.2 1.1 1.9 0-.1-.1-.3-.1-.4 0 .1.1.3.1.4.1.7-.3 1.5-1 1.9z" class="Ap Aq"/><g class="Ar"><use xlink:href="#D"/><use xlink:href="#D" x="28.1" y="-15.9"/><path d="M339.3 236.2h0a1.11 1.11 0 0 0 1.1-1.1v-30.9h-2.2v30.9c.1.6.5 1.1 1.1 1.1z"/><use xlink:href="#D" x="-37.1" y="-54.3"/><path d="M332.4 206.4c0 .6.2 1.7.7 2l65.6 37.4c1.1.6 2.5.6 3.6 0l33.5-19.2c.7-.4 1.1-1.2 1.1-1.9.3 1.5-.4 3.2-1.1 3.7l-33.5 19.2c-1.1.6-2.5.6-3.6 0l-65.6-37.4c-1.3-.9-1.1-2.9-.7-3.8z"/></g><use xlink:href="#E" class="As"/><defs><path id="A" d="M401.4 212.1l-8.5 5.4c-1.3.9-3.1.9-4.4 0l-5.4-3.4c-.7-.5-.7-1.5 0-2l9.2-5.5 9.1 5.5z"/><path id="B" d="M126.7 303.1c.4-.2 4.6-3.5 7-3.7s4.9 2.1 4.9 14.7l-4.9-3.6s-10.8 8.1-14.7 6.6c-4-1.6-3.6-9.1-3.6-9.1l11.3-4.9z"/><path id="C" d="M359.6 242.1s8.6-8.4 11.5 1.4c2.8 9.8-10.7 1.7-10.7 1.7l-.8-3.1z"/><path id="D" d="M404.5 274.6h0a1.11 1.11 0 0 0 1.1-1.1v-30.9h-2.2v30.9a1.11 1.11 0 0 0 1.1 1.1z"/><path id="E" d="M435.8 226.7l-33.5 19.2c-1.1.6-2.5.6-3.2.2l-65.6-37.4c-.9-.6-1.2-1.1-1.2-1.7.1-.1.1-.2.2-.3-.1.1-.1.2-.2.3 0-.6.3-1.1.8-1.5l34.7-19.9c.7-.4 1.5-.4 2.2 0l65.8 37.2c.7.4 1.1 1.2 1.1 1.9 0-.1-.1-.3-.1-.4 0 .1.1.3.1.4 0 .8-.4 1.5-1.1 2z"/><path id="F" d="M400.3 214.2c-.5-.5-15.5-6.9-15.2-7.4s7.4-2.7 7.4-2.7l12.6 8-4.8 2.1z"/><path id="G" d="M410.3 215.2c-.5-.5-39.4-22.4-39.4-22.4l-1.4 9.1 40 17.9.8-4.6z"/><path id="H" d="M393.7 188.1l10.5 5.9c.2.1.5 0 .5-.3h0c0-.1-.1-.2-.2-.3l-10.5-5.9c-.2-.1-.5 0-.5.3h0c0 .1.1.3.2.3z"/><path id="I" d="M396.3 191.7l7.8 4.4c.2.1.5 0 .5-.3h0c0-.1-.1-.2-.2-.3l-7.8-4.4c-.2-.1-.5 0-.5.3h0c.1.1.1.2.2.3z"/><path id="J" d="M393.1 193l10.5 5.9c.2.1.5 0 .5-.3h0c0-.1-.1-.2-.2-.3l-10.5-5.9c-.2-.1-.5 0-.5.3h0c.1.2.1.3.2.3z"/><path id="K" d="M395.8 196.6l7.8 4.4c.2.1.5 0 .5-.3h0c0-.1-.1-.2-.2-.3l-7.8-4.4c-.2-.1-.5 0-.5.3h0c0 .1.1.2.2.3z"/><path id="L" d="M378.8 179.6l10.5 5.9c.2.1.5 0 .5-.3h0c0-.1-.1-.2-.2-.3l-10.5-5.9c-.2-.1-.5 0-.5.3h0c0 .2.1.3.2.3z"/><path id="M" d="M365.4 228.2l-.1-.1 14.3-8.2v.1z"/><path id="N" d="M360.7 224.5l-.1-.1 14.3-8.3v.1z"/><path id="O" d="M386.7 229.4l-22.9-13.8v-.1l23 13.8z"/><path id="P" d="M385.8 230.1l-23-13.8.1-.1 22.9 13.8z"/><path id="Q" d="M383.1 232l-23-13.8v-.1l23 13.8z"/><path id="R" d="M368.3 260.1c.4-.3.9-.6 1.5-.9h-.1c-.2-.1-.6-6.7-.6-6.7l-4.2.1c0 .2.5 4.8.9 7.8.8.1 1.8.3 2.5-.3z"/><path id="S" d="M369.8 259.2l-1.5.9c-.7.5-1.8.4-2.4.2.2 1.3.4 2.2.5 2.4.4.5 5.3.3 7.3-2.1 1.7-2-3.2-1.4-3.9-1.4z"/><path id="T" d="M375 261.8l-1.5.9c-.7.5-1.8.4-2.4.2.2 1.3.4 2.2.5 2.4.4.5 5.3.3 7.3-2.1 1.7-2-3.2-1.3-3.9-1.4z"/><path id="U" d="M371.7 220.9c-.6-1-.9-1.1-2.7-.8-1.7.3-2.2 1.6-2.2 1.6l-6.2 1.9-4.4 5.8c.1.1.2.2.3.2 2.1 1 11.9-5.7 11.9-5.7 1.7.2 3.9-2 3.3-3z"/><path id="V" d="M354.3 274.5h0c-1.3 0-2.4-1.1-2.4-2.4v-13.2h4.8v13.2c0 1.3-1.1 2.4-2.4 2.4z"/><path id="W" d="M373.8 254.8l-.7-.5c-.6-.2-1.5-.2-2.9.7-2.3 1.4-12.4 7-14.9 8.4l1.1 1 14.4-8.3c.6-.3 1.3-.3 1.8.1l.1.1a.95.95 0 0 0 1.3-.2.95.95 0 0 0-.2-1.3z"/><path id="X" d="M350.3 215.1c-.2 0-2.9-1.3-4.5 1.9-1.7 3.2-1.3 31.3-1.2 31.5s10.2 11.4 18.6 1.2l-.1-19.2c-.2-.1-.4-8.5-.5-8.7s-4-2.3-4-2.3l-8.3-4.4z"/><path id="Y" d="M360.8 206l.1 8.6s-.4 2.7-3.3 2.6c0 0 .2 1.7.9 2.4 0 0-3.9 3.7-7.7.2 0 0 1.1-1.2.6-3.4s-1.6-11.1-1.6-11.1l8.2-.9 2.8 1.6z"/><path id="Z" d="M351 240.5l-20.9-12.1s-1.5.9-1.2 2.2l1.6.9 18.9 11s4-.8 7 21.9l1.4-.8c0 0-2-19.8-6.8-23.1z"/><path id="a" d="M362.4 214.5c-.6 0-1.4-.2-1.7-.2l.1-.4c1 .2 2.1.3 2.3.1 0 0 0-.1-.1-.3l.3-.2c.2.3.2.5.1.7-.2.2-.6.3-1 .3z"/><path id="b" d="M358.7 214.8l-.1.3s-.7.3-2.5-1.1c0 0-.7-2.6 1.9-4.4l1.4.1s1.5.5 1.3 1.2c-.1.6-2 3.9-2 3.9z"/><path id="c" d="M348.2 201.7s3.1-2.1 5.7-.7c2.6 1.3 4.1 4.4 3.7 9.7l2.1-1.1s.9-7.8-3.9-10.2c-4.7-2.4-7.6 2.3-7.6 2.3z"/><path id="d" d="M361.1 213.4c-.5 1.3-1.6 2.1-2.5 1.8s-1.3-1.6-.8-2.9 1.6-2.1 2.5-1.8 1.2 1.6.8 2.9z"/><path id="e" d="M361.3 213.7c-.3.9-1.2 1.5-1.9 1.2-.7-.2-1-1.2-.7-2.1s1.2-1.5 1.9-1.2 1 1.1.7 2.1z"/><path id="f" d="M224.3 86.9l10.5 5.9c.2.1.5 0 .5-.3h0c0-.1-.1-.2-.2-.3l-10.5-5.9c-.2-.1-.5 0-.5.3h0c0 .1.1.2.2.3z"/><path id="g" d="M226.4 95.3l7.8 4.4c.2.1.5 0 .5-.3h0c0-.1-.1-.2-.2-.3l-7.8-4.4c-.2-.1-.5 0-.5.3h0c.1.2.1.3.2.3z"/><path id="h" d="M209.5 78.4l10.5 5.9c.2.1.5 0 .5-.3h0c0-.1-.1-.2-.2-.3l-10.5-5.9c-.2-.1-.5 0-.5.3h0c0 .1 0 .2.2.3z"/><path id="i" d="M212.1 81.9l7.8 4.4c.2.1.5 0 .5-.3h0c0-.1-.1-.2-.2-.3l-7.8-4.4c-.2-.1-.5 0-.5.3h0c0 .2.1.3.2.3z"/><path id="j" d="M217.4 128.1l-23-13.7v-.1l23 13.8z"/><path id="k" d="M199 158.9c.4-.3.9-.6 1.5-.9h-.1c-.2-.1-.6-6.7-.6-6.7l-4.2.1c0 .2.5 4.8.9 7.8.7.1 1.8.2 2.5-.3z"/><path id="l" d="M200.4 158l-1.5.9c-.7.5-1.8.4-2.4.2.2 1.3.4 2.2.5 2.4.4.5 5.3.3 7.3-2.1 1.8-2-3.2-1.4-3.9-1.4z"/><path id="m" d="M204.2 161.5c.4-.3.9-.6 1.5-.9h-.1c-.2-.1-.8-6.9-.8-6.9l-3.9.2c0 .2.5 4.8.9 7.8.6.2 1.7.3 2.4-.2z"/><path id="n" d="M203.7 153.1l-5.1-3.3-19.7-1.8 4.1 11.3 3 2.9c2.4-1.3 12.6-7 14.9-8.4 1.3-.9 2.2-.9 2.8-.7z"/><path id="o" d="M207 122.8c-2.2.9-2.8 3.3-2.8 3.3l-6.8 4.4-1.5-3.8c-2.6 1.4-4.8 3.1-6.3 4.3 2.2 3.8 4.9 7.9 6.1 7.8 2.2-.2 10.4-11.5 10.4-11.5s2.9-1.9 2.9-2.7c-.2-.7.2-2.7-2-1.8z"/><path id="p" d="M193.6 120.8c-5.9-2.3-7.4 3.7-7.4 4l3.4 6.2c1.4-1.2 3.6-2.9 6.3-4.3l-2.3-5.9z"/><path id="q" d="M181.6 139.2l-20.9-12.1s-1.5.9-1.2 2.2l1.6.9 18.9 11s4-.8 7 21.9l1.4-.8c0 .1-2-19.7-6.8-23.1z"/><path id="r" d="M193 113.2c-.6 0-1.4-.2-1.7-.2l.1-.4c1 .2 2.1.3 2.3.1 0 0 0-.1-.1-.3l.3-.2c.2.3.2.5.1.7-.2.3-.5.3-1 .3z"/><path id="s" d="M191.7 112.1c-.5 1.3-1.6 2.1-2.5 1.8s-1.3-1.6-.8-2.9 1.6-2.1 2.5-1.8 1.3 1.6.8 2.9z"/><path id="t" d="M191.9 112.4c-.3.9-1.2 1.5-1.9 1.2-.7-.2-1-1.2-.7-2.1s1.2-1.5 1.9-1.2 1 1.2.7 2.1z"/><path id="u" d="M132.2 206.8l-1.5.9c-.7.5-1.8.4-2.4.2.2 1.3.4 2.2.5 2.4.4.5 5.3.3 7.3-2.1 1.8-2-3.1-1.4-3.9-1.4z"/><path id="v" d="M136.6 202l-.7-.5c-.6-.2-1.5-.2-2.9.7-2.3 1.4-12.4 7-14.9 8.4l1.1 1 14.4-8.3c.6-.3 1.3-.3 1.8.1l.1.1a.95.95 0 0 0 1.3-.2c.4-.4.3-1-.2-1.3z"/><path id="w" d="M135.9 201.5l-5.1-3.3-19.7-1.8 4.1 11.3 3.1 2.9c2.4-1.3 12.6-7 14.9-8.4 1.2-.9 2.1-.9 2.7-.7z"/><path id="x" d="M119.1 187.9c.1-.1 5.7-3 6.6-3s4 .3 4.1 4.4-9.6 3.9-9.6 3.9l-1.1-5.3z"/><path id="y" d="M121.9 184.8c-1.3-1.6-2.7-4.2-3.9-6.6 2.1-2.3 4.6-3.1 5.8-3.3l-1.6-4.1c-.7-1.4-3.6-2.5-3.6-2.5s-.6.7-1.8.9c-.1 2.7 0 5.3.5 6.6.1.3.1.6.1.9-.5 2.3-6.8 1.7-9.2-.5.8 3.6 2.9 14 2.2 18-.4 1.9 1.4 3.3 3.7 3.8 3.5.7 8.2-.7 9.5-5.2l-.3-1.5-1.4-6.5z"/><path id="z" d="M117.8 164.4l-.1.3s-.7.3-2.5-1.1c0 0-.7-2.6 1.9-4.4l1.4.1s1.5.5 1.3 1.2c-.1.7-2 3.9-2 3.9z"/><path id="AA" d="M120.4 163.3c-.3.9-1.2 1.5-1.9 1.2-.7-.2-1-1.2-.7-2.1s1.2-1.5 1.9-1.2c.7.2 1 1.2.7 2.1z"/><path id="AB" d="M246.9 277.7h0a1.11 1.11 0 0 0 1.1-1.1v-30.9h-2.2v30.9c0 .7.5 1.1 1.1 1.1z"/><path id="AC" d="M236 191.3l10.5 5.9c.2.1.5 0 .5-.3h0c0-.1-.1-.2-.2-.3l-10.5-5.9c-.2-.1-.5 0-.5.3h0c.1.1.1.2.2.3z"/><path id="AD" d="M225.4 235.2l-23-13.8.1-.1 23 13.8z"/><path id="AE" d="M202.3 275.8h0c-1.3 0-2.4-1.1-2.4-2.4v-13.2h4.8v13.2c-.1 1.3-1.1 2.4-2.4 2.4z"/><path id="AF" d="M204.2 242c.1-.1 5.7-3 6.6-3s4 .3 4.1 4.4c0 4.2-9.6 3.9-9.6 3.9l-1.1-5.3z"/><path id="AG" d="M219.9 226.9c-.9-.7-1.3-.7-2.8.2s-1.4 2.3-1.4 2.3l-5.3 4.1-1.6-4.4c-1.2.2-3.7.9-5.8 3.3 1.2 2.4 2.7 4.9 3.9 6.6.7.9 1.4 1.5 2 1.6 2.3.1 9.1-9.6 9.1-9.6 1.6-.6 2.8-3.4 1.9-4.1z"/><path id="AH" d="M200.2 209.6s1.9 7.2 1.7 10.9c.4 0 .8-.1 1.2-.2v-.7.7c1.2-.4 2.1-1.2 2.7-2.1s.9-2.1.9-3.2l-.4-8.7c-1.6 1.6-6.1 3.3-6.1 3.3z"/><path id="AI" d="M197.3 243.8l-18.9-11c.1.1 4.2 11.7 4.5 20.1 0 .3.1.5.4.6l21.1 12.3c-3.1-22.8-7.1-22-7.1-22z"/><path id="AJ" d="M193.8 206s1.7-2.7 4.4-1.4c2.6 1.3 4.1 4.6 3.7 10l2.1-1.1s.9-7.8-3.9-10.2c-4.8-2.6-6.3 2.7-6.3 2.7z"/><path id="AK" d="M302.9 315.1c.4-.3.9-.6 1.5-.9h-.1c-.2-.1-.6-6.7-.6-6.7l-4.2.1c0 .2.5 4.8.9 7.8.8.1 1.8.2 2.5-.3z"/><path id="AL" d="M105.9 298.1h0a1.11 1.11 0 0 0 1.1-1.1v-31h-2.2v31a1.11 1.11 0 0 0 1.1 1.1z"/><path id="AM" d="M136.4 321l-1.5.9c-.7.5-1.8.4-2.4.2.2 1.3.4 2.2.5 2.4.4.5 5.3.3 7.3-2.1 1.7-1.9-3.2-1.3-3.9-1.4z"/><path id="AN" d="M123.4 277.6l-.1.3s-.7.3-2.5-1.1c0 0-.7-2.6 1.9-4.4l1.4.1s1.5.5 1.3 1.2c0 .6-2 3.9-2 3.9z"/><path id="AO" d="M126 276.4c-.3.9-1.2 1.5-1.9 1.2-.7-.2-1-1.2-.7-2.1s1.2-1.5 1.9-1.2c.8.3 1.1 1.2.7 2.1z"/><path id="AP" d="M233.5 376.8c.4-.3.9-.6 1.5-.9h-.1c-.2-.1-.6-6.7-.6-6.7l-4.2.1c0 .2.5 4.8.9 7.8.7.1 1.8.3 2.5-.3z"/><path id="AQ" d="M295.9 130.7l7.8 4.4c.2.1.5 0 .5-.3h0c0-.1-.1-.2-.2-.3l-7.8-4.4c-.2-.1-.5 0-.5.3h0c0 .1 0 .2.2.3z"/><path id="AR" d="M278.6 162.6c-.6 0-1.4-.2-1.7-.2l.1-.4c1 .2 2.1.3 2.3.1 0 0 0-.1-.1-.3l.3-.2c.2.3.2.5.1.7-.2.2-.5.3-1 .3z"/><path id="AS" d="M211.5 28.9h-2.9c-.2 0-.4.2-.4.5 0 .2.2.5.4.5h2.9c.2 0 .4-.2.4-.5s-.2-.5-.4-.5z"/></defs><use xlink:href="#A" class="Aa"/><clipPath id="AT"><use xlink:href="#A"/></clipPath><g clip-path="url(#AT)" class="At"><use xlink:href="#F"/></g><defs><path id="AU" d="M409.5 190.9l-.4 23.8c0 1.3-1.5 2.2-2.6 1.5l-31.6-17.8c-.6-.3-.9-.9-.9-1.6l.5-23.6c0-1.4 1.5-2.2 2.7-1.5l31.6 17.6c.4.3.7 1 .7 1.6z"/></defs><use xlink:href="#AU" class="Au"/><clipPath id="AV"><use xlink:href="#AU"/></clipPath><g clip-path="url(#AV)" class="Aa"><use xlink:href="#G"/></g><path d="M406.7 191l-.4 20.2-29.4-16.2.3-20.5z" class="Av"/><g class="Aw"><use xlink:href="#H"/><use xlink:href="#I"/><use xlink:href="#J"/><use xlink:href="#K"/><use xlink:href="#J" x="-0.2" y="4.7"/><use xlink:href="#K" x="-0.2" y="4.7"/><use xlink:href="#L"/><use xlink:href="#K" x="-14.3" y="-13.4"/></g><defs><path id="AW" d="M387.2 228l-7.4 4.3c-.2.1-.4.1-.6 0L361 221.4c-.4-.2-.4-.7 0-1l7.2-4.2c.2-.1.4-.1.6 0l18.5 10.8c.3.3.3.8-.1 1z"/></defs><use xlink:href="#AW" class="Ab"/><clipPath id="AX"><use xlink:href="#AW"/></clipPath><g class="AX Ae"><path d="M373.7 234.6l-.1-.1 14.3-8.2zm-.8-.7v-.1l14.2-8.3.1.1zm-.6-.8v-.1l14.2-8.2h.1zm-.7-.6v-.1l14.2-8.2v.1zm-.8-.7v-.1l14.2-8.2.1.1zm-.6-.8v-.1l14.2-8.2.1.1z"/></g><g class="AX Ae"><path d="M368.2 231v-.1l14.2-8.2.1.1zm-.8-.7v-.1l14.2-8.2h.1zm-.6-.8v-.1l14.2-8.2.1.1zm-.7-.6h0l14.2-8.3.1.1z"/><use xlink:href="#M"/><path d="M364.8 227.4h-.1l14.3-8.3v.1z"/></g><g class="AX Ae"><path d="M363.6 227.2l-.1-.1 14.2-8.2.1.1zm-.8-.7l-.1-.1 14.3-8.2v.1zm-.6-.8l-.1-.1 14.3-8.2v.1zm-.7-.5l-.1-.1 14.3-8.2z"/><use xlink:href="#N"/><path d="M360.1 223.7v-.1l14.2-8.2v.1z"/></g><g class="AX Ae"><path d="M358.9 223.7v-.1l14.2-8.3.1.1zm-.8-.8v-.1l14.2-8.2.1.1zm-.5-.7l-.1-.1 14.3-8.3v.1zm-.8-.6v-.1l14.2-8.2.1.1zm-.7-.7l-.1-.1 14.3-8.2v.1zm-.6-.8l-.1-.1 14.3-8.2v.1z"/></g><g class="Ae AX"><path d="M387.5 228.6l-23-13.7.1-.1 23 13.7z"/></g><g class="Ae AX"><use xlink:href="#O"/></g><g class="Ae AX"><use xlink:href="#P"/></g><g class="Ae AX"><path d="M384.9 230.7L362 217v-.1l23 13.8z"/></g><g class="Ae AX"><path d="M384 231.3l-22.9-13.7v-.1l23 13.8z"/></g><g class="Ae AX"><use xlink:href="#Q"/></g><g class="Ae AX"><path d="M382.1 232.5l-22.9-13.8v-.1l23 13.8z"/></g><g class="Ae Ab"><path d="M375.6 228.3l-8.7-5.2-2.2 1.4 8.9 5.1z"/></g><use xlink:href="#R" class="AZ"/><use xlink:href="#S" class="AY"/><path d="M373.5 262.7c.4-.3.9-.6 1.5-.9h-.1c-.2-.1-.8-6.9-.8-6.9l-3.9.2c0 .2.5 4.8.9 7.8.7.2 1.8.4 2.4-.2z" class="AZ"/><use xlink:href="#T" class="AY"/><path d="M373.1 254.3L368 251l-19.7-1.8 4.1 11.3 3 2.9c2.4-1.3 12.6-7 14.9-8.4 1.2-.9 2.2-.9 2.8-.7z" class="Ax"/><use xlink:href="#U" class="Ad"/><use xlink:href="#B" x="235.6" y="-58.7" class="AZ"/><use xlink:href="#V" class="Ay"/><use xlink:href="#W" class="Ac"/><use xlink:href="#X" class="BF"/><use xlink:href="#Y" class="Ao"/><path d="M350.4 200.7c-.3 0-.8.2-1.6.6-5.1 2.6-2.5 9-.1 13.1s6.3 2.8 6.3 2.8c2.3-.7.9-5.5 1.1-7.1.1-1.6 4.7-4.1 4.7-4.1 5-4.4-5.7-7.2-10.4-5.3z" fill="#20423e"/><path d="M376.3 224c-2.2.9-2.8 3.3-2.8 3.3l-6.8 4.4-1.5-3.8c-2.6 1.4-4.8 3.1-6.3 4.3 2.2 3.8 4.9 7.9 6.1 7.8 2.2-.2 10.4-11.5 10.4-11.5s2.9-1.9 2.9-2.7c-.1-.7.3-2.7-2-1.8z" class="Ao"/><path d="M363 222c-5.9-2.3-7.4 3.7-7.4 4l3.4 6.2c1.4-1.2 3.6-2.9 6.3-4.3L363 222z" class="BF"/><path d="M349.4 242.5l-18.9-11c.1.1 4.2 11.7 4.5 20.1 0 .3.1.5.4.6l21 12.3c-3.1-22.8-7-22-7-22z" class="Az"/><use xlink:href="#Z" class="Ac"/><use xlink:href="#a" class="AY"/><use xlink:href="#b" class="BA"/><use xlink:href="#c" class="BB"/><use xlink:href="#d" class="AY"/><use xlink:href="#e" class="BC"/><use xlink:href="#C" x="-169.4" y="-101.2" class="AZ"/><path d="M265.7 154.5l-33.5 19.2c-1.1.6-2.5.6-3.6 0L163 136.3c-.6-.3-.9-.9-.9-1.5.1-.1.1-.2.2-.3-.1.1-.1.2-.2.3 0-.6.3-1.1.8-1.5l34.7-19.9c.7-.4 1.5-.4 2.2 0l65.8 37.2c.7.4 1.1 1.2 1.1 1.9 0-.1-.1-.3-.1-.4 0 .1.1.3.1.4.1.9-.3 1.6-1 2z" class="Ap Aq"/><g class="Ar"><use xlink:href="#D" x="-169.3" y="-101.3"/><use xlink:href="#D" x="-141.3" y="-117.2"/><path d="M170 135h0a1.11 1.11 0 0 0 1.1-1.1V103h-2.2v30.9a1.11 1.11 0 0 0 1.1 1.1zm28-15.9h0a1.11 1.11 0 0 0 1.1-1.1V87h-2.2v31a1.11 1.11 0 0 0 1.1 1.1z"/><path d="M163.1 105.2c0 .6.2 1.7.7 2l65.6 37.4c1.1.6 2.5.6 3.6 0l33.5-19.2c.7-.4 1.1-1.2 1.1-1.9.3 1.5-.4 3.2-1.1 3.7L233 146.4c-1.1.6-2.5.6-3.6 0L163.8 109c-1.4-.9-1.2-2.9-.7-3.8z"/></g><path d="M266.4 125.4L233 144.6c-1.1.6-2.5.6-3.2.2l-65.6-37.4c-.9-.6-1.2-1.1-1.2-1.7.1-.1.1-.2.2-.3-.1.1-.1.2-.2.3 0-.6.3-1.1.8-1.5l34.7-19.9c.7-.4 1.5-.4 2.2 0l65.8 37.2c.7.4 1.1 1.2 1.1 1.9 0-.1-.1-.3-.1-.4 0 .1.1.3.1.4-.1.9-.4 1.6-1.2 2z" class="As"/><defs><path id="AY" d="M232 110.9l-8.5 5.4c-1.3.9-3.1.9-4.4 0l-5.4-3.4c-.7-.5-.7-1.5 0-2l9.2-5.5 9.1 5.5z"/></defs><use xlink:href="#AY" class="Aa"/><clipPath id="AZ"><use xlink:href="#AY"/></clipPath><g clip-path="url(#AZ)" class="At"><path d="M230.9 112.9c-.5-.5-15.5-6.9-15.2-7.4s7.4-2.7 7.4-2.7l12.6 8-4.8 2.1z"/></g><defs><path id="Aa" d="M240.1 89.7l-.4 23.8c0 1.3-1.5 2.2-2.6 1.5l-31.6-17.8c-.6-.3-.9-.9-.9-1.6L205 72c0-1.4 1.5-2.2 2.7-1.5l31.6 17.6c.5.3.9.9.8 1.6z"/></defs><use xlink:href="#Aa" class="Au"/><clipPath id="Ab"><use xlink:href="#Aa"/></clipPath><g clip-path="url(#Ab)" class="Aa"><path d="M240.9 114c-.5-.5-39.4-22.4-39.4-22.4l-1.4 9.1 40 17.9.8-4.6z"/></g><path d="M237.3 89.8l-.4 20.1-29.4-16.1.3-20.5z" class="Av"/><g class="Aw"><use xlink:href="#f"/><use xlink:href="#K" x="-168.8" y="-106.2"/><use xlink:href="#f" x="-0.5" y="4.9"/><use xlink:href="#g"/><use xlink:href="#f" x="-0.7" y="9.6"/><use xlink:href="#g" x="-0.2" y="4.7"/><use xlink:href="#h"/><use xlink:href="#i"/></g><defs><path id="Ac" d="M217.9 126.8l-7.4 4.3c-.2.1-.4.1-.6 0l-18.3-10.9c-.4-.2-.4-.7 0-1l7.2-4.2c.2-.1.4-.1.6 0l18.5 10.8c.3.3.3.8 0 1z"/></defs><use xlink:href="#Ac" class="Ab"/><clipPath id="Ad"><use xlink:href="#Ac"/></clipPath><g class="AX Af"><path d="M204.3 133.3v-.1l14.2-8.2.1.1zm-.8-.7v-.1l14.2-8.2.1.1zm-.5-.8l-.1-.1 14.2-8.2.1.1zm-.8-.5v-.1l14.2-8.2h.1zm-.7-.7l-.1-.1 14.3-8.3v.1zm-.6-.8l-.1-.1 14.3-8.2z"/></g><g class="AX Af"><path d="M198.8 129.7h0l14.2-8.3.1.1zm-.7-.7l-.1-.1 14.3-8.2v.1zm-.6-.7l-.1-.1 14.3-8.3v.1zm-.7-.6l-.1-.1 14.3-8.2v.1zm-.8-.7l-.1-.1 14.3-8.2zm-.6-.8l-.1-.1 14.3-8.2v.1z"/></g><g class="AX Af"><path d="M194.2 126l-.1-.1 14.3-8.2v.1zm-.8-.7v-.1l14.2-8.2h.1zm-.6-.8v-.1l14.2-8.2.1.1zm-.7-.6v-.1l14.2-8.2v.1zm-.8-.7v-.1l14.2-8.2.1.1zm-.6-.8h0l14.2-8.3.1.1z"/></g><g class="AX Af"><path d="M189.6 122.4l-.1-.1 14.2-8.2.1.1zm-.8-.7l-.1-.1 14.3-8.2v.1zm-.6-.8l-.1-.1 14.3-8.2v.1zm-.7-.5l-.1-.1 14.3-8.3v.1zm-.8-.8h-.1l14.3-8.3v.1zm-.6-.7v-.1l14.2-8.3v.1z"/></g><g class="Af AX"><path d="M218.1 127.4l-22.9-13.8v-.1l23 13.8z"/></g><g class="Af AX"><use xlink:href="#j"/></g><g class="Af AX"><path d="M216.4 128.9l-22.9-13.8v-.1l23 13.8z"/></g><g class="Af AX"><path d="M215.6 129.5l-23-13.8v-.1l23 13.8z"/></g><g class="Af AX"><path d="M214.7 130.1l-23-13.8v-.1l23 13.8z"/></g><g class="Af AX"><path d="M213.7 130.8l-23-13.8.1-.1 22.9 13.8z"/></g><g class="Af AX"><path d="M212.8 131.2l-23-13.7v-.1l23 13.8z"/></g><g class="Af Ab"><path d="M206.2 127.1l-8.6-5.2-2.3 1.3 9 5.2z"/></g><use xlink:href="#k" class="AZ"/><use xlink:href="#l" class="AY"/><use xlink:href="#m" class="AZ"/><use xlink:href="#l" x="5.2" y="2.6" class="AY"/><use xlink:href="#n" class="Ax"/><path d="M202.3 119.7c-.6-1-.9-1.1-2.7-.8-1.7.3-2.2 1.6-2.2 1.6l-6.2 1.9-4.4 5.8c.1.1.2.2.3.2 2.1 1 11.9-5.7 11.9-5.7 1.8.1 3.9-2.1 3.3-3z" class="Ad"/><use xlink:href="#B" x="66.2" y="-160" class="AZ"/><path d="M184.9 173.2h0c-1.3 0-2.4-1.1-2.4-2.4v-13.2h4.8v13.2c0 1.4-1 2.4-2.4 2.4z" class="Ay"/><path d="M204.4 153.6l-.7-.5c-.6-.2-1.5-.2-2.9.7-2.3 1.4-12.4 7-14.9 8.4l1.1 1 14.4-8.3c.6-.3 1.3-.3 1.8.1l.1.1a.95.95 0 0 0 1.3-.2c.4-.5.3-1.1-.2-1.3z" class="Ac"/><use xlink:href="#X" x="-169.4" y="-101.3" fill="#efb75e"/><use xlink:href="#Y" x="-169.4" y="-101.2" class="Ao"/><path d="M181.1 99.5c-.3 0-.8.2-1.6.6-5.1 2.6-2.5 9-.1 13.1s6.3 2.8 6.3 2.8c2.3-.7.9-5.5 1.1-7.1.1-1.6 4.7-4.1 4.7-4.1 5-4.4-5.8-7.3-10.4-5.3z" fill="#5c8eff"/><use xlink:href="#o" class="Ao"/><use xlink:href="#p" fill="#efb75e"/><path d="M180 141.3l-18.9-11c.1.1 4.2 11.7 4.5 20.1 0 .3.1.5.4.6l21 12.3c-3-22.9-7-22-7-22z" class="Az"/><use xlink:href="#q" class="Ac"/><path d="M186.6 110.5s2.5 1.1 4.7-.1c0 0 2.3 6.1.2 7.2s-5-3.8-5-3.8l.1-3.3z" fill="#5c8eff"/><use xlink:href="#r" class="AY"/><use xlink:href="#b" x="-169.4" y="-101.2" class="BA"/><path d="M178.8 100.5s3.1-2.1 5.7-.7 4.1 4.4 3.7 9.7l2.1-1.1s.9-7.8-3.9-10.2c-4.7-2.5-7.6 2.3-7.6 2.3z" class="BB"/><use xlink:href="#s" class="AY"/><use xlink:href="#t" class="BC"/><path d="M192.3 204.8L158.8 224c-1.1.6-2.5.6-3.6 0l-65.6-37.4c-.6-.3-.9-.9-.9-1.5.1-.1.1-.2.2-.3-.1.1-.1.2-.2.3 0-.6.3-1.1.8-1.5l34.7-19.9c.7-.4 1.5-.4 2.2 0l65.9 37.2c.7.4 1.1 1.2 1.1 1.9 0-.1-.1-.3-.1-.4 0 .1.1.3.1.4 0 .9-.3 1.6-1.1 2z" class="Ap Aq"/><g class="Ar"><use xlink:href="#D" x="-242.7" y="-51"/><use xlink:href="#D" x="-214.7" y="-66.9"/><use xlink:href="#D" x="-307.9" y="-89.3"/><use xlink:href="#D" x="-279.9" y="-105.2"/><path d="M89.7 155.5c0 .6.2 1.7.7 2l65.6 37.4c1.1.6 2.5.6 3.6 0l33.5-19.2c.7-.4 1.1-1.2 1.1-1.9.3 1.5-.4 3.2-1.1 3.7l-33.5 19.2c-1.1.6-2.5.6-3.6 0l-65.6-37.4c-1.4-.9-1.2-3-.7-3.8z"/></g><path d="M193.1 175.7l-33.5 19.2c-1.1.6-2.5.6-3.6 0l-65.6-37.4c-.6-.3-.9-.9-.9-1.5.1-.1.1-.2.2-.3-.1.1-.1.2-.2.3 0-.6.3-1.1.8-1.5l34.7-19.9c.7-.4 1.5-.4 2.2 0l65.9 37.2c.7.4 1.1 1.2 1.1 1.9 0-.1-.1-.3-.1-.4 0 .1.1.3.1.4 0 .9-.4 1.6-1.1 2z" class="As"/><defs><path id="Ae" d="M158.6 161.2l-8.5 5.4c-1.3.9-3.1.9-4.4 0l-5.5-3.4c-.7-.5-.7-1.5 0-2l9.2-5.5 9.2 5.5z"/></defs><use xlink:href="#Ae" class="Aa"/><clipPath id="Af"><use xlink:href="#Ae"/></clipPath><g clip-path="url(#Af)" class="At"><path d="M157.5 163.2c-.5-.5-15.5-6.9-15.2-7.4s7.4-2.7 7.4-2.7l12.6 8-4.8 2.1z"/></g><defs><path id="Ag" d="M166.8 140l-.4 23.8c0 1.3-1.5 2.2-2.6 1.5l-31.7-17.8c-.6-.3-.9-.9-.9-1.6l.5-23.6c0-1.4 1.5-2.2 2.7-1.5l31.6 17.6a2.08 2.08 0 0 1 .8 1.6z"/></defs><use xlink:href="#Ag" class="Au"/><clipPath id="Ah"><use xlink:href="#Ag"/></clipPath><g clip-path="url(#Ah)" class="Aa"><path d="M167.6 164.3c-.5-.5-39.4-22.4-39.4-22.4l-1.4 9.1 40 17.9.8-4.6z"/></g><path d="M164 140.1l-.4 20.1-29.5-16.1.3-20.5z" class="Av"/><g class="Aw"><use xlink:href="#f" x="-73.4" y="50.3"/><use xlink:href="#K" x="-242.2" y="-55.9"/><use xlink:href="#f" x="-73.9" y="55.2"/><path d="M153.1 145.6l7.8 4.4c.2.1.5 0 .5-.3h0c0-.1-.1-.2-.2-.3l-7.8-4.4c-.2-.1-.5 0-.5.3h0c0 .1.1.3.2.3z"/><use xlink:href="#f" x="-74.1" y="59.9"/><use xlink:href="#i" x="-59.2" y="68.4"/><use xlink:href="#f" x="-88.2" y="41.8"/><use xlink:href="#g" x="-87.7" y="36.9"/></g><defs><path id="Ai" d="M144.5 177.1l-7.4 4.3c-.2.1-.4.1-.6 0l-18.3-10.9c-.4-.2-.4-.7 0-1l7.2-4.2c.2-.1.4-.1.6 0l18.5 10.8c.3.2.3.8 0 1z"/></defs><use xlink:href="#Ai" class="Ab"/><clipPath id="Aj"><use xlink:href="#Ai"/></clipPath><g class="AX Ag"><path d="M130.9 183.6v-.1l14.2-8.2.1.1zm-.8-.7v-.1l14.3-8.2v.1zm-.5-.8l-.1-.1 14.3-8.2v.1zm-.8-.5v-.1l14.2-8.2h.1zm-.7-.7l-.1-.1 14.3-8.3v.1zm-.6-.8l-.1-.1 14.3-8.2z"/></g><g class="AX Ag"><path d="M125.4 180h0l14.3-8.3v.1zm-.7-.7l-.1-.1 14.3-8.2v.1zm-.6-.8h-.1l14.3-8.3v.1zm-.7-.5l-.1-.1 14.3-8.2v.1zm-.8-.7l-.1-.1 14.3-8.2zm-.6-.8l-.1-.1 14.3-8.2.1.1z"/></g><g class="AX Ag"><path d="M120.8 176.3l-.1-.1L135 168zm-.8-.7v-.1l14.2-8.3.1.1zm-.6-.8v-.1l14.2-8.2.1.1zm-.7-.6l-.1-.1 14.3-8.2.1.1zm-.8-.7v-.1l14.2-8.2.1.1zm-.6-.8v-.1l14.2-8.2.1.1z"/></g><g class="AX Ag"><path d="M116.1 172.7v-.1l14.3-8.2v.1zm-.7-.7l-.1-.1 14.3-8.2v.1zm-.6-.8l-.1-.1 14.3-8.2v.1zm-.7-.6h-.1l14.3-8.3v.1zm-.8-.7l-.1-.1 14.3-8.2v.1zm-.6-.7l-.1-.1 14.3-8.3v.1z"/></g><g class="Ag AX"><path d="M144.7 177.7l-22.9-13.8v-.1l23 13.8z"/></g><g class="Ag AX"><path d="M144 178.4l-23-13.7v-.1l23 13.7z"/></g><g class="Ag AX"><path d="M143 179.1l-22.9-13.7v-.1l23 13.8z"/></g><g class="Ag AX"><path d="M142.2 179.8l-23-13.8v-.1l23 13.8z"/></g><g class="Ag AX"><path d="M141.3 180.4l-23-13.8v-.1l23 13.8z"/></g><g class="Ag AX"><path d="M140.3 181l-23-13.7.1-.1 23 13.8z"/></g><g class="Ag AX"><path d="M139.4 181.5l-23-13.7v-.1l23 13.8z"/></g><g class="Ag Ab"><path d="M132.8 177.4l-8.6-5.2-2.3 1.3 9 5.2z"/></g><path d="M129.1 169.7c-.8-.8-1.2-.8-2.8-.1-1.6.8-1.7 2.1-1.7 2.1l-5.5 3.4-2.8 6.7c.1.1.2.1.4.2 2.3.4 10.1-8.5 10.1-8.5 1.6-.3 3.1-3 2.3-3.8z" class="Ad"/><use xlink:href="#k" x="-68.2" y="48.8" class="AZ"/><use xlink:href="#u" class="Ah"/><use xlink:href="#k" x="-63" y="51.4" class="AZ"/><use xlink:href="#S" x="-232.3" y="-49.8" class="Ah"/><path d="M117.1 221.7h0c-1.3 0-2.4-1.1-2.4-2.4v-13.2h4.8v13.2c0 1.3-1 2.4-2.4 2.4z" class="Ay"/><use xlink:href="#v" class="Ac"/><use xlink:href="#w" class="Ax"/><use xlink:href="#x" class="AZ"/><g class="Ad"><path d="M116.8 166.3c-.1 1-.1 2-.1 3.1 1.3-.2 1.8-.9 1.8-.9s-.8-.4-.8-.6c0 .1.8.6.8.6-.4-.3-.5-1.5-.6-2.3-.3 0-.7.1-1.1.1zm18 6.5c-.9-.7-1.3-.7-2.8.2s-1.4 2.3-1.4 2.3l-5.3 4.1-1.6-4.4c-1.2.2-3.7.9-5.8 3.3 1.2 2.4 2.7 4.9 3.9 6.6.7.9 1.4 1.5 2 1.6 2.3.1 9.1-9.6 9.1-9.6 1.5-.6 2.8-3.4 1.9-4.1z"/><path d="M117.4 159.5l-.5 6.7c.4 0 .8-.1 1.2-.2v-.7.7c2.7-.8 3.6-4 3.6-4v-5.2c-1.6 1.8-4.3 2.7-4.3 2.7z"/></g><path d="M134.8 190.8c-.5-1.8-3.6-3.1-5.3-2.3l-6.3 3 .3 1.5c-1.3 4.5-6.1 5.9-9.5 5.2.5 2 2.4 7.5 6.1 5.9 4.5-2 10.6-5.8 10.6-5.8l5.9 3.8c.1-.2-.6-6.9-1.8-11.3z" class="AZ"/><use xlink:href="#y" fill="#8c5d83"/><path d="M111.3 149.6c-7.9 2.5-5.3 22.8-3.8 25.9.1.3.4.6.6.8 2.3 2.2 8.7 2.8 9.2.5.1-.3 0-.6-.1-.9-.4-1.3-.5-3.9-.5-6.6 0-1 .1-2.1.1-3.1.2-3.6.5-6.7.5-6.7s2.7-1 4.2-2.6c.5-.6.9-1.2 1-1.9.4-2.7-3.3-7.9-11.2-5.4z" fill="#d3a35e"/><path d="M112.2 189.7l-18.9-11c.1.1 4.2 11.7 4.5 20.1 0 .3.1.5.4.6l21.1 12.3c-3.1-22.9-7.1-22-7.1-22z" class="Az"/><use xlink:href="#Z" x="-237.2" y="-52.8" class="Ac"/><use xlink:href="#a" x="-240.9" y="-50.4" class="AY"/><use xlink:href="#z" class="BA"/><path d="M108.7 151.8s1.7-2.7 4.4-1.4c2.6 1.3 4.1 4.6 3.7 10l2.1-1.1s.9-7.8-3.9-10.2c-4.8-2.5-6.3 2.7-6.3 2.7z" class="BB"/><use xlink:href="#d" x="-240.9" y="-50.4" class="AY"/><use xlink:href="#AA" class="BC"/><path d="M277.5 259L244 278.2c-1.1.6-2.5.6-3.6 0l-65.6-37.4c-.6-.3-.9-.9-.9-1.5.1-.1.1-.2.2-.3-.1.1-.1.2-.2.3 0-.6.3-1.1.8-1.5l34.7-19.9c.7-.4 1.5-.4 2.2 0l65.9 37.2c.7.4 1.1 1.2 1.1 1.9 0-.1-.1-.3-.1-.4 0 .1.1.3.1.4 0 .8-.4 1.5-1.1 2z" class="Ap Aq"/><g class="Ar"><use xlink:href="#AB"/><use xlink:href="#D" x="-129.5" y="-12.8"/><use xlink:href="#D" x="-222.8" y="-35.2"/><use xlink:href="#D" x="-194.8" y="-51.1"/><path d="M174.8 209.6c0 .6.2 1.7.7 2l65.6 37.4c1.1.6 2.5.6 3.6 0l33.5-19.2c.7-.4 1.1-1.2 1.1-1.9.3 1.5-.4 3.2-1.1 3.7l-33.5 19.2c-1.1.6-2.5.6-3.6 0l-65.6-37.4c-1.4-.9-1.2-2.9-.7-3.8z"/></g><path d="M278.2 229.8L244.7 249c-1.1.6-2.5.6-3.6 0l-65.6-37.4c-.6-.3-.9-.9-.9-1.5.1-.1.1-.2.2-.3-.1.1-.1.2-.2.3 0-.6.3-1.1.8-1.5l34.7-19.9c.7-.4 1.5-.4 2.2 0l65.9 37.2c.7.4 1.1 1.2 1.1 1.9 0-.1-.1-.3-.1-.4 0 .1.1.3.1.4 0 .9-.4 1.6-1.1 2z" class="As"/><defs><path id="Ak" d="M243.7 215.3l-8.5 5.4c-1.3.9-3.1.9-4.4 0l-5.5-3.4c-.7-.5-.7-1.5 0-2l9.2-5.5 9.2 5.5z"/></defs><use xlink:href="#Ak" class="Aa"/><clipPath id="Al"><use xlink:href="#Ak"/></clipPath><g clip-path="url(#Al)" class="At"><path d="M242.6 217.4c-.5-.5-15.5-6.9-15.2-7.4s7.4-2.7 7.4-2.7l12.6 8-4.8 2.1z"/></g><defs><path id="Am" d="M251.9 194.1l-.4 23.8c0 1.3-1.5 2.2-2.6 1.5l-31.7-17.8c-.6-.3-.9-.9-.9-1.6l.5-23.6c0-1.4 1.5-2.2 2.7-1.5l31.6 17.6c.5.3.8.9.8 1.6z"/></defs><use xlink:href="#Am" class="Au"/><clipPath id="An"><use xlink:href="#Am"/></clipPath><g clip-path="url(#An)" class="Aa"><path d="M252.7 218.4c-.5-.5-39.4-22.4-39.4-22.4l-1.4 9.1 40 17.9.8-4.6z"/></g><path d="M249.1 194.2l-.4 20.1-29.4-16.1.2-20.5z" class="Av"/><g class="Aw"><use xlink:href="#AC"/><use xlink:href="#i" x="26.6" y="112.9"/><use xlink:href="#H" x="-158.2" y="8.1"/><use xlink:href="#K" x="-157.6" y="3.2"/><use xlink:href="#L" x="-143.5" y="21.3"/><use xlink:href="#K" x="-157.8" y="7.9"/><use xlink:href="#H" x="-172.5" y="-5.3"/><use xlink:href="#I" x="-172.5" y="-5.3"/></g><defs><path id="Ao" d="M229.6 231.2l-7.4 4.3c-.2.1-.4.1-.6 0l-18.3-10.9c-.4-.2-.4-.7 0-1l7.2-4.2c.2-.1.4-.1.6 0l18.5 10.8c.4.3.4.8 0 1z"/></defs><use xlink:href="#Ao" class="Ab"/><clipPath id="Ap"><use xlink:href="#Ao"/></clipPath><g class="AX Ai"><path d="M216 237.7h0l14.2-8.3.1.1zm-.7-.7l-.1-.1 14.3-8.2v.1zm-.6-.7l-.1-.1 14.3-8.3v.1zm-.7-.6l-.1-.1 14.3-8.2v.1zm-.8-.7l-.1-.1 14.3-8.2zm-.6-.8l-.1-.1 14.3-8.2v.1z"/></g><g class="AX Ai"><path d="M210.6 234.2l-.1-.1 14.3-8.2zm-.8-.7l-.1-.1 14.3-8.3v.1zm-.6-.8l-.1-.1 14.3-8.2h.1zm-.7-.6l-.1-.1 14.3-8.2v.1zm-.8-.7v-.1l14.2-8.2.1.1zm-.6-.8v-.1l14.2-8.2.1.1z"/></g><g class="AX Ai"><path d="M205.9 230.4v-.1l14.2-8.2.1.1zm-.8-.7v-.1l14.2-8.2.1.1zm-.6-.8v-.1l14.2-8.2.1.1zm-.7-.5v-.1L218 220l.1.1zm-.8-.8h0l14.2-8.3.1.1zm-.6-.7v-.1l14.3-8.3v.1z"/></g><g class="AX Ai"><path d="M201.3 226.8l-.1-.1 14.3-8.2v.1zm-.8-.7l-.1-.1 14.3-8.2v.1zm-.6-.8h-.1l14.3-8.3.1.1zm-.7-.5l-.1-.1 14.3-8.2zm-.8-.7v-.1l14.2-8.3.1.1zm-.6-.8v-.1L212 215l.1.1z"/></g><g class="Ai AX"><path d="M229.9 231.8l-23-13.8v-.1l23 13.8z"/></g><g class="Ai AX"><path d="M229.1 232.6l-23-13.8.1-.1 22.9 13.8z"/></g><g class="Ai AX"><path d="M228.2 233.3l-23-13.8v-.1l23 13.8z"/></g><g class="Ai AX"><path d="M227.3 233.9l-23-13.8 23 13.7z"/></g><g class="Ai AX"><path d="M226.4 234.5l-23-13.8 23 13.7z"/></g><g class="Ai AX"><use xlink:href="#AD"/></g><g class="Ai AX"><path d="M224.5 235.7l-23-13.8.1-.1 22.9 13.8z"/></g><g class="Ai Ab"><path d="M217.9 231.5l-8.6-5.2-2.3 1.4 9 5.1z"/></g><path d="M214.3 223.9c-.8-.8-1.2-.8-2.8-.1-1.6.8-1.7 2.1-1.7 2.1l-5.5 3.4-2.8 6.7c.1.1.2.1.4.1 2.3.4 10.1-8.5 10.1-8.5 1.5-.3 3.1-3 2.3-3.7z" class="Ad"/><use xlink:href="#k" x="16.9" y="102.9" class="BE"/><use xlink:href="#u" x="85.1" y="54.1" class="Ah"/><use xlink:href="#R" x="-147.2" y="4.3" class="BE"/><use xlink:href="#S" x="-147.2" y="4.3" class="Ah"/><use xlink:href="#AE" class="Ay"/><use xlink:href="#v" x="85.1" y="54.1" class="Ac"/><use xlink:href="#w" x="85.1" y="54.1" class="Ax"/><use xlink:href="#AF" class="BE"/><g class="Ad"><path d="M201.9 220.4c-.1 1-.1 2.1-.1 3.1 1.3-.2 1.8-.9 1.8-.9s-.8-.4-.8-.6c0 .1.8.6.8.6-.4-.3-.5-1.5-.6-2.3-.3.1-.6.1-1.1.1z"/><use xlink:href="#AG"/><use xlink:href="#AH"/></g><path d="M219.9 244.9c-.5-1.8-3.6-3.1-5.3-2.3l-6.3 3 .3 1.5c-1.3 4.5-6.1 5.9-9.5 5.2.5 2 2.4 7.5 6.1 5.9 4.5-2 10.6-5.8 10.6-5.8l5.9 3.8c.1-.1-.6-6.9-1.8-11.3z" class="BE"/><path d="M207 239c-1.3-1.6-2.7-4.2-3.9-6.6 2.1-2.3 4.6-3.1 5.8-3.3l-1.6-4.1c-.7-1.4-3.6-2.5-3.6-2.5s-.6.7-1.8.9c-.1 2.7-1.9 1.2-1.4 2.6.1.3-1 0-1.1.2-.5 2.3-5 .7-7.3-1.6.8 3.6 4.1 19.7 3.3 23.7-.4 1.9 1.4 3.3 3.7 3.8 3.5.7 8.2-.7 9.5-5.2l-.3-1.5-1.3-6.4z" fill="#ed524a"/><path d="M196.4 203.7c-7.3 4-8.3 17.9-6.8 21.1.1.3.4.6.6.8 2.3 2.2 13 3.4 13.5 1.1.1-.3-1.2-13.1-1.2-13.1s-.9-2.6.6-4.2c.5-.6 3.1-2.5 3.2-3.2.2-2.7-5-5.2-9.9-2.5z" fill="#5795aa"/><use xlink:href="#AI" class="Az"/><path d="M198.9 241.8L178 229.7s-1.5.9-1.2 2.2l1.6.9 18.9 11s4-.8 7 21.9l1.4-.8c0 0-2-19.7-6.8-23.1z" class="Ac"/><use xlink:href="#r" x="13.6" y="105" class="AY"/><use xlink:href="#z" x="85.1" y="54.1" class="BA"/><use xlink:href="#AJ" class="BB"/><use xlink:href="#s" x="13.6" y="105" class="AY"/><use xlink:href="#AA" x="85.1" y="54.1" class="BC"/><path d="M290.8 296.9s11-8.8 12.3 4.3l-8.3 1.9-4-6.2z" class="BD"/><path d="M369.7 310.7l-33.5 19.2c-1.1.6-2.5.6-3.6 0L267 292.5c-.6-.3-.9-.9-.9-1.5.1-.1.1-.2.2-.3-.1.1-.1.2-.2.3 0-.6.3-1.1.8-1.5l34.7-19.9c.7-.4 1.5-.4 2.2 0l65.9 37.2c.7.4 1.1 1.2 1.1 1.9 0-.1-.1-.3-.1-.4 0 .1.1.3.1.4 0 .9-.3 1.6-1.1 2z" class="Ap Aq"/><g class="Ar"><use xlink:href="#D" x="-65.3" y="54.9"/><use xlink:href="#D" x="-37.3" y="39"/><use xlink:href="#D" x="-130.6" y="16.6"/><use xlink:href="#D" x="-102.5" y="0.7"/><path d="M267 261.4c0 .6.2 1.7.7 2l65.6 37.4c1.1.6 2.5.6 3.6 0l33.5-19.2c.7-.4 1.1-1.2 1.1-1.9.3 1.5-.4 3.2-1.1 3.7L337 302.6c-1.1.6-2.5.6-3.6 0l-65.6-37.4c-1.4-.9-1.2-3-.8-3.8z"/></g><path d="M370.5 281.6L337 300.8c-1.1.6-2.5.6-3.6 0l-65.6-37.4c-.6-.3-.9-.9-.9-1.5.1-.1.1-.2.2-.3-.1.1-.1.2-.2.3 0-.6.3-1.1.8-1.5l34.7-19.9c.7-.4 1.5-.4 2.2 0l65.9 37.2c.7.4 1.1 1.2 1.1 1.9 0-.1-.1-.3-.1-.4 0 .1.1.3.1.4 0 .9-.4 1.6-1.1 2z" class="As"/><defs><path id="Aq" d="M336 267.1l-8.5 5.4c-1.3.9-3.1.9-4.4 0l-5.5-3.4c-.7-.5-.7-1.5 0-2l9.2-5.5 9.2 5.5z"/></defs><use xlink:href="#Aq" class="Aa"/><clipPath id="Ar"><use xlink:href="#Aq"/></clipPath><g clip-path="url(#Ar)" class="At"><path d="M334.9 269.1c-.5-.5-15.5-6.9-15.2-7.4s7.4-2.7 7.4-2.7l12.6 8-4.8 2.1z"/></g><defs><path id="As" d="M344.2 245.9l-.4 23.8c0 1.3-1.5 2.2-2.6 1.5l-31.7-17.8c-.6-.3-.9-.9-.9-1.6l.5-23.6c0-1.4 1.5-2.2 2.7-1.5l31.6 17.6a2.08 2.08 0 0 1 .8 1.6z"/></defs><use xlink:href="#As" class="Au"/><clipPath id="At"><use xlink:href="#As"/></clipPath><g clip-path="url(#At)" class="Aa"><path d="M345 270.2c-.5-.5-39.4-22.4-39.4-22.4l-1.4 9.1 40 17.9.8-4.6z"/></g><path d="M341.3 246l-.3 20.1-29.5-16.1.3-20.5z" class="Av"/><g class="Aw"><use xlink:href="#f" x="104" y="156.2"/><use xlink:href="#K" x="-64.8" y="50"/><use xlink:href="#f" x="103.5" y="161.1"/><path d="M330.5 251.5l7.8 4.4c.2.1.5 0 .5-.3h0c0-.1-.1-.2-.2-.3l-7.8-4.4c-.2-.1-.5 0-.5.3h0c0 .2 0 .3.2.3z"/><use xlink:href="#f" x="103.3" y="165.8"/><use xlink:href="#g" x="103.8" y="160.9"/><use xlink:href="#AC" x="77.4" y="43.3"/><use xlink:href="#i" x="104" y="156.2"/></g><defs><path id="Au" d="M321.9 283l-7.4 4.3c-.2.1-.4.1-.6 0l-18.3-10.9c-.4-.2-.4-.7 0-1l7.2-4.2c.2-.1.4-.1.6 0l18.5 10.8c.3.3.3.8 0 1z"/></defs><use xlink:href="#Au" class="Ab"/><clipPath id="Av"><use xlink:href="#Au"/></clipPath><g class="AX Aj"><path d="M308.3 289.5v-.1l14.2-8.2.1.1zm-.8-.7v-.1l14.2-8.2.1.1zm-.6-.8v-.1l14.2-8.2.1.1zm-.7-.5v-.1l14.2-8.2h.1zm-.8-.7v-.1l14.3-8.3v.1zm-.5-.8l-.1-.1 14.3-8.2v.1z"/></g><g class="AX Aj"><path d="M302.8 285.9h0l14.2-8.3.1.1zm-.7-.7l-.1-.1 14.3-8.2v.1zm-.6-.7l-.1-.1 14.3-8.3v.1zm-.8-.6v-.1l14.3-8.2v.1zm-.7-.7l-.1-.1 14.3-8.2v.1zm-.6-.8l-.1-.1 14.3-8.2v.1z"/></g><g class="AX Aj"><path d="M298.2 282.2l-.1-.1 14.3-8.2v.1zm-.8-.7l-.1-.1 14.3-8.2zm-.6-.8l-.1-.1 14.3-8.2.1.1zm-.7-.6l-.1-.1 14.3-8.2v.1zm-.8-.7v-.1l14.2-8.2.1.1zm-.6-.8h0l14.2-8.3.1.1z"/></g><g class="AX Aj"><path d="M293.5 278.6v-.1l14.2-8.2.1.1zm-.7-.7l-.1-.1 14.3-8.2v.1zm-.6-.8l-.1-.1 14.3-8.2v.1zm-.8-.5v-.1l14.3-8.3v.1zm-.7-.8h-.1l14.3-8.3v.1zm-.6-.7l-.1-.1 14.3-8.3v.1z"/></g><g class="Aj AX"><path d="M322.1 283.6l-23-13.8.1-.1 23 13.8z"/></g><g class="Aj AX"><path d="M321.4 284.3l-23-13.7v-.1l23 13.8z"/></g><g class="Aj AX"><path d="M320.4 285.1l-23-13.8.1-.1 23 13.8z"/></g><g class="Aj AX"><path d="M319.6 285.7l-23-13.8v-.1l23 13.8z"/></g><g class="Aj AX"><path d="M318.6 286.3l-22.9-13.8v-.1l23 13.8z"/></g><g class="Aj AX"><path d="M317.7 287l-23-13.8v-.1l23 13.8z"/></g><g class="Aj AX"><path d="M316.8 287.4l-23-13.7v-.1l23 13.8z"/></g><g class="Aj Ab"><path d="M310.2 283.3l-8.7-5.2-2.2 1.3 9 5.2z"/></g><use xlink:href="#AK" class="BD"/><use xlink:href="#S" x="-65.4" y="55" class="Ah"/><use xlink:href="#m" x="104" y="156.2" class="BD"/><use xlink:href="#l" x="109.2" y="158.8" class="Ah"/><use xlink:href="#w" x="171.8" y="107.8" class="Ax"/><path d="M306.3 275.9c-.6-1-.9-1.1-2.7-.8-1.7.3-2.2 1.6-2.2 1.6l-6.2 1.9-4.4 5.8c.1.1.2.2.3.2 2.1 1 11.9-5.7 11.9-5.7 1.7.1 3.9-2.1 3.3-3z" class="Ad"/><use xlink:href="#B" x="170.2" y="-3.7" class="BD"/><path d="M288.9 329.4h0c-1.3 0-2.4-1.1-2.4-2.4v-13.2h4.8V327c0 1.4-1.1 2.4-2.4 2.4z" class="Ay"/><path d="M308.4 309.8l-.7-.5c-.6-.2-1.5-.2-2.9.7-2.3 1.4-12.4 7-14.9 8.4l1.1 1 14.4-8.3c.6-.3 1.3-.3 1.8.1l.1.1a.95.95 0 0 0 1.3-.2c.4-.5.2-1.1-.2-1.3z" class="Ac"/><use xlink:href="#X" x="-65.4" y="54.9" fill="#d88a44"/><use xlink:href="#Y" x="-65.4" y="55" class="Ao"/><path d="M289.7 272.2s-3.9 1.3-6.3-2.8-5-10.5.1-13.1 8.2.8 9.1-1.9c1.6-4.8 8.8 1.4 2.8 6.6 0 0-4.5 2.5-4.7 4.1s1.3 6.3-1 7.1z" fill="#6f58a8"/><use xlink:href="#o" x="104" y="156.2" class="Ao"/><use xlink:href="#p" x="104" y="156.2" fill="#d88a44"/><path d="M284 297.5l-18.9-11c.1.1 4.2 11.7 4.5 20.1 0 .3.1.5.4.6l21.1 12.3c-3.2-22.9-7.1-22-7.1-22z" class="Az"/><use xlink:href="#q" x="104" y="156.2" class="Ac"/><use xlink:href="#a" x="-66.5" y="54.8" class="AY"/><use xlink:href="#b" x="-66.5" y="54.8" class="BA"/><path d="M281.9 257.5s3.1-2.5 5.7-1.2 4 3.9 3.5 9.2l2.1-1.1s1-6.8-3.8-9.2c-4.8-2.5-7.5 2.3-7.5 2.3z" class="BB"/><path d="M294.6 268.1c-.5 1.3-1.6 2.1-2.5 1.8s-1.3-1.6-.8-2.9 1.6-2.1 2.5-1.8 1.2 1.7.8 2.9z" class="AY"/><use xlink:href="#t" x="102.9" y="156" class="BC"/><path d="M201.7 317.6l-33.5 19.2c-1.1.6-2.5.6-3.6 0L99 299.4c-.6-.3-.9-.9-.9-1.5.1-.1.1-.2.2-.3-.1.1-.1.2-.2.3 0-.6.3-1.1.8-1.5l34.7-19.9c.7-.4 1.5-.4 2.2 0l65.9 37.2c.7.4 1.1 1.2 1.1 1.9 0-.1-.1-.3-.1-.4 0 .1.1.3.1.4 0 .8-.4 1.6-1.1 2z" class="Ap Aq"/><g class="Ar"><path d="M171.1 336.4h0a1.11 1.11 0 0 0 1.1-1.1v-30.9H170v30.9c.1.6.5 1.1 1.1 1.1z"/><use xlink:href="#D" x="-205.3" y="45.9"/><use xlink:href="#AL"/><path d="M134 282.1h0a1.11 1.11 0 0 0 1.1-1.1v-30.9h-2.2V281c0 .7.5 1.1 1.1 1.1zm-35-13.8c0 .6.2 1.7.7 2l65.6 37.4c1.1.6 2.5.6 3.6 0l33.5-19.2c.7-.4 1.1-1.2 1.1-1.9.3 1.5-.4 3.2-1.1 3.7L169 309.5c-1.1.6-2.5.6-3.6 0l-65.6-37.4c-1.4-.9-1.3-3-.8-3.8z"/></g><path d="M202.5 288.5L169 307.7c-1.1.6-2.5.6-3.6 0l-65.6-37.4c-.6-.3-.9-.9-.9-1.5.1-.1.1-.2.2-.3-.1.1-.1.2-.2.3 0-.6.3-1.1.8-1.5l34.7-19.9c.7-.4 1.5-.4 2.2 0l65.9 37.2c.7.4 1.1 1.2 1.1 1.9 0-.1-.1-.3-.1-.4 0 .1.1.3.1.4 0 .8-.4 1.6-1.1 2z" class="As"/><defs><path id="Aw" d="M168 274l-8.5 5.4c-1.3.9-3.1.9-4.4 0l-5.5-3.4c-.7-.5-.7-1.5 0-2l9.2-5.5 9.2 5.5z"/></defs><use xlink:href="#Aw" class="Aa"/><clipPath id="Ax"><use xlink:href="#Aw"/></clipPath><g clip-path="url(#Ax)" class="At"><path d="M166.9 276c-.5-.5-15.5-6.9-15.2-7.4s7.4-2.7 7.4-2.7l12.6 8-4.8 2.1z"/></g><defs><path id="Ay" d="M176.1 252.7l-.4 23.8c0 1.3-1.5 2.2-2.6 1.5l-31.7-17.8c-.6-.3-.9-.9-.9-1.6l.5-23.6c0-1.4 1.5-2.2 2.7-1.5l31.6 17.6c.5.4.8 1 .8 1.6z"/></defs><use xlink:href="#Ay" class="Au"/><clipPath id="Az"><use xlink:href="#Ay"/></clipPath><g clip-path="url(#Az)" class="Aa"><path d="M176.9 277c-.5-.5-39.4-22.4-39.4-22.4l-1.4 9.1 40 17.9.8-4.6z"/></g><path d="M173.3 252.8l-.4 20.2-29.4-16.1.3-20.6z" class="Av"/><g class="Aw"><use xlink:href="#L" x="-218.5" y="70.3"/><use xlink:href="#K" x="-232.8" y="56.9"/><use xlink:href="#f" x="-64.5" y="168"/><use xlink:href="#I" x="-233.9" y="66.7"/><use xlink:href="#h" x="-49.9" y="181.2"/><path d="M162.2 263.1l7.8 4.4c.2.1.5 0 .5-.3h0c0-.1-.1-.2-.2-.3l-7.8-4.4c-.2-.1-.5 0-.5.3h0c.1.1.1.3.2.3z"/><use xlink:href="#AC" x="-90.6" y="50.2"/><use xlink:href="#K" x="-247.7" y="48.4"/></g><defs><path id="BA" d="M153.8 289.9l-7.4 4.3c-.2.1-.4.1-.6 0l-18.3-10.9c-.4-.2-.4-.7 0-1l7.2-4.2c.2-.1.4-.1.6 0l18.5 10.8a.57.57 0 0 1 0 1z"/></defs><use xlink:href="#BA" class="Ab"/><clipPath id="BB"><use xlink:href="#BA"/></clipPath><g class="AX Ak"><path d="M140.3 296.4l-.1-.1 14.3-8.2v.1zm-.8-.7v-.1l14.2-8.2.1.1zm-.6-.8v-.1l14.2-8.2.1.1zm-.7-.6h0l14.2-8.3.1.1zm-.8-.7v-.1l14.2-8.2.1.1zm-.6-.7v-.1l14.2-8.3.1.1z"/></g><g class="AX Ak"><path d="M134.8 292.8v-.1l14.2-8.2.1.1zm-.8-.7v-.1l14.2-8.2.1.1zm-.6-.8v-.1l14.3-8.2v.1zm-.7-.5v-.1l14.2-8.2h.1zm-.7-.7l-.1-.1 14.3-8.3v.1zm-.6-.8l-.1-.1 14.3-8.2z"/></g><g class="AX Ak"><path d="M130.1 289.1v-.1l14.3-8.3v.1zm-.7-.8h-.1l14.3-8.3v.1zm-.6-.7l-.1-.1 14.3-8.3v.1zm-.7-.6l-.1-.1 14.3-8.2v.1zm-.8-.7l-.1-.1 14.3-8.2v.1zm-.6-.8l-.1-.1 14.3-8.2.1.1z"/></g><g class="AX Ak"><path d="M125.5 285.5v-.1l14.2-8.2h.1zm-.8-.7v-.1l14.2-8.3.1.1zm-.6-.8v-.1l14.2-8.2.1.1zm-.7-.6v-.1l14.2-8.2.1.1zm-.7-.7l-.1-.1 14.3-8.2v.1zm-.6-.8l-.1-.1 14.3-8.2v.1z"/></g><g class="Ak AX"><path d="M154.1 290.5l-23-13.8.1-.1 23 13.8z"/></g><g class="Ak AX"><path d="M153.3 291.2l-22.9-13.8v-.1l23 13.8z"/></g><g class="Ak AX"><path d="M152.4 291.9l-23-13.8h.1l23 13.7z"/></g><g class="Ak AX"><path d="M151.5 292.6l-23-13.8.1-.1 23 13.8z"/></g><g class="Ak AX"><path d="M150.6 293.2l-23-13.8.1-.1 23 13.8z"/></g><g class="Ak AX"><path d="M149.7 293.8l-23-13.8 23 13.7z"/></g><g class="Ak AX"><path d="M148.7 294.3l-23-13.8h.1l23 13.7z"/></g><g class="Ak Ab"><path d="M142.2 290.2l-8.7-5.3-2.3 1.4 9 5.1z"/></g><path d="M134.9 322c.4-.3.9-.6 1.5-.9h-.1c-.2-.1-.6-6.7-.6-6.7l-4.2.1c0 .2.5 4.8.9 7.8.7 0 1.8.2 2.5-.3z" class="BD"/><use xlink:href="#AM" class="Ah"/><path d="M140.1 324.6c.4-.3.9-.6 1.5-.9h-.1c-.2-.1-.8-6.9-.8-6.9l-3.9.2c0 .2.5 4.8.9 7.8.7.1 1.8.3 2.4-.2z" class="BD"/><use xlink:href="#l" x="-58.8" y="165.7" class="Ah"/><path d="M139.7 316.2l-5.1-3.3-19.7-1.8 4.1 11.3 3.1 2.9c2.4-1.3 12.6-7 14.9-8.4 1.1-.9 2.1-.9 2.7-.7z" class="Ax"/><use xlink:href="#U" x="-233.4" y="61.8" class="Ad"/><use xlink:href="#B" x="2.2" y="3.1" class="BD"/><use xlink:href="#V" x="-233.4" y="61.8" class="Ay"/><use xlink:href="#W" x="-233.4" y="61.8" class="Ac"/><use xlink:href="#X" x="-233.4" y="61.8" fill="#45d6d2"/><use xlink:href="#Y" x="-233.4" y="61.8" class="Ao"/><path d="M121.7 279s-3.9 1.3-6.3-2.8-5-10.5.1-13.1 8.2.8 9.1-1.9c1.6-4.8 8.8 1.4 2.8 6.6 0 0-4.5 2.5-4.7 4.1-.1 1.7 1.3 6.4-1 7.1z" fill="#a88058"/><path d="M142.9 285.9c-2.2.9-2.8 3.3-2.8 3.3l-6.8 4.4-1.5-3.8c-2.6 1.4-4.8 3.1-6.3 4.3 2.2 3.8 4.9 7.9 6.1 7.8 2.2-.2 10.4-11.5 10.4-11.5s2.9-1.9 2.9-2.7c-.1-.8.3-2.8-2-1.8z" class="Ao"/><use xlink:href="#p" x="-64" y="163" fill="#45d6d2"/><path d="M116 304.3l-18.9-11c.1.1 4.2 11.7 4.5 20.1 0 .3.1.5.4.6l21.1 12.3c-3.2-22.8-7.1-22-7.1-22z" class="Az"/><use xlink:href="#q" x="-64" y="163.1" class="Ac"/><path d="M127.2 277.3c-.6 0-1.4-.2-1.7-.2l.1-.4c1 .2 2.1.3 2.3.1 0 0 0-.1-.1-.3l.3-.2c.2.3.2.5.1.7a1.69 1.69 0 0 1-1 .3z" class="AY"/><use xlink:href="#AN" class="BA"/><path d="M113.8 264.3s2.2-2.1 4.8-.8 4.1 4.6 3.7 10l2.1-1.1s.9-7.8-3.9-10.2c-4.7-2.5-6.7 2.1-6.7 2.1z" class="BB"/><use xlink:href="#s" x="-65.9" y="164" class="AY"/><use xlink:href="#AO" class="BC"/><path d="M289.8 371.4l-33.5 19.2c-1.1.6-2.5.6-3.6 0l-65.6-37.4c-.6-.3-.9-.9-.9-1.5.1-.1.1-.2.2-.3-.1.1-.1.2-.2.3 0-.6.3-1.1.8-1.5l34.7-19.9c.7-.4 1.5-.4 2.2 0l65.9 37.2c.7.4 1.1 1.2 1.1 1.9 0-.1-.1-.3-.1-.4 0 .1.1.3.1.4 0 .8-.4 1.5-1.1 2z" class="Ap Aq"/><g class="Ar"><path d="M259.2 390.1h0a1.11 1.11 0 0 0 1.1-1.1v-30.9h-2.2V389c0 .7.5 1.1 1.1 1.1z"/><use xlink:href="#D" x="-117.2" y="99.6"/><use xlink:href="#D" x="-210.5" y="77.2"/><path d="M222.1 335.9h0a1.11 1.11 0 0 0 1.1-1.1v-30.9H221v30.9a1.11 1.11 0 0 0 1.1 1.1zm-35-13.9c0 .6.2 1.7.7 2l65.6 37.4c1.1.6 2.5.6 3.6 0l33.5-19.2c.7-.4 1.1-1.2 1.1-1.9.3 1.5-.4 3.2-1.1 3.7L257 363.2c-1.1.6-2.5.6-3.6 0l-65.6-37.4c-1.3-.9-1.2-2.9-.7-3.8z"/></g><path d="M290.6 342.2L257 361.4c-1.1.6-2.5.6-3.6 0L187.8 324c-.6-.3-.9-.9-.9-1.5.1-.1.1-.2.2-.3-.1.1-.1.2-.2.3 0-.6.3-1.1.8-1.5l34.7-19.9c.7-.4 1.5-.4 2.2 0l65.9 37.2c.7.4 1.1 1.2 1.1 1.9 0-.1-.1-.3-.1-.4 0 .1.1.3.1.4 0 .9-.3 1.6-1 2z" class="As"/><defs><path id="BC" d="M256.1 327.7l-8.5 5.4c-1.3.9-3.1.9-4.4 0l-5.5-3.4c-.7-.5-.7-1.5 0-2l9.2-5.5 9.2 5.5z"/></defs><use xlink:href="#BC" class="Aa"/><clipPath id="BD"><use xlink:href="#BC"/></clipPath><g clip-path="url(#BD)" class="At"><path d="M255 329.8c-.5-.5-15.5-6.9-15.2-7.4s7.4-2.7 7.4-2.7l12.6 8-4.8 2.1z"/></g><defs><path id="BE" d="M264.2 306.5l-.4 23.8c0 1.3-1.5 2.2-2.6 1.5L229.5 314c-.6-.3-.9-.9-.9-1.6l.5-23.6c0-1.4 1.5-2.2 2.7-1.5l31.6 17.6c.5.3.8.9.8 1.6z"/></defs><use xlink:href="#BE" class="Au"/><clipPath id="BF"><use xlink:href="#BE"/></clipPath><g clip-path="url(#BF)" class="Aa"><path d="M265 330.8c-.5-.5-39.4-22.4-39.4-22.4l-1.4 9.1 40 17.9.8-4.6z"/></g><path d="M261.4 306.6l-.4 20.1-29.4-16.1.3-20.5z" class="Av"/><g class="Aw"><use xlink:href="#f" x="24.1" y="216.8"/><use xlink:href="#g" x="24.6" y="211.9"/><path d="M247.9 308.6l10.5 5.9c.2.1.5 0 .5-.3h0c0-.1-.1-.2-.2-.3l-10.5-5.9c-.2-.1-.5 0-.5.3h0c0 .1 0 .3.2.3z"/><use xlink:href="#I" x="-145.8" y="120.5"/><use xlink:href="#J" x="-145.5" y="120.3"/><use xlink:href="#K" x="-145.5" y="120.3"/><use xlink:href="#H" x="-160.2" y="107.1"/><use xlink:href="#K" x="-159.6" y="102.2"/></g><defs><path id="BG" d="M241.9 343.6l-7.4 4.3c-.2.1-.4.1-.6 0L215.7 337c-.4-.2-.4-.7 0-1l7.2-4.2c.2-.1.4-.1.6 0l18.5 10.8c.3.3.3.8-.1 1z"/></defs><use xlink:href="#BG" class="Ab"/><clipPath id="BH"><use xlink:href="#BG"/></clipPath><g class="AX Al"><path d="M228.4 350.1h-.1l14.3-8.3v.1zm-.8-.7v-.1l14.2-8.2.1.1zm-.6-.7v-.1l14.2-8.3.1.1zm-.7-.6l-.1-.1 14.3-8.2v.1zm-.8-.7v-.1l14.2-8.2h.1zm-.6-.8v-.1l14.2-8.2.1.1z"/></g><g class="AX Al"><path d="M222.9 346.6v-.1l14.2-8.2h.1zm-.8-.7v-.1l14.2-8.3.1.1zm-.6-.8v-.1l14.2-8.2h.1zm-.7-.6v-.1l14.2-8.2.1.1zm-.8-.7v-.1l14.2-8.2.1.1zm-.5-.8l-.1-.1 14.3-8.2v.1z"/></g><g class="AX Al"><path d="M218.2 342.8v-.1l14.2-8.2.1.1zm-.7-.7l-.1-.1 14.3-8.2v.1zm-.6-.8l-.1-.1 14.3-8.2v.1zm-.7-.5l-.1-.1 14.3-8.3v.1zm-.8-.8h-.1l14.3-8.3v.1zm-.6-.7l-.1-.1 14.3-8.3v.1z"/></g><g class="AX Al"><path d="M213.6 339.2v-.1l14.2-8.2.1.1zm-.8-.7v-.1l14.2-8.2.1.1zm-.6-.8h0l14.2-8.3.1.1zm-.7-.5v-.1l14.2-8.2h.1zm-.8-.7v-.1l14.2-8.3.1.1zm-.5-.8l-.1-.1 14.3-8.2v.1z"/></g><g class="Al AX"><path d="M242.2 344.2l-23-13.8.1-.1 23 13.8z"/></g><g class="Al AX"><path d="M241.4 345l-23-13.8.1-.1 23 13.8z"/></g><g class="Al AX"><path d="M240.5 345.7l-23-13.8.1-.1 22.9 13.8z"/></g><g class="Al AX"><path d="M239.6 346.3l-23-13.8h.1l23 13.7z"/></g><g class="Al AX"><path d="M238.7 346.9l-23-13.8h.1l23 13.7z"/></g><g class="Al AX"><path d="M237.8 347.6l-23-13.8v-.1l23 13.8z"/></g><g class="Al AX"><path d="M236.8 348.1l-23-13.8.1-.1 23 13.8z"/></g><g class="Al Ab"><path d="M230.3 343.9l-8.7-5.2-2.3 1.4 9 5.1z"/></g><path d="M226.6 336.3c-.8-.8-1.2-.8-2.8-.1-1.6.8-1.7 2.1-1.7 2.1l-5.5 3.4-2.8 6.7c.1.1.2.1.4.2 2.3.4 10.1-8.5 10.1-8.5 1.6-.4 3.1-3.1 2.3-3.8z" class="Ad"/><use xlink:href="#AK" x="-74.7" y="59.1" class="AZ"/><use xlink:href="#S" x="-140.1" y="114.1" class="Ah"/><use xlink:href="#AP" class="AZ"/><use xlink:href="#l" x="34.5" y="217.9" class="Ah"/><use xlink:href="#V" x="-139.7" y="113.7" class="Ay"/><use xlink:href="#W" x="-139.7" y="113.7" class="Ac"/><path d="M233.3 368l-5.1-3.3-19.7-1.8 4.1 11.3 3.1 2.9c2.4-1.3 12.6-7 14.9-8.4 1.2-.9 2.2-.9 2.7-.7z" class="Ax"/><use xlink:href="#x" x="97.4" y="166.5" class="AZ"/><g class="Ad"><path d="M214.3 332.8c-.1 1-.1 2-.1 3.1 1.3-.2 1.8-.9 1.8-.9s-.8-.4-.8-.6c0 .1.8.6.8.6-.4-.3-.5-1.5-.6-2.3-.3.1-.7.1-1.1.1z"/><use xlink:href="#AG" x="12.3" y="112.4"/><path d="M214.8 326.1l-.5 6.7c.4 0 .8-.1 1.2-.2v-.7.7c2.7-.8 3.6-4 3.6-4v-5.2c-1.6 1.7-4.3 2.7-4.3 2.7z"/></g><path d="M232.2 357.3c-.5-1.8-3.6-3.1-5.3-2.3l-6.3 3 .3 1.5c-1.3 4.5-6.1 5.9-9.5 5.2.5 2 2.4 7.5 6.1 5.9 4.5-2 10.6-5.8 10.6-5.8l5.9 3.8c.2-.1-.6-6.9-1.8-11.3z" class="AZ"/><use xlink:href="#y" x="97.4" y="166.6" fill="#83d7fc"/><path d="M208.7 316.1c-7.9 2.5-5.3 22.8-3.8 25.9.1.3.4.6.6.8 2.3 2.2 8.7 2.8 9.2.5.1-.3 0-.6-.1-.9-.4-1.3-.5-3.9-.5-6.6 0-1 .1-2.1.1-3.1.2-3.6.5-6.7.5-6.7s2.7-1 4.2-2.6c.5-.6.9-1.2 1-1.9.4-2.7-3.3-7.8-11.2-5.4z" fill="#ca88d3"/><use xlink:href="#AI" x="12.3" y="112.4" class="Az"/><path d="M211.3 354.2l-20.9-12.1s-1.5.9-1.2 2.2l1.6.9 18.9 11s4-.8 7 21.9l1.4-.8c-.1 0-2.1-19.7-6.8-23.1z" class="Ac"/><path d="M219 330.6c-.6 0-1.4-.2-1.7-.2l.1-.4c1 .2 2.1.3 2.3.1 0 0 0-.1-.1-.3l.3-.2c.2.3.2.5.1.7-.2.3-.6.3-1 .3z" class="AY"/><use xlink:href="#AN" x="91.8" y="53.4" class="BA"/><use xlink:href="#AJ" x="12.3" y="112.4" class="BB"/><use xlink:href="#s" x="25.9" y="217.4" class="AY"/><use xlink:href="#AO" x="91.8" y="53.4" class="BC"/><path d="M349.5 203.3L316 222.5c-1.1.6-2.5.6-3.6 0l-65.6-37.4c-.6-.3-.9-.9-.9-1.5.1-.1.1-.2.2-.3-.1.1-.1.2-.2.3 0-.6.3-1.1.8-1.5l34.7-19.9c.7-.4 1.5-.4 2.2 0l65.9 37.2c.7.4 1.1 1.2 1.1 1.9 0-.1-.1-.3-.1-.4 0 .1.1.3.1.4 0 .8-.4 1.6-1.1 2z" class="Ap Aq"/><g class="Ar"><use xlink:href="#AL" x="213" y="-76"/><use xlink:href="#D" x="-57.5" y="-68.4"/><use xlink:href="#AB" x="6.8" y="-94"/><use xlink:href="#D" x="-122.8" y="-106.8"/><path d="M246.8 154c0 .6.2 1.7.7 2l65.6 37.4c1.1.6 2.5.6 3.6 0l33.5-19.2c.7-.4 1.1-1.2 1.1-1.9.3 1.5-.4 3.2-1.1 3.7l-33.5 19.2c-1.1.6-2.5.6-3.6 0l-65.6-37.4c-1.4-1-1.2-3-.7-3.8z"/></g><path d="M350.2 174.2l-33.5 19.2c-1.1.6-2.5.6-3.6 0L247.5 156c-.6-.3-.9-.9-.9-1.5.1-.1.1-.2.2-.3-.1.1-.1.2-.2.3 0-.6.3-1.1.8-1.5l34.7-19.9c.7-.4 1.5-.4 2.2 0l65.9 37.2c.7.4 1.1 1.2 1.1 1.9 0-.1-.1-.3-.1-.4 0 .1.1.3.1.4 0 .8-.3 1.5-1.1 2z" class="As"/><defs><path id="BI" d="M315.8 159.7l-8.5 5.4c-1.3.9-3.1.9-4.4 0l-5.5-3.4c-.7-.5-.7-1.5 0-2l9.2-5.5 9.2 5.5z"/></defs><use xlink:href="#BI" class="Aa"/><clipPath id="BJ"><use xlink:href="#BI"/></clipPath><g clip-path="url(#BJ)" class="At"><path d="M314.7 161.7c-.5-.5-15.5-6.9-15.2-7.4s7.4-2.7 7.4-2.7l12.6 8-4.8 2.1z"/></g><defs><path id="BK" d="M323.9 138.4l-.4 23.8c0 1.3-1.5 2.2-2.6 1.5l-31.7-17.8c-.6-.3-.9-.9-.9-1.6l.5-23.6c0-1.4 1.5-2.2 2.7-1.5l31.6 17.6c.5.4.8 1 .8 1.6z"/></defs><use xlink:href="#BK" class="Au"/><clipPath id="BL"><use xlink:href="#BK"/></clipPath><g clip-path="url(#BL)" class="Aa"><path d="M324.7 162.7c-.5-.5-39.4-22.4-39.4-22.4l-1.4 9.1 40 17.9.8-4.6z"/></g><path d="M321.1 138.5l-.4 20.2-29.4-16.2.2-20.5z" class="Av"/><g class="Aw"><use xlink:href="#J" x="-85.1" y="-57.4"/><use xlink:href="#K" x="-85.1" y="-57.4"/><use xlink:href="#J" x="-85.6" y="-52.5"/><use xlink:href="#K" x="-85.6" y="-52.5"/><use xlink:href="#f" x="83" y="58.4"/><use xlink:href="#K" x="-85.8" y="-47.8"/><use xlink:href="#L" x="-85.6" y="-52.5"/><use xlink:href="#AQ"/></g><defs><path id="BM" d="M301.6 175.6l-7.4 4.3c-.2.1-.4.1-.6 0L275.3 169c-.4-.2-.4-.7 0-1l7.2-4.2c.2-.1.4-.1.6 0l18.5 10.8c.4.2.4.7 0 1z"/></defs><use xlink:href="#BM" class="Ab"/><clipPath id="BN"><use xlink:href="#BM"/></clipPath><g class="AX Am"><path d="M288 182.1v-.1l14.3-8.2zm-.7-.7l-.1-.1 14.3-8.3v.1zm-.6-.8l-.1-.1 14.3-8.2v.1zm-.7-.6l-.1-.1 14.3-8.2v.1zm-.8-.7l-.1-.1 14.3-8.2v.1zm-.6-.8l-.1-.1 14.3-8.2v.1z"/></g><g class="AX Am"><path d="M282.6 178.5l-.1-.1 14.3-8.2v.1zm-.8-.7l-.1-.1 14.3-8.2v.1zm-.6-.8v-.1l14.2-8.2.1.1zm-.7-.6h-.1l14.3-8.3v.1zm-.8-.7v-.1l14.2-8.2.1.1zm-.6-.7v-.1l14.2-8.3.1.1z"/></g><g class="AX Am"><path d="M277.9 174.7h0l14.2-8.3.1.1zm-.8-.7v-.1l14.2-8.2.1.1zm-.6-.8h0l14.2-8.3.1.1zm-.7-.5v-.1l14.2-8.2.1.1zm-.8-.7v-.1l14.3-8.2zm-.5-.8l-.1-.1 14.3-8.2v.1z"/></g><g class="AX Am"><path d="M273.3 171.2l-.1-.1 14.3-8.3v.1zm-.8-.8h-.1l14.3-8.3v.1zm-.6-.7v-.1l14.2-8.2h.1zm-.7-.6l-.1-.1 14.3-8.2v.1zm-.8-.7v-.1l14.2-8.2.1.1zm-.6-.8v-.1l14.2-8.2.1.1z"/></g><g class="Am AX"><path d="M301.9 176.1l-23-13.7v-.1l23 13.8z"/></g><g class="Am AX"><path d="M301.1 176.9l-23-13.8.1-.1 22.9 13.8z"/></g><g class="Am AX"><path d="M300.2 177.6l-23-13.8v-.1l23 13.8z"/></g><g class="Am AX"><path d="M299.3 178.3l-23-13.8.1-.1 22.9 13.8z"/></g><g class="Am AX"><path d="M298.4 178.8l-23-13.7.1-.1 22.9 13.8z"/></g><g class="Am AX"><path d="M297.4 179.5l-23-13.8.1-.1 23 13.8z"/></g><g class="Am AX"><path d="M296.5 180l-23-13.8.1-.1 22.9 13.8z"/></g><g class="Am Ab"><path d="M290 175.9l-8.7-5.3-2.3 1.4 9 5.1z"/></g><path d="M286.3 168.2c-.8-.8-1.2-.8-2.8-.1-1.6.8-1.7 2.1-1.7 2.1l-5.5 3.4-2.8 6.7c.1.1.2.1.4.1 2.3.4 10.1-8.5 10.1-8.5 1.5-.3 3.1-2.9 2.3-3.7z" class="Ad"/><use xlink:href="#AP" x="54.4" y="-170.7" class="BE"/><use xlink:href="#T" x="-85.6" y="-56.6" class="Ah"/><path d="M293.1 208.8c.4-.3.9-.6 1.5-.9h-.1c-.2-.1-.6-6.7-.6-6.7l-4.2.1c0 .2.5 4.8.9 7.8.8 0 1.8.2 2.5-.3z" class="BE"/><use xlink:href="#AM" x="158.2" y="-113.2" class="Ah"/><use xlink:href="#AE" x="72" y="-55.7" class="Ay"/><path d="M293.7 200.4l-.7-.4c-.6-.2-1.5-.2-2.9.7-2.3 1.4-12.4 7-14.9 8.4l1.1 1 14.4-8.3c.6-.3 1.3-.3 1.8.1l.1.1a.95.95 0 0 0 1.3-.2c.4-.5.3-1.1-.2-1.4z" class="Ac"/><use xlink:href="#w" x="157.1" y="-1.5" class="Ax"/><use xlink:href="#AF" x="72" y="-55.6" class="BE"/><g class="Ad"><path d="M274 164.7c-.1 1-.1 2.1-.1 3.1 1.3-.2 1.8-.9 1.8-.9s-.8-.4-.8-.6c0 .1.8.6.8.6-.4-.3-.5-1.5-.6-2.3-.3.1-.7.1-1.1.1z"/><use xlink:href="#AG" x="72" y="-55.7"/></g><path d="M291.9 189.3c-.5-1.8-3.6-3.1-5.3-2.3l-6.3 3 .3 1.5c-1.3 4.5-6.1 5.9-9.5 5.2.5 2 2.4 7.5 6.1 5.9 4.5-2 10.6-5.8 10.6-5.8l5.9 3.8c.1-.2-.6-7-1.8-11.3z" class="BE"/><path d="M279 183.3c-1.3-1.6-2.7-4.2-3.9-6.6 2.1-2.3 4.6-3.1 5.8-3.3l-1.6-4.1c-.7-1.4-3.6-2.5-3.6-2.5s-.6.7-1.8.9c-.1 2.7-1.9 1.2-1.4 2.6.1.3-1 0-1.1.2-.5 2.3-3.7-.4-6.1 1.2.8 3.6 2.9 17 2.1 21-.4 1.9 1.4 3.3 3.7 3.8 3.5.7 8.2-.7 9.5-5.2l-1.6-8z" class="AZ"/><use xlink:href="#AI" x="72" y="-55.7" class="Az"/><path d="M270.9 186.1L250 174s-1.5.9-1.2 2.2l1.6.9 18.9 11s4-.8 7 21.9l1.4-.8c0 .1-2-19.7-6.8-23.1z" class="Ac"/><path d="M265.3 171.8l-.3-1.7s.1-5.5 4.6-4.8 2.4-1.2 2.4-1.2l2.1.2 1.3 4.6-3.2 4.1-5.7-1.1-1.2-.1z" class="AZ"/><g class="Ad"><path d="M270.4 164.8s.5 2.5-.3 3.1c0 0 3.5 1.2 5.6-.9 0 0-.7-2.2-.6-3 .2-.8-4.7.8-4.7.8z"/><use xlink:href="#AH" x="72" y="-55.7"/></g><path d="M268.4 148.1c-7.3 4-8.3 11.3-6.8 14.5.1.3.4.6.6.8 2.3 2.2 13 3.4 13.5 1.1.1-.3-1.2-6.4-1.2-6.4s-.9-2.6.6-4.2c.5-.6 3.1-2.5 3.2-3.2.2-2.9-5-5.3-9.9-2.6z" fill="#9a58a8"/><use xlink:href="#AR" class="AY"/><use xlink:href="#AN" x="151.5" y="-114.7" class="BA"/><path d="M265.8 150.3s1.7-2.7 4.4-1.4c2.6 1.3 4.1 4.6 3.7 10l2.1-1.1s.9-7.8-3.9-10.2-6.3 2.7-6.3 2.7z" class="BB"/><use xlink:href="#s" x="85.6" y="49.3" class="AY"/><use xlink:href="#t" x="85.6" y="49.3" class="BC"/><path d="M38.8 242.1s8.6-8.4 11.5 1.4-10.7 1.7-10.7 1.7l-.8-3.1z" class="AZ"/><path d="M114.3 255.8L80.8 275c-1.1.6-2.5.6-3.6 0l-65.6-37.4c-.6-.3-.9-.9-.9-1.5.1-.1.1-.2.2-.3-.1.1-.1.2-.2.3 0-.6.3-1.1.8-1.5l34.7-19.9c.7-.4 1.5-.4 2.2 0l65.8 37.2c.7.4 1.1 1.2 1.1 1.9 0-.1-.1-.3-.1-.4 0 .1.1.3.1.4a2.03 2.03 0 0 1-1 2z" class="Ap Aq"/><g class="Ar"><use xlink:href="#D" x="-320.7"/><use xlink:href="#D" x="-292.7" y="-15.9"/><use xlink:href="#D" x="-385.9" y="-38.4"/><use xlink:href="#D" x="-357.9" y="-54.3"/><path d="M11.7 206.4c0 .6.2 1.7.7 2L78 245.9c1.1.6 2.5.6 3.6 0l33.5-19.2c.7-.4 1.1-1.2 1.1-1.9.3 1.5-.4 3.2-1.1 3.7l-33.5 19.2c-1.1.6-2.5.6-3.6 0l-65.6-37.4c-1.3-1-1.2-3-.7-3.9z"/></g><use xlink:href="#E" x="-320.7" class="As"/><defs><path id="BO" d="M80.6 212.1l-8.5 5.4c-1.3.9-3.1.9-4.4 0l-5.4-3.4c-.7-.5-.7-1.5 0-2l9.2-5.5 9.1 5.5z"/></defs><use xlink:href="#BO" class="Aa"/><clipPath id="BP"><use xlink:href="#BO"/></clipPath><g clip-path="url(#BP)" class="At"><path d="M79.5 214.2c-.5-.5-15.5-6.9-15.2-7.4s7.4-2.7 7.4-2.7l12.6 8-4.8 2.1z"/></g><defs><path id="BQ" d="M88.8 190.9l-.4 23.8c0 1.3-1.5 2.2-2.6 1.5l-31.6-17.8c-.6-.3-.9-.9-.9-1.6l.5-23.6c0-1.4 1.5-2.2 2.7-1.5l31.6 17.6c.3.3.7 1 .7 1.6z"/></defs><use xlink:href="#BQ" class="Au"/><clipPath id="BR"><use xlink:href="#BQ"/></clipPath><g clip-path="url(#BR)" class="Aa"><path d="M89.6 215.2c-.5-.5-39.4-22.4-39.4-22.4l-1.4 9.1 40 17.9.8-4.6z"/></g><path d="M85.9 191l-.3 20.2L56.1 195l.3-20.5z" class="Av"/><g class="Aw"><use xlink:href="#H" x="-320.8"/><use xlink:href="#K" x="-320.2" y="-4.9"/><use xlink:href="#L" x="-306.4" y="13.4"/><use xlink:href="#K" x="-320.7"/><use xlink:href="#L" x="-306.6" y="18.1"/><use xlink:href="#AQ" x="-221" y="70.6"/><path d="M58.1 179.6l10.5 5.9c.2.1.5 0 .5-.3h0c0-.1-.1-.2-.2-.3L58.4 179c-.2-.1-.5 0-.5.3h0c0 .2.1.3.2.3z"/><use xlink:href="#I" x="-335.6" y="-8.5"/></g><defs><path id="BS" d="M66.5 228l-7.4 4.3c-.2.1-.4.1-.6 0l-18.3-10.9c-.4-.2-.4-.7 0-1l7.2-4.2c.2-.1.4-.1.6 0L66.5 227c.3.3.3.8 0 1z"/></defs><use xlink:href="#BS" class="Ab"/><clipPath id="BT"><use xlink:href="#BS"/></clipPath><g class="AX An"><path d="M52.9 234.6v-.1l14.2-8.2h.1zm-.7-.7l-.1-.1 14.2-8.3.1.1zm-.6-.8l-.1-.1 14.3-8.2zm-.8-.6v-.1l14.2-8.2.1.1zm-.7-.7l-.1-.1 14.3-8.2v.1zm-.6-.8l-.1-.1 14.3-8.2v.1z"/></g><g class="AX An"><path d="M47.5 231l-.1-.1 14.3-8.2v.1zm-.8-.7l-.1-.1 14.3-8.2zm-.6-.8l-.1-.1 14.3-8.2v.1zm-.7-.6h-.1l14.3-8.3v.1zm-.8-.7l-.1-.1 14.3-8.2v.1zm-.6-.8h0l14.2-8.3.1.1z"/></g><g class="AX An"><path d="M42.8 227.2l-.1-.1 14.3-8.2v.1zm-.8-.7v-.1l14.2-8.2.1.1zm-.6-.8v-.1l14.2-8.2.1.1zm-.7-.5v-.1l14.2-8.2h.1zm-.8-.7v-.1l14.2-8.3.1.1zm-.6-.8v-.1l14.2-8.2.1.1z"/></g><g class="AX An"><path d="M38.2 223.7l-.1-.1 14.3-8.3v.1zm-.8-.8l-.1-.1 14.3-8.2v.1zm-.6-.7l-.1-.1 14.3-8.3v.1zm-.7-.6l-.1-.1 14.3-8.2v.1zm-.8-.7v-.1l14.2-8.2.1.1zm-.6-.8v-.1l14.2-8.2.1.1z"/></g><g class="An AX"><path d="M66.7 228.6l-22.9-13.7v-.1l23 13.7z"/></g><g class="An AX"><path d="M66 229.4l-23-13.8v-.1l23 13.8z"/></g><g class="An AX"><path d="M65 230.1l-22.9-13.8v-.1l23 13.8z"/></g><g class="An AX"><path d="M64.2 230.7l-23-13.7v-.1l23 13.8z"/></g><g class="An AX"><path d="M63.3 231.3l-23-13.7v-.1l23 13.8z"/></g><g class="An AX"><path d="M62.3 232l-23-13.8.1-.1 23 13.8z"/></g><g class="An AX"><path d="M61.4 232.5l-23-13.8v-.1l23 13.8z"/></g><g class="An Ab"><path d="M54.8 228.3l-8.6-5.2-2.3 1.4 9 5.1z"/></g><path d="M47.6 260.1c.4-.3.9-.6 1.5-.9H49c-.2-.1-.6-6.7-.6-6.7l-4.2.1c0 .2.5 4.8.9 7.8.7.1 1.8.3 2.5-.3z" class="AZ"/><use xlink:href="#l" x="-151.4" y="101.2" class="AY"/><path d="M52.8 262.7c.4-.3.9-.6 1.5-.9h-.1c-.2-.1-.8-6.9-.8-6.9l-3.9.2c0 .2.5 4.8.9 7.8.6.2 1.7.4 2.4-.2z" class="AZ"/><path d="M54.2 261.8l-1.5.9c-.7.5-1.8.4-2.4.2.2 1.3.4 2.2.5 2.4.4.5 5.3.3 7.3-2.1 1.8-2-3.1-1.3-3.9-1.4z" class="AY"/><use xlink:href="#n" x="-151.4" y="101.2" class="Ax"/><path d="M50.9 220.9c-.6-1-.9-1.1-2.7-.8-1.7.3-2.2 1.6-2.2 1.6l-6.2 1.9-4.4 5.8c.1.1.2.2.3.2 2.1 1 11.9-5.7 11.9-5.7 1.8.2 3.9-2 3.3-3z" class="Ad"/><use xlink:href="#B" x="-85.2" y="-58.7" class="AZ"/><path d="M33.6 274.5h0c-1.3 0-2.4-1.1-2.4-2.4v-13.2H36v13.2c-.1 1.3-1.1 2.4-2.4 2.4z" class="Ay"/><use xlink:href="#v" x="-83.6" y="52.8" class="Ac"/><use xlink:href="#X" x="-320.8" class="BF"/><path d="M40 206l.1 8.6s-.4 2.7-3.3 2.6c0 0 .2 1.7.9 2.4 0 0-3.9 3.7-7.7.2 0 0 1.1-1.2.6-3.4S29 205.3 29 205.3l8.2-.9L40 206z" class="Ao"/><path d="M29.7 200.7c-.3 0-.8.2-1.6.6-5.1 2.6-2.5 9-.1 13.1s6.3 2.8 6.3 2.8c2.3-.7.9-5.5 1.1-7.1.1-1.6 4.7-4.1 4.7-4.1 5-4.4-5.8-7.2-10.4-5.3z" fill="#ffa85a"/><use xlink:href="#o" x="-151.4" y="101.2" class="Ao"/><use xlink:href="#p" x="-151.4" y="101.2" class="BF"/><path d="M28.6 242.5l-18.9-11c.1.1 4.2 11.7 4.5 20.1 0 .3.1.5.4.6l21 12.3c-3-22.8-7-22-7-22z" class="Az"/><path d="M30.2 240.5L9.4 228.4s-1.5.9-1.2 2.2l1.6.9 18.9 11s4-.8 7 21.9l1.4-.8c-.1 0-2.1-19.8-6.9-23.1z" class="Ac"/><use xlink:href="#AR" x="-237" y="51.9" class="AY"/><use xlink:href="#b" x="-320.8" class="BA"/><use xlink:href="#c" x="-320.8" class="BB"/><use xlink:href="#s" x="-151.4" y="101.3" class="AY"/><use xlink:href="#e" x="-320.8" class="BC"/><path d="M240.4 433.5H218c-5.2 0-9.5-4.3-9.5-9.5v-22.4c0-5.2 4.3-9.5 9.5-9.5h22.4c5.2 0 9.5 4.3 9.5 9.5V424c0 5.2-4.3 9.5-9.5 9.5z" fill="#09d97c"/><path d="M61.5 335.6H39.1c-5.2 0-9.5-4.3-9.5-9.5v-22.4c0-5.2 4.3-9.5 9.5-9.5h22.4c5.2 0 9.5 4.3 9.5 9.5v22.4c0 5.2-4.2 9.5-9.5 9.5z" fill="#f0b828"/><path d="M64.5 132.7H42.1c-5.2 0-9.5-4.3-9.5-9.5v-22.4c0-5.2 4.3-9.5 9.5-9.5h22.4c5.2 0 9.5 4.3 9.5 9.5v22.4c0 5.2-4.3 9.5-9.5 9.5z" fill="#9b7cc4"/><path d="M230.4 53.7H208c-5.2 0-9.5-4.3-9.5-9.5V21.8c0-5.2 4.3-9.5 9.5-9.5h22.4c5.2 0 9.5 4.3 9.5 9.5v22.4c0 5.2-4.2 9.5-9.5 9.5z" fill="#ff7b00"/><path d="M385.1 124.2h-22.4c-5.2 0-9.5-4.3-9.5-9.5V92.3c0-5.2 4.3-9.5 9.5-9.5h22.4c5.2 0 9.5 4.3 9.5 9.5v22.4c0 5.2-4.3 9.5-9.5 9.5z" fill="#2b90e2"/><path d="M398.7 357.1h-22.4c-5.2 0-9.5-4.3-9.5-9.5v-22.4c0-5.2 4.3-9.5 9.5-9.5h22.4c5.2 0 9.5 4.3 9.5 9.5v22.4c0 5.2-4.3 9.5-9.5 9.5z" class="BG"/><g fill="#fff"><path d="M233.7 418.5v2.1h-13.2V402h13.2v4.5l1.6-.6v-5.3c0-1.2-.9-2.1-2.1-2.1H221c-1.2 0-2.1.9-2.1 2.1v24.5c0 1.2.9 2.1 2.1 2.1h12.1c1.2 0 2.1-.9 2.1-2.1V419a13.14 13.14 0 0 1-1.5-.5zm-6.6 6.7c-.7 0-1.3-.6-1.3-1.3s.6-1.3 1.3-1.3 1.3.6 1.3 1.3c.1.7-.5 1.3-1.3 1.3z"/><ellipse cx="237.4" cy="412.4" rx="5.7" ry="5.6"/><path d="M230.2 413.9c0 .1-.1.2-.2.3l-1.2.9c-.1.1-.1.1-.2.1s-.2.1-.2.1h-.2c-.1 0-.2-.1-.5-.2-.2-.1-.5-.2-.8-.4s-.6-.5-1-.9-.7-.8-1.1-1.3c-.3-.4-.6-.9-.7-1.2-.2-.4-.3-.7-.4-1s-.2-.6-.2-.9c-.1-.2-.1-.5-.1-.6s0-.3.1-.4c0-.1.1-.2.1-.2 0-.1.1-.2.1-.2l.2-.2 1.2-.9c.1-.1.2-.1.2-.1s.1.1.2.1.1.1.1.2l.6 1.8c.1.1 0 .2 0 .2-.1.1-.1.2-.2.2l-.5.3-.1.1v.1c0 .1 0 .2.1.4s.1.3.2.6c.1.2.2.5.4.7.2.3.4.6.6.7l.7.7h.2l.6-.4c.1-.1.2-.1.4-.1.1 0 .2.1.2.1h0l1.5 1.2c-.2 0-.1.1-.1.2z"/></g><g fill="#09d97c"><path d="M237.5,411c-0.9,0-1.5,0.7-1.5,1.5s0.7,1.5,1.5,1.5s1.5-0.7,1.5-1.5S238.4,411,237.5,411z"/><path d="M240.9 410.7h0v-.2c0-.4-.4-.8-.8-.9-.9-.1-1.6-.4-2.3-.9h0c-.2-.2-.6-.2-.7 0h0c-.6.6-1.3.9-2.3.9-.4 0-.8.4-.8.9v.2c0 .9-.1 2.1.4 3.2.2.6.6 1.1.9 1.5a3.99 3.99 0 0 0 1.9 1.1h.4a3.99 3.99 0 0 0 1.9-1.1c.4-.4.7-.9.9-1.5.6-1.2.5-2.3.5-3.2zm-3.4 3.8c-1.1 0-2-.9-2-2s.9-2 2-2c1 0 2 .9 2 2s-.9 2-2 2z"/></g><g fill="#fff"><path d="M238.1 412.3h-.1v-.2c0-.2-.2-.6-.6-.6-.3 0-.6.2-.6.6v.2h-.1s-.1 0-.1.1v.9c0 .1.1.2.2.2h1.1c.1 0 .2-.1.2-.2v-1zm-.4.7s-.1 0 0 0c-.1 0-.1.1 0 0l-.2.1h-.1v-.4c0-.1.1-.2.2-.2s.2.1.2.2 0 .1-.1.1v.2zm.1-.7h-.6v-.2c0-.2.1-.3.3-.3s.3.1.3.3v.2z"/><circle cx="392.4" cy="327.3" r="2.9"/></g><g class="BG"><path d="M391.1 328.7h2.5c0-.6-.4-1.1-.9-1.1h-.6c-.5.1-1 .5-1 1.1z"/><circle cx="392.4" cy="326.6" r=".7"/></g><circle cx="398.2" cy="337.7" r="2.9" fill="#fff"/><g class="BG"><path d="M396.9 339.2h2.5c0-.6-.4-1.1-.9-1.1h-.6c-.5 0-1 .5-1 1.1z"/><circle cx="398.2" cy="337.1" r=".7"/></g><g fill="#fff"><path d="M394.7 346.2c0 .4-.2.7-.5.9l-3.8 2.6c-.2.1-.4.2-.7.3s-.5.1-.7.1h-.2c-.1 0-.2 0-.3-.1l-1.4-.4c-.7-.2-1.4-.7-2.4-1.3-.9-.6-2-1.4-3.1-2.5s-2.2-2.5-3.4-4.2c-.9-1.4-1.7-2.5-2.2-3.7-.6-1.2-1-2.2-1.3-3.2-.3-.9-.5-1.8-.6-2.5s-.1-1.4-.1-1.9.1-.9.1-1.2c.1-.3.1-.4.1-.5 0-.2.1-.4.3-.7.2-.2.3-.4.6-.5l3.8-2.6c.3-.2.6-.2.8-.2.2.1.4.1.5.3.2.2.3.3.3.5l1.7 5.4c.1.3.1.6-.1.9-.1.3-.3.6-.6.7l-1.3 1.1c-.1 0-.1.1-.1.2l-.1.1c0 .3.1.8.2 1.2s.3.9.6 1.6c.3.6.8 1.4 1.4 2.3s1.1 1.6 1.6 2.1l1.3 1.2c.3.3.6.4.8.5l.3.1h.2c.1 0 .1-.1.2-.1l1.7-1.2a1.39 1.39 0 0 1 1.1-.2c.3.1.5.2.6.3h0l4.2 3.7c.3.3.5.6.5.9zm-7.4-19.1c-1.5-.8-3.3-.3-4.2 1.2-.1.1-.2.2-.3.1s-.2-.2-.1-.3h0c1-1.7 3.2-2.3 4.9-1.4l.2.4h-.5zm-.6.7l1.7-.2c.1 0 .2-.1.2-.2h0l-.7-1.6c-.1-.1-.2-.2-.4-.1-.1.1-.2.2-.1.3h0l.6 1.2-1.4.2c-.1 0-.2.2-.2.3-.1 0 0 .2.3.1h0zm11.7 5c.2-1.4-.8-2.8-2.2-3.1-.1 0-.2-.1-.2-.2s.1-.2.2-.2h0c1.7.3 2.8 1.8 2.5 3.6l-.2.2-.1-.3zm-.9-.3l.7 1.3c.1.1.2.2.3.1 0 0 .1 0 .1-.1l1.1-1c.1-.1.1-.2 0-.3s-.2-.1-.3 0h0l-.8.8-.6-1c-.1-.1-.2-.2-.3-.1-.3-.1-.2.2-.2.3h0zm-1.5 12.2c1.1-.6 1.5-1.8.9-2.9-.1-.1 0-.2.1-.2s.2 0 .2.1h0c.6 1.2.1 2.7-1.1 3.4l-.3-.1.2-.3zm-.2-.6l-.5 1.1c-.1.1 0 .2.1.2h.1l1.2.2c.1 0 .2-.1.2-.2s-.1-.2-.2-.2h0l-.9-.1.4-.8c.1-.1 0-.2-.1-.2-.1-.2-.3-.2-.3 0h0z"/><path d="M386.7 332.2c3.4.4 5.8 3.5 5.4 6.9 0 .2.1.4.3.4s.4-.1.4-.3c.4-3.8-2.2-7.3-6-7.6-.2 0-.4.1-.4.3-.1.1 0 .3.3.3zm-.3 2.2c2.2.3 3.7 2.3 3.5 4.4 0 .2.1.4.3.4s.4-.1.4-.3c.3-2.5-1.5-4.9-4.2-5.3-.2 0-.4.1-.4.3.1.3.2.4.4.5zm-.2 2.2c1 .1 1.7 1 1.6 2 0 .2.1.4.3.4s.4-.1.4-.3c.2-1.4-.8-2.7-2.2-2.8-.2 0-.4.1-.4.3-.1.2 0 .3.3.4zm-17.7-221.3c-.3.1-.6 0-1-.2l-3.3-2.7c-.1-.1-.3-.3-.4-.5l-.3-.6v-1.8c0-.6.1-1.5.4-2.5s.7-2.1 1.4-3.3c.6-1.3 1.6-2.7 2.7-4.2.9-1.2 1.8-2.2 2.7-3s1.7-1.5 2.5-2c.7-.5 1.4-.9 2.1-1.2.6-.3 1.2-.5 1.6-.6.5-.1.8-.2 1.1-.2h.4c.2 0 .4 0 .7.1.2.1.4.2.5.3l3.5 2.7c.2.2.3.4.4.7 0 .2 0 .3-.1.5-.1.1-.2.3-.3.4l-4.3 3c-.2.1-.5.2-.8.2s-.5-.1-.7-.3l-1.2-1s-.1 0-.1-.1h-.1c-.3.1-.6.3-1 .5-.3.2-.7.5-1.2 1-.5.4-1 1-1.6 1.8-.6.7-1.1 1.4-1.4 2-.3.5-.5 1-.7 1.4-.1.3-.2.7-.2.8v.4c0 .1.1.1.1.1l1.5 1.1c.3.2.4.5.5.9 0 .2 0 .5-.1.6h0l-2.1 4.7-1.2 1zm14.7-3l-2-2.4 1.6-.7c.1 0 .2-.2.2-.3s-.1-.3-.2-.3l-6.6-3.3c-.1-.1-.3 0-.4 0-.1.1-.1.2-.1.4l2.1 7.2c0 .1.1.2.3.2.1 0 .3 0 .3-.1l1-1.5 2 2.4c.1.1.1.1.2.1s.2 0 .3-.1l1.2-1c.3-.2.3-.4.1-.6zm-8.4-9c-.1-.1-.3-.1-.5 0-.1.1-.1.3 0 .5l.7.9c.1.1.1.1.2.1s.2 0 .3-.1.1-.3 0-.5l-.7-.9zm0 2.5c0-.2-.1-.4-.3-.4l-1.1-.1c-.2 0-.4.1-.4.3s.1.4.3.4l1.2.1c.1.1.3 0 .3-.3zm-.2 1.2l-.9.7c-.1.1-.1.3 0 .5.1.1.1.1.2.1s.2 0 .3-.1l.9-.7c.1-.1.1-.3 0-.5-.2-.1-.4-.1-.5 0zm2.1-2.7c.2 0 .4-.1.4-.3l.1-1.2c0-.2-.1-.4-.3-.4s-.4.1-.4.3l-.1 1.2c-.1.2.1.4.3.4zm1.3.6c.1 0 .2 0 .3-.1l.9-.7c.1-.1.1-.3 0-.5-.1-.1-.3-.1-.5 0l-.9.7c-.1.1-.1.3 0 .5.1 0 .2.1.2.1zM230.9 22.5h-22.3c-1.2 0-2.1 1-2.1 2.3v16.4c0 1.2.9 2.3 2.1 2.3h22.3c1.2 0 2.1-1 2.1-2.3V24.8c0-1.3-1-2.3-2.1-2.3zm-23.6 18.7v-15h5.4v16.4h-4.2c-.6-.1-1.2-.7-1.2-1.4zm23.6 1.3h-17.3V26.2h16.1c.2 0 .4-.2.4-.5 0-.2-.2-.5-.4-.5h-22.3v-.5c0-.7.6-1.4 1.2-1.4h22.3c.7 0 1.2.6 1.2 1.4v.5h-.8c-.2 0-.4.2-.4.5 0 .2.2.5.4.5h.8v15c.1.7-.5 1.3-1.2 1.3zm-22.3-18.6c-.1 0-.2 0-.3.1-.1 0-.1.2-.1.3s0 .2.1.3.2.1.3.1.2 0 .3-.1.1-.2.1-.3 0-.2-.1-.3-.2-.1-.3-.1zm1.2 0c-.1 0-.2 0-.3.1s-.1.2-.1.3 0 .2.1.3.2.1.3.1.2-.1.3-.1c.1-.1.1-.2.1-.3s0-.2-.1-.3c0-.1-.2-.1-.3-.1zm1.3 0c-.1 0-.2 0-.3.1s-.1.2-.1.3 0 .2.1.3.2.1.3.1.2 0 .3-.1.1-.2.1-.3 0-.2-.1-.3-.2-.1-.3-.1zm-2.5 4.1h2.9c.2 0 .4-.2.4-.5 0-.2-.2-.5-.4-.5h-2.9c-.2 0-.4.2-.4.5s.1.5.4.5z"/><use xlink:href="#AS"/><use xlink:href="#AS" y="1.8"/><path d="M210.2 32.5h-1.7c-.2 0-.4.2-.4.5 0 .2.2.5.4.5h1.7c.2 0 .4-.2.4-.5.1-.2-.1-.5-.4-.5zm0 1.9h-1.7c-.2 0-.4.2-.4.5 0 .2.2.5.4.5h1.7c.2 0 .4-.2.4-.5s-.1-.5-.4-.5zm-1.2 1.8h-.4c-.2 0-.4.2-.4.5 0 .2.2.5.4.5h.4c.2 0 .4-.2.4-.5s-.2-.5-.4-.5zm9.3-7.5c.5 0 1 .2 1.3.6.1.1.4.1.5 0s.1-.4 0-.6c-1-1.1-2.6-1.1-3.6 0-.5.5-.7 1.2-.7 1.9s.3 1.4.7 1.9c.5.6 1.2.8 1.8.8s1.3-.3 1.8-.8c.1-.1.1-.4 0-.6-.1-.1-.4-.1-.5 0-.3.4-.8.6-1.3.6s-1-.2-1.3-.6-.6-.9-.6-1.4.2-1 .6-1.4c.3-.2.8-.4 1.3-.4zm5.1 3c.6-.3 1.1-1 1.1-1.8 0-1.1-.8-2-1.8-2h-1.5c-.2 0-.4.2-.4.4h0V33c0 .2.2.4.4.4s.4-.2.4-.4v-4.3h1.1c.6 0 1.1.6 1.1 1.2s-.5 1.2-1.1 1.2c-.1 0-.3.1-.3.2s0 .3.1.4l1.5 1.6c.1.1.2.1.3.1s.2 0 .3-.1.1-.4 0-.6l-1.2-1zm5.9-3.7c-.1 0-.3 0-.4.2l-1.5 3-1.5-3c-.1-.1-.2-.2-.4-.2-.1 0-.3.2-.3.4v4.8c0 .2.2.4.4.4s.4-.2.4-.4V30l1.2 2.2c0 .1.2.2.3.2s.3-.1.3-.2L229 30v3.2c0 .2.2.4.4.4s.4-.2.4-.4v-4.8c-.2-.3-.3-.4-.5-.4zm-3 6.3l-1.7.5c-.5.1-.8.4-1.1.9-.2.5-.3 1-.1 1.5l-.7.2c-.1-.5-.4-.9-.8-1.2s-.8-.3-1.3-.2l-1.7.5c-.5.1-.8.4-1.1.9-.2.5-.3.9-.2 1.4l.3 1.3c.1.5.4.9.8 1.2s.8.3 1.3.2l1.7-.5c.5-.1.8-.4 1.1-.9.2-.5.3-1 .1-1.5l.7-.2c.1.5.4.9.8 1.2s.8.3 1.3.2l1.7-.5c.5-.1.8-.4 1.1-.9.2-.5.3-.9.2-1.4l-.3-1.3c-.1-.5-.4-.9-.8-1.2s-.8-.3-1.3-.2zm-4.7 3.4h-.4s-.1 0-.1.1l-.1.1c-.1.1-.1.3 0 .5 0 .2.1.3.3.4 0 0 .1 0 .1.1h.6v.5c-.1.1-.2.3-.3.3l-1.7.5h-.4c-.1-.1-.2-.2-.3-.4l-.4-1.2v-.5a1.38 1.38 0 0 1 .4-.3l1.7-.5h.4a.76.76 0 0 0 .2.4zm5.7-1.7l.3 1.3v.5c-.1.1-.2.3-.3.3l-1.7.5h-.4c-.1 0-.2-.2-.3-.4h.4s.1 0 .1-.1l.1-.1c.1-.1.1-.3 0-.5 0-.2-.1-.3-.3-.4 0 0-.1 0-.1-.1h-.6v-.5a1.38 1.38 0 0 1 .4-.3l1.7-.5h.4c.2 0 .3.1.3.3zM64.2 119a9.58 9.58 0 0 1-2-2.5c-.1-.2-.5-.4-.8-.5h-1.3c-.9-2.5-.8-5.3 0-7.9h1.2c.4 0 .8-.1.8-.5.5-.8 1.2-1.7 2-2.4.4-.4.4-.8 0-1.2l-2.3-2.1a.85.85 0 0 0-1.3 0c-6.2 5.6-6.2 14.7 0 20.4a.85.85 0 0 0 1.3 0l2.3-2.1c.6-.3.6-.8.1-1.2zm-14.8 0a9.58 9.58 0 0 1-2-2.5c-.1-.2-.5-.4-.8-.5h-1.3c-.9-2.5-.8-5.3 0-7.9h1.3c.4 0 .8-.1.8-.5.5-.8 1.2-1.7 2-2.4.4-.4.4-.8 0-1.2l-2.4-2.1a.85.85 0 0 0-1.3 0c-6.2 5.6-6.2 14.7 0 20.4a.85.85 0 0 0 1.3 0l2.3-2.1c.5-.3.5-.8.1-1.2zm2.4-8.3l-.1.1v1.4h-3.2c-.1 0-.1 0-.1.1v2c0 .1 0 .1.1.1h3.2v1.4s0 .1.1.1h.1l2.5-2.5v-.1l-2.5-2.5c0-.1-.1-.1-.1-.1zM62.2 305c-.4-.4-.9-.6-1.5-.6H39.4c-.6 0-1.1.2-1.5.6s-.6.9-.6 1.5V321c0 .6.2 1.1.6 1.5s.9.6 1.5.6h7.3c0 .3-.1.7-.2 1s-.3.7-.4.9c-.1.3-.2.4-.2.6s.1.4.3.6.3.3.6.3h6.8c.2 0 .4-.1.6-.3s.3-.3.3-.6c0-.1-.1-.3-.2-.6s-.3-.6-.4-.9-.2-.7-.2-1H61c.6 0 1.1-.2 1.5-.6s.6-.9.6-1.5v-14.5c-.3-.6-.5-1.1-.9-1.5zM61 318.2c0 .1 0 .2-.1.3s-.2.1-.3.1h-21c-.1 0-.2 0-.3-.1s-.1-.2-.1-.3v-11.4c0-.1 0-.2.1-.3 0-.1.1-.1.3-.1h21c.1 0 .2 0 .3.1s.1.2.1.3v11.4z"/><circle cx="50" cy="320.6" r="1"/><path d="M52 315.3v-.2s.1-.1.2-.1c.4-.4.7-1 .7-1.7.3 0 .7-.3.9-.5.3-.4.3-1.1.1-1.9 0 0 0-.1-.1-.1h-.1c0-.7-.2-1.4-.7-1.9-.6-.7-1.4-1-2.6-1s-2 .3-2.6 1c-.4.5-.7 1.3-.7 1.9H47s-.1 0-.1.1c-.3.8-.2 1.4.1 1.9.2.3.5.5.9.6.1.6.3 1.2.7 1.7 0 0 .1.1.2.1v.2c-.8.2-4 .9-3.9 3.1 0 .1.1.2.2.2h10.7c.1 0 .2-.1.2-.2 0-2.3-3.2-3-4-3.2zm-4.2-2.5c-.2 0-.3-.2-.4-.3h0c-.2-.3-.2-.8 0-1.4l.1-.1s.1-.1.1-.2c0-.6.2-1.3.6-1.8.5-.5 1.3-.8 2.2-.8 1 0 1.8.3 2.3.8.4.5.6 1.1.6 1.8 0 .1 0 .1.1.2l.1.1c.2.6.2 1.1 0 1.4-.1.1-.3.3-.4.3.3-.3.3-.7.3-1.1 0-.2-.2-.4-.3-.6-.1-2.1-1.6-2.4-2.2-2.4h-.8c-.6 0-2.1.2-2.2 2.4-.2.1-.3.3-.3.6-.2.5-.1.9.2 1.1zm4.7-1.7c-.9 0-1.8-.2-2.5-.6h-.3c-.4.4-1.2.6-1.6.6.1-1.5 1-1.9 1.8-1.9h.7c.9 0 1.9.3 1.9 1.9h0zm-4.2 1.7h0v-.1c-.3-.3-.4-.6-.4-.9 0-.1.1-.3.2-.3.3 0 1.3 0 1.9-.6.7.4 1.5.6 2.3.6h.4c.1.1.2.2.2.3 0 .3-.1.6-.4.9v.2l-1.2.7a.61.61 0 0 0-.8 0c-.2.3-.2.6 0 .9a.61.61 0 0 0 .8 0 .76.76 0 0 0 .2-.4h0l1-.5c-.1.4-.3.8-.6 1.1s-.9.6-1.4.5h-.1c-.5 0-1-.2-1.4-.5-.7-.7-.7-1.9-.7-1.9zm2.7 1.3c0 .1-.1.2-.2.2s-.2-.1-.2-.2.1-.2.2-.2.2.1.2.2zm-.8 4.1h-4.9c.2-1.6 2.7-2.3 3.6-2.5v.4c0 .5.6.8 1.4.9l-.1 1.2zm-1-2.1h0v-.8a1.39 1.39 0 0 0 1.1.2h.1c.4 0 .8-.1 1.1-.2v.8c0 .2-.4.5-1.2.5-.6 0-1.1-.3-1.1-.5zm1.4 2.1V317c.8 0 1.4-.4 1.4-.9v-.3c.8.2 3.4.8 3.6 2.5l-5-.1z"/></g></svg>