<svg xmlns="http://www.w3.org/2000/svg" xmlns:xlink="http://www.w3.org/1999/xlink" width="445" height="297" xmlns:v="https://vecta.io/nano"><style><![CDATA[.Av{clip-path:url(#a)}.Aw{fill:#eea886}.Ax{fill:#2b9d29}.Ay{fill:#2b9e2a}.Az{fill:#2b9f2b}.BA{fill:#ffc444}.BB{fill:#282b45}]]></style><defs><filter id="A" filterUnits="userSpaceOnUse" x="14.6" y="7.3" width="416" height="269.5"><feFlood flood-color="#fff" flood-opacity="1"/><feBlend in="SourceGraphic"/></filter><path id="B" d="M14.6 164.4H47v26.4h13.9v-57h13.5v20.1h7.9V96.7h9.3V51.3h17.5v23.1h17l6.7 10.8h6.8V29.3h15.7v14.4h13.3v27.8h17.8V36.7h14.1v14.6h7.4l6.3-10.2h7.2V7.3h20.2v50.2h20.7v12.1h8V51.3h16v20.2h26.1V43.7h17.8v86h44.3v34.7h56.1v112.4h-416z"/></defs><mask maskUnits="userSpaceOnUse" x="14.6" y="7.3" width="416" height="269.5" id="D"><g filter="url(#A)"><defs/><mask maskUnits="userSpaceOnUse" x="14.6" y="7.3" width="416" height="269.5" id="D"/><linearGradient id="E" gradientUnits="userSpaceOnUse" x1="222.614" y1="2.327" x2="222.614" y2="174.842"><stop offset="0" stop-color="#fff"/><stop offset="1"/></linearGradient><use xlink:href="#B" mask="url(#D)" fill="url(#E)"/></g></mask><use xlink:href="#B" opacity=".47" fill="#c3f3f4"/><linearGradient id="F" gradientUnits="userSpaceOnUse" x1="111.4" y1="265.548" x2="166.899" y2="265.548"><stop offset="0" stop-color="#ff9340"/><stop offset="1" stop-color="#ffce45"/></linearGradient><path d="M111.4 262.2h55.5v6.7h-55.5z" fill="url(#F)"/><linearGradient id="G" gradientUnits="userSpaceOnUse" x1="113.425" y1="258.867" x2="168.924" y2="258.867"><stop offset="0" stop-color="#f58631"/><stop offset="1" stop-color="#f2c23f"/></linearGradient><path d="M113.4 255.5h55.5v6.7h-55.5z" fill="url(#G)"/><linearGradient id="H" gradientUnits="userSpaceOnUse" x1="112.294" y1="252.186" x2="167.793" y2="252.186"><stop offset="0" stop-color="#ff9340"/><stop offset="1" stop-color="#ffce45"/></linearGradient><path d="M112.3 248.8h55.5v6.7h-55.5z" fill="url(#H)"/><linearGradient id="I" gradientUnits="userSpaceOnUse" x1="113.425" y1="245.505" x2="168.924" y2="245.505"><stop offset="0" stop-color="#f58631"/><stop offset="1" stop-color="#f2c23f"/></linearGradient><path d="M113.4 242.2h55.5v6.7h-55.5z" fill="url(#I)"/><linearGradient id="J" gradientUnits="userSpaceOnUse" x1="114.373" y1="238.824" x2="169.873" y2="238.824"><stop offset="0" stop-color="#ff9340"/><stop offset="1" stop-color="#ffce45"/></linearGradient><path d="M114.4 235.5h55.5v6.7h-55.5z" fill="url(#J)"/><linearGradient id="K" gradientUnits="userSpaceOnUse" x1="115.796" y1="271.953" x2="171.295" y2="271.953"><stop offset="0" stop-color="#f58631"/><stop offset="1" stop-color="#f2c23f"/></linearGradient><path d="M115.8 268.6h55.5v6.7h-55.5z" fill="url(#K)"/><linearGradient id="L" gradientUnits="userSpaceOnUse" x1="175.682" y1="271.785" x2="231.181" y2="271.785"><stop offset="0" stop-color="#f58631"/><stop offset="1" stop-color="#f2c23f"/></linearGradient><path d="M175.7 268.4h55.5v6.7h-55.5z" fill="url(#L)"/><linearGradient id="M" gradientUnits="userSpaceOnUse" x1="174.448" y1="265.104" x2="229.947" y2="265.104"><stop offset="0" stop-color="#ff9340"/><stop offset="1" stop-color="#ffce45"/></linearGradient><path d="M174.4 261.8h55.5v6.7h-55.5z" fill="url(#M)"/><linearGradient id="N" gradientUnits="userSpaceOnUse" x1="176.714" y1="258.424" x2="232.213" y2="258.424"><stop offset="0" stop-color="#f58631"/><stop offset="1" stop-color="#f2c23f"/></linearGradient><path d="M176.7 255.1h55.5v6.7h-55.5z" fill="url(#N)"/><linearGradient id="O" gradientUnits="userSpaceOnUse" x1="182.367" y1="245.883" x2="236.721" y2="258.165"><stop offset="0" stop-color="#ff9340"/><stop offset="1" stop-color="#ffce45"/></linearGradient><path d="M237.2 256l-55.5-1.3.2-6.7 55.5 1.3z" fill="url(#O)"/><linearGradient id="P" gradientUnits="userSpaceOnUse" x1="242.218" y1="275.473" x2="281.445" y2="275.473"><stop offset="0" stop-color="#f58631"/><stop offset="1" stop-color="#f2c23f"/></linearGradient><path d="M242.2 273.1h39.2v4.7h-39.2z" fill="url(#P)"/><linearGradient id="Q" gradientUnits="userSpaceOnUse" x1="241.346" y1="270.751" x2="280.573" y2="270.751"><stop offset="0" stop-color="#ff9340"/><stop offset="1" stop-color="#ffce45"/></linearGradient><path d="M241.3 268.4h39.2v4.7h-39.2z" fill="url(#Q)"/><linearGradient id="R" gradientUnits="userSpaceOnUse" x1="242.948" y1="266.029" x2="282.175" y2="266.029"><stop offset="0" stop-color="#f58631"/><stop offset="1" stop-color="#f2c23f"/></linearGradient><path d="M242.9 263.7h39.2v4.7h-39.2z" fill="url(#R)"/><linearGradient id="S" gradientUnits="userSpaceOnUse" x1="246.943" y1="257.165" x2="285.361" y2="265.846"><stop offset="0" stop-color="#ff9340"/><stop offset="1" stop-color="#ffce45"/></linearGradient><path d="M285.7 264.3l-39.2-.9.1-4.7 39.2.9z" fill="url(#S)"/><linearGradient id="T" gradientUnits="userSpaceOnUse" x1="85.315" y1="153.801" x2="341.611" y2="153.801"><stop offset="0" stop-color="#3ddb6f"/><stop offset="1" stop-color="#84f0b1"/></linearGradient><path d="M282.1 96.7H85.8L85.3 200l82.5 10.9 149.6-5.3 23.3-11.6.9-97.3z" fill="url(#T)"/><linearGradient id="U" gradientUnits="userSpaceOnUse" x1="216.274" y1="171.206" x2="247.583" y2="171.206"><stop offset="0" stop-color="#3ddb6f"/><stop offset="1" stop-color="#84f0b1"/></linearGradient><path d="M216.3 186.7v-.5c17 0 30.8-13.7 30.8-30.6h.5c0 17.2-14.1 31.1-31.3 31.1z" fill="url(#U)"/><linearGradient id="V" gradientUnits="userSpaceOnUse" x1="85.315" y1="134.271" x2="316.645" y2="134.271"><stop offset="0" stop-color="#3ddb6f"/><stop offset="1" stop-color="#84f0b1"/></linearGradient><path d="M95.5 172.4l.5-46.1s14.6-6.4 16.7-13.8l2.1-7.3 201.9.5v-10H85.4v77.1l.5-76.1 199.1-1" fill="url(#V)"/><linearGradient id="W" gradientUnits="userSpaceOnUse" x1="186.33" y1="135.244" x2="216.274" y2="135.244"><stop offset="0" stop-color="#2b9c27"/><stop offset="1" stop-color="#2eb64d"/></linearGradient><path d="M187.3 146.1l-.9-.3c2.2-6.5 6.6-12.3 12.4-16.1 5.2-3.5 11.3-5.3 17.5-5.3v1a30.85 30.85 0 0 0-17 5.1c-5.6 3.7-9.9 9.3-12 15.6z" fill="url(#W)"/><linearGradient id="X" gradientUnits="userSpaceOnUse" x1="216.274" y1="131.495" x2="230.082" y2="131.495"><stop offset="0" stop-color="#2b9c27"/><stop offset="1" stop-color="#2eb64d"/></linearGradient><path d="M229.6 133.8c-4-2.4-8.6-3.7-13.3-3.7v-1c4.9 0 9.7 1.3 13.8 3.8l-.5.9z" fill="url(#X)"/><linearGradient id="Y" gradientUnits="userSpaceOnUse" x1="180.532" y1="136.167" x2="237.366" y2="136.167"><stop offset="0" stop-color="#2b9c27"/><stop offset="1" stop-color="#2eb64d"/></linearGradient><path d="M181.5 152.3l-1-.1c.9-8.8 5-16.9 11.5-22.8 6.6-6 15.2-9.3 24.2-9.3 7.6 0 14.9 2.3 21.1 6.8l-.6.8c-6-4.3-13.1-6.6-20.5-6.6-18-.1-32.9 13.4-34.7 31.2z" fill="url(#Y)"/><defs><path id="Z" d="M278.7 197.2H84.8V95.7h220.4v101.4l-26.5.1zm-192.9-1h218.5V96.7H85.8v99.5zm15.3-77.9l-.6-.8c3.7-2.8 6.7-6.5 8.4-10.7l.9.4c-1.7 4.4-4.8 8.2-8.7 11.1z"/></defs><clipPath id="a"><use xlink:href="#Z"/></clipPath><path d="M100.6 106.8h1.7v11.5h-1.7z" class="Av Ax"/><path d="M102.2 106.8h5.8v11.5h-5.8z" class="Av Ay"/><path d="M108 106.8h1.9v11.5H108z" class="Av Az"/><path d="M85.8 96.7h4.8v99.5h-4.8z" fill="#2b9c27" class="Av"/><path d="M90.6 96.7h5.8v99.5h-5.8z" fill="#2b9d28" class="Av"/><path d="M96.4 96.7h5.8v99.5h-5.8z" class="Av Ax"/><path d="M102.2 96.7h5.8v99.5h-5.8z" class="Av Ay"/><path d="M108 96.7h5.8v99.5H108z" class="Av Az"/><path d="M113.8 96.7h5.8v99.5h-5.8z" fill="#2ba02c" class="Av"/><path d="M119.6 96.7h5.8v99.5h-5.8z" fill="#2ba02d" class="Av"/><path d="M125.4 96.7h5.8v99.5h-5.8z" fill="#2ca12e" class="Av"/><path d="M131.2 96.7h5.8v99.5h-5.8z" fill="#2ca22f" class="Av"/><path d="M137 96.7h5.8v99.5H137z" fill="#2ca230" class="Av"/><path d="M142.8 96.7h5.8v99.5h-5.8z" fill="#2ca331" class="Av"/><path d="M148.6 96.7h5.8v99.5h-5.8z" fill="#2ca432" class="Av"/><path d="M154.4 96.7h5.8v99.5h-5.8z" fill="#2ca433" class="Av"/><path d="M160.2 96.7h5.8v99.5h-5.8z" fill="#2ca534" class="Av"/><path d="M166 96.7h5.8v99.5H166z" fill="#2ca635" class="Av"/><path d="M171.8 96.7h5.8v99.5h-5.8z" fill="#2ca736" class="Av"/><path d="M177.6 96.7h5.8v99.5h-5.8z" fill="#2ca737" class="Av"/><path d="M183.4 96.7h5.8v99.5h-5.8z" fill="#2ca838" class="Av"/><path d="M189.2 96.7h5.8v99.5h-5.8z" fill="#2ca939" class="Av"/><path d="M195 96.7h5.8v99.5H195z" fill="#2da93b" class="Av"/><path d="M200.8 96.7h5.8v99.5h-5.8z" fill="#2daa3c" class="Av"/><path d="M206.6 96.7h5.8v99.5h-5.8z" fill="#2dab3d" class="Av"/><path d="M212.4 96.7h5.8v99.5h-5.8z" fill="#2dab3e" class="Av"/><path d="M218.2 96.7h5.8v99.5h-5.8z" fill="#2dac3f" class="Av"/><path d="M224 96.7h5.8v99.5H224z" fill="#2dad40" class="Av"/><path d="M229.8 96.7h5.8v99.5h-5.8z" fill="#2dae41" class="Av"/><path d="M235.6 96.7h5.8v99.5h-5.8z" fill="#2dae42" class="Av"/><path d="M241.5 96.7h5.8v99.5h-5.8z" fill="#2daf43" class="Av"/><path d="M247.3 96.7h5.8v99.5h-5.8z" fill="#2db044" class="Av"/><path d="M253.1 96.7h5.8v99.5h-5.8z" fill="#2db045" class="Av"/><path d="M258.9 96.7h5.8v99.5h-5.8z" fill="#2db146" class="Av"/><path d="M264.7 96.7h5.8v99.5h-5.8z" fill="#2eb247" class="Av"/><path d="M270.5 96.7h5.8v99.5h-5.8z" fill="#2eb248" class="Av"/><path d="M276.3 96.7h5.8v99.5h-5.8z" fill="#2eb349" class="Av"/><path d="M282.1 96.7h5.8v99.5h-5.8z" fill="#2eb44a" class="Av"/><path d="M287.9 96.7h5.8v99.5h-5.8z" fill="#2eb54b" class="Av"/><path d="M293.7 96.7h5.8v99.5h-5.8z" fill="#2eb54c" class="Av"/><path d="M299.5 96.7h4.8v99.5h-4.8z" fill="#2eb64d" class="Av"/><g fill="#2b9c27"><path d="M84.8,95.7v101.4V95.7z" class="Av"/><path d="M84.8 95.7h5.8v101.4h-5.8z" class="Av"/></g><path d="M90.6 95.7h5.8v101.4h-5.8z" fill="#2b9d28" class="Av"/><path d="M96.4 95.7h5.8v101.4h-5.8z" class="Av Ax"/><path d="M102.2 95.7h5.8v101.4h-5.8z" class="Av Ay"/><path d="M108 95.7h5.8v101.4H108z" class="Av Az"/><path d="M113.8 95.7h5.8v101.4h-5.8z" fill="#2ba02c" class="Av"/><path d="M119.6 95.7h5.8v101.4h-5.8z" fill="#2ba02d" class="Av"/><path d="M125.4 95.7h5.8v101.4h-5.8z" fill="#2ca12e" class="Av"/><path d="M131.2 95.7h5.8v101.4h-5.8z" fill="#2ca22f" class="Av"/><path d="M137 95.7h5.8v101.4H137z" fill="#2ca230" class="Av"/><path d="M142.8 95.7h5.8v101.4h-5.8z" fill="#2ca331" class="Av"/><path d="M148.6 95.7h5.8v101.4h-5.8z" fill="#2ca432" class="Av"/><path d="M154.4 95.7h5.8v101.4h-5.8z" fill="#2ca433" class="Av"/><path d="M160.2 95.7h5.8v101.4h-5.8z" fill="#2ca534" class="Av"/><path d="M166 95.7h5.8v101.4H166z" fill="#2ca635" class="Av"/><path d="M171.8 95.7h5.8v101.4h-5.8z" fill="#2ca736" class="Av"/><path d="M177.6 95.7h5.8v101.4h-5.8z" fill="#2ca737" class="Av"/><path d="M183.4 95.7h5.8v101.4h-5.8z" fill="#2ca838" class="Av"/><path d="M189.2 95.7h5.8v101.4h-5.8z" fill="#2ca939" class="Av"/><path d="M195 95.7h5.8v101.4H195z" fill="#2da93b" class="Av"/><path d="M200.8 95.7h5.8v101.4h-5.8z" fill="#2daa3c" class="Av"/><path d="M206.6 95.7h5.8v101.4h-5.8z" fill="#2dab3d" class="Av"/><path d="M212.4 95.7h5.8v101.4h-5.8z" fill="#2dab3e" class="Av"/><path d="M218.2 95.7h5.8v101.4h-5.8z" fill="#2dac3f" class="Av"/><path d="M224 95.7h5.8v101.4H224z" fill="#2dad40" class="Av"/><path d="M229.8 95.7h5.8v101.4h-5.8z" fill="#2dae41" class="Av"/><path d="M235.6 95.7h5.8v101.4h-5.8z" fill="#2dae42" class="Av"/><path d="M241.5 95.7h5.8v101.4h-5.8z" fill="#2daf43" class="Av"/><path d="M247.3 95.7h5.8v101.4h-5.8z" fill="#2db044" class="Av"/><path d="M253.1 95.7h5.8v101.4h-5.8z" fill="#2db045" class="Av"/><path d="M258.9 95.7h5.8v101.4h-5.8z" fill="#2db146" class="Av"/><path d="M264.7 95.7h5.8v101.4h-5.8z" fill="#2eb247" class="Av"/><path d="M270.5 95.7h5.8v101.4h-5.8z" fill="#2eb248" class="Av"/><path d="M276.3 95.7h5.8v101.4h-5.8z" fill="#2eb349" class="Av"/><path d="M282.1 95.7h5.8v101.4h-5.8z" fill="#2eb44a" class="Av"/><path d="M287.9 95.7h5.8v101.4h-5.8z" fill="#2eb54b" class="Av"/><path d="M293.7 95.7h5.8v101.4h-5.8z" fill="#2eb54c" class="Av"/><g fill="#2eb64d"><path d="M299.5 95.7h5.8v101.4h-5.8z" class="Av"/><path d="M305.3,197.2V95.7V197.2z" class="Av"/></g><linearGradient id="b" gradientUnits="userSpaceOnUse" x1="84.827" y1="155.926" x2="347.712" y2="155.926"><stop offset="0" stop-color="#2b9c27"/><stop offset="1" stop-color="#2eb64d"/></linearGradient><path d="M347.2 216.1H84.8v-31.3h1v30.3h260.9V96.2h-31.8v-.5h32.8v120.4h-.5zm-29.4-10H115.5l-.1-.3c-3.2-9.2-10.7-16.4-20.1-19.2l.3-.9c9.6 2.9 17.3 10.1 20.6 19.5H317c3-9.3 10.2-16.8 19.5-20.1v-59.4c-9.5-3-17.1-10.3-20.4-19.7l.9-.3c3.2 9.2 10.7 16.4 20.1 19.2l.3.1v60.8l-.3.1c-9.3 3.2-16.5 10.6-19.3 19.9v.3zM95.9 166.5h-1v-40.8l.3-.1c9.3-3.2 16.5-10.6 19.3-19.9l.1-.3h150.6v1H115.5c-3 9.3-10.2 16.8-19.5 20.1v40z" fill="url(#b)"/><linearGradient id="c" gradientUnits="userSpaceOnUse" x1="187.013" y1="156.33" x2="241.45" y2="156.33"><stop offset="0" stop-color="#2b9c27"/><stop offset="1" stop-color="#2eb64d"/></linearGradient><ellipse cx="214.2" cy="156.3" rx="27.2" ry="27" fill="url(#c)"/><path d="M206.8 144.5c.7 1.1 1.2 2.4 1.4 4.1l4.3.2-.2 3.1-4.3-.2c-.8 4.3-3.9 6.7-7.6 6.8 2.4 3.3 5.2 7.6 7.9 12l-6.1-.3c-2-3.2-4.7-7.5-7.5-11.4l.2-4.5 2.3.1c3.2.2 4.8-1 5.4-2.9l-7.5-.4.2-3.1 7.4.4c-.5-1.5-1.9-2.6-4.4-2.7l-2.8-.1.2-4.7 17.2.9-.2 3.1-5.9-.4zm26 12.8c-.5 8.8-3.8 14.7-10 14.4-6.3-.3-8.7-7.1-8.3-15.2.4-8.3 3.7-14.6 10-14.3 6.5.3 8.7 7.3 8.3 15.1zm-12.6-.5c-.4 6.5.8 9.7 3 9.8s3.6-3.1 3.9-9.6c.3-6.3-.7-9.7-2.9-9.8-2.1-.1-3.7 3-4 9.6z" fill="#17ff86"/><linearGradient id="d" gradientUnits="userSpaceOnUse" x1="85.315" y1="155.684" x2="347.224" y2="155.684"><stop offset="0" stop-color="#2b9c27"/><stop offset="1" stop-color="#2eb64d"/></linearGradient><path d="M189.2 96.7s91.9 3 84.7 9.1h42.7c3.2 9.3 10.9 16.6 20.4 19.5v60.1c-9.4 3.2-16.8 10.8-19.7 20.3H115.9c-3.2-9.3-10.9-16.6-20.4-19.5v-13.7c-3.3.2-6.7.3-10.1.4v42.8h261.9v-120l-158.1 1z" fill="url(#d)"/><linearGradient id="e" gradientUnits="userSpaceOnUse" x1="138.658" y1="108.847" x2="216.133" y2="108.847"><stop offset="0" stop-color="#2b9c27"/><stop offset="1" stop-color="#2eb64d"/></linearGradient><path d="M138.7 108.4h77.5v1h-77.5z" fill="url(#e)"/><path d="M371.5 179s-5.9-13.2.9-12.1c0 0 2.3 1.9 4.7 5.8 1.8 2.9 5.5 10.7 5.4 13.3s-2 4.6-4.1 8.8c0 0-4.2 7.8-4.4 8.8l-4.5-2.3s3.8-7.5 6.4-14l-4.4-8.3z" class="BA"/><path d="M405.9 218.5L316 203.4l2.6-15.2 89.9 15.2z" fill="#7556b8"/><path d="M316.3 201.5l-4.8-.8 2-11.5 4.8.8z" fill="#2d3038"/><path d="M337.5 290.7h-1.1s.4-4.1-.7-4.2c-1 0-3.6 3.4-5.1 3.9s-9.3 1-9.3-.4 3-2 3.9-2.4 5.5-4.8 6.4-5.4c.8-.5 2.2-4.2 2.2-4.2l4.3-.2.5 5.3.2 1.7c.1 1.5-1.3 5.9-1.3 5.9zm28-.9h-.9V286c-.8.1-3.4 2.5-4.2 3.2s-1.9.7-5.3.9-3.7-1.8-3.1-2.5c.5-.7 2.3-1 3.1-1.4.9-.4 4.4-4.4 5.4-5.3.9-.9 1.5-3.6 1.5-3.6l3.9.3s0 2.5.4 4.5h0c0 .2.1.3.1.5.8 2.2-.9 7.2-.9 7.2z" class="Aw"/><g fill="#1d3b54"><path d="M351 202.4s-1.5 3.5-1.6 4.4-3.6 9.2-4.6 14.8c-.6 3.4-2.3 13.9-2.4 15.2-.2 2.3-1.3 7.4-1.5 9.7-.1 1.3-6.6 21.4-8.2 31.9 0 0 3.7.5 6.6-.2 0 0 5.7-10.8 8.9-26.2 1.9-9.3 3.6-14.2 5.1-18s9.9-14.6 10.7-15.8c.9-1.2 6.4-7.9 1.2-15.2-5.3-7.3-14.2-.6-14.2-.6z"/><path d="M369.7 233.3c-.5 3.1 0 7.2 1 18.7 1 11.4-1.7 25.3-1.7 25.3-3.4 1.2-7.4 0-7.4 0 .1-.8 0-27.9 0-30.3s-.7-5.2-.9-7.9c-.1-1.9-1-5.4-2-8.9l-.9-3.2c-.2-.6-.3-1.2-.5-1.7-1.4-4.8-3.3-23.5-3.3-23.5s10.5-8.4 15.6-.5 2.5 13.6 2.3 14.6c-.2.9-1.7 14.2-2.2 17.4z"/></g><path d="M365.4 216.5c-.1.2-5.3 11.7-6.6 13.6l-.9-3.2 7.5-10.4z" fill="#122536"/><path d="M365.5 289.8h-.9V286c-.8.1-3.4 2.5-4.2 3.2s-1.9.7-5.3.9-3.7-1.8-3.1-2.5c.5-.7 2.3-1 3.1-1.4 3.6.2 8-4.8 10.1-4.8 1.1 0 1.1.6 1.1.7h0c0 .2.1.3.1.5.8 2.2-.9 7.2-.9 7.2zm-28 .9h-1.1s.4-4.1-.7-4.2c-1 0-3.6 3.4-5.1 3.9s-9.3 1-9.3-.4 3-2 3.9-2.4c3.2 0 8.4-3.5 10.1-4.2 1.6-.7 3.4-.3 3.4-.3.1.7.2 1.3.2 1.7 0 1.5-1.4 5.9-1.4 5.9z" fill="#172f42"/><path d="M360.2 158.6s1.7 4.4.4 7.8c0 0 6.1-.4 6.4-1.1.2-.7-.2-7.3.6-9.2.8-2-7.4 2.5-7.4 2.5z" class="Aw"/><g class="BA"><path d="M359.6 164.9s-3.6 1.3-5.3 1.6c-1.6.4-5.1 2-4.8 8s1.3 11.3 1.7 13.9.1 9.2-.5 12.4c0 0 8.7 2.2 18.9 0 0 0-1.8-5.5-1.8-6.9s6-13.1 6.3-14.9 1.5-10-1.3-11.8c-2.7-1.8-5-1.6-6.1-2.4-1-.7-5.4-.5-7.1.1z"/><path d="M373.6 210.4c-14.8 3.9-26.6 0-26.6 0 1.1-2.2 1.9-4.4 2.4-6.5.4-1.5.7-3 .9-4.4h0c1.2-8-.4-14.1-.4-14.1 1.7-14 23-18.1 24.7-13.7s-3.3 23.4-3.6 25.1c-.1 1.6 2.6 13.6 2.6 13.6z"/></g><path d="M365.6 141.1c-2.5-.8-9.1-1.7-10.8 8.4s2 10.3 5.8 10 9.8-7.1 10.2-9.2c.5-2.1 1.8-6.9-5.2-9.2z" class="Aw"/><path d="M356.1 144.9s2 4.3 4.7 5.8c0 0 1.7 4.6 5.3 6.4 0 0 9.6-6.3 4-13.8-5.5-7.4-13.3-1.4-14 1.6z" fill="#fccca2"/><path d="M360.6 149.3c.2-.5 1.7-1.4 2.3.1.6 1.4-1.7 4-2.3 3.9-.7-.3-.8-2 0-4z" class="Aw"/><path d="M369.8 144.5c.2-.3 6.6-3.2 7.9 2.9s-5.1 13.2-6.2 16.2.5 10.2.5 10.2-3.9-3.6-5-7.4c-1.4-4.2-1.8-14.7 2.8-21.9z" fill="#fccca2"/><path d="M370.1 144.3s-1.9 1.5-2.2 3.9c0 0-.4-1.9.4-3s1.8-.9 1.8-.9z" fill="#e54242"/><path d="M349.4 203.9c.4-1.5.7-3 .9-4.4h0l1.3-3c.3-1 2.8-13.1 2.8-13.1s2.6 11.4-5 20.5z" fill="#b88311"/><path d="M338.5 204.6s-1.9 1.9-2.5 2.1-1.8-.9-6.2-1.2c-.4 0-1.1.3-.9.8s2.1 1.9 2.9 2.1 4.7 1.7 6.6 1 3.2-3.1 3.2-3.1l-3.1-1.7z" class="Aw"/><path d="M353.4 166.9s-5.1 2-5.4 9-.6 10.6-.8 11.7c-.3 1.1-.8 5.4-2.1 8-1.2 2.5-9.4 10.5-9.4 10.5l3.9 3.7s11.3-11.3 12-13.3c.7-2.1 3.5-16.4 3.7-18.8.3-2 2.9-10.7-1.9-10.8z" class="BA"/><path d="M210.9 182.9c0 26.1 21.3 47.2 47.6 47.2s47.6-21.1 47.6-47.2-21.3-47.2-47.6-47.2c-26.3.1-47.6 21.2-47.6 47.2z" opacity=".1" fill="#b8b8b8"/><path d="M290.2 148.4s-61.2-7.5-73.4 56.5h0c-3.5-6.5-5.5-14-5.5-21.9 0-25.8 21.1-46.8 47.2-46.8a47.04 47.04 0 0 1 31.7 12.2z" opacity=".3" fill="#869ac2"/><path d="M258.5 127c-31.2 0-56.4 25-56.4 55.9s25.3 55.9 56.4 55.9c31.2 0 56.4-25 56.4-55.9 0-30.8-25.3-55.9-56.4-55.9zm0 102.5c-25.9 0-47-20.9-47-46.6s21-46.6 47-46.6c25.9 0 47 20.9 47 46.6 0 25.8-21.1 46.6-47 46.6z" fill="#3f444f"/><linearGradient id="f" gradientUnits="userSpaceOnUse" x1="85.804" y1="149.023" x2="276.852" y2="149.023"><stop offset="0" stop-color="#2b9c27"/><stop offset="1" stop-color="#2eb64d"/></linearGradient><path d="M114.7 105.3s-7.7 16.3-18.8 21.1l-.6 75-9.5-5.1V96.7l191 9.1-11.5.5-150.6-1z" fill="url(#f)"/><g fill="#efaa88"><path d="M100.3 198.6s2 .7 2.9-.2c.7-.7 2.2-1.2 2.6-1.3.6-.2 2.3-1.4 2.5-.7.2.8-2.6 2.2-3.2 2.6-.5.4 2.4 1.1 2.9 1.6s-.9 5.4-2.9 4.7-3.7-2.7-4.1-2.8l-1.5-.4.8-3.5z"/><path d="M107.7 200.4s6 2.5 6.2 3c.3.5.1.8-.5.6l-5.9-2.2 6.9 4.5c.2.2-.1.8-.4.8-.3-.1-7.1-3.8-7.1-3.8l6.3 4.2c.1.3-.2.8-.7.6l-6.4-3.5s4.3 3.1 4.2 3.5c0 .2-.2.8-1.3 0l-3.8-2.5 2.5-5.2z"/></g><path d="M73.4 169.8s8.1 12.1 12.8 16.6c1.5 1.4 16 11.2 16.6 11.8.5.6-1.4 5.4-1.4 5.4l-19.7-11.4c-1.1-.7-14.6-16-15.3-18.2-.7-2.1-.4-4.6 1.8-5.6 3-1.5 5.2 1.4 5.2 1.4z" fill="#292c47"/><g fill="#f8bb66"><path d="M92.5 200.4c-2.7-15.4 7.6-30 23.2-32.7 15.5-2.7 30.3 7.6 33 23s-7.6 30-23.2 32.7c-15.5 2.7-30.3-7.6-33-23z"/><path d="M127.1 223.1l-9.8-55.6c14.9-1.7 28.7 8.4 31.3 23.2s-6.9 28.9-21.5 32.4zm-34.6-22.7c-2.3-13 4.8-25.5 16.4-30.7l9.6 54c-12.8-.9-23.7-10.2-26-23.3z"/></g><path d="M98.9 195c.3-11.9 10.3-21.2 22.2-20.9 12 .3 21.4 10.2 21.1 22-.3 11.9-10.3 21.2-22.2 20.9-12-.3-21.4-10.1-21.1-22z" fill="#f89829"/><path d="M117.1 185.5c.5 1 .8 2.2.8 3.7l3.3.5-.3 2.8-3.3-.5c-.9 3.8-3.4 5.7-6.2 5.6 1.7 3.1 3.6 7.2 5.3 11.2l-4.7-.7c-1.3-3-3.2-7-5.1-10.7l.4-4 1.8.3c2.4.3 3.8-.6 4.3-2.3l-5.8-.8.3-2.8 5.7.8c-.3-1.4-1.3-2.4-3.2-2.7l-2.2-.3.5-4.2 13.2 1.9-.3 2.8-4.5-.6zm19.2 13.1c-.9 7.9-3.8 13-8.5 12.3-4.8-.7-6.3-6.9-5.5-14.1.8-7.4 3.8-12.9 8.5-12.2 5 .6 6.3 7 5.5 14zm-9.6-1.2c-.7 5.8 0 8.8 1.7 9s2.9-2.5 3.6-8.3c.6-5.7.1-8.8-1.7-9-1.6-.3-3 2.3-3.6 8.3z" fill="#ffc7a1"/><path d="M45.3 269.4l2.3 1.1c1.4.7 2.9 1.5 4.8 1.6s3.9.8 3.8 2.6-6.3 2.4-12.1 1.4-5.9-1.1-5.9-1.6c0-.4.4-5 .6-5.1.3-.1 6.5 0 6.5 0z" fill="#1b1d2e"/><path d="M45.8 267.4l-.4 2.3c0 .2-6.9 1.4-6.6 0 .4-1.5 2.5-4.4 2.5-4.4l4.5 2.1z" fill="#1f2136"/><path d="M70.7 220.1c-.5-5.6-19.4-17.8-20.3-12.5s6.9 17.5 7.4 21.5.1 5-3 8.5c-3 3.4-15.9 28.9-15.9 28.9.4 1.9 7.1 2.5 7.3 2.1s18.3-24.2 19.3-25.1 4.6-5 5.1-6.9c.3-1.3.9-6.8.6-10.7 0-.1-.4-5.3-.5-5.8z" class="BB"/><path d="M81.9 269.2s1.2.2 2.6.9 3.3 1.9 5.2 2.1c2 .1 4.2.9 4 2.8-.1 1.9-6.6 2.4-12.5 1.3-5.9-1-6-1.2-6-1.6 0-.5.2-3.9.5-4.8.2-.3 6.2-.7 6.2-.7z" fill="#1b1d2e"/><path d="M83.8 267.7s-.6 1.7-.4 1.9-7.8.9-7.6.2c.1-.4 1.2-2.8 1.8-4 .5-1 6.2 1.9 6.2 1.9z" fill="#1f2136"/><path d="M76.2 205.3S98 221.7 100.5 225c2.4 3.4-.3 8.3-.7 10-.4 1.6-15.6 30.7-15.8 33.5 0 0-6.7.9-8.4-1.2L86.9 234c1.6-5.3-5.4-6.1-9.7-8S54.1 213.1 53 209c-1-3.8 0-6.6 0-6.6s5.2-3.4 23.2 2.9z" class="BB"/><path d="M78 165s1.6 7.1 1.2 11.1c-.4 3.9-4.5 14-4.8 16.2s1.8 13 1.8 13L51.7 209s0-6.3.9-13.8 3.7-13.4 4.7-17.6c3.4-14.4 15.8-16.4 15.8-16.4L78 165z" fill="#cfbeb6"/><g class="Aw"><path d="M89.9 149s1.6 3.8.6 4.3c-.9.4.5 4.1.7 4.7s-1.6.9-2 1.2-2 4.8-3.4 4.8-7.5-2.8-9-4.8c-1.5-1.9-2.1-10.1-.6-13.3 1.5-3.1 10.9-3.6 13.7 3.1z"/><path d="M81.7 162.7l-.5.9c-.1.2-.3.5-.4.8-.1.2-.2.4-.4.7-.8 1.5-1.7 3.3-1.9 4.3-.4 1.8-4.4-8.1-4.4-8.1s2.9-5 5.2-11.1c2.2-6.1 2.4 12.5 2.4 12.5z"/></g><path d="M90.2 149.9s2.4-3.7-.9-7c-3.4-3.3-10.7 1.1-11.4 1.2-.8.1-5.1-.1-3.7 7.7 1.1 6.7 1.5 6.5 1.5 6.5s1.7-3.2 2.6-3.7c1.3-.8 4-.3 4-.3s-.9-3.5 1.1-3.8c2-.2 4.8-1.6 6.8-.6z" class="BB"/><path d="M80.2 152.2c-.1-.5-.5-2.6-2.4-1.6s.6 5.1.9 5.2 2.6.5 1.5-3.6z" class="Aw"/><path d="M74.4 160.4s2.5 5.9 4.7 7.9l-1 3.5-5-10.7 1.3-.7z" fill="#eddad3"/><path d="M76.2 205.3l-.4-2.3-24.1 3.5v2.4z" fill="#3d4169"/><g fill="#323657"><path d="M77.3 178.8l-1.8 3.8-3.3 8.5-1 3C67.5 205.9 60.1 214 60.1 214s-9.6-1.8-11.7-3.6c0 0 2.1-13.7 6.6-26.7.3-1 .7-2 1.1-3 3.4-12.7 9.6-19.6 17.1-19.6.1.2 7.4 11.1 4.1 17.7z"/><path d="M54.7 184.6s-3.2 13.6-11.1 24.3c-1.1 1.5 10.5 3.7 10.5 3.7l.6-28z"/></g><path d="M65.6 174.1c-3.3 2.8-10.6 9.6-10.6 9.6.3-1 .7-2 1.1-3 2.6-2.1 9.4-6.6 9.5-6.6z" fill="#1d2133"/><path d="M81.7 162.7l-.5.9c-.1.2-.3.5-.4.8-3.1-2.8-3.7-4.7-3.7-4.8 1.4 1.3 4.6 3.1 4.6 3.1z" fill="#a77860"/><path d="M79.2 171.7s-2.2 8.5-9.8 8.3c-6.8-.2-16.9 2.2-20.3 4.4l-4.3 3 1.4-4.4s3.6-6.8 23.2-3.9c0 0 5.9 1.7 9-8.4 0 0 1 .6.8 1z" fill="#7556b8"/><path d="M79.1 168.5s.4 2.4.1 3.3c-.1.3-1-.2-1-.2l.9-3.1z" fill="#548ad1"/><g class="Aw"><path d="M107.4 194.3s.5.4 1.1.4c.9 0 2-1.1 3-.2s-1 4.9-1.7 5.4-2.5-.3-4.3-2.5c-1.9-2.1 1.9-3.1 1.9-3.1z"/><path d="M111.1 194.3s1.9.6 4 1.5c1.8.8 3.9 2.1 3.7 2.6-.3.7-1.9-.6-3.8-1.3-1.7-.6-1.5-.2-1.5-.2s-.1-.1 1.7.9c1.8 1.1 3.8 2.4 3.6 2.8-.2.5-.3.5-1 .2.4.3.4.4.3.6-.5.9-3.5-.4-4.7-.9.9.4 1.5.8.9 1.1-.8.4-4.9-1.6-6.4-2.1-1.7-.5 3.2-5.2 3.2-5.2z"/></g><path d="M74.8 165.4s9.5 12.8 14.8 17.4c1.7 1.5 18.4 10.5 19 11.1s-1.5 6.9-1.5 6.9L85 189.4c-1.2-.7-17.8-19.3-18.7-21.6-.8-2.3.4-2.6 2.7-3.8 3.3-1.6 5.8 1.4 5.8 1.4z" fill="#323657"/><linearGradient id="g" gradientUnits="userSpaceOnUse" x1="85.804" y1="101.238" x2="289.865" y2="101.238"><stop offset="0" stop-color="#2b9c27"/><stop offset="1" stop-color="#2eb64d"/></linearGradient><path d="M289.9 105.8v-9.1H85.8" fill="url(#g)"/><path d="M337.1 125.3s-12.8-4.5-18.5-13.7-2.4-5.6-2.4-5.6l-201.4-.6s5.3-5.1-1 3.8c-6.1 8.6-16 16-17.8 17.3l-.5 46.1c89.6 2.2 230.6-34.1 241.1-32.7" opacity=".25" fill="#c3f3f4"/></svg>