<svg xmlns="http://www.w3.org/2000/svg" xmlns:xlink="http://www.w3.org/1999/xlink" width="445" height="297" xmlns:v="https://vecta.io/nano"><style><![CDATA[.BV{fill:#fff}.BW{overflow:visible}.BX{clip-path:url(#d)}.BY{fill:#ff73b3}.BZ{fill:#c00058}.Ba{fill:#4058e7}.Bb{fill:#6d82ff}.Bc{fill:#031162}.Bd{fill:#4a81e0}.Be{fill:#ffce4b}.Bf{fill:#c08d05}.Bg{flood-color:#fff}.Bh{flood-opacity:1}.Bi{fill:#9bef51}.Bj{fill:#5eb020}.Bk{filter:url(#AK)}.Bl{fill:#3f2971}.Bm{fill:#ffb583}.Bn{fill:#2d8b8c}.Bo{fill:#136263}.Bp{fill:#63dcf9}.Bq{fill:#189bba}.Br{fill:#8a654d}.Bs{clip-path:url(#Y)}.Bt{fill:#259fff}.Bu{fill:#211111}.Bv{fill:#593857}.Bw{fill:#37a8aa}.Bx{clip-path:url(#b)}.By{clip-path:url(#k)}]]></style><g fill="#637cc7"><path d="M220.6 166.4s-30 6.1-37.9 11.4c0 0-1 35.3 5 52.1 3.9 11 6.6 22.4 8.4 33.9l2.2 13.6h64.5l.9-10.7c1.5-19.1 5.9-37.9 12.7-55.8a108.5 108.5 0 0 0 1.8-5c3.4-10.1 4.1-27 4.1-27s-39-12.8-61.7-12.5z"/><path d="M182.6 177.8c-10.8 4.8-16.5 12.4-22.2 24s-14.6 28.4-12.3 43.3c1.8 12.1 9.6 22.5 21.7 28.5 6 3 21.5 3.7 28.9 4 1.9-3.3 1.8-7.4 3.1-11-6.5-4-13.1-6.3-19.8-10.4-4.9-3-7.4-10.2-10.2-15.1-.9-1.6-1-2.8-.6-4.6 1.3-6.7 12.4-19.2 14.9-25.6 3.2-8.1-1.6-24.5-3.5-33.1z"/></g><linearGradient id="A" gradientUnits="userSpaceOnUse" x1="177.918" y1="284.247" x2="211.785" y2="248.747"><stop offset="0" stop-color="#ffd8b9"/><stop offset="1" stop-color="#ed835a"/></linearGradient><path d="M182.3 256.4c-8.4 2.4-12.4 8.6-12.4 17.2 11.4 4.6 23.6 6.1 35.5 9l2.5-15.7c-8.4-3.9-17.4-6.4-25.6-10.5z" fill="url(#A)"/><path d="M282.2 178.8c8.9 2.7 11.4 7.7 16.1 18.2s15.6 35.5 15.2 48.8c-.3 9.5-19.9 28.1-27.5 32.5-.6.3-2.3 1.1-4.2 1.8-8.4 3.2-21.8 4.1-30.7 1 .2-5.2.1-10.2.6-15.6 7.9-.7 16.9-2.2 22.5-7.4 5.5-5 10.6-10.4 14-13.7 7-6.7-15.3-23.9-17.6-29.1-2.5-9.8.6-39.8 11.6-36.5z" fill="#637cc7"/><linearGradient id="B" gradientUnits="userSpaceOnUse" x1="277.351" y1="286.99" x2="249.396" y2="252.236"><stop offset="0" stop-color="#ffd8b9"/><stop offset="1" stop-color="#ed835a"/></linearGradient><path d="M274.5 257.8c-7.3 6.3-14.1 6.4-23.1 7.8l-.5 15.5c9 3.1 22.1 2.3 30.8-1 2-.8 2.6-1 4.3-1.9.8-8.5-5.9-14.9-11.5-20.4z" fill="url(#B)"/><g fill="#90a1d7"><path d="M195.9 263.3c-4.6-2.3-9.2-4.2-13.9-7.1s-7.3-9.7-9.9-14.6a6.17 6.17 0 0 0 .8 2.4c2.7 5 5.2 12.1 10 15.1 4.6 2.9 9.1 4.8 13.6 7.1-.9-5.7-2-11.4-3.4-17 1.1 4.7 2 9.4 2.8 14.1zm-11.1-45.4c.6 3.8 1.3 7.3 2.3 10.4-.8-3.3-1.4-7.1-1.9-11-.2.2-.3.4-.4.6zm103.3 26.5c-3.5 3.3-8.6 8.7-14 13.7-2.8 2.6-6.4 4.2-10.3 5.3.8-8.4 2.2-16.7 4-24.9-2.2 9.2-3.7 18.5-4.6 27.9 3.8-1.1 7.4-2.8 10.1-5.3 5.4-5 10.4-10.4 13.8-13.7.9-.9 1.3-2 1.3-3.2-.1 0-.2.1-.3.2zm10.1-47.4c-4.7-10.5-7.1-15.5-16.1-18.2 0 0-38.8-12.7-61.6-12.3 0 0-30 6.1-37.9 11.4-10.8 4.8-16.5 12.4-22.2 24s-14.6 28.4-12.3 43.3c.7 4.3 2 8.3 4.1 12.1-1.3-2.9-2.1-6-2.6-9.1-2.2-14.9 6.5-31.7 12.1-43.3s11.2-19.2 21.8-24c7.7-5.3 37.2-11.4 37.2-11.4 22.4-.3 60.5 12.3 60.5 12.3 8.8 2.7 11.2 7.7 15.8 18.2s15.4 35.5 14.9 48.8c0 1.3-.4 2.7-1.1 4.3 1.5-2.7 2.5-5.1 2.6-7.2.5-13.4-10.5-38.4-15.2-48.9z"/><path d="M201.5 173s.1 4.3 8 9.5 12.9 7.9 23.9 5.7 13.3-8 21.8-10.3 13.6-1.7 13.6-1.7l-18.5-4.2-39.9-2.2-8.9 3.2z"/></g><path d="M258.9 294h-56.4c-12.8 0-23.2-10.4-23.2-23.2v-22.2c0-12.8 10.4-23.2 23.2-23.2h56.4c12.8 0 23.2 10.4 23.2 23.2v22.2c0 12.8-10.4 23.2-23.2 23.2z" class="BV"/><path d="M275.1 228.1h-88.7a7.13 7.13 0 0 0-7.1 7.1v51.7a7.13 7.13 0 0 0 7.1 7.1h88.7a7.13 7.13 0 0 0 7.1-7.1v-51.7a7.13 7.13 0 0 0-7.1-7.1z" fill="#e6e6e6"/><path d="M243.5 255.4h-2.1c-.2 0-.5.1-.7.2l-4.4 2.1v-2.2c0-1.3-1.1-2.4-2.4-2.4h-12.8c-1.3 0-2.4 1.1-2.4 2.4v11c0 1.3 1.1 2.4 2.4 2.4H234c1.3 0 2.4-1.1 2.4-2.4v-2.2l4.4 2.1c.2.1.4.2.7.2h2.1a.47.47 0 0 0 .5-.5V256a.65.65 0 0 0-.6-.6zm-18.7 9.5c-1.3 0-2.4-1-2.4-2.7 0-2 1.1-3.8 2.8-5l1.5 1.2c-.9.5-1.9 1.6-2.1 2.6.1-.1.3-.1.5-.1 1 0 1.8.8 1.8 1.9s-1 2.1-2.1 2.1zm5.4 0c-1.3 0-2.4-1-2.4-2.7 0-2 1.1-3.8 2.7-5l1.5 1.2c-.9.5-1.9 1.6-2.1 2.6.1-.1.3-.1.5-.1 1 0 1.8.8 1.8 1.9s-.8 2.1-2 2.1z" class="BV"/><linearGradient id="C" gradientUnits="userSpaceOnUse" x1="206.441" y1="142.845" x2="214.949" y2="141.663"><stop offset="0" stop-color="#ffd8b9"/><stop offset="1" stop-color="#ed835a"/></linearGradient><path d="M212.3 134.9l-3.4-.8c-1.8 1.1-2.5 3.2-1.9 5.2h0c1.2 3.7 3.3 7 6.1 9.7l1.1 1.1-1.9-15.2z" fill="url(#C)"/><linearGradient id="D" gradientUnits="userSpaceOnUse" x1="258.805" y1="141.611" x2="242.735" y2="140.312"><stop offset="0" stop-color="#ffd8b9"/><stop offset="1" stop-color="#ed835a"/></linearGradient><path d="M251.5 132.4s2.6-.4 4.1 1.3c1.6 1.7-2.1 8.1-2.1 10.1 0 2.1-1.9 6.8-4.3 5.5-2.2-1.1 2.3-16.9 2.3-16.9z" fill="url(#D)"/><path d="M220.6 166.4l-9.2 2.8s-3.1 1.1-3.2 4.1c-.2 3.1 5.3 14.8 22.6 14.8s25.3-11.8 24.5-13.8c-.9-2-6.4-4.5-6.4-4.5h0c-9.9-1.9-20.2-3.5-28.3-3.4z" class="BV"/><linearGradient id="E" gradientUnits="userSpaceOnUse" x1="216.201" y1="179.387" x2="249.551" y2="154.093"><stop offset="0" stop-color="#ffd8b9"/><stop offset="1" stop-color="#ed835a"/></linearGradient><path d="M217.4 156.1s.2 10.3-4.8 14 7.1 13.8 19.8 13.2 20.6-9.1 19.2-10.8c-1.3-1.7-10.1-7.1-9.9-16.4.1-9.4-24.3 0-24.3 0z" fill="url(#E)"/><linearGradient id="F" gradientUnits="userSpaceOnUse" x1="231.018" y1="160.253" x2="231.018" y2="108.694"><stop offset="0" stop-color="#ffd8b9"/><stop offset="1" stop-color="#ed835a"/></linearGradient><path d="M213.2 118.9c-2.2 7.1-3 14.5-2.6 21.9 0 0 1.9 18.8 10.9 23.8 4.4 2.5 9.9 2.7 14.8 1.4 12.5-3.3 14.7-16.1 15.2-27.1.3-7 .3-14.3-3.2-20.4-3.5-6.2-10.5-10.3-17.7-10.2-7.1 0-13.9 4.3-17.4 10.6h0z" fill="url(#F)"/><linearGradient id="G" gradientUnits="userSpaceOnUse" x1="214.007" y1="119.718" x2="255.984" y2="146.905"><stop offset="0" stop-color="#ffd8b9"/><stop offset="1" stop-color="#ed835a"/></linearGradient><path d="M250.4 123.8c-.2-.9-.5-1.8-.9-2.6l-7.3-4.5-21.1 3.2-6.3 5-3.8 4.3c-.5 3.7-.7 6.1-.5 9.8.1-.5.9-6.3 7.7-7.7l5.5-.9s-4 4.7-5.7 5.5c0 0 16 .6 22-7.9 0 0 7.3 6.1 8.6 14.1 0 0 1.3-13.4 1.8-18.3z" opacity=".3" fill="url(#G)"/><linearGradient id="H" gradientUnits="userSpaceOnUse" x1="206.844" y1="106.828" x2="262.067" y2="142.595"><stop offset="0" stop-color="#362f42"/><stop offset="1"/></linearGradient><path d="M210.5 138.2c-.8-2 2.6-7.4 10.6-9.5 0 0-2.3 4.5-5 5.8 0 0 21.2-6 25.7-11.1 0 0 .9 1.5 3 5.5 2.1 4.1 3.9 13.1 3.9 13.1s.6-8.4 2.9-9.7h1.4l.6.2s2.1-7.8 2.6-12.8-3-13.1-8.7-13.1c0 0 .5-6.8-13.9-6.9-14.5-.1-26.4 9-27.5 16.9-1.3 8-1.4 17.9 4.4 21.6z" fill="url(#H)"/><defs><path id="I" d="M399.6 99.1H279.4a7.13 7.13 0 0 1-7.1-7.1V19.5a7.13 7.13 0 0 1 7.1-7.1h120.2a7.13 7.13 0 0 1 7.1 7.1V92a7.13 7.13 0 0 1-7.1 7.1z"/><path id="J" d="M272.1 41.9v82.4h21.7V41.9h-21.7zm19.6 79.8h-17.6V105h17.6v16.7zm0-20.1h-17.6V84.9h17.6v16.7zm0-20.2h-17.6V64.7h17.6v16.7zm0-20.2h-17.6V44.5h17.6v16.7z"/><path id="K" d="M291.7 44.5l-17.6 16.7h17.6z"/><path id="L" d="M291.7 105.1l-17.6 16.6h17.6z"/><path id="M" d="M142.3 138.6a.68.68 0 1 1-1.4 0 .68.68 0 1 1 1.4 0z"/><path id="N" d="M142 138.6c0 .2-.2.4-.4.4s-.4-.2-.4-.4.2-.4.4-.4.4.2.4.4z"/><path id="O" d="M79.2 254.3h7.5a.68.68 0 0 1 .7.7v2.9a.68.68 0 0 1-.7.7h-7.5a.68.68 0 0 1-.7-.7V255a.68.68 0 0 1 .7-.7z"/><path id="P" d="M370.4 148.1c-.1.2-.3.2-.5.3 0 .3-.1.4-.3.6.5-.1.8-.5.8-.9z"/><path id="Q" d="M423.1 160.1a.55.55 0 0 1-.5.3c0 .3-.1.4-.3.6.4-.1.8-.5.8-.9z"/><path id="R" d="M415.8 154.4h-1.3l-.1-3.3 3.6-.1v1.1c0 1.3-1 2.3-2.2 2.3z"/><path id="S" d="M418 153.5a.55.55 0 0 1-.5.3c0 .3-.1.4-.3.6.5-.1.8-.5.8-.9z"/><path id="T" d="M405.8 156.3h-1.3l-.1-3.3 3.6-.1v1.1c0 1.2-.9 2.2-2.2 2.3z"/><path id="U" d="M408 155.3a.55.55 0 0 1-.5.3c0 .3-.1.4-.3.6.5-.1.8-.4.8-.9z"/><path id="V" d="M392.6 162.1c-.2.2-.3.2-.5.2 0 .3-.1.4-.3.6.4-.1.7-.4.8-.8z"/><path id="W" d="M402.8 162.1h-1.3l-.1-3.3 3.6-.1v1.1c0 1.2-1 2.2-2.2 2.3z"/><path id="X" d="M110 24v69.8s-1 1.1-1.7 0V23.2l1.7.8z"/></defs><use xlink:href="#I" class="Bl"/><clipPath id="Y"><use xlink:href="#I"/></clipPath><g class="Bs"><path d="M271.8 11.5h135.8v88.6H271.8z" fill="#445ff8"/><use xlink:href="#J" class="Ba"/><g class="Bb"><use xlink:href="#K"/><path d="M291.7 64.7l-17.6 16.7h17.6zm0 20.2l-17.6 16.7h17.6z"/><use xlink:href="#L"/></g><path d="M294.9 41.9v82.4h21.7V41.9h-21.7zm19.6 79.8h-17.6V105h17.6v16.7zm0-20.1h-17.6V84.9h17.6v16.7zm0-20.2h-17.6V64.7h17.6v16.7zm0-20.2h-17.6V44.5h17.6v16.7z" class="Ba"/><g class="Bb"><path d="M314.5 44.5l-17.6 16.7h17.6zm0 20.2l-17.6 16.7h17.6zm0 20.2l-17.6 16.7h17.6zm0 20.2l-17.6 16.6h17.6z"/></g><path d="M317.9 41.9v82.4h21.7V41.9h-21.7zm19.7 79.8H320V105h17.6v16.7zm0-20.1H320V84.9h17.6v16.7zm0-20.2H320V64.7h17.6v16.7zm0-20.2H320V44.5h17.6v16.7z" class="Ba"/><g class="Bb"><path d="M337.6 44.5L320 61.2h17.6zm0 20.2L320 81.4h17.6zm0 20.2L320 101.6h17.6zm0 20.2L320 121.7h17.6z"/></g><path d="M340.8 41.9v82.4h21.7V41.9h-21.7zm19.6 79.8h-17.6V105h17.6v16.7zm0-20.1h-17.6V84.9h17.6v16.7zm0-20.2h-17.6V64.7h17.6v16.7zm0-20.2h-17.6V44.5h17.6v16.7z" class="Ba"/><g class="Bb"><path d="M360.4 44.5l-17.6 16.7h17.6zm0 20.2l-17.6 16.7h17.6zm0 20.2l-17.6 16.7h17.6zm0 20.2l-17.6 16.6h17.6z"/></g><path d="M363.8 41.9v82.4h21.7V41.9h-21.7zm19.7 79.8h-17.6V105h17.6v16.7zm0-20.1h-17.6V84.9h17.6v16.7zm0-20.2h-17.6V64.7h17.6v16.7zm0-20.2h-17.6V44.5h17.6v16.7z" class="Ba"/><g class="Bb"><path d="M383.5 44.5l-17.7 16.7h17.7zm0 20.2l-17.7 16.7h17.7zm0 20.2l-17.7 16.7h17.7zm0 20.2l-17.7 16.6h17.7z"/></g><path d="M386.7 41.9v82.4h21.7V41.9h-21.7zm19.6 79.8h-17.6V105h17.6v16.7zm0-20.1h-17.6V84.9h17.6v16.7zm0-20.2h-17.6V64.7h17.6v16.7zm0-20.2h-17.6V44.5h17.6v16.7z" class="Ba"/><g class="Bb"><path d="M406.3 44.5l-17.6 16.7h17.6zm0 20.2l-17.6 16.7h17.6zm0 20.2l-17.6 16.7h17.6zm0 20.2l-17.6 16.6h17.6z"/></g><path d="M357.4 120.2h-40.3c-8.3 0-19.7-6.7-19.7-15l3.3-16.3c.6-2.8 1.1-5.5 1.4-8.3.9-7.4 7.3-13.1 14.9-13.1h40.3c7.7 0 14 5.7 14.9 13.1.4 2.8.9 5.6 1.4 8.3l3.3 16.3c.2 8.3-11.2 15-19.5 15z" fill="#f05a5b"/><g fill="#f6f6f6"><path d="M341.5 72.6v-.3l-4.3.1-4.3-.1v.3c-7.4.4-17.4 1.4-21.8 3.9l2.3 28s5 13.9 5.3 20.5 0 22.2 0 22.2h37.1s-.3-15.6 0-22.2 5.3-20.5 5.3-20.5l2.3-28c-4.5-2.5-14.5-3.5-21.9-3.9z"/><path d="M323.2 72.8c-.7.1-5.8.2-11.9 3s-21.3 49.6-21.4 52.9 10.7 11 34.8 16.8l5 1.4 3.1-8s-29.5-11.1-28.1-12.8c1.3-1.7 10.2-26.6 13.3-27.3 3.1-.8 13.8-26.7 5.2-26zm40.1 3.7s6.1.5 10.7 30c4.7 29.5-2.9 33-6.4 34.2s-8.6-1.3-9.6-4.6c-1.1-3.3-2.4-40.4-2.4-40.4l6.1-.6 1.6-18.6z"/></g><g class="Bt"><path d="M329.2 78.4c-7.4.3-15.1.1-20.3-.2-.9 1.3-1.8 2.9-2.8 4.9 4.9.3 13.3.7 21.8.4.6-1.7 1.1-3.5 1.3-5.1zm33.5 4.9l5.6.3c-1.1-2.6-2-4.2-2.8-5.2-.8 0-1.6-.1-2.4-.1l-.4 5z"/><path d="M311.2 78.4l.4 5.1c6.2.3 14.5.4 22.1-.2 8-.6 20.1-.3 29 0l.4-5.1c-9-.4-21.4-.7-29.8 0-7.5.6-15.9.4-22.1.2z"/></g><path d="M347.4 70.6c-6.1-2.9-2.9-9.3-2.9-9.3l-5.7-1.2V60h-.4l-5.7 1.2s3.2 6.3-2.9 9.3l-6.6 2.2s1.7 10.5 12.2 11.5h6.5c10.4-.9 12.1-10.3 12.1-10.3l-6.6-3.3z" fill="#ffdaad"/><path d="M343.8 63.5l.3-1.1c0-.1 0-.2.1-.3 0-.3.1-.6.1-.9l-5.4-1.2v-.1h-.4v.1l-5.7 1.2s3.2 6.3-2.9 9.3l-6.6 2.2c3.4.1 17.7-.2 20.5-9.2z" fill="#ffab45"/><linearGradient id="Z" gradientUnits="userSpaceOnUse" x1="338.608" y1="65.232" x2="338.608" y2="37.048"><stop offset="0" stop-color="#ffdaad"/><stop offset="1" stop-color="#ffad9b"/></linearGradient><ellipse cx="338.6" cy="45.4" rx="12.2" ry="18.9" fill="url(#Z)"/><g fill="#b3b3b3"><path d="M328.4 53.2h0c-.1 0-.3-.1-.3-.1s.6 2.5 1.5 4l.1-.1c.1.1-1.3-2.8-1.3-3.8zm20.9-.2h.3s-.9 2.2-2.2 4.2l-.1-.1s2-3.1 2-4.1z"/></g><path d="M358.1 27.5c-.4-2.8-2.6-5-5.4-5.4-3.1-.4-5.8 1.4-6.8 4a33.07 33.07 0 0 0-7.3-1h0c-.5 0-4 .1-7.3 1-1-2.6-3.7-4.4-6.8-4-2.8.4-5 2.6-5.4 5.4-.4 3.1 1.4 5.8 4.1 6.8-2.2 6.7-2.9 17.8 6.8 25.3l.8.2s-5.1-11.2-2.7-16.8c0 0 4.1 3.4 9.5 2.9.7-.1 1.4-.1 2.1 0 5.4.4 9.5-2.9 9.5-2.9 2.4 5.6-2.7 16.8-2.7 16.8l.8-.2c9.7-7.5 9-18.6 6.8-25.3 2.6-1 4.4-3.7 4-6.8z" class="Bu"/><g fill="#703a3a"><path d="M324.8 31.7c-.5 0-.8-.4-.8-.8 0-.1.2-2.5 3.7-3.5.4-.1.8.1 1 .5.1.4-.1.8-.5 1-2.4.7-2.6 2.2-2.6 2.2-.1.3-.4.6-.8.6zm27.5 0h0c.5 0 .8-.4.8-.8 0-.1-.2-2.5-3.7-3.5-.4-.1-.8.1-1 .5-.1.4.1.8.5 1 2.4.7 2.6 2.2 2.6 2.2.1.3.5.6.8.6z"/></g><g class="Bt"><path d="M320.9 96.1c1.1-1.3 2.2-3.1 3.4-5l-21.6-.4-2 5 20.2.4zM305.3 125c.5-1 1.2-2.7 2-4.7-4.2-1.2-9.6-3-13.7-4.6-.6 1.7-1.1 3.4-1.5 4.8 2.9 1.1 8.4 3.1 13.2 4.5zm5.8-14l2.2-4.8c-4.3-.5-10.8-1.8-15.5-2.8-.6 1.6-1.2 3.2-1.7 4.8 3.8.9 10.1 2.1 15 2.8zm64.3 7.7l-18.7 1.2.3 5.1 18.5-1.2-.1-5.1zm-19.2-8l18.2-1.9-.3-2.2-.5-2.8-17.6 1.9.2 5zm5.9-19.7l-.3 4.1-6.1.6v.4h16.5L371 91h-8.9z"/><path d="M356.4 119.9c-4.6.3-8.5.5-10 .5h-.1c-3.2 0-17.3.4-26.6.7h-1.6c.3 1.4.4 2.7.5 3.8v1.2h1.2l26.4-.7h.1c1.5 0 5-.2 9.3-.4v-.1c.1-1.3.4-3.1.8-5zm-16.6-23.6h3.8c3.1-.1 10.8-.2 18-.2l.4-5.1-18.6.2c-3.9.1-19.4-.1-31.2-.4l.4 5.1 27.2.4zm-23.3 15.2h.4c1.7-.1 6.5-.1 12.1-.2l26.8-.6c.8-.1 1.9-.2 3.2-.3.7-2.4 1.4-4.3 1.7-5.3-2.3.2-4.2.4-5.4.6-3.3.3-16.6.5-26.3.6l-12.2.2c-.6 0-1.6 0-2.8-.2.4 1.3 1 3.1 1.7 5.2h.8z"/></g><g class="Bu"><path d="M312.9 130.8l-6.1-2.9-12.8 5.6c1.4 1 3.2 2.1 5.3 3.2 5.1-2.3 10.4-4.6 13.6-5.9zm6.4 2.8c-2.6 2.7-5.1 6-6.8 8.5l5.1 1.6c2.1-2.9 4.6-6 6.8-8a133.09 133.09 0 0 0-5.1-2.1z"/><path d="M357.6 133.7l16.9-1.4c.4-1.4.7-3.1.8-5.1l-18.1 1.5.4 5zm-18.3-1.5l-21.2-.9v4.8l37.4 1.6v-4.8l-16.2-.7z"/></g><path d="M355.6 95.8l6.8-1.3s9.1 33.8 8 38.6-7.2 6.8-9.9 6.2-5-5.8-4.9-43.5z" fill="#f6f6f6"/><path d="M355.8 114.7l11.3-1.2-1.6-6.6-9.9 1.1.2 6.7z" class="Bt"/><path d="M356.8 129.8l13.3-1.5-1.2-6.7-12.7 1.4.6 6.8z" class="Bu"/></g><defs><path id="a" d="M147.1 191.4H31.6c-5.3 0-9.7-4.3-9.7-9.7v-67.6c0-5.3 4.3-9.7 9.7-9.7H147c5.3 0 9.7 4.3 9.7 9.7v67.6c0 5.4-4.3 9.7-9.6 9.7z"/></defs><use xlink:href="#a" class="Bl"/><clipPath id="b"><use xlink:href="#a"/></clipPath><g class="Bx"><path d="M21.5 103.6h136.2v88.8H21.5z" fill="#82b0ff"/><path d="M157.2 156.2H80.7c-13.5 0-24.4 10.9-24.4 24.4v11.6h100.9v-36z" fill="#a8c8ff"/><g fill="#1957c2"><path d="M80.6 160.4h.6v28.8h-.6zm-8.1 14.1h3.7v.6h-3.7zm32.5-14.1h.6v28.8h-.6zm-8.1 14.1h3.7v.6h-3.7zm32.5-14.1h.6v28.8h-.6zm-8.1 14.1h3.7v.6h-3.7zm32.5-14.1h.6v28.8h-.6zm-8 14.1h3.7v.6h-3.7z"/></g><path d="M18.6 186.7c-.8-.7-1.5-1.4-1.9-2.4-.3-1-.1-2.2.8-2.7 1-.5 2.5.1 3.2-.8.5-.6.3-1.6-.3-2.2s-1.4-.8-2.2-.9c-1.2-.3-2.4-.6-3.5-1.2s-2-1.7-2.2-2.9.4-2.6 1.6-3c.9-.3 2.1 0 2.8-.6.8-.6.7-1.8.2-2.7s-1.3-1.4-2-2.2c-.7-.7-1.1-1.8-.8-2.7.4-1.1 1.8-1.4 2.7-2.2s1.4-2 1.7-3.1c.3-1.2.5-2.4 1.1-3.4s1.8-1.8 3-1.5c2.4.6 2.3 4.8 4.7 5.6 1 .3 2-.1 3-.3s2.2-.2 2.8.6c.6.7.3 1.8-.2 2.6s-1.2 1.4-1.7 2.2-.5 1.9.1 2.6c1 .9 2.4.1 3.7 0 1.4-.1 2.8.8 3.3 2 .6 1.3.2 2.9-.8 3.8-.5.5-1.2.8-1.8 1.3s-1 1.1-1 1.8c.1 1.1 1.5 1.6 2.6 1.7 1.1 0 2.4-.1 3.2.7 1.1.9.9 2.7 0 3.8s-2.2 1.8-3.3 2.6c-2.6 1.9-4.3 4.9-4.8 8.1-.2 1.4-.2 2.9-.7 4.3-.5 1.3-1.8 2.6-3.2 2.4-1-.1-1.8-.9-2.2-1.8-.4-.8-.3-1.9-.7-2.7-.5-.8-1.7-1.5-2.3-2.1-1.4-1.6-3.2-3.2-4.9-4.7z" fill="#020d4a"/><path d="M37.8 183.4c1.1-.8 2.4-1.5 3.3-2.6s1.1-2.9 0-3.8c-.9-.7-2.1-.6-3.2-.7-1.1 0-2.5-.5-2.6-1.7-.1-.7.4-1.4 1-1.8.6-.5 1.2-.8 1.8-1.3 1-1 1.3-2.6.8-3.8-.6-1.3-1.9-2.1-3.3-2-1.3.1-2.8.8-3.7 0-.7-.6-.6-1.8-.1-2.6.4-.8 1.2-1.4 1.7-2.2s.7-1.9.2-2.6c-.6-.8-1.8-.8-2.8-.6s-2 .6-3 .3c-2.4-.8-2.2-5-4.7-5.6-.3-.1-.6-.1-.8 0 0 .2-.1.5-.1.7-.4 3.8.6 7.6 1.9 11.2s2.8 7.1 3.3 10.9c.5 3.4.1 6.9.5 10.4.3 2.4 1.1 4.7 1.5 7.1.4 2 .3 3.7.2 5.6 1.3 0 2.4-1.1 2.9-2.4s.5-2.8.7-4.3c.1-3.3 1.9-6.3 4.5-8.2z" fill="#00348d"/><path d="M29.5 197c.1-1.5.1-2.9-.2-4.5l-1.5-7.1c-.5-3.4-.1-6.9-.5-10.4-.5-3.8-2-7.3-3.3-10.9s-2.3-7.4-1.9-11.2" class="Bc"/><path d="M50.8 187.5c.8-.7 1.6-1.4 1.9-2.3.4-1 .1-2.2-.8-2.7-1-.5-2.5 0-3.2-.8-.5-.6-.3-1.6.3-2.1s1.4-.7 2.2-.9c1.2-.3 2.5-.5 3.6-1.2 1.1-.6 2-1.6 2.3-2.8.2-1.2-.4-2.7-1.6-3.1-.9-.3-2.1 0-2.8-.7-.8-.6-.6-1.9-.1-2.7s1.4-1.4 2-2.1c.7-.7 1.2-1.7.8-2.7-.4-1.1-1.8-1.5-2.7-2.2-.9-.8-1.3-2-1.6-3.2s-.5-2.4-1.1-3.4-1.8-1.8-3-1.6c-2.5.5-2.4 4.7-4.8 5.4-1 .3-2-.1-3-.4s-2.2-.3-2.8.5c-.6.7-.4 1.8.1 2.6s1.2 1.4 1.6 2.3c.4.8.5 2-.2 2.6-1 .8-2.4.1-3.7 0a3.52 3.52 0 0 0-3.4 2c-.6 1.3-.3 2.9.7 3.8.5.5 1.2.9 1.7 1.3.6.5 1 1.2.9 1.9-.2 1.1-1.5 1.6-2.6 1.6s-2.4-.1-3.2.6c-1.1.9-.9 2.7-.1 3.8s2.1 1.8 3.2 2.7a12.64 12.64 0 0 1 4.6 8.2c.2 1.4.1 2.9.6 4.3s1.7 2.6 3.2 2.5c1-.1 1.8-.9 2.3-1.7.4-.8.3-1.9.8-2.7s1.7-1.5 2.4-2.1l5.5-4.7z" class="Bd"/><path d="M31.7 183.8c-1.1-.9-2.4-1.6-3.2-2.7s-1-3 .1-3.8c.9-.7 2.1-.6 3.2-.6s2.5-.5 2.6-1.6c.1-.7-.4-1.4-.9-1.9-.6-.5-1.2-.8-1.7-1.3-1-1-1.3-2.6-.7-3.8a3.52 3.52 0 0 1 3.4-2c1.3.1 2.7.9 3.7 0 .7-.6.6-1.7.2-2.6-.4-.8-1.1-1.5-1.6-2.3s-.7-1.9-.1-2.6c.6-.8 1.8-.8 2.8-.5s2 .7 3 .4c2.4-.7 2.4-4.9 4.8-5.4.3-.1.6-.1.8 0 0 .2.1.5.1.7.4 3.8-.8 7.6-2.2 11.1-1.4 3.6-3 7.1-3.6 10.8-.5 3.4-.2 6.9-.8 10.3-.4 2.4-1.2 4.7-1.7 7-.4 2-.4 3.7-.3 5.6-1.3 0-2.4-1.2-2.8-2.5-.5-1.4-.4-2.8-.6-4.3-.3-3-2-6-4.5-8z" fill="#020d4a"/><path d="M39.6 197.6c0-1.4 0-2.9.3-4.5l.7-2.8 1-4.2c.3-1.7.3-3.5.4-5.2l.4-5.2c.5-3.1 1.7-6 2.8-8.9.3-.6.5-1.3.8-2 1.3-3.5 2.5-7.2 2.2-11.1h.1c.4 3.9-.8 7.6-2.2 11.1-.3.7-.5 1.3-.8 2-1.1 2.8-2.3 5.8-2.8 8.9-.3 1.7-.3 3.4-.4 5.1s-.1 3.5-.4 5.2c-.2 1.4-.6 2.9-1 4.3-.2.9-.5 1.8-.7 2.8-.4 1.6-.4 3.1-.3 4.5h-.1z" class="Bc"/><path d="M23.4 188.5c-1.4-1.1-2.6-3.4-1-4.8 1-.9 2.4-.4 3.6-1.2.7-.5.7-1.3.3-1.9-1.2-1.7-3.5-1.6-4.9-3.2-1.2-1.3-1-3.2.2-4.3 1.6-1.6 4.6-1.1 5-3.1.4-1.8-1.3-3.9-.4-6.1.6-1.5 1.7-2.9 2.5-4.4.8-1.4 1.4-3 1.3-4.8-.1-.9 1.5-1.5 1.8-.8 1 1.8 2.6 2.8 4.2 3.8 1.8 1 4.2 1.9 4.5 3.6.4 1.6-3.1 3.8-.9 5.4 1.4 1.2 3.4.8 4.8 2 .9.8.7 2 .1 3-1 1.6-4.1 2.9-2.9 4.5 1.4 1.9 5.4 2.6 3.8 5.7-3.1 5.7-7.3 9.8-9.6 15.9-.3.9-1.1 2.3-2 1.9-3.2-1.4-4.2-5-6.5-7.6-.5-.5-.8-1-1.4-1.4-.9-.6-1.7-1.4-2.5-2.2z" fill="#7dadff"/><path d="M41.5 176.4c-1.2-1.6 1.9-2.9 2.9-4.5.7-1 .8-2.2-.1-3-1.4-1.2-3.4-.8-4.8-2-2.2-1.6 1.3-3.8.9-5.4-.3-1.8-2.7-2.6-4.5-3.6-1.6-1-3.2-2-4.2-3.8-.2-.4-.7-.4-1.1-.2.3 3.4 2.9 8.4 3.1 11.7.4 11.4-1.9 23 .8 34.3.6-.3 1-1.2 1.2-1.9 2.3-6 6.5-10.2 9.6-15.9 1.6-3.1-2.4-3.8-3.8-5.7z" class="Bd"/><path d="M34.4 199.8c-1.7-7.2-1.4-14.8-1-22 .2-4 .4-8.2.3-12.2-.1-1.7-.8-4-1.6-6.1-.7-2-1.4-4-1.5-5.6h.1c.2 1.6.9 3.6 1.5 5.6.7 2.2 1.5 4.4 1.6 6.1.2 4.1-.1 8.2-.3 12.3-.4 7.3-.7 14.8 1 22l-.1-.1z" class="Bc"/><path d="M143.9 154.4c-1.8 0-2-1.5-2-1.5l-.3.1-.3-.1s-.2 1.5-2 1.5c0 0-2.4.1-2.4 1.8h9.5c-.1-1.6-2.5-1.8-2.5-1.8z" class="Bd"/><path d="M143 154.3c-1-.4-1.2-1.4-1.2-1.4l-.3.1-.3-.1s-.1.5-.4.9c.5.2 1.2.5 2.2.5z" opacity=".5" class="Bc"/><g class="Bd"><g transform="matrix(.1387 -.9903 .9903 .1387 -22.365 265.7373)"><circle cx="141.6" cy="145.7" r="6"/><circle cx="141.6" cy="145.7" r="6"/></g><path d="M141.6 153.1v-.5c3.8 0 6.9-3.1 6.9-6.9s-3.1-6.9-6.9-6.9v-.5c4.1 0 7.4 3.3 7.4 7.4s-3.3 7.4-7.4 7.4z"/></g><path d="M146.8 142.6h-1.1l-.6-1.9c-.4-.3-.8-.5-1.3-.7.3.5.7 1.4 1 2.5H142v-2.9h-.8v2.9h-2.9c.3-1.1.7-2 1-2.5-.5.2-.9.4-1.3.7l-.6 1.7h-.9c-.2.3-.3.6-.4.9h1.2c-.3 1.3-.3 2.5-.2 3.8h-1.2l.3.9h1c.1.8.3 1.5.6 2.2.4.3.9.6 1.4.9-.6-1-.9-2-1.1-3.1h3.2v3.6h.8V148h3.1a9.58 9.58 0 0 1-1.2 3.2c.5-.2.9-.5 1.3-.8.3-.8.6-1.6.7-2.4h1.2l.3-.9h-1.3c.1-1.2 0-2.5-.2-3.8h1.3c-.2-.1-.4-.4-.5-.7zm-5.6 4.6h-3.4c-.1-1.2 0-2.4.2-3.6v-.1h3.1v3.7zm4 0H142v-3.8h3v.1c.3 1.4.4 2.6.2 3.7z" fill="#a1c3ff"/><use xlink:href="#M" class="Bd"/><use xlink:href="#N" class="Bc"/><path d="M142.3 152.9a.68.68 0 1 1-1.4 0 .68.68 0 1 1 1.4 0z" class="Bd"/><path d="M142 152.9c0 .2-.2.4-.4.4s-.4-.2-.4-.4.2-.4.4-.4.4.2.4.4z" class="Bc"/><g fill="#c2d8ff"><path d="M32.4 121.5h17.9v24.2H32.4zm20.3 0h17.9v24.2H52.7zm41.8 0h17.9v24.2H94.5zm20.3 0h17.9v24.2h-17.9z"/></g><path d="M117.1 271.9l7.7-1.5 2.8 5 2.4 9.1c.6 2.3-.2 4.8-2 6.4l-5.2 4.4-3.9 1.4c-.6.2-1.3-.2-1.4-.8-.2-.8.3-1.6 1-2l2.2-1 1.4-4.1-1.1-5.8h-1.4l.6 5c.1.7-.4 1.3-1 1.4-.7.1-1.3-.3-1.5-1l-1.2-6.3v-.5l.3-6.7.3-3z" class="Bm"/><path d="M127.4 272.1l-11.6 1.4-.3-3.4 11.6-.3z" class="BV"/><path d="M123.9 183.6c0 3.5-4.9 44.1-4.9 44.1l9 42.2-13.8 1.2-10.5-45.1 8.8-59.6c-.1-.1 11.4 4.4 11.4 17.2z" class="Bv"/><path d="M135.7 417.3c2.4 2 4.2 4.7 5 7.8l1.1 4.1c.4 1.5-.7 3-2.2 3.2l-3.2.3c-2.4.2-4.8-.3-6.9-1.5l-12-6.7c-1.3-.7-2.5-1.8-3.3-3.1l-1.8-2.8-1.1-.5v-8.2l18.3 2.2 6.1 5.2z" fill="#414042"/><path d="M114 418.2c.8 1.3 1.9 2.4 3.3 3.1l12 6.7c2.1 1.2 4.5 1.7 6.9 1.5l3.2-.3c.8-.1 1.5-.5 1.9-1.2l.3 1.1c.4 1.5-.7 3-2.2 3.2l-3.2.3c-2.4.2-4.8-.3-6.9-1.5l-12-6.7c-1.3-.7-2.5-1.8-3.3-3.1l-1.8-2.8-1.1-.5v-3l1.1.5 1.8 2.7z" fill="#d1d3d4"/><path d="M135.2 416.9l-2.2.4c-3.7.7-7.5-.3-10.2-2.8l-4.1-3.7 10.7 1.3 5.8 4.8z" fill="#232324"/><path d="M38.6 425.1c.8-3 2.5-5.8 5-7.8l6.2-5.2 18.3-2.2v8.2l-1.1.5-1.8 2.8c-.8 1.3-1.9 2.4-3.3 3.1l-12 6.7c-2.1 1.2-4.5 1.7-6.9 1.5l-3.2-.3c-1.6-.1-2.6-1.7-2.2-3.2l1-4.1z" fill="#414042"/><path d="M37.8 428c.4.6 1.1 1.1 1.9 1.2l3.2.3c2.4.2 4.8-.3 6.9-1.5l12-6.7c1.3-.7 2.5-1.8 3.3-3.1l1.8-2.8 1.1-.5v3.1l-1.1.5-1.8 2.8c-.8 1.3-1.9 2.4-3.3 3.1l-12 6.7c-2.1 1.2-4.5 1.7-6.9 1.5l-3.2-.3c-1.6-.1-2.6-1.7-2.2-3.2l.3-1.1z" fill="#d1d3d4"/><path d="M60.5 410.8l-4.1 3.7c-2.8 2.5-6.6 3.6-10.2 2.8l-2.2-.4 5.8-4.8 10.7-1.3z" fill="#232324"/><path d="M55.4 327l7.6-73.9h53.5L124 327c.1.7.1 1.5.2 2.2l6.7 83.4h-20.4l-12-83-5.5-37h-6.4l-5.7 37-11.7 83H48.8l6.5-83.4.1-2.2z" fill="#6e442f"/><path d="M55.4 327l7.6-73.9h53.5l.6 5.5-24.2 34h-6.4l-5.7 37-11.7 83H48.8l6.5-83.4.1-2.2z" opacity=".2" fill="#231f20"/><g fill="#3c436b"><path d="M109.7 254.3h4.7a.68.68 0 0 1 .7.7v2.9a.68.68 0 0 1-.7.7h-4.7a.68.68 0 0 1-.7-.7V255a.68.68 0 0 1 .7-.7zm-8.6 0h5.6a.68.68 0 0 1 .7.7v2.9a.68.68 0 0 1-.7.7h-5.6a.68.68 0 0 1-.7-.7V255a.68.68 0 0 1 .7-.7z"/><use xlink:href="#O"/><path d="M68.1 254.3h7.5a.68.68 0 0 1 .7.7v2.9a.68.68 0 0 1-.7.7h-7.5a.68.68 0 0 1-.7-.7V255a.68.68 0 0 1 .7-.7z"/></g><path d="M91.6 256.1h5.5a.47.47 0 0 1 .5.5h0a.47.47 0 0 1-.5.5h-5.5a.47.47 0 0 1-.5-.5h0c.1-.2.3-.5.5-.5z" class="BV"/><path d="M81.4 160l.8-10.3 7.3-4.2 7.3 4.2.8 10.3a2.24 2.24 0 0 0 1.7 1.9l6.3 3.7 1.6 9-17.7 5.9-17.7-5.9.8-9.6 7.1-3.1c1-.2 1.7-1 1.7-1.9z" class="Bm"/><path d="M81.4 160l.8-10.3 7.3-4.2 7.3 4.2.4 5.1L76 176l-4.3-4.9.8-6.1 7.1-3.1c1.1-.2 1.8-1 1.8-1.9z" opacity=".5" fill="#ff8f42"/><g class="Bm"><path d="M73.6 138.2c.6-1.2 2-1.9 3.3-1.6h.1c1.9 1.2 2 10.6 2 10.6h-.8c-1.1 0-2.1-.6-2.6-1.6l-2.4-5.1a2.21 2.21 0 0 1 0-1.6l.4-.7zm28.7-1.5h.1c1.3-.3 2.7.4 3.3 1.6l.4.8c.3.5.3 1.1 0 1.6l-2.4 5.1c-.5 1-1.5 1.6-2.6 1.6h-.8c0-.1.1-9.5 2-10.7z"/><path d="M78.2 127.6h22.7l.9 12.7v1.5l-.7 6.6c-.2 2.3-1.4 4.4-3.2 5.8l-4.3 3.5c-.7.6-1.6.9-2.6.9h-2.9c-.9 0-1.8-.3-2.6-.9l-4.3-3.5c-1.8-1.4-2.9-3.5-3.2-5.8l-.7-6.6c-.1-.5-.1-1 0-1.5l.9-12.7z"/></g><path d="M91.4 148.4l-1.5.7-1.7-.7v-.8h3.2z" opacity=".5" fill="#ab6230"/><path d="M77.8 143.6l.3 4.8c.1 1.1.4 2.2 1 3.2l1.3 2.1c.5.7 1.1 1.4 1.8 1.9l3.1 2.2c1.1.8 2.4 1.2 3.8 1.2h1.2c1.4 0 2.7-.4 3.8-1.2l3.1-2.2c.7-.5 1.3-1.1 1.8-1.9l1.3-2.1c.6-1 1-2 1-3.2l.3-4.8c0-.4-.5-.4-.6-.1l-1.9 6.8-2.2 2.1-1.3-2.9-5.6-.3h-.6l-5.6.3-1.3 2.9-2.2-2.1-1.9-6.8c-.1-.3-.6-.2-.6.1zm8 7.5h7.9v1.9c0 1-.8 1.9-1.9 1.9h-4.2c-1 0-1.9-.8-1.9-1.9v-1.9z" fill="#4c302e"/><path d="M81.9 253.4h10.4a1.54 1.54 0 0 1 1.5 1.5v1.3a1.54 1.54 0 0 1-1.5 1.5H81.9a1.54 1.54 0 0 1-1.5-1.5v-1.3a1.54 1.54 0 0 1 1.5-1.5z" class="BV"/><path d="M58.8 169.1l19.7-6c.4-.1.3-.5.5-.1 1.3 2.6 19.5 4.9 21.9.3.1-.2.2-.5.5-.4l8.1 4c3.1.6 3 2.6 3.7 5.6 1.9 7.7 2 18.9-2.1 26-5.7 9.8 1.6 53.1 1.6 53.1H62.5l-7.4-78.1c-.3-2.1 1.6-3.7 3.7-4.4z" fill="#e6e7e8"/><path d="M94.3 166l4.1 6.5-2.8 4.2 18.5 58.1-17.7 5.1-20.9-6.3 16.8-56.9-3.5-4.2z" fill="#fcee21"/><path d="M112.7 251.7H76l35.8-40.1c-1.5 15.8.9 40.1.9 40.1z" opacity=".1" fill="#231f20"/><path d="M52.6 170.2L79 163v5.8l17.4 56.3 6.2-53.5-1.2-8.6 9 2.4c2.4.7 7 3.4 7 5.9l-2.8 67.2 11.6 38.2c.8 1.9-.2 4.1-2.2 4.8l-14.7 3.6c-1.8.5-3.6-.4-4.3-2.1l-5.2-13.7-2.7 14.7c-.3 1.8-1.9 3-3.7 2.9L56 283.6c-2-.2-3.5-2-3.2-4l6.6-41.1L48.3 177c-.6-3.1 1.3-6 4.3-6.8z" class="Bv"/><g fill="#8a5787"><path d="M101.3 163c0-1 1.1-1.5 1.9-.9l2.1 1.6 6.2 20.2c2.6 5.7-.5 7-1.3 7.2l-7.6 1.9 2.4 2c.7.6 1 1.6.7 2.4l-9.3 27.7 5.3-45.6c.6-4.9.5-9.8 0-14.6l-.4-1.9zm-28.5 1.7l2.9-2.6c1-.9 2.5-1.1 3.7-.4h0c-.2 4.7.4 9.3 1.7 13.8l14.6 47.2-17.2-24.1c-.7-1-.5-2.3.5-3l2.9-2-11.8-1.2c-1.2-.1-2-1.2-1.8-2.4l4.5-25.3z"/></g><g class="BV"><path d="M94.3 166l-6.3 8.8c-.3.5-1.1.5-1.5.1l-6.2-7.3c-1.3-1.5-1.8-3.6-1.2-5.5l.6-2.1c.2-.9 1.3-1.3 2.1-.9l12.5 6.9z"/><path d="M101.5 170.4l-2.2 4.4c-.5.5-1.3.3-1.5-.3l-3.5-8.5 5.7-3.7c.7-.4 1.6 0 1.7.8l.4 4.2c.1 1-.1 2.1-.6 3.1z"/></g><g fill="#6e442f"><path d="M97.6 231.7c.7 0 1.2.8 1.2 1.7 0 1-.6 1.7-1.2 1.7-.7 0-1.2-.8-1.2-1.7 0-1 .5-1.7 1.2-1.7zm.7 11.9c.7 0 1.2.8 1.2 1.7 0 1-.6 1.7-1.2 1.7-.7 0-1.2-.8-1.2-1.7s.5-1.7 1.2-1.7z"/><ellipse cx="99.6" cy="257.7" rx="1.2" ry="1.7"/></g><path d="M70.1 256.7c-1.4 2.2-14.1 10.2-14.1 10.2v-2.7l13.1-9.3 1 1.8z" fill="#333"/><path d="M65.1 260.9c-2.5 1.9-6 4.3-9 6h0v-5.8l7.4-2.5 1.6 2.3z" class="Bm"/><path d="M65.1 258.4l-9.4 5.3-.7-2.6 8.7-4.5z" class="BV"/><path d="M44.7 180.8c.2-4.4 2.8-8.2 6.8-10l1.9-.9c9.8 5.6 9.7 25.9 9.7 25.9l-13.4 34 15.1 26.8-10.3 6.2s-16.6-18.4-21.3-28.9c-1.2-2.7-.3-5.9.2-8.8 2-12.5 11.3-44.3 11.3-44.3z" class="Bv"/><path d="M77.8 143.6l-.8-.5-1-6.8s-2.2-2.6-2-3 1.1-1.4.6-1.6c-.8-.4-.1-2.4-.6-2.1s.4-2.5 0-2.2-.2-4.7-.1-4.4.7-.9.7-.9l4.3-2.4s2.3-2.5 2.2-2 1.3-.4 1.3-.4.9-.7 1.2-.4 2.1-1 2.1-1l3.1-1.1 2.1.4 3.4.1 4.8.5 1.5 1.1s-.5-.7.8 1.7 1.9 2.6 1.9 2.6l1.2 2.4.9 1.9.6 3.7.1.5s.5-.9 0 0-.3.1-.5.9.1-.1-.2.8c-.4.9 0-.3-.4.9l-.4 1.1-.3 2-.3 1-1.9 2.8c-.3 1.1-.6 1-.5 1.8l.1.8-.3.7-.4 1.1-.4-7.2c0-1.3.1-1.7-.6-2.3s-.8-1.7-1-2 .1-1.2-.5-.6-.1-1-.9.1-.1.6-.8 1.1c-.6.4-1.2.7-1.2.7l-.9-.1c-.7 0-1.1-.1-1.1-.1l-2.8.4-1.3.4h-1.4s-2.2-.6-2.5-.5c-.2.1.7.5-.2.1s-.3.1-.9-.4-.5-1-1-1.1-1.2-.1-1.2-.1l-1 .6c-.8.1-1.2.6-1.2.6l-.7.6c-.5.6-.4-.2-.5.6l-.2 1.4-.7 5.2v1l-.2 1.6z" fill="#4c302e"/></g><defs><path id="c" d="M416.3 183.5h-90.7a7.92 7.92 0 0 1-7.9-7.9v-52.9a7.92 7.92 0 0 1 7.9-7.9h90.7a7.92 7.92 0 0 1 7.9 7.9v52.9c-.1 4.3-3.6 7.9-7.9 7.9z"/></defs><use xlink:href="#c" class="Bl"/><clipPath id="d"><use xlink:href="#c"/></clipPath><g class="BX"><path d="M317.3 114h107.6v70.2H317.3z" class="Bw"/><path d="M348.4 121.1h28.5v25.3h-28.5z" opacity=".5" class="Bn"/><path d="M363.6 120.6a.94.94 0 0 0-1-1c-.5 0-1 .4-1 1H359v1.3h7.2v-1.3h-2.6zm-1 .5a.47.47 0 1 1 0-1 .47.47 0 0 1 .5.5c0 .2-.2.5-.5.5z" class="Bo"/><g class="Bn"><path d="M371 180.2h49.4v1.4H371z"/><path d="M371 166.3h2.2v37.2H371z"/><path d="M375.2 203.5h-6.4a1.79 1.79 0 0 1 1.8-1.8h2.8a1.79 1.79 0 0 1 1.8 1.8h0z"/></g><path d="M371 169.3c.5-.3 1.2-.6 2.2-.9v-2.1H371v3z" class="Bo"/><g class="Bn"><path d="M373.9 203h-.9c-.1 0-.2-.1-.2-.2v-.2c0-.1.1-.2.2-.2h.8c.1 0 .2.1.2.2v.2c.1.1 0 .2-.1.2zm44.3-36.7h2.2v37.2h-2.2z"/><path d="M422.4 203.5H416a1.79 1.79 0 0 1 1.8-1.8h2.8a1.79 1.79 0 0 1 1.8 1.8h0z"/><path d="M421.2 203h-.8c-.1 0-.2-.1-.2-.2v-.2c0-.1.1-.2.2-.2h.8c.1 0 .2.1.2.2v.2c0 .1-.1.2-.2.2z"/></g><path d="M418.2 169.3c.5-.3 1.2-.6 2.2-.9v-2.1h-2.2v3z" class="Bo"/><path d="M362.7 133h66v34.9h-66z" class="BV"/><path d="M362.7 133v4.9c20.7-1 40.1-1.1 66 0V133h-66z" opacity=".15"/><path d="M361.5 133h68.4v3.5h-68.4z" class="Bn"/><path d="M371 180.8h49.4v1.4H371z" class="Bo"/><path d="M368.2 148.9h-1.3v-3.3h3.6v1.1c-.1 1.2-1.1 2.2-2.3 2.2z" class="BY"/><use xlink:href="#P" class="BZ"/><path d="M384.4 149.1l-1.3.1-.3-3.3 3.5-.4.1 1.1c.1 1.3-.8 2.4-2 2.5z" class="BY"/><path d="M386.5 148a.55.55 0 0 1-.5.3c.1.3 0 .4-.2.6.4-.1.7-.5.7-.9z" class="BZ"/><path d="M366.9 154h-1.3v-3.3h3.6v1.1c-.1 1.2-1.1 2.2-2.3 2.2z" class="BY"/><path d="M369.1 153.1c-.1.2-.3.2-.5.3 0 .3-.1.4-.3.6.5-.1.8-.5.8-.9z" class="BZ"/><path d="M420.9 161h-1.3l-.1-3.3 3.6-.1v1.1c0 1.2-1 2.3-2.2 2.3z" class="BY"/><use xlink:href="#Q" class="BZ"/><use xlink:href="#R" class="BY"/><use xlink:href="#S" class="BZ"/><use xlink:href="#T" class="BY"/><use xlink:href="#U" class="BZ"/><path d="M406.4 151.3h-1.3l-.1-3.3 3.6-.1v1.1c0 1.3-.9 2.3-2.2 2.3z" class="BY"/><path d="M408.6 150.4a.55.55 0 0 1-.5.3c0 .3-.1.4-.3.6.5-.1.8-.5.8-.9z" class="BZ"/><path d="M416.1 149.5l-1.3-.1.3-3.3 3.5.3-.1 1.1c-.1 1.2-1.2 2.2-2.4 2z" class="Be"/><path d="M418.4 148.9c-.2.1-.3.2-.5.2 0 .3-.1.4-.3.6.4-.1.7-.4.8-.8z" class="Bf"/><path d="M416.1 163l-1.3-.1.3-3.3 3.5.3-.1 1.1c-.1 1.2-1.2 2.1-2.4 2z" class="Be"/><path d="M418.4 162.3c-.2.1-.3.2-.5.2 0 .3-.1.4-.3.6.4 0 .7-.3.8-.8z" class="Bf"/><path d="M372.3 155.5H371l-.1-3.3 3.6-.1v1.1c0 1.2-1 2.3-2.2 2.3z" class="Be"/><path d="M374.5 154.6a.55.55 0 0 1-.5.3c0 .3-.1.4-.3.6.5-.1.8-.5.8-.9z" class="Bf"/><path d="M384.2 154.8h-1.3l-.1-3.3 3.6-.1v1.1c0 1.2-.9 2.2-2.2 2.3z" class="Be"/><path d="M386.4 153.9a.55.55 0 0 1-.5.3c0 .3-.1.4-.3.6.5-.2.8-.5.8-.9z" class="Bf"/><path d="M421.9 148.3h-1.3l-.1-3.3 3.6-.1v1.1c0 1.3-1 2.3-2.2 2.3z" class="Be"/><path d="M424.1 147.4a.55.55 0 0 1-.5.3c0 .3-.1.4-.3.6.4-.1.8-.5.8-.9z" class="Bf"/><path d="M400.7 152.1h-1.3l-.1-3.3 3.6-.1v1.1c0 1.2-.9 2.2-2.2 2.3z" class="Be"/><path d="M402.9 151.1a.55.55 0 0 1-.5.3c0 .3-.1.4-.3.6.5-.1.8-.4.8-.9z" class="Bf"/><path d="M420.2 154.1l-1.3-.2.6-3.2 3.5.6-.2 1c-.2 1.2-1.3 2-2.6 1.8z" class="Bi"/><path d="M422.6 153.6c-.2.1-.3.2-.5.2 0 .3-.1.4-.4.5.4 0 .8-.3.9-.7z" class="Bj"/><path d="M370 160l-1.3.1-.1-3.3 3.6-.2v1.1c0 1.2-.9 2.3-2.2 2.3z" class="Bi"/><path d="M372.2 159.1a.55.55 0 0 1-.5.3c0 .3-.1.4-.2.6.4-.1.7-.5.7-.9z" class="Bj"/><path d="M400.5 157.1l-1.3-.2.4-3.3 3.5.4-.1 1.1c-.2 1.3-1.3 2.1-2.5 2z" class="Bi"/><path d="M402.8 156.5c-.2.1-.3.2-.5.2 0 .3-.1.4-.3.5.4 0 .7-.3.8-.7z" class="Bj"/><path d="M390.3 162.8l-1.3-.1.2-3.3 3.6.2-.1 1.1c-.1 1.2-1.2 2.2-2.4 2.1z" class="Bi"/><use xlink:href="#V" class="Bj"/><path d="M389 153.5l-1.3-.1.2-3.3 3.6.2-.1 1.1c-.1 1.2-1.2 2.1-2.4 2.1z" class="Bi"/><path d="M391.3 152.8c-.2.2-.3.2-.5.2 0 .3-.1.4-.3.6.4-.1.7-.4.8-.8z" class="Bj"/><use xlink:href="#W" class="Bp"/><path d="M405 161.1a.55.55 0 0 1-.5.3c0 .3-.1.4-.3.6.5-.1.8-.4.8-.9z" class="Bq"/><path d="M373.7 150.2h-1.3l-.1-3.3 3.6-.1v1.1c0 1.2-1 2.2-2.2 2.3z" class="Bp"/><path d="M375.9 149.3a.55.55 0 0 1-.5.3c0 .3-.1.4-.3.6.4-.2.8-.5.8-.9z" class="Bq"/><path d="M405.6 146.8h-1.3l-.1-3.3 3.6-.1v1.1c0 1.3-1 2.3-2.2 2.3z" class="Bp"/><path d="M407.8 145.9a.55.55 0 0 1-.5.3c0 .3-.1.4-.3.6.5-.1.8-.5.8-.9z" class="Bq"/><path d="M386.1 163.1h-1.3l-.1-3.3 3.6-.1v1.1c0 1.2-1 2.2-2.2 2.3z" class="Bp"/><path d="M388.3 162.1a.55.55 0 0 1-.5.3c0 .3-.1.4-.3.6.5-.1.8-.4.8-.9z" class="Bq"/><g class="Bw"><path d="M379.9 143.5V164m16.2-20.5V164m16.2-20.5V164"/></g></g><linearGradient id="e" gradientUnits="userSpaceOnUse" x1="379.07" y1="181.912" x2="373.737" y2="149.602"><stop offset="0" stop-color="#362f42"/><stop offset="1"/></linearGradient><path d="M357.1 161.5s-3.7-35.9 15.3-37.2c19-1.2 15.7 25.9 17.2 29.8 1.4 3.9 6.2 15.9 6.2 15.9s-33.9 26.1-38.7-8.5z" fill="url(#e)" class="BX"/><path d="M395.1 167.9s5 3.3 6.4 5.5.5 34.2-1.2 39.2c-2.4 7-7.9 1.9-7.9 1.9s-1-41.1 2.7-46.6zm-30-3.1l17.9 1.3 3.9 5.9v44.8l-17.9 1c0-.1-16-46.6-3.9-53z" class="BX" fill="#fc487f"/><linearGradient id="f" gradientUnits="userSpaceOnUse" x1="364.184" y1="177.464" x2="379.191" y2="152.89"><stop offset="0" stop-color="#ffd8b9"/><stop offset="1" stop-color="#ed835a"/></linearGradient><path d="M366 154s1.8 7.6 1 9.5l-1.9 1.3 1.6 3.2c3.6 6.8 13.7 6 16.2-1.3.1-.3.1-.5.2-.6 0 0-1.7-1.4-1.7-2.6s-.3-9.5-.3-9.5H366z" fill="url(#f)" class="BX"/><linearGradient id="g" gradientUnits="userSpaceOnUse" x1="365.066" y1="160.212" x2="383.687" y2="129.721"><stop offset="0" stop-color="#ffd8b9"/><stop offset="1" stop-color="#ed835a"/></linearGradient><path d="M363.3 146.3s.9 9.1 8.7 13.8a4.97 4.97 0 0 0 5.7-.3c2.4-1.8 5.4-5.4 6.4-12.3 1.6-11.6-6.3-14.4-10.4-14.4s-10.9 3.4-10.4 13.2z" fill="url(#g)" class="BX"/><linearGradient id="h" gradientUnits="userSpaceOnUse" x1="374.661" y1="150.14" x2="373.087" y2="140.603"><stop offset="0" stop-color="#ffd8b9"/><stop offset="1" stop-color="#ed835a"/></linearGradient><path d="M373.7 133.1c-4.1 0-10.8 3.5-10.4 13.3l.3 1.4c.4-1.2 1.5-3.3 3.8-4.6 3.3-1.8 6.4-5.8 6.4-5.8l5.6 2.5c2.2 1 4 4.3 4.7 7.8v-.2c1.6-11.7-6.4-14.4-10.4-14.4z" opacity=".3" fill="url(#h)" class="BX"/><linearGradient id="i" gradientUnits="userSpaceOnUse" x1="366.886" y1="133.488" x2="382.054" y2="177.36"><stop offset="0" stop-color="#362f42"/><stop offset="1"/></linearGradient><path d="M356.9 159.5c-.5-8.3-.9-34.2 15.5-35.2 19-1.2 15 22.4 17.2 29.8s4.4 11.4 5.3 13.8l-1.3 2s-6.1-9.8-7.7-17-1.6-14.7-12.1-15.5c0 0-6.9 1.4-10.5 9 0 0-1.4 15.8 1.5 23.1l-1.1 4.3c0-.1-6.3-6-6.8-14.3z" fill="url(#i)" class="BX"/><path d="M365.1 164.8s-12.6 3.9-15.6 4.1c0 0 3.2 21 2.9 25.2s-4.2 21.8-4.2 21.8l-4.7 42 12.6 10.8s16.7-32.9 17.7-41.5-8.7-62.4-8.7-62.4zm18 1.3l1.2 44.6c.5 6.1-1.8 19.9 0 23.2s10.1 31.7 10.1 31.7l2-23.2s-2.6-39.6-2-47c.7-7.4.8-27.6.8-27.6l-12.1-1.7z" class="BX" fill="#fdc51c"/><path d="M349.5 168.9s-7.9 10.4-9.4 15.2.4 21.7 0 28.2c-.4 6.6 4.4 8.1 4.4 8.1h12.1c4 0 7.1-3.6 6.2-7.5a4.89 4.89 0 0 0-2.3-3.2c-4.9-2.8-10.2-1.1-10.2-1.1s6.9-17.3-.8-39.7z" fill="#fc487f" class="BX"/><defs><path id="j" d="M195.6 70.1h-87.5c-4.3 0-7.8-3.5-7.8-7.8v-51c0-4.3 3.5-7.8 7.8-7.8h87.5c4.3 0 7.8 3.5 7.8 7.8v50.9c0 4.4-3.5 7.9-7.8 7.9z"/></defs><use xlink:href="#j" class="Bl"/><clipPath id="k"><use xlink:href="#j"/></clipPath><g class="By"><path d="M203.9 70.8H100.1c-.1 0-.2-.1-.2-.2V3c0-.1.1-.2.2-.2h103.8c.1 0 .2.1.2.2v67.5c0 .2-.1.3-.2.3z" fill="#ff6c4c"/><path d="M163.1 25.8h-24.5v26h1.7V33.7h4.6v18.1h.5V37.9h3.9v13.9h.8V33.2h6.5v18.6h.2V37.9h4.3v13.9h1.9v-26zm-27.3 0h-24.5v26h2.4V36.4h7.1v4.5h7v2.5h4.7v8.4h3.4v-26z" fill="#ffa18c"/><g fill="#cc583f"><use xlink:href="#X"/><path d="M107.9 24v69.8s-1 1.1-1.7 0V23.2l1.7.8zm-2.1 0v69.8s-1 1.1-1.7 0V23.2l1.7.8zm64.3 0v69.8s-1 1.1-1.7 0V23.2l1.7.8zm-2 0v69.8s-1 1.1-1.7 0V23.2l1.7.8zm-2.1 0v69.8s-1 1.1-1.7 0V23.2l1.7.8z"/></g><g fill="#ab4a35"><path d="M102.4 22.4h69V24h-69zm40.5 66h61.9v5.9h-61.9z"/><path d="M149.7 82.8h55.1v5.9h-55.1z"/><path d="M157.3 77.1h47.5V83h-47.5z"/><path d="M163.5 71.5h41.3v5.9h-41.3z"/><path d="M170.7 65.8h34.1v5.9h-34.1z"/><path d="M176.7 60.1h28.1V66h-28.1z"/><path d="M183.6 54.3h21.2v5.9h-21.2z"/><path d="M190.8 48.7h14v5.9h-14z"/><path d="M196.8 43h8v5.9h-8z"/></g><g fill="#853929"><path d="M185.9 41.7l-2.3-9.4h-5.2l-2.4 9.4h4.5v54.7h1V41.7z"/><path d="M182.2 102.2h-2.3v-7.4c0-.4.3-.8.8-.8h.7c.4 0 .8.3.8.8v7.4z"/></g><linearGradient id="l" gradientUnits="userSpaceOnUse" x1="129.453" y1="76.26" x2="176.845" y2="76.26"><stop offset="0" stop-color="#ffd8b9"/><stop offset="1" stop-color="#ed835a"/></linearGradient><path d="M176.6 50.3l-16.3-5.7-7 .9-7-.9-16.6 5.9c-1.7 17.4 6.5 32.6 6.5 32.6l1 24.8h32.6l.7-24.8c0 0 7.8-15.5 6.1-32.8z" fill="url(#l)"/><linearGradient id="m" gradientUnits="userSpaceOnUse" x1="126.181" y1="56.214" x2="139.048" y2="56.214"><stop offset="0" stop-color="#ffd8b9"/><stop offset="1" stop-color="#ed835a"/></linearGradient><circle cx="132.6" cy="56.2" r="6.4" fill="url(#m)"/><linearGradient id="n" gradientUnits="userSpaceOnUse" x1="121.432" y1="69.128" x2="138.819" y2="69.128"><stop offset="0" stop-color="#ffd8b9"/><stop offset="1" stop-color="#ed835a"/></linearGradient><path d="M138.8 57.9l-4.9-1.3-2.6-.7-4.9-1.3c-6.5 13.6-4.8 27-4.8 27l8 2.2c0-.1 8.1-15.2 9.2-25.9z" fill="url(#n)"/><linearGradient id="o" gradientUnits="userSpaceOnUse" x1="123.163" y1="121.989" x2="123.163" y2="98.697"><stop offset="0" stop-color="#ffd8b9"/><stop offset="1" stop-color="#ed835a"/></linearGradient><path d="M129.6 83.8l-3.2-.7-1.7-.5-3.2-.9c-4.3 9.9-4.8 28.9-4.8 28.9l5.3 1.4c-.1.1 8.2-13.6 7.6-28.2z" fill="url(#o)"/><linearGradient id="p" gradientUnits="userSpaceOnUse" x1="121.343" y1="82.776" x2="129.744" y2="82.776"><stop offset="0" stop-color="#ffd8b9"/><stop offset="1" stop-color="#ed835a"/></linearGradient><circle cx="125.5" cy="82.8" r="4.2" fill="url(#p)"/><linearGradient id="q" gradientUnits="userSpaceOnUse" x1="124.643" y1="178.389" x2="124.643" y2="114.432"><stop offset="0" stop-color="#5b3939"/><stop offset="1"/></linearGradient><path d="M117.6 126.4l15.9 6.8 1.2 29.7-6.6 1.8-13.6-6 .6-28.3c.1-1.7 1-3.2 2.5-4h0z" fill="url(#q)"/><path d="M119.1 129.2v-4.8c0-.7.6-1.2 1.2-1.2h0c.7 0 1.2.6 1.2 1.2v4.8c0 .7-.6 1.2-1.2 1.2h0c-.7.1-1.2-.5-1.2-1.2z" class="Br"/><linearGradient id="r" gradientUnits="userSpaceOnUse" x1="122.544" y1="121.989" x2="122.544" y2="98.697"><stop offset="0" stop-color="#ffd8b9"/><stop offset="1" stop-color="#ed835a"/></linearGradient><path d="M119 126.2c-1-.7-1.6-1.8-1.7-3l-.7-10.1 5.2-1.4 3.4 3.9c.7.7 1.2 1.6 1.5 2.6l.9 2.7a6.64 6.64 0 0 1 0 4.4h0c-.2.6-.8.8-1.3.5h0c-.3-.1-.4-.4-.5-.7l-.3-2.1-.8-2.4c-.1-.5-.6-.7-1.1-.6h0a.9.9 0 0 0-.6.6l-.7 3c-.1.4 0 .9.3 1.2l2.4 1.3 1.7-.4c.5-.1 1.1 0 1.5.4h0c.4.4.2 1-.4 1.1l-3.8.8c-.3.1-.7 0-1-.1l-4-1.7z" fill="url(#r)"/><linearGradient id="s" gradientUnits="userSpaceOnUse" x1="119.068" y1="121.989" x2="119.068" y2="98.697"><stop offset="0" stop-color="#ffd8b9"/><stop offset="1" stop-color="#ed835a"/></linearGradient><circle cx="119.1" cy="111.8" r="2.7" fill="url(#s)"/><linearGradient id="t" gradientUnits="userSpaceOnUse" x1="116.319" y1="107.846" x2="125.856" y2="107.846"><stop offset="0" stop-color="#ffd8b9"/><stop offset="1" stop-color="#ed835a"/></linearGradient><path d="M116.9 106.8l-.2 3.7c-.4.6-.5 1.4-.2 2.2v.1c2.4-1.2 4.7-1.5 5.9-1.5.7-1.3 2.1-3.9 3.4-7.5l-3.5-.8-5.4 3.8z" opacity=".3" fill="url(#t)"/><g class="Br"><path d="M126.9 127.9l-4-2.6c-.6-.4-.7-1.1-.3-1.7h0c.4-.6 1.1-.7 1.7-.3l4 2.6c.6.4.7 1.1.3 1.7h0c-.4.5-1.1.6-1.7.3z"/><path d="M126.7 131.9v-4.8c0-.7.6-1.2 1.2-1.2h0c.7 0 1.2.6 1.2 1.2v4.8c0 .7-.6 1.2-1.2 1.2h0c-.7 0-1.2-.6-1.2-1.2z"/></g><linearGradient id="u" gradientUnits="userSpaceOnUse" x1="126.312" y1="136.718" x2="142.517" y2="180.521"><stop offset="0" stop-color="#5b3939"/><stop offset="1"/></linearGradient><path d="M133.5 133.2s-4.5 1.4-5 5.1-.4 26.3-.4 26.3l6.6-1.8-1.2-29.6z" fill="url(#u)"/><path d="M128.2 147.8l-13.3-6.5v-1l13.3 6.5z" class="Br"/><linearGradient id="v" gradientUnits="userSpaceOnUse" x1="122.666" y1="144.879" x2="112.369" y2="144.879"><stop offset="0" stop-color="#5b3939"/><stop offset="1"/></linearGradient><path d="M120.8 147.3l-1-.5c-.3-.2-.6-.5-.6-.9v-3.5l2.9 1.4v2.6c0 .7-.7 1.2-1.3.9z" fill="url(#v)"/><path d="M120.5 147.2l-.8-.4c-.3-.1-.4-.4-.4-.7v-3.6l2.4 1.2v2.9c-.1.4-.7.8-1.2.6z" class="Br"/><path d="M187.7 79c.2-2.8-1.1-12.8-6.7-24.6-.6-2-2-3.7-3.9-4.5h0l-.4-.1c-.1 0-.2-.1-.2-.1l-16.1-5.6-7.1.9-7.1-.9-15.2 5.4c-.4.1-.9.3-1.3.5l-.2.1-.3.1v.1a6.96 6.96 0 0 0-3.3 4.2c-5.9 12.5-5 25-4.8 26.9 0 .1-.1.2-.1.4-4.2 9.9-4.8 28.2-4.8 29v.4h.1c1.3-.4 2.8-.6 4.3-.6.9 0 1.9.1 2.7.2 1.8-3.4 5.7-11.7 6.7-21.1.4-4.1 1.5-8.2 3.2-12v-.1c1.2 3.2 2.2 5.2 2.5 5.7l1 25.2h33.5l.8-25.2c.2-.5 1.3-2.7 2.5-6.3.1.2 3 1.6 4 5.8 2.1 8.4 10.2-3.5 10.2-3.8z" fill="#ffbf00"/><linearGradient id="w" gradientUnits="userSpaceOnUse" x1="153.574" y1="55.529" x2="163.562" y2="39.771"><stop offset="0" stop-color="#ffd8b9"/><stop offset="1" stop-color="#ed835a"/></linearGradient><path d="M161.8 47.1l-1.4-9.3-6.4-1.5-6.4 1.5-1.3 9.3-5.9 2.7v10.6h27.3V49.8z" fill="url(#w)"/><path d="M142.9 45.3l11.1 5.4 11-5.4.7.8s-.4 41.9-3.8 47.2c-3.5 5.3-8.2 11.2-10.2 10.5s-7.5-20.9-7.5-20.9l-2.5-34.2c.1-1.6 1.2-3.4 1.2-3.4z" fill="#f2f2f2"/><path d="M174 48.9l-8.9-3.6s-.7 2.3-3.6 6.1c-3.8 4.9-11.2 4.9-15 0-2.9-3.8-3.6-6.1-3.6-6.1l-8.9 3.1s-3.2 17.4-.9 29.1c2 10.2 1.4 22.8 1.3 27.8v1.9c0 .2 2.8.5 2.7.7-1.6 1.9-1.4 5.7-1.4 6.6-.1 6.7-1.8 12.4-1.8 12.4H146c4.1 0 7.5-3.1 8-8.2.1 5.1 3.2 8.2 7.1 8.2l13.5 1.6s-4-16.9-3.8-21.1c0-.3 2.8-1.2 2.8-1.6s-.7-3.4-.7-4c-.1-5.1 0-14.5 1.9-24.3 2.4-11.7-.8-28.6-.8-28.6z" fill="#ffbf00"/><linearGradient id="x" gradientUnits="userSpaceOnUse" x1="134.585" y1="119.076" x2="173.604" y2="119.076"><stop offset="0" stop-color="#ffd8b9"/><stop offset="1" stop-color="#ed835a"/></linearGradient><path d="M169.8 107.9c-10.7 1.1-21.5 1.1-32.6 0 0 0-3.3 11-2.4 17.8 0 0 12.1.9 15.3 3.2l.7 1.2h5.6l.7-1.2c3.2-2.3 16.6-3.4 16.6-3.4.7-6.7-3.9-17.6-3.9-17.6z" fill="url(#x)"/><linearGradient id="y" gradientUnits="userSpaceOnUse" x1="134.189" y1="124.503" x2="152.475" y2="124.503"><stop offset="0" stop-color="#ffd8b9"/><stop offset="1" stop-color="#ed835a"/></linearGradient><path d="M152.5 124.5c0 5.2-4.2 9.5-9.5 9.5-5.2 0-8.8-4.6-8.8-9.8s3.6-9.1 8.8-9.1c5.2-.1 9.5 4.2 9.5 9.4z" fill="url(#y)"/><linearGradient id="z" gradientUnits="userSpaceOnUse" x1="133.824" y1="140.315" x2="152.537" y2="140.315"><stop offset="0" stop-color="#ffd8b9"/><stop offset="1" stop-color="#ed835a"/></linearGradient><path d="M134.1 123.1h18.3s1 4.5-3.8 34.4l-13.2-.6s-2.4-15.9-1.3-33.8z" fill="url(#z)"/><linearGradient id="AA" gradientUnits="userSpaceOnUse" x1="135.255" y1="158.257" x2="148.723" y2="158.257"><stop offset="0" stop-color="#ffd8b9"/><stop offset="1" stop-color="#ed835a"/></linearGradient><circle cx="142" cy="158.3" r="6.7" fill="url(#AA)"/><linearGradient id="AB" gradientUnits="userSpaceOnUse" x1="135.163" y1="184.73" x2="149.47" y2="184.73"><stop offset="0" stop-color="#ffd8b9"/><stop offset="1" stop-color="#ed835a"/></linearGradient><path d="M135.3 158.3h13.4l.8 22c0 .5 0 1-.1 1.5l-3.8 29.4h-9.7l-.8-28.9v-1.6l.2-22.4z" fill="url(#AB)"/><path d="M145.6 211.2l1 3.8-.5 2.4v3.4c0 1.2-.5 2.2-1.4 2.9h0c-.8 2.1-2.6 3.6-4.8 4.2l-2.9.8h-8.6c-1.1 0-2-.9-2-2v-2.5c0-.6.2-1.1.7-1.5l8.2-7.2.6-4.2h9.7z" fill="#42210b"/><linearGradient id="AC" gradientUnits="userSpaceOnUse" x1="154.887" y1="123.845" x2="173.689" y2="123.845"><stop offset="0" stop-color="#ffd8b9"/><stop offset="1" stop-color="#ed835a"/></linearGradient><path d="M154.9 124.5c0 5.2 4.2 9.5 9.5 9.5s9.3-4.3 9.3-9.6c0-5.2-4.1-10.7-9.3-10.7s-9.5 5.6-9.5 10.8z" fill="url(#AC)"/><linearGradient id="AD" gradientUnits="userSpaceOnUse" x1="154.804" y1="140.467" x2="173.891" y2="140.467"><stop offset="0" stop-color="#ffd8b9"/><stop offset="1" stop-color="#ed835a"/></linearGradient><path d="M173.6 123.1h-18.7s-1.1 4.8 3.7 34.7l13.3-.9c.1 0 2.9-15.9 1.7-33.8z" fill="url(#AD)"/><linearGradient id="AE" gradientUnits="userSpaceOnUse" x1="158.639" y1="158.257" x2="172.107" y2="158.257"><stop offset="0" stop-color="#ffd8b9"/><stop offset="1" stop-color="#ed835a"/></linearGradient><circle cx="165.4" cy="158.3" r="6.7" fill="url(#AE)"/><linearGradient id="AF" gradientUnits="userSpaceOnUse" x1="157.893" y1="184.629" x2="172.199" y2="184.629"><stop offset="0" stop-color="#ffd8b9"/><stop offset="1" stop-color="#ed835a"/></linearGradient><path d="M172.1 158.3l-13.5-.2-.8 22.2c0 .5 0 1 .1 1.5l3.8 29.4h9.7l.8-28.9v-1.6l-.1-22.4z" fill="url(#AF)"/><path d="M161.7 211.2l-1 3.8.5 2.4v3.4c0 1.2.5 2.2 1.4 2.9h0c.8 2.1 2.6 3.6 4.8 4.2l2.9.8h8.6c1.1 0 2-.9 2-2v-2.5c0-.6-.2-1.1-.7-1.5l-8.2-7.2-.6-4.2h-9.7z" fill="#42210b"/><path d="M134 156.9c-.1.4-.1.9-.1 1.4l-.1 24.1.8 28.9s6.5 2.5 11.2 0h0l3.7-29.3c.1-.5.1-1.1.1-1.6l-.8-21.5v-.5c0-.3 0-.6-.1-.9 1.8-11.1 3-20 3.5-26.3h2.1c.5 6.5 1.7 15.6 3.6 26.9l-.8 22.4c0 .5 0 1.1.1 1.6l3.7 29.2s5.7 3.5 11.2 0l.8-28.9v-1.7l-.1-22.4c0-.5 0-.9-.1-1.4.3-1.7 2.6-16.1 1.7-32.5 0-.4 0-.8-.1-1.2v-.4c-.3-7.3-3.1-14.4-3.2-14.8v-.7c-11.5 1.7-23 1.7-34.5 0l-.2.5c-.2.5-2.7 9.4-2.5 16.7-.8 16.2-.2 30.7.1 32.4z" fill="#603813"/><linearGradient id="AG" gradientUnits="userSpaceOnUse" x1="162.066" y1="31.073" x2="165.984" y2="31.073"><stop offset="0" stop-color="#ffd8b9"/><stop offset="1" stop-color="#ed835a"/></linearGradient><path d="M164.6 27.2h0c.4-.3.8-.2 1.1.1h0a.96.96 0 0 1 .2.9c-.4.8-1.1 2.6-1.3 3.7-.2 1.6-.5 3.1-2.6 3.1l1.1-7.7 1.5-.1z" fill="url(#AG)"/><linearGradient id="AH" gradientUnits="userSpaceOnUse" x1="141.852" y1="31.073" x2="145.77" y2="31.073"><stop offset="0" stop-color="#ffd8b9"/><stop offset="1" stop-color="#ed835a"/></linearGradient><path d="M143.2 27.2h0c-.4-.3-.8-.2-1.1.1h0a.96.96 0 0 0-.2.9c.4.8 1.1 2.6 1.3 3.7.2 1.6.5 3.1 2.6 3.1l-1.1-7.7-1.5-.1z" fill="url(#AH)"/><linearGradient id="AI" gradientUnits="userSpaceOnUse" x1="151.38" y1="37.459" x2="160.83" y2="10.723"><stop offset="0" stop-color="#ffd8b9"/><stop offset="1" stop-color="#ed835a"/></linearGradient><path d="M162.3 21l-8.3-3.4-7.4 2.8-1 11.4.4 5.8c0 .7.5 1.3 1.1 1.6 1.2.6 3.3 1.8 4.7 3.5.6.7 4 .7 4.5 0 1.4-1.7 3.5-2.9 4.7-3.5.6-.3 1.1-.9 1.1-1.6l.4-5.8-.2-10.8z" fill="url(#AI)"/><linearGradient id="AJ" gradientUnits="userSpaceOnUse" x1="150.703" y1="19.374" x2="159.102" y2="35.643"><stop offset="0" stop-color="#362f42"/><stop offset="1"/></linearGradient><path d="M163.1 17.7h0c-.4-1.4-1.4-2.6-2.7-3.3-3.8-2-7.7-2.3-10.5-1.9-3.3.5-4.3 3.2-4.3 3.2l-.6 1.9-.5.7c-1.8 2.2-2.3 5.2-1.4 7.9l.5 1.6s2 4.8 2 8.1l.7-.2s-1-4.6-.2-6.6 1.8-3.5 1.8-3.5l-.5-4.5c0-.2.2-.4.4-.3l3.7.7a12.91 12.91 0 0 0 4.8 0l3.7-.7c.2 0 .4.1.4.3l-.5 4.5s1 1.5 1.8 3.5-.2 6.6-.2 6.6l.7.2c0-3.3 2-8.1 2-8.1l.7-1.9c.8-2.5.4-5.2-1.3-7.2l-.5-1z" fill="url(#AJ)"/><g fill="#534741"><path d="M146.3 213.6l-.6 4.9h-2.5a6.3 6.3 0 0 0-5.4-3.1h-2.5l-8.3 6.4c-.9.7-1.4 1.7-1.4 2.8v3.4c1.2 1.2 2.8 1.8 4.4 1.8h3.6c4 0 7.8-1.5 10.7-4.2h0c1.5-1.4 2.4-3.4 2.6-5.5l.4-5.6c0-.5-.4-.9-.9-.9h-.1zm14.8 0l.6 4.9h2.5a6.3 6.3 0 0 1 5.4-3.1h2.5l8.3 6.4c.9.7 1.4 1.7 1.4 2.8v3.4c-1.2 1.2-2.8 1.8-4.4 1.8h-3.6c-4 0-7.8-1.5-10.7-4.2h0c-1.5-1.4-2.4-3.4-2.6-5.5l-.4-5.6c0-.5.4-.9.9-.9h.1z"/></g><g class="BV"><path d="M146.6 44.6s1.5 3.5 7.4 6.1l-6.2 5.6s-4.5-4.7-4.9-11l3.8-1.5-.1.8zm14.8 0s-1.4 3.5-7.3 6.1l6.2 5.6s4.5-4.7 4.9-11l-3.9-1.5.1.8zm-22.7 64.2c2 .5 5.9 1.4 10.6 1.3v2.7s-4.2-.1-11.2-1.3c-.7-.1-1.2-.8-1.1-1.5.2-.9 1-1.4 1.7-1.2zm29.8 0c-1.8.5-5.5 1.3-10.1 1.2v2.6c.4 0 4.1-.1 10.6-1.3.7-.1 1.2-.8 1.1-1.6h0c-.1-.6-.8-1.1-1.6-.9z"/></g><path d="M155.7 112.8h-3.9c-.8 0-1.4-.6-1.4-1.4h0c0-.8.6-1.4 1.4-1.4h3.9c.8 0 1.4.6 1.4 1.4h0c0 .8-.6 1.4-1.4 1.4z" fill="#f2f2f2"/></g><defs><filter id="AK" filterUnits="userSpaceOnUse"><feFlood class="Bg Bh"/><feBlend in="SourceGraphic"/></filter></defs><mask maskUnits="userSpaceOnUse" id="AN"><g class="Bk"><defs><filter id="AM" filterUnits="userSpaceOnUse" x="287.7" y="143.9" width="55" height="27.5"><feFlood class="Bg Bh"/><feBlend in="SourceGraphic"/></filter></defs><mask maskUnits="userSpaceOnUse" x="287.7" y="143.9" width="55" height="27.5" id="AN"><g filter="url(#AM)"><image width="55" height="27.5" xlink:href="F6E462B0.png" transform="translate(287.677 143.872)" class="BW"/></g></mask><g mask="url(#AN)"><image width="55" height="27.5" xlink:href="F6E462B1.png" transform="translate(287.677 143.872)" class="BW"/></g></g></mask><defs/><mask maskUnits="userSpaceOnUse" id="AQ"><g class="Bk"><defs><filter id="AP" filterUnits="userSpaceOnUse" x="129.4" y="126.1" width="55" height="27.5"><feFlood class="Bg Bh"/><feBlend in="SourceGraphic"/></filter></defs><mask maskUnits="userSpaceOnUse" x="129.4" y="126.1" width="55" height="27.5" id="AQ"><g filter="url(#AP)"><image width="55" height="27.5" xlink:href="F6E462B7.png" transform="translate(129.361 126.085)" class="BW"/></g></mask><g mask="url(#AQ)"><image width="55" height="27.5" xlink:href="F6E462B2.png" transform="translate(129.361 126.085)" class="BW"/></g></g></mask><defs/><mask maskUnits="userSpaceOnUse" id="AT"><g class="Bk"><defs><filter id="AS" filterUnits="userSpaceOnUse" x="44.2" y="71.7" width="55" height="27.5"><feFlood class="Bg Bh"/><feBlend in="SourceGraphic"/></filter></defs><mask maskUnits="userSpaceOnUse" x="44.2" y="71.7" width="55" height="27.5" id="AT"><g filter="url(#AS)"><image width="55" height="27.5" xlink:href="F6E462B3.png" transform="translate(44.245 71.683)" class="BW"/></g></mask><g mask="url(#AT)"><image width="55" height="27.5" xlink:href="F6E462BE.png" transform="translate(44.245 71.683)" class="BW"/></g></g></mask><defs/><mask maskUnits="userSpaceOnUse" id="AW"><g class="Bk"><defs><filter id="AV" filterUnits="userSpaceOnUse" x="174.1" y="25.8" width="52" height="26"><feFlood class="Bg Bh"/><feBlend in="SourceGraphic"/></filter></defs><mask maskUnits="userSpaceOnUse" x="174.1" y="25.8" width="52" height="26" id="AW"><g filter="url(#AV)"><image width="52" height="26" xlink:href="F6E462BF.png" transform="translate(174.081 25.764)" class="BW"/></g></mask><g mask="url(#AW)"><image width="52" height="26" xlink:href="F6E462B4.png" transform="translate(174.081 25.764)" class="BW"/></g></g></mask><defs/><mask maskUnits="userSpaceOnUse" id="AZ"><g class="Bk"><defs><filter id="AY" filterUnits="userSpaceOnUse" x="246.4" y="49.4" width="52" height="26"><feFlood class="Bg Bh"/><feBlend in="SourceGraphic"/></filter></defs><mask maskUnits="userSpaceOnUse" x="246.4" y="49.4" width="52" height="26" id="AZ"><g filter="url(#AY)"><image width="52" height="26" xlink:href="F6E462B5.png" transform="translate(246.372 49.444)" class="BW"/></g></mask><g mask="url(#AZ)"><image width="52" height="26" xlink:href="AF0243CF.png" transform="translate(246.372 49.444)" class="BW"/></g></g></mask><circle transform="matrix(.2298 -.9732 .9732 .2298 -3.4224 250.8026)" cx="156.7" cy="127.6" r="15.2" fill="#f99e19"/><path d="M165.6 123.1h-1l-4.2 2.8v-3.2c0-.2-.2-.4-.4-.4h-11.6c-.2 0-.4.2-.4.4v9.9c0 .2.2.4.4.4H160c.2 0 .4-.2.4-.4v-3.2l4.1 2.8h1.1c.1 0 .2-.1.2-.2v-8.7c0-.1-.1-.2-.2-.2zm-11.5 6.8a2.22 2.22 0 0 1-2.2-2.2 2.22 2.22 0 0 1 2.2-2.2 2.22 2.22 0 0 1 2.2 2.2 2.22 2.22 0 0 1-2.2 2.2z" class="BV"/><circle cx="314.9" cy="145.1" r="15.2" fill="#5f40c4"/><path d="M314.9 140.5c-.2 0-.3.1-.3.3v.6c0 .2.1.3.3.3s.3-.1.3-.3v-.6c0-.2-.1-.3-.3-.3zm-1.4 0c-.2 0-.3.1-.3.3v.6c0 .2.1.3.3.3s.3-.1.3-.3v-.6c-.1-.2-.2-.3-.3-.3zm0-1.8c-.2 0-.3.1-.3.3v.6c0 .2.1.3.3.3s.3-.1.3-.3v-.6c-.1-.2-.2-.3-.3-.3zm1.4 0c-.2 0-.3.1-.3.3v.6c0 .2.1.3.3.3s.3-.1.3-.3v-.6c0-.2-.1-.3-.3-.3zm1.4 1.8c-.2 0-.3.1-.3.3v.6c0 .2.1.3.3.3s.3-.1.3-.3v-.6c0-.2-.1-.3-.3-.3zm3.8 1.6a.47.47 0 0 0-.5.5v3.8c0 2.6-2.1 4.7-4.7 4.7s-4.7-2.1-4.7-4.7v-3.8a.47.47 0 1 0-1 0v3.8c0 3 2.3 5.4 5.2 5.6v1.6h-3.1v.9h7.1v-.9h-3.1V152c2.9-.2 5.2-2.7 5.2-5.6v-3.8c0-.3-.2-.5-.4-.5zm-5.2 7.7h0c2 0 3.6-1.6 3.6-3.6v-6.9c0-2-1.6-3.6-3.6-3.6h0c-2 0-3.6 1.6-3.6 3.6v6.9c0 2 1.6 3.6 3.6 3.6zm-2.7-10.5a2.69 2.69 0 1 1 5.4 0v3.5h-5.3v-3.5zm4.1-.6c-.2 0-.3.1-.3.3v.6c0 .2.1.3.3.3s.3-.1.3-.3v-.6c0-.2-.1-.3-.3-.3z" class="BV"/><circle transform="matrix(.005247 -1 1 .005247 -1.7131 144.4435)" cx="71.7" cy="73.1" r="15.2" class="Bw"/><path d="M77.9 67.2H65.8c-1.3 0-2.4 1.1-2.4 2.4v5.7c0 1.3 1.1 2.4 2.4 2.4h4.4v4l3.4-4h4.3c1.3 0 2.4-1.1 2.4-2.4v-5.7c0-1.3-1.1-2.4-2.4-2.4zm-9.7 6.7a1.11 1.11 0 0 1-1.1-1.1 1.11 1.11 0 0 1 1.1-1.1 1.11 1.11 0 0 1 1.1 1.1 1.11 1.11 0 0 1-1.1 1.1zm3.7 0a1.11 1.11 0 0 1-1.1-1.1 1.11 1.11 0 0 1 1.1-1.1 1.11 1.11 0 0 1 1.1 1.1 1.11 1.11 0 0 1-1.1 1.1zm3.6 0a1.11 1.11 0 0 1-1.1-1.1 1.11 1.11 0 0 1 1.1-1.1 1.11 1.11 0 0 1 1.1 1.1 1.11 1.11 0 0 1-1.1 1.1z" class="BV"/><circle cx="272.4" cy="50.9" r="14.1" fill="#f05a5b"/><path d="M278.4 53.1c-.3-.6-.8-1.1-1.5-1.2l-2.3-.4-.6-1.7c.6-.7 1-1.6 1-2.7l.6-.6v-3.2c-.1-.3-.4-.8-.6-1.1-.2-.4-.8-.3-1.3-.6-.5-.4-1.5-.4-2.3-.3s-1.5 1.1-1.9 1.8c-.5.8-.2 1.7-.4 2.2-.3.5.4 1.9.4 1.9 0 1.2.4 2.2 1.1 2.8l-.6 1.6-2.3.4c-.7.1-1.2.6-1.5 1.2l-2.2 5c0 1.9 16.5 1.9 16.5 0l-2.1-5.1zm-3.6 2.6h-1.9v1.9h-1.1v-1.9h-1.9v-1.1h1.9v-1.9h1.1v1.9h1.9v1.1z" class="BV"/><circle cx="200.1" cy="27" r="14.1" fill="#4389ed"/><path d="M206.4 20.1h-12.7c-.7 0-1.3.6-1.3 1.3v8.5c0 .7.6 1.3 1.3 1.3h5.8v3.7l-2 1.6.8.9 1.8-1.5 1.8 1.5.8-.9-1.9-1.6v-3.8h5.8c.7 0 1.3-.6 1.3-1.3v-8.5c-.2-.7-.8-1.2-1.5-1.2zm-7.8 7.2v-3l3 1.5-3 1.5z" class="BV"/></svg>