<svg xmlns="http://www.w3.org/2000/svg" xmlns:xlink="http://www.w3.org/1999/xlink" width="445" height="297" xmlns:v="https://vecta.io/nano"><style><![CDATA[.AA{fill:#fff}.AB{enable-background:new}.AC{opacity:.05}.AD{fill:#bb3126}.AE{fill:#fbae17}.AF{fill:#1e4463}.AG{fill:#c48c28}.AH{fill:#9a3326}.AI{fill:#fcd1ba}.AJ{fill:#c3baa0}.AK{fill:#c17232}.AL{opacity:.1}.AM{fill:#235170}.AN{fill:#c3c1c1}.AO{fill:#254860}.AP{stroke-miterlimit:10}.AQ{fill:#f5882e}]]></style><path d="M223 290.6L75.4 211.4c-2.2-1.2-2.2-3.1 0-4.3l99-53.2c2.2-1.2 5.7-1.2 7.9 0l147.6 79.2c2.2 1.2 2.2 3.1 0 4.3l-99 53.2c-2.2 1.1-5.7 1.1-7.9 0z" class="AB AL"/><g fill="#dbdbda"><path d="M223.9 286.3L76.3 207.1c-2.2-1.2-2.2-3.1 0-4.3l99-53.2c2.2-1.2 5.7-1.2 7.9 0l147.6 79.2c2.2 1.2 2.2 3.1 0 4.3l-99 53.2c-2.2 1.2-5.7 1.2-7.9 0z"/><path d="M74.7 205v-3.4l18.9-2.1v9.9z"/></g><path d="M187.6 149.5l145.7 78.2c3.1 1.7 5.6.3 5.6-3l2.8-122.8c1.2-6.3-2.5-7.4-5.6-9L188 13.3c-3.1-1.7-5.6-.3-5.6 3l-.4 124.2c0 3.3 2.5 7.4 5.6 9z" fill="#efefef"/><path d="M186.1 150.4l145.7 78.2c3.1 1.7 5.6.3 5.6-3l2.8-122.8c1.2-6.3-2.5-7.4-5.6-9L186.5 14.2c-3.1-1.7-5.6-.3-5.6 3l-.4 124.2c0 3.3 2.5 7.4 5.6 9z" fill="#07080a"/><linearGradient id="A" gradientUnits="userSpaceOnUse" x1="271.354" y1="-7.541" x2="249.218" y2="213.82"><stop offset="0" stop-color="#d7eef2"/><stop offset=".995" stop-color="#76cdf3"/></linearGradient><path d="M186 140.4l145 77.9c.4.2.8 0 .8-.4l2.8-116.6a1.3 1.3 0 0 0-.8-1.2L186.3 20.7c-.4-.2-.8 0-.8.4l-.4 118.1c.1.4.4 1 .9 1.2z" fill="url(#A)"/><path d="M332.5 231v-3.2h-7.6l-1.2 5.6z" fill="#dbdbda"/><path d="M223.9 283L76.3 203.8c-2.2-1.2-2.2-3.1 0-4.3l99-53.2c2.2-1.2 5.7-1.2 7.9 0l147.6 79.2c2.2 1.2 2.2 3.1 0 4.3l-99 53.2c-2.2 1.1-5.7 1.1-7.9 0z" fill="#efefef"/><g fill="#1a1a1b"><use xlink:href="#C"/><path d="M175.8 177.4l-9.4-5c-.4-.2-.4-.5 0-.7l5.4-2.9a1.71 1.71 0 0 1 1.4 0l9.4 5c.4.2.4.5 0 .7l-5.4 2.9c-.4.2-1.1.2-1.4 0z"/><use xlink:href="#D"/><use xlink:href="#E"/><use xlink:href="#E" x="8.2" y="4.4"/><use xlink:href="#E" x="16.4" y="8.8"/><use xlink:href="#E" x="24.7" y="13.3"/><use xlink:href="#C" x="49.1" y="26.3"/><use xlink:href="#C" x="57.4" y="30.8"/><use xlink:href="#E" x="49.3" y="26.5"/><use xlink:href="#E" x="57.5" y="30.9"/><use xlink:href="#C" x="81.9" y="43.9"/><use xlink:href="#E" x="73.9" y="39.7"/><use xlink:href="#D" x="90.3" y="48.5"/><use xlink:href="#C" x="4" y="-6.4"/><use xlink:href="#E" x="-20.5" y="-19.6"/><use xlink:href="#F"/><use xlink:href="#G"/><path d="M204.9 176.2l-6-3.2c-.2-.1-.2-.3 0-.5l3.4-1.8a1.39 1.39 0 0 1 .9 0l6 3.2c.2.1.2.3 0 .5l-3.4 1.8a1.39 1.39 0 0 1-.9 0z"/><use xlink:href="#G" x="17.2" y="9.2"/><use xlink:href="#G" x="26" y="13.9"/><use xlink:href="#F" x="42.5" y="22.8"/><use xlink:href="#G" x="42.9" y="23"/><use xlink:href="#G" x="51.3" y="27.5"/><use xlink:href="#H"/><use xlink:href="#H" x="8.3" y="4.5"/><use xlink:href="#H" x="16.9" y="9.1"/><use xlink:href="#H" x="25.2" y="13.6"/><use xlink:href="#H" x="33.8" y="18.2"/><use xlink:href="#G" x="102.4" y="54.9"/><use xlink:href="#C" x="12.1" y="-2.1"/><use xlink:href="#C" x="20.2" y="2.3"/><use xlink:href="#C" x="28.4" y="6.7"/><use xlink:href="#D" x="28.5" y="6.8"/><use xlink:href="#E" x="28.7" y="6.9"/><use xlink:href="#E" x="36.8" y="11.2"/><use xlink:href="#E" x="45.1" y="15.7"/><use xlink:href="#E" x="53.3" y="20.1"/><path d="M261.9 215.1l-5.6-3c-.4-.2-.4-.5 0-.7l5.4-2.9c.4-.2 1-.2 1.3 0l5.6 3c.4.2.4.5 0 .7l-5.4 2.9c-.3.1-.9.1-1.3 0z"/><use xlink:href="#E" x="69.6" y="28.8"/><use xlink:href="#C" x="94.1" y="41.9"/><path d="M290.6 230.4l-9.6-5.1c-.4-.2-.4-.5 0-.7l5.5-2.9c.4-.2.9-.2 1.3 0l9.6 5.1c.4.2.4.5 0 .7l-5.5 2.9c-.4.2-1 .2-1.3 0zm-120.7-47.5l-11.4-6.1c-.5-.2-.5-.6 0-.9l5.1-2.7c.5-.2 1.2-.2 1.6 0l11.4 6.1c.5.2.5.6 0 .9l-5.1 2.7c-.4.2-1.2.2-1.6 0z"/><use xlink:href="#E" x="-22.3" y="-3.3"/><use xlink:href="#E" x="-14.2" y="1.1"/><use xlink:href="#C" x="10.3" y="14.2"/><use xlink:href="#C" x="18.5" y="18.6"/><use xlink:href="#E" x="10.6" y="14.4"/><use xlink:href="#E" x="18.7" y="18.7"/><use xlink:href="#E" x="27" y="23.2"/><use xlink:href="#E" x="35.2" y="27.6"/><path d="M243.8 222.6l-5.6-3c-.4-.2-.4-.5 0-.7l5.4-2.9c.4-.2 1-.2 1.3 0l5.6 3c.4.2.4.5 0 .7l-5.4 2.9c-.4.1-1 .1-1.3 0z"/><use xlink:href="#E" x="51.5" y="36.3"/><use xlink:href="#C" x="76" y="49.4"/><path d="M274.5 239.1l-11.7-6.3c-.3-.2-.3-.5 0-.7l5.5-3c.3-.2.9-.2 1.2 0l11.7 6.3c.3.2.3.5 0 .7l-5.5 3c-.3.1-.8.1-1.2 0zm-108.8-49.8l-15.4-8.3c-.4-.2-.4-.6 0-.8l5.3-2.9a1.71 1.71 0 0 1 1.4 0l15.4 8.3c.4.2.4.6 0 .8l-5.3 2.9c-.3.2-1 .2-1.4 0z"/><use xlink:href="#E" x="-26" y="3.3"/><use xlink:href="#E" x="-17.9" y="7.7"/><use xlink:href="#C" x="6.6" y="20.8"/><use xlink:href="#C" x="14.8" y="25.2"/><use xlink:href="#E" x="6.9" y="21"/><use xlink:href="#E" x="15" y="25.3"/><use xlink:href="#E" x="23.3" y="29.8"/><use xlink:href="#E" x="31.5" y="34.2"/><path d="M224.4 230.7l-7.4-3.9c-.3-.2-.3-.5 0-.7l6.2-3.3c.3-.2.9-.2 1.3 0l7.4 3.9c.3.2.3.5 0 .7l-6.2 3.3c-.4.2-.9.2-1.3 0zm8.1 4.4l-5.5-2.9c-.3-.2-.3-.4 0-.6l6.4-3.4c.3-.2.8-.2 1.1 0l5.5 2.9c.3.2.3.4 0 .6l-6.4 3.4c-.3.1-.8.1-1.1 0zm8.5 4.5l-6.1-3.3c-.2-.1-.2-.3 0-.4l2.9-1.6c.2-.1.6-.1.8 0l6.1 3.3c.2.1.2.3 0 .4l-2.9 1.6c-.2.1-.6.1-.8 0z"/><use xlink:href="#I"/><path d="M249.2 244l-6.1-3.3c-.2-.1-.2-.3 0-.4l2.9-1.6c.2-.1.6-.1.8 0l6.1 3.3c.2.1.2.3 0 .4L250 244c-.2.1-.5.1-.8 0z"/><use xlink:href="#I" x="-4.2" y="-6.6"/><path d="M173 203.1l-7.4-3.9c-.3-.2-.3-.5 0-.7l6.2-3.3c.3-.2.9-.2 1.3 0l7.4 3.9c.3.2.3.5 0 .7l-6.2 3.3c-.4.2-1 .2-1.3 0z"/><use xlink:href="#J"/><use xlink:href="#J" x="-8.3" y="-4.5"/><path d="M146.4 188.8l-5.5-3c-.3-.2-.3-.4 0-.6l6.4-3.4c.3-.2.8-.2 1.1 0l5.5 3c.3.2.3.4 0 .6l-6.4 3.4c-.3.2-.8.2-1.1 0zm67.3 36.2l-37.6-20.2c-.5-.2-.5-.6 0-.9l5.8-3.1c.5-.2 1.2-.2 1.6 0l37.6 20.2c.5.2.5.6 0 .9l-5.8 3.1c-.4.2-1.1.2-1.6 0z"/><use xlink:href="#C" x="55.9" y="47.3"/><use xlink:href="#E" x="47.8" y="42.9"/><path d="M266.3 243.2l-15.2-8.2c-.5-.3-.5-.7 0-.9l5-2.7a1.72 1.72 0 0 1 1.7 0l15.2 8.2c.5.3.5.7 0 .9l-5 2.7a1.72 1.72 0 0 1-1.7 0z"/><path d="M183.8 258.1l-61.4-32.9c-.8-.4-.8-1.1 0-1.6l37.8-20.3c.8-.4 2.1-.4 3 0l61.4 32.9c.8.4.8 1.1 0 1.6l-37.8 20.3c-.9.5-2.2.5-3 0z" class="AB AC"/><path d="M312.3 221.4l-121.2-65.1 5.4-2.8 121.2 65z"/></g><path d="M312.3 221.4l-121.2-65.1 2.7-1.4 121.2 65z" fill="#121112"/><path d="M256.7 249.8l-118.6-63.7c-.7-.4-.7-1 0-1.4l45.8-24.6c.7-.4 1.9-.4 2.6 0l118.6 63.7c.7.4.7 1 0 1.4l-45.8 24.6c-.7.4-1.9.4-2.6 0z" fill="#1a1a1b" class="AB AC"/><ellipse cx="128.7" cy="197.6" rx="16.8" ry="10.2" class="AB AC"/><path d="M122.3 177.1s-5.3 1.3-2.9 7.4c0 0 .4 6.3 5 7.8s.4-10.9.4-10.9-2.5-3.2-2.5-4.3z"/><path d="M129.2 145.6s8.5 15.7 8.3 16.6c-.3 1.6-15.2 13.7-15.2 13.7s-.4 5.2 3 5.5c0 0 19.3-10.6 21.3-16.8.7-2.1-2.1-22.7-2.1-22.7s-11.4 5.4-15.8 3.7h.5z" fill="#333"/><path d="M124 190.7s-2 5.2 2.4 6.7c0 0 2.9 7 9.2 6.3 6.2-.7-4.1-9.8-4.1-9.8v-2.3c-.1 0-4.6 1.4-7.5-.9z"/><path d="M122.3 145.6s2.4 20.9 1.5 28.9c0 0-1.9 14.3-.6 16.6 0 0 3.9 5 8.4 1.4l3.5-46.3c-.1 0-9.8 3.3-12.8-.6z" fill="#444545"/><path d="M114.4 143.6s-2.5 6 2.5 8.1c0 0 5.2 3 1.7-7.5 0 .1-3.3.5-4.2-.6zm41-14.4s5.8 4.2 3.1 7.8c-.6.8-2.4 1.8-4.1-.4-1.6-2.2-1.6-5.1-1.6-5.1s1.2-2.2 2.6-2.3z" class="AI"/><path d="M144.9 144.7c-8.6 9.1-22.4 3.6-22.4 3.6-1.1-7.7 4-14.7.7-23l-.6-1.5c-.2-.6-.4-1.1-.6-1.7-2.3-7.2-2.7-13.5-2.7-13.5l8.5-4.5c2.5-.9 5.4-1.4 7.8-1.6 3.1-.2 5.5.3 5.5.3 6.8 18.3 3.8 41.9 3.8 41.9z"/><path d="M140.2 120c-.1 4.3-.6 7.7-.7 8.1.3-2.2-.7-5.3-2.3-8.6-2.9-6.2-7.4-13-9.1-15.4h0c2.5-.9 5.1-1.3 7.5-1.5 3.9 4.4 4.7 11.7 4.6 17.4z" fill="#f0efef"/><path d="M136.3 107.4s0-3.2-2-4.2l-.9 2.1 2.9 2.1z" class="AA"/><path d="M124.7 114.9l-.3.9-2.9 7.9-2.1 6.1c-.4 1.6-.1 12.7 0 15v.4c-3.1 1.2-5.9-.4-5.9-.4v-.6c0-2.6-.2-12.8 0-17.4.3-5.4 5.9-18.1 5.9-18.1 6.3-.1 5.3 6.2 5.3 6.2zm32.2 15.5s-3.7.8-4 2.3c0 0-.1-.1-.3-.2-1.5-1.2-8.6-7.1-10-11.8l-4.1-14.1 2.6-3.6s6.2 13 8.2 16.1c1.8 2.8 6.6 9.9 7.5 11.2.1 0 .1.1.1.1zm-17.4-2.3h0z"/><path d="M138.4 101.4s-.9-.1-1.7-.4h0l-.9-.3c-.1 0-.1-.1-.2-.1v4.8s-5.7-.2-6.5-2.1l.4-5.4-2.4-5.1 3-6.9 2.8 1c.2 0 2.8.6 2.8.6l4 1.1c0 .1 1.8 8.2-1.3 12.8z" class="AI"/><path d="M129.5 99.4s-6.9-5.3-3-11.7c0 0 .7-9 15.6.2 0 0-3.8 3.4-11.2 1.8l.8 6.2s-1.3-3.5-2.8-2.3 1.2 3.6 1.2 3.6l-.6 2.2z" fill="#261c15"/><path d="M134.6 105.4l1-.1.6 2.2-1.4.4-1.4-1z" fill="#bf2332"/><path d="M129.1 102.5s4.4 2.8 5.5 2.9l-1.3 2.3-5.1-3.7.9-1.5z" class="AA"/><path d="M139.5 128.1c.3-2.2-.7-5.3-2.3-8.6l-2.5-11.6 1.4-.4 4 12.5c0 4.3-.5 7.7-.6 8.1z" fill="#a21d29"/><path d="M156.9 130.4s-3.7.8-4 2.3c0 0-.1-.1-.3-.2.4-.6 1.4-1.8 4.1-2.3.2.1.2.2.2.2zm-37.5 14.8c-3.1 1.2-5.9-.4-5.9-.4v-.6c.7.4 3.1 1.5 5.9.6v.4z" class="AA"/><path d="M135.6 100.7v.6c-3-1-3.9-2.8-3.9-2.9.9 1.2 2.7 1.9 3.9 2.3z" class="AB AC"/><path d="M136.6 101.1l-.9-.3a7.78 7.78 0 0 0 .9.3z" class="AI"/><g class="AA AB"><path d="M127.4 87.6s3.6-5.6 13.4.3c0 0-1.6 1.2-5.3 0 0 0-3.9-2.6-8.1-.3z" class="AL"/><path d="M124.4 115.7c0 2.5-1.2 6.4-1.8 8.1l-.6-1.7 2.4-6.4z" class="AC"/></g><g class="AB"><defs><path id="B" d="M208.6 146.6L209 4.3l100.3 53.9-.4 142.2z"/><path id="C" d="M184.2 181.9l-5.6-3c-.4-.2-.4-.5 0-.7l5.4-2.9c.4-.2 1-.2 1.3 0l5.6 3c.4.2.4.5 0 .7l-5.4 2.9c-.4.2-1 .2-1.3 0z"/><path id="D" d="M192.3 186.2l-5.6-3c-.4-.2-.4-.5 0-.7l5.4-2.9c.4-.2 1-.2 1.3 0l5.6 3c.4.2.4.5 0 .7l-5.4 2.9c-.4.2-.9.2-1.3 0z"/><path id="E" d="M200.4 190.6l-5.6-3c-.4-.2-.4-.5 0-.7l5.4-2.9c.4-.2 1-.2 1.3 0l5.6 3c.4.2.4.5 0 .7l-5.4 2.9c-.3.2-.9.2-1.3 0z"/><path id="F" d="M187.8 167l-6-3.2c-.2-.1-.2-.3 0-.5l3.4-1.8a1.39 1.39 0 0 1 .9 0l6 3.2c.2.1.2.3 0 .5l-3.4 1.8c-.2.2-.6.2-.9 0z"/><path id="G" d="M196.1 171.5l-6-3.2c-.2-.1-.2-.3 0-.5l3.4-1.8a1.39 1.39 0 0 1 .9 0l6 3.2c.2.1.2.3 0 .5l-3.4 1.8c-.3.1-.7.1-.9 0z"/><path id="H" d="M256 203.6l-6-3.2c-.2-.1-.2-.3 0-.5l3.4-1.8a1.39 1.39 0 0 1 .9 0l6 3.2c.2.1.2.3 0 .5l-3.4 1.8c-.2.1-.6.1-.9 0z"/><path id="I" d="M257.5 248.4l-6.1-3.3c-.2-.1-.2-.3 0-.4l2.9-1.6c.2-.1.6-.1.8 0l6.1 3.3c.2.1.2.3 0 .4l-2.9 1.6a.61.61 0 0 1-.8 0z"/><path id="J" d="M163 197.8l-5.5-3c-.3-.2-.3-.4 0-.6l6.4-3.4c.3-.2.8-.2 1.1 0l5.5 3c.3.2.3.4 0 .6l-6.4 3.4c-.3.1-.8.1-1.1 0z"/><path id="K" d="M262 131.9l-.5-.3v.8l.2.1c0-.1 0-.1.1-.1s.1.1.1.2v.3c0 .1 0 .1-.1.1s-.1-.1-.1-.2v-.1l-.2-.1v.1a.55.55 0 0 0 .3.5c.2.1.3 0 .3-.2v-.3c0-.2-.1-.4-.2-.4h-.2v-.3l.4.2-.1-.3z"/><path id="L" d="M276.7 153c-.1 0-.1-.2-.1-.4s.1-.3.1-.2c.1 0 .1.2.1.4 0 .1 0 .2-.1.2h0zm0-.7c-.1-.1-.2 0-.2.2s.1.4.2.5.2 0 .2-.2-.1-.4-.2-.5h0z"/><path id="M" d="M275.6 147.3h-.2v.1c.1-.1.2-.1.2-.1.1.1.1.2.1.3s-.1.2-.2.2h-.1v.1l.4.2v-.1l-.3-.2h.1c.1-.1.2-.1.2-.3 0 0 0-.1-.2-.2h0z"/><path id="N" d="M276.2 148.2c-.1 0-.1-.2-.1-.4s.1-.3.1-.2c.1 0 .1.2.1.4s0 .3-.1.2h0zm0-.6c-.1-.1-.2 0-.2.2s.1.4.2.5.2 0 .2-.2c0-.3-.1-.4-.2-.5h0z"/><path id="O" d="M276.7 148.5c-.1 0-.1-.2-.1-.4s.1-.3.1-.2c.1 0 .1.2.1.4s0 .2-.1.2h0zm0-.6c-.1-.1-.2 0-.2.2s.1.4.2.5.2 0 .2-.2c0-.3-.1-.5-.2-.5h0z"/><path id="P" d="M275.5 138.8h0l.3-.3v.3h-.3zm.3-.3h0l-.4.2v.1l.3.2v.2h.1v-.2h.1v-.1h-.1v-.4z"/><path id="Q" d="M275.9 134l-.3-.2v.3h.1c.1.1.2.2.2.3s-.1.1-.2.1-.1-.1-.1-.1v.1s.1.1.2.1c.1.1.2 0 .2-.1s0-.2-.1-.2l-.1-.1h-.1v-.2h.2z"/><path id="R" d="M264 69.4l-19-10.2v2.4l19 10.2z"/><path id="S" d="M303.9 63.3l-46.7-25.1v2.4l46.7 25z"/><path id="T" d="M178.7 93.2c-3.1-1.7-6.1-3.9-8.8-6.5-2-1.9-3.8-4-5.5-6.3-1.5-2.1-2.9-4.3-4.1-6.5-3.3-6.1-5.2-12.7-5.2-18.7 0-14 10.7-19.6 23.8-12.6s23.7 24.1 23.6 38.1c0 6.9-2.6 11.7-6.7 14-1.3.7-2.7 1.2-4.2 1.4-1.3.2-2.6.2-4 .1-2.8-.4-5.8-1.3-8.9-3h0zm.2-52.3c-13.9-7.5-25.3-1.5-25.3 13.4 0 6.4 2.1 13.4 5.5 19.9 1.3 2.4 2.8 4.7 4.4 6.9 1.8 2.4 3.7 4.7 5.9 6.7 2.9 2.8 6.1 5.2 9.4 6.9 3.3 1.8 6.5 2.8 9.4 3.1 1.5.2 2.9.1 4.3-.1 1.6-.2 3.1-.8 4.5-1.5 4.4-2.5 7.1-7.6 7.2-14.9-.2-14.8-11.4-32.9-25.3-40.4h0z"/><path id="U" d="M180.2 69h0zm-1.3-26.5c-13.1-7-23.8-1.4-23.8 12.6 0 6 1.9 12.6 5.2 18.7 1.2 2.3 2.6 4.4 4.1 6.5 1.7 2.3 3.5 4.4 5.5 6.3 2.7 2.6 5.7 4.9 8.8 6.5 3.1 1.7 6.1 2.6 8.9 2.9 1.4.1 2.7.1 4-.1 1.5-.2 2.9-.7 4.2-1.4 4.2-2.3 6.7-7.2 6.7-14 0-13.9-10.5-31-23.6-38h0z"/><path id="V" d="M228.7 255.6c.5 1.1 1.5 1.8 3.4 1.2 4.6-1.3 13.6-6.2 12.9-8.1v-.1c-.4-.8-2.1-.8-4-.7-2.2.2-4.6.7-5.4.8-.2 0-.3.1-.3.1l-7.2 2.7c.1.1-.2 2.5.6 4.1z"/><path id="W" d="M228.7 255.6c.5 1.1 1.5 1.8 3.4 1.2 4.6-1.3 13.6-6.2 12.9-8.1-1.4 1.4-7.1 6.4-16.3 6.9z"/></defs><clipPath id="X"><use xlink:href="#B"/></clipPath><g clip-path="url(#X)"><path d="M296.8 166.5c-.1 0-.1 0-.1.1s0 .2.1.2.1 0 .1-.1 0-.2-.1-.2h0zm-4.7-2.6h-.1c0 .1 0 .2.1.3.1 0 .1 0 .1-.1.1-.1 0-.2-.1-.2h0zm-4.6-2.7h0l-.2.2.2.1v-.3zm-7.4-4c-.1 0-.1 0-.1.2s.1.3.1.4c.1 0 .1 0 .1-.2s-.1-.4-.1-.4h0zm2.2 1.2c-.1 0-.1 0-.1.2s0 .3.1.4c.1 0 .1 0 .1-.2.1-.2 0-.4-.1-.4h0zm2.3 1.2c-.1 0-.1 0-.1.2s.1.3.1.4c.1 0 .1 0 .1-.2s0-.3-.1-.4h0zm2.3 1.3c-.1 0-.1 0-.1.2s.1.3.1.4c.1 0 .1 0 .1-.2.1-.3 0-.4-.1-.4h0zm2.4 1.2c-.1 0-.1 0-.1.2s.1.3.1.4c.1 0 .1 0 .1-.2s0-.3-.1-.4h0zm2.3 1.3c-.1 0-.1 0-.1.2s.1.3.1.4c.1 0 .1 0 .1-.2.1-.2 0-.4-.1-.4h0zm2.3 1.2c-.1 0-.1 0-.1.2s.1.3.1.4c.1 0 .1 0 .1-.2.1-.2 0-.3-.1-.4h0zm2.4 1.3c-.1 0-.1 0-.1.2s.1.3.1.4c.1 0 .1 0 .1-.2s0-.4-.1-.4h0zm2.3 1.2c-.1 0-.1 0-.1.2s.1.3.1.4c.1 0 .1 0 .1-.2s0-.3-.1-.4h0zm2.8 1.5c-.1 0-.1 0-.1.2s.1.3.1.4c.1 0 .1 0 .1-.2s0-.3-.1-.4h0zm-2.3-1.2c-.1 0-.1 0-.1.1s0 .2.1.2h.1c.1-.1 0-.2-.1-.3h0zm-2.3-1.2c-.1 0-.1 0-.1.1s0 .1.1.2c.1 0 .1 0 .1-.1s0-.2-.1-.2h0zm-20.6-14.1c-.1 0-.1 0-.1.2s.1.3.1.4c.1 0 .1 0 .1-.2s-.1-.3-.1-.4h0zm.5.3c-.1 0-.1 0-.1.2s.1.3.1.4c.1 0 .1 0 .1-.2s0-.3-.1-.4h0zm.5.3c-.1 0-.1 0-.1.2s.1.3.1.4c.1 0 .1 0 .1-.2s0-.4-.1-.4h0zm4.6-1.5l-.8-.4v4.2l.8.4v-4.2zm2.3 1.2l-.8-.4v4.2l.8.4v-4.2zm2.4 1.3l-.8-.4v4.2l.8.4v-4.2zm2.3 1.2l-.8-.4v4.2l.8.4v-4.2zm2.3 1.3l-.8-.4v4.2l.8.4v-4.2zm2.3 1.2l-.8-.4v4.2l.8.4v-4.2zm2.4 1.3l-.8-.4v4.2l.8.4v-4.2zm2.3 1.2l-.8-.4v4.2l.8.4v-4.2zm2.3 1.2l-.8-.4v4.2l.8.4v-4.2zm-24.2-13.5c-.1 0-.1 0-.1.2s.1.3.1.4c.1 0 .1 0 .1-.2s0-.3-.1-.4h0zm.5.3c-.1 0-.1 0-.1.2s.1.3.1.4c.1 0 .1 0 .1-.2s0-.3-.1-.4h0zm.5.3c-.1 0-.1 0-.1.2s.1.3.1.4c.1 0 .1 0 .1-.2s0-.3-.1-.4h0zm6.9-.2l-.8-.4v4.2l.8.4V148zm4.7 2.4l-3.1-1.7v4.2l.8.4v-1.8l1.6.8v1.8l.8.4-.1-4.1zm2.3 1.3l-.8-.4v4.2l.8.4v-4.2zm2.3 1.2l-.8-.4v4.2l.8.4v-4.2zm2.4 1.3l-.8-.4v4.2l.8.4v-4.2zm2.3 1.2l-.8-.4v4.2l.8.4v-4.2zm2.3 1.3l-.8-.4v4.2l.8.4v-4.2zm-24.2-13.4c-.1 0-.1 0-.1.2s.1.3.1.4c.1 0 .1 0 .1-.2 0-.3 0-.4-.1-.4h0zm.5.2c-.1 0-.1 0-.1.2s.1.3.1.4c.1 0 .1 0 .1-.2s0-.3-.1-.4h0zm.5.3c-.1 0-.1 0-.1.2s.1.3.1.4c.1 0 .1 0 .1-.2s0-.3-.1-.4h0zm20.9 7.2l-12.4-6.7v4.2l3.1 1.7v-.8l1.6.8v.8l.8.4v-2l1.6.8v2l.8.4v-4.1l1.6.8v4.1l.8.4v-1.6l1.6.8v1.6l.8.4-.3-4zm2.3 1.2l-.8-.4v4.2l.8.4v-4.2zm-24.7-13.6h0l-.2.2.2.1v-.3zm.5.2c-.1 0-.1 0-.1.2s.1.3.1.4c.1 0 .1 0 .1-.2s0-.4-.1-.4h0zm.5.3c-.1 0-.1 0-.1.2s.1.3.1.4c.1 0 .1 0 .1-.2s0-.4-.1-.4h0zm.5.3c-.1 0-.1 0-.1.2s.1.3.1.4c.1 0 .1 0 .1-.2.1-.3 0-.4-.1-.4h0zm-1-5.1c-.1 0-.1 0-.1.2s.1.3.1.4c.1 0 .1 0 .1-.2 0-.3 0-.4-.1-.4h0zm.5.2c-.1 0-.1 0-.1.2s.1.3.1.4c.1 0 .1 0 .1-.2.1-.2 0-.3-.1-.4h0zm.5.3c-.1 0-.1 0-.1.2s.1.3.1.4c.1 0 .1 0 .1-.2.1-.2 0-.3-.1-.4h0zm-63.9 4.3v-2.3l17.1 9.2v2.3l-17.1-9.2zm18.8 10.1v-2.3l19 10.2v2.3l-19-10.2zm20.8 11.1V158l8.7 4.7v2.3l-8.7-4.7zm10.1 5.5v-2.3l19 10.2v2.3l-19-10.2zm-49.7-30.3v-2.3l30 16.1v2.3l-30-16.1zm31.4 16.9v-2.3l19 10.2v2.3l-19-10.2zm20.6 11v-2.3l16.8 9v2.3l-16.8-9zm19.2 10.3v-2.3l19 10.2v2.3l-19-10.2zM222 133.2v-2.3l17.1 9.2v2.3l-17.1-9.2zm27.6 14.9v-2.3l19 10.2v2.3l-19-10.2zm29.3 15.7v-2.3l19 10.2v2.3l-19-10.2zm1.5-6.3h0l.1-.1h.1v.7h-.1v-.6h-.1zm6.8 3.9h0l.3-.4.1.1v.4h.1v.1h-.1v.2h-.1v-.2l-.3-.2zm2.4 1.2v-.3l.3.2v.1l-.2-.1-.1.1h.1c.1 0 .1.1.1.1.1.1.1.1.1.2s-.1.2-.2.1c-.1 0-.1-.1-.2-.1v-.1l.1.1c.1 0 .2 0 .2-.1.1 0 0-.1-.2-.2h0zm4.6 2.2h0l.4.1v.1l-.3.5h-.1l.3-.5-.3-.2zm6.6 3.6h0l.1-.1h.1v.7h-.1v-.6h-.1zm-8.7-4.1c-.1-.1-.2-.2-.2-.4 0-.1 0-.2.1-.3h.3v.1h-.1c-.1-.1-.2 0-.2.1h.2c.1.1.2.2.2.3 0 .2-.1.3-.3.2h0zm-12.1-6.5c-.1-.1-.2-.2-.2-.5 0-.2.1-.3.2-.2s.2.2.2.5c.1.2 0 .3-.2.2h0zm2.3 1.2c-.1-.1-.2-.2-.2-.5 0-.2.1-.3.2-.2s.2.2.2.5c.1.2 0 .3-.2.2h0zm.4-.4h0c0-.1.1-.1.2-.1.1.1.2.2.2.3s-.1.2-.2.3h-.1l.3.2v.1l-.4-.2v-.1h.1c.2-.1.2-.1.2-.2s0-.2-.1-.2c-.1-.1-.2-.1-.2-.1h0zm1.9 1.7c-.1-.1-.2-.2-.2-.5 0-.2.1-.3.2-.2s.2.2.2.5c0 .1-.1.2-.2.2h0zm.3-.5h0c0-.1.1-.1.1 0 .1.1.2.2.2.3s0 .1-.1.1h0c.1.1.1.2.1.3s-.1.2-.2.1c-.1 0-.1-.1-.2-.1v-.1l.1.1c.1.1.1 0 .1-.1s-.1-.2-.2-.2h-.1v-.1h.2c0-.1 0-.1-.1-.2.2-.1.2-.1.1-.1h0zm2 1.7c-.1-.1-.2-.2-.2-.5 0-.2.1-.3.2-.2s.2.2.2.5c0 .2 0 .3-.2.2h0zm2.4 1.3c-.1-.1-.2-.2-.2-.5 0-.2.1-.3.2-.2s.2.2.2.5c0 .2-.1.2-.2.2h0zm2.3 1.2c-.1-.1-.2-.2-.2-.5 0-.2.1-.3.2-.2s.2.2.2.5c0 .2 0 .3-.2.2h0zm2.3 1.3c-.1-.1-.2-.2-.2-.5 0-.2.1-.3.2-.2s.2.2.2.5c.1.2 0 .2-.2.2h0zm2.4 1.2c-.1-.1-.2-.2-.2-.5 0-.2.1-.3.2-.2s.2.2.2.5c0 .2-.1.3-.2.2h0zm.5.3c-.1-.1-.2-.2-.2-.3s.1-.1.1-.1h0c-.1-.1-.1-.2-.1-.2 0-.1.1-.1.2-.1.1.1.2.2.2.3s0 .1-.1.1h0c.1.1.1.2.1.3 0 0-.1.1-.2 0h0zm1.8 1c-.1-.1-.2-.2-.2-.5 0-.2.1-.3.2-.2s.2.2.2.5c0 .2-.1.2-.2.2h0zm.5 0c-.1-.1-.2-.2-.2-.3s.1-.2.2-.1.2.2.2.4 0 .2-.1.3h-.3v-.1h.2l.1-.1c0-.1 0-.1-.1-.1h0zm2.3 1.5c-.1-.1-.2-.2-.2-.5 0-.2.1-.3.2-.2s.2.2.2.5c0 .2-.1.3-.2.2h0zM221.3 126v-.5l19.2 10.3v.5L221.3 126zm54.2 25.9h0l.1-.1h.1v.7h-.1v-.6h-.1zm.7.9c-.1-.1-.2-.2-.2-.5 0-.2.1-.3.2-.2s.2.2.2.5c0 .2-.1.3-.2.2h0zm.5.3c-.1-.1-.2-.2-.2-.5 0-.2.1-.3.2-.2s.2.2.2.5c0 .1-.1.2-.2.2h0zm.5.2c-.1-.1-.2-.2-.2-.5 0-.2.1-.3.2-.2s.2.2.2.5c0 .2-.1.3-.2.2h0zm-1.7-6h0c0-.1.1-.1.2-.1.1.1.2.2.2.3s-.1.2-.2.3h-.1l.3.2v.1l-.4-.2v-.1h.1c.2-.1.2-.1.2-.2s0-.2-.1-.2c-.1-.1-.2-.1-.2-.1h0zm.7 1c-.1-.1-.2-.2-.2-.5 0-.2.1-.3.2-.2s.2.2.2.5c0 .2-.1.3-.2.2h0zm.5.3c-.1-.1-.2-.2-.2-.5 0-.2.1-.3.2-.2s.2.2.2.5c0 .2-.1.2-.2.2h0zm.5.2c-.1-.1-.2-.2-.2-.5 0-.2.1-.3.2-.2s.2.2.2.5c0 .2-.1.3-.2.2h0zm-1.7-5.9h0c0-.1.1-.1.1 0 .1.1.2.2.2.3s0 .1-.1.1h0c.1.1.1.2.1.3s-.1.2-.2.1c-.1 0-.1-.1-.2-.1v-.1l.1.1c.1.1.1 0 .1-.1s-.1-.2-.2-.2h-.1v-.1h.2c0-.1 0-.1-.1-.2.2-.1.1-.1.1-.1h0zm.7 1c-.1-.1-.2-.2-.2-.5 0-.2.1-.3.2-.2s.2.2.2.5c0 .2-.1.3-.2.2h0zm.5.3c-.1-.1-.2-.2-.2-.5 0-.2.1-.3.2-.2s.2.2.2.5c0 .2-.1.3-.2.2h0zm.5.3c-.1-.1-.2-.2-.2-.5 0-.2.1-.3.2-.2s.2.2.2.5c0 .1 0 .2-.2.2h0zm-45.3-14.4V119l1.5.8v11.1l-1.5-.8zm7.1 3.8v-13.2l1.5.8v13.2l-1.5-.8zm23.1 5.1v-.6a5.44 5.44 0 0 0-.7-2.7l3-1.6c1.2 2.1 1.9 4.5 1.9 6.6v.6l-4.2-2.3zm-40.8-14.6v-14.5l1.5.8v14.5l-1.5-.8zm54.1 14.4h0l.3-.3.1.1v.4h.1v.1h-.1v.2h-.1v-.2l-.3-.3zm.8.6c-.1-.1-.2-.2-.2-.5 0-.2.1-.3.2-.2s.2.2.2.5c0 .2-.1.3-.2.2h0zm.5.3c-.1-.1-.2-.2-.2-.5 0-.2.1-.3.2-.2s.2.2.2.5c0 .2 0 .3-.2.2h0zm.5.3c-.1-.1-.2-.2-.2-.5 0-.2.1-.3.2-.2s.2.2.2.5c0 .2 0 .3-.2.2h0zm-41.6-8v-16l1.5.8v16l-1.5-.8zm14.7.7v-.6c0-4.7 3.5-6.6 7.8-4.4v4.5c-2-.9-3.5 0-3.6 2.2v.6c0 .2.1.4.1.6.2.8.6 1.6 1 2.4.1.2.3.4.4.6.6.7 1.2 1.3 1.9 1.8.1.1.2.1.3.2.1 0 .2.1.3.1 1.6.7 3 .3 3.4-1.1l4.3 2.3c-.5 3.8-3.8 5.3-7.7 3.3-.1 0-.2-.1-.3-.1s-.2-.1-.3-.1c-1.9-1.1-3.6-2.8-4.9-4.7-.1-.2-.3-.4-.4-.6-1.3-2-2.1-4.2-2.4-6.3.1-.3.1-.5.1-.7h0zm10.8 2.4a6.95 6.95 0 0 0-2.5-2.6V128c2.2 1.2 4.1 3.3 5.5 5.6l-3 1.5zm-36.3-8.9l.1-17.4 1.5.8-.1 17.4-1.5-.8zm12.5 6.8l.1-18.7 1.5.8-.1 18.7-1.5-.8zm63.1 19v-4.1l1.6.8v19l-1.6-.8v-1.5l-.8-.4v1.5l-1.6-.8v-1.5l-.8-.4v1.5l-1.6-.8V163l-.8-.4v1.5l-1.6-.8v-1.5l-.8-.4v1.5l-1.6-.8v-1.5l-.8-.4v1.5l-1.6-.8v-1.5l-.8-.4v1.5l-1.6-.8v-1.5l-.8-.4v1.5l-1.6-.8V157l-.8-.4v1.5l-1.6-.8v-1.5l-.8-.4v1.5l-1.5-.8v-1.5l-.6-.3v-.2l.6.3v-4.2l-.6-.3v-.2l.6.3v-2.9l1.5.8v2.9l.8.4V147l-3-1.6v-.2l3 1.6v-2.7l1.6.8v2.7l.8.4v-4.2l-5.3-2.8v-.2l5.3 2.8v-1.1l1.6.8v1.1l12.4 6.7v-1.7l1.6.8v1.7l1.2.1zm-21.5-15.8v-.2l23.1 12.4v.2l-23.1-12.4zm-3.4-2v-.3l.3.2v.1l-.2-.1-.1.1h.1c.1 0 .1.1.1.1.1.1.1.1.1.2s-.1.2-.2.1c-.1 0-.1-.1-.2-.1v-.1l.1.1c.1 0 .2 0 .2-.1.1 0 0-.1-.2-.2h0zm.7.7c-.1-.1-.2-.2-.2-.5 0-.2.1-.3.2-.2s.2.2.2.5c0 .2 0 .3-.2.2h0zm.5.3c-.1-.1-.2-.2-.2-.5 0-.2.1-.3.2-.2s.2.2.2.5c0 .2 0 .3-.2.2h0zm.5.3c-.1-.1-.2-.2-.2-.5 0-.2.1-.3.2-.2s.2.2.2.5c.1.1 0 .2-.2.2h0zm1.1.1v-.8l.2.1V155l1.7.9.2.1 2.1 1.1.2.1 2.1 1.1.2.1 2.1 1.1.2.1 2.1 1.1.2.1 2.1 1.1.2.1 2.1 1.1.2.1 2.1 1.1.2.1 2.1 1.1.2.1 2.1 1.1 1 .5v.2l-.8-.4v.3l-.2-.1v-.3l-2.1-1.1v.3l-.2-.1v-.3l-2.1-1.1v.3l-.2-.1v-.3l-2.1-1.1v.3l-.2-.1v-.3l-2.1-1.1v.3l-.2-.1v-.3l-2.1-1.1v.3l-.2-.1v-.3l-2.1-1.1v.3l-.2-.1v-.3l-2.1-.7v.3l-.2-.1v-.3l-2.1-1.1v.3l-.2-.1v-.3l-2.1-1.1v.3l-.2-.1v-.3l-1.7-.9-.2-.1v-1.7l-.3-.2v-.2l.3.2v-4.2l-.3-.2v-.2l.3.2V145l-.3-.2v-.2l.3.2v-4.2l-.3-.2v-.2l.3.2v-4.2l-.3-.2v-.2l.3-.2zM223 125.3l.1-20.5 1.5.8-.1 20.5-1.5-.8zm5.5 2.9l.1-22.2 1.5.8-.1 22.2-1.5-.8zm1.7 1l.1-25.2 1.5.8-.1 25.2-1.5-.8zM213 92v-3.1l91.3 49v3.1L213 92zm0-4.7v-3.1l91.3 49v3.1l-91.3-49zm9.1-1.4v-2.3l17.1 9.2v2.3l-17.1-9.2zm27.7 14.8v-2.3l19 10.2v2.3l-19-10.2zm26.2 14.1v-2.3l27.7 14.9v2.3L276 114.8zm0-3.6v-2.3l27.7 14.9v2.3L276 111.2zm-53.5-31.1v-.5l19 10.2v.5l-19-10.2zm53.5 27.5v-2.3l27.7 14.9v2.3L276 107.6zm0-3.6v-2.3l27.7 14.9v2.3L276 104zm-16.5-12.3c.5.2.9.3 1.3.3l1.9 3c-.8.3-1.8.2-2.9-.4v2.2a2.42 2.42 0 0 1 1 1.9c0 .7-.6 1-1.3.7-.7-.4-1.3-1.3-1.3-2s.4-1 1-.8v-2.2c-1.1-.6-2.1-1.6-2.9-2.8l1.9-1c.4.5.9.9 1.3 1.1h0zm16.5 8.7v-2.3l27.7 14.9v2.3L276 100.4zm-56-31.1c-1-.6-1.9-1.9-1.9-3s.8-1.5 1.9-1c.9.5 1.7 1.7 1.8 2.7l4.6 2.5v.5l-4.6-2.5c-.1.9-.9 1.3-1.8.8h0zM254.5 87v-.5c0-1.3.4-2.2 1.1-2.8l1.9 3c-.2.3-.4.7-.4 1.2 0 .8.3 1.6.8 2.4l-1.9 1c-.8-1.2-1.3-2.5-1.5-3.8l-1.7-.9c-.1.6-.6.8-1.2.4-.7-.4-1.3-1.3-1.3-2s.6-1 1.3-.7c.6.3 1.1 1.1 1.2 1.8l1.7.9zm8.4 8l-1.9-3c.5-.2.8-.7.8-1.5 0-.5-.1-1-.4-1.6l1.9-1c.7 1.3 1.1 2.7 1.1 4v.4l2 1.1c.1-.6.6-.8 1.2-.4.7.4 1.3 1.3 1.3 2s-.6 1-1.3.7c-.6-.3-1.1-1.1-1.2-1.8l-2.1-1.1c0 1.1-.6 1.8-1.4 2.2h0zm13.2 1.8v-2.3l27.7 14.9v2.3l-27.7-14.9zM224.6 68c-1-.6-1.9-1.9-1.9-3s.8-1.5 1.9-1c.9.5 1.7 1.7 1.8 2.7l4.9 2.6v.5l-4.9-2.6c-.1 1-.9 1.3-1.8.8h0zm51.5 25.2v-2.3l27.7 14.9v2.3l-27.7-14.9zm-42-16l2.7-8.3 4.7 19.9-9.5-5.1-4.8-2.6-4.7-2.5 4.8-7.4 2 5.3L232 70l2.1 7.2zm-4.7-10.3c-1-.6-1.9-1.9-1.9-3s.8-1.5 1.9-1c.9.5 1.7 1.7 1.8 2.7l4.9 2.6v.5l-4.9-2.6c0 1-.8 1.3-1.8.8h0zm30.1 14.8a2.42 2.42 0 0 1-1-1.9c0-.7.6-1 1.3-.7.7.4 1.3 1.3 1.3 2s-.4 1-1 .8V84c1.3.8 2.5 2.1 3.3 3.5l-1.9 1c-.4-.8-1.1-1.5-1.8-1.9s-1.4-.4-1.8-.1l-1.9-3c.9-.6 2.2-.5 3.6.2l-.1-2zm16.6 7.9v-2.3l27.7 14.9v2.3l-27.7-14.9zm-62.5-41.3V46l17.1 9.2v2.3l-17.1-9.2zm18.7 10.1v-2.3l19 10.2v2.3l-19-10.2zm20.9 11.2v-2.3l8.7 4.7v2.3l-8.7-4.7zm10.1 5.4v-2.3l19 10.2v2.3l-19-10.2zm-49.7-30.2v-2.3l30 16.1v2.3l-30-16.1zM245 61.6v-2.3l19 10.2v2.3l-19-10.2zm20.6 11.1v-2.3l16.8 9v2.3l-16.8-9zm19.2 10.2v-2.3l19 10.2v2.3l-19-10.2zm-27.6-34.3v-2.3l46.7 25.1v2.3l-46.7-25.1zm0-4v-2.3l46.7 25.1v2.3l-46.7-25.1zm0-4v-2.3l46.7 25.1v2.3l-46.7-25.1zm52.1 17.6L209 4.3l-.4 142.3 100.3 53.8.4-142.2z" stroke="#f4f4f4" class="AA AP"/><path d="M236.8 68.9l-2.7 8.3 2.7 9.1-4.8-2.6 9.5 5.1z" class="AD"/><path d="M232 70l-2.7 6.5 2.7 7.2-4.8-2.5 4.8 2.5 4.8 2.6-2.7-9.1z" class="AE"/><g class="AF"><path d="M227.3 71.2l-4.8 7.4 4.7 2.6 4.8 2.5-2.7-7.2zm-7.4-3.1v-.3l.2.1v.2l-.1.2-.1-.2zm-.9-1.2v-1l.7.3v.2l-.4-.2v.4c0-.1.1-.1.2 0a.55.55 0 0 1 .3.5v.4c0 .3-.1.4-.4.2-.2-.1-.4-.3-.4-.6V67l.2.1v.2c0 .1 0 .2.1.2s.1 0 .1-.1V67c0-.1 0-.2-.1-.2s-.1 0-.1.1v.1l-.2-.1zm1-1.6c-1-.6-1.9-.1-1.9 1s.8 2.4 1.9 3c.9.5 1.7.2 1.8-.7l-1-.5-.2.5-.2-.1.2-.5-.6-.3v-.5l.8.4.1-.3-.5-.3v-.2l.7.4v.2l-.1.3.8.4c-.1-1.1-.9-2.3-1.8-2.8h0z"/></g><path d="M224 65.6c-.1 0-.1 0-.1.1v.3c0 .1 0 .2.1.2s.1 0 .1-.1v-.3c0-.1-.1-.1-.1-.2h0zm.5 1.2v-.3l.2.1v.2l-.1.2-.1-.2zm-.5-.3c-.2-.1-.4-.4-.4-.6V65c0-.3.1-.4.4-.2.2.1.4.4.4.6h0l-.2-.1v-.1c0-.1 0-.2-.1-.2s-.1 0-.1.1v.3c0-.1.1-.1.2 0a.55.55 0 0 1 .3.5v.3c-.2.4-.3.4-.5.3h0zm.6-2.5c-1-.6-1.9-.1-1.9 1s.8 2.4 1.9 3c.9.5 1.7.2 1.8-.7l-1.1-.6c-.1.1-.1.1-.1.2h0l.5.2v.2l-.7-.4v-.2c0-.1 0-.2.1-.3l-.4-.2v-.5l.8.4v-.2c0-.2 0-.2-.1-.3-.1 0-.1 0-.1.1v.2l-.2-.1v-.2c0-.3.1-.4.4-.2.2.1.4.4.4.6v.2l.8.4c-.4-.9-1.2-2.1-2.1-2.6h0z" class="AE"/><path d="M228.8 64.8c-.1 0-.1 0-.1.1v.2c0 .2.1.2.1.3.1 0 .1 0 .1-.1v-.2c.1-.2 0-.3-.1-.3h0zm1.3-.1c-.1 0-.1 0-.1.1v.1l.3.1v-.1c-.1 0-.1-.1-.2-.2h0zm-1.3-.7c-.1 0-.1 0-.1.1v.1c0 .1.1.2.1.3.1 0 .1 0 .1-.1v-.1c.1-.1 0-.2-.1-.3h0zm.5 1.8v-.3l.2.1v.2l-.1.2-.1-.2zm-.5-.3c-.3-.1-.4-.4-.4-.6v-.1c0-.2 0-.3.2-.3a.76.76 0 0 1-.2-.4V64c0-.3.1-.3.4-.2.2.1.4.4.4.6v.1c0 .2-.1.2-.2.3a.76.76 0 0 1 .2.4v.1c0 .3-.1.4-.4.2h0zm.6-2.5c-1-.6-1.9-.1-1.9 1s.8 2.4 1.9 3c.9.5 1.7.2 1.8-.7l-.8-.4v.2c0 .3-.1.4-.4.2-.2-.1-.4-.3-.4-.6h0l.2.1v.1c0 .1 0 .2.1.2s.1 0 .1-.1v-.2h-.3c-.1 0-.1-.1-.2-.1l-.4-.2V65l.3.2v-.1c0-.3.1-.3.4-.2.2.1.4.4.4.6v.1l.8.4c.2-1.4-.6-2.5-1.6-3h0z" class="AD"/><path d="M220.8 67.4l-.8-.4v.5l.6.3.2-.4zm5.6 3.1l-4.6-2.5-.8-.4-.1.5 1 .5 4.6 2.5-.1-.6z" fill="#1d4563"/><path d="M225.4 66.2l-.8-.4v.5l.4.2c.1-.1.3-.2.4-.3h0zm5.9 3.1l-4.9-2.6-.8-.4c-.1.2-.2.3-.3.3l1.1.6 4.9 2.6v-.5z" fill="#faae1b"/><path d="M230.2 65.5c0 .1 0 .1 0 0h0zm-.5-.6l-.3-.2v.5l.4.2c-.1-.1-.1-.2-.1-.5h0zm.5.2l-.2-.1v.2c0 .1 0 .2.1.2s.1 0 .1-.1v-.2zm5.9 3.2l-4.9-2.6-.8-.4v.5l.8.4 4.9 2.6v-.5z" fill="#ba3227"/><g class="AA"><path d="M219.7 66.3l-.7-.3v1l.2.1V67c0-.1 0-.1.1-.1s.1.1.1.2v.4c0 .1 0 .1-.1.1s-.1-.1-.1-.2v-.2l-.2-.1v.1c0 .3.1.5.4.6.2.1.4 0 .4-.2v-.4a.55.55 0 0 0-.3-.5c-.1-.1-.2 0-.2 0v-.4l.4.2v-.2z"/><path d="M220.2 68l-.3-.1v.2l.1.1v.2h.1l.1-.2zm.9-1l-.7-.4v.3l.4.3v.2l-.2.5-.1.5.2.1.2-.5.1-.4.1-.3zm2.9-.7c-.1 0-.1-.1-.1-.2v-.3c0-.1 0-.1.1-.1s.1.1.1.2v.3c0 .1-.1.1-.1.1h0zm0-1.5c-.3-.1-.4 0-.4.2v.9c0 .3.1.5.4.6.2.1.4 0 .4-.2V66a.55.55 0 0 0-.3-.5c-.1-.1-.2 0-.2 0v-.3c0-.2 0-.2.1-.1.1 0 .1.1.1.2v.1l.2.1c0-.4-.1-.6-.3-.7h0z"/><path d="M224.7 66.6l-.2-.1v.3h.1l-.1.2.1.1.1-.2z"/><path d="M225.3 65.5c-.2-.1-.4 0-.4.2v.2l.2.1v-.2c0-.1.1-.1.1-.1.1 0 .1.1.1.3v.2c-.1.2-.3.2-.4.3s-.1.1-.1.3v.2l.7.4v-.2l-.5-.2c0-.1.1-.1.1-.2.1-.1.3-.2.3-.3v-.2c.2-.5.1-.7-.1-.8h0zm3.5-.2c-.1 0-.1-.1-.1-.3v-.2c0-.1.1-.2.1-.1.1 0 .1.1.1.3v.2c.1.1 0 .1-.1.1h0zm0-.8c-.1 0-.1-.1-.1-.3v-.1c0-.2.1-.2.1-.1.1 0 .1.1.1.3v.1c.1.1 0 .2-.1.1h0zm0-.7c-.3-.1-.4-.1-.4.2v.1c0 .2 0 .3.2.4-.1 0-.2.1-.2.3v.1c0 .3.1.5.4.6.2.1.4.1.4-.2v-.1c0-.2 0-.3-.2-.4.1 0 .2-.1.2-.3v-.1c0-.2-.1-.5-.4-.6h0z"/><path d="M229.6 65.7l-.3-.2v.3h.1v.2l.1.1.1-.2z"/><path d="M230 65h0c0-.2 0-.2.1-.2s.1.1.1.2v.3c0 .1 0 .1-.1.1s-.1-.1-.1-.2V65zm.1-.5c-.2-.1-.4 0-.4.2v.3c0 .2 0 .3.1.4 0 .1.1.1.2.1h.2s.1 0 .1-.1v.3c0 .2 0 .2-.1.1-.1 0-.1-.1-.1-.2v-.1l-.2-.1c0 .3.1.5.4.6s.4.1.4-.2V65c-.2-.1-.3-.4-.6-.5h0z"/></g><path d="M241.5 89.8l-19-10.2v.5l19 10.2z" class="AF"/><path d="M263.5 87.9l-1.9 1c.2.5.4 1.1.4 1.6 0 .8-.3 1.3-.8 1.5l1.9 3c.8-.4 1.3-1.1 1.5-2.1l-1.3-.7v-.5l1.3.7V92c0-1.4-.4-2.8-1.1-4.1h0z" class="AD"/><path d="M259.4 83.8c-1.4-.7-2.7-.7-3.6-.2l1.9 3c.4-.3 1.1-.3 1.8.1s1.4 1.1 1.8 1.9l1.9-1c-.8-1.4-2-2.7-3.3-3.5v1.6l-.5-.3v-1.6z" class="AF"/><path d="M260.8 92c-.4.1-.8 0-1.3-.3s-.9-.6-1.3-1.1l-1.9 1c.8 1.1 1.8 2.1 2.9 2.8V93l.5.3v1.4c1.1.5 2.1.6 2.9.4l-1.8-3.1z" class="AE"/><g class="AQ"><path d="M255.6 83.7c-.7.5-1.1 1.5-1.1 2.8v.5l1.7.9v.5l-1.7-.9c.2 1.3.7 2.6 1.5 3.8l1.9-1c-.5-.7-.8-1.6-.8-2.4 0-.5.1-.9.4-1.2l-1.9-3zm-3.4 2.6l-.2-.1v.1c0 .1 0 .1.1.2.1-.1.1-.1.1-.2h0zm-.6 0v-.2l.2.1v.2l-.2-.1zm-.6-1.1h0c0-.3.1-.3.3-.3.2.1.3.2.2.4 0 .4-.3.3-.3.5h0l.3.2v.2l-.5-.2v-.1c0-.3.3-.2.3-.5 0-.1 0-.1-.1-.2-.1 0-.1 0-.1.1v.1l-.1-.2zm.7-.8c-.7-.4-1.3-.1-1.3.7 0 .7.6 1.7 1.3 2 .6.3 1.1.1 1.2-.4l-.5-.3v.1c0 .2-.1.2-.3.2-.2-.1-.3-.2-.2-.4v-.1l-.2-.1v-.5l.2.1v-.3l.4.2v.2l-.3-.2v.1l.8.5c0-.8-.5-1.5-1.1-1.8h0z"/><path d="M251.9 85.6l-.2-.1v.5l.6.3v-.2c0-.1 0-.1-.1-.2-.1 0-.1 0-.1.1h0l-.2-.1v-.3zm4.4 2.3l-1.7-.9-1.6-.9-.8-.5v.2h.1c.1.1.2.2.2.4v.2l.5.3 3.4 1.8-.1-.6z"/></g><g class="AA"><path d="M251.3 84.9c-.2-.1-.3 0-.3.2v.1l.2.1v-.1c0-.1 0-.1.1-.1s.1.1.1.2c0 .3-.3.2-.3.5v.1l.5.3V86l-.3-.2c0-.2.3-.1.3-.5-.1-.1-.1-.3-.3-.4h0z"/><path d="M251.8 86.2l-.2-.1v.2l.2.1z"/><path d="M252.4 85.5l-.4-.2v.7l.2.1c0-.1 0-.1.1-.1s.1.1.1.2v.3c0 .1 0 .1-.1.1s-.1-.1-.1-.2v-.1l-.2-.1v.1c0 .2.1.3.2.4.2.1.3 0 .3-.2v-.3c0-.2-.1-.3-.2-.4h-.1v-.3l.3.2-.1-.2z"/></g><g class="AF"><path d="M259.7 79.1c-.7-.4-1.3-.1-1.3.7 0 .7.4 1.4 1 1.9V81l-.4-.2v-.1c0-.3.3-.2.3-.5 0-.1 0-.1-.1-.2-.1 0-.1 0-.1.1v.1l-.1-.2v-.1c0-.2.1-.2.3-.2.2.1.3.2.2.4 0 .4-.3.3-.3.5h0l.3.1v-.3l.5.3v.1l.1.1v.1c0 .1 0 .1.1.2.1 0 .1 0 .1-.1v-.3c0-.1 0-.1-.1-.2-.1 0-.1 0-.1.1h0l-.2-.1V80l.4.2v.2l-.3-.2v.3h.1c.1.1.2.2.2.4v.3c0 .2-.1.2-.3.2-.1-.1-.2-.1-.2-.3v.8c.6.2 1-.1 1-.8.2-.7-.4-1.6-1.1-2h0z"/><path d="M259.6 81.1v-.2l.2.1v.2l-.2-.1zm.3-.3l-.5-.3v.3h.1v.2h-.1v4.4l.5.3v-4.9z"/></g><g class="AA"><path d="M259.3 79.7c-.2-.1-.3 0-.3.2v.1l.2.1V80c0-.1 0-.1.1-.1s.1.1.1.2c0 .3-.3.2-.3.5v.1l.4.2h.1v-.2h-.1l-.3-.1c0-.2.3-.1.3-.5 0-.1 0-.3-.2-.4h0z"/><path d="M259.8 81l-.2-.1v.2l.2.1z"/><path d="M260.4 80.3l-.4-.2v.6l.2.1c0-.1 0-.1.1-.1s.1.1.1.2v.3c0 .1 0 .1-.1.1s-.1-.1-.1-.2V81l-.1-.1v.3c0 .1.1.2.2.3.2.1.3 0 .3-.2V81c0-.2-.1-.3-.2-.4h-.1v-.3l.3.2-.2-.2z"/></g><g class="AE"><path d="M259.5 98.7v-.2l.2.1v.2l-.2-.1zm-.2-2.1c-.6-.2-1 .1-1 .8s.6 1.7 1.3 2c.7.4 1.3.1 1.3-.7 0-.7-.4-1.4-1-1.9v.8l.4.2v.2l-.3-.2v.3h.1c.1.1.2.2.2.4v.3c0 .2-.1.2-.3.2s-.3-.2-.2-.4v-.1l.2.1v.1c0 .1 0 .1.1.2.1 0 .1 0 .1-.1v-.3c0-.1 0-.1-.1-.2-.1 0-.1 0-.1.1h0l-.2-.1v-.2l-.4-.2c-.1.2-.3.2-.3.3h0l.3.2v.2l-.5-.3v-.1c0-.3.3-.2.3-.5 0-.1 0-.1-.1-.2-.1 0-.1 0-.1.1v.1l-.2-.1v-.1c0-.2.1-.2.3-.2.1 0 .1.1.2.1v-.8z"/><path d="M259.8 93.3l-.5-.3v4.4c.1.1.1.2.1.3v.2l.4.2v-4.8z"/></g><g class="AA"><path d="M259.1 97.3c-.2-.1-.3 0-.3.2v.1l.2.1v-.1c0-.1 0-.1.1-.1s.1.1.1.2c0 .3-.3.2-.3.5v.1l.5.3v-.2l-.3-.2c0-.2.2-.2.3-.3v-.2c0-.1 0-.2-.1-.3-.1 0-.1 0-.2-.1h0z"/><path d="M259.6 98.6l-.1-.1v.2h.1z"/><path d="M260.2 97.9l-.4-.2v.7l.2.1c0-.1 0-.1.1-.1s.1.1.1.2v.3c0 .1 0 .1-.1.1s-.1-.1-.1-.2v-.1l-.2-.1v.1c0 .2.1.3.2.4s.3 0 .3-.2v-.3c0-.2-.1-.3-.2-.4h-.1v-.3l.3.2-.1-.2z"/></g><path d="M267.4 93.7s-.1 0 0 0h0l.1.2c0-.1 0-.1-.1-.2h0zm.4 1.2v-.2l.2.1v.2l-.2-.1zm.2-.3V94l.4.2v.2l-.3-.2v.3h.1c.1.1.2.2.2.4v.3c0 .2-.1.2-.3.2-.2-.1-.3-.2-.2-.4v-.1l.2.1v.1c0 .1 0 .1.1.2.1 0 .1 0 .1-.1v-.3c0-.1 0-.1-.1-.2-.1 0-.1 0-.1.1h0l-.1-.2zm-.2-1.6c-.6-.3-1.1-.1-1.2.4l.6.3c0-.2.1-.2.2-.2.2.1.3.2.2.4l.1.1v.5l-.4-.2-.1.1.3.2v.2l-.5-.3v-.1c0-.1 0-.1.1-.2l-.6-.3c.1.7.6 1.4 1.2 1.8.7.4 1.3.1 1.3-.7.1-.7-.5-1.6-1.2-2h0z" class="AD"/><path d="M267.5 93.9l-.2-.1v.1l-.2-.1v-.1l-.6-.3-2-1.1-1.3-.7v.5l1.3.7 2.1 1.1.6.3c.1 0 .3 0 .3-.3h0zm.3.2l-.1-.1c0 .3-.2.3-.3.4l.4.2v-.5z" fill="#ba3227"/><g class="AA"><path d="M267.4 93.6c-.2-.1-.2 0-.2.2v.1l.2.1v-.1c0-.1 0-.1.1-.1s.1.1.1.2h0c0 .2-.2.2-.3.4 0 0-.1.1-.1.2v.1l.5.3v-.2l-.3-.2c0-.1 0-.1.1-.1.1-.1.3-.1.3-.4-.1-.3-.2-.4-.4-.5h0z"/><path d="M267.9 94.8h-.1v.1l.1.1zm.6-.6l-.4-.2v.6l.2.1c0-.1 0-.1.1-.1s.1.1.1.2v.3c0 .1 0 .1-.1.1s-.1-.1-.1-.2v-.1l-.2-.1v.1c0 .2.1.3.2.4.2.1.3 0 .3-.2v-.3c0-.2-.1-.3-.2-.4h-.1v-.3l.2.1z"/></g><path d="M261.1 132.8v-.2l.2.1v.2l-.1.2h-.1v-.3zm-1.3-1.7v-.2c.2.1.2 0 .2-.1l.1.1v1.4l-.2-.1v-1l-.1-.1zm1.6 1.3v-.8l.5.3v.2l-.4-.2v.3h.2c.1.1.2.2.2.4v.3c0 .2-.1.3-.3.2a.55.55 0 0 1-.3-.5l.1-.2.1.2v.1c0 .1 0 .2.1.2s.1 0 .1-.1v-.3c0-.1 0-.2-.1-.2s-.1 0-.1.1h0-.1zm-1-.9v-.1c0-.2.1-.3.3-.2a.55.55 0 0 1 .3.5c0 .4-.4.4-.4.6h0l.4.2v.2l-.6-.3v-.2c0-.4.4-.3.4-.7 0-.1 0-.2-.1-.2s-.1 0-.1.1v.1h-.2zm-1.8-3.5v4.5c1 .6 1.9 1.6 2.5 2.6l3-1.6c-1.3-2.3-3.3-4.3-5.5-5.5h0z" class="AF"/><path d="M264.3 138.6v-.2l.2.1v.2l-.1.2h-.1v-.3zm-1.4-1.7v-.2c.2.1.2 0 .2-.1l.1.1v1.4l-.2-.1v-1.1h-.1zm1.7 1.3v-.8l.5.3v.2l-.4-.2v.3s.1-.1.2 0 .2.2.2.4v.3c0 .2-.1.3-.3.2a.55.55 0 0 1-.3-.5l.1-.2.1.2v.1c0 .1 0 .2.1.2s.1 0 .1-.1v-.3c0-.1 0-.2-.1-.2s-.1 0-.1.1h0-.1zm-1.1-.9v-.1c0-.2.1-.3.3-.2a.55.55 0 0 1 .3.5c0 .4-.4.4-.4.6h0l.4.2v.2l-.6-.3v-.2c0-.4.4-.3.4-.7 0-.1 0-.2-.1-.2s-.1 0-.1.1v.1h-.2zm1-3.2l-3 1.6c.4.9.7 1.8.7 2.7v.6l4.3 2.3v-.6c-.1-2.1-.8-4.4-2-6.6h0z" class="AQ"/><path d="M253.8 139.4v-.3l.3.2v.3l-.1.3-.1-.1.1-.2-.2-.2zm-1.1-2.4v-.3l.9.5v.3l-.4 1.5-.3-.2.4-1.5-.6-.3zm1.6 1.8l.1-1.1.8.4v.3l-.5-.3v.5c.1-.1.1-.1.3 0s.3.3.3.6v.5c0 .3-.2.4-.4.3-.3-.2-.4-.4-.4-.7v-.2l.3.2v.2c0 .1.1.2.2.3s.2 0 .2-.1v-.4c0-.1-.1-.2-.2-.3s-.2 0-.2.1v.1l-.5-.4zm3.8-11.1c-4.3-2.2-7.8-.2-7.8 4.4v.6l.1.6c.2 2.1 1.1 4.3 2.4 6.3.1.2.3.4.4.6 1.3 1.9 3.1 3.6 4.9 4.7.1.1.2.1.3.1s.2.1.3.1c4 2 7.2.5 7.7-3.3l-4.3-2.3c-.4 1.4-1.8 1.8-3.4 1.1-.1 0-.2-.1-.3-.1s-.2-.1-.3-.2c-.7-.4-1.4-1.1-1.9-1.8-.1-.2-.3-.4-.4-.6-.5-.7-.9-1.6-1-2.4 0-.2-.1-.4-.1-.6v-.6c0-2.2 1.6-3.1 3.6-2.2l-.2-4.4z" class="AD"/><g fill="#2880b9"><path d="M250.3 132.7c0 .2 0 .4.1.6-.1-.2-.1-.4-.1-.6h0z"/><path d="M250.3 132.7c0 .2 0 .4.1.6l-.1-.6z"/></g><g class="AA"><path d="M253.6 137.2l-.9-.4v.2l.6.4-.4 1.5.3.1.4-1.5zm.5 2l-.3-.1v.3h.1v.3h.1l.1-.2z"/><path d="M255.2 138.1l-.8-.4-.1 1.1.3.2v-.1c0-.1.1-.2.2-.1s.2.1.2.3v.4c0 .1-.1.2-.2.1s-.2-.1-.2-.3v-.2l-.3-.2v.2c0 .3.2.6.4.7.3.2.4.1.4-.3v-.5c0-.3-.1-.5-.3-.6-.1-.1-.2-.1-.3 0v-.5l.5.3.2-.1zm4.9-7.2l-.1-.1c0 .1-.1.1-.2.1v.2l.2.1v1l.2.1-.1-1.4z"/><path d="M260.7 131.2c-.2-.1-.3 0-.3.2v.1l.2.1v-.1c0-.1 0-.1.1-.1s.1.1.1.2c0 .4-.4.2-.4.7v.2l.6.3v-.2l-.4-.2c0-.2.4-.2.4-.6 0-.3-.1-.5-.3-.6h0z"/><path d="M261.3 132.7l-.2-.1v.2l.1.1-.1.1.1.1.1-.2z"/><use xlink:href="#K"/><path d="M263.3 136.7l-.1-.1c0 .1-.1.1-.2.1v.2l.2.1v1.1l.2.1-.1-1.5z"/><path d="M263.8 137c-.2-.1-.3 0-.3.2v.1l.2.1v-.1c0-.1 0-.1.1-.1s.1.1.1.2c0 .4-.4.3-.4.7v.2l.6.3v-.2l-.4-.2c0-.2.4-.2.4-.6.1-.3-.1-.5-.3-.6h0zm.7 1.5l-.2-.1v.5h.1l.1-.2z"/><path d="M265.2 137.8l-.5-.3v.8l.2.1c0-.1 0-.1.1-.1s.1.1.1.2v.3c0 .1 0 .1-.1.1s-.1-.1-.1-.2v-.1l-.2-.1v.1a.55.55 0 0 0 .3.5c.2.1.3 0 .3-.2v-.3c0-.2-.1-.4-.2-.4h-.2v-.3l.4.2-.1-.3z"/></g><path d="M240.5 135.8l-19.2-10.3v.5l19.2 10.3z" class="AF"/><path d="M222.9 110.7l-1.6-.8v14.5l1.5.8z" class="AM"/><path d="M224.6 105.6l-1.5-.8-.1 20.5 1.5.8z" class="AE"/><path d="M226.3 109.6l-1.5-.8v17.4l1.5.9z" class="AD"/><path d="M230.1 106.9l-1.5-.8-.1 22.1 1.5.9z" class="AM"/><path d="M231.8 104.8l-1.5-.8-.1 25.2 1.5.8z" class="AE"/><path d="M233.5 119.8l-1.5-.8-.1 11.1 1.6.8z" class="AD"/><path d="M237.1 116.9l-1.5-.8V132l1.5.9z" class="AM"/><path d="M238.9 115.1l-1.5-.8-.1 18.7 1.5.8z" class="AE"/><path d="M240.6 121.5l-1.5-.8-.1 13.2 1.5.8z" class="AD"/><g class="AF"><path d="M278.5 153.8l-.2-.1v1.7l.2.1-.2-.1v-.2l.2.1v-1.5zm0-4.4l-.2-.1v4.2l.2.1v-4.2zm0-4.5l-.2-.1v4.2l.2.1v-4.2zm0-4.4l-.2-.1v4.2l.2.1v-4.2zm0-4.5l-.2-.1v4.2l.2.1V136zm0-1.1l-.2-.1v.8l.2.1v-.8z"/><path d="M280.1 156.2l-1.7-.9-.2-.1v.2l.2.1 1.7.9v-.2zm2.3 1.2l-2.1-1.1v.2l2.1 1.1v-.2zm2.4 1.3l-2.1-1.1v.2l2.1 1.1v-.2zm2.3 1.2l-2.1-1.1v.2l2.1 1.1v-.2zm2.3 1.3l-2.1-1.1v.2l2.1 1.1v-.2zm2.4 1.2l-2.1-1.1v.2l2.1 1.1v-.2zm2.3 1.3l-2.1-1.1v.2l2.1 1.1v-.2zm2.3 1.2l-2.1-1.1v.2l2.1 1.1v-.2zm2.3 1.3l-2.1-1.1v.2l2.1 1.1v-.2zm2.4 1.2l-2.1-1.1v.2l2.1 1.1v-.2zm.9.6l-.8-.4v.2l.8.4v-.2zm-26.3-16.2h-.2v.1h.1v.6h.1z"/><path d="M276.2 152.7c-.1 0-.1-.2-.1-.4s.1-.3.1-.2c.1 0 .1.2.1.4s-.1.3-.1.2h0zm0-.6c-.1-.1-.2 0-.2.2s.1.4.2.5.2 0 .2-.2c0-.3-.1-.5-.2-.5h0z"/><use xlink:href="#L"/><path d="M277.2 153.3c-.1 0-.1-.2-.1-.4s.1-.3.1-.2c.1 0 .1.2.1.4 0 .1 0 .2-.1.2h0zm0-.7c-.1-.1-.2 0-.2.2s.1.4.2.5.2 0 .2-.2-.1-.4-.2-.5h0z"/><use xlink:href="#M"/><use xlink:href="#N"/><use xlink:href="#O"/><path d="M277.2 148.8c-.1 0-.1-.2-.1-.4s.1-.3.1-.2c.1 0 .1.2.1.4 0 .1 0 .2-.1.2h0zm0-.7c-.1-.1-.2 0-.2.2s.1.4.2.5.2 0 .2-.2-.1-.4-.2-.5h0zm-1.5-5.2h-.2v.1c0-.1.1-.1.2-.1.1.1.1.2.1.2 0 .1-.1.1-.1 0h-.1v.1h.1c.1 0 .2.1.2.2s0 .1-.1.1-.1-.1-.1-.1v.1s.1.1.2.1c.2.1.2 0 .2-.1s-.1-.2-.1-.3h0c.1 0 .1 0 .1-.1-.3 0-.3-.1-.4-.2h0z"/><path d="M276.2 143.8c-.1 0-.1-.2-.1-.4s.1-.3.1-.2c.1 0 .1.2.1.4s0 .3-.1.2h0zm0-.6c-.1-.1-.2 0-.2.2s.1.4.2.5.2 0 .2-.2c0-.3-.1-.4-.2-.5h0zm.5.9c-.1 0-.1-.2-.1-.4s.1-.3.1-.2c.1 0 .1.2.1.4s0 .3-.1.2h0zm0-.6c-.1-.1-.2 0-.2.2s.1.4.2.5.2 0 .2-.2c0-.3-.1-.5-.2-.5h0zm.5.9c-.1 0-.1-.2-.1-.4s.1-.3.1-.2c.1 0 .1.2.1.4 0 .1 0 .2-.1.2h0zm0-.7c-.1-.1-.2 0-.2.2s.1.4.2.5.2 0 .2-.2 0-.4-.2-.5h0z"/><use xlink:href="#P"/><path d="M276.2 139.4c-.1 0-.1-.2-.1-.4s.1-.3.1-.2c.1 0 .1.2.1.4 0 .1 0 .2-.1.2h0zm0-.7c-.1-.1-.2 0-.2.2s.1.4.2.5.2 0 .2-.2-.1-.4-.2-.5h0zm.5.9c-.1 0-.1-.2-.1-.4s.1-.3.1-.2c.1 0 .1.2.1.4s0 .3-.1.2h0zm0-.6c-.1-.1-.2 0-.2.2s.1.4.2.5.2 0 .2-.2 0-.4-.2-.5h0zm.5.9c-.1 0-.1-.2-.1-.4s.1-.3.1-.2c.1 0 .1.2.1.4.1.2 0 .3-.1.2h0zm0-.6c-.1-.1-.2 0-.2.2s.1.4.2.5.2 0 .2-.2c.1-.3 0-.4-.2-.5h0z"/><use xlink:href="#Q"/><path d="M276.2 134.8c-.1 0-.1-.2-.1-.4s.1-.3.1-.2c.1 0 .1.2.1.4s0 .3-.1.2h0zm0-.6c-.1-.1-.2 0-.2.2s.1.4.2.5.2 0 .2-.2c0-.3 0-.4-.2-.5h0zm.5.9c-.1 0-.1-.2-.1-.4s.1-.3.1-.2c.1 0 .1.2.1.4.1.2 0 .3-.1.2h0zm0-.6c-.1-.1-.2 0-.2.2s.1.4.2.5.2 0 .2-.2c0-.3 0-.5-.2-.5h0zm.5.9c-.1 0-.1-.2-.1-.4s.1-.3.1-.2c.1 0 .1.2.1.4.1.1 0 .2-.1.2h0zm0-.7c-.1-.1-.2 0-.2.2s.1.4.2.5.2 0 .2-.2c.1-.2 0-.4-.2-.5h0zm5.1 24.3c-.1 0-.1-.2-.1-.4s.1-.3.1-.2c.1 0 .1.2.1.4.1.1 0 .2-.1.2h0zm.1-.7c-.1-.1-.2 0-.2.2s.1.4.2.5.2 0 .2-.2-.1-.4-.2-.5h0z"/><path d="M282.8 158.6h-.2v.1c.1-.1.2-.1.2-.1.1.1.1.2.1.3s-.1.2-.2.2h-.1v.1l.4.2v-.1l-.3-.2h.1c.1-.1.2-.1.2-.3 0 0 0-.1-.2-.2h0zm-2.7-.9c-.1 0-.1-.2-.1-.4s.1-.3.1-.2c.1 0 .1.2.1.4s-.1.3-.1.2h0zm0-.6c-.1-.1-.2 0-.2.2s.1.4.2.5.2 0 .2-.2c0-.3-.1-.4-.2-.5h0z"/><path d="M280.6 157.4h0-.2v.1h.1v.6h.1zm4 2.8c-.1 0-.1-.2-.1-.4s.1-.3.1-.2c.1 0 .1.2.1.4 0 .1 0 .2-.1.2h0zm0-.7c-.1-.1-.2 0-.2.2s.1.4.2.5.2 0 .2-.2-.1-.4-.2-.5h0z"/><path d="M285.1 159.8h-.2v.1c.1-.1.1-.1.2-.1.1.1.1.2.1.2 0 .1-.1.1-.1 0h-.1v.1h.1c.1 0 .2.1.2.2s0 .1-.1.1-.1-.1-.1-.1v.1s.1.1.2.1c.2.1.2 0 .2-.1s-.1-.2-.1-.3h0c.1 0 .1 0 .1-.1-.2 0-.3-.1-.4-.2h0zm1.8 1.6c-.1 0-.1-.2-.1-.4s.1-.3.1-.2c.1 0 .1.2.1.4.1.2 0 .3-.1.2h0zm0-.6c-.1-.1-.2 0-.2.2s.1.4.2.5.2 0 .2-.2c0-.3 0-.4-.2-.5h0z"/><path d="M287.3 161.4h0l.3-.3v.3h-.3zm.3-.3h0l-.4.2v.1l.3.2v.2h.1v-.2h.1v-.1h-.1v-.4zm1.7 1.6c-.1 0-.1-.2-.1-.4s.1-.3.1-.2c.1 0 .1.2.1.4s0 .2-.1.2h0zm0-.6c-.1-.1-.2 0-.2.2s.1.4.2.5.2 0 .2-.2c0-.3-.1-.5-.2-.5h0z"/><path d="M290 162.4l-.3-.2v.3h.1c.1.1.2.2.2.3s-.1.1-.2.1-.1-.1-.1-.1v.1s.1.1.2.1c.1.1.2 0 .2-.1s0-.2-.1-.2l-.1-.1h-.1v-.2h.2zm1.6 1.5c-.1 0-.1-.2-.1-.4s.1-.3.1-.2c.1 0 .1.2.1.4.1.2 0 .3-.1.2h0zm0-.6c-.1-.1-.2 0-.2.2s.1.4.2.5.2 0 .2-.2 0-.4-.2-.5h0z"/><path d="M292.1 164.2c-.1 0-.1-.2-.1-.3h.1c.1 0 .1.1.1.2.1.1 0 .2-.1.1h0zm.2-.5s0-.1 0 0c-.1-.1-.2-.1-.3 0-.1 0-.1.1-.1.3s.1.3.2.4.2 0 .2-.1-.1-.3-.2-.3h-.2c.1-.3.2-.3.4-.3-.1 0 0 0 0 0h0zm1.6 1.5c-.1 0-.1-.2-.1-.4s.1-.3.1-.2c.1 0 .1.2.1.4.1.2 0 .2-.1.2h0zm0-.7c-.1-.1-.2 0-.2.2s.1.4.2.5.2 0 .2-.2c.1-.2 0-.4-.2-.5h0z"/><path d="M294.7 164.9l-.5-.2v.1l.4.2-.3.4.1.1.3-.5zm1.6 1.6c-.1 0-.1-.2-.1-.4s.1-.3.1-.2c.1 0 .1.2.1.4 0 .1 0 .2-.1.2h0zm0-.7c-.1-.1-.2 0-.2.2s.1.4.2.5.2 0 .2-.2-.1-.4-.2-.5h0zm.5.9c-.1 0-.1-.1-.1-.2s0-.1.1-.1c.1.1.1.1.1.2 0 .2 0 .2-.1.1h0zm0-.3c-.1-.1-.1-.1-.1-.2s0-.1.1-.1c.1.1.1.2 0 .3h0zm0-.3c-.1-.1-.2 0-.2.1s0 .1.1.2h0c-.1 0-.1 0-.1.1s.1.2.2.3.2 0 .2-.1-.1-.2-.1-.3h0c.1 0 .1 0 .1-.1l-.2-.2zm1.8 1.6c-.1 0-.1-.2-.1-.4s.1-.3.1-.2c.1 0 .1.2.1.4s0 .2-.1.2h0zm0-.6c-.1-.1-.2 0-.2.2s.1.4.2.5.2 0 .2-.2c0-.3 0-.5-.2-.5h0z"/><path d="M299.1 167.7c-.1 0-.1-.1-.1-.2s.1-.1.1-.1c.1 0 .1.2.1.3h0-.1zm0-.4c-.1-.1-.2 0-.2.1s.1.3.2.3h.2c0 .1 0 .1-.1.1h-.2v.1h.3c.1 0 .1-.1.1-.3-.1 0-.1-.2-.3-.3h0zm1.9 1h-.3l.1.1h.1v.6h.1z"/><path d="M301.4 169.2c-.1 0-.1-.2-.1-.4s.1-.3.1-.2c.1 0 .1.2.1.4s0 .3-.1.2h0zm0-.6c-.1-.1-.2 0-.2.2s.1.4.2.5.2 0 .2-.2c0-.3 0-.5-.2-.5h0zm-22.9-15l-.2-.1-.3-.2v.3l.3.1.2.1zm1.8 2.7l-.2-.1v.5l.2.1v-.3zm2.4 1.3l-.3-.2v.6l.3.1v-.3zm2.3 1.2l-.2-.1v.5l.2.1v-.3zm2.3 1.2l-.2-.1v.6l.2.1v-.3zm2.3 1.3l-.2-.1v.5l.2.1v-.3zm2.4 1.2l-.2-.1v.6l.2.1v-.3z"/><path d="M294.3 163.8l-.2-.1v.5l.2.1v-.3zm2.3 1.2l-.2-.1v.6l.2.1v-.3zm2.4 1.3l-.3-.1v.5l.3.1v-.3zm2.3 1.2l-.2-.1v.6l.2.1v-.3zm-22.8-18.4l-.2-.1-.3-.1v.2l.3.2.2.1zm0-4.4l-.2-.1-.3-.2v.2l.3.2.2.1zm0-4.5l-.2-.1-.3-.2v.3l.3.1.2.2zm0-4.4l-.2-.2-.3-.1v.2l.3.2.2.1z"/></g><path d="M281 155.2l-1.5-.8v1.5l1.5.8v-1.5zm0-4.5l-1.5-.8v4.2l1.5.8v-4.2zm0-3.1l-1.5-.8v2.9l1.5.8v-2.9z" class="AM"/><path d="M283.3 156.5l-1.6-.8v1.5l1.6.8v-1.5zm.1-4.5l-1.6-.8v4.2l1.6.8V152zm0-4.5l-1.6-.8v4.2l1.6.8v-4.2zm0-2.9l-1.6-.8v2.7l1.6.8v-2.7z" fill="#fbf1ca"/><path d="M285.7 157.7l-1.6-.8v1.5l1.6.8v-1.5zm0-4.5l-1.6-.8v4.2l1.6.8v-4.2zm0-4.4l-1.6-.8v4.2l1.6.8v-4.2zm0-4.5l-1.6-.8v4.2l1.6.8v-4.2zm0-1.3l-1.6-.8v1.1l1.6.8V143z" class="AE"/><path d="M288 158.9l-1.6-.8v1.5l1.6.8v-1.5zm0-4.4l-1.6-.8v4.2l1.6.8v-4.2zm0-2.1l-1.6-.8v1.8l1.6.8v-1.8z" class="AQ"/><path d="M290.3 160.2l-1.6-.8v1.5l1.6.8v-1.5zm0-4.5l-1.6-.8v4.2l1.6.8v-4.2zm0-4.4l-1.6-.8v4.2l1.6.8v-4.2zm0-1.1l-1.6-.8v.8l1.6.8v-.8z" class="AD"/><path d="M292.6 161.4l-1.6-.8v1.5l1.6.8v-1.5zm.1-4.4l-1.6-.8v4.2l1.6.8V157zm0-4.5l-1.6-.8v4.2l1.6.8v-4.2zm0-2.3l-1.6-.8v2l1.6.8v-2z" class="AM"/><path d="M295 162.7l-1.6-.8v1.5l1.6.8v-1.5zm0-4.5l-1.6-.8v4.2l1.6.8v-4.2zm0-4.4l-1.6-.8v4.2l1.6.8v-4.2zm0-4.4l-1.6-.8v4.1l1.6.8v-4.1z" fill="#fbf1ca"/><path d="M297.3 163.9l-1.6-.8v1.5l1.6.8v-1.5zm0-4.4l-1.6-.8v4.2l1.6.8v-4.2zm0-4.5l-1.6-.8v4.2l1.6.8V155zm0-1.8l-1.6-.8v1.6l1.6.8v-1.6z" class="AE"/><path d="M299.6 165.2l-1.6-.8v1.5l1.6.8v-1.5zm0-4.5l-1.6-.8v4.2l1.6.8v-4.2zm.1-4.4l-1.6-.8v4.2l1.6.8v-4.2zm0-4.5l-1.6-.8v4.2l1.6.8v-4.2zm0-1.9l-1.6-.8v1.7l1.6.8v-1.7z" class="AQ"/><path d="M301.9 166.4l-1.6-.8v1.5l1.6.8v-1.5zm.1-4.4l-1.6-.8v4.2l1.6.8V162zm0-4.5l-1.6-.8v4.2l1.6.8v-4.2zm0-4.4l-1.6-.8v4.2l1.6.8v-4.2zm0-4.4l-1.6-.8v4.1l1.6.8v-4.1z" class="AD"/><path d="M279.5 154.1l-.6-.3v.2l.6.3v-.2zm2.3 1.3l-.8-.4v.2l.8.4v-.2zm2.3 1.2l-.8-.4v.2l.8.4v-.2zm2.3 1.3l-.8-.4v.2l.8.4v-.2zm2.4 1.2l-.8-.4v.2l.8.4v-.2zm2.3 1.3l-.8-.4v.2l.8.4v-.2zm2.3 1.2l-.8-.4v.2l.8.4v-.2zm2.3 1.3l-.8-.4v.2l.8.4v-.2zm2.4 1.2l-.8-.4v.2l.8.4v-.2zm2.3 1.3l-.8-.4v.2l.8.4v-.2z" class="AN"/><path d="M281 155l-1.5-.9v.3l1.5.8z" class="AO"/><path d="M283.3 156.2l-1.5-.8v.2l1.5.9z" class="AJ"/><path d="M285.7 157.5l-1.6-.9v.3l1.6.8z" class="AG"/><path d="M288 158.7l-1.6-.8v.2l1.6.8z" class="AK"/><path d="M290.3 160l-1.5-.9v.3l1.5.8z" class="AH"/><path d="M292.6 161.2l-1.5-.8v.2l1.5.8z" class="AO"/><path d="M295 162.5l-1.6-.9v.3l1.6.8z" class="AJ"/><path d="M297.3 163.7l-1.6-.8v.2l1.6.8z" class="AG"/><path d="M299.6 165l-1.5-.9v.3l1.5.8z" class="AK"/><path d="M302 166.2l-1.6-.8v.2l1.5.8z" class="AH"/><path d="M279.5 149.7l-.6-.3v.2l.6.3v-.2zm2.3 1.2l-.8-.4v.2l.8.4v-.2zm2.3 1.3l-.8-.4v.2l.8.4v-.2zm2.4 1.2l-.8-.4v.2l.8.4v-.2zm2.3 1.3l-.8-.4v.2l.8.4v-.2zm2.3 1.2l-.8-.4v.2l.8.4v-.2zm2.3 1.3l-.8-.4v.2l.8.4v-.2zm2.4 1.2l-.8-.4v.2l.8.4v-.2zm2.3 1.3l-.8-.4v.2l.8.4v-.2zm2.3 1.2l-.8-.4v.2l.8.4v-.2z" class="AN"/><path d="M281 150.5l-1.5-.8v.2l1.5.8z" class="AO"/><path d="M283.4 151.8l-1.6-.9v.3l1.6.8z" class="AJ"/><path d="M285.7 153l-1.6-.8v.2l1.6.8z" class="AG"/><path d="M288 154.3l-1.5-.9v.3l1.5.8z" class="AK"/><path d="M290.3 155.5l-1.5-.8v.2l1.5.8z" class="AH"/><path d="M292.7 156.7l-1.6-.8v.3l1.6.8z" class="AO"/><path d="M295 158l-1.6-.8v.2l1.6.8z" class="AJ"/><path d="M297.3 159.2l-1.5-.8v.3l1.5.8z" class="AG"/><path d="M299.6 160.5l-1.5-.8v.2l1.5.8z" class="AK"/><path d="M302 161.7l-1.6-.8v.2l1.6.9z" class="AH"/><path d="M281.8 146.5l-3-1.6v.2l3 1.6v-.2zm2.3 1.2l-.8-.4v.2l.8.4v-.2zm4.7 2.5l-3.1-1.7v.2l3.1 1.7v-.2zm2.3 1.3l-.8-.4v.2l.8.4v-.2zm2.3 1.2l-.8-.4v.2l.8.4v-.2zm2.4 1.3l-.8-.4v.2l.8.4v-.2zm2.3 1.2l-.8-.4v.2l.8.4v-.2zm2.3 1.3l-.8-.4v.2l.8.4v-.2z" class="AN"/><path d="M283.4 147.3l-1.6-.8v.2l1.6.8z" class="AJ"/><path d="M285.7 148.5l-1.6-.8v.3l1.6.8z" class="AG"/><path d="M290.3 151l-1.5-.8v.2l1.5.9z" class="AH"/><path d="M292.7 152.3l-1.6-.8v.2l1.6.8z" class="AO"/><path d="M295 153.5l-1.6-.8v.2l1.6.9z" class="AJ"/><path d="M297.3 154.8l-1.5-.8v.2l1.5.8z" class="AG"/><path d="M299.7 156l-1.6-.8v.2l1.6.9z" class="AK"/><path d="M302 157.3l-1.6-.8v.2l1.6.8z" class="AH"/><path d="M284.2 143.3l-5.3-2.8v.2l5.3 2.8v-.2zm13.9 7.4l-12.4-6.7v.2l12.4 6.7v-.2zm2.3 1.3l-.8-.4v.2l.8.4v-.2z" class="AN"/><path d="M285.7 144.1l-1.5-.8v.2l1.5.8z" class="AG"/><path d="M299.7 151.6l-1.6-.9v.3l1.6.8z" class="AK"/><path d="M302 152.8l-1.6-.8v.2l1.6.9z" class="AH"/><path d="M302 148.4L278.9 136v.2l23.1 12.4z" class="AN"/><g fill="#efeeee"><path d="M243.7 58.5l-30.1-16.1v2.4l30 16.1z"/><use xlink:href="#R"/><path d="M282.4 79.3l-16.8-9v2.4l16.8 8.9zm21.4 11.5l-19-10.2v2.3l19 10.2z"/><use xlink:href="#S"/><path d="M303.9 67.3l-46.7-25.1v2.4l46.7 25zm0 4l-46.7-25.1v2.4l46.7 25zm-73.1-16.1L213.6 46v2.3l17.1 9.2zm20.5 11l-19-10.2v2.4l19 10.2zm-12 26.6l-17.2-9.2v2.3l17.2 9.2zm29.5 15.8l-19-10.2v2.3l19 10.2zm35-6.5l-27.7-14.9v2.4l27.7 14.8zm0 3.6l-27.7-14.9v2.4l27.7 14.8zm0 3.6l-27.7-14.9v2.4l27.6 14.8zm-.1 3.6L276.1 98l-.1 2.4 27.7 14.8zm0 3.6L276 101.6v2.4l27.7 14.8zm0 3.6L276 105.2v2.4l27.7 14.8zm0 3.6L276 108.8v2.4l27.7 14.8zm0 3.6L276 112.4v2.4l27.7 14.8zm-64.6 12.8l-17.1-9.2v2.3l17.1 9.2zm29.5 15.8l-19-10.2v2.4l19 10.2zm29.3 15.7l-19-10.2v2.4l19 10.2zm-36-99.7l-8.7-4.7v2.4l8.7 4.6zm20.4 10.9l-19-10.2V75l19 10.2zm-38.9 66.5l-30.1-16.1v2.3l30.1 16.2zm20.3 10.9l-19-10.2v2.4l19 10.2zm18.4 9.9l-16.8-9v2.3l16.8 9zm21.4 11.5l-19-10.2v2.3l19 10.2zm-73-35.6l-17.2-9.2v2.3l17.2 9.2zm20.6 11l-19-10.2v2.4l19 10.2zm10.6 5.7l-8.8-4.7v2.3l8.7 4.7zm20.3 10.9l-19-10.2v2.4l19 10.2zm22.4-40.3l-91.3-49.1-.1 3.1 91.4 49zm0 4.6l-91.4-49V92l91.4 49z"/></g></g></g><g opacity=".64" class="AB"><defs><path id="Y" d="M153.5 81.2l.1-53.8 50.5 27-.2 53.9z"/></defs><clipPath id="Z"><use xlink:href="#Y"/></clipPath><g clip-path="url(#Z)"><use xlink:href="#T" class="AA"/><use xlink:href="#U" fill="#7cc576"/></g></g><g class="AB"><use xlink:href="#T" x="-6.4" y="5.7" stroke="#fff" class="AA AP"/><defs><path id="a" d="M174.8 74.2h0zm11.7 27.8c1.5-.2 3.1-.6 4.4-1.3 4.2-2.3 6.3-7.8 6.3-14.6 0-13.9-10.5-31-23.6-38h0c-13.1-7-23.8-1.4-23.8 12.6 0 6 1.9 12.6 5.2 18.7 1.2 2.3 2.6 4.4 4.1 6.5 1.7 2.3 3.5 4.4 5.5 6.3 2.7 2.6 5.7 4.9 8.8 6.5 3.1 1.7 5.9 3.4 8.7 3.7"/></defs><use xlink:href="#a" fill="#98ff8b"/><clipPath id="b"><use xlink:href="#a"/></clipPath><g clip-path="url(#b)" stroke="#fff" class="AA AP"><path d="M163 67.8c.1 3.6 1.3 2.1 1.5 3.7.3 2.6 2.1 4.6 3.2 5.3.7.4 1.4.6 2.1.7h0c.7 0 1.5-.1 2.2-.5 1.2-.6 3.2-2.4 3.7-5 .3-1.6 1.4 0 1.8-3.5 0-.6-.1-1-.2-1.2-.2-.6-.3-1.3-.1-2l.4-2.3c.3-2-.6-7.3-6.6-7.6h-.2c-6-.3-7.4 4.9-7.3 7 0 .8.1 1.6.1 2.4.1.7 0 1.4-.3 1.9-.1.1-.2.5-.3 1.1zm16.4 12.6c-.1-.1-.1-.2-.2-.2l-2.1-2.1c-.1-.1-.9-.9-1.4-.9-.3 0-.8.2-1.3.9l-2.2 4.2c-1.2 2.1-3.8 2-4.8-.2l-1.8-4.4c-.2-.3-.3-.5-.6-.6-.1-.1-.6-.2-.8-.2-1.8.1-3.4 1.9-4.8 2.6-4.3 2.4-5.4 3.7-5.4 5l-.3 6c-.1 1.6.8 3 2 3.4l12.1 4c.3.1.6.2.8.5l8.7 7.1c.2.2.4.3.6.4 2.2 1 5.5 1.7 7.6-.4 1.4-1.3 5.9 2.8 5.9 1.9.3-1.4-6.6-21.8-12-27z"/></g><use xlink:href="#a" fill="none" stroke="#fff" class="AP"/></g><g opacity=".64" class="AB"><defs><path id="c" d="M324 162.1l.1-53.8 50.5 27-.2 53.9z"/></defs><clipPath id="d"><use xlink:href="#c"/></clipPath><g clip-path="url(#d)"><path d="M349.2 174.1c-3.1-1.7-6.1-3.9-8.8-6.5-2-1.9-3.8-4-5.5-6.3-1.5-2.1-2.9-4.3-4.1-6.5-3.3-6.1-5.2-12.7-5.2-18.7 0-14 10.7-19.6 23.8-12.6s23.7 24.1 23.6 38.1c0 6.9-2.6 11.7-6.7 14-1.3.7-2.7 1.2-4.2 1.4-1.3.2-2.6.2-4 .1-2.8-.4-5.8-1.3-8.9-3h0zm.2-52.3c-13.9-7.5-25.3-1.5-25.3 13.4 0 6.4 2.1 13.4 5.5 19.9 1.3 2.4 2.8 4.7 4.4 6.9 1.8 2.4 3.7 4.7 5.9 6.7 2.9 2.8 6.1 5.2 9.4 6.9 3.3 1.8 6.5 2.8 9.4 3.1 1.5.2 2.9.1 4.3-.1 1.6-.2 3.1-.8 4.5-1.5 4.4-2.5 7.1-7.6 7.2-14.9-.2-14.8-11.4-32.9-25.3-40.4h0z" class="AA"/><path d="M350.7 149.9h0zm-1.3-26.5c-13.1-7-23.8-1.4-23.8 12.6 0 6 1.9 12.6 5.2 18.7 1.2 2.3 2.6 4.4 4.1 6.5 1.7 2.3 3.5 4.4 5.5 6.3 2.7 2.6 5.7 4.9 8.8 6.5 3.1 1.7 6.1 2.6 8.9 2.9 1.4.1 2.7.1 4-.1 1.5-.2 2.9-.7 4.2-1.4 4.2-2.3 6.7-7.2 6.7-14 0-13.9-10.5-31-23.6-38h0z" fill="#61c9e5"/></g></g><g class="AB"><use xlink:href="#T" x="164.1" y="86.6" class="AA"/><defs><path id="e" d="M344.3 155.6h0zm-1.3-26.5c-13.1-7-23.8-1.4-23.8 12.6 0 6 1.9 12.6 5.2 18.7 1.2 2.3 2.6 4.4 4.1 6.5 1.7 2.3 3.5 4.4 5.5 6.3 2.7 2.6 5.7 4.9 8.8 6.5 3.1 1.7 6.1 2.6 8.9 2.9 1.4.1 2.7.1 4-.1 1.5-.2 2.9-.7 4.2-1.4 4.2-2.3 6.7-7.2 6.7-14 0-13.9-10.5-31-23.6-38h0z"/></defs><use xlink:href="#e" fill="#61c9e5"/><path d="M336.8 154.8c.8.1 1.6 0 2.3-.2l1.2 2.2 4.4-2.5-1.2-2.1c.5-.6 1-1.2 1.4-2l2.4.4.8-5-2.4-.4c-.1-.8-.4-1.6-.7-2.4l1.8-1.7-3.4-3.7-1.8 1.7c-.7-.4-1.4-.7-2.2-.8l-.2-2.5-5 .4.1 1.8 2.2 3c3.8-.7 7.2 2.5 6.6 6.4-.5 3-3.4 5.1-6.4 4.6-3.8-.6-5.8-4.7-4.1-8.1l-3.1-4.3-2.1 3 2.1 1.5a8.33 8.33 0 0 0-.3 2.2l-2.5.8 1.5 4.8 2.5-.8c.4.6 1 1.2 1.6 1.7l-.9 2.4 4.7 1.9.7-2.3zm1.7-4.9l.7-.2-1.3-1.8.8-.6 1.3 1.8.4-.6c1.4-2.4-1-5.2-3.5-4.3l-3.9-5.4-1.4 1c2 2.8.1.1 3.9 5.5-1.5 2.2.4 5.2 3 4.6zm17.4 9.6l-1.5.6c-.3-.3-.6-.6-1-.8l.2-1.6c.1-.6-.3-1.3-.9-1.4l-1.8-.6c-.6-.2-1.3.1-1.5.7l-.6 1.5c-.4 0-.8 0-1.2.1l-.9-1.3c-.4-.5-1.1-.7-1.6-.4l-1.6.9c-.6.3-.8 1-.6 1.6l.6 1.5c-.3.3-.5.6-.8 1l-1.6-.3c-.6-.1-1.2.3-1.4.9l-.5 1.8c-.2.6.1 1.3.7 1.5l1.5.7c0 .4.1.8.1 1.3l-1.3.9c-.5.4-.7 1.1-.4 1.6l.9 1.7c.3.6 1 .8 1.6.6l1.5-.6c.3.3.6.6 1 .8l-.2 1.6c-.1.6.3 1.3.9 1.4l1.8.6c.6.2 1.3-.1 1.5-.7l.6-1.5c.4 0 .8 0 1.2-.1l.9 1.3c.4.5 1.1.7 1.6.4l1.6-.9c.6-.3.8-1 .6-1.6l-.6-1.5c.3-.3.5-.6.8-1l1.6.3c.6.1 1.2-.3 1.4-.9l.5-1.8c.2-.6-.1-1.3-.7-1.5l-1.5-.7c0-.4-.1-.8-.1-1.3l1.3-.9c.5-.4.7-1.1.4-1.6l-.9-1.7c-.3-.6-1-.8-1.6-.6h0zm-4.7 10c-2 1.1-4.6.3-5.7-1.8s-.4-4.6 1.6-5.7 4.6-.3 5.7 1.8c1.1 2 .4 4.6-1.6 5.7h0z" class="AA"/><ellipse cx="231.2" cy="253.2" rx="16.8" ry="8.7" class="AC"/></g><path d="M243 169.3c4.5 6.2 7.4 6.3 7.4 6.3s9-5.7 14.2-9.7l1.4-1.1 1.6-1.3s6.2-.5 4.1-6-7.5 2.5-7.5 2.5l-.5.3-1.4.8-.5.3-10.5 6.5-2.8-4c0 .5-.3 1.1-.9 1.7-1.6 1.9-4.6 3.7-4.6 3.7z" class="AI"/><path d="M262.3 161.2c1 1.1 1.9 3.1 2.3 4.6l1.4-1.1c-.5-1.4-1.3-3.2-2.3-4.4l-1.4.9z" fill="#231f20"/><path d="M263.5 163.2c0 .5.4.9 1 .9.5 0 1-.4 1-.9s-.4-.9-1-.9c-.5 0-1 .4-1 .9z" class="AA"/><path d="M264.5 164.1c-.5 0-1-.4-1-.9s.4-.9 1-.9c.5 0 1 .4 1 .9s-.5.9-1 .9zm0-1.8c-.5 0-.9.4-.9.9s.4.9.9.9.9-.4.9-.9-.4-.9-.9-.9z" fill="#231f20"/><path d="M247.6 165.8l3.7 3 10.5-7.2-10.5 6.5-2.8-4c-.1.5-.4 1.1-.9 1.7z" class="AB AC"/><path d="M217.8 183.5c1.8 4.3 3.9 3.3 5.9 1.4 1.9-1.9-2.9-4.3-2.9-4.3l-.2-.3-6.2-10 1.3-2.2c0-.4 0-.8-.1-1.2-.9-2.9-5.5-3.3-5.5-3.3l-2.8 6.5c-.3 1.4 8.7 9.1 10.5 13.4z" class="AI"/><path d="M213.9 170.3l6.6 10.2.2-.2-6.2-10 1.3-2.2c0-.4 0-.8-.1-1.2l-1.8 3.4z" class="AB AC"/><path d="M209.9 164.1s5.5 2.1 5.8 4l2-2.9 3.6-6.1c1-2 1.8-4 1.9-5.5.3-4.9-4.2-7.5-4.2-7.5s-3 2.4-9.1 18z" fill="#005b82"/><path d="M217.7 165.2l3.6-6.1-4.4-4.3c-.6 4.2.8 10.4.8 10.4z" class="AB AC"/><use xlink:href="#V" fill="#272828"/><g class="AA"><path d="M235.6 248.9c.9.8 1.5 2 1.5 2l5.3-1.7c-.2-.4-.8-.8-1.4-1.1-2.1.1-4.5.6-5.4.8z" class="AB AL"/><use xlink:href="#W"/></g><use xlink:href="#V" x="-10.8" y="-3.4" fill="#272828"/><g class="AA"><path d="M224.8 245.5c.9.8 1.5 2 1.5 2l5.3-1.7c-.2-.4-.8-.8-1.4-1.1-2.2.1-4.6.6-5.4.8z" class="AB AL"/><use xlink:href="#W" x="-10.8" y="-3.4"/></g><path d="M230.9 189.5l-3.6 31.6c-1.1 8.3-1.8 25.4-1.8 25.4s-2.9 5.3-8.2 2c0 0-1.5-23.3-.6-29.6s1-25.9-.2-28l14.4-1.4z" fill="#0d2a2d"/><path d="M241.5 192.5l-3.6 31.6c-1.1 8.3-1.8 25.4-1.8 25.4s-2.9 5.3-8.2 2c0 0-1.5-23.3-.6-29.6.8-6.3 1-25.9-.2-28l14.4-1.4z" fill="#163c42"/><path d="M225.5 149.9c.9 3 6.8 2.2 6.8 2.2l1.9-5.6.3-.8c.2.1 3.5.5 3.5.5 2.9-7.9.2-13.9.2-13.9l-5.3.4-6.3 6.3-1.1 10.9z" class="AI"/><path d="M235 133.8s6.6-.5 4.3-3.5-16.1-2.9-15.5 1.7c0 0-5.1 3.4 2.8 13.2 0 .1 10.6.2 8.4-11.4z" fill="#282828"/><path d="M216.9 193.4s18 11.4 25.8 1l-1.3-25.6a59.27 59.27 0 0 0 5.1 4.5c2.8-1.9 4.2-4.6 4.8-6.2-1.9-3.8-6.1-12-9.4-13.8-1.7-.9-5-2.5-8.4-3.9-1.6-.7-4-.8-5.6-1.4-2.7-1-1.9-1.6-1.9-1.6-2.5-.9-4.5-1.4-5.2-1.1-2.1.8-6 2.1-2.1 19.9.8 3.5.9 9.5-1.7 14.2-2.7 4.6-.1 14-.1 14z" fill="#005b82"/><path d="M237.9 161.8s.5 8.1 3.6 11.3l-.2-4.3-3.4-7zm-4.9-17.6s.1 1.6 1.3 2.4l.3-.8c-.5-.2-1-.7-1.6-1.6z" class="AB AC"/><path d="M238.3 130.9s-7.8-4.6-13.8.2c0 0 3.5-1.9 13.8-.2z" class="AA AB AL"/></svg>