<svg xmlns="http://www.w3.org/2000/svg" xmlns:xlink="http://www.w3.org/1999/xlink" width="445" height="297" xmlns:v="https://vecta.io/nano"><style><![CDATA[.Aj{fill:#fff}.Ak{fill:#e5e5e5}.Al{fill:#512932}.Am{fill:#f4f4f4}.An{fill:#efa986}.Ao{opacity:.18}.Ap{fill:#eab071}.Aq{fill:#fecb8d}.Ar{fill:#dcdbdb}.As{enable-background:new}.At{fill:#323757}.Au{fill:#4d96d1}.Av{fill:#282828}.Aw{fill:#f7d194}.Ax{stroke-dasharray:2.9509,2.9509}.Ay{stroke-dasharray:3.0442,3.0442}]]></style><circle cx="111.9" cy="131.7" r="106.2" fill="#ecfce2"/><circle cx="333.1" cy="131.7" r="106.2" fill="#e9f3f7"/><path d="M67.1 253.5c21.5 0 38.9 5 38.9 11.2s-17.4 11.2-38.9 11.2-38.9-5-38.9-11.2 17.4-11.2 38.9-11.2zm261.4-6c45.5 0 82.4 5.6 82.4 12.4 0 6.9-36.9 12.4-82.4 12.4S246 266.8 246 260c0-6.9 36.9-12.5 82.5-12.5z" opacity=".2" fill="#bfc3c7" class="As"/><g fill="none" stroke="#727272" stroke-width=".75" stroke-miterlimit="10"><path d="M168.6 179.1v1.5h-1.5"/><path d="M164.2 180.6H47.6" class="Ax"/><path d="M46.1 180.6h-1.5v-1.5"/><path d="M44.6 176.1v-102" class="Ay"/><path d="M44.6 72.6v-1.5h1.5"/><path d="M49.1 71.1h116.5" class="Ax"/><path d="M167.1 71.1h1.5v1.5"/><path d="M168.6 75.6v102" class="Ay"/><path d="M356.9 167.9h-69.1c-8.2 0-14.9-6.7-14.9-14.9V95.9c0-8.2 6.7-14.9 14.9-14.9h69.1c8.2 0 14.9 6.7 14.9 14.9V153c0 8.3-6.7 14.9-14.9 14.9z" stroke-dasharray="2.9839,2.9839"/></g><path d="M52.5 259.6h5s.9 2.9.8 4.1c-.2 1.3-.9 1-1.8 2.5-.8 1.5-.9 3-2.8 3.1s-6.7.8-6.7-1.9c0-2.5 2.9-4 3.6-4.9.8-.7 1.9-2.9 1.9-2.9h0z" fill="#1f2338"/><path d="M52.8 258.3s-.5.9-.5 1.7c0 1 5.3 0 5.3 0 .1 0-.2-1.2-.2-1.2l-4.6-.5z" fill="#82817f"/><path d="M77.5 134.5l-7-7.3-4.4 3.7 7.8 6.9z" fill="#52588d"/><path d="M76.8 134.2l-6-6.3-3.9 3.2 6.7 6z" fill="#3e3c43"/><g fill="#e4a180"><path d="M75.7 140.3c-.6-.1-2.6-1.9-2.6-1.9l4.1-3.7s.6.3.2 1.6.8 1.6.8 1.6c.7.8-1.9 2.5-2.5 2.4z"/><path d="M74.9 136.9c-.5-.6-2.4-1-2.8-1.1s-.9-.3-1.5-.9-2.5-.6-2 0 1.6 1.6 1.8 1.8 2.7 1.7 2.7 1.7 2.2-.9 1.8-1.5zm1.5-4.2c-.6-.2-.6.7-.4 1.2.2.4.5.1.5.1s.4-1.1-.1-1.3zm-1.2-1.2c-.6 0-.3 1.2.1 1.5s.5-.4.5-.4 0-1.1-.6-1.1zm-1.1-1c-.6 0-.2 1.5.1 1.7.4.3.4-.6.4-.6s.1-1.1-.5-1.1z"/></g><path d="M80.7 145.8s-8.2-4.4-10.4-5.1-6.8 6.1.3 10c4.6 2.6 13.4 2.9 18.6 4.3 1.9.5 6.8-4.1 4.5-5.7l-15.2-12.6-3.8 3.4 6 5.7z" class="At"/><path d="M76 258.9c0 .4-1 3.3-.5 4.5.5 1.1.9.5 4.9 2.7 2.7 1.5 9.5.5 9.5-1s-1.7-2.2-4-2.7c-2.4-.6-4.7-3.1-4.7-3.1s-5.2-.8-5.2-.4z" fill="#1f2338"/><path d="M76.3 257.2l-.3 1.7c-.2 1 5.1.4 5.2.3l-.3-1.2-4.6-.8z" fill="#82817f"/><path d="M52.5 181.6c-4.3 12-.9 41.9-1.1 44.6-.5 7.1.2 32.8.2 32.8 1.4 1.2 6.7.1 6.7.1l3.1-33.6c.7-3.8 2-26.7 3.1-28 1-1.3 5.3 19.4 6.4 24.2 1.2 5.2 4.5 36.4 4.5 36.4s6.7 1 6.4-.4-.4-25.3-.8-30.2c-.3-3.9-.7-10-1.9-17.5-1-6.4-2.9-25-2.9-25s-21.4-9.7-23.7-3.4z" fill="#2a2c47"/><path d="M42.6 166.2c.1-1.5 2.7-22.4 4-23.3.8-.6 6.1-2.7 8.8-3.8 1.3-.5 2.2-.8 2.4-.8.6 0 8.3.7 8.3.7a34.8 34.8 0 0 0 2.2.9l7.1 3.3c.7.3 1.6.8 2.3 1.2-.1 2.6-.2 5.5-.5 8.4 0 0-.4 6.6-.5 13.2-.4 1.5-.3 5-.3 5-.1 3.3.3 6.7.4 8.6.1 3 .6 11.7.6 11.7h-2.6l-17.8-.5-5.2-2.4.5-18.5c-.1-3.7-2.1-11.4-2.3-11.9h0s-1.6 7.4-1.6 10.2c0 3.5.6 20.1-.7 20.3-1.4.2-4.6-.7-4.6-.7s-.8-18.9-.5-21.6z" fill="#e8744e"/><path d="M59.2 131.2v-.2c0-1 2.8 1.6 4.9 3.6l2.1 2.1v1.9c0 .6.4.9.4 1.2v.1c.1 1.6-2.3 3.6-2.3 3.6s-5.8 0-6.3-5.2c-.2.1 1.6-4.7 1.2-7.1z" class="An"/><g fill="#b67444"><path d="M43.2 198.6l.8-4.2s.6-1.3-.5-.6c-1.1.6-1.4 4.7-1.4 4.7l1.1.1z"/><path d="M52.7 223.9L38.3 215l.2-18 14.6 4.4z"/><path d="M38.5 197l-1.2.1-.4 18.1 14 9 1.8-.3z"/></g><path d="M60.9 143c.5.5 3.3.6 3.3.6l-2.4-2.1-.9 1.5z" fill="#a19fa7"/><path d="M77.5 191.2c-6.8 2.8-21.6.6-21.6.6v-3.2c9.9 1 21.2 0 21.2 0l.4 2.6z" fill="#2a2c47"/><path d="M67.4 139.6s1.8 4.3 3.2 14c.5 3.7 1.5 9.9 2.2 16.3h0c.6 5 1.8 10.2 2.2 14l1.7 15.7 3.1-1.9c.4-.4 1.1-.9.9-1.5-.8-2.7-2.5-11.8-3.4-19.7 0-.4-.1-.7-.1-1.1v-.1c-.2-1.6-.4-3.1-.5-4.5-.1-1.1 0-2.1.1-3.1l.6-14.5.5-8.6c-.7-.3-1.6-1-2.4-1.4l-4.8-2.2c-.8-.4-1.7-.5-2.3-.8l-1-.6zm-17 19.4c.7 2.5 1.6 13.6 1.6 13.6 0 4.5-2.3 13.4-4.2 18.6-.5 1.4 1.3 4 2.6 4.7l8 3.6 1.4-14.5c.4-4.1.9-7.9 1.5-12.8.5-4.6 1.1-10.2 1-12.9-.5-8.7-5.2-19.9-5.8-20.5-.4.2-1.9.8-2.4 1-2.6 1-7.9 2.9-8.6 3.4-1.2.9-3.6 22.8-3.7 24.3-.2 2 .4 21.2.4 21.2s5 1.1 6.3.8c1.4-.3 0-18 .2-21.3.3-4 1.6-9.2 1.7-9.2z" class="At"/><path d="M44.4 186.4s-.6.8-.6 2.9c0 2.2-1.1 3.3-1.3 4.8s2.6 3.1 3.4 3.4c.7.3-.8-3.4.4-3.4s1.3 3 1.5 3.2c.2.3 1.1-.3 1.3-1.1.2-1-.3-1.6-.8-3.4-.6-1.8-.9-3.6-.9-3.6l-3-2.8z" class="An"/><path d="M45.4 194.9c.5 1.7.5 4.8.5 4.8l1.9.4c.2-5.6-1.5-6-1.5-6-.7-.3-.9.8-.9.8z" fill="#b67444"/><path d="M41.9 169.9l.3 19.9c3.9 1.4 6.7 1.6 6.7 1.6l.1-14.1-7.1-7.4z" class="At"/><path d="M66.7 141.5l-2.5 2.1-4.2-1.1s2 2.4 4.5 2.3 2.3-3 2.3-3l-.1-.3z" fill="#cac7d1"/><path d="M56.2 138.9l3.5 6 2-3.4c-1.2-1-3.6-4-3.6-4l-1.9 1.4z" fill="#eae6f1"/><path d="M66 138.7c0 1.5-1.9 4.9-1.9 4.9l2.1-1.6-.2-3.3z" fill="#a19fa7"/><path d="M66.3 142.1l2.7 2.1-1.6-4.5-1.4-1z" fill="#eae6f1"/><path d="M59.9 120.6c-1.4 3.1-.9 10.9.6 12.7 1.4 1.8 7.2 4.5 8.5 4.5s2.8-4.3 3.2-4.6 2-.6 1.9-1.1c-.2-.6-1.5-4.2-.6-4.5 1-.4-.5-4.1-.5-4.1-2.8-6.4-11.7-6-13.1-2.9z" class="An"/><path d="M66.6 125c-1.9.3-1.1 3.6-1.1 3.6s-2.5-.5-3.8.3c-.8.5-2.5 3.6-2.5 3.6s0-.1-1.4-6c-1.5-6.6 2.9-7.5 3.6-7.6s7.6-4.3 10.8-1.2.9 6.7.9 6.7c-1.8-1-4.5.3-6.5.6z" fill="#312f2e"/><path d="M62.3 129.9c-.3-.1-2.6-4-.8-4.9s2.1 1 2.2 1.5c1 3.9-1.1 3.6-1.4 3.4z" class="An"/><path d="M66.1 136.9v1.5c-4-1.6-5.3-4.8-5.4-4.9 1.1 1.4 5.4 3.4 5.4 3.4z" fill="#a77961"/><g fill="#179eba"><circle cx="50.3" cy="78.3" r="12.7"/><circle cx="50.3" cy="78.3" r="16.9" class="Ao"/></g><g fill="#0a91d1"><circle cx="368.2" cy="91.1" r="12.5"/><circle cx="368.2" cy="91.1" r="16.6" class="Ao"/></g><circle cx="154.3" cy="87.5" r="30.9" fill="#bddb91" class="Ao"/><defs><circle id="A" cx="154.3" cy="87.5" r="23.3"/><path id="B" d="M151.5 88.9c0 .4-.6.7-1.3.7s-1.3-.3-1.3-.7.6-.7 1.3-.7 1.3.3 1.3.7z"/><path id="C" d="M276.2 107.1c0 .3-.2.6-.6.6-.3 0-.6-.2-.6-.6s.2-.6.6-.6c.4.1.6.3.6.6z"/><path id="D" d="M33.3 116.2h0a.65.65 0 0 1 .6-.6H49a.65.65 0 0 1 .6.6h0a.65.65 0 0 1-.6.6H33.9a.65.65 0 0 1-.6-.6z"/></defs><use xlink:href="#A" fill="#bddb91"/><clipPath id="E"><use xlink:href="#A"/></clipPath><g clip-path="url(#E)"><path d="M156.2 71.9s-4.8-3.7-10.1 2.2c-5.2 5.8-4.5 10.7-2.6 16s-3.1 9.6 1.5 16.6c2.7 4.1 14.8 3 14.8 3l3.9-3.4s1.3 1.6 2.1-1.7c1.4-5.7-1.5-10.4-.7-13.9.9-3.5 1.9-11.9-1.3-15.8-3.2-4.1-7.6-3-7.6-3z" class="Al"/><g fill="#ef3d68"><path d="M140.7 104.2l-7.2 22.7h5.9l5.4-13.8zm27.5 0l7.2 22.7h-5.9l-5.4-13.8z"/></g><path d="M161.5 101.1l-7 1.8-7-1.8-6.7 3.1s3.3 15 3.4 22.7H165c.1-7.7 3.4-22.7 3.4-22.7-2.5-1.3-6.9-3.1-6.9-3.1z" fill="#c61e53"/><path d="M151.5 98.7s-4.4.1-4.8 2-1.3 6.1-1 7.5c.4 1.4 8.7 7 8.7 7V99l-2.9-.3z" fill="#ef3d68"/><path d="M157.5 98.7s4.4.1 4.8 2 1.3 6.1 1 7.5c-.4 1.4-8.7 7-8.7 7V99l2.9-.3z" fill="#e74765"/><path d="M157.1 92.6l-2.6-2.9-2.5 2.9s.8 5.9-3.7 8.8c0 0 1.8 9.3 6.3 13.8 4.5-4.5 6.3-13.8 6.3-13.8-4.6-3-3.8-8.8-3.8-8.8z" class="Ap"/><path d="M162.9 83.3c-.4-6.5-7.9-6.8-8.4-6.8h0c-.5 0-8 .3-8.4 6.8-.3 3.8 2.1 12.5 8.4 12.6h0c6.4 0 8.7-8.7 8.4-12.6z" class="Aq"/><path d="M158.6 78.9s-4.5 6.4-11 6c0 0-1.3 3.7 0 7.6l-2.6-8 1.7-6.4 9.8-2.4 4.6.9 3 3.3.6 9.1-3 .9c0 0 .3-9.1-3.1-11z" class="Al"/><path d="M154.8 106.3c-2.2 0-4.2-.8-5.8-2.1.9 3.1 2.7 8 5.6 10.9 2.8-2.8 4.5-7.3 5.4-10.5-1.5 1.1-3.3 1.7-5.2 1.7z" class="Ar"/><path d="M149 104.2c.2.5.3 1 .5 1.6 1.5 1 3.3 1.5 5.3 1.5 1.7 0 3.3-.4 4.7-1.2.2-.5.3-1 .5-1.5-1.5 1.1-3.3 1.7-5.2 1.7-2.3 0-4.3-.8-5.8-2.1z" class="Aj"/><path d="M148.6 84.7s.6-1.2 1.7-1.5 1.4 1 1.4 1-1.2-.9-3.1.5z" class="Al"/><g fill="#e54994" class="As"><use xlink:href="#B" opacity=".1"/><path d="M160.1 88.9c0 .4-.6.7-1.3.7s-1.3-.3-1.3-.7.6-.7 1.3-.7 1.3.3 1.3.7z" opacity=".1"/></g><path d="M159.9 95.5l-.2-.5a6.1 6.1 0 0 0 3.3-4.5l.3-1.9.5.1-.3 1.9c-.4 2.2-1.7 4-3.6 4.9z" class="Ar"/><g fill="#4fbe9c"><path d="M160.6 95.5l-1.2.7c-.1.1-.3.1-.4.1-.2 0-.3-.1-.4-.3h0c-.1-.1-.1-.2-.1-.2a.55.55 0 0 1 .3-.5l1.2-.7c.2-.1.4-.1.5 0s.2.1.2.2h0c.1.1.1.2.1.4 0 .1-.1.2-.2.3zm2.5-12l-1 7.1c1.9.1 3.5-1.3 3.7-3.1.4-1.9-.9-3.6-2.7-4z"/></g><path d="M162.5 90.8l-1-.1h-.1c-.1-.1-.1-.1-.1-.2l.9-7c0-.1.1-.1.1-.2h.1l1 .1c.1 0 .1 0 .1.1s.1.1.1.2l-.9 7c0 .1 0 .1-.1.1 0 0 0 0-.1 0z" class="Ar"/><path d="M169.2 112.5a.47.47 0 0 0-.5-.5h-28.5a.47.47 0 0 0-.5.5v.5h.1l3.5 12.2c.1.2.3.4.5.4h21.5c.2 0 .4-.2.5-.4l3.5-12.2h.1l-.2-.5z" fill="#6fc6a8"/><path d="M155.3 112.4h-15.1c-.3 0-.6.3-.5.6l3.5 12.5c.1.2.3.4.5.4h21.5c.2 0 .4-.2.5-.4l3.5-12.5c.1-.3-.2-.6-.5-.6h-13.4z" fill="#3fba8b"/><ellipse cx="154.8" cy="120.4" rx="2.9" ry="2.1" fill="#6fc6a8"/><path d="M165.3 126.9h-21.9c-.1 0-.2-.1-.2-.2v-.5c0-.1 0-.1.1-.2s.1-.1.2-.1h21.8c.1 0 .1 0 .2.1s.1.1.1.2v.5c0 .1 0 .1-.1.2h-.2z" fill="#00af75"/><path d="M129.3 126.9h51.8v2.8h-51.8z" fill="#e5a338"/><path d="M129.3 126.9h51.8v.6h-51.8z" fill="#e9c83c"/></g><circle cx="276" cy="87.5" r="30.9" fill="#00b8f1" class="Ao"/><defs><circle id="F" cx="276" cy="87.5" r="23.3"/></defs><use xlink:href="#F" fill="#00b8f1"/><clipPath id="G"><use xlink:href="#F"/></clipPath><g clip-path="url(#G)"><g class="Au"><path d="M258.3 113.7c1.5 1.6 3.2 2.9 5 4l4.9-7.8-4.6-8.1-5.3 11.9zm26.6-3.9s7.5 8.4 11.4 6.7 1.4-6.7 1.4-6.7l-4-.9-6.1-7.2-2.9 1.5.2 6.6z"/></g><path d="M282.1 98.2h-.1l-6.4-1.5-6.4 1.5h-.1c-.7.2-4.5 1.7-5.5 3.5 0 0 2.1 6.9 3.7 17.9 2.7 1 5.6 1.6 8.6 1.6 2.8 0 5.6-.5 8.1-1.4 1.6-11.1 3.7-18.1 3.7-18.1-1.1-1.8-4.9-3.2-5.6-3.5z" fill="#2c588e"/><path d="M281.8 98.1c-1.6-2.4-4.2-2.3-4.2-2.3h-4.4s-2.5-.1-4.2 2.3c0 0-.4 4.5 2.6 8.1 0 0 1.5-2.8 3.8-3.6 2.3.8 3.8 3.6 3.8 3.6 3-3.6 2.6-8.1 2.6-8.1z" class="Au"/><path d="M278.9 92.4l-3.4-1.1-3.4 1.1s1.4 3.2-1.1 5.5c0 0 1.3 3.6 4.5 4.3 3.2-.7 4.5-4.3 4.5-4.3-2.5-2.3-1.1-5.5-1.1-5.5z" class="Ap"/><path d="M272.8 70.8s-2.2-1.9-5.1-.2c-3.6 2.1-6 9.9-4.3 14.4 2.1 5.3 7.2 7.3 7.2 7.3l9.8-1s8.7-3 5.1-15c-2.1-7.2-10.7-8.5-12.7-5.5z" class="Al"/><g class="Aq"><path d="M283.1 82.4c-.4-6.3-7.6-6.6-8.2-6.6h0c-.5 0-7.8.3-8.2 6.6-.2 3.7 2 12.2 8.2 12.3h0c6.3-.1 8.5-8.6 8.2-12.3z"/><path d="M267.8 86.6s-1.2-2.3-2.2-1.4c-.9.8.1 3 1.1 3.9s1.7-.8 1.7-.8l-.6-1.7z"/></g><path d="M266.1 86.2s1.2.5 1.2 1.5c0 .6-.8.2-.7-.1s.3-.3.3-.3-.4-.8-.8-1.1z" class="Ap"/><path d="M282.2 86.6s1.2-2.3 2.2-1.4c.9.8-.1 3-1.1 3.9s-1.7-.8-1.7-.8l.6-1.7z" class="Aq"/><path d="M283.8 86.2s-1.2.5-1.2 1.5c0 .6.8.2.7-.1s-.3-.3-.3-.3.5-.8.8-1.1z" class="Ap"/><path d="M287.8 95.2l3.2-6.4c.3-.6.4-1.3.3-1.9-.1-.7-.5-1.4-1-1.9l-2.7-2.5-2.3 4.4 2.5 1.6-2.6 4.5-2.5-.9-2 4.2 3.8.7c.8.1 1.6 0 2.2-.4a7.55 7.55 0 0 0 1.1-1.4z" fill="#3fba8b"/><path d="M267.1 85.6s1.6-6.4 6.2-7.9c0 0 2.7 2.5 5.9 3.5s3.8 4.3 3.8 4.3l1.5-4.7-3-5.6-9.1-2.3-7.6 5.4v4.9l2.3 2.4z" class="Al"/><g class="Aq"><path d="M293.4 95.3s-.4-5.7-2.3-6.8c-.7-.4-3.1-.8-3.8-.3s-.5 1.1-.5 1.1-.2-.2-1 1.2-.6 2.4-.6 2.4 2.8.1 3.1.8c.3.8.4 2.2 1.5 3.3 0 .1 2.9 1.2 3.6-1.7z"/><path d="M291.6 93.7l1.7 1.6s4.7 11.9 5.1 16.3c.3 4.4-4.7 5.6-5.5 2.5-.9-3-2.6-17.7-2.6-17.7l1.3-2.7z"/></g><g class="Au"><use xlink:href="#C"/><path d="M276.2 113.3c0 .3-.2.6-.6.6-.3 0-.6-.2-.6-.6s.2-.6.6-.6c.4.1.6.3.6.6z"/></g><g class="Ar"><path d="M284.6 86.932l2.553-4.87 1.063.557-2.553 4.87zm-4.645 9.264l2.553-4.87 1.063.557-2.553 4.87z"/></g></g><circle cx="162.9" cy="171.4" r="22.4" fill="#a7adfd"/><path d="M55.9 81.4c-.9 0-1.7-.1-2.5-.4a1.39 1.39 0 0 0-1.1.2l-1.6 1.2c-1.8-1-3-2.1-4-4l1.2-1.6c.3-.3.4-.7.3-1.1-.3-.8-.4-1.7-.4-2.5a1.11 1.11 0 0 0-1.1-1.1H44a1.11 1.11 0 0 0-1.1 1.1c0 7.2 5.8 13 13 13a1.11 1.11 0 0 0 1.1-1.1v-2.6a1.11 1.11 0 0 0-1.1-1.1zM362 95v2.3c0 .5.4 1 1 1 6.2 0 11.3-5.1 11.3-11.3 0-.5-.4-1-1-1H371c-.5 0-1 .4-1 1 0 .8-.1 1.5-.4 2.2-.1.4 0 .7.2 1l1 1.4c-.8 1.6-1.9 2.6-3.5 3.5l-1.4-1a.96.96 0 0 0-.9-.2c-.7.2-1.4.4-2.2.4-.3-.3-.8.1-.8.7z" class="Aj"/><circle cx="331.3" cy="80.4" r="12.7" fill="#f47c61"/><linearGradient id="H" gradientUnits="userSpaceOnUse" x1="319.644" y1="80.427" x2="342.906" y2="80.427"><stop offset="0" stop-color="#c0dbf2"/><stop offset=".691" stop-color="#ebf3d9"/><stop offset="1" stop-color="#fff"/></linearGradient><circle cx="331.3" cy="80.4" r="11.6" fill="url(#H)"/><path d="M330.7 69.3h1.1v3h-1.1zm0 19.3h1.1v3h-1.1zm-10.6-8.7h3V81h-3zm19.3 0h3V81h-3zm-10.5 2.4h-3v-.7l1.6-1.6c.1-.1.2-.2.2-.3s.1-.2.1-.3 0-.2-.1-.3-.2-.1-.3-.1-.3 0-.4.1-.3.2-.4.3l-.6-.7c.2-.2.4-.3.5-.4s.3-.1.5-.2c.2 0 .4-.1.6-.1.3 0 .5 0 .7.1s.4.2.5.4.2.4.2.6 0 .3-.1.4-.1.3-.2.4-.2.3-.3.4-.4.4-.9.8h1.6l-.2 1.2zm3.5-.8h-.4v.8h-1.1v-.8h-1.6v-.8l1.7-2.5h1v2.5h.4v.8zm-1.5-.8v-1.1c-.1.1-.1.3-.2.4l-.4.7c-.1 0 .6 0 .6 0zm5.6 1.6h-1.1v-1.7h-1.3v1.7H333v-4.1h1.1v1.5h1.3v-1.5h1.1v4.1z" fill="#f47c61"/><path d="M30.6 116.1v5.5c0 1.9 1.6 3.5 3.5 3.5h13.1l5 2.8-.9-4c.5-.6.9-1.4.9-2.3v-5.5c0-1.9-1.6-3.5-3.5-3.5H34.2c-2 0-3.5 1.6-3.6 3.5z" fill="#71c046"/><g class="Aj"><use xlink:href="#D"/><use xlink:href="#D" y="2.5"/><use xlink:href="#D" y="4.9"/><path d="M174 180.5h-23.5c-.2 0-.4-.2-.4-.4v-14.2c0-.2.2-.4.4-.4H174c.2 0 .4.2.4.4v14.2c0 .2-.2.4-.4.4z"/></g><path d="M173.9 165.7l-11.4 9.6-11.6-9.8c-.1.1-.3.2-.4.3l7.4 6.2-7.8 6.6v.6l8.1-6.9 4.3 3.6 4.3-3.6 7.7 6.5v-.6l-7.3-6.2 7.1-6c-.1 0-.2-.1-.4-.3z" fill="#7b9ed2"/><text transform="translate(172.541 167.943)" font-family="ArialMT" font-size="5.137" class="Aj">!</text><path d="M348.3 212.5h4.8v43h-4.8z" fill="#515151"/><path d="M370.6 258.9v-.2c0-2.1-1.3-3.8-2.9-3.8h-34c-1.6 0-2.9 1.7-2.9 3.8v.2h39.8zm-24.3-48.6h8.9v10h-8.9z" fill="#2d2d2d"/><g fill="#ff740d"><path d="M317.8 209.9h30.1v2.3h-30.1z"/><path d="M357.6 149.4H385s-.1 5.2-.6 15.3-4.9 34.9-7.6 38.5-8.9 10.5-29.3 7.5c-5.5-9.2 10.1-61.3 10.1-61.3z"/></g><path d="M385 149.4c0 .3-3.6 29.1-5.6 40.9-2.1 12.6-5.6 17.4-13.1 18.4-4.5.6-13.9.7-20.8.6v2.7h3.1c6.5 0 14-.1 18.1-.7 10.2-1.3 13.5-8.9 15.5-20.7 2-11.9 5.6-39.7 5.6-40l-2.8-1.2z" fill="#ff9810"/><path d="M302.8 259.3h-19.4c-2.4 0-4.7-2.7-5.2-6.2l-8.5-56c-.2-1.6.2-3.2 1.2-4.4 1.2-1.4 3-2.1 5-2.1h34.4c2 0 3.8.8 5 2.1 1 1.2 1.5 2.8 1.2 4.4l-8.5 56c-.4 3.5-2.7 6.2-5.2 6.2zM276 192.9c-1.4 0-2.5.5-3.3 1.3-.6.7-.9 1.6-.7 2.5l8.5 56c.4 2.4 1.9 4.2 3 4.2h19.4c1.1 0 2.6-1.8 3-4.2l8.5-56c.1-1-.1-1.8-.7-2.5-.7-.9-1.9-1.3-3.3-1.3H276z" fill="#636363"/><path d="M296.8 220.6h23.1v38.7h-23.1z" class="Ak"/><path d="M282 220.6h14.8v38.7H282z" fill="#f7f7f7"/><path d="M284 224.4h11.6v-.7h-12.4v32.5h.8z" class="Ak"/><path d="M358.6 122s4.2 2.9 5.6 11.6c1.4 8.6 6.8 25.2.9 22.6-9.9-4.5-14.9.7-19.8.7-9.8 0-7.7.1-7.3-3.8s1.4-24.6 3.4-28.6c2.7-5.7 11.4-8.4 17.2-2.5z" class="Av"/><path d="M342.4 154.1s-3.5 2.3-4.9 9-5.5 15.1-5.5 15.1h-22v7.4h28.9l8-14.2-4.5-17.3z" fill="#1e388c"/><path d="M358.2 149.4s5.4 1.7 10.1 4.7c4.8 3 4.6 4.1 4.6 4.1s-1.7 19.3-.6 27.4c1.1 8 3 16.7-2.1 21.4 0-5.5-8.8-21.4-31.6-15.9 2.5-5.9 5.5-5.5 4.5-8.5-1.1-3-.7-4.6-2.5-7.6-2.7-4.5-.9-9.3-.9-9.3l2.8-11.6 5.6-3.8 10.1-.9z" fill="#253b99"/><path d="M348.3 149.2s-1.8 2.6-1.3 5.4 4.1 3.4 7.7 3 9.3-6.9 2.5-9.1c-4.2.8-8.9.7-8.9.7z" class="Aj"/><path d="M356.7 143.9s0 4.7 2.5 7.5c-3.1 2.6-6.7 3.5-8.8 3.5-.9 0-2.4-2.9-2.4-2.9s.5-4.2 0-8.1c2.2-.9 8.7 0 8.7 0z" fill="#edbf7e"/><path d="M358.8 133.6s1.1 8.5-2.5 11.5c-3 2.4-5.8 3.8-8.1 3.3-2.4-.4-5.1-3.4-6.2-6.3s-1.7-6.6-.5-10.8c.6-2.1 5.6-11.3 14.5-9 6.9 2 2.8 11.3 2.8 11.3z" class="Aw"/><path d="M343 128.2s0 3.3-2.7 6.4c-.2-.4 0-.5.9-4.6s7.8-10.4 14.9-8.9 6.5 12.5 4.5 16.8c-1.5-1.7-17.7-8.2-17.6-9.7z" class="Av"/><path d="M340.3 133.9v-4.5c0-5.7 4.6-10.3 10.2-10.3 5.7 0 10.2 4.6 10.2 10.3v4.5h.9v-4.5c0-6.2-5-11.2-11.2-11.2s-11.2 5-11.2 11.2v4.5h1.1zm5 11.2c-1.9 0-3.4-.6-4.4-1.7-1.2-1.3-1.2-2.9-1.2-2.9h.4s.1 1.5 1.1 2.6c1.1 1.2 2.8 1.7 5 1.5v.5h-.9z" fill="#cecece"/><path d="M348 144.9c0 .4-.2.6-.5.6h-1.2c-.3 0-.5-.3-.5-.6h0c0-.4.2-.6.5-.6h1.2c.3 0 .5.2.5.6h0z" class="Av"/><path d="M340.3 132c-.1-.1-.2-.1-.4-.1-1.3-.2-2.2 2.1-2.1 5.1s1.2 5 2.5 4.6c.1 0 .2-.1.3-.2-.7-3.7-.8-5.6-.3-9.4z" fill="#ff3369"/><path d="M341.5 140.8c.1.3-.1.6-.4.7h0c-.3.1-.5-.1-.6-.5-.7-3.4-.8-5.2-.4-8.7 0-.4.3-.6.6-.5h0c.3.1.5.4.4.7-.4 3.3-.3 5.1.4 8.3z" fill="#6d6d6d"/><path d="M360.5 132c.2 0 .3 0 .4.1 1.4.5 1.9 2.8 1.7 5.3-.3 2.5-1.2 4.7-2.7 4.8-.2 0-.3 0-.5-.1-1.3-4.1-.5-7.1 1.1-10.1z" fill="#ff3369"/><path d="M358.1 141.8c.1.4.6.8 1 .7h0c.3 0 .6-.2.6-.3-1.5-3.4-.8-8.2 1-10.2 0-.2-.2-.3-.5-.4h0c-.3-.1-.8-.1-1.1.3-1.4 2.3-2.1 6.3-1 9.9z" fill="#6d6d6d"/><g class="Aj"><path d="M351.3 154.8s-2.3 3.1-2.7 10.4 0 12.1 0 12.1l-5.5-5.2s4.1-14.1 5.6-16.3c1.4-2.2 1.6-2 2.6-1z"/><path d="M350.4 154.8s1.3-1.6 2.2-.3c.8 1.3 1.8 18.2 1.8 18.2s-5.1 6.8-5.2 8.5c-.2-5.8-.5-21.3 1.2-26.4z"/></g><path d="M354.4 179.3s-2.7.4-4.7-.3c-2.1-.7-4.3-1.4-5.5-1.4s-6.3 3.7-6 5.6c.2.9.6.5 3.2.6s12.1 1.3 12.1 1.3l.9-5.8z" class="Aw"/><path d="M362.3 179.1h-10.7v6.9h10.7v-6.9z" class="Aj"/><path d="M376.4 164.4s-2.5-8.2-6.5-8.5-4.7 5.8-2.1 10.4c2.3 4.1 5 12.3 5 12.3H353v7.4h25.2c5 0 5.5-3.5 3.9-7.6-1.5-4.1-5.7-14-5.7-14z" fill="#3150af"/><path d="M264.4 186H378v2.7H264.4z" fill="#f49c1e"/><path d="M269 188.5h113.6v2.7H269z" fill="#3d3d3d"/><path d="M371.4 188.5h37.2v2.7h-37.2z" fill="#545454"/><path d="M378 186h33.8v2.7H378z" fill="#ffac3e"/><path d="M390 174.7c-.5 0-1-.2-1.6-.5l.2-.4c.7.4 1.4.5 1.9.3 1-.4 1.5-1.5 1.6-1.9.3-.9.4-1.8.2-2.1 0-.1-.1-.1-.1-.1h-2v-.5h2a.55.55 0 0 1 .5.3c.4.6.1 1.8-.1 2.5-.1.4-.7 1.8-1.9 2.2-.2.2-.5.2-.7.2z" class="Ak"/><path d="M379.5 169.1v1c0 3 2.5 5.5 5.5 5.5s5.5-2.5 5.5-5.5v-1h-11z" class="Am"/><path d="M392.5 175.3a.65.65 0 0 1-.6.6h-14.1a.65.65 0 0 1-.6-.6h0a.65.65 0 0 1 .6-.6h14.1c.3.1.6.3.6.6h0z" class="Ak"/><path d="M365.8 182.6H381v3.4h-15.2z" fill="#d14ea2"/><path d="M365.8 183H381v2.5h-15.2z" class="Am"/><path d="M381 182.6h22.2v3.4H381z" fill="#ed69c5"/><path d="M369.2 179.3h15.2v3.4h-15.2z" fill="#108ec6"/><path d="M369.2 179.7h15.2v2.5h-15.2z" class="Am"/><path d="M384.4 179.3h22.2v3.4h-22.2z" fill="#1cb0d3"/><path d="M366.2 175.9h15.2v3.4h-15.2z" fill="#94b216"/><path d="M366.2 176.3h15.2v2.5h-15.2z" class="Am"/><path d="M381.4 175.9h22.2v3.4h-22.2z" fill="#a6ce29"/><path d="M284.6 251.9h9.5v1.6h-9.5zm0-3.8h9.5v1.6h-9.5zm0-3.7h9.5v1.6h-9.5z" class="Ak"/><path d="M301.5 172.8c0 .4-.3.8-.8.8-.4 0-.8-.3-.8-.8 0-.4.3-.8.8-.8s.8.3.8.8zm-2.5 0c0 .4-.3.8-.8.8-.4 0-.8-.3-.8-.8 0-.4.3-.8.8-.8.4 0 .8.3.8.8z" fill="#c6c6c6"/><path d="M298.6 183.6h44.9v2.3h-44.9z" class="Ak"/><path d="M343.4 183.6h8.2v2.3h-8.2z" class="Am"/><path d="M338.5 176.2c.2.9-1.2 3.3-2.2 3.3l-44.8-1.6c-.9 0-1.8-.7-2-1.7l-6.4-27.4c-.2-.9 1.5-3 2.5-3h45.6c.9 0 1.8.7 2 1.7l5.3 28.7z" class="Aj"/><path d="M337.5 177.9c.2.9-.4 1.7-1.4 1.7h-45.6c-.9 0-1.8-.7-2-1.7l-5.3-28.7c-.2-.9.4-1.7 1.4-1.7h45.6c.9 0 1.8.7 2 1.7l5.3 28.7z" class="Ak"/><path d="M303.7 162.7s-1.6 11.1-1.9 15.2-1 8 3.9 8h10.7l-2.6-1.2-1.1-2.6 1.7-19.5-10.7.1z" fill="#f7f7f7"/><path d="M327.4 186h-10.7c-1.6 0-2.7-.4-3.5-1.2-1.3-1.5-1.1-3.9-.9-6.6l.1-.8c.3-4 1.8-14.7 1.9-14.8l.6 2.2c0 .1-1.2 8.6-1.6 12.7l-.1.8c-.2 2.4-.4 4.7.7 5.9.6.6 1.5.9 2.8.9h10.7v.9z" class="Aj"/><g fill="#c6c6c6"><path d="M291.9 240.2c-.3 0-.6-.1-.9-.3-4.2-3.4-3.9-33.2-3.7-47.5v-1.8c.2-14.2 13.2-18 13.4-18l.1.4c-.1 0-12.9 3.7-13 17.6v1.8c-.1 13.1-.5 43.9 3.5 47.1.3.2.6.3.9.2l.1.4c-.1.1-.3.1-.4.1z"/><path d="M288.1 240.2c-.3 0-.6-.1-.9-.3-4.2-3.4-3.9-33.2-3.7-47.5v-1.8c.2-14.2 14.5-18 14.7-18l.1.4c-.1 0-14.2 3.7-14.3 17.6v1.8c-.1 13.1-.5 43.9 3.5 47.1.3.2.6.3.9.2l.1.4c-.2.1-.3.1-.4.1z"/></g><path d="M324.6 200.6s1.6 9.5 5.8 9.2c4.2-.2 5.4-5.9 5.3-8.1-.2-2.1-11.1-1.1-11.1-1.1z" fill="#132c6d"/><path d="M345.1 195.4c-16.8-3.6-23.5-2.8-28.5 1.3s-18.7 27.4-18.7 27.4-2.4 3.4-7.4 2c-4.9-1.4-6.8-2.9-7.6-2.8-.8 0 1 5.6 4.9 7.8 3.9 2.3 9.9 3.2 10.8 2.4.9-1.3 3.5-6.3 4.2-7.3 2.6-3.9 6.5-6.2 10.3-10.9 3.7-4.5 7.4-11.3 9.8-13.3 1.9-1.5 13.3 1.1 26.5 4.4 13.2 3.2 16.9-7 16.9-7s-4.4-.4-21.2-4z" class="Aw"/><path d="M335.2 203.5s-14.2-7-15.3 2.2c-.6 5.5 11 33.5 12.5 40.7.1 1.6-.2 3.9-2.8 5.6-4.3 2.9-6.6 3.3-7.1 4s4.9 2.8 9.1 1.3c4.3-1.5 8.8-5.6 8.8-6.7-.6-1.9-1-2.7-1.1-3.5 0 0-1.3-3-1.5-4-.9-3.3-1.6-13.8-3.7-22-1.6-6.2-6-11-6-12.8 0-2.3 8.3.2 10-.4 1.9-.6-2.9-4.4-2.9-4.4z" fill="#efc484"/><path d="M337.7 191s-12.6.8-14.9 2.7c8.5 0 10.1 3.6 10.8 5.9s-.3 10.1-3.2 10.3l22.6.4c7.4 0 20.4.8 19.3-10.1-19.1-16.3-34.6-9.2-34.6-9.2z" fill="#1d3789"/><path d="M339.8 251.5s-3.3 2.5-7.9 4.2c0-1.1-9.9 1.7-12.1 2.6-.2.1-.5 1.5.4 2.5 1.9 2.1 5.5 1.9 9.5.2 1.6-.7 3-2.1 4.9-3.1 2.7-1.5 5.7-2.5 5.8-2.8.7-2.4-.6-3.6-.6-3.6z" fill="#212121"/><path d="M339.8 248.4s-3.3 4.7-7.9 6.5c0-1.1-1.3-3.2-3.5-2.4-3.9 2-10.4 4.9-8.2 6.8s4.9 2.2 8.9.5c1.3-.6 3.1-2.1 4.7-3 3.4-1.8 6.6-3.1 6.7-3.9.4-2.6-.7-4.5-.7-4.5z" fill="#353535"/><path d="M298.7 233.9s-4-1.1-8.2-3.6c.9-.7-7.5-6.7-9.5-7.9-.2-.1-1.5.5-1.7 1.9-.4 2.8 2 5.5 5.8 7.6s10.7 4.9 11.2 4.7c2.2-1 2.4-2.7 2.4-2.7z" fill="#212121"/><path d="M300.1 231.1s-4.7 1.1-9-1.4c.9-.7 1.8-3-.3-4.2-4-1.8-10.3-5.1-10.4-2.3s1.3 5.2 5.1 7.3 11.5 5.3 12.4 4.7c2.3-1.3 2.2-4.1 2.2-4.1z" fill="#353535"/><path d="M392.3 259.3h-19.4c-2.4 0-4.7-2.7-5.2-6.2l-8.5-56c-.2-1.6.2-3.2 1.2-4.4 1.2-1.4 3-2.1 5-2.1h34.4c2 0 3.8.8 5 2.1 1 1.2 1.5 2.8 1.2 4.4l-8.5 56c-.5 3.5-2.8 6.2-5.2 6.2zm-26.9-66.4c-1.4 0-2.5.5-3.3 1.3-.6.7-.9 1.6-.7 2.5l8.5 56c.4 2.4 1.9 4.2 3 4.2h19.4c1.1 0 2.6-1.8 3-4.2l8.5-56c.1-1-.1-1.8-.7-2.5-.7-.9-1.9-1.3-3.3-1.3h-34.4z" fill="#636363"/></svg>