<svg xmlns="http://www.w3.org/2000/svg" xmlns:xlink="http://www.w3.org/1999/xlink" width="445" height="297" xmlns:v="https://vecta.io/nano"><style><![CDATA[.AC{stroke-miterlimit:10}.AD{fill:#fff}.AE{stroke:#fff}.AF{fill:#424a60}.AG{fill:#7383bf}.AH{fill:#637079}.AI{fill:#f2c3ad}.AJ{fill:#fdd2b9}.AK{fill:#88524c}.AL{fill:#556080}.AM{fill:#a6b3bd}.AN{stroke-width:1.906}.AO{clip-path:url(#W)}.AP{clip-path:url(#c)}]]></style><defs><ellipse id="A" cx="122.4" cy="60.1" rx="56.4" ry="57.4"/><path id="B" d="M127.8 154.4c0-2.6-2.1-4.8-4.7-4.8s-4.7 2.1-4.7 4.8c0 2.6 2.1 4.8 4.7 4.8 2.6-.1 4.7-2.2 4.7-4.8z"/><path id="C" d="M128.4 154.4c0-3-2.4-5.4-5.3-5.4-3 0-5.3 2.4-5.3 5.4s2.4 5.4 5.3 5.4 5.3-2.4 5.3-5.4z"/><path id="D" d="M131.2 36.8h-16.3a.68.68 0 0 1-.7-.7h0a.68.68 0 0 1 .7-.7h16.3a.68.68 0 0 1 .7.7h0c.1.4-.3.7-.7.7z"/><path id="E" d="M100.6 35.2h0c-.5 0-.9.4-.9.9h0c0 .5.4.9.9.9h0c.5 0 .9-.4.9-.9h0c0-.5-.4-.9-.9-.9z"/><path id="F" d="M98.5 136a5.68 5.68 0 0 0 2.7.7c1.3 0 2.1-.6 2.1-1.6 0-.9-.6-1.4-2-1.9-1.9-.7-3-1.7-3-3.3 0-1.9 1.5-3.3 4-3.3 1.2 0 2.1.3 2.7.6l-.5 1.7c-.4-.2-1.2-.5-2.2-.5-1.3 0-1.9.7-1.9 1.4 0 .9.7 1.3 2.2 1.9 2 .7 2.9 1.8 2.9 3.4 0 1.8-1.4 3.4-4.3 3.4-1.2 0-2.4-.3-3-.7l.3-1.8z"/><path id="G" d="M109.4 127.7v2.4h2v1.6h-2v3.7c0 1 .3 1.5 1.1 1.5.4 0 .6-.1.8-.1v1.6c-.3.1-.8.2-1.5.2-.8 0-1.4-.3-1.8-.7-.4-.5-.6-1.2-.6-2.3v-3.9h-1.2V130h1.2v-1.9l2-.4z"/><path id="H" d="M114.2 134.8c.1 1.5 1.2 2.1 2.5 2.1 1 0 1.6-.1 2.3-.4l.3 1.4c-.7.3-1.7.5-2.8.5-2.6 0-4.2-1.6-4.2-4.2 0-2.3 1.4-4.5 4-4.5s3.5 2.2 3.5 4c0 .4 0 .7-.1.9h-5.5zm3.6-1.5c0-.8-.3-2-1.7-2-1.3 0-1.8 1.2-1.9 2h3.6z"/><path id="I" d="M121.4 132.8l-.1-2.8h1.8l.1 1.3c.6-.9 1.6-1.5 2.8-1.5 1.9 0 3.4 1.6 3.4 4.2 0 3-1.9 4.4-3.7 4.4-1 0-1.9-.4-2.3-1.1h0v4.3h-2.1v-8.8zm2.1 2.1c0 .2 0 .4.1.6.2.9.9 1.5 1.8 1.5 1.3 0 2.1-1.1 2.1-2.7 0-1.5-.7-2.7-2-2.7-.9 0-1.6.6-1.8 1.5-.1.2-.1.4-.1.5v1.3z"/><path id="J" d="M141.9 132.7c0 3.6-1.4 5.8-4 5.8-2.5 0-3.8-2.3-3.9-5.7 0-3.4 1.4-5.7 4-5.7 2.7 0 3.9 2.4 3.9 5.6zm-5.7.1c0 2.7.7 4.1 1.9 4.1s1.8-1.5 1.8-4.1-.6-4.1-1.8-4.1-2 1.4-1.9 4.1z"/><path id="K" d="M313.7 134.8c.1 1.5 1.2 2.1 2.5 2.1 1 0 1.6-.1 2.3-.4l.3 1.4c-.7.3-1.7.5-2.8.5-2.6 0-4.2-1.6-4.2-4.2 0-2.3 1.4-4.5 4-4.5s3.5 2.2 3.5 4c0 .4 0 .7-.1.9h-5.5zm3.5-1.5c0-.8-.3-2-1.7-2-1.3 0-1.8 1.2-1.9 2h3.6z"/><path id="L" d="M341.3 132.7c0 3.6-1.4 5.8-4 5.8-2.5 0-3.8-2.3-3.9-5.7 0-3.4 1.4-5.7 4-5.7 2.7 0 3.9 2.4 3.9 5.6zm-5.7.1c0 2.7.7 4.1 1.9 4.1s1.8-1.5 1.8-4.1-.6-4.1-1.8-4.1-1.9 1.4-1.9 4.1z"/><path id="M" d="M109.4 280.7v2.4h2v1.6h-2v3.7c0 1 .3 1.5 1.1 1.5.4 0 .6-.1.8-.1v1.6c-.3.1-.8.2-1.5.2-.8 0-1.4-.3-1.8-.7-.4-.5-.6-1.2-.6-2.3v-3.9h-1.2V283h1.2v-1.9l2-.4z"/><path id="N" d="M296.5 70.4a.65.65 0 0 1-.6.6.65.65 0 0 1-.6-.6.65.65 0 0 1 .6-.6.65.65 0 0 1 .6.6z"/><path id="O" d="M362.4 206.2h-31.1c-1.2 0-2.2-1.1-2.2-2.5v-8.1c0-1.4 1-2.5 2.2-2.5h31.1c1.2 0 2.2 1.1 2.2 2.5v8.1c0 1.4-1 2.5-2.2 2.5z"/><path id="P" d="M129.7 227.2l-1.2-2.2c-.1.3-.3.6-.5 1.1l-.6 1.1h-1.2l1.7-2.9-1.6-2.8h1.2l1.1 2.2c.2-.4.3-.6.4-1l.6-1.2h1.2l-1.6 2.8 1.7 2.9h-1.2z"/></defs><use xlink:href="#A" fill="#81d5a0"/><clipPath id="Q"><use xlink:href="#A"/></clipPath><g clip-path="url(#Q)"><path d="M148.6 163.9h-51a8.28 8.28 0 0 1-8.3-8.3V38.8a8.28 8.28 0 0 1 8.3-8.3h51a8.28 8.28 0 0 1 8.3 8.3v116.8a8.28 8.28 0 0 1-8.3 8.3z" class="AD"/><use xlink:href="#B" fill="#d7d7d7"/><use xlink:href="#C" fill="none" stroke="#e4e4e4" class="AC AN"/><use xlink:href="#D" opacity=".36" fill="#747474"/><g fill="#191919"><use xlink:href="#E"/><path d="M103.6 35.2h0c-.5 0-.9.4-.9.9h0c0 .5.4.9.9.9h0c.5 0 .9-.4.9-.9h0c0-.5-.4-.9-.9-.9z"/></g><path d="M94.7 42.5h55.9v103.2H94.7z" fill="#e1f9ff"/><defs><ellipse id="R" cx="122.6" cy="71.8" rx="18.5" ry="18.8"/></defs><use xlink:href="#R" fill="#a6d6e2"/><clipPath id="S"><use xlink:href="#R"/></clipPath><g clip-path="url(#S)"><g fill="#e6e9ee"><path d="M119.9 90.1c.2 0 .4.1.6.1-.1 0-.4 0-.6-.1h0zm.7.1c.2 0 .4 0 .6.1h0c-.2 0-.4-.1-.6-.1z"/><path d="M122.6 75.4h0zm1.4 14.9c.4 0 .9-.1 1.3-.1h0l-2.7.2c-.5 0-.9 0-1.4-.1-1.7-4.3-2.6-8.1-3-11.3 1-3.2 4.4-3.5 4.4-3.5s3.4.3 4.4 3.5c-.5 3.1-1.4 7-3 11.3z"/></g><g fill="#f9b54c"><path d="M126.2 74.2s.5 2.6-3.6 4.6h-.1c-4.1-2-3.6-4.6-3.6-4.6v-.1c1 1.2 2.3 2 3.6 2s2.6-.8 3.6-2.1c.1.1.1.2.1.2z"/><path d="M119.8 74.9l-.7.3c-.2-.6-.1-1-.1-1v-.1c.2.3.5.6.8.8zm6.4-.7s.1.4-.1 1l-.7-.3c.3-.2.5-.5.8-.8v.1z"/></g><g fill="#f1543f"><path d="M122.6 78.8h0zm1.4.4l-.5 1.4h-1.9l-.5-1.4c.8-.3 1.4-.4 1.4-.4s.8.1 1.5.4z"/></g><g fill="#ff7058"><path d="M123.8 92.2h0z"/><path d="M124.8 89.5l-.9 2.7c-.4 0-.8.1-1.2.1-.9 0-1.2-.1-1.2-.1-.4-.9-.7-1.8-.9-2.7l1.2-8.8h1.9l1.1 8.8z"/></g><g fill="#324a5e"><path d="M136.2 85.2c-2.8 3.9-7.3 6.6-12.3 7 1.5-3.8 2.3-7.3 2.7-10.2 0 .1 1.1-3.9.5-6.3l7.2 3.5 1.9 6zm-14.8 7c-5.1-.4-9.5-3-12.3-7l1.9-5.9 7.2-3.5c-.6 2.4.4 6.2.5 6.3h0a45.08 45.08 0 0 0 2.7 10.1z"/></g><g class="AD"><path d="M126.2 74.2s.5 2.6-3.6 4.6c0 0 3 .2 3.9 3.1.1.2 1.7-6.1-.3-7.7z"/><path d="M119 74.2s-.5 2.6 3.6 4.6c0 0-3 .2-3.9 3.1-.1.2-1.7-6.1.3-7.7z"/></g><path d="M127.2 71.2l-.7 2.4c-1.1 1.5-2.4 2.5-3.9 2.5-1.4 0-2.7-.9-3.7-2.2-2.2-2.8-.7-7.9-.7-7.9 1.1 1.3 4.7 1.4 4.7 1.4-1.6-.3-1.8-1.5-1.8-1.5.3.8 3.7 1.3 3.7 1.3 3.6.5 2.4 4 2.4 4z" fill="#ffd05b"/><path d="M120.5 60.7s4.9-2 7.4 2.5c2.7 4.8-.7 10-1.4 10.5 0 0 .2-.8.7-2.4 0 0 1.2-3.6-2.4-4.1 0 0-3.5-.5-3.7-1.3 0 0 .3 1.3 1.8 1.5 0 0-3.6-.1-4.7-1.4 0 0-1.5 5.1.7 7.9 0 0-3.9-3.1-3.4-8 0 .1-.2-6.5 5-5.2z" fill="#324a5e"/></g><path d="M127.2 96.4c-2.6-2.6-6.7-2.6-9.2 0s-2.6 6.8 0 9.4 6.7 2.6 9.2 0c1.2-1.2 1.9-2.9 1.9-4.7s-.6-3.5-1.9-4.7zm-1.2 7.3h0l-.3.3c-.4.4-1.1.6-1.6.5-.6-.2-1.2-.4-1.7-.8-.5-.3-.9-.7-1.3-1.1s-.7-.8-1-1.2c-.3-.5-.6-1-.7-1.5-.2-.6 0-1.3.4-1.8l.4-.4c.1-.1.3-.1.4 0l1.2 1.2c.1.1.1.3 0 .4l-.7.7c-.2.2-.2.5-.1.8.3.4.5.7.9 1 .3.4.7.7 1.1 1 .2.2.6.1.8-.1l.7-.7c.1-.1.3-.1.4 0l1.2 1.3c0 .1 0 .3-.1.4z" fill="#33d167"/></g><defs><ellipse id="T" cx="122.4" cy="212.1" rx="56.4" ry="57.4"/></defs><use xlink:href="#T" fill="#f28c56"/><clipPath id="U"><use xlink:href="#T"/></clipPath><g clip-path="url(#U)"><path d="M148.6 315.9h-51a8.28 8.28 0 0 1-8.3-8.3V190.8a8.28 8.28 0 0 1 8.3-8.3h51a8.28 8.28 0 0 1 8.3 8.3v116.8a8.28 8.28 0 0 1-8.3 8.3z" class="AD"/><path d="M127.8 306.4c0-2.6-2.1-4.8-4.7-4.8s-4.7 2.1-4.7 4.8c0 2.6 2.1 4.8 4.7 4.8 2.6-.1 4.7-2.2 4.7-4.8z" fill="#d7d7d7"/><path d="M128.4 306.4c0-3-2.4-5.4-5.3-5.4-3 0-5.3 2.4-5.3 5.4s2.4 5.4 5.3 5.4 5.3-2.4 5.3-5.4z" fill="none" stroke="#e4e4e4" class="AC AN"/><path d="M131.2 188.8h-16.3a.68.68 0 0 1-.7-.7h0a.68.68 0 0 1 .7-.7h16.3a.68.68 0 0 1 .7.7h0c.1.4-.3.7-.7.7z" opacity=".36" fill="#747474"/><g fill="#191919"><path d="M100.6 187.2h0c-.5 0-.9.4-.9.9h0c0 .5.4.9.9.9h0c.5 0 .9-.4.9-.9h0c0-.5-.4-.9-.9-.9zm3 0h0c-.5 0-.9.4-.9.9h0c0 .5.4.9.9.9h0c.5 0 .9-.4.9-.9h0c0-.5-.4-.9-.9-.9z"/></g><path d="M94.7 194.5h55.9v103.2H94.7z" fill="#e1f9ff"/><g fill="#33d167"><path d="M129.4 241.1c-3.8-3.8-9.9-3.8-13.7 0s-3.8 10.1 0 13.9 9.9 3.8 13.7 0c1.8-1.8 2.8-4.3 2.8-7 .1-2.5-1-5-2.8-6.9zm-1.8 10.8h0l-.5.5c-.6.7-1.6.9-2.4.7-.9-.2-1.7-.6-2.5-1.1-.7-.5-1.4-1-2-1.6l-1.5-1.8c-.5-.7-.8-1.5-1.1-2.3-.3-.9-.1-2 .6-2.7l.6-.6c.2-.2.4-.2.6 0l1.8 1.8a.37.37 0 0 1 0 .6l-1.1 1.1c-.3.3-.3.8-.1 1.1.4.5.8 1 1.3 1.5a11.51 11.51 0 0 0 1.7 1.4c.3.2.8.2 1.1-.1l1-1.1c.2-.2.4-.2.6 0l1.8 1.8c.2.4.2.7.1.8z"/><ellipse cx="122.4" cy="248.1" rx="13" ry="13.2" opacity=".17"/></g></g><g fill="#5dba7c"><use xlink:href="#F"/><use xlink:href="#G"/><use xlink:href="#H"/><use xlink:href="#I"/><use xlink:href="#J"/><path d="M146.4 129.2h0l-2 1-.4-1.6 2.6-1.3h1.7v11h-2v-9.1z"/></g><defs><ellipse id="V" cx="321.8" cy="60.1" rx="56.4" ry="57.4"/></defs><use xlink:href="#V" fill="#eabe8d"/><clipPath id="W"><use xlink:href="#V"/></clipPath><g class="AO"><g class="AC AE"><path d="M316.8 84.5h-41.3c-1.6 0-2.9-1.5-2.9-3.3V70.5c0-1.8 1.3-3.3 2.9-3.3h41.3c1.6 0 2.9 1.5 2.9 3.3v10.7c0 1.8-1.3 3.3-2.9 3.3z" class="AF"/><path d="M316.8 101.7h-41.3c-1.6 0-2.9-1.5-2.9-3.3V87.7c0-1.8 1.3-3.3 2.9-3.3h41.3c1.6 0 2.9 1.5 2.9 3.3v10.7c0 1.9-1.3 3.3-2.9 3.3z" class="AL"/></g><g class="AG"><ellipse cx="280.2" cy="75.8" rx="2.8" ry="3.2"/><ellipse cx="312.4" cy="74.5" rx=".8" ry=".9"/><ellipse cx="309.1" cy="74.5" rx=".8" ry=".9"/><ellipse cx="314" cy="77.2" rx=".8" ry=".9"/><ellipse cx="310.7" cy="77.2" rx=".8" ry=".9"/><ellipse cx="305.9" cy="74.5" rx=".8" ry=".9"/><ellipse cx="307.5" cy="77.2" rx=".8" ry=".9"/><ellipse cx="302.6" cy="74.5" rx=".8" ry=".9"/><ellipse cx="304.2" cy="77.2" rx=".8" ry=".9"/><ellipse cx="299.4" cy="74.5" rx=".8" ry=".9"/><ellipse cx="301" cy="77.2" rx=".8" ry=".9"/></g><path d="M316.8 118.4h-41.3c-1.6 0-2.9-1.5-2.9-3.3v-10.7c0-1.8 1.3-3.3 2.9-3.3h41.3c1.6 0 2.9 1.5 2.9 3.3v10.7c0 1.8-1.3 3.3-2.9 3.3z" class="AC AE AF"/><g class="AG"><ellipse cx="280.2" cy="109.7" rx="2.8" ry="3.2"/><ellipse cx="312.4" cy="108.4" rx=".8" ry=".9"/><ellipse cx="309.1" cy="108.4" rx=".8" ry=".9"/><ellipse cx="314" cy="111.1" rx=".8" ry=".9"/><ellipse cx="310.7" cy="111.1" rx=".8" ry=".9"/><ellipse cx="305.9" cy="108.4" rx=".8" ry=".9"/><ellipse cx="307.5" cy="111.1" rx=".8" ry=".9"/><ellipse cx="302.6" cy="108.4" rx=".8" ry=".9"/><ellipse cx="304.2" cy="111.1" rx=".8" ry=".9"/><ellipse cx="299.4" cy="108.4" rx=".8" ry=".9"/><ellipse cx="301" cy="111.1" rx=".8" ry=".9"/><ellipse cx="280.2" cy="93.1" rx="2.8" ry="3.2"/><ellipse cx="312.4" cy="91.7" rx=".8" ry=".9"/><ellipse cx="309.1" cy="91.7" rx=".8" ry=".9"/><ellipse cx="314" cy="94.5" rx=".8" ry=".9"/><ellipse cx="310.7" cy="94.5" rx=".8" ry=".9"/><ellipse cx="305.9" cy="91.7" rx=".8" ry=".9"/><ellipse cx="307.5" cy="94.5" rx=".8" ry=".9"/><ellipse cx="302.6" cy="91.7" rx=".8" ry=".9"/><ellipse cx="304.2" cy="94.5" rx=".8" ry=".9"/><ellipse cx="299.4" cy="91.7" rx=".8" ry=".9"/><ellipse cx="301" cy="94.5" rx=".8" ry=".9"/></g><g class="AC AE"><path d="M367.8 84.5h-41.3c-1.6 0-2.9-1.5-2.9-3.3V70.5c0-1.8 1.3-3.3 2.9-3.3h41.3c1.6 0 2.9 1.5 2.9 3.3v10.7c.1 1.8-1.2 3.3-2.9 3.3z" class="AF"/><path d="M367.8 101.7h-41.3c-1.6 0-2.9-1.5-2.9-3.3V87.7c0-1.8 1.3-3.3 2.9-3.3h41.3c1.6 0 2.9 1.5 2.9 3.3v10.7c.1 1.9-1.2 3.3-2.9 3.3z" class="AL"/></g><g class="AG"><ellipse cx="331.3" cy="75.8" rx="2.8" ry="3.2"/><ellipse cx="363.5" cy="74.5" rx=".8" ry=".9"/><ellipse cx="360.2" cy="74.5" rx=".8" ry=".9"/><ellipse cx="365.1" cy="77.2" rx=".8" ry=".9"/><ellipse cx="361.8" cy="77.2" rx=".8" ry=".9"/><ellipse cx="356.9" cy="74.5" rx=".8" ry=".9"/><ellipse cx="358.6" cy="77.2" rx=".8" ry=".9"/><ellipse cx="353.7" cy="74.5" rx=".8" ry=".9"/><ellipse cx="355.3" cy="77.2" rx=".8" ry=".9"/><ellipse cx="350.4" cy="74.5" rx=".8" ry=".9"/><ellipse cx="352.1" cy="77.2" rx=".8" ry=".9"/></g><path d="M367.8 118.4h-41.3c-1.6 0-2.9-1.5-2.9-3.3v-10.7c0-1.8 1.3-3.3 2.9-3.3h41.3c1.6 0 2.9 1.5 2.9 3.3v10.7c.1 1.8-1.2 3.3-2.9 3.3z" class="AC AE AF"/><g class="AG"><ellipse cx="331.3" cy="109.7" rx="2.8" ry="3.2"/><ellipse cx="363.5" cy="108.4" rx=".8" ry=".9"/><ellipse cx="360.2" cy="108.4" rx=".8" ry=".9"/><ellipse cx="365.1" cy="111.1" rx=".8" ry=".9"/><ellipse cx="361.8" cy="111.1" rx=".8" ry=".9"/><ellipse cx="356.9" cy="108.4" rx=".8" ry=".9"/><ellipse cx="358.6" cy="111.1" rx=".8" ry=".9"/><ellipse cx="353.7" cy="108.4" rx=".8" ry=".9"/><ellipse cx="355.3" cy="111.1" rx=".8" ry=".9"/><ellipse cx="350.4" cy="108.4" rx=".8" ry=".9"/><ellipse cx="352.1" cy="111.1" rx=".8" ry=".9"/><ellipse cx="331.3" cy="93.1" rx="2.8" ry="3.2"/><ellipse cx="363.5" cy="91.7" rx=".8" ry=".9"/><ellipse cx="360.2" cy="91.7" rx=".8" ry=".9"/><ellipse cx="365.1" cy="94.5" rx=".8" ry=".9"/><ellipse cx="361.8" cy="94.5" rx=".8" ry=".9"/><ellipse cx="356.9" cy="91.7" rx=".8" ry=".9"/><ellipse cx="358.6" cy="94.5" rx=".8" ry=".9"/><ellipse cx="353.7" cy="91.7" rx=".8" ry=".9"/><ellipse cx="355.3" cy="94.5" rx=".8" ry=".9"/><ellipse cx="350.4" cy="91.7" rx=".8" ry=".9"/><ellipse cx="352.1" cy="94.5" rx=".8" ry=".9"/></g></g><g fill="#ce9e6f"><use xlink:href="#F" x="199.4"/><use xlink:href="#G" x="199.4"/><use xlink:href="#K"/><use xlink:href="#I" x="199.4"/><use xlink:href="#L"/><path d="M342.6 138.3V137l1.3-1.2c2.6-2.4 3.8-3.7 3.8-5.2 0-1-.5-1.9-1.9-1.9-1 0-1.8.5-2.3.9l-.6-1.5c.8-.6 2-1.1 3.3-1.1 2.4 0 3.6 1.5 3.6 3.3 0 1.9-1.4 3.5-3.3 5.3l-1 .8h4.5v1.7h-7.4z"/></g><g fill="#f28c56"><use xlink:href="#F" y="153"/><use xlink:href="#M"/><use xlink:href="#H" y="153"/><use xlink:href="#I" y="153"/><use xlink:href="#J" y="153"/><path d="M143.6 289.2c.4.3 1.4.7 2.5.7 1.6 0 2.2-.9 2.2-1.8 0-1.3-1.2-1.9-2.5-1.9h-1v-1.5h.9c1 0 2.2-.4 2.2-1.5 0-.7-.6-1.4-1.7-1.4-.9 0-1.8.4-2.2.7l-.5-1.5c.6-.4 1.8-.8 3.1-.8 2.2 0 3.4 1.3 3.4 2.7 0 1.2-.7 2.1-2 2.6h0c1.3.2 2.4 1.3 2.4 2.8 0 1.9-1.5 3.3-4.2 3.3-1.3 0-2.5-.4-3-.8l.4-1.6z"/></g><g fill="#78aae5"><use xlink:href="#F" x="199.4" y="153"/><use xlink:href="#M" x="199.4"/><use xlink:href="#K" y="153"/><use xlink:href="#I" x="199.4" y="153"/><use xlink:href="#L" y="153"/><path d="M347.1 291.3v-2.8h-4.9v-1.4l4.4-6.9h2.4v6.7h1.4v1.6H349v2.8h-1.9zm0-4.4v-3c0-.6 0-1.3.1-1.9h-.1c-.3.7-.6 1.3-1 1.9l-2 3h3z"/></g><defs><ellipse id="X" cx="347.4" cy="60.1" rx="17.1" ry="17.4"/></defs><use xlink:href="#X" class="AD"/><clipPath id="Y"><use xlink:href="#X"/></clipPath><g clip-path="url(#Y)"><path d="M347.4 47.9c-3.6 0-6.5 2.8-6.5 6.2v.4c0 .5.1 1 .3 1.4 0 .1 0 .1.1.2.1.2.2.5.3.7.1.1.1.2.2.3.1.2.3.4.4.6.1.1.1.2.2.2.1.2.3.3.4.5 1.2 1.1 2.8 1.8 4.6 1.8s3.4-.7 4.6-1.8c.2-.1.3-.3.4-.5l.1-.1c.1-.1.1-.2.2-.3.2-.2.3-.4.4-.6.1-.1.1-.2.2-.3.1-.2.2-.5.3-.7 0-.1 0-.1.1-.2l.3-1.4v-.4c0-3.2-3-6-6.6-6zm0 11.3c-2 0-3.7-1-4.6-2.6l-.1-.1c-.1-.2-.2-.4-.3-.7-.1-.2-.1-.4-.2-.6v-.3c0-.2-.1-.4-.1-.6V54c0-2.8 2.4-5 5.3-5s5.3 2.3 5.3 5v.3c0 .2 0 .4-.1.6 0 .1 0 .2-.1.3 0 .2-.1.4-.2.6v.2l-.3.6c-.9 1.6-2.6 2.6-4.6 2.6z" fill="#7c8b96"/><path d="M347.4 48.6c-3.2 0-5.8 2.5-5.8 5.5v.3c0 .2 0 .4.1.5 0 .1 0 .2.1.3 0 .2.1.4.2.6 0 .1.1.2.1.3l.3.6c0 .1.1.1.1.2.1.2.2.3.3.5 1.1 1.3 2.7 2.2 4.6 2.2s3.5-.8 4.6-2.1c.1-.2.2-.3.4-.5l.1-.1c.1-.2.2-.4.3-.7h0c0-.1.1-.2.1-.3v-.2c0-.2.1-.3.1-.5 0-.1 0-.2.1-.3 0-.2 0-.4.1-.5v-.3c0-3-2.6-5.5-5.8-5.5zm0 10.6c-2 0-3.7-1-4.6-2.6l-.1-.1c-.1-.2-.2-.4-.3-.7-.1-.2-.1-.4-.2-.6v-.3c0-.2-.1-.4-.1-.6V54c0-2.8 2.4-5 5.3-5s5.3 2.3 5.3 5v.3c0 .2 0 .4-.1.6 0 .1 0 .2-.1.3 0 .2-.1.4-.2.6v.2l-.3.6c-.9 1.6-2.6 2.6-4.6 2.6z" class="AH"/><path d="M340.7 60c0 .1 0 .3.1.4h-.5c-.1 0-.2-.1-.3-.1-.8-.4-1.4-1.5-1.4-2.8s.6-2.4 1.4-2.8c.1 0 .2-.1.3-.1h.5c-.1.1-.1.2-.1.4v5z" fill="#929fa9"/><path d="M342.8 54.9V60a.47.47 0 0 1-.5.5h-1c-.2 0-.3-.1-.4-.2s-.1-.2-.1-.4v-5.1c0-.1 0-.3.1-.4s.2-.2.4-.2h1c.3.2.5.4.5.7z" class="AH"/><g fill="#59656b"><ellipse cx="341.8" cy="55.1" rx=".7" ry=".2"/><ellipse cx="341.8" cy="56.1" rx=".7" ry=".2"/><path d="M342.5 57c0 .1-.3.2-.7.2s-.7-.1-.7-.2.3-.2.7-.2c.3 0 .7.1.7.2z"/><ellipse cx="341.8" cy="58" rx=".7" ry=".2"/><ellipse cx="341.8" cy="58.9" rx=".7" ry=".2"/><ellipse cx="341.8" cy="59.9" rx=".7" ry=".2"/></g><path d="M340.3 54.6v5.8c-.1 0-.2-.1-.3-.1v-5.5c0-.1.2-.2.3-.2z" class="AM"/><path d="M354.1 60c0 .1 0 .3-.1.4h.5c.1 0 .2-.1.3-.1.8-.4 1.4-1.5 1.4-2.8s-.6-2.4-1.4-2.8c-.1 0-.2-.1-.3-.1h-.5c.1.1.1.2.1.4v5z" fill="#929fa9"/><path d="M352 54.9V60a.47.47 0 0 0 .5.5h1c.2 0 .3-.1.4-.2s.1-.2.1-.4v-5.1c0-.1 0-.3-.1-.4s-.2-.2-.4-.2h-1c-.3.2-.5.4-.5.7z" class="AH"/><g fill="#59656b"><ellipse cx="353" cy="55.1" rx=".7" ry=".2"/><ellipse cx="353" cy="56.1" rx=".7" ry=".2"/><path d="M352.3 57c0 .1.3.2.7.2s.7-.1.7-.2-.3-.2-.7-.2-.7.1-.7.2z"/><ellipse cx="353" cy="58" rx=".7" ry=".2"/><ellipse cx="353" cy="58.9" rx=".7" ry=".2"/><ellipse cx="353" cy="59.9" rx=".7" ry=".2"/></g><path d="M354.5 54.6v5.8c.1 0 .2-.1.3-.1v-5.5c-.1-.1-.2-.2-.3-.2z" class="AM"/><path d="M350.5 62.8l-3.1.4-3.1-.4s.9 1.3 0 3.8l3.1 3.4 3.1-3.4c-.9-2.4 0-3.8 0-3.8z" class="AI"/><path d="M348.8 50.1c-.9-.4-1.9-.4-2.7 0-1.5.7-3.7 2.5-3.7 7.2 0 7.2 5.1 7.1 5.1 7.1s5.1.1 5.1-7.1c-.1-4.7-2.3-6.5-3.8-7.2z" class="AJ"/><path d="M342.6 51.7c-.8 1.4-1 3.2-.4 4.8a1.39 1.39 0 0 0 1.1-.2c.3-.2.6-.5.8-.8 1-1.3 1.4-2.9 1.9-4.5-.1 1.4.5 2.9 1.5 3.9-.1-1.4 0-2.8.2-4.2-.1 1.4.5 2.8 1.5 3.8s2.4 1.5 3.7 1.4c0-.9 0-1.9-.2-2.8s-.6-1.8-1.2-2.5-1.4-1.1-2.3-1.3c-2.1-.6-4.4.1-6 1.6-.1.1-.4.4-.6.8z" class="AK"/><path d="M346.8 62.7l-4.7-.5-1.9-2c-.1-.1-.1-.3 0-.4s.3-.1.4 0l1.8 1.8 4.5.5c.2 0 .3.2.2.3 0 .2-.1.3-.3.3z" class="AM"/><path d="M347 63.1l-1-.1c-.3 0-.5-.3-.5-.6v-.1c0-.3.3-.5.6-.5l1 .1c.3 0 .5.3.5.6v.1c0 .3-.3.5-.6.5z" class="AH"/><path d="M343 70h8.9v9.7H343z" fill="#e4edf1"/><path d="M347.7 72.5l.9-1.8h-2.5l1 1.8-1.6 7.4h3.7z" fill="#f26655"/><g class="AD"><path d="M344.6 65.4l2.8 4.6-2.5 2.6z"/><path d="M350.1 65.4l-2.7 4.6 2.5 2.6z"/></g><path d="M344.6 65.4l1.1 14.3h-10.2l2.2-8.6c.2-.9.8-1.8 1.6-2.3l5.3-3.4z" fill="#384457"/><path d="M344.6 65.4l-2.4 4.9 1.2.8-1.6 1.1 3.9 7.5z" fill="#465872"/><path d="M350.1 65.4L349 79.7h10.2l-2.2-8.6c-.2-.9-.8-1.8-1.6-2.3l-5.3-3.4z" fill="#384457"/><path d="M350.1 65.4l2.5 4.9-1.2.8 1.6 1.1-3.9 7.5z" fill="#465872"/></g><defs><ellipse id="Z" cx="296.3" cy="60.1" rx="17.1" ry="17.4"/></defs><use xlink:href="#Z" class="AD"/><clipPath id="a"><use xlink:href="#Z"/></clipPath><g clip-path="url(#a)"><g class="AK"><path d="M287.4 62c-.2.4-.3.9-.4 1.4-.1 1 .3 2.1 1 2.9.3.3.6.4 1 .6.5.3 1.1.4 1.6.4 1.1 0 2.1-.6 2.8-1.4s1-1.9 1.1-3 0-2.2-.3-3.2c-.3-1.1-.7-2.3-1.5-3.1s-1.7-1.4-2.8-1c-.9.3-1.5 1.2-1.6 2.1-.2.9.1 1.9.6 2.6-.6.4-1.1 1-1.5 1.7zm16.8 0c.2.4.3.9.4 1.4.1 1-.3 2.1-1 2.9-.3.3-.6.4-1 .6-.5.3-1.1.4-1.6.4-1.1 0-2.1-.6-2.8-1.4s-1-1.9-1.1-3 0-2.2.3-3.2c.3-1.1.7-2.3 1.5-3.1s1.7-1.4 2.8-1c.9.3 1.5 1.2 1.6 2.1.2.9-.1 1.9-.6 2.6a3.53 3.53 0 0 1 1.5 1.7z"/></g><path d="M298.8 62.2l-2.9.4-2.9-.4s.9 1.3 0 3.6l2.9 3.2 2.9-3.2c-.9-2.3 0-3.6 0-3.6z" class="AI"/><path d="M302.7 54.3c.3.7.5 1.4.5 2.2-.1.7-.4 1.5-1.1 1.9l-1.4-4.8c-.1-.2-.1-.4-.1-.6 0-.6.6-.7 1-.3.5.4.9 1 1.1 1.6z" class="AK"/><ellipse cx="295.8" cy="57.2" rx="5.4" ry="7" class="AJ"/><path d="M292.9 65.9l2.9 3.2v9.5h-5.7v-6.1h-4l.5-1.7c.5-1.6 1.7-3 3.2-3.7l3.1-1.2z" fill="#f3703a"/><path d="M290.1 72.5v-1.7l.9 7.8h-.9z" fill="#e86234"/><path d="M290.1 72.5v6.1h-2.4c-.7-.7-.7-3.6-.7-5.1v-.9h3.1z" class="AJ"/><path d="M290.1 72.5l-3.1.9v-.9h3.1z" class="AI"/><path d="M298.8 65.9l-2.9 3.2v9.5h5.7v-6.1h4l-.5-1.7c-.5-1.6-1.7-3-3.2-3.7l-3.1-1.2z" fill="#f3703a"/><path d="M301.6 72.5v-1.7l-.9 7.8h.9z" fill="#e86234"/><g class="AI"><path d="M301.6 72.5v6.1h2.4c.7-.7.7-3.6.7-5.1v-.9h-3.1z"/><path d="M301.6 72.5l3.1.9v-.9h-3.1z"/></g><g fill="#fc8359"><path d="M292.9 65.9l.4 4.7 2.5-1.5z"/><path d="M298.8 65.9l-.4 4.7-2.6-1.5"/></g><g fill="#dd5631"><use xlink:href="#N"/><path d="M296.5 72.4a.65.65 0 0 1-.6.6.65.65 0 0 1-.6-.6.65.65 0 0 1 .6-.6.65.65 0 0 1 .6.6z"/><circle cx="295.9" cy="74.5" r=".6"/></g><g class="AK"><path d="M289.1 57.4c.5-.6.4-1.5.5-2.3.1-1.3 0-2.6.5-3.8.4-1.1 1.3-2.1 2.3-2.7 1.6-.9 4.6-1.2 5.5.7.8-.6 2-.4 2.7.2.8.6 1.2 1.6 1.3 2.6.2 1.5-.2 2.9-.4 4.4 0 .1-.9.1-1 .1-.4 0-.7 0-1.1-.1-.7-.1-1.4-.4-2-.8-1.1-.7-2-1.7-2.5-3-.1-.4-.2-.7-.4-1.1l-.6 1.4c-.2.4-.5.8-.8 1.2-.6.7-1.2 1.4-2 1.9-.6.5-1.1 1-2 1.3z"/><path d="M288.9 54.3c-.3.7-.5 1.4-.5 2.2.1.7.4 1.5 1.1 1.9l1.4-4.8c.1-.2.1-.4.1-.6 0-.6-.6-.7-1-.3s-.8 1-1.1 1.6z"/></g><path d="M301 67.2l-1.3 5c-.3 1.7-.2 3.6.6 5.1.2.5.6.9 1.1 1 .4.1.8 0 1.1-.3.3-.2.6-.6.8-.9.9-1.4.9-3.1.6-4.7l-.8-3.9c-.2-.9-.3-1.9-.2-2.9.1-.9.3-1.8.5-2.7.2-.7.4-1.5.2-2.3-.1-.7-.7-1.5-1.5-1.5-.2 1.3-.1 2.6-.3 3.9l-.8 4.2z" class="AJ"/><path d="M302.4 56.9l-.5 6.1c0 .3-.3.5-.5.5h-.1c-.1 0-.2 0-.3-.1a.76.76 0 0 1-.2-.4l.5-6.1c0-.2.1-.3.2-.4.1 0 .2-.1.3-.1h.1a.47.47 0 0 1 .5.5z" fill="#7c8b96"/><path d="M301.7 56.9l-.5 6.1c0 .2-.1.3-.2.4a.76.76 0 0 1-.2-.4l.5-6.1c0-.2.1-.3.2-.4.2 0 .3.2.2.4z" class="AH"/><path d="M302 66.4h0c-.6-.1-.9-.7-.8-1.2h0c.1-.6.7-1 1.2-.9h0c.6.1.9.7.8 1.2h0c-.1.6-.6 1-1.2.9z" fill="#fec368"/></g><path d="M310.9 20.3l1.4-.9h6.2V18h1.4v14.9h-1.3v-1.6H312l-1.3-.8zm23.2 0l-1.4-.9h-6.2V18h-1.4v14.9h1.3v-1.6h6.7l1.2-.8z" class="AD"/><path d="M296.4 47.2V36.1c0-5.9 4.8-10.8 10.7-10.8h12M349 47.2V36.1c0-5.9-4.5-10.8-9.9-10.8h-11.2" fill="none" stroke-width=".75" class="AC AE"/><defs><ellipse id="b" cx="321.8" cy="213.1" rx="56.4" ry="57.4"/></defs><use xlink:href="#b" fill="#78aae5"/><clipPath id="c"><use xlink:href="#b"/></clipPath><path d="M338.9 248.3h-46.2a12.04 12.04 0 0 1-12-12v-47.5a12.04 12.04 0 0 1 12-12h46.2a12.04 12.04 0 0 1 12 12v47.5a12.04 12.04 0 0 1-12 12z" fill="none" stroke-dasharray="3" class="AC AE AP"/><g class="AP"><g class="AC AE"><use xlink:href="#O" class="AF"/><path d="M362.4 219.1h-31.1c-1.2 0-2.2-1.1-2.2-2.5v-8.1c0-1.4 1-2.5 2.2-2.5h31.1c1.2 0 2.2 1.1 2.2 2.5v8.1c0 1.4-1 2.5-2.2 2.5z" class="AL"/></g><g class="AG"><ellipse cx="335" cy="199.7" rx="2.1" ry="2.4"/><ellipse cx="359.1" cy="198.6" rx=".6" ry=".7"/><ellipse cx="356.7" cy="198.6" rx=".6" ry=".7"/><ellipse cx="360.3" cy="200.7" rx=".6" ry=".7"/><ellipse cx="357.9" cy="200.7" rx=".6" ry=".7"/><ellipse cx="354.2" cy="198.6" rx=".6" ry=".7"/><ellipse cx="355.5" cy="200.7" rx=".6" ry=".7"/><ellipse cx="351.8" cy="198.6" rx=".6" ry=".7"/><ellipse cx="353" cy="200.7" rx=".6" ry=".7"/><ellipse cx="349.3" cy="198.6" rx=".6" ry=".7"/><ellipse cx="350.6" cy="200.7" rx=".6" ry=".7"/></g><path d="M362.4 231.7h-31.1c-1.2 0-2.2-1.1-2.2-2.5v-8.1c0-1.4 1-2.5 2.2-2.5h31.1c1.2 0 2.2 1.1 2.2 2.5v8.1c0 1.4-1 2.5-2.2 2.5z" class="AC AE AF"/><g class="AG"><ellipse cx="335" cy="225.2" rx="2.1" ry="2.4"/><ellipse cx="359.1" cy="224.1" rx=".6" ry=".7"/><ellipse cx="356.7" cy="224.1" rx=".6" ry=".7"/><ellipse cx="360.3" cy="226.2" rx=".6" ry=".7"/><ellipse cx="357.9" cy="226.2" rx=".6" ry=".7"/><ellipse cx="354.2" cy="224.1" rx=".6" ry=".7"/><ellipse cx="355.5" cy="226.2" rx=".6" ry=".7"/><ellipse cx="351.8" cy="224.1" rx=".6" ry=".7"/><ellipse cx="353" cy="226.2" rx=".6" ry=".7"/><ellipse cx="349.3" cy="224.1" rx=".6" ry=".7"/><ellipse cx="350.6" cy="226.2" rx=".6" ry=".7"/><ellipse cx="335" cy="212.7" rx="2.1" ry="2.4"/><ellipse cx="359.1" cy="211.6" rx=".6" ry=".7"/><ellipse cx="356.7" cy="211.6" rx=".6" ry=".7"/><ellipse cx="360.3" cy="213.7" rx=".6" ry=".7"/><ellipse cx="357.9" cy="213.7" rx=".6" ry=".7"/><ellipse cx="354.2" cy="211.6" rx=".6" ry=".7"/><ellipse cx="355.5" cy="213.7" rx=".6" ry=".7"/><ellipse cx="351.8" cy="211.6" rx=".6" ry=".7"/><ellipse cx="353" cy="213.7" rx=".6" ry=".7"/><ellipse cx="349.3" cy="211.6" rx=".6" ry=".7"/><ellipse cx="350.6" cy="213.7" rx=".6" ry=".7"/></g></g><defs><ellipse id="d" cx="283.4" cy="212.1" rx="14.1" ry="14.4"/></defs><use xlink:href="#d" class="AD"/><clipPath id="e"><use xlink:href="#d"/></clipPath><g clip-path="url(#e)"><ellipse cx="283" cy="219.4" rx="3.7" ry="4.2" fill="#e8c79c"/><path d="M291.5 222.2c-1.2-3.6-5.9-5-5.9-5l-2.8 4-2.8-4s-4.6 1.5-5.9 5c-1.2 3.6-.7 9.2-.7 9.2h18.8c0 .1.6-5.6-.7-9.2z" fill="#c76da5"/><g fill="#d686b5"><path d="M284.7 217.8l-1.9 3.4 3.3 1.1.6-4.4-2-.1z"/><path d="M280.9 217.8l1.9 3.4-3 1.1-.8-4.4 1.9-.1z"/></g><path d="M288.7 207.8c-.8-4.9-5.1-4.9-5.9-4.9h-.1c-.6 0-5.1-.1-5.9 4.9-.9 5.3-1.9 11.6 5.9 10.9 7.9.7 6.8-5.6 6-10.9z" fill="#4d4f54"/><path d="M287.1 208.8c-1.9.5-3.9.1-5.5-1-.1-.1-.3-.1-.5 0-.7.7-1.6 1-2.6.9-.3 0-.7.2-.7.6v2.6c0 1.2.3 2.3.9 3.3.8 1.5 2.4 2.5 4.1 2.5h.2a5.07 5.07 0 0 0 4.1-2.5c.6-1 .9-2.2.9-3.3v-2.5c0-.4-.3-.6-.6-.6h-.3z" fill="#e8c79c"/><path d="M289.7 212.5c-.1 0-.3-.1-.3-.3V209c0-3.4-2.9-6.2-6.5-6.2h-.4c-3.6 0-6.5 2.8-6.5 6.2v3.2c0 .1-.1.3-.3.3s-.3-.1-.3-.3V209c0-3.7 3.1-6.7 7-6.7h.4c3.9 0 7 3 7 6.7v3.2c.1.2 0 .3-.1.3h0z" fill="#2f3a5a"/><path d="M289.3 209.7H288c-.1 0-.2.1-.2.2v3c0 .1.1.2.2.2h1.3c.1 0 .2-.1.2-.2v-3c0-.1-.1-.2-.2-.2h0z" fill="#9297ab"/><g fill="#2f3a5a"><path d="M282.1 216.1h-2.4c-1.6 0-2.9-1.3-2.9-2.9v-.8c0-.1.1-.3.3-.3s.3.1.3.3v.8c0 1.3 1.1 2.4 2.4 2.4h2.4c.1 0 .3.1.3.3-.1.1-.2.2-.4.2h0z"/><ellipse cx="282.5" cy="215.8" rx="1.1" ry="1"/></g><path d="M277.5 209.7h-1.3c-.1 0-.2.1-.2.2v3c0 .1.1.2.2.2h1.3c.1 0 .2-.1.2-.2v-3c0-.1-.1-.2-.2-.2h0z" fill="#9297ab"/><path d="M282.5 221.1h.5v5.8h-.5v-5.8z" fill="#d686b5"/></g><path d="M309.4 210s9-.5 11.2 1.6c0 0 2.9-5-4-5.2l-7.2-.1v-4.6l-8.7 7 8.7 5.8V210zm7 11.6s-8.9-1.1-11.3.8c0 0-2.6-5.2 4.3-4.9l7.2.4.3-4.6 8.2 7.6-9 5.2.3-4.5z" class="AD"/><path d="M110.8 216.8c-.2.1-.8.3-1.5.3-1.8 0-2.9-1.1-2.9-2.9 0-1.9 1.3-3 3-3 .7 0 1.2.1 1.4.3l-.2.8c-.3-.1-.6-.2-1.1-.2-1.1 0-2 .7-2 2.1 0 1.3.7 2.1 2 2.1.4 0 .9-.1 1.1-.2l.2.7zm3.1.2l-.1-.5c-.3.3-.7.6-1.2.6-.8 0-1.3-.6-1.3-1.2 0-1 .9-1.6 2.4-1.6v-.1c0-.3-.1-.7-.8-.7-.4 0-.8.1-1.1.3l-.2-.7c.3-.2.8-.4 1.5-.4 1.3 0 1.7.8 1.7 1.7v1.5c0 .4 0 .7.1 1h-1zm-.2-2c-.7 0-1.4.1-1.4.8 0 .4.3.6.6.6.4 0 .7-.3.8-.6v-.8zm2.1-4h1v6h-1v-6zm2.2 0h1v6h-1v-6zm3.9 6v-3.4h-.6v-.8h.6v-.2c0-.5.1-1.1.5-1.4.3-.3.7-.4 1.1-.4.3 0 .5 0 .7.1l-.1.8c-.1 0-.3-.1-.4-.1-.5 0-.7.4-.7.9v.2h.9v.8h-.9v3.4h-1.1zm2.6-2.8v-1.3h.9v.8c.2-.6.7-.9 1.1-.9h.2v1h-.3c-.5 0-.8.3-.9.8v2.4h-1v-2.8zm6.8.7c0 1.5-1.1 2.2-2.1 2.2-1.2 0-2-.8-2-2.1 0-1.4.9-2.2 2.1-2.2 1.1 0 2 .9 2 2.1zm-3.1.1c0 .8.4 1.4 1 1.4s1-.6 1-1.4c0-.6-.3-1.4-1-1.4s-1 .7-1 1.4zm3.9-.9v-1.2h.9v.6c.2-.3.6-.7 1.3-.7.5 0 1 .3 1.1.8h0c.1-.2.3-.4.5-.5.2-.2.5-.2.8-.2.7 0 1.4.5 1.4 1.8v2.4h-1v-2.3c0-.7-.2-1.1-.7-1.1-.4 0-.6.3-.7.6v2.8h-1v-2.4c0-.6-.2-1-.7-1-.4 0-.6.3-.7.6 0 .1-.1.2-.1.3v2.4h-1v-2.9zM100 226.5h.6c.4 0 .8-.2 1.1-.4.4-.3.6-.7.7-1.2h0c-.3.3-.7.5-1.2.5-.9 0-1.6-.7-1.6-1.7a1.94 1.94 0 0 1 2-2c1.3 0 1.9 1 1.9 2.4 0 1.2-.4 2-.9 2.6-.5.5-1.1.7-1.9.8h-.6v-1zm.6-3c0 .6.3 1 .9 1 .4 0 .7-.2.9-.5 0-.1.1-.2.1-.3 0-.7-.3-1.4-.9-1.4-.7.1-1 .5-1 1.2zm6.9-.9h-2.1l-.2 1.1h.4c.5 0 1 .1 1.3.4a1.61 1.61 0 0 1 .7 1.4c0 1.1-.9 1.9-2.2 1.9a3.66 3.66 0 0 1-1.4-.3l.2-.8a2.96 2.96 0 0 0 1.2.3c.6 0 1.2-.3 1.2-1 0-.6-.5-1-1.5-1-.3 0-.5 0-.7.1l.4-2.8h2.8v.7zm4.4-.2h-.5c-1.1.1-1.7.9-1.8 1.6h0c.3-.3.7-.5 1.2-.5.9 0 1.7.7 1.7 1.8s-.8 2-1.9 2c-1.3 0-2-1-2-2.4a3.77 3.77 0 0 1 .9-2.5c.5-.5 1.2-.7 1.9-.8h.5v.8zm-.5 3c0-.6-.3-1.1-.9-1.1-.4 0-.7.2-.9.6 0 .1-.1.2-.1.3 0 .7.4 1.3 1 1.3.5 0 .9-.4.9-1.1zm5.5-1c0 1.8-.7 2.9-2 2.9s-1.9-1.2-1.9-2.8c0-1.7.7-2.9 2-2.9 1.2 0 1.9 1.2 1.9 2.8zm-2.9.1c0 1.3.4 2 .9 2 .6 0 .9-.7.9-2.1 0-1.3-.3-2-.9-2-.5 0-.9.7-.9 2.1zm7.3-.1c0 1.8-.7 2.9-2 2.9s-1.9-1.2-1.9-2.8c0-1.7.7-2.9 2-2.9s1.9 1.2 1.9 2.8zm-2.9.1c0 1.3.4 2 .9 2 .6 0 .9-.7.9-2.1 0-1.3-.3-2-.9-2-.5 0-.9.7-.9 2.1zm3.6 2.7v-.6l.6-.6c1.3-1.2 1.9-1.9 1.9-2.6 0-.5-.3-.9-1-.9-.5 0-.9.2-1.2.5l-.3-.7c.4-.3 1-.6 1.7-.6 1.2 0 1.8.8 1.8 1.7 0 1-.7 1.8-1.6 2.6l-.5.4h2.2v.9H122z"/><use xlink:href="#P"/><path d="M134.5 227.2l-1.2-2.2c-.1.3-.3.6-.5 1.1l-.6 1.1H131l1.7-2.9-1.6-2.8h1.2l1.1 2.2c.2-.4.3-.6.4-1l.6-1.2h1.2l-1.6 2.8 1.7 2.9h-1.2z"/><use xlink:href="#P" x="9.7"/><path d="M144.2 227.2L143 225c-.1.3-.3.6-.5 1.1l-.6 1.1h-1.2l1.7-2.9-1.6-2.8h1.2l1.1 2.2c.2-.4.3-.6.4-1l.6-1.2h1.2l-1.6 2.8 1.7 2.9h-1.2z"/></svg>