<svg xmlns="http://www.w3.org/2000/svg" xmlns:xlink="http://www.w3.org/1999/xlink" width="523" height="349" xmlns:v="https://vecta.io/nano"><style><![CDATA[.d{fill:#fff}.e{stroke-miterlimit:10}.f{fill:#2195ff}.g{fill:#d32030}.h{stroke:#a5d6c6}.i{stroke-dasharray:2}]]></style><path d="M458.2 137.8H401c-6.9 0-12.6-5.7-12.6-12.6V93.6c0-6.9 5.7-12.6 12.6-12.6h57.2c6.9 0 12.6 5.7 12.6 12.6v31.6c0 6.9-5.7 12.6-12.6 12.6z" fill="#fab056" stroke="#fff" stroke-width="2" class="e"/><path d="M110.6 85.3h-2.8l.2 2.5 2.6-2.5zm-.4 46.1l-2.4-8.6-8.3 3 .1 6.7 5.3-3-.7 5.1 6-3.2zm-3.3-74.3l-2.9 1.2.7 5.9-6.1-3.8.3 4.6-2.1-1.2-2.1 1.9 5.3 3.6.3-2 2.1 1.5-.8 1.6 3.9 6.3 6.8-.6.4 5.2 2.3-.4 1.7-4.5 3.9-2.1-2.1-1.3-3.3.6-5.9-2.8.7-8.9-3.1-4.8zm10.8 44.1l-3.6-.5-4.7-4.8-5.3 3.4 7.5 3.4-4.2 2.1 1.1 1.6-5 3.3 10.8-2.2.4 1.6 5.1-3.5-2.1-4.4zm-15.3-20.3l2.4 4.2 2-1.6-1.5-2.9-2.9.3zm12.8 42.9l4.5-8.9-10 8.4 2 4.7 3.5-4.2zm-19-25.6l3.7-1.5 1.3-4-5 5.5zm10.9 16.8l-1.8 5.1 2.5-2.4-.7-2.7zM231.2-42.9l-2.5 4.3 4.3-2.8-1.8-1.5zm4.6-20.5v-6l-2.1-1.4-.5 3.3-2.3 3.1 3 2.8 1.9-1.8zm6-12.8l-3.8 3.4 1.5 2.5 2.3-5.9zM176.9 15l-2-2.6-2.5.5 3.2 4.6 1.3-2.5zm-1-7.4l.3 3.8 5.5-.6 3 1.7.1-4-6.3.5 2.1-2.2-3.4-3-4.3.4v4.7l1.8 2 1.2-3.3zm52.2-71.9l-3.9.9-1 3.2 4.4 2.2.5-6.3zM181.5 1.8l-2.7.4 2.2 2.3.5-2.7zm-59.9 179l-4.3-.7 1.6-4.1-1.6-3.1 3.2-.4 3.3 9.1-1.8-11.7-7.9-.4 4.3-2.9-8.5-11-.6-4.9-4.3-2.1-8.8-.9-5.6 3.3-3.3.4-1.9 1.9-5.5 1-2.8 2.7-3.9 1.9-1.7 4.6-5.9.8-6.4 11.9 12.3 10.3 4.2-.8 1.7-7.2 3.4-2.3 8.5 3.9 5.5 9.9 4.3.7 6.3 3.9 1.2.2-.4-3.9 2.6.6 4.4-3.3.5-3.8 6.9.9 1-4.5zM290 286.5l-1.9 1 3.5 1.7 3-.7-1.8-1.8-2.8-.2zM125.8 133.7l1.5 7.6 5.6 2.1 1.6-5.2-4-7.4-4.7 2.9zm184.8 109.7l-1.3-6.5-9.8-7-13.6-.6-8.4.2-.7 5.8-2.2 3.3-4.5-4.5-5.3-1.2 8.4-7.7v-4.7l-6.7-9.8-2.6-.4-5.9-3.1-2.5-3.8-3.1.6-2.1.6-3.6-1h-2.1l4-.9 2.6.6 4.3-.8 2.8 1 2.3 2.2 3-.5 2.9.6-7.9-8.8-3.7-4.3 2.3-3.3 2.2-.7-3.9-2-1.7-2.6-1.7-.2-4.6-7.7-6.9-3.3-9.9-1.9-.3-3.5-2.2-1.2-3.2-9.6-3.6-5.4L219 139l-3-4.1h-2.6l-8.3-11-4.9-1-3.8-2.8-6.2-2.2-2.4 2-4.9 2.9-7-2.1-3.2.4-5.6-1.5-1.6-2.8 3.3 1.5 6.7.5 5.5-1.6 1.7-4 5.7.2 5.1-3.5-5.2-2.2-.4-2.8-2.2-1.5-7.2 3.4-1.2-1.3 5.5-3.7 6.6.4 3.9-3.1.6-2.8 2.7-1.6 3.9-6.8 2.4-3.2-.4-2.2 2.7-4.6-1-1.6L207 70l4.6-3.6v-4.1l-6.9-5.7-1.4 1.1-11.8.3-7.2-1.2-2.1 1.3h-3.6l-4.4-1.4-3.1.1-.4 1.5-4.5 1.2-4.8 2.3-1.9-.1-3.2 2.3-1-.9 4.5-4.5 4.4-6.6-3.3 1.7-4.1-1.5 2.5-1.3.8-3.1 11.5-7.8 3.4-5.1 3.9-1.3 1.8-4.6-2-2 2.3-3.3-.3-2.1H175l-2.4 2.3-3.7-1-5.5 2.2-5.2-.4-4.2 1.6-2.5.1-2.6 2.2.6-2.4-2.4-.9-4.7 3.8 1.4-3.4-6.6-2.7-1.1 3.6-2.2 1.6.7 3.4-1.4.1.2 4.2-4.7.9 2.3 3.6-1.9 3.5-2.4.1 5.7 4.6 1.9 3.2-5.8-2.6-2.1 1.7-4.2-2.6-.3 1.9 1.1 2.4-1.4 1.8-2.1-4-2.1 4.2 2.2 2.3-1.7 2.1 3.4 3.5 3.4.1-3.9 1.3-4-2 .9 5.8-.1 2 7.4-1-4.8 2.2-.5 1.1 1.5.9 4.6-1.6-1 1.1 1.9 2.1-3.4-1.2-1.4.8-1 2.8 1.9 1.2-2.8.4-1.8 2.5 3.2 1 .7 2.2-5.2-1.8-1 3.2 2.1 1.3-1.2 2.1-2.4 1.7-5.2.1L107 93l1.9 1 4.3-.3 3 .8-.7 1.1H112l4.6 3.9 1.4-.6 2.3 2.3 11.9-10.9-2 3.3 1.8 1-3.5 1.1-2.9 6.2.3 1.6-3.7 6.3 1.6.8-3.2 7.6.8 5-2.3 2.7 1.7 2.6 2.1-1-3.8 5.4-.6 7.6-2.8 2.6.3 1.8h6.1l-.8-3.9 2.7-5.7-.2-3.4 3.3-3.6-2.5-9.3 2.3-.1 7.5-7.9-5.7 7.6-.6 5.5 2.1 1.4.5-3.3 3.7-2.7 1.6 5 3-6.1-.7-4.2 2.4-1.1-1 5.5 6.2 4.2-5.4-1.3-1.9 7.1 1.2 5.2 3.3.7 1.9 4.5-4.8 4.5-4.8 11.4 1.1 5.1-4.3-2.4.3 5.5 5.7 7.3-1.8-6.7 4-1.1 10.2 6.8.2-5.3-4.3-3.1 2.7-.6 8.2 4.7 5.8-.9V162l5.4.1 1.5-4.4 14.5.6-9.5 2.2-5.8 15 7.2 11.6 3.6-1.9v6.2l4.6-5.2 5.8.8-2 6.3 1.8 1.1-5.8 4.1 1.8 7.1-3.2 5.5 3.6 4.2 4.2 3.3 3.5.3-2.4 1.5-3.9.2-3.4-4.2-3.2 1.1 2.6 4.1 2.9 1.6-4.5-.8-3.6-3.3-9.4 2.7-4.3-.6-9.6 4.2-5 6.4-7 4-3 3.9 4.5-.7 2.2.7.7-2.4 9.8-2.4-.9 4.8 3.5 3.3-3.7 2.4 2.1 3.5 2.4.5-6.5 11.1-4.7 1.5-4.6 3.1-2.3.1-6 3.4h-4.4l-6.9 4.2 5.5.8.3 3.6-4 1.7 7.1 1.1-1.8 1.6 2.8 1.3 4-1 4.6-2.5 7.6-2.4.7 3.2 6 1.4-4.9 1.2-.5 2.6 8.2.2v-1.5l4.2-1 4.1 4.4 3.8 4 9.4-.1 2.2-3.4 4.5-1.8 6.1-2 2.3-3 5.1-2.2-7 7.4-7 6-.3 7.2-4.7-.2-3.8 1.3-4.3-2.1-12.3-1.2-8.7 2.1.1 4-3.6 3.1-4.8.1-.8 9-5.2 4.3-1.3 2.4-5.6.8-1.4 5.2h-2.5l-1.3 2.8-6.9 4.5-3.2-1-4.8 3.1v4l5.2.3.1-3.6 6.4 1.6 2.6 4.2 3.1-2.7-1.4-2.1 2.9-3.4 1.5 1.6 3.5-3 2.4-.1 1.7-3.9 5.4 1.3 4.2-1.8 3.4.5 2.5-1.3 2.5 3 3-.2 4 3 4.7-.2-.9-2.8 3.7-1.5 1-2.6-1-4.5 3.3-2.9 2.6-.3 1.1-1.8 10.4-2.3 5.5.4 6.3 4 2.4-.8 6.8.2 3.6 1.3 1.8-4 6.4-2.9 4.4 1.1 6.1-3.7 4.4.8 2.2-.3 3-2.1.8 2.1 3.8 2 4.2-2.6 9.5-.2 6.1-1 5.8 1.6 2.8.5 4.4-3.2 4.8-.8 4.3-3.6 2.9-.2 3 .6-.7-3 6.8-4.2 4.2-.8.3-3.9-1.1-2.7 1.3-3.2-7.7.3-5.5 1.9-3.2.5-5.2-1.7-1.8-.4 1.7-1.5 1.6-.1.4-.9-4.6-1.1-4 1.3 5.6-3.5 3.7.4 4.5-2-1.3-3.5H288l3.3-2.6 2.4-2.2 2.7 2.1 4.1-2.7 1.7-2.3-2.1-.4 1.4-1.9-4.7-.4 1.9-2.9 3 .7-4.1 13.7 8.4-15.7 3.3-1.3.6-7.8 3.1-7.2-2.4-3.1zm-168.7-57.3l-2.3 6.8 4.9-.7 7-6.4-1.2-2.8 1-4.4-9.4 7.5zm11.3 38.6l7-4.9-5.1.5-2.3-4.4-6 .7-1.5 4.4 7.9 3.7zm82.3 89.4l-7.8 3.7 3.8.7 4 2.5 3.9-.6v-1.8l1.9-2.9-2.9.3-2.9-1.9zM93.7 48l-2.5 1.1-1.1 2.2-1.9 1 3.6 2.6 6.4-5.1-4.5-1.8zm41.4 78.6l-2.4-2.2-.4 3.6 3.2 2.4-.4-3.8zM86.8 60.7l.3-3-7.2-.7-2.3 1.1 4.1 3.6 5.1-1zm1.6-15.9l2.7 2.1 5-.8 5.1 1.2 3.7-4.8-1.8-1.2 1.7-3.8 5-4.3-.9-6.8-13.1 8.4 1.5 4-6.1-2.5-3.3 3.7 3.2 3-2.7 1.8zm.5 58.8L94 100l-4.7-.3-.4 3.9zM78.7 79.7l-2.2 2.6-.4 2.8L80 83l-1.3-3.3zm1.6-15.8v1.6l3.6 1.3 1.5-3.6-5.1.7zm3.1 4l-3-.5.3 3.1-1.6 3.3 1.1 3.6 3.4.7-1.1-4.4L84 71l-.6-3.1z" class="f"/><g fill="#ebebeb"><path d="M144.1 122.3c-4.5-.7-8.8 2-9.5 6.2L115.5 246c-.7 4.2 2.5 8.1 7 8.9l53.8 8.8c4.5.7 8.8-2 9.5-6.2L205 140c.7-4.2-2.5-8.1-7-8.9l-53.9-8.8z"/><path d="M200.1 173.1c-.1.5-.5.9-.8.8s-.5-.5-.5-1l2.1-13.2c.1-.5.5-.9.8-.8s.5.5.5 1l-2.1 13.2z"/><use xlink:href="#B"/><use xlink:href="#B" x="1.7" y="-10.6"/><path d="M132.6 143.8c-.1.5-.4.9-.7.8s-.5-.5-.4-1l.8-5.1c.1-.5.4-.9.7-.8s.5.5.4 1l-.8 5.1z"/></g><path d="M185.9 257.1c-.6 4-4.6 6.7-9 6l-53.9-8.3c-4.3-.7-7.4-4.5-6.8-8.4l18.1-117.7c.6-4 4.6-6.7 9-6l53.9 8.3c4.3.7 7.4 4.5 6.8 8.4l-18.1 117.7z" stroke="#2195ff" class="d e"/><path d="M119.227 239.74l16.97-104.227 64.945 10.574-16.97 104.227zM160.8 132.4c-.1.4.2.7.7.8l18.5 3c.4.1.8-.2.9-.5h0c.1-.4-.2-.7-.7-.8l-18.5-3c-.5-.1-.8.1-.9.5h0z" class="f"/><path d="M155.4 131.6c-.1.6.4 1.2 1 1.3.7.1 1.3-.3 1.4-.9s-.4-1.2-1-1.3c-.7-.2-1.3.3-1.4.9z" fill="#f7f9f2"/><path d="M125.1 228.2s4.1 2.8 5.2 5.3c.4 1 1 4.3 1 4.3s.3-2.3-.5-4.7c-1-2.9-5.4-4.9-5.5-5l-.2.1z" opacity=".2" fill="#feb783" enable-background="new"/><ellipse cx="151" cy="252.1" rx="4.4" ry="4.1" class="f"/><circle cx="188.6" cy="198.5" r="35.1" fill="#cbf4e7" stroke="#cbf4e7" stroke-width="6"/><path d="M159.6 178.6a33.75 33.75 0 0 0-5 10.9h16l-11-10.9zm19.1-13.8c-4 1.2-7.8 3.1-11.1 5.5l11.1 11.1v-16.6zm-10.2 62.5c3.1 2.2 6.6 3.8 10.3 4.9V217l-10.3 10.3zM155 208.9c1.2 3.8 2.9 7.3 5.2 10.4l10.4-10.4H155z" fill="#29337a"/><path d="M160.2 177.8c-.2.3-.4.5-.6.8l10.9 10.9h-16c-.3 1-.5 2-.6 3h21l-14.7-14.7zm7.4 48.9c.3.2.5.4.8.6l10.3-10.3v15.2c1 .3 2 .5 3 .7v-20.3l-14.1 14.1zm-13.4-20.8c.2 1 .5 2 .8 3h15.6l-10.4 10.4c1.1 1.5 2.4 3 3.7 4.3l17.7-17.7h-27.4zm24.5-41.1v16.6l-11.1-11.1c-1.5 1.1-3 2.4-4.3 3.8l18.4 18.4v-28.4l-3 .7z" class="d"/><path d="M178.7 208.8l-.1.1h.1zm2.9-2.9h.1v-.1zm13.6-13.3h-.1v.1zm-16.4-3l-.1-.1v.1zm2.9 2.9v.1h.1z" class="g"/><path d="M198.1 224.5v7.9c3.8-1.1 7.3-2.7 10.4-4.9L200 219c-.7 2.3-1 3.6-1.9 5.5zm1.9-45l9.3-9.3c-3.3-2.5-7.1-4.3-11.2-5.5v8.1c1.1 2.2 1.1 3.9 1.9 6.7zm16.8 39.9c2.3-3.2 4.2-6.7 5.4-10.6h-15.9l10.5 10.6zm5.7-29.8c-1.1-4.1-2.8-7.8-5.2-11.2l-11.2 11.2h16.4z" fill="#252f6c"/><path d="M202 206.5l14 14c.3-.3.5-.7.8-1l-10.6-10.6h15.9l.8-3h-20.7c0 .4-.1.2-.2.6zm-2.4-25.3l10.5-10.5c-.3-.2-.5-.4-.8-.6l-9.3 9.3c.1.4-.5 1.5-.4 1.8zm-1.5-9.1v-7.4c-1-.3-2-.5-3-.7v3.6c1.1 1.2 2.1 2.8 3 4.5zm3.7 20.5h21.4l-.6-3h-16.3l11.2-11.2c-1.1-1.6-2.3-3-3.6-4.4l-12.6 12.6.5 6zm-2.4 25.8l9 9c1.5-1 2.9-2.2 4.2-3.4l-11.9-11.9c-.3 2.2-.7 4.3-1.3 6.3zm-4.3 10.6v4l3-.7v-7.9c-.9 1.8-1.9 3.4-3 4.6z" fill="#e7e7e7"/><path d="M201.2 186.6l12.6-12.6c-1.1-1.2-2.3-2.2-3.6-3.2l-9.9 9.9c.4 1.8.6 3.9.9 5.9z" fill="#d71f28"/><g class="g"><path d="M186.8 163.4h0zm1.8 70.2h-1.8 1.8z"/><path d="M188.6 233.6a34.93 34.93 0 0 0 6.5-.6v-4c-1.9 2-4.1 4.6-6.5 4.6z"/></g><path d="M223.2 192.6h-21.1c.3 4.4.2 8.9-.1 13.3h20.9c.5-2.4.8-4.8.8-7.4 0-2-.2-4-.5-5.9zM202 206.5c-.2 2.1-.9 3.7-1.2 5.6l11.9 11.9c1.2-1.1 2.3-2.3 3.3-3.6l-11.6-11.6-2.4-2.3z" fill="#d71f28"/><path d="M195.1 167.9V164a34.93 34.93 0 0 0-6.5-.6c2.4 0 4.6 2.5 6.5 4.5z" class="g"/><path d="M198.1 226c.9-1.9 1.8-4.1 2.4-6.5l-2.4-2.4v8.9zm2.7-47.3c-.7-2.8-1.7-5.4-2.8-7.6v10.3l2.8-2.7z" fill="#29337a"/><path d="M202.7 207.2c0-.4.1-.8.1-1.3h-1.4l1.3 1.3zm-4.6-25.8v-10.3c-.9-1.8-1.9-3.3-3-4.5v19.3l6-6-.3-1.1-2.7 2.6zm-2.9 11.2h7.8l-.7-7-7.1 7zm-.1 37.9c1.1-1.2 2.1-2.7 3-4.5v-9l2.4 2.4c.6-2 1-4.1 1.4-6.3l-6.9-6.9.1 24.3z" class="d"/><path d="M195.1 230.5v-24.1l6.9 6.9.8-6.1-1.3-1.3h1.4c.3-4.4.4-8.9.1-13.3h-7.8l7-7c-.3-2-.7-3.9-1.1-5.8l-6 6v-19.3c-1.8-2-4-3.2-6.5-3.2h-1.8a44.29 44.29 0 0 0-5.1.6v28.4l-18.4-18.4c-1.1 1.2-2.2 2.4-3.1 3.7l14.8 14.8h-21c-.3 1.9-.5 3.9-.5 5.9 0 2.5.3 5 .8 7.4h27.4L164 223.6c1.2 1.1 2.4 2.2 3.7 3.2l14.1-14.1V233c1.7.3 3.3.5 5.1.6h1.8c2.3 0 4.5-1.1 6.4-3.1z" fill="#e51d35"/><circle cx="188.6" cy="199.1" r="20.9" fill="#00a651"/><circle cx="188.6" cy="199.1" r="20.9" fill="none" stroke="#fff" stroke-width="2"/><path d="M194.8 204.7c-.7-.7-1.9-.7-2.7 0l-1.9 1.9c-.1.1-.4.1-.6 0-.4-.1-.8-.4-1.2-.6-1.9-1.2-3.4-2.7-4.6-4.3-.6-.7-1.3-1.7-1.7-2.7v-.6l1.9-1.9c.8-.8.8-1.9 0-2.8l-2.8-2.8c-.7-.7-1.9-.7-2.7 0l-1.9 1.9c-.6.6-.8 1.3-.8 2 0 1.3.1 2.4.7 3.7.8 2.4 2.4 4.6 3.9 6.6 2.2 2.8 5.1 4.9 8.2 6.4 1.4.7 3 1.3 4.5 1.3 1.2 0 2-.1 3-1.2l1.7-1.7c.8-.8.8-1.9 0-2.7-1-.6-1.9-1.6-3-2.5zm-1-4.1l2-.4c-.4-1.9-1.2-3.4-2.4-4.6-1.3-1.3-3-2.2-5.1-2.4l-.1 2a5.37 5.37 0 0 1 3.7 1.9c1 1 1.6 2 1.9 3.5zm3-8.3c-2.2-2.2-5.1-3.6-8.2-4.1l-.1 2c2.7.4 5.1 1.4 7.1 3.6 1.9 1.9 3 4.1 3.6 6.6l2-.4c-.8-3-2.3-5.6-4.4-7.7z" class="d"/><path d="M203.4 165.5s53.7 19.1 102.2-46.7c27.5-37.4 23.5-40 23.5-40" fill="none" class="e h i"/><path d="M333.3 60.8L315 75.2l28.8 7.5z" fill="#a5d6c6"/><path d="M216 224.7s72.1 47.2 143 6.5c40.3-23.1 37.7-27.1 37.7-27.1" fill="none" class="e h i"/><path d="M407.7 189.4l-22.6 5.8 23.3 18.5z" fill="#a5d6c6"/><path d="M228.1 208.9s59.9 39.1 112-31.6l27.1-37.7" fill="none" class="e h i"/><defs><circle id="A" cx="375.5" cy="128.7" r="32.9"/><path id="B" d="M129 165.7c-.1.5-.4.9-.7.8s-.5-.5-.4-1l1.2-7.6c.1-.5.4-.9.7-.8s.5.5.4 1l-1.2 7.6z"/></defs><use xlink:href="#A" fill="#c4e5ff"/><clipPath id="C"><use xlink:href="#A"/></clipPath><g clip-path="url(#C)"><path d="M387.1 143.1h-24.5c-6.1 0-9.5-7.1-5.6-11.9l.2-.3c1.7-2.1 2.7-4.7 2.7-7.4v-4.7a14.98 14.98 0 1 1 30 0v4.9c0 2.7 1 5.4 2.7 7.5 4 4.8.6 11.9-5.5 11.9z" fill="#c59191"/><path d="M400 155.3v16.2h-50.3v-16.1a9.08 9.08 0 0 1 5.5-8.3l8.1-3.5 2.7-1.2c2.1-.9 3.4-3 3.4-5.2v-1.1h10.7v1c0 2.3 1.4 4.3 3.4 5.2l11 4.7c3.3 1.5 5.5 4.7 5.5 8.3h0z" class="d"/><path d="M363.3 147.4c2.8.8 6.9 1.7 11.8 1.6 4.7-.1 8.5-1 11.2-1.8l1.3-3.2-4-1.7c-2.1-.9-3.4-3-3.4-5.2v-1h-10.7v1c0 2.3-1.3 4.3-3.4 5.2l-3.3 1.4.5 3.7z" fill="#ffcebf"/><g fill="#8795de"><path d="M394.6 147l-8.3-3.5v28.1H400v-16.2c0-3.7-2.2-6.9-5.4-8.4h0zm-31.3-3.5v28h-13.7v-16.1a9.08 9.08 0 0 1 5.5-8.3l8.2-3.6z"/></g><path d="M378.5 142c1.2 0 2.4-.2 3.5-.7-1.1-1.1-1.8-2.6-1.8-4.2v-1h-10.7v1c0 .8-.2 1.6-.5 2.3 1.6 1.5 3.8 2.5 6.2 2.5l3.3.1z" fill="#ffb09e"/><path d="M385.5 120v8.8a8.96 8.96 0 0 1-9 9h-3.3a8.96 8.96 0 0 1-9-9V120c0-3.2 2.6-5.9 5.9-5.9h9.6c3.1 0 5.8 2.7 5.8 5.9h0z" fill="#ffcebf"/><path d="M385.5 124.6c-.3 1.2-1.2 3.3-3.3 4.9-1 .7-2.1 1.3-3.3 1.6-.5.1-.9.7-.7 1.2.1.5.5.8 1 .8h.3c1.5-.4 2.8-1 4-2 .8-.6 1.5-1.3 2-2v-4.5z" fill="#7a6d79"/><path d="M377.8 133.9h-2.4c-1.1 0-2-.9-2-2s.9-2 2-2h2.4c1.1 0 2 .9 2 2s-.9 2-2 2z" fill="#685e68"/><path d="M376.9 111.8c.2-2.9 3-4.8 5.6-5.8 4.4 2.6 7.3 7.4 7.3 12.9v1c-.2.1-.5.1-.7.1-1.5.2-2.7.1-3.5 0-5.5-.7-9-4.7-8.7-8.2z" fill="#b98080"/><path d="M374.9 103.9c3.4 0 6.5 1.1 9 3-1.3 2.2-4.1 6.5-9.5 9.7a26.27 26.27 0 0 1-10.1 3.5h-4.4v-1.2c-.1-8.3 6.7-15 15-15z" fill="#c59191"/><path d="M391.6 171.5H359l-1.8-17c-.1-1.2.8-2.3 2-2.3h32.2c1.2 0 2.2 1.1 2 2.3l-1.8 17z" fill="#efedef"/><path d="M391.4 152.3h-4.1c1.2 0 2.2 1.1 2 2.3l-1.8 17h4.1l1.8-17c.2-1.3-.8-2.3-2-2.3z" fill="#e5e1e5"/><g fill="#c9bfc8"><path d="M401.5 172.6h-66.7c-.6 0-1-.5-1-1a1.08 1.08 0 0 1 1-1h66.7c.6 0 1 .5 1 1s-.4 1-1 1z"/><circle cx="375.3" cy="161.9" r="2.9"/></g></g><path d="M422.2 111.1c0 5.2-2.1 8.4-6.1 8.4-3.8 0-5.9-3.4-5.9-8.2 0-5 2.2-8.3 6.1-8.3 4.1-.1 5.9 3.3 5.9 8.1zm-8.8.1c0 3.9 1.1 5.9 2.8 5.9 1.8 0 2.8-2.2 2.8-6 0-3.7-.9-5.9-2.8-5.9-1.6 0-2.8 2-2.8 6zm10.6 3.9c0-2 1.2-3.4 3.1-4.2v-.1c-1.7-.8-2.5-2.1-2.5-3.6 0-2.6 2.4-4.4 5.6-4.4 3.6 0 5.2 2.1 5.2 4 0 1.4-.7 2.8-2.6 3.6v.1c1.8.7 3.2 2 3.2 4 0 2.9-2.5 4.8-6.1 4.8-3.9.2-5.9-2-5.9-4.2zm8.8-.2c0-1.6-1.3-2.5-3.1-3-1.6.4-2.5 1.5-2.5 2.8-.1 1.4 1 2.6 2.8 2.6 1.7 0 2.8-1 2.8-2.4zm-5.2-7.8c0 1.3 1.1 2.1 2.7 2.5 1.1-.3 2.1-1.2 2.1-2.4 0-1.1-.7-2.3-2.4-2.3-1.6.1-2.4 1.1-2.4 2.2zm22.1 4c0 5.2-2.1 8.4-6.1 8.4-3.8 0-5.9-3.4-5.9-8.2 0-5 2.2-8.3 6.1-8.3 4-.1 5.9 3.3 5.9 8.1zm-8.8.1c0 3.9 1.1 5.9 2.8 5.9 1.8 0 2.8-2.2 2.8-6 0-3.7-.9-5.9-2.8-5.9-1.7 0-2.8 2-2.8 6zm22.5-.1c0 5.2-2.1 8.4-6.1 8.4-3.8 0-5.9-3.4-5.9-8.2 0-5 2.2-8.3 6.1-8.3 4-.1 5.9 3.3 5.9 8.1zm-8.8.1c0 3.9 1.1 5.9 2.8 5.9 1.8 0 2.8-2.2 2.8-6 0-3.7-.9-5.9-2.8-5.9-1.6 0-2.8 2-2.8 6z" class="d"/></svg>