<svg xmlns="http://www.w3.org/2000/svg" xmlns:xlink="http://www.w3.org/1999/xlink" width="445" height="334" xmlns:v="https://vecta.io/nano"><style><![CDATA[.BF{fill:#fdbe10}.BG{fill:#cc9d2b}.BH{fill:#e1ac24}.BI{fill:#fddb00}.BJ{enable-background:new}.BK{fill:#f1d112}.BL{fill:#fff}.BM{fill:#fac2b0}.BN{fill:#a5a5e6}.BO{opacity:.1}.BP{fill:#253563}.BQ{fill:#a8b7e3}.BR{fill:#ad8989}.BS{fill:#b8b8ff}.BT{fill:#f788cb}.BU{fill:#b1b1f7}.BV{fill:#3a3767}]]></style><path d="M118.2 185l131.9 76.1c1.6.9 4.3.9 5.9 0l91.8-53c1.6-.9 1.6-2.5 0-3.4l-131.9-76.1c-1.6-.9-4.3-.9-5.9 0l-91.8 53c-1.6 1-1.6 2.5 0 3.4z" opacity=".5" fill="#36298c"/><linearGradient id="A" gradientUnits="userSpaceOnUse" x1="116.999" y1="218.979" x2="348.966" y2="218.979"><stop offset="0" stop-color="#9494ff"/><stop offset=".623" stop-color="#b7a5f6"/><stop offset="1" stop-color="#b796f6"/></linearGradient><path d="M250.1 254.8c1.6.9 4.3.9 5.9 0l91.8-53c.8-.5 1.2-.1 1.2-.1v2.5c0 .6-.4 1.2-1.2 1.7l-91.8 53c-1.6.9-4.3.9-5.9 0l-131.9-76.1c-.8-.5-1.2-1.1-1.2-1.7h0v-2.6l133.1 76.3z" fill="url(#A)"/><path d="M349 201.5h0z" fill="#2d313d"/><linearGradient id="B" gradientUnits="userSpaceOnUse" x1="213.058" y1="104.213" x2="352.243" y2="104.213"><stop offset="0" stop-color="#9795ff"/><stop offset=".623" stop-color="#b7a5f6"/><stop offset="1" stop-color="#b796f6"/></linearGradient><path d="M213.1 10.3l2.5-1.6c.5-.2 1.1-.1 1.8.3l131.9 76.1c1.6.9 2.9 3.2 2.9 5.1v106c0 1.2-.5 1.8-1.3 2.2l-2.1 1.3-131.4-77.9c-1.6-.9-2.9-3.2-2.9-5.1v-105l-1.4-1.4z" fill="url(#B)"/><linearGradient id="C" gradientUnits="userSpaceOnUse" x1="212.187" y1="104.978" x2="349.961" y2="104.978"><stop offset="0" stop-color="#f5f0ff"/><stop offset="1" stop-color="#f1e8ff"/></linearGradient><path d="M215.1 123.3L347 199.4c1.6.9 2.9.2 2.9-1.7v-106c0-1.9-1.3-4.2-2.9-5.1L215.1 10.5c-1.6-.9-2.9-.2-2.9 1.7v106c0 1.9 1.3 4.1 2.9 5.1z" fill="url(#C)"/><linearGradient id="D" gradientUnits="userSpaceOnUse" x1="269.77" y1="46.97" x2="298.229" y2="193.011"><stop offset="0" stop-color="#4c4887"/><stop offset=".238" stop-color="#4f4b8a"/><stop offset=".436" stop-color="#595495"/><stop offset=".619" stop-color="#6a63a6"/><stop offset=".793" stop-color="#8179be"/><stop offset=".959" stop-color="#9f94dd"/><stop offset="1" stop-color="#a79ce6"/></linearGradient><path d="M347 194.3V91.7c0-.9-.7-2.1-1.5-2.5L216.6 14.8c-.8-.5-1.5-.1-1.5.8v102.6c0 .9.7 2.1 1.5 2.5l128.9 74.4c.9.5 1.5.2 1.5-.8z" fill="url(#D)"/><linearGradient id="E" gradientUnits="userSpaceOnUse" x1="117" y1="189.985" x2="348.968" y2="189.985"><stop offset="0" stop-color="#f5f0ff"/><stop offset="1" stop-color="#f1e8ff"/></linearGradient><path d="M118.2 180.1l131.9 76.1c1.6.9 4.3.9 5.9 0l91.8-53c1.6-.9 1.6-2.5 0-3.4l-131.9-76.1c-1.6-.9-4.3-.9-5.9 0l-91.8 53c-1.6.9-1.6 2.5 0 3.4z" fill="url(#E)"/><linearGradient id="F" gradientUnits="userSpaceOnUse" x1="215.183" y1="136.837" x2="347.02" y2="136.837"><stop offset="0" stop-color="#fafaff"/><stop offset="1" stop-color="#f8efff"/></linearGradient><path d="M279.9 78.3l-64.7 40.4c.2.8.7 1.7 1.4 2.1l128.9 74.4c.8.5 1.5.1 1.5-.8v-78l-67.1-38.1z" opacity=".05" fill="url(#F)"/><linearGradient id="G" gradientUnits="userSpaceOnUse" x1="269.463" y1="123.807" x2="284.442" y2="253.622"><stop offset="0" stop-color="#ebe7ff"/><stop offset="1" stop-color="#ede3ff"/></linearGradient><path d="M211.6 123.1c1.4-.3 3.1-.1 4.2.6l131.9 76.1c1.6.9 1.6 2.5 0 3.4l-91.8 53c-1.6.9-4.3.9-5.9 0L211.6 234V123.1z" fill="url(#G)"/><g fill="#aeaccc"><use xlink:href="#k"/><use xlink:href="#l"/><use xlink:href="#m"/><use xlink:href="#l" x="-19.7" y="-11.4"/><use xlink:href="#m" x="-19.7" y="-11.4"/><use xlink:href="#n"/><use xlink:href="#o"/><use xlink:href="#n" x="-19.7" y="-11.4"/><use xlink:href="#o" x="-19.7" y="-11.4"/><use xlink:href="#m" x="-69" y="-39.8"/><use xlink:href="#m" x="-78.8" y="-45.5"/><use xlink:href="#m" x="-88.7" y="-51.2"/><use xlink:href="#l" x="-128.1" y="-39.8"/><use xlink:href="#o" x="-69" y="-5.7"/><use xlink:href="#n" x="-69" y="-5.7"/><use xlink:href="#l" x="4.9" y="14.2"/><use xlink:href="#m" x="4.9" y="14.2"/><use xlink:href="#m" x="-5" y="8.5"/><use xlink:href="#m" x="-5" y="31.3"/><use xlink:href="#l" x="-24.7" y="19.9"/><use xlink:href="#m" x="-24.7" y="19.9"/><use xlink:href="#m" x="-14.8" y="2.8"/><use xlink:href="#n" x="4.9" y="14.2"/><use xlink:href="#o" x="4.9" y="14.2"/><use xlink:href="#o" x="-5" y="8.5"/><use xlink:href="#n" x="-24.7" y="-2.9"/><use xlink:href="#m" x="-64.1" y="-25.6"/><use xlink:href="#l" x="-83.8" y="-37"/><use xlink:href="#m" x="-83.8" y="-37"/><path d="M215.4 145l-7 4c-.4.2-1 .2-1.3 0l-3.6-2.1c-.4-.2-1-.2-1.3 0l-8.5 4.9c-.4.2-1 .2-1.3 0l-7.4-4.3c-.4-.2-.4-.5 0-.8l9.2-5.3 3.2-1.9 4.4-2.5c.4-.2 1-.2 1.3 0l12.3 7.1c.4.3.4.7 0 .9zm78 65.2l12.3 7.1c.4.2 1 .2 1.3 0l7-4c.4-.2.4-.5 0-.8l-12.3-7.1c-.4-.2-1-.2-1.3 0l-7 4c-.4.2-.4.6 0 .8z"/><use xlink:href="#n" x="19.7" y="34.1"/><path d="M273.7 198.8l7.4 4.3c.4.2 1 .2 1.3 0l7-4c.4-.2.4-.5 0-.8L282 194c-.4-.2-1-.2-1.3 0l-7 4c-.4.3-.4.6 0 .8z"/><use xlink:href="#l" x="-39.4"/><use xlink:href="#m" x="-39.4"/><use xlink:href="#l" x="-59.1" y="-11.4"/><use xlink:href="#m" x="-59.1" y="-11.4"/><use xlink:href="#o" x="-29.6" y="5.7"/><use xlink:href="#o" x="-39.4"/><use xlink:href="#o" x="-49.3" y="-5.7"/><use xlink:href="#o" x="-59.1" y="-11.4"/><path d="M204.6 170.3l61.6 35.6c.4.2 1 .2 1.3 0l7-4c.4-.2.4-.5 0-.8l-61.6-35.6c-.4-.2-1-.2-1.3 0l-7 4c-.3.3-.3.6 0 .8z"/></g><g fill="#d8d8ff"><use xlink:href="#k" y="-0.7"/><use xlink:href="#l" y="-0.7"/><use xlink:href="#m" y="-0.7"/><use xlink:href="#p"/><use xlink:href="#o" x="19.7" y="10.7"/><use xlink:href="#n" y="-0.7"/><use xlink:href="#o" y="-0.7"/><use xlink:href="#l" x="-59.1" y="-34.8"/><use xlink:href="#m" x="-59.1" y="-34.8"/><use xlink:href="#m" x="-69" y="-40.5"/><use xlink:href="#m" x="-78.8" y="-46.2"/><use xlink:href="#m" x="-88.7" y="-51.9"/><use xlink:href="#l" x="-128.1" y="-40.5"/><use xlink:href="#m" x="-108.4" y="-29.1"/><use xlink:href="#l" x="-108.4" y="-29.1"/><use xlink:href="#l" x="4.9" y="13.5"/><use xlink:href="#m" x="4.9" y="13.5"/><path d="M288.4 195.3l7.4 4.3c.4.2 1 .2 1.3 0l7-4c.4-.2.4-.5 0-.8l-7.4-4.3c-.4-.2-1-.2-1.3 0l-7 4c-.4.2-.4.5 0 .8z"/><use xlink:href="#m" x="-5" y="30.6"/><use xlink:href="#l" x="-24.7" y="19.2"/><use xlink:href="#m" x="-24.7" y="19.2"/><use xlink:href="#o" x="24.6" y="24.9"/><use xlink:href="#l" x="-34.5" y="-9.2"/><use xlink:href="#m" x="-34.5" y="-9.2"/><use xlink:href="#m" x="-44.4" y="-14.9"/><use xlink:href="#l" x="-64.1" y="-26.3"/><use xlink:href="#m" x="-64.1" y="-26.3"/><use xlink:href="#l" x="-83.8" y="-37.7"/><use xlink:href="#m" x="-83.8" y="-37.7"/><path d="M215.4 144.3l-7 4c-.4.2-1 .2-1.3 0l-3.6-2.1c-.4-.2-1-.2-1.3 0l-8.5 4.9c-.4.2-1 .2-1.3 0l-7.4-4.3c-.4-.2-.4-.5 0-.8l9.2-5.3 3.2-1.9 4.4-2.5c.4-.2 1-.2 1.3 0l12.3 7.1c.4.4.4.7 0 .9zm78 65.2l12.3 7.1c.4.2 1 .2 1.3 0l7-4c.4-.2.4-.5 0-.8l-12.3-7.1c-.4-.2-1-.2-1.3 0l-7 4c-.4.3-.4.6 0 .8z"/><use xlink:href="#l" x="-19.7" y="10.7"/><use xlink:href="#m" x="-19.7" y="10.7"/><use xlink:href="#l" x="-39.4" y="-0.7"/><use xlink:href="#m" x="-39.4" y="-0.7"/><use xlink:href="#p" x="-39.4"/><use xlink:href="#o" x="-19.7" y="10.7"/><use xlink:href="#o" x="-29.6" y="5"/><use xlink:href="#o" x="-39.4" y="-0.7"/><use xlink:href="#m" x="-88.7" y="-29.1"/><use xlink:href="#m" x="-98.5" y="-34.8"/><path d="M204.6 169.7l61.6 35.6c.4.2 1 .2 1.3 0l7-4c.4-.2.4-.5 0-.8l-61.6-35.6c-.4-.2-1-.2-1.3 0l-7 4c-.3.2-.3.6 0 .8z"/></g><path d="M173.3 197.9l44 25.4c1.6.9 4.3.9 5.9 0l26.7-15.4c1.6-.9 1.6-2.5 0-3.4l-44-25.4c-1.6-.9-4.3-.9-5.9 0l-26.7 15.4c-1.6 1-1.6 2.5 0 3.4z" fill="#e1e1fc"/><path d="M249.9 205.2l-44-25.4c-1.6-.9-4.3-.9-5.9 0l-26.7 15.4c-.7.4-1 .9-1.2 1.4-.2-.7.2-1.5 1.2-2l26.7-15.4c1.6-.9 4.3-.9 5.9 0l44 25.4c1 .6 1.3 1.3 1.2 2-.1-.6-.5-1-1.2-1.4z" fill="#d2d0f6"/><path d="M301.2 176.1h0z" fill="#fbf0ff"/><linearGradient id="H" gradientUnits="userSpaceOnUse" x1="282.837" y1="136.16" x2="282.837" y2="58.306"><stop offset="0" stop-color="#f8efff"/><stop offset="1" stop-color="#fafaff"/></linearGradient><path d="M333.9 176l-102.2-59c-.8-.5-1.5-1.6-1.5-2.6V34.5c0-.9.7-1.3 1.5-.9l102.2 59c.8.5 1.5 1.6 1.5 2.6v79.9c0 1-.7 1.4-1.5.9z" fill="url(#H)" class="BO"/><g class="BO"><linearGradient id="I" gradientUnits="userSpaceOnUse" x1="230.178" y1="88.155" x2="248.841" y2="88.155"><stop offset="0" stop-color="#fafaff"/><stop offset="1" stop-color="#f8efff"/></linearGradient><path d="M248.8 126.9l-17.2-9.9c-.8-.5-1.5-1.6-1.5-2.6v-65l18.7 10.8v66.7z" fill="url(#I)"/><linearGradient id="J" gradientUnits="userSpaceOnUse" x1="293.377" y1="94.672" x2="298.35" y2="94.672"><stop offset="0" stop-color="#fafaff"/><stop offset="1" stop-color="#f8efff"/></linearGradient><path d="M298.3 103.9l-4.9-2.8V85.4l4.9 2.9z" fill="url(#J)"/><linearGradient id="K" gradientUnits="userSpaceOnUse" x1="300.511" y1="98.79" x2="305.484" y2="98.79"><stop offset="0" stop-color="#fafaff"/><stop offset="1" stop-color="#f8efff"/></linearGradient><path d="M305.5 108.1l-5-2.9V89.5l5 2.9z" fill="url(#K)"/><linearGradient id="L" gradientUnits="userSpaceOnUse" x1="307.646" y1="105.437" x2="312.618" y2="105.437"><stop offset="0" stop-color="#fafaff"/><stop offset="1" stop-color="#f8efff"/></linearGradient><path d="M312.6 117.2l-5-2.8V93.6l5 2.9z" fill="url(#L)"/><linearGradient id="M" gradientUnits="userSpaceOnUse" x1="314.78" y1="107.028" x2="319.753" y2="107.028"><stop offset="0" stop-color="#fafaff"/><stop offset="1" stop-color="#f8efff"/></linearGradient><path d="M319.8 116.3l-5-2.9V97.8l5 2.8z" fill="url(#M)"/><linearGradient id="N" gradientUnits="userSpaceOnUse" x1="321.914" y1="111.147" x2="326.887" y2="111.147"><stop offset="0" stop-color="#fafaff"/><stop offset="1" stop-color="#f8efff"/></linearGradient><path d="M326.9 120.4l-5-2.9v-15.6l5 2.9z" fill="url(#N)"/><linearGradient id="O" gradientUnits="userSpaceOnUse" x1="233.33" y1="67.198" x2="245.689" y2="67.198"><stop offset="0" stop-color="#fafaff"/><stop offset="1" stop-color="#f8efff"/></linearGradient><path d="M245.7 77.9l-12.4-7.1V56.5l12.4 7.1z" fill="url(#O)"/><linearGradient id="P" gradientUnits="userSpaceOnUse" x1="233.33" y1="81.725" x2="245.689" y2="81.725"><stop offset="0" stop-color="#fafaff"/><stop offset="1" stop-color="#f8efff"/></linearGradient><path d="M245.7 86.6l-12.4-7.1v-2.7l12.4 7.1z" fill="url(#P)"/><linearGradient id="Q" gradientUnits="userSpaceOnUse" x1="293.377" y1="133.773" x2="326.887" y2="133.773"><stop offset="0" stop-color="#fafaff"/><stop offset="1" stop-color="#f8efff"/></linearGradient><path d="M326.9 144.8l-33.5-19.4v-2.6l33.5 19.3z" fill="url(#Q)"/><linearGradient id="R" gradientUnits="userSpaceOnUse" x1="293.377" y1="130.294" x2="295.863" y2="130.294"><stop offset="0" stop-color="#fafaff"/><stop offset="1" stop-color="#f8efff"/></linearGradient><path d="M295.9 132.4l-2.5-1.5v-2.7l2.5 1.5z" fill="url(#R)"/><linearGradient id="S" gradientUnits="userSpaceOnUse" x1="293.376" y1="135.77" x2="295.863" y2="135.77"><stop offset="0" stop-color="#fafaff"/><stop offset="1" stop-color="#f8efff"/></linearGradient><path d="M295.9 137.8l-2.5-1.4v-2.7l2.5 1.4z" fill="url(#S)"/><linearGradient id="T" gradientUnits="userSpaceOnUse" x1="233.33" y1="88.155" x2="245.689" y2="88.155"><stop offset="0" stop-color="#fafaff"/><stop offset="1" stop-color="#f8efff"/></linearGradient><path d="M245.7 93.1l-12.4-7.2v-2.7l12.4 7.2z" fill="url(#T)"/><linearGradient id="U" gradientUnits="userSpaceOnUse" x1="293.377" y1="111.206" x2="298.349" y2="111.206"><stop offset="0" stop-color="#fafaff"/><stop offset="1" stop-color="#f8efff"/></linearGradient><path d="M298.3 121.3l-4.9-2.8v-17.4l4.9 2.8z" fill="url(#U)"/><linearGradient id="V" gradientUnits="userSpaceOnUse" x1="300.511" y1="112.953" x2="305.484" y2="112.953"><stop offset="0" stop-color="#fafaff"/><stop offset="1" stop-color="#f8efff"/></linearGradient><path d="M305.5 125.5l-5-2.9v-22.2l5 2.9z" fill="url(#V)"/><linearGradient id="W" gradientUnits="userSpaceOnUse" x1="307.645" y1="121.971" x2="312.618" y2="121.971"><stop offset="0" stop-color="#fafaff"/><stop offset="1" stop-color="#f8efff"/></linearGradient><path d="M312.6 129.6l-5-2.9v-12.3l5 2.8z" fill="url(#W)"/><linearGradient id="X" gradientUnits="userSpaceOnUse" x1="314.78" y1="122.33" x2="319.752" y2="122.33"><stop offset="0" stop-color="#fafaff"/><stop offset="1" stop-color="#f8efff"/></linearGradient><path d="M319.8 133.7l-5-2.9V111l5 2.8z" fill="url(#X)"/><linearGradient id="Y" gradientUnits="userSpaceOnUse" x1="321.914" y1="124.156" x2="326.887" y2="124.156"><stop offset="0" stop-color="#fafaff"/><stop offset="1" stop-color="#f8efff"/></linearGradient><path d="M326.9 137.8l-5-2.9v-24.4l5 2.9z" fill="url(#Y)"/><linearGradient id="Z" gradientUnits="userSpaceOnUse" x1="297.348" y1="141.068" x2="326.886" y2="141.068"><stop offset="0" stop-color="#fafaff"/><stop offset="1" stop-color="#f8efff"/></linearGradient><path d="M326.9 150.3l-29.6-17.1v-1.3l29.6 17z" fill="url(#Z)"/><linearGradient id="a" gradientUnits="userSpaceOnUse" x1="297.348" y1="146.545" x2="326.886" y2="146.545"><stop offset="0" stop-color="#fafaff"/><stop offset="1" stop-color="#f8efff"/></linearGradient><path d="M326.9 155.7l-29.6-17v-1.4l29.6 17.1z" fill="url(#a)"/></g><linearGradient id="b" gradientUnits="userSpaceOnUse" x1="296.654" y1="85.816" x2="246.538" y2="149.962"><stop offset="0" stop-color="#fff"/><stop offset=".268" stop-color="#f9f8fe"/><stop offset=".66" stop-color="#e9e4fc"/><stop offset=".995" stop-color="#d7cefa"/></linearGradient><path d="M331.7 177.5l-102.2-59c-.8-.5-1.5-1.6-1.5-2.6V36c0-.9.7-1.3 1.5-.9l102.2 59c.8.5 1.5 1.6 1.5 2.6v79.9c-.1 1-.7 1.4-1.5.9z" fill="url(#b)"/><path d="M246.6 128.4l-17.2-9.9c-.8-.5-1.5-1.6-1.5-2.6v-65l18.7 10.8v66.7z" class="BS"/><path d="M296.1 105.4l-5-2.8V86.9l5 2.9zm7.1 4.2l-4.9-2.9V91l4.9 2.9zm7.2 9.1l-5-2.8V95.1l5 2.9zm7.1-.9l-5-2.9V99.3l5 2.8zm7.1 4.1l-4.9-2.9v-15.6l4.9 2.8z" fill="#e6e6ff"/><path d="M243.4 79.4l-12.3-7.1V58l12.3 7.1zm0 8.7L231.1 81v-2.7l12.3 7.1z" class="BL"/><path d="M324.6 149.2l-33.5-19.3v-2.7l33.5 19.3zm-31-12.4l-2.5-1.4v-2.7l2.5 1.4zm0 5.5l-2.5-1.5v-2.7l2.5 1.5z" class="BS"/><path d="M243.4 94.6l-12.3-7.2v-2.7l12.3 7.2z" class="BL"/><path d="M296.1 122.8l-5-2.8v-17.4l5 2.8zm7.1 4.2l-4.9-2.9v-22.2l4.9 2.9zm7.2 4.1l-5-2.9v-12.3l5 2.8zm7.1 4.1l-5-2.9v-19.8l5 2.8zm7.1 4.1l-4.9-2.9V112l4.9 2.9zm0 15.4l-29.5-17.1v-1.3l29.5 17.1zm0 5.5l-29.5-17.1v-1.3l29.5 17z" class="BS"/><path d="M225.2 25.8c0 .6-.4.8-.9.5a2.04 2.04 0 0 1-.9-1.6c0-.6.4-.8.9-.5a2.04 2.04 0 0 1 .9 1.6zm4.4 2.5c0 .5-.3.7-.8.4-.4-.2-.8-.8-.8-1.3s.3-.7.8-.4c.5.2.8.8.8 1.3zm4.1 2.4c0 .4-.3.6-.6.4s-.6-.7-.6-1.1.3-.6.6-.4.6.7.6 1.1z" class="BL"/><path d="M268.2 90.3c-1.4-.8-2.7-1.1-3.8-1L259.9 78c2.4-.2 5.2.5 8.2 2.2l.1 10.1zm14.7 8c-1.5-3.7-3.5-7.3-6-10.4l-4.4 6.3c1.1 1.5 2.1 3.1 2.8 4.8l7.6-.7zm-10.4 12l4.4 11.4c2.5-.3 4.6-1.5 6-3.5l-7.6-9.5c-.7.9-1.7 1.4-2.8 1.6zm4.2-22.7c-2.4-3-5.2-5.6-8.2-7.3v10.2c1.4.8 2.7 2 3.8 3.4l4.4-6.3zm-23 13.7c1.5 3.7 3.5 7.3 6 10.4l4.4-6.3c-1.1-1.5-2.1-3.1-2.8-4.8l-7.6.7zm10.4-12L259.7 78c-2.5.3-4.6 1.5-6 3.5l7.6 9.5c.7-1 1.7-1.5 2.8-1.7zm21.1 20.2c0-3.5-.8-7.2-2.2-10.8l-7.6.7c.6 1.7 1 3.4 1 5l8.8 5.1zm-33.9-19.3c0 3.5.8 7.2 2.2 10.8l7.6-.7c-.6-1.7-1-3.4-1-5l-8.8-5.1zm2.2-8.6c-1.4 2-2.2 4.8-2.2 8.2l8.8 5.1c0-1.6.4-2.9 1-3.8l-7.6-9.5zm6.4 30.4c2.4 3 5.2 5.6 8.2 7.3v-10.2c-1.4-.8-2.7-2-3.8-3.4l-4.4 6.3zm8.5 7.5c3 1.7 5.8 2.4 8.2 2.2l-4.4-11.4c-1.1.1-2.4-.2-3.8-1v10.2zM283 118c1.4-2 2.2-4.8 2.2-8.2l-8.8-5.1c0 1.6-.4 2.9-1 3.8l7.6 9.5z" fill="#dfd6fb"/><path d="M266.3 91.1c-1.4-.8-2.7-1.1-3.8-1l-4.4-11.4c2.4-.2 5.2.5 8.2 2.2v10.2z" class="BT"/><path d="M273.4 99.8c-.7-1.7-1.7-3.4-2.8-4.8l4.4-6.3c2.5 3.1 4.6 6.7 6 10.4l-7.6.7z" fill="#f7c8e5"/><path d="M273.4 109.5l7.6 9.5c-1.5 2-3.5 3.2-6 3.5l-4.4-11.4c1.1-.2 2.1-.7 2.8-1.6z" class="BL"/><path d="M270.4 94.7c-1.1-1.4-2.4-2.6-3.8-3.4V81.1c3 1.8 5.8 4.3 8.2 7.3l-4.4 6.3z" fill="#f7adda"/><path d="M259.4 101.4c.7 1.7 1.7 3.4 2.8 4.8l-4.4 6.3c-2.5-3.1-4.6-6.7-6-10.4l7.6-.7z" class="BN"/><path d="M259.4 91.8l-7.6-9.5c1.5-2 3.5-3.2 6-3.5l4.4 11.4c-1.1.1-2.1.6-2.8 1.6z" fill="#ccf"/><path d="M274.6 105.2c0-1.6-.4-3.3-1-5l7.6-.7c1.4 3.6 2.2 7.3 2.2 10.8l-8.8-5.1z" class="BL"/><path d="M258.3 96.1c0 1.6.4 3.3 1 5l-7.6.7c-1.4-3.6-2.2-7.3-2.2-10.8l8.8 5.1z" fill="#a8a8eb"/><path d="M259.3 91.9c-.6.9-1 2.2-1 3.8l-8.8-5.1c0-3.4.8-6.2 2.2-8.2l7.6 9.5z" class="BU"/><path d="M262.5 106.5c1.1 1.4 2.4 2.6 3.8 3.4v10.2c-3-1.8-5.8-4.3-8.2-7.3l4.4-6.3zm4 3.6c1.4.8 2.7 1.1 3.8 1l4.4 11.4c-2.4.2-5.2-.5-8.2-2.2v-10.2zm7-.8c.6-.9 1-2.2 1-3.8l8.8 5.1c0 3.4-.8 6.2-2.2 8.2l-7.6-9.5z" class="BL"/><path d="M277 288.5l-21.3 12.3c-1.1.6-2.9.6-4 0l-48.3-27.9c-1.1-.6-1.1-1.7 0-2.3l21.3-12.3c1.1-.6 2.9-.6 4 0l48.3 27.9c1.1.6 1.1 1.6 0 2.3z" class="BP"/><path d="M277 287.7L255.7 300c-1.1.6-2.9.6-4 0l-48.3-27.9c-.6-.3-.8-.8-.8-1.2v-2.1l22.2-11.3c1.1-.6 2.9-.6 4 0l49.1 26.9v2.2c-.1.4-.3.8-.9 1.1z" class="BQ"/><linearGradient id="c" gradientUnits="userSpaceOnUse" x1="202.547" y1="276.64" x2="277.858" y2="276.64"><stop offset="0" stop-color="#f5f0ff"/><stop offset="1" stop-color="#f1e8ff"/></linearGradient><path d="M277 285.6l-21.3 12.3c-1.1.6-2.9.6-4 0L203.4 270c-1.1-.6-1.1-1.7 0-2.3l21.3-12.3c1.1-.6 2.9-.6 4 0l48.3 27.9c1.1.6 1.1 1.6 0 2.3z" fill="url(#c)"/><path d="M271.7 281.9l-22.4 12.9-40.3-23.2 22.4-13z" class="BV"/><path d="M219.1 262.2l-3.9 2.2c-.2.1-.4.1-.6 0h0c-.2-.1-.2-.2 0-.3l3.9-2.2c.2-.1.4-.1.6 0h0c.2.1.2.2 0 .3z" fill="#2d313c"/><path d="M271.7 281.9l-38.9-22.5 7.2 30.1 9.3 5.3z" fill="#434078"/><path d="M268.5 292.1l-3.5 2c-.3.2-.5 0-.5-.3h0c0-.3.2-.7.5-.9l3.5-2c.3-.2.5 0 .5.3h0c0 .3-.3.7-.5.9z" fill="#2d313c"/><path d="M212.9 276.3l3.7 2.1c.2.1.4.4.4.6h0c0 .2-.2.3-.4.2l-3.7-2.1c-.2-.1-.4-.4-.4-.6h0c.1-.2.2-.3.4-.2z" fill="#bdceff"/><path d="M212.6 276.3h0z" fill="#5e5aa8"/><path d="M212.8 276.2h0l.1.1 3.7 2.1c.2.1.4.4.4.6h0c0 .1 0 .2-.1.2h0l.1-.1c.1 0 .1-.1.1-.2h0c0-.2-.2-.5-.4-.6l-3.7-2.1c0-.1-.1 0-.2 0h0z" fill="#6f82bf"/><path d="M207.8 273.3l3.7 2.1c.2.1.4.4.4.6h0c0 .2-.2.3-.4.2l-3.7-2.1c-.2-.1-.4-.4-.4-.6h0c.1-.2.2-.3.4-.2z" fill="#bdceff"/><path d="M207.5 273.3h0z" fill="#5e5aa8"/><path d="M207.7 273.2h0l.1.1 3.7 2.1c.2.1.4.4.4.6h0c0 .1 0 .2-.1.2h0l.1-.1c.1 0 .1-.1.1-.2h0c0-.2-.2-.5-.4-.6l-3.7-2.1c0 0-.1 0-.2 0h0z" fill="#6f82bf"/><path d="M302.8 311.2v.3-.3zm15.1 4.1c0 .1 0 .1 0 0h0z" class="BQ"/><path d="M147.3 132.2l13-7.5v-16.1l-13 7.5z" fill="#d963aa"/><path d="M134.4 124.8l12.9 7.4v-16.1l-12.9-7.5z" fill="#ab4d86"/><path d="M147.3 116.1l-12.9-7.5 13-7.5 12.9 7.4z" class="BT"/><path d="M132.9 140.4l12.8-7.4.2-29.4-13 7.5z" class="BN"/><path d="M120 133l12.9 7.4v-29.3l-12.9-7.4z" fill="#9696d1"/><path d="M132.9 111.1l-12.9-7.4 13-7.5 12.9 7.4z" fill="#cfcff7"/><path d="M118.4 148.7l13-7.5v-22.7l-13 7.5z" fill="#efe4ff"/><path d="M105.5 141.3l12.9 7.4V126l-12.9-7.4z" fill="#e3d9f2"/><path d="M118.4 126l-12.9-7.4 13-7.5 12.9 7.4z" fill="#f6efff"/><linearGradient id="d" gradientUnits="userSpaceOnUse" x1="174.677" y1="65.371" x2="211.27" y2="112.746"><stop offset="0" stop-color="#a5a5e6"/><stop offset=".013" stop-color="#a9a8e7"/><stop offset=".125" stop-color="#c5bdf2"/><stop offset=".19" stop-color="#d0c5f6"/><stop offset=".222" stop-color="#c1baf0"/><stop offset=".271" stop-color="#b1aeeb"/><stop offset=".327" stop-color="#a8a7e7"/><stop offset=".403" stop-color="#a5a5e6"/><stop offset=".594" stop-color="#d0c5f6"/><stop offset=".611" stop-color="#cdc2f5"/><stop offset=".747" stop-color="#b7b2ed"/><stop offset=".877" stop-color="#a9a8e8"/><stop offset=".995" stop-color="#a5a5e6"/></linearGradient><path d="M174.6 74.6l-1.9 1.1 1.9 4.6 3.8 2.9c.3 1.9.9 3.9 1.7 5.8l-2.3 2.2 3.5 6 3.1-.9c1.3 1.6 2.7 3.1 4.1 4.4l.6 4.7 3 4 1.9-1.1.6-4.1c1.5.5 2.9.6 4.1.4l3.1 4.5 3.5-2-2.3-4.9c.8-1 1.4-2.3 1.7-3.8l1.9 2.7 1.9-1.1v-5.7l-3.8-2.9c-.3-1.9-.9-3.9-1.7-5.8l2.3-2.2-3.5-6-3.1.9c-1.3-1.6-2.7-3.1-4.1-4.4l-.6-4.7-4.9-2.8-1.9 1.1 1.4 3c-1.5-.5-2.9-.6-4.1-.4l-3.1-4.5-3.5 2 2.3 4.9c-.8 1-1.4 2.3-1.7 3.8l-3.9-1.7zm17 4.8c3.8 2.2 6.8 7.5 6.8 11.8s-3 6.1-6.8 3.9-6.8-7.5-6.8-11.8 3-6.1 6.8-3.9z" fill="url(#d)"/><path d="M172.7 75.7v5.7l3.8 2.9c.3 1.9.9 3.9 1.7 5.8l-2.3 2.2 3.5 6 3.1-.9c1.3 1.6 2.7 3.1 4.1 4.4l.6 4.7 4.9 2.8.6-4.1c1.5.5 2.9.6 4.1.4l3.1 4.5 3.5-2-2.3-4.9c.8-1 1.4-2.3 1.7-3.8l3.8 1.6v-5.7l-3.8-2.9c-.3-1.9-.9-3.9-1.7-5.8l2.3-2.2-3.5-6-3.1.9c-1.3-1.6-2.7-3.1-4.1-4.4l-.6-4.7-4.9-2.8-.6 4.1c-1.5-.5-2.9-.6-4.1-.4l-3.1-4.5-3.5 2 2.3 4.9c-.8 1-1.4 2.3-1.7 3.8l-3.8-1.6zm16.9 4.8c3.8 2.2 6.8 7.5 6.8 11.8s-3 6.1-6.8 3.9-6.8-7.5-6.8-11.8 3.1-6.1 6.8-3.9z" fill="#f0f0ff"/><path d="M345.7 212.1c-1.5-.8-3.3-.4-4.3.9l-8 11.2-42.8 23.7v1.5c0 .4.2.8.7 1.1l35.2 20.3c1 .6 2.6.6 3.6 0l40.2-23.2c1.2-.7 2.3-1.7 3.1-2.8l6.7-9.4c.4-.5.5-1.1.5-1.7v-1.9c-.2-.6-34.9-19.7-34.9-19.7z" class="BQ"/><path d="M379.2 229.8l-33.6-19.4c-1.5-.8-3.3-.4-4.3.9l-8 11.2-42.1 24.3c-1 .6-1 1.5 0 2.1l35.2 20.3c1 .6 2.6.6 3.6 0l40.2-23.2c1.2-.7 2.3-1.7 3.1-2.8l6.7-9.4c1-1.3.6-3.2-.8-4z" fill="#4f478b"/><g fill="#8173e3"><use xlink:href="#q"/><use xlink:href="#r"/><use xlink:href="#r" x="-8.3" y="-4.8"/><use xlink:href="#s"/><use xlink:href="#t"/><use xlink:href="#u"/><use xlink:href="#v"/><path d="M352.7 251.7l-6.1-3.5c-.3-.2-.3-.5 0-.7l3.7-2.2a1.28 1.28 0 0 1 1.2 0l6.1 3.5c.3.2.3.5 0 .7l-3.7 2.2c-.3.2-.9.2-1.2 0z"/><use xlink:href="#r" x="-3.3" y="11.4"/><use xlink:href="#w"/><use xlink:href="#v" x="-5.8" y="3.4"/><use xlink:href="#s" x="-11.6" y="6.7"/><use xlink:href="#u" x="-3.3" y="11.5"/><use xlink:href="#v" x="-3.3" y="11.5"/><use xlink:href="#v" x="-11.6" y="6.7"/><use xlink:href="#w" x="10.8" y="12.9"/><use xlink:href="#v" x="-0.8" y="19.6"/><use xlink:href="#x"/><use xlink:href="#q" x="-39.7" y="3.8"/><use xlink:href="#y"/><path d="M313 255.5l-14.4-8.3c-.3-.2-.3-.5 0-.7l3.7-2.2a1.28 1.28 0 0 1 1.2 0l14.4 8.3c.3.2.3.5 0 .7l-3.7 2.2a1.28 1.28 0 0 1-1.2 0z"/><use xlink:href="#z"/></g><g class="BN"><use xlink:href="#t" x="5.8" y="-3.8"/><path d="M341.9 238.4l-6.1-3.5c-.3-.2-.3-.5 0-.7l3.7-2.2c.3-.2.9-.2 1.2 0l6.1 3.5c.3.2.3.5 0 .7l-3.7 2.2c-.3.1-.8.1-1.2 0z"/><use xlink:href="#u" x="-2.5" y="-8.5"/><use xlink:href="#t" x="14.1" y="1"/></g><g fill="#f6eeff"><use xlink:href="#s" x="-14.1" y="-1.8"/><use xlink:href="#r" x="-5.8" y="2.9"/></g><use xlink:href="#x" x="9.1" y="-15.2" class="BT"/><g fill="#f6eeff"><path d="M352.7 251.3l-6.1-3.5c-.3-.2-.3-.5 0-.7l3.7-2.2a1.28 1.28 0 0 1 1.2 0l6.1 3.5c.3.2.3.5 0 .7l-3.7 2.2a2.44 2.44 0 0 1-1.2 0z"/><use xlink:href="#r" x="-3.3" y="11"/><use xlink:href="#r" x="-11.6" y="6.2"/><use xlink:href="#y" x="0.8" y="-20"/><use xlink:href="#t" x="2.5" y="7.7"/><use xlink:href="#w" x="2.5" y="7.7"/><use xlink:href="#x" x="5.8" y="-3.7"/><use xlink:href="#x" x="-2.5" y="-8.5"/><use xlink:href="#r" x="-0.8" y="19.1"/><path d="M327.1 256.5L321 253c-.3-.2-.3-.5 0-.7l3.7-2.2a1.28 1.28 0 0 1 1.2 0l6.1 3.5c.3.2.3.5 0 .7l-3.7 2.2c-.4.2-.9.2-1.2 0z"/><use xlink:href="#v" x="-9.1" y="14.4"/><use xlink:href="#t" x="-33.9"/><use xlink:href="#v" x="-6.6" y="22.5"/><path d="M313 255.1l-14.4-8.3c-.3-.2-.3-.5 0-.7l3.7-2.2c.3-.2.9-.2 1.2 0l14.4 8.3c.3.2.3.5 0 .7l-3.7 2.2c-.3.2-.9.2-1.2 0z"/></g><use xlink:href="#z" y="-0.4" class="BN"/><linearGradient id="e" gradientUnits="userSpaceOnUse" x1="336.989" y1="228.932" x2="375.036" y2="228.932"><stop offset="0" stop-color="#f5f0ff"/><stop offset="1" stop-color="#f1e8ff"/></linearGradient><path d="M370.4 241.6l-33-19.1c-.4-.2-.5-.8-.3-1.2l3.4-4.8c.2-.3.7-.5 1.1-.2l33 19.2c.4.2.5.8.3 1.2l-3.4 4.7c-.2.3-.7.4-1.1.2z" fill="url(#e)"/><path d="M337.3 222l3.4-4.8c.2-.3.7-.5 1.1-.2l33 19.2c.1 0 .2.1.2.2.1-.3-.1-.7-.4-.9l-33-19.2c-.4-.2-.8-.1-1.1.2l-3.4 4.8a.91.91 0 0 0 0 1c.1-.1.2-.2.2-.3z" class="BN"/><path d="M374.9 234.1l-10.9-6.3c-.4-.2-.5-.8-.3-1.2l1.2-1.7c.3-.3.7-.4 1.1-.2l10.9 6.3c.4.2.5.8.3 1.2l-1.2 1.7c-.3.3-.7.4-1.1.2z" fill="#332c6b"/><path d="M371.2 238l-.4.1v-.3l1.1-1.3-1.4-.8v-.2.2l-1 1.2-.4.1v-.3l1-1.2.8-.2 1.4.8v.6l-1.1 1.3zm-1.8 1.4l-1.3-.8 1-1.2v-.3l-.4.1-1 1.2v.6l1.2.8.8-.2 1.1-1.2v-.3l-.4.1-1 1.2z" fill="#4f478b"/><path d="M367 175.5c1.3.7 2.5 1.7 3.7 2.8 2.9-3.6 8-4.2 13.8-.8 7.1 4.1 13.1 12.8 15.4 21.4 1 .2 2.1.7 3.3 1.3 6.2 3.6 11.2 12.2 11.2 19.3s-5 10-11.2 6.4L367 205.1c-7.1-4.1-12.8-14-12.8-22.2s5.7-11.5 12.8-7.4z" fill="#f0f0ff"/><path d="M392.8 221.6l-18.7-11.2c-.7-.4-1.2-1.3-1.2-2.1V188c.8-.5.9-.8 1.7-1.2l.7-.2 17.6 10.1c.7.4 1.2 1.3 1.2 2.1v21.7c0 .5-.2.8-.5.8-.2.1-.8.3-.8.3z" class="BN"/><path d="M392.2 221.4l-18.8-10.8c-.7-.4-1.2-1.3-1.2-2.1v-20.3l2.4-1.4 17.6 10.1c.7.4 1.2 1.3 1.2 2.1v21.7c-.1.8-.6 1.1-1.2.7z" class="BV"/><path d="M377.6 188.6v6.4l10.3 5.9v-6.4l-10.3-5.9zm2.7 7.3l-1.6-.9v-5l1.6.9v5zm4.9 12.7c0 1.5-1.1 2.2-2.4 1.4s-2.4-2.7-2.4-4.2 1.1-2.2 2.4-1.4 2.4 2.6 2.4 4.2z" fill="#9696d1"/><path d="M382.076 206.793l.78-.45.8 1.386-.78.45zm-.916-.857l1.212-.7.45.78-1.212.7z" class="BP"/><linearGradient id="f" gradientUnits="userSpaceOnUse" x1="362.828" y1="169.791" x2="371.488" y2="181.002"><stop offset="0" stop-color="#9795ff"/><stop offset=".132" stop-color="#a9a4fc"/><stop offset=".381" stop-color="#c5bcf8"/><stop offset=".525" stop-color="#d0c5f6"/><stop offset=".534" stop-color="#cdc2f5"/><stop offset=".658" stop-color="#afa6e7"/><stop offset=".779" stop-color="#9992de"/><stop offset=".895" stop-color="#8b85d8"/><stop offset="1" stop-color="#8781d6"/></linearGradient><path d="M367 175.5c1.3.7 2.5 1.7 3.7 2.8 1.3-1.6 3-2.6 4.9-2.9-1.1-1-2.3-1.9-3.4-2.5-3.6-2.1-6.9-2.2-9.2-.8l-5 2.6c2.3-1.4 5.5-1.2 9 .8z" fill="url(#f)"/><linearGradient id="g" gradientUnits="userSpaceOnUse" x1="377.183" y1="168.313" x2="425.341" y2="230.659"><stop offset="0" stop-color="#a5a5e6"/><stop offset=".013" stop-color="#a9a8e7"/><stop offset=".125" stop-color="#c5bdf2"/><stop offset=".19" stop-color="#d0c5f6"/><stop offset=".222" stop-color="#c1baf0"/><stop offset=".271" stop-color="#b1aeeb"/><stop offset=".327" stop-color="#a8a7e7"/><stop offset=".403" stop-color="#a5a5e6"/><stop offset=".594" stop-color="#d0c5f6"/><stop offset=".611" stop-color="#cdc2f5"/><stop offset=".747" stop-color="#b7b2ed"/><stop offset=".877" stop-color="#a9a8e8"/><stop offset=".995" stop-color="#a5a5e6"/></linearGradient><path d="M408.4 197.5c-1.1-.7-2.2-1.1-3.3-1.3-2.3-8.6-8.3-17.3-15.4-21.4-5.7-3.3-10.6-2.8-13.6.5 2.5-.3 5.3.4 8.4 2.2 7.1 4.1 13.1 12.8 15.4 21.4 1 .2 2.1.7 3.3 1.3 6.2 3.6 11.2 12.2 11.2 19.3 0 3.2-1 5.6-2.8 6.9h.1l4.1-2.1c2.3-1 3.7-3.6 3.7-7.4 0-7.2-4.9-15.9-11.1-19.4z" fill="url(#g)"/><path d="M193.7 165.2c16-9.2 41.8-9.2 57.8 0 7 4 10.9 8.4 11.7 12.8h7.8v-3.4c-.4-6.2-6.4-12.6-14.4-17.3-8.8-5.1-20.1-8.9-31.6-9.3-10.8-.3-22.7 1.6-31.8 6.9-2.1 1.2-17.6 11.5-18.8 17.5-.1.6-.1 3.5-.1 5.9h7.9c1.3-4.8 5.1-9.4 11.5-13.1z" fill="#c94c98"/><linearGradient id="h" gradientUnits="userSpaceOnUse" x1="174.274" y1="193.822" x2="270.969" y2="193.822"><stop offset="0" stop-color="#ebe6fc"/><stop offset=".995" stop-color="#c94c98"/></linearGradient><path d="M271 177.9h-7.8c1 5.6-3 11.3-12 16.4-8.9 5.2-30.7 7-47.1 2.9-12.9-3.2-22.1-11.7-22.3-14.2-.1-1.6 0-3.2.4-4.8h-7.9v3.1c-.2 7.3 4.5 14.6 14.2 20.2 18.9 10.9 49.5 10.9 68.4 0 9.6-5.5 14.3-12.8 14.2-20-.2-.4-.1-2-.1-3.6z" fill="url(#h)"/><path d="M188.4 154.4c-18.9 10.9-18.9 28.6 0 39.5s49.5 10.9 68.4 0 18.9-28.6 0-39.5-49.5-10.9-68.4 0zm63.1 36.5c-16 9.2-41.8 9.2-57.8 0s-16-24.2 0-33.4 41.8-9.2 57.8 0 16 24.1 0 33.4z" fill="#ff91d3"/><path d="M259.632 198.482l4.75-8.227 41.135 23.75-4.75 8.227z" fill="#ee8ec5"/><path d="M303.1 221.9c-1.8 1.1-3.3.2-3.3-1.9s1.5-4.7 3.3-5.8 3.3-.2 3.3 1.9c.1 2.2-1.4 4.8-3.3 5.8z" fill="#c94c98"/><path d="M262 198.2c-1.8 1.1-3.3.2-3.3-1.9s1.5-4.7 3.3-5.8 3.3-.2 3.3 1.9c.1 2.2-1.4 4.8-3.3 5.8z" fill="#ee8ec5"/><path d="M195.5 171.5c13.5-7.8 35.4-7.8 48.9 0 7.6 4.4 10.9 10.3 10 16 5.3-7.3 2.8-16-7.4-21.9-13.5-7.8-35.4-7.8-48.9 0-5.9 3.4-9.3 7.8-10 12.3 1.7-2.3 4.1-4.5 7.4-6.4z" opacity=".7" class="BL"/><path d="M112.8 207.4c1.3-.7 1.3-2.6 0-3.3L62.3 175c-1.5-.9-2.9-1-4-.5h0l-.1.1c-.1 0-.2.1-.2.1l-44.2 25.7c-1.2.7-1.2 2.4 0 3.1L63.6 232c2.1 1.2 4.6 1.2 6.6 0l33.5-19.3 9.1-5.3z" class="BP"/><g class="BR"><path d="M98.2 215.1l-12 6.9-15.5-8.9 12-7z"/><path d="M86.2 222.1L70.5 213l12.2-7.1 15.7 9.1-12.2 7.1zm-15.3-9l15.3 8.8 11.8-6.8-15.3-8.8-11.8 6.8z"/><path d="M97.8 214.3l-12 7-15.5-9 12-6.9z"/></g><path d="M113.3 204.9c.6-.4 1-1 1-1.7V202c-.1-.5-.4-.2-1-.5l-50.5-29.1c-1.5-.9-2.9-1-4-.5h0l-.1.1c-.1 0-.2.1-.2.1L14 200.6l50 28.9c2.1 1.2 4.6 1.2 6.6 0l42.7-24.6z" fill="#fbe2e2"/><path d="M113.3 203.8c1.3-.7 1.3-2.6 0-3.3l-50.5-29.1c-1.5-.9-2.9-1-4-.5h0l-.1.1c-.1 0-.2.1-.2.1L9 187.7c-.8.9-.3 4.5-.3 4.5s.1 1.9 1.1 3.9 3.9 4 3.9 4L64 228.4c2.1 1.2 4.6 1.2 6.6 0l42.7-24.6z" fill="#bd9595"/><path d="M114.2 189.2s-.6 0-1-.2l-50.5-29.1c-1.5-.9-2.9-1-4-.5h0l-.1.1c-.1 0-.2.1-.2.1l-46 26.6c-2.5-.8-4.4.8-4.4 4v.1c0 3.8 2.7 8.4 6 10.3l49.7 28.7v-.9L14 199.7c-2.8-1.6-5-5.5-5-8.7v-.1c0-2.8 1.7-4.1 4-3.4a4.67 4.67 0 0 1 1 .5l50 29c2.1 1.2 4.6 1.2 6.6 0l33.5-19.3 9.1-5.3c.6-.4 1-1 1-1.7.1-.1 0-1.5 0-1.5z" fill="#fbe2e2"/><path d="M113.3 191c1.3-.7 1.3-2.6 0-3.3l-50.5-29.1c-1.5-.9-2.9-1-4-.5h0l-.1.1c-.1 0-.2.1-.2.1L9.9 186.2c1.1-.5 2.5-.4 4.1.5l50 28.9c2.1 1.2 4.6 1.2 6.6 0l42.7-24.6z" fill="#fbc9c9"/><g fill="#fbe9e9"><use xlink:href="#AA"/><use xlink:href="#AA" x="39.8" y="23"/><path d="M60.5 160.6l1 .6h.1c.1 0 .2 0 .2-.1.1-.1 0-.3-.1-.4l-1-.6c-.1-.1-.3 0-.4.1 0 .2.1.4.2.4z"/><use xlink:href="#AA" x="-2.8" y="-1.7"/><use xlink:href="#AA" x="-5.6" y="-3.3"/><path d="M108.1 188.2h.1c.1 0 .2 0 .2-.1.1-.1 0-.3-.1-.4l-1-.6c-.1-.1-.3 0-.4.1s0 .3.1.4l1.1.6zm-2.8 3.9l-.9.5c-.1.1-.2.2-.1.4.1.1.1.1.2.1h.1l.9-.5c.1-.1.2-.2.1-.4 0-.1-.2-.2-.3-.1z"/><use xlink:href="#AB"/><use xlink:href="#AC"/><use xlink:href="#AA" x="2.9" y="1.6"/><use xlink:href="#AC" x="37.9" y="21.9"/><use xlink:href="#AD"/><path d="M109.9 189.7c.1.1.1.1.2.1h.1l.9-.5-.9-.5c-.1-.1-.3 0-.4.1s0 .3.1.4h0v.4z"/><use xlink:href="#AA" x="31.3" y="18"/><use xlink:href="#AA" x="28.4" y="16.4"/><use xlink:href="#AA" x="34.1" y="19.7"/><use xlink:href="#AA" x="36.9" y="21.3"/><use xlink:href="#AA" x="25.6" y="14.7"/><path d="M57.5 158.8c0 .1.1.1.1.2l1 .6h.1c.1 0 .2 0 .2-.1.1-.1 0-.3-.1-.4l-.9-.5-.4.2z"/><use xlink:href="#AA" x="5.7" y="3.3"/><use xlink:href="#AA" x="14.2" y="8.2"/><use xlink:href="#AA" x="22.8" y="13.1"/><use xlink:href="#AA" x="8.6" y="4.9"/><use xlink:href="#AA" x="11.4" y="6.5"/><use xlink:href="#AA" x="19.9" y="11.5"/><use xlink:href="#AA" x="17.1" y="9.8"/><path d="M14.2 183.9c.1 0 .2 0 .2-.1v-.2l-.4.3h.2z"/><use xlink:href="#AC" x="11.7" y="6.8"/><use xlink:href="#AE"/><use xlink:href="#AC" x="8.8" y="5.1"/><path d="M76.1 209.6h.1l.9-.5c.1-.1.2-.2.1-.4-.1-.1-.2-.2-.4-.1l-.8.4c-.1.1-.2.2-.1.4 0 .1.1.2.2.2z"/><use xlink:href="#AC" x="14.6" y="8.4"/><use xlink:href="#AD" x="-28.4" y="16.4"/><path d="M71.6 211.9c-.1-.1-.2-.2-.4-.1l-.9.5c-.1.1-.2.2-.1.4.1.1.1.1.2.1h.1l.9-.5c.2-.1.3-.3.2-.4zm-2.1-46.7c-.1-.1-.3 0-.4.1s0 .3.1.4l1 .6h.1c.1 0 .2 0 .2-.1.1-.1 0-.3-.1-.4l-.9-.6z"/><use xlink:href="#AC" x="17.5" y="10.1"/><path d="M105.2 186.5h.1c.1 0 .2 0 .2-.1.1-.1 0-.3-.1-.4l-1-.6c-.1-.1-.3 0-.4.1s0 .3.1.4l1.1.6zM67.4 214c.4 0 .8-.1 1.2-.2.1 0 .2-.2.2-.3s-.2-.2-.3-.2c-.3.1-.7.2-1 .2-.2 0-.3.1-.3.3-.1.1.1.2.2.2zm-3.2-1.1l.9.5h.1c.1 0 .2 0 .2-.1.1-.1 0-.3-.1-.4l-.9-.5c-.1-.1-.3 0-.4.1.1.1.1.3.2.4zm2.4-49.4c-.1-.1-.3 0-.4.1s0 .3.1.4l1 .6h.1c.1 0 .2 0 .2-.1.1-.1 0-.3-.1-.4l-.9-.6z"/><use xlink:href="#AC" x="29.2" y="16.9"/><use xlink:href="#AD" x="-14.2" y="8.2"/><use xlink:href="#AB" x="-2.9" y="1.6"/><use xlink:href="#AC" x="32.1" y="18.6"/><use xlink:href="#AE" x="22.7" y="-13.1"/><use xlink:href="#AE" x="8.5" y="-4.9"/><use xlink:href="#AE" x="17" y="-9.8"/><use xlink:href="#AC" x="35" y="20.2"/><use xlink:href="#AC" x="20.4" y="11.8"/><use xlink:href="#AB" x="-17.1" y="9.8"/><use xlink:href="#AC" x="26.3" y="15.2"/><use xlink:href="#AB" x="-14.2" y="8.2"/><use xlink:href="#AC" x="23.3" y="13.5"/></g><path d="M66.9 226.8c-.9 0-1.8-.2-2.6-.7l-19.8-11.3-27.8-16c-2.3-1.3-4.2-4.7-4.2-7.3v-1.2c0-.1 0-.1.1-.2v-.1s0-.1.1-.1l.2-.2v-.1l.1-.1h.1l.1-.1h.1s.1 0 .1-.1h.8c.1 0 .2.1.4.1.3.1.5.2.8.4L63.2 217c1.1.6 2.4 1 3.7 1s2.6-.3 3.7-1l39.9-23v8c0 .3-.1.6-.4.8l-40.6 23.4c-.8.4-1.7.6-2.6.6z" fill="#c0c0f0"/><path d="M66.9 226.9c-.9 0-1.9-.2-2.7-.7l-19.8-11.3-27.8-16c-2.3-1.3-4.3-4.7-4.3-7.4v-1c0-.1 0-.1.1-.2v-.1c0-.1 0-.1.1-.2v-.1l.1-.1v-.1l.1-.1v-.1c0-.1.1-.1.1-.1h0c.1 0 .1-.1.1-.1h.1c.1 0 .1 0 .1-.1h1c.1 0 .3.1.4.1.3.1.5.2.8.4l47.6 27.5c1.1.6 2.4 1 3.6 1 1.3 0 2.5-.3 3.6-1l40.1-23.1v8.1c0 .3-.1.7-.4.9l-40.6 23.4c-.4.2-1.4.4-2.3.4zm-53-37.8h-.6s-.1 0-.1.1h-.1l-.1.1v.1l-.1.1v.1l-.1.1v.1c0 .1-.1.1-.1.2v1.2c0 2.6 1.9 5.9 4.2 7.2l27.8 16L64.3 226c.8.5 1.7.7 2.6.7s1.8-.2 2.6-.7l40.6-23.4c.3-.2.4-.5.3-.7v-7.8l-39.8 23c-1.1.7-2.4 1-3.7 1s-2.6-.3-3.7-1l-47.6-27.5c-.2-.1-.5-.3-.8-.4-.1 0-.2-.1-.3-.1h-.6zm53.4 34c-1.2 0-2.4-.3-3.5-.9L15 193.9c-.2-.1-.3-.4-.1-.5.1-.2.4-.3.5-.1l48.8 28.2a6.24 6.24 0 0 0 6.2 0l38.8-22.4c.2-.1.4 0 .5.1.1.2 0 .4-.1.5l-38.8 22.4c-1 .6-2.3 1-3.5 1z" fill="#7777bd"/><path d="M98.2 200.3L81.9 191c-3.3-1.9-8.6-1.9-11.9 0l-.1.1c-3.3 1.9-3.3 5 0 6.9l14.9 8.6c.6.3.9 1 .9 1.6v13.7l.4.3v-14.8l12.1-7.1z" class="BR"/><path d="M81.9 190.4c-3.3-1.9-8.6-1.9-11.9 0l-.1.1c-3.3 1.9-3.3 5 0 6.9l15.2 8.7c.7.4 1.1 1.1 1.1 1.8V222l12-6.9v-14.2c0-.7-.4-1.4-1-1.8l-15.3-8.7z" fill="#fbdada"/><path d="M86.1 222.2v-14.3c0-.7-.4-1.4-1-1.7l-15.2-8.7c-1.6-.9-2.5-2.2-2.5-3.5s.9-2.6 2.5-3.5l.1-.1c1.6-.9 3.7-1.4 6-1.4s4.4.5 6 1.4l15.2 8.8c.7.4 1.1 1.1 1.1 1.9v14.2l-12.2 6.9zM76 189c-2.2 0-4.3.5-5.9 1.4l-.1.1c-1.6.9-2.4 2.1-2.4 3.4s.9 2.5 2.4 3.3l15.2 8.7c.7.4 1.1 1.1 1.1 1.9v14l11.8-6.8v-14.1c0-.7-.4-1.3-1-1.7l-15.2-8.8A13.51 13.51 0 0 0 76 189z" class="BR"/><path d="M96.4 215.2c-.1 0-.3-.1-.3-.2-.1-.2 0-.4.1-.5l.5-.3v-.6c0-.2.2-.4.4-.4s.4.2.4.4v1l-.9.5c0 .1-.1.1-.2.1zm-7.2 4.2c-.1 0-.3-.1-.3-.2-.1-.2 0-.4.1-.5l1.2-.7c.2-.1.4 0 .5.1.1.2 0 .4-.1.5l-1.2.7c-.1.1-.1.1-.2.1zm2.4-1.4c-.1 0-.3-.1-.3-.2-.1-.2 0-.4.1-.5l1.2-.7c.2-.1.4 0 .5.1.1.2 0 .4-.1.5l-1.2.7c-.1.1-.1.1-.2.1zm2.4-1.4c-.1 0-.3-.1-.3-.2-.1-.2 0-.4.1-.5l1.2-.7c.2-.1.4 0 .5.1.1.2 0 .4-.1.5l-1.2.7c0 .1-.1.1-.2.1zm-7.1 4.2v-1.5c0-.2.2-.4.4-.4s.4.2.4.4v.1l.1-.1c.2-.1.4 0 .5.1.1.2 0 .4-.1.5l-1.3.9zm.4-2.7c-.2 0-.4-.2-.4-.4v-1.6c0-.2.2-.4.4-.4s.4.2.4.4v1.6c0 .2-.2.4-.4.4zm0-3.2c-.2 0-.4-.2-.4-.4v-1.6c0-.2.2-.4.4-.4s.4.2.4.4v1.6c0 .2-.2.4-.4.4zm9.8-2.5c-.2 0-.4-.2-.4-.4v-1.6c0-.2.2-.4.4-.4s.4.2.4.4v1.6c0 .2-.2.4-.4.4zm-9.8-.7c-.2 0-.4-.2-.4-.4v-1.6c0-.2.2-.4.4-.4s.4.2.4.4v1.6c0 .2-.2.4-.4.4zm9.8-2.5c-.2 0-.4-.2-.4-.4v-1.6c0-.2.2-.4.4-.4s.4.2.4.4v1.6c0 .2-.2.4-.4.4zm-9.8-.7c-.2 0-.4-.2-.4-.4v-.2c0-.4-.1-.8-.3-1.2-.1-.2 0-.4.2-.5s.4 0 .5.2c.2.5.3 1 .3 1.5v.2c.1.2-.1.4-.3.4zm9.8-2.5c-.2 0-.4-.2-.4-.4V204c0-.2.2-.4.4-.4s.4.2.4.4v1.6c0 .2-.2.4-.4.4zm-11.1-.3c-.1 0-.2 0-.2-.1-.1-.1-.2-.1-.3-.2l-1-.6c-.2-.1-.3-.4-.1-.5.1-.2.4-.3.5-.1l1 .6c.1.1.3.2.4.3.2.1.2.4.1.6H86zm-2.7-1.6c-.1 0-.1 0-.2-.1l-1.4-.8c-.2-.1-.3-.4-.1-.5.1-.2.4-.3.5-.1l1.4.8c.2.1.3.4.1.5-.1.1-.2.2-.3.2zm13.8-1.3c-.2 0-.4-.2-.4-.4v-1.5c0-.2.1-.4.4-.5.2 0 .4.1.4.3v1.6c0 .3-.2.5-.4.5zm-16.6-.3c-.1 0-.1 0-.2-.1l-1.4-.8c-.2-.1-.3-.4-.1-.5.1-.2.4-.3.5-.1l1.4.8c.2.1.3.4.1.5 0 .1-.2.2-.3.2zm-2.8-1.6c-.1 0-.1 0-.2-.1l-1.4-.8c-.2-.1-.3-.4-.1-.5.1-.2.4-.3.5-.1l1.4.8c.2.1.3.4.1.5 0 .1-.1.2-.3.2zm18.3-.8c-.1 0-.1 0-.2-.1l-1.4-.8c-.2-.1-.3-.4-.1-.5.1-.2.4-.3.5-.1l1.4.8c.2.1.3.4.1.5 0 .2-.1.2-.3.2zm-21-.8c-.1 0-.1 0-.2-.1l-1.4-.8c-.2-.1-.3-.4-.1-.5.1-.2.4-.3.5-.1l1.4.8c.2.1.3.4.1.5-.1.2-.2.2-.3.2zm18.3-.7c-.1 0-.1 0-.2-.1l-1.4-.8c-.2-.1-.3-.4-.1-.5.1-.2.4-.3.5-.1l1.4.8c.2.1.3.4.1.5-.1.1-.2.2-.3.2zm-21.1-.9c-.1 0-.1 0-.2-.1l-1.4-.8c-.2-.1-.3-.4-.1-.5.1-.2.4-.3.5-.1l1.4.8c.2.1.3.4.1.5 0 .2-.2.2-.3.2zm18.3-.7c-.1 0-.1 0-.2-.1l-1.4-.8c-.2-.1-.3-.4-.1-.5.1-.2.4-.3.5-.1l1.4.8c.2.1.3.4.1.5 0 .1-.2.2-.3.2zm-21-1c-.1 0-.2 0-.3-.1-.5-.5-.8-1-1-1.5-.1-.2.1-.4.3-.5s.4.1.5.3c.1.4.4.8.7 1.1.2.1.2.4 0 .6 0 .1-.1.1-.2.1zm18.2-.6c-.1 0-.1 0-.2-.1l-1.4-.8c-.2-.1-.3-.4-.1-.5.1-.2.4-.3.5-.1l1.4.8c.2.1.3.4.1.5 0 .1-.1.2-.3.2zm-2.7-1.6c-.1 0-.1 0-.2-.1l-1.4-.8c-.2-.1-.3-.4-.1-.5.1-.2.4-.3.5-.1l1.4.8c.2.1.3.4.1.5-.1.1-.2.2-.3.2zm-16.1-.6c-.1 0-.1 0-.2-.1-.2-.1-.2-.4-.1-.6.3-.4.7-.9 1.2-1.2a.47.47 0 0 1 .6.1.47.47 0 0 1-.1.6c-.5.3-.8.6-1 1a.76.76 0 0 1-.4.2zm13.3-1c-.1 0-.1 0-.2-.1l-.8-.5-.6-.3c-.2-.1-.3-.3-.2-.5s.3-.3.5-.2l.6.3.8.5c.2.1.3.4.1.5.1.2-.1.3-.2.3zm-10.8-.9c-.2 0-.3-.1-.4-.2-.1-.2 0-.4.2-.5.5-.2 1-.4 1.6-.5.2-.1.4.1.5.3s-.1.4-.3.5c-.5.1-1 .3-1.5.5 0-.1 0-.1-.1-.1zm7.9-.4h-.1l-1.5-.3c-.2 0-.4-.2-.3-.4 0-.2.2-.4.4-.3l1.6.3a.55.55 0 0 1 .3.5c-.1.1-.2.2-.4.2zm-4.8-.4c-.2 0-.4-.2-.4-.4s.1-.4.4-.4c.5-.1 1-.1 1.5-.1h.1c.2 0 .4.2.4.4s-.2.4-.4.4H76c-.5 0-1 .1-1.5.1h0z" fill="#fbe9e9"/><path d="M78.7 192.2c1.6.9 1.6 2.4 0 3.3s-4.1.9-5.7 0-1.6-2.4 0-3.3c1.5-.9 4.1-.9 5.7 0z" class="BR"/><linearGradient id="i" gradientUnits="userSpaceOnUse" x1="72.144" y1="193.315" x2="79.864" y2="193.315"><stop offset="0" stop-color="#f5f0ff"/><stop offset="1" stop-color="#f1e8ff"/></linearGradient><path d="M78.7 191.7c1.5.9 1.5 2.3 0 3.2s-4 .9-5.5 0-1.5-2.3 0-3.2c1.6-.8 4-.8 5.5 0z" fill="url(#i)"/><path d="M75.6 191.5h.7v3.6h-.7zm.8.7h.7v1.5h-.7z" class="BL"/><path d="M78.7 194.9c-1.5.9-4 .9-5.5 0-.8-.4-1.1-1-1.1-1.6v.4c0 .6.4 1.1 1.1 1.5 1.5.9 4 .9 5.5 0 .8-.4 1.1-1 1.1-1.6v-.4c.1.7-.3 1.3-1.1 1.7zm.9-1.6h0z" class="BQ"/><path d="M52 165.6l17.3 10 10.7 6.2 12.1-6.4L64 159.2z" fill="#bd9595"/><path d="M111.8 159.7c2.3-1.2 4.4-1.3 5.9-.4L89.4 143c-1.5-.7-3.5-.6-5.6.5l-33.9 18 17.3 10 10.7 6.2 33.9-18z" fill="#cad6f1"/><path d="M113.6 156.9c-.9.3-1.8.7-2.6 1.1l-33 17.6-24.2-14 30.9-16.4.3-.2c1.1-.5 3.5-1.7 4.8-1.8l-.5-.3c-.2-.1-.5-.2-.7-.3-1.4.4-3 1.2-3.9 1.6l-32.4 17.2 25.7 15 33.3-17.7c1.3-.7 2.4-1.1 3.2-1.3l-.9-.5z" class="BL"/><path d="M104.6 182.7l7.9-4.1c.4-.2.7-.4 1.1-.7h0c.4-.2.7-.5 1-.8.7-.6 1.3-1.2 1.9-1.9.3-.3.5-.7.8-1l.1-.1a13.77 13.77 0 0 0 1.4-2.4s0-.1.1-.1l.5-1.1c0-.1.1-.1.1-.2a14.6 14.6 0 0 0 1-5.3v-.2c-.2-5.1-4-7.4-8.6-4.9l-4.1 2.2-20.3 10.8 17.1 9.8z" fill="#99aad5"/><path d="M111.8 159.7l-4.1 2.2-5 2.7 15.1 8.7c.4-.6.7-1.1 1-1.7 0 0 0-.1.1-.1l.5-1.1c0-.1.1-.1.1-.2a14.6 14.6 0 0 0 1-5.3v-.2c-.3-5.2-4.1-7.4-8.7-5z" opacity=".3" class="BV"/><path d="M26.6 104.5l13.5-7.8c1.2-.7.8-2.3-2.3-2.3s-5.4-.4-6.9-1.9-.5-3.6 2.2-4.7c2.6-1 6.8-1.4 9.1.3s.5 5.9 6.2 3.9l12.8-7.4 13.6 7.8s2.5 1.1 3.3-.5.1-2.9 2.8-4.4 7.5-.5 9.2.6 3.5 3.8 0 5.7-5.9.5-7.6 1.5.7 2.4 3 3.8l10.1 5.8-12.6 7.3c-1.4.8-3.9.6-4.2-1.5-.3-1.8-1.7-3.2-4.8-3.8-3-.5-6.2.9-7.5 1.8-1.3 1-2.7 3.5 1 5.4 2.6 1.3 4.8 0 6.7 1.3s-1.5 2.6-3.8 4l-9 5.2-13.4-7.8c-1.2-.7-.6-1.9 2.3-2s6-1 6.6-2.7c.6-1.6.1-3.4-3-4.8-3.9-1.7-7.2-.3-8.3.4-2.7 1.5-1.2 3.6-2.9 4.4-1.6.8-2.4.1-4.9-1.3-2.7-1.4-11.2-6.3-11.2-6.3z" class="BP"/><path d="M27 103.6l13.5-7.8c1.2-.7.8-2.3-2.3-2.3s-5.4-.4-6.9-1.9-.5-3.6 2.2-4.7 6.8-1.4 9.1.3.5 5.9 6.2 3.9l12.8-7.4 13.6 7.8s2.5 1.1 3.3-.5c.7-1.6.1-2.9 2.8-4.4s7.5-.5 9.2.6 3.5 3.8 0 5.7-5.9.5-7.6 1.5.7 2.4 3 3.8L96 104l-12.6 7.3c-1.4.8-3.9.6-4.2-1.5-.3-1.8-1.7-3.2-4.8-3.8-3-.5-6.2.9-7.5 1.8-1.3 1-2.7 3.5 1 5.4 2.6 1.3 4.8 0 6.7 1.3s-1.5 2.6-3.8 4l-9 5.2-13.4-7.8c-1.2-.7-.6-1.9 2.3-2s6-1 6.6-2.7c.6-1.6.1-3.4-3-4.8-3.9-1.7-7.2-.3-8.3.4-2.7 1.5-1.2 3.6-2.9 4.4-1.6.8-2.4.1-4.9-1.3L27 103.6z" class="BU"/><path d="M51.5 104.2c.1.5.1 1 .1 1.5 0 2.3-1.8 2-1.8 2-4.1-1.5-2.4-8.7-2.2-9.5.1-.4.6-.9 1.1-1.6-.4 2.1-.9 5.9.1 7.4.7 1.2 1.8.8 2.7.2z" fill="#61111f"/><path d="M70.6 92.7c-1.1.1-2.4-.1-3.4-.3l-1.7-9.7c-.2-1.4 1-5.6.6-7.7-.4-2-1-9-1-9l-4.9 14.1c-.5 1.7-4.2 9.7-6.7 14.9-1.1-.3-2.3-.8-3.2-1.3.6-2.2 1-6.1 1.6-8.2.7-2.3 2.6-6.5 3-7 .4-.6 0-4.1.3-7.8.3-3.8 2.6-15 2.6-15l13.3.7.4 21.3c0 1.7-1.1 10.1-.9 15z" fill="#66121d"/><path d="M77.5 100.4c-1.3.8-4.2-.2-5.6-.6s-3.9 1-5-.2c-.5-.6-.4-1.5-.1-2.6 2.2.2 3.7-.5 4.5-1 1.4 2.5 7.5 3.7 6.2 4.4z" fill="#61111f"/><path d="M71.2 96c-.8.5-2.3 1.2-4.5 1 .3-1.2.7-2.7.6-4.1 0-.2 0-.3-.1-.5 1 .2 2.2.3 3.4.3 0 1.5.2 2.6.6 3.3-.1-.1 0 0 0 0zm-19.7 8.2c-.8.6-1.9 1-2.7-.1-1-1.5-.5-5.3-.1-7.4.5-.6 1-1.2 1.3-2 .1-.2.2-.6.3-.9.9.4 2.1 1 3.2 1.3l-2 4.4c-.6 1.3-.3 3 0 4.7z" class="BM"/><path d="M65.7 28.1c1.1-.5 3.2-.5 2.8-4.5s-4.9-3.4-6.2-3.2c0 0-4.5.9-5 5.4-.4 4.5-.1 7.9 2.2 12.3l6.2-10z" fill="#d88f28"/><path d="M72.3 64.2s-4.3 2.2-4-8.3h-2.7s-1.6 8-3 8-6.9-1.6-7.4-1.1c0 0 2.3-6.6 2.4-8.9s-3-14.1-1.7-15.5c.9-1 2.9-2.3 4.4-3.2.7-.4 1.3-.7 1.6-.8l1.9-.5c1.5-.4 3.2-.7 3.9-.6 1 .2 3.1 4.9 3.5 6.2s.7 5.3.3 6.9c-.5 1.6-.4 13.9.8 17.8z" fill="#843c96"/><path d="M88.8 46.9c0 .7-.7 4-5.6 2.6-2.2-.6-3.8-.8-5.3-1-.5-1.2.1-2.7.3-3.2 1.9.4 4.2.7 5 .6 1.4-.2 2.6-1.7 3-1.4.5.3-.9 1.8-.9 1.8s3.5-.1 3.5.6z" class="BM"/><path d="M78 48.5l-2.7-.3c-.6-.1-1.1-.3-1.7-.5-2.2-1-7-9.3-7.7-10.4s-.3-2.7-.3-2.7c.9-.9 2.7-1.9 3.7 0s4.8 9.5 5.9 9.9c.1.1.4.1.6.2.6.2 1.5.4 2.5.5-.2.6-.8 2.1-.3 3.3z" fill="#b81f35"/><path d="M78.2 45.3c-.2.5-.7 2-.3 3.2.2.6-2.8.2-2.7-.2v-.1c0-.6-.4-2.2.5-3.5.1-.1.1-.2.2-.3 0 0 2.3.4 2.3.6.1.1.1.2 0 .3z" fill="#edeced"/><path d="M65.6 55.9s-1.6 8-3 8-6.9-1.6-7.4-1.1c0 0 2.3-6.6 2.4-8.9s-3-14.1-1.7-15.5c.9-1 2.9-2.3 4.4-3.2 6.7 5.7 5.3 20.7 5.3 20.7zm6.7 8.3s-4.3 2.2-4-8.3c0 0 1-5.9 0-10.5-.9-4.3-2-9-4.5-11.4 1.5-.4 3.2-.7 3.9-.6 1 .2 3.1 4.9 3.5 6.2s.7 5.3.3 6.9c-.5 1.5-.4 13.8.8 17.7z" fill="#911929"/><g class="BM"><path d="M63.1 22.4c3.2.2 4.4.9 4.5 3.3s.2 7.5-2.3 8-6-3.3-6-5.7 1.7-5.7 3.8-5.6z"/><path d="M61 30.4l-.8 4.7s1 1.5 3.2.9l1.6-4.6-4-1z"/></g><path d="M67.4 24.4c-.4.9-1.3 2.8-2.8 3.7s-3.9 4.2-3.9 4.2-3.9-2.4-2-6.4 4.1-5 5.2-4.8c1 .3 4.1 2 3.5 3.3z" fill="#d88f28"/><path d="M75.9 57.8c-.3 1-.7 1.5-1.5 1.3-.9-.3-2.8-2.4-3.6-2.4-.4 0-3-.1-5.9-.3-.3-1.4 1-2.7.8-3.1l5 .9c1.4 0 1.9-.6 2.9 0s2.6 2.6 2.3 3.6z" class="BM"/><path d="M64.8 56.4l-3.4-.4c-2.5-.4-4.7-.9-5.3-1.7-1.4-2-1.6-10.4-1.5-12.4 0-2 .9-4.2 2.9-3.8 1.2.3 2.2 2.2 2 3.8s-.6 8.5.7 9.6c.4.3 1.4.7 2.6 1 .9.3 1.9.5 2.9.7.1.4-1.2 1.7-.9 3.2z" fill="#b81f35"/><path d="M64.8 56.4s-2.1.2-3.4-.2V56c0-.6 0-2.5 1.3-3.4.1-.1.2-.1.3-.2 0 0 2.5.6 2.7.9h0c.1.3-1.2 1.6-.9 3.1z" fill="#edeced"/><g opacity=".75"><path d="M160.3 257.8c-4.9-2.8-12.2-3.4-18-1.6-.4-.3-.7-.5-1.2-.7-6-3.5-15.8-3.5-21.7 0-6 3.5-6 9.1.1 12.6 1.5.8 3.1 1.5 4.9 1.9.4.3.8.6 1.3.8 4.9 2.8 12.3 3.4 18.1 1.6 5.6 1.3 12.2.6 16.6-2 6-3.4 6-9.1-.1-12.6z" class="BO"/><g class="BJ"><path d="M115.8 260.5h-.1l2.6 1.4.3.2h.1c1.3.2 3.1-.8 4.7-2.5l-2.9-1.6c-1.6 1.7-3.3 2.7-4.7 2.5zm4.8-2.6l2.9 1.6c1.5-1.5 2.9-3.6 3.9-6 2-4.6 2.1-8.6.2-9.6l-2.9-1.6c1.9 1 1.8 5-.2 9.6-1.1 2.4-2.5 4.5-3.9 6z" class="BI"/><path d="M124.3 252c-1.7 3.7-4.2 6.8-6.5 8 1 .5 1.9 1 2.9 1.6 2.2-1.2 4.8-4.2 6.5-8-.9-.5-2-1.2-2.9-1.6z" class="BH"/><path d="M123.2 255.1l-2.9-1.6-.6 1.9 3 1.5z" class="BF"/><path d="M117.8 259.9c-.7.4-1.5.6-2.1.5l2.9 1.6c.6.1 1.3-.1 2.1-.5l-2.9-1.6z" class="BH"/><path d="M121 257.4l-2.9-1.5-.6 1.4 2.9 1.6zm1.7-.5l-2.9-1.6c-.4.3-1.1.5-1.6.5l2.9 1.6c.5 0 1.1-.2 1.6-.5z" class="BF"/><path d="M115.7 260.5c-.2 0-.4-.1-.6-.2l2.9 1.6c.2.1.4.2.6.2-.8-.5-1.9-1.3-2.9-1.6z" class="BI"/><path d="M118.5 254l2.9 1.6c.1 0 .1.1.2.1.5.1 1.1-.2 1.6-.5l-2.9-1.6c-.5.3-1.1.6-1.6.5 0-.1-.1-.1-.2-.1z" class="BG"/><path d="M120.4 258.9l-2.9-1.6-.8-.1 2.9 1.6z" class="BF"/><path d="M127.4 244l-2.9-1.6c1.9 1 1.8 5-.2 9.6l2.9 1.6c2-4.6 2.1-8.7.2-9.6z" class="BH"/><path d="M120.3 257.2l-2.9-1.6-.7 1.6 2.9 1.6z" class="BG"/><g class="BF"><path d="M122.5 246.1c.7.4.7 1.6.1 3l2.9 1.6c.6-1.4.6-2.5-.1-3l-2.9-1.6z"/><path d="M126 246.2l-2.9-1.6-.6 1.5 2.9 1.6zm-7.6 6.8c-.2.5-.2.9.1 1l2.9 1.6c-.3-.1-.3-.5-.1-1-.9-.6-1.9-1.1-2.9-1.6zm1.5-1.3c-.7.3-1.2.6-1.4 1.2l2.9 1.6c.3-.6.7-.9 1.4-1.2 1.1-.4 2-1.1 2.7-2.6l-2.9-1.6c-.8 1.5-1.7 2.2-2.7 2.6z"/></g><path d="M127.6 244l-2.9-1.6c-.2-.1-.4-.2-.7-.2l2.9 1.6c.3 0 .5.1.7.2z" class="BH"/><path d="M124.3 249.3l-2.9-1.6c.3.2.2.5.1.9-.2.5-.6.8-1.5 1.2l2.9 1.6c.9-.4 1.3-.7 1.5-1.2.1-.4.2-.8-.1-.9z" class="BG"/><path d="M127.4 244l-2.9-1.6c-.2-.1-.4-.2-.6-.2l2.9 1.6c.3 0 .4.1.6.2z" class="BF"/><path d="M124 242.2h-.1l2.6 1.4.3.2h.1c-.8-.5-1.9-1.3-2.9-1.6z" class="BH"/><g class="BG"><path d="M125.3 246.1l-2.9-1.6-.7 1.4 3 1.6z"/><path d="M126 246.2l-2.9-1.6-.7-.1 2.9 1.6z"/></g><path d="M121.2 247.7c-.6-.1-1.1.2-1.4.4.5.3 1 .5 1.5.8l1.1.6.3.2c.3-.1.8-.5 1.4-.4h0s-.1 0-.1-.1c-.3-.1-.5-.3-.8-.4l-2-1.1 2.9 1.6c.1 0 .1 0 .2.1l-2.9-1.6c-.1-.1-.1-.1-.2-.1z" class="BF"/><g class="BG"><path d="M122.8 251.4l-2.9-1.6c-1.2.5-2 1.3-2.6 2.7s-.7 2.6.1 3.1l2.9 1.6c-.8-.4-.7-1.7-.1-3.1.7-1.4 1.4-2.2 2.6-2.7zm.5-3.6l-2.9-1.5-.6 1.7 2.9 1.6z"/><path d="M124.7 247.5l-2.9-1.6c-.5 0-1 .1-1.4.4l2.9 1.6c.4-.3.8-.5 1.4-.4z"/><path d="M125.3 246.1l-.6 1.4c-.5 0-1 .1-1.4.4l-.6 1.8c.3-.1.8-.5 1.4-.4.5.1.5.5.3 1s-.6.8-1.5 1.2c-1.2.5-2 1.3-2.6 2.7s-.7 2.6.1 3.1l-.7 1.6.8.1.7-1.5c.5 0 1.2-.2 1.6-.5l.6-1.9c-.5.3-1.1.6-1.6.5-.4-.1-.6-.4-.3-1.1.3-.6.7-.9 1.4-1.2 1.1-.4 2-1.1 2.7-2.6.6-1.4.6-2.5-.1-3l.7-1.5-.9-.1z"/></g><path d="M115.2 260.3l2.9 1.6c-1.9-1-1.8-5 .2-9.6 2.2-5 6-8.8 8.5-8.5l-2.9-1.6c-2.5-.2-6.3 3.5-8.5 8.5-2.1 4.6-2.1 8.6-.2 9.6z" class="BF"/><path d="M113.5 263.4l2.9 1.6c-2.5-1.3-2.5-6.7.3-12.9 3-6.8 8.3-11.9 11.6-11.4l-2.9-1.6c-3.4-.5-8.6 4.6-11.6 11.4-2.7 6.1-2.8 11.5-.3 12.9z" class="BK"/><path d="M129 253.8c-3 6.8-8.3 11.9-11.6 11.4-3.4-.5-3.7-6.4-.6-13.2 3-6.8 8.3-11.9 11.6-11.4s3.6 6.4.6 13.2zm-10.3 8.2h.1c2.5.4 6.4-3.5 8.6-8.5 2.3-5 2.1-9.4-.5-9.8h-.1c-2.5-.2-6.3 3.5-8.5 8.5s-2.1 9.4.4 9.8h0z" class="BI"/><path d="M127.2 253.5c-2.2 5-6 8.8-8.5 8.5-2.4-.5-2.6-4.8-.3-9.8 2.2-5 6-8.8 8.5-8.5 2.4.5 2.5 4.8.3 9.8zm-6.9 3.7l-.7 1.6.8.1.7-1.5c.5 0 1.2-.2 1.6-.5l.6-1.9c-.5.3-1.1.6-1.6.5-.4-.1-.6-.4-.3-1.1.3-.6.7-.9 1.4-1.2 1.1-.4 2-1.1 2.7-2.6.6-1.4.6-2.5-.1-3l.7-1.5-.8-.1-.6 1.4c-.5 0-1 .1-1.4.4l-.6 1.8c.3-.1.8-.5 1.4-.4.5.1.5.5.3 1s-.6.8-1.5 1.2c-1.2.5-2 1.3-2.6 2.7-.7 1.4-.7 2.7 0 3.1h0z" class="BF"/><path d="M127.2 253.5c2.2-5 2.1-9.3-.3-9.8h.1c2.5.4 2.7 4.7.5 9.8-2.3 5-6.1 8.9-8.6 8.5h-.1c2.4.3 6.2-3.5 8.4-8.5z" class="BH"/><path d="M129.3 240.9l-2.9-1.6-.9-.3 2.9 1.6.9.3z" class="BI"/><use xlink:href="#AF" class="BI"/><path d="M142 257v3c-4-2.2-10.3-2.2-14.1.1v-3c3.8-2.3 10.1-2.3 14.1-.1z" class="BH"/><g class="BF"><path d="M139.7 257.8v3l-1.2.7.1-3z"/><path d="M140.9 258.5v3l-1.2-.7v-3z"/></g><path d="M140.9 258.5v3l-1.1.6v-3z" class="BG"/><path d="M134.3 261.5c-.5.3-.8.7-.8 1.1v-3c0-.4.2-.8.8-1.1 1.1-.6 2.7-.7 4.2-.1v3c-1.5-.5-3.1-.5-4.2.1z" class="BF"/><use xlink:href="#AG" class="BH"/><use xlink:href="#AH" class="BF"/><path d="M124.7 262.9c-.1.3-.2.6-.2.9v-3c0-.3.1-.6.2-.9v2.8s.1.1 0 .2z" class="BI"/><use xlink:href="#AI" class="BF"/><use xlink:href="#AJ" class="BG"/><use xlink:href="#AK" class="BF"/><path d="M141.2 260.4v3l-1.7.5V261z" class="BG"/><g class="BI"><path d="M124.6 263.7v.2-.2z"/><use xlink:href="#AL"/></g><use xlink:href="#AM" class="BH"/><path d="M131.1 260.7v3l-1.8.6v-3z" class="BF"/><use xlink:href="#AN" class="BG"/><g class="BF"><use xlink:href="#AO"/><use xlink:href="#AP"/></g><g class="BG"><path d="M130.9 262.8v3c-.8-.5-1.4-1.1-1.6-1.5v-3c.2.5.8 1.1 1.6 1.5z"/><path d="M130.9 264.2v3l-1.2-.7v-3z"/></g><path d="M130.9 262.8v3l-1.2.7v-3z" class="BF"/><g class="BG"><use xlink:href="#AQ"/><use xlink:href="#AR"/><path d="M132.2 263.5v3l-1.3.7v-3z"/></g><use xlink:href="#AS" class="BF"/><g class="BH"><use xlink:href="#AT"/><use xlink:href="#AU"/></g><g class="BF"><use xlink:href="#AV"/><path d="M142 257c3.8 2.3 3.8 5.9-.1 8.2s-10.2 2.3-14.1.1c-3.8-2.3-3.8-5.9.1-8.2 3.8-2.3 10.1-2.3 14.1-.1zm-9.8 6.5c1.6.7 3.3.6 4.4 0s1.2-1.4.2-2.5c-.7-.8-.8-1.2-.4-1.5.3-.2.9-.2 1.7.2.9.5 1.2 1 1.3 1.3l1.7-.6c-.2-.3-.6-.8-1.4-1.3l1.1-.6-1.2-.7-1.2.7c-1.6-.6-3.2-.6-4.2.1-1.2.7-.9 1.6 0 2.6.6.7.7 1.1.2 1.4s-1.2.2-1.9-.2c-.8-.5-1.3-1-1.5-1.5l-1.8.6c.2.4.8 1 1.6 1.5l-1.2.7 1.2.7 1.4-.9z"/></g><use xlink:href="#AW" class="BK"/><use xlink:href="#AX" class="BI"/><use xlink:href="#AF" y="-4" class="BI"/><path d="M142 252.9v3c-4-2.2-10.3-2.2-14.1.1v-3c3.8-2.2 10.1-2.2 14.1-.1z" class="BH"/><g class="BF"><path d="M139.7 253.8v3l-1.2.7.1-3z"/><path d="M140.9 254.5v3l-1.2-.7v-3z"/></g><path d="M140.9 254.5v3l-1.1.6v-3z" class="BG"/><use xlink:href="#AY" class="BF"/><use xlink:href="#AG" y="-4" class="BH"/><use xlink:href="#AH" y="-4" class="BF"/><path d="M124.7 258.9c-.1.3-.2.6-.2.9v-3c0-.3.1-.6.2-.9v2.8s.1.1 0 .2z" class="BI"/><use xlink:href="#AI" y="-4" class="BF"/><use xlink:href="#AJ" y="-4" class="BG"/><use xlink:href="#AK" y="-4" class="BF"/><path d="M141.2 256.4v3l-1.7.5V257z" class="BG"/><g class="BI"><path d="M124.6 259.7v.2-.2z"/><use xlink:href="#AL" y="-4"/></g><use xlink:href="#AM" y="-4" class="BH"/><path d="M131.1 256.7v3l-1.8.6v-3z" class="BF"/><use xlink:href="#AN" y="-4" class="BG"/><g class="BF"><use xlink:href="#AO" y="-4"/><use xlink:href="#AP" y="-4"/></g><g class="BG"><path d="M130.9 258.8v3c-.8-.5-1.4-1.1-1.6-1.5v-3c.2.5.8 1.1 1.6 1.5z"/><path d="M130.9 260.2v3l-1.2-.7v-3z"/></g><path d="M130.9 258.8v3l-1.2.7v-3z" class="BF"/><g class="BG"><use xlink:href="#AQ" y="-4"/><use xlink:href="#AR" y="-4"/><path d="M132.2 259.5v3l-1.3.7v-3z"/></g><use xlink:href="#AS" y="-4" class="BF"/><g class="BH"><use xlink:href="#AT" y="-4"/><use xlink:href="#AU" y="-4"/></g><g class="BF"><use xlink:href="#AV" y="-4"/><path d="M142 252.9c3.8 2.3 3.8 5.9-.1 8.2s-10.2 2.3-14.1.1c-3.8-2.3-3.8-5.9.1-8.2 3.8-2.2 10.1-2.2 14.1-.1zm-9.8 6.6c1.6.7 3.3.6 4.4 0s1.2-1.4.2-2.5c-.7-.8-.8-1.2-.4-1.5.3-.2.9-.2 1.7.2.9.5 1.2 1 1.3 1.3l1.7-.6c-.2-.3-.6-.8-1.4-1.3l1.1-.6-1.2-.7-1.2.7c-1.6-.6-3.2-.6-4.2.1-1.2.7-.9 1.6 0 2.6.6.7.7 1.1.2 1.4s-1.2.2-1.9-.2c-.8-.5-1.3-1-1.5-1.5l-1.8.6c.2.4.8 1 1.6 1.5l-1.2.7 1.2.7 1.4-.9z"/></g><use xlink:href="#AW" y="-4" class="BK"/><use xlink:href="#AX" y="-4" class="BI"/><use xlink:href="#AZ" class="BI"/><use xlink:href="#Aa" class="BH"/><g class="BF"><path d="M139.7 249.8v3l-1.2.7.1-3z"/><path d="M140.9 250.5v3l-1.2-.7v-3z"/></g><path d="M140.9 250.5v3l-1.1.6v-3z" class="BG"/><use xlink:href="#AY" y="-4" class="BF"/><use xlink:href="#AG" y="-8" class="BH"/><use xlink:href="#AH" y="-8.1" class="BF"/><use xlink:href="#Ab" class="BI"/><use xlink:href="#AI" y="-8" class="BF"/><use xlink:href="#AJ" y="-8" class="BG"/><use xlink:href="#AK" y="-8" class="BF"/><path d="M141.2 252.4v2.9l-1.7.6V253z" class="BG"/><g class="BI"><path d="M124.6 255.7v.2-.2z"/><use xlink:href="#AL" y="-8"/></g><use xlink:href="#AM" y="-8" class="BH"/><path d="M131.1 252.7v3l-1.8.6v-3z" class="BF"/><use xlink:href="#AN" y="-8" class="BG"/><g class="BF"><use xlink:href="#AO" y="-8"/><use xlink:href="#AP" y="-8"/></g><g class="BG"><use xlink:href="#Ac"/><path d="M130.9 256.2v3l-1.2-.7v-3z"/></g><path d="M130.9 254.8v3l-1.2.7v-3z" class="BF"/><g class="BG"><use xlink:href="#AQ" y="-8"/><use xlink:href="#AR" y="-8"/><path d="M132.2 255.5v3l-1.3.7v-3z"/></g><use xlink:href="#AS" y="-8" class="BF"/><g class="BH"><use xlink:href="#AT" y="-8"/><use xlink:href="#Ad"/></g><g class="BF"><use xlink:href="#AV" y="-8"/><use xlink:href="#Ae"/></g><use xlink:href="#AW" y="-8" class="BK"/><use xlink:href="#AX" y="-8" class="BI"/><use xlink:href="#AZ" y="-4" class="BI"/><use xlink:href="#Aa" y="-4" class="BH"/><g class="BF"><path d="M139.7 245.8v3l-1.2.6.1-2.9z"/><path d="M140.9 246.5v3l-1.2-.7v-3z"/></g><path d="M140.9 246.5v3l-1.1.6v-3z" class="BG"/><use xlink:href="#AY" y="-8" class="BF"/><use xlink:href="#AG" y="-12" class="BH"/><use xlink:href="#AH" y="-12.1" class="BF"/><use xlink:href="#Ab" y="-4" class="BI"/><use xlink:href="#AI" y="-12" class="BF"/><use xlink:href="#AJ" y="-12" class="BG"/><use xlink:href="#AK" y="-12" class="BF"/><path d="M141.2 248.4v2.9l-1.7.6V249z" class="BG"/><g class="BI"><path d="M124.6 251.7v.2-.2z"/><use xlink:href="#AL" y="-12"/></g><use xlink:href="#AM" y="-12" class="BH"/><path d="M131.1 248.7v3l-1.8.6v-3z" class="BF"/><use xlink:href="#AN" y="-12" class="BG"/><g class="BF"><use xlink:href="#AO" y="-12"/><use xlink:href="#AP" y="-12"/></g><g class="BG"><use xlink:href="#Ac" y="-4"/><path d="M130.9 252.2v3l-1.2-.7v-3z"/></g><path d="M130.9 250.8v3l-1.2.7v-3z" class="BF"/><g class="BG"><use xlink:href="#AQ" y="-12"/><use xlink:href="#AR" y="-12"/><path d="M132.2 251.5v3l-1.3.7v-3z"/></g><use xlink:href="#AS" y="-12" class="BF"/><g class="BH"><use xlink:href="#AT" y="-12"/><use xlink:href="#Ad" y="-4"/></g><g class="BF"><use xlink:href="#AV" y="-12"/><use xlink:href="#Ae" y="-4"/></g><use xlink:href="#AW" y="-12" class="BK"/><use xlink:href="#AX" y="-12" class="BI"/><use xlink:href="#AZ" y="-8" class="BI"/><use xlink:href="#Aa" y="-8" class="BH"/><g class="BF"><path d="M139.7 241.8v3l-1.2.6.1-2.9z"/><path d="M140.9 242.5v3l-1.2-.7v-3z"/></g><path d="M140.9 242.5v3l-1.1.6v-3z" class="BG"/><use xlink:href="#AY" y="-12" class="BF"/><use xlink:href="#AG" y="-16" class="BH"/><use xlink:href="#AH" y="-16.1" class="BF"/><use xlink:href="#Ab" y="-8" class="BI"/><use xlink:href="#AI" y="-16" class="BF"/><use xlink:href="#AJ" y="-16" class="BG"/><use xlink:href="#AK" y="-16" class="BF"/><path d="M141.2 244.4v2.9l-1.7.6v-3z" class="BG"/><g class="BI"><path d="M124.6 247.7v.2-.2z"/><use xlink:href="#AL" y="-16"/></g><use xlink:href="#AM" y="-16" class="BH"/><path d="M131.1 244.7v3l-1.8.6v-3z" class="BF"/><use xlink:href="#AN" y="-16" class="BG"/><g class="BF"><use xlink:href="#AO" y="-16"/><use xlink:href="#AP" y="-16"/></g><g class="BG"><use xlink:href="#Ac" y="-8"/><path d="M130.9 248.2v3l-1.2-.7v-3z"/></g><path d="M130.9 246.8v3l-1.2.7v-3z" class="BF"/><g class="BG"><use xlink:href="#AQ" y="-16"/><use xlink:href="#AR" y="-16"/><path d="M132.2 247.5v3l-1.3.7v-3z"/></g><use xlink:href="#AS" y="-16" class="BF"/><g class="BH"><use xlink:href="#Af"/><use xlink:href="#Ad" y="-8"/></g><g class="BF"><use xlink:href="#AV" y="-16"/><use xlink:href="#Ae" y="-8"/></g><use xlink:href="#AW" y="-16" class="BK"/><use xlink:href="#AX" y="-16" class="BI"/><use xlink:href="#AZ" y="-12" class="BI"/><use xlink:href="#Aa" y="-12" class="BH"/><g class="BF"><path d="M139.7 237.8v3l-1.2.6.1-2.9z"/><path d="M140.9 238.5v3l-1.2-.7v-3z"/></g><path d="M140.9 238.5v3l-1.1.6v-3z" class="BG"/><use xlink:href="#AY" y="-16" class="BF"/><use xlink:href="#AG" y="-20" class="BH"/><use xlink:href="#AH" y="-20.1" class="BF"/><use xlink:href="#Ab" y="-12" class="BI"/><use xlink:href="#AI" y="-20" class="BF"/><use xlink:href="#Ag" class="BG"/><use xlink:href="#AK" y="-20" class="BF"/><path d="M141.2 240.4v2.9l-1.7.6v-3z" class="BG"/><g class="BI"><path d="M124.6 243.7v.2-.2z"/><use xlink:href="#AL" y="-20"/></g><use xlink:href="#AM" y="-20" class="BH"/><path d="M131.1 240.7v3l-1.8.6v-3z" class="BF"/><use xlink:href="#AN" y="-20" class="BG"/><g class="BF"><use xlink:href="#AO" y="-20"/><use xlink:href="#AP" y="-20"/></g><g class="BG"><use xlink:href="#Ac" y="-12"/><path d="M130.9 244.2v3l-1.2-.7v-3z"/></g><path d="M130.9 242.8v3l-1.2.7v-3z" class="BF"/><g class="BG"><use xlink:href="#AQ" y="-20"/><use xlink:href="#AR" y="-20"/><path d="M132.2 243.5v3l-1.3.7v-3z"/></g><use xlink:href="#AS" y="-20" class="BF"/><g class="BH"><use xlink:href="#Af" y="-4"/><use xlink:href="#Ad" y="-12"/></g><g class="BF"><use xlink:href="#AV" y="-20"/><use xlink:href="#Ae" y="-12"/></g><use xlink:href="#AW" y="-20" class="BK"/><path d="M144.3 235.4c5.3 3.1 5.4 8.1.1 11.1-5.3 3.1-13.9 3.1-19.2 0s-5.4-8.1-.1-11.1c5.2-3.1 13.9-3.1 19.2 0zm-16.6 9.8c4 2.2 10.3 2.2 14.1-.1s3.9-5.9.1-8.2c-.1 0-.1-.1-.2-.1-4-2.3-10.4-2.3-14.3 0s-3.9 6 0 8.3c.2.1.3.1.3.1h0z" class="BI"/><use xlink:href="#AZ" y="-16" class="BI"/><use xlink:href="#Aa" y="-16" class="BH"/><g class="BF"><path d="M139.7 233.8v3l-1.2.6.1-2.9z"/><path d="M140.9 234.5v3l-1.2-.7v-3z"/></g><path d="M140.9 234.5v3l-1.1.6v-3z" class="BG"/><use xlink:href="#AY" y="-20" class="BF"/><use xlink:href="#AG" y="-24" class="BH"/><use xlink:href="#AH" y="-24.1" class="BF"/><use xlink:href="#Ab" y="-16" class="BI"/><use xlink:href="#AI" y="-24" class="BF"/><use xlink:href="#Ag" y="-4" class="BG"/><use xlink:href="#AK" y="-24" class="BF"/><path d="M141.2 236.4v2.9l-1.7.6v-3z" class="BG"/><g class="BI"><path d="M124.6 239.7v.2-.2z"/><use xlink:href="#AL" y="-24"/></g><use xlink:href="#AM" y="-24" class="BH"/><path d="M131.1 236.7v3l-1.8.6v-3z" class="BF"/><use xlink:href="#AN" y="-24" class="BG"/><g class="BF"><use xlink:href="#AO" y="-24"/><use xlink:href="#AP" y="-24"/></g><g class="BG"><use xlink:href="#Ac" y="-16"/><path d="M130.9 240.2v3l-1.2-.7v-3z"/></g><path d="M130.9 238.8v3l-1.2.7v-3z" class="BF"/><g class="BG"><use xlink:href="#AQ" y="-24"/><use xlink:href="#AR" y="-24"/><path d="M132.2 239.5v3l-1.3.7v-3z"/></g><use xlink:href="#AS" y="-24" class="BF"/><g class="BH"><use xlink:href="#Af" y="-8"/><path d="M141.8 232.8c.1 0 .1.1.2.1-4-2.2-10.3-2.2-14.1.1-3.9 2.3-3.9 5.9-.1 8.2-.1 0-.1-.1-.2-.1-4-2.3-4-6 0-8.3 3.9-2.3 10.3-2.2 14.2 0z"/></g><g class="BF"><use xlink:href="#AV" y="-24"/><use xlink:href="#Ae" y="-16"/></g><use xlink:href="#AW" y="-24" class="BK"/><use xlink:href="#AX" y="-24" class="BI"/><path d="M177.6 251.3c-6-3.5-15.8-3.5-21.7 0-6 3.5-6 9.1.1 12.6 6 3.5 15.8 3.5 21.7 0s5.9-9.1-.1-12.6h0z" class="BO"/><use xlink:href="#Ah" class="BI"/><use xlink:href="#Ai" class="BH"/><g class="BF"><path d="M170 250.9l-.1 3-1.1.6v-2.9z"/><path d="M171.1 251.6v3l-1.2-.7.1-3z"/></g><path d="M171.1 251.6v3l-1 .6v-3z" class="BG"/><use xlink:href="#Aj" class="BF"/><use xlink:href="#AG" x="30.3" y="-6.9" class="BH"/><use xlink:href="#AH" x="30.2" y="-7" class="BF"/><use xlink:href="#Ak" class="BI"/><use xlink:href="#AI" x="30.3" y="-6.9" class="BF"/><path d="M166.4 255.9v-3c0-.1.1-.2.2-.3.3-.2.9-.2 1.7.2.9.5 1.2 1 1.3 1.3v3c-.2-.3-.5-.7-1.3-1.3-.8-.5-1.4-.4-1.7-.2-.1 0-.2.2-.2.3z" class="BG"/><use xlink:href="#AK" x="30.3" y="-6.9" class="BF"/><path d="M171.5 253.5l-.1 2.9-1.7.6v-3z" class="BG"/><g class="BI"><path d="M154.8 256.8v.2-.2z"/><use xlink:href="#AL" x="30.3" y="-6.9"/></g><use xlink:href="#AM" x="30.2" y="-6.9" class="BH"/><path d="M161.4 253.8v3l-1.8.6v-3z" class="BF"/><use xlink:href="#Al" class="BG"/><g class="BF"><use xlink:href="#AO" x="30.2" y="-6.9"/><use xlink:href="#Am"/></g><g class="BG"><path d="M161.1 255.9v3c-.8-.5-1.4-1.1-1.6-1.5v-3c.3.5.9 1 1.6 1.5z"/><path d="M161.2 257.3v3l-1.2-.7v-3z"/></g><path d="M161.1 255.9v3l-1.1.7v-3z" class="BF"/><g class="BG"><use xlink:href="#AQ" x="30.2" y="-6.9"/><use xlink:href="#AR" x="30.2" y="-6.9"/><path d="M162.4 256.6v3l-1.2.7v-3z"/></g><use xlink:href="#An" class="BF"/><g class="BH"><use xlink:href="#Af" x="30.2" y="9.1"/><use xlink:href="#Ao"/></g><g class="BF"><use xlink:href="#AV" x="30.3" y="-6.9"/><use xlink:href="#Ap"/></g><use xlink:href="#Aq" class="BK"/><use xlink:href="#Ar" class="BI"/><use xlink:href="#Ah" y="-4" class="BI"/><use xlink:href="#Ai" y="-4" class="BH"/><g class="BF"><path d="M170 246.9l-.1 3-1.1.6v-2.9z"/><path d="M171.1 247.6v3l-1.2-.7.1-3z"/></g><path d="M171.1 247.6v3l-1 .6v-3z" class="BG"/><use xlink:href="#Aj" y="-4" class="BF"/><use xlink:href="#AG" x="30.3" y="-10.9" class="BH"/><use xlink:href="#AH" x="30.2" y="-11" class="BF"/><use xlink:href="#Ak" y="-4.1" class="BI"/><use xlink:href="#AI" x="30.3" y="-10.9" class="BF"/><use xlink:href="#As" class="BG"/><use xlink:href="#AK" x="30.3" y="-10.9" class="BF"/><path d="M171.5 249.4l-.1 3-1.7.6v-3z" class="BG"/><g class="BI"><path d="M154.8 252.8v.2-.3c0 0 0 .1 0 .1z"/><use xlink:href="#AL" x="30.3" y="-10.9"/></g><use xlink:href="#AM" x="30.2" y="-10.9" class="BH"/><path d="M161.4 249.8v3l-1.8.6v-3z" class="BF"/><use xlink:href="#Al" y="-4" class="BG"/><g class="BF"><use xlink:href="#AO" x="30.2" y="-10.9"/><use xlink:href="#Am" y="-4"/></g><g class="BG"><path d="M161.1 251.9v3c-.8-.5-1.4-1.1-1.6-1.5v-3c.3.5.9 1 1.6 1.5z"/><path d="M161.2 253.3v3l-1.2-.7v-3z"/></g><path d="M161.1 251.9v3l-1.1.7v-3z" class="BF"/><g class="BG"><use xlink:href="#AQ" x="30.2" y="-10.9"/><use xlink:href="#AR" x="30.2" y="-10.9"/><path d="M162.4 252.6v3l-1.2.7v-3z"/></g><use xlink:href="#An" y="-4" class="BF"/><g class="BH"><use xlink:href="#At"/><use xlink:href="#Ao" y="-4"/></g><g class="BF"><use xlink:href="#AV" x="30.3" y="-10.9"/><use xlink:href="#Ap" y="-4"/></g><use xlink:href="#Aq" y="-4" class="BK"/><use xlink:href="#Ar" y="-4" class="BI"/><use xlink:href="#Ah" y="-8" class="BI"/><use xlink:href="#Ai" y="-8" class="BH"/><g class="BF"><path d="M170 242.9l-.1 3-1.1.6v-3z"/><path d="M171.1 243.6v3l-1.2-.7.1-3z"/></g><path d="M171.1 243.6v3l-1 .6v-3z" class="BG"/><use xlink:href="#Aj" y="-8" class="BF"/><use xlink:href="#AG" x="30.3" y="-14.9" class="BH"/><use xlink:href="#AH" x="30.2" y="-15" class="BF"/><use xlink:href="#Ak" y="-8.1" class="BI"/><use xlink:href="#AI" x="30.3" y="-14.9" class="BF"/><use xlink:href="#As" y="-4" class="BG"/><use xlink:href="#AK" x="30.3" y="-14.9" class="BF"/><path d="M171.5 245.4l-.1 3-1.7.6v-3z" class="BG"/><g class="BI"><path d="M154.8 248.8v.2-.3c0 0 0 .1 0 .1z"/><use xlink:href="#AL" x="30.3" y="-14.9"/></g><use xlink:href="#AM" x="30.2" y="-14.9" class="BH"/><path d="M161.4 245.8v3l-1.8.6v-3z" class="BF"/><use xlink:href="#Al" y="-8" class="BG"/><g class="BF"><use xlink:href="#AO" x="30.2" y="-14.9"/><use xlink:href="#Am" y="-8"/></g><g class="BG"><path d="M161.1 247.9v3c-.8-.5-1.4-1.1-1.6-1.5v-3c.3.4.9 1 1.6 1.5z"/><path d="M161.2 249.3v3l-1.2-.7v-3z"/></g><path d="M161.1 247.9v3l-1.1.7v-3z" class="BF"/><g class="BG"><use xlink:href="#AQ" x="30.2" y="-14.9"/><use xlink:href="#AR" x="30.2" y="-14.9"/><path d="M162.4 248.6v3l-1.2.7v-3z"/></g><use xlink:href="#An" y="-8" class="BF"/><g class="BH"><use xlink:href="#At" y="-4"/><use xlink:href="#Ao" y="-8"/></g><g class="BF"><use xlink:href="#AV" x="30.3" y="-14.9"/><use xlink:href="#Ap" y="-8"/></g><use xlink:href="#Aq" y="-8" class="BK"/><use xlink:href="#Ar" y="-8" class="BI"/><use xlink:href="#Ah" y="-12" class="BI"/><use xlink:href="#Ai" y="-12" class="BH"/><g class="BF"><path d="M170 238.9l-.1 3-1.1.6v-3z"/><path d="M171.1 239.6v3l-1.2-.7.1-3z"/></g><path d="M171.1 239.6v3l-1 .6v-3z" class="BG"/><use xlink:href="#Aj" y="-12" class="BF"/><use xlink:href="#AG" x="30.3" y="-18.9" class="BH"/><use xlink:href="#AH" x="30.2" y="-19" class="BF"/><use xlink:href="#Ak" y="-12.1" class="BI"/><use xlink:href="#AI" x="30.3" y="-18.9" class="BF"/><use xlink:href="#As" y="-8" class="BG"/><use xlink:href="#AK" x="30.3" y="-18.9" class="BF"/><path d="M171.5 241.4l-.1 3-1.7.6v-3z" class="BG"/><g class="BI"><path d="M154.8 244.8v.2-.3c0 0 0 .1 0 .1z"/><use xlink:href="#AL" x="30.3" y="-18.9"/></g><use xlink:href="#AM" x="30.2" y="-18.9" class="BH"/><path d="M161.4 241.8v3l-1.8.6v-3z" class="BF"/><use xlink:href="#Al" y="-12" class="BG"/><g class="BF"><use xlink:href="#AO" x="30.2" y="-18.9"/><use xlink:href="#Am" y="-12"/></g><g class="BG"><path d="M161.1 243.9v3c-.8-.5-1.4-1.1-1.6-1.5v-3c.3.4.9 1 1.6 1.5z"/><path d="M161.2 245.3v3l-1.2-.7v-3z"/></g><path d="M161.1 243.9v3l-1.1.7v-3z" class="BF"/><g class="BG"><use xlink:href="#AQ" x="30.2" y="-18.9"/><use xlink:href="#AR" x="30.2" y="-18.9"/><path d="M162.4 244.6v3l-1.2.7v-3z"/></g><use xlink:href="#An" y="-12" class="BF"/><g class="BH"><use xlink:href="#At" y="-8"/><use xlink:href="#Ao" y="-12"/></g><g class="BF"><use xlink:href="#AV" x="30.3" y="-18.9"/><use xlink:href="#Ap" y="-12"/></g><use xlink:href="#Aq" y="-12" class="BK"/><use xlink:href="#Ar" y="-12" class="BI"/><path d="M160.8 253.9h0c1.1 3.2.8 6.7-.6 9.5h2.3c1.3-2.8 1.6-6.3.6-9.5 0-.1-.1-.3-.1-.4h-2.3c.1.1.1.2.1.4z" class="BI"/><g class="BH"><path d="M161.1 259.5h2.3c.1-.5.1-1 .1-1.5h-2.3c0 .4 0 .9-.1 1.5z"/><path d="M161.1 259.5v.4h2.3v-.4h-2.3zm0-2.9c.1.4.1.9.1 1.3h2.3c0-.4 0-.9-.1-1.3-.8.1-1.5 0-2.3 0z"/><path d="M161.1 256.6h2.3c0-.2-.1-.4-.1-.6H161c0 .2.1.4.1.6z"/><path d="M160.5 254.1c.2.6.4 1.3.5 1.9h2.3c-.1-.6-.3-1.3-.5-1.9h-2.3z"/></g><g class="BI"><path d="M159.5 264.7h2.3c.3-.4.6-.9.8-1.4h-2.3c-.2.5-.5 1-.8 1.4z"/><path d="M159.5 264.7c0 .1-.1.1-.1.2h2.3c0-.1.1-.1.1-.2-.8.1-1.5.1-2.3 0z"/><path d="M156.9 267.3h2c.1 0 .1-.1.2-.1 1-.6 1.8-1.4 2.5-2.3h-2.3c-.7 1-1.6 1.8-2.5 2.3-.1 0-.1.1-.2.1h.3z"/></g><path d="M161.1 259.9c-.4 3.2-2 6-4.4 7.5h2.3c2.4-1.5 4-4.3 4.4-7.5h-2.3z" class="BH"/><path d="M156.6 267.3h2.3c-.7.1-1.5.1-2.3 0z" class="BI"/><g class="BF"><path d="M158.7 258.9h-2.3l1 1.6h2.3z"/><path d="M159.7 260.5h-2.3c-.3.6-1 1.4-1.8 1.9h2.3c.7-.5 1.4-1.3 1.8-1.9z"/><path d="M157.8 262.4h-2.3l.5 1.5h2.3zm-2.5-7h2.3v-.1h-2.4c.1 0 .1.1.1.1z"/><path d="M155.3 255.4c0 .3-.1.6-.2.9h2.3c.1-.3.2-.6.2-.9h-2.3zm3 8.5H156l-1.2.6 2.3.1z"/></g><path d="M156.6 263l-2.3-.1.5 1.6 2.3.1zm-2.8-2h2.3c.2 0 .5-.1.8-.2.8-.5 1.4-1.2 1.8-1.9h-2.3c-.4.7-1 1.4-1.8 1.9-.3.1-.6.2-.8.2z" class="BG"/><path d="M156.6 267.3c-1 .6-2.1.8-3.1.8h2.3c1 0 2.1-.2 3.1-.8-.6.1-1.6-.1-2.3 0zm-2.8-19.4c2.8 0 5.5 2.1 6.9 5.6h2.3c-1.3-3.5-4-5.5-6.9-5.6h-2.3z" class="BI"/><path d="M154.3 262.9c-.3.1-.6.2-.9.2h2.3c.3 0 .6 0 .9-.2-.7.1-1.6-.1-2.3 0z" class="BF"/><path d="M155.8 248.1h-2.3c3 .1 5.7 2.3 7 6h2.3c-1.2-3.7-4-5.9-7-6z" class="BH"/><g class="BF"><path d="M153.9 258.3c-.4.5-.6.8-.8 1.2h2.3c.1-.3.4-.7.8-1.2.6-.7 1-1.3 1.2-2h-2.3c-.2.7-.6 1.4-1.2 2z"/><path d="M153.1 260.4c.1.4.4.5.7.5h2.3c-.3 0-.6-.2-.7-.5s-.1-.6 0-.9h-2.3c-.1.3-.1.6 0 .9zm2-6.2c.1.4.2.7.2 1.1h2.3c0-.4-.1-.7-.2-1.1-.4-1.1-1.1-1.7-2.1-1.7H153c1 0 1.8.6 2.1 1.7z"/></g><path d="M154.9 254.5h-2.3c.3 0 .5.2.6.5.2.5-.1 1.1-1 2.2h2.3c.9-1.1 1.2-1.7 1-2.2-.1-.3-.3-.5-.6-.5zm.4-2H153c-.3 0-.6 0-.9.1h2.3c.3-.1.6-.1.9-.1z" class="BG"/><path d="M153.9 251.1h-2.3l.5 1.5h2.3z" class="BF"/><path d="M153.3 263.1h2.3c-1.1 0-1.8-.7-2.2-1.8-.5-1.4-.2-2.6 1-4.1h-2.3c-1.2 1.5-1.5 2.7-1 4.1.4 1.1 1.2 1.8 2.2 1.8z" class="BG"/><path d="M155.8 248.1h-2.3a6.33 6.33 0 0 0-3.2.8h2.3c1.1-.5 2.2-.8 3.2-.8z" class="BF"/><path d="M156.2 247.9h-2.3c-1.1 0-2.2.3-3.3.9h2.3c1-.6 2.1-.9 3.3-.9z" class="BH"/><g class="BG"><path d="M153.9 251.1h-2.3l-1.2.7h2.3z"/><path d="M152.7 251.8h-2.3l.5 1.3 2.3.1z"/></g><path d="M151.8 254.7c-.9.5-1.3 1.2-1.6 1.5h2.3c.3-.4.7-1 1.6-1.5h-2.3 2.3c.3-.2.5-.2.7-.2h-2.3c-.2 0-.4 0-.7.2z" class="BF"/><g class="BH"><path d="M152.8 248.8c-.1 0-.1.1-.2.1 3.9-2.1 8.4.1 10.2 5.2 1.7 5 0 10.9-3.9 13.3.1 0 .1-.1.2-.1 4-2.3 5.8-8.3 4-13.4-1.7-5.1-6.3-7.4-10.3-5.1z"/><path d="M150.5 248.8c-.1 0-.1.1-.2.1h2.3c.1 0 .1-.1.2-.1-.7 0-1.6-.2-2.3 0z"/></g><path d="M156.2 244.4h-2.3c-1.5 0-3 .4-4.5 1.2h2.3c1.5-.8 3-1.2 4.5-1.2z" class="BK"/><g class="BG"><path d="M151.6 254.7h-2.3l.9 1.6h2.4z"/><path d="M153.2 253.2h-2.3c-.8.5-1.3 1.1-1.6 1.5h2.3c.3-.5.8-1 1.6-1.5z"/><path d="M152.7 251.8l.5 1.4c-.8.5-1.3 1.1-1.6 1.5l1 1.6c.3-.4.7-1 1.6-1.5.8-.5 1.2-.2 1.3.3.2.5-.1 1.1-1 2.2-1.2 1.5-1.5 2.7-1 4.1s1.7 2.1 3.2 1.7l.5 1.6 1.2-.7-.5-1.5c.8-.5 1.5-1.3 1.8-1.9l-1-1.6c-.4.7-1 1.4-1.8 1.9-.7.4-1.3.3-1.5-.3s.1-1.2.8-2.1c1.1-1.3 1.7-2.6 1.2-4.1-.5-1.4-1.6-2-3-1.6l-.5-1.5-1.2.5z"/></g><path d="M153.5 268.1h2.3c-3-.1-5.7-2.3-7-6-1.7-5 0-10.9 3.9-13.3h-2.3c-3.9 2.4-5.6 8.2-3.9 13.3 1.3 3.8 4 6 7 6z" class="BF"/><path d="M153.4 271.6h2.3c-4-.1-7.7-3-9.4-8-2.3-6.9.1-14.9 5.4-18h-2.3c-5.3 3.1-7.8 11.1-5.4 18 1.7 5 5.5 8 9.4 8z" class="BK"/><path d="M165.6 252.5c2.3 6.9-.1 14.9-5.4 18s-11.5 0-13.9-6.8c-2.3-6.9.1-14.9 5.4-18 5.4-3.1 11.6-.1 13.9 6.8zm-6.6 14.9c.1 0 .1-.1.2-.1 4-2.3 5.8-8.3 4-13.4-1.7-5.1-6.4-7.4-10.3-5.1-.1 0-.1.1-.2.1-3.9 2.4-5.6 8.2-3.9 13.3 1.7 5 6.2 7.3 10.2 5.2h0z" class="BI"/><path d="M162.8 254.1c1.7 5 0 10.9-3.9 13.3-3.9 2.1-8.4-.2-10.2-5.2-1.7-5 0-10.9 3.9-13.3 4-2.1 8.5.2 10.2 5.2zm-6.2 8.9l.5 1.6 1.2-.7-.5-1.5c.8-.5 1.5-1.3 1.8-1.9l-1-1.6c-.4.7-1 1.4-1.8 1.9-.7.4-1.3.3-1.5-.3s.1-1.2.8-2.1c1.1-1.3 1.7-2.6 1.2-4.1-.5-1.4-1.6-2-3-1.6l-.5-1.5-1.2.7.5 1.4c-.8.5-1.3 1.1-1.6 1.5l1 1.6c.3-.4.7-1 1.6-1.5.8-.5 1.2-.2 1.3.3.2.5-.1 1.1-1 2.2-1.2 1.5-1.5 2.7-1 4.1.5 1.2 1.7 2 3.2 1.5h0z" class="BF"/></g></g><ellipse cx="401.8" cy="286.2" rx="11.7" ry="4.2" class="BO"/><path d="M421.4 285.8c-2.5 1.6-.9 3.5-2.9 4.6s-5.4-1.3-7.1-2.2l-10.2-5.9-14.2 8.2c-2.1 1.2-.3 1.9 3.3 2.3 3.5.3 5.2 1.2 6 2.4 1 1.5-.9 5.4-5.8 5.8-6.2.5-7.6-2.1-8.5-4.4-1-2.2-3.7-1.3-6 0s-12 7.1-12 7.1l14.4 8.3s2.7 1.1 3.5-.6.1-3.1 3-4.7 7.9-.6 9.8.6c1.8 1.2 3.8 4.1 0 6.1-3.7 2-6.3.5-8.1 1.5-1.8 1.1.7 2.6 3.2 4.1l10.8 6.2 11.9-6.8c2.3-1.3 4.4-2.6 5.8-1.9 2 1.1.9 3.5 2.9 4.6s6 2.5 10 .2 3.3-4.7.9-6.1-6.2-.9-7.7-1.4c-1.6-.5-1.6-1.3.6-2.6l13.5-7.9-12.4-7.2c-1.5-.9-3.6-1.7-2.3-2.8s5.6-.2 8.4-1.8c1.7-1 3.5-3.5-.4-5.8-4.2-2.1-7.9-1.4-10.4.1z" class="BP"/><path d="M421.9 284.9c-2.5 1.6-.9 3.5-2.9 4.6s-5.4-1.3-7.1-2.2l-10.2-5.9-14.2 8.2c-2.1 1.2-.3 1.9 3.3 2.3 3.5.3 5.2 1.2 6 2.4 1 1.5-.9 5.4-5.8 5.8-6.2.5-7.6-2.1-8.5-4.4-1-2.2-3.7-1.3-6 0s-12 7.1-12 7.1l14.4 8.3s2.7 1.1 3.5-.6.1-3.1 3-4.7 7.9-.6 9.8.6c1.8 1.2 3.8 4.1 0 6.1-3.7 2-6.3.5-8.1 1.5-1.8 1.1.7 2.6 3.2 4.1l10.8 6.2 11.9-6.8c2.3-1.3 4.4-2.6 5.8-1.9 2 1.1.9 3.5 2.9 4.6s6 2.5 10 .2 3.3-4.7.9-6.1-6.2-.9-7.7-1.4c-1.6-.5-1.6-1.3.6-2.6l13.5-7.9-12.4-7.2c-1.5-.9-3.6-1.7-2.3-2.8s5.6-.2 8.4-1.8c1.7-1 3.5-3.5-.4-5.8-4.2-2.1-8-1.5-10.4.1z" class="BU"/><path d="M397.5 285.4c.1 1.2 1.6 11.9 1.6 13.5 1.5 1.1 3.7 1 3.7 1l.3-5.9c.1-1.5.6-4.4.5-5.6s-1.4-3.1-1.4-3.1V274s1.7 9.3 3.2 12.8 4.2 18.1 4.2 18.1c-.7 2-5.9 4.2-3 5.4s4.6-1.9 5.4-2.2c.8-.4 2.5-1 1.5-4.1s-.8-9.1-1.1-12.3c-.2-3.2-2.1-6.4-2.1-6.4s.1-1.7 0-5-1.6-13.9-1.6-13.9H396c0-.1 1.3 17.8 1.5 19z" fill="#212120"/><path d="M406.7 310.3c2.9 1.2 4.6-1.9 5.4-2.2.8-.4 2.5-1 1.5-4.1 0 0-1.3 1.6-3.9 1-.7 1.9-5.9 4.2-3 5.3zm-12.7-7.6c1.2 1 3.3 0 4.8-.2s2.5 0 3.6-.2c1.1-.3.3-2.4.3-2.4s-2.1.1-3.7-1c0 1.5-6.1 2.8-5 3.8z" fill="#333"/><path d="M398.9 267l3.3.1s.5-17.5 4-20.6l-2-.8c-.6-.2-1.8-.3-3.1-.2-3.6 6.8-2.2 21.5-2.2 21.5z" class="BL"/><path d="M409.7 268.2c2.3-1.7 7.5-4.8 7.5-6 0-1.5-4.7-10.5-5.3-11.7s-1.9-2.5-3.5-1.7c-1.3.7-1.9 2.6-1.1 4.1.4.7 5 7.6 4.6 8.5-.3.6-2.9 2.9-4.5 4.2.7.6 1.7 1.5 2.3 2.6zm-25.4-6.3s5.2-2.4 6.3-3.4c1.2-1 8.1-7.5 9.1-8.8s-.4-3.1-.4-3.1c-.7-.7-1.7-1.1-2.2-.5s-6.3 7.7-7.7 8.6c-1.2.7-4.9 3.8-6.9 4.9.9.7 1.8 2.3 1.8 2.3z" fill="#333"/><path d="M375.8 262.3c0 .4 2.1 2.9 4.9 1.7 1.5-.6 2.4-1.2 3-1.6-.3-.9-1.5-2.2-1.9-2.7h-.1c-1.2.1-3.6-1.3-4.4-.6s1.8 1.7 1.8 1.7-3.3 1.1-3.3 1.5z" class="BM"/><path d="M381.7 259.8c.4.5 1.6 1.8 1.9 2.7.4-.3.7-.5.7-.6h0s-.9-1.6-1.8-2.5c-.3.2-.6.3-.8.4z" class="BL"/><path d="M403.4 273.9c1.3.6 5.7 1.4 6.9.6s-1.1-8.6-1.2-9.8c-.1-1.1 0-7.1.5-8.8.5-1.8 1.9-5.6 1.3-6.7-.4-.8-2.9-1.9-4.7-2.7-3.5 3-4 20.6-4 20.6s-.1 6.2 1.2 6.8zm-7.3.6c.6.3 2.8-.9 2.9-1.5.1-.7-.1-6-.1-6s-1.3-14.7 2.2-21.5c-1.8.1-3.7.3-4 .6-.5.4-1.8 2.2-1.7 4.7s0 15.3 0 16.8c0 1.4.2 6.6.7 6.9z" fill="#333"/><path d="M402.1 247.4l-.8 1.1s-.1-1.9.4-3.3l.4 2.2z" fill="#efefef"/><path d="M402.7 249s-1.9 7.8-1.5 12.9l-1.2 2.4-.8-2.7s1.4-10.3 2.5-12.9l1 .3z" fill="#ed2a5b"/><path d="M401.2 237.2c-1.5.2-2.3.7-2.6 1.7-.2 1.1.1 2.6.3 3.2s1.4 3.7 2 3.8c.6 0 3.7-1.3 3.7-3.3s0-4.9-.6-5.1c-.5-.1-2.8-.3-2.8-.3z" class="BM"/><path d="M404.5 241.8s-1.4-1.6-1.4-2.7c0 0-3.6.5-4.4-.3 0 0 .1-2.4 4.4-3 4.4-.6 3.7 6.5 2.5 7.9l-1.1-1.9z" fill="#6b461b"/><g class="BM"><path d="M405.5 241.3l.2 4.7s-.1 2.3-3.6 1.9l-.7-4.2 4.1-2.4z"/><path d="M404.1 241.8s.7-1.9 1.6-1.2c.8.7-.8 2.2-1.4 2.3l-.2-1.1z"/></g><path d="M405.7 245.3l.5 1.2s-1.1 1.9-2.9 2.6l-.7-1.6c.1 0 2.2-.4 3.1-2.2z" fill="#efefef"/><path d="M402.7 247.5l-.6-.1-.7.9.2.5 1.1.2.5-.3z" fill="#ed2a5b"/><path d="M405.9 272.3c1.1-.2.4-1.3.6-1.5s1.8-.7 2-1.6c0-.1.1-.2.3-.3 0 0-.7-1.4-2.1-2.6-.2.2-.4.3-.5.3-.7.4-1.9 1.8-2.2 2.8-.1 1.1.8 3.1 1.9 2.9z" class="BM"/><path d="M406.7 266.3a9.36 9.36 0 0 1 2.1 2.6h0c.2-.2.5-.4.8-.7-.6-1.1-1.6-2-2.2-2.5-.2.2-.5.4-.7.6z" class="BL"/><defs ><path id="k" d="M333.7 201.9l-7 4c-.4.2-.9.2-1.3 0l-12.3-7.1c-.4-.2-.4-.5 0-.8l7-4c.4-.2 1-.2 1.3 0l12.3 7.1c.3.2.3.6 0 .8z"/><path id="l" d="M303.2 193.1l7.4 4.3c.4.2 1 .2 1.3 0l7-4c.4-.2.4-.5 0-.8l-7.4-4.3c-.4-.2-1-.2-1.3 0l-7 4c-.3.3-.3.6 0 .8z"/><path id="m" d="M293.4 187.4l7.4 4.3c.4.2 1 .2 1.3 0l7-4c.4-.2.4-.5 0-.8l-7.4-4.3c-.4-.2-1-.2-1.3 0l-7 4c-.4.3-.4.6 0 .8z"/><path id="n" d="M263.8 170.4l7.4 4.3c.4.2 1 .2 1.3 0l7-4c.4-.2.4-.5 0-.8l-7.4-4.3c-.4-.2-1-.2-1.3 0l-7 4c-.3.2-.3.6 0 .8z"/><path id="o" d="M254 164.7l7.4 4.3c.4.2 1 .2 1.3 0l7-4c.4-.2.4-.5 0-.8l-7.4-4.3c-.4-.2-1-.2-1.3 0l-7 4c-.4.2-.4.6 0 .8z"/><path id="p" d="M283.5 181.1l7.4 4.3c.4.2 1 .2 1.3 0l7-4c.4-.2.4-.5 0-.8l-7.4-4.3c-.4-.2-1-.2-1.3 0l-7 4c-.3.2-.3.5 0 .8z"/><path id="q" d="M350.2 243.6l-6.1-3.5c-.3-.2-.3-.5 0-.7l3.7-2.2c.3-.2.9-.2 1.2 0l6.1 3.5c.3.2.3.5 0 .7l-3.7 2.2a2.44 2.44 0 0 1-1.2 0z"/><path id="r" d="M341.9 238.8l-6.1-3.5c-.3-.2-.3-.5 0-.7l3.7-2.2a1.28 1.28 0 0 1 1.2 0l6.1 3.5c.3.2.3.5 0 .7l-3.7 2.2c-.3.2-.8.2-1.2 0z"/><path id="s" d="M358.5 248.3l-6.1-3.5c-.3-.2-.3-.5 0-.7l3.7-2.2a1.28 1.28 0 0 1 1.2 0l6.1 3.5c.3.2.3.5 0 .7l-3.7 2.2a1.28 1.28 0 0 1-1.2 0z"/><path id="t" d="M344.4 246.9l-6.1-3.5c-.3-.2-.3-.5 0-.7l3.7-2.2c.3-.2.9-.2 1.2 0l6.1 3.5c.3.2.3.5 0 .7l-3.7 2.2c-.3.2-.9.2-1.2 0z"/><path id="u" d="M336.1 242.1l-6.1-3.5c-.3-.2-.3-.5 0-.7l3.7-2.2c.3-.2.9-.2 1.2 0l6.1 3.5c.3.2.3.5 0 .7l-3.7 2.2c-.3.2-.8.2-1.2 0z"/><path id="v" d="M327.9 237.3l-6.1-3.5c-.3-.2-.3-.5 0-.7l3.7-2.2a1.28 1.28 0 0 1 1.2 0l6.1 3.5c.3.2.3.5 0 .7l-3.7 2.2c-.4.2-.9.2-1.2 0z"/><path id="w" d="M330.3 245.5l-6.1-3.5c-.3-.2-.3-.5 0-.7l3.7-2.2a1.28 1.28 0 0 1 1.2 0l6.1 3.5c.3.2.3.5 0 .7l-3.7 2.2c-.3.1-.8.1-1.2 0z"/><path id="x" d="M318.8 252.1l-6.1-3.5c-.3-.2-.3-.5 0-.7l3.7-2.2c.3-.2.9-.2 1.2 0l6.1 3.5c.3.2.3.5 0 .7l-3.7 2.2c-.4.2-.9.2-1.2 0z"/><path id="y" d="M321.3 260.3l-6.1-3.5c-.3-.2-.3-.5 0-.7l3.7-2.2a1.28 1.28 0 0 1 1.2 0l6.1 3.5c.3.2.3.5 0 .7l-3.7 2.2c-.4.1-.9.1-1.2 0z"/><path id="z" d="M329.6 265l-6.1-3.5c-.3-.2-.3-.5 0-.7l9.5-5.5a1.28 1.28 0 0 1 1.2 0l6.1 3.5c.3.2.3.5 0 .7l-9.5 5.5c-.4.2-.9.2-1.2 0z"/><path id="AA" d="M21.9 187.8c-.1-.1-.3 0-.4.1s0 .3.1.4l.9.5h.1c.1 0 .2 0 .2-.1.1-.1 0-.3-.1-.4l-.8-.5z"/><path id="AB" d="M101.7 194.8h.1l.9-.5c.1-.1.2-.2.1-.4-.1-.1-.2-.2-.4-.1l-.9.5c-.1.1-.2.2-.1.4.1.1.2.1.3.1z"/><path id="AC" d="M64.5 162.9c.1 0 .2 0 .2-.1.1-.1 0-.3-.1-.4l-1-.6c-.1-.1-.3 0-.4.1s0 .3.1.4l1 .6h.2z"/><path id="AD" d="M107.3 191.5h.1l.9-.5c.1-.1.2-.2.1-.4-.1-.1-.2-.2-.4-.1l-.9.5c-.1.1-.2.2-.1.4.2.1.2.1.3.1z"/><path id="AE" d="M73.3 211.2h.1l.9-.5c.1-.1.2-.2.1-.4-.1-.1-.2-.2-.4-.1l-.9.5c-.1.1-.2.2-.1.4.1 0 .2.1.3.1z"/><path id="AF" d="M127.5 259.8c-1.5.9-2.4 1.9-2.8 3v-3c.4-1.1 1.3-2.2 2.8-3 3.9-2.3 10.3-2.3 14.3 0 .1 0 .1.1.2.1 1.4.9 2.3 1.9 2.7 3v3c-.3-1.1-1.2-2.1-2.7-3-.1 0-.1-.1-.2-.1-3.9-2.2-10.4-2.2-14.3 0z"/><path id="AG" d="M127.8 260c-1.5.8-2.4 1.9-2.7 3v-3c.4-1.1 1.3-2.1 2.7-3v3z"/><path id="AH" d="M141.2 263.4c-.2-.3-.6-.8-1.4-1.3v-3c.8.5 1.2.9 1.4 1.3v3z"/><path id="AI" d="M131.2 263.9c0-.1-.1-.1-.1-.2v-3c0 .1.1.1.1.2v3z"/><path id="AJ" d="M136.2 262.8v-3c0-.1.1-.2.2-.3.3-.2.9-.2 1.7.2.9.5 1.2 1 1.3 1.3v3c-.2-.3-.5-.7-1.3-1.3-.8-.5-1.4-.4-1.7-.2-.2.1-.2.2-.2.3z"/><path id="AK" d="M136.8 263.9c-.4-.5-.6-.9-.6-1.1v-3c0 .2.2.6.6 1.1v3z"/><path id="AL" d="M144.8 264c0-.4-.1-.7-.2-1.1v-3c.1.4.2.7.2 1.1v3z"/><path id="AM" d="M125.1 263c-.1.4-.2.8-.2 1.1v-3c0-.4.1-.8.2-1.1v3z"/><path id="AN" d="M134.8 262v3c0-.2-.2-.5-.5-.9-.5-.5-.8-1-.8-1.5v-3c0 .5.3.9.8 1.5.4.4.5.7.5.9z"/><path id="AO" d="M137.5 265.3c0-.4-.2-.8-.7-1.3v-3c.4.5.7 1 .7 1.3v3z"/><path id="AP" d="M131.2 263.9v-3.1c.3.4.7.9 1.4 1.3s1.4.5 1.9.2c.2-.1.3-.2.3-.4v3c0 .2-.1.3-.3.4-.5.3-1.2.2-1.9-.2-.7-.3-1.1-.8-1.4-1.2z"/><path id="AQ" d="M137.5 262.3v3c0 .4-.3.8-.9 1.2-1.1.6-2.8.7-4.4 0v-3c1.6.7 3.3.6 4.4 0 .6-.4.9-.8.9-1.2z"/><path id="AR" d="M140.9 258.5l-1.1.6c.8.5 1.2.9 1.4 1.3l-1.7.6c-.2-.3-.5-.7-1.3-1.3-.8-.5-1.4-.4-1.7-.2-.4.2-.2.6.4 1.5.9 1.1.9 1.9-.2 2.5s-2.8.7-4.4 0l-1.2.7-1.2-.7 1.2-.7c-.8-.5-1.4-1.1-1.6-1.5l1.8-.6c.2.5.7 1 1.5 1.5.7.4 1.4.5 1.9.2s.4-.7-.2-1.4c-.9-1-1.2-1.9 0-2.6 1.1-.6 2.7-.7 4.2-.1l1.2-.7 1 .9z"/><path id="AS" d="M124.9 264.1v-3c0 1.5.9 2.9 2.8 4.1v3c-1.9-1.1-2.8-2.6-2.8-4.1z"/><path id="AT" d="M124.6 264v-3c0 1.5 1 3 3 4.2.1 0 .1.1.2.1v3c-.1 0-.1-.1-.2-.1-2-1.2-3-2.7-3-4.2z"/><path id="AU" d="M141.8 256.9c.1 0 .1.1.2.1-4-2.2-10.3-2.2-14.1.1-3.9 2.3-3.9 5.9-.1 8.2-.1 0-.1-.1-.2-.1-4-2.3-4-6 0-8.3 3.9-2.3 10.3-2.3 14.2 0z"/><path id="AV" d="M144.8 261v3c0 1.5-1 3-2.9 4.1-3.9 2.3-10.2 2.3-14.1.1v-3c4 2.2 10.3 2.2 14.1-.1 1.9-1.1 2.9-2.6 2.9-4.1z"/><path id="AW" d="M148.3 261v3c0 2-1.3 4-4 5.5-5.3 3.1-13.9 3.1-19.2 0-2.7-1.5-4-3.6-4-5.6v-3c0 2 1.3 4.1 4 5.6 5.3 3.1 13.9 3.1 19.2 0 2.7-1.5 4-3.5 4-5.5z"/><path id="AX" d="M144.3 255.4c5.3 3.1 5.4 8.1.1 11.1-5.3 3.1-13.9 3.1-19.2 0s-5.4-8.1-.1-11.1c5.2-3.1 13.9-3.1 19.2 0zm-16.6 9.8c4 2.2 10.3 2.2 14.1-.1 3.9-2.3 3.9-5.9.1-8.2-.1 0-.1-.1-.2-.1-4-2.3-10.4-2.3-14.3 0s-3.9 6 0 8.3c.2.1.3.1.3.1h0z"/><path id="AY" d="M134.3 257.5c-.5.3-.8.7-.8 1.1v-3c0-.4.2-.8.8-1.1 1.1-.6 2.7-.7 4.2-.1v3c-1.5-.6-3.1-.5-4.2.1z"/><path id="AZ" d="M127.5 251.8c-1.5.9-2.4 1.9-2.8 3v-3c.4-1.1 1.3-2.2 2.8-3 3.9-2.3 10.3-2.3 14.3 0 .1 0 .1.1.2.1 1.4.9 2.3 1.9 2.7 3v3c-.3-1.1-1.2-2.1-2.7-3-.1 0-.1-.1-.2-.1-3.9-2.3-10.4-2.3-14.3 0z"/><path id="Aa" d="M142 248.9v3c-4-2.2-10.3-2.2-14.1.1v-3c3.8-2.2 10.1-2.3 14.1-.1z"/><path id="Ab" d="M124.7 254.9c-.1.3-.2.6-.2.9v-3c0-.3.1-.6.2-.9v2.8c0 0 .1.1 0 .2z"/><path id="Ac" d="M130.9 254.8v3c-.8-.5-1.4-1.1-1.6-1.5v-3c.2.5.8 1 1.6 1.5z"/><path id="Ad" d="M141.8 248.8c.1 0 .1.1.2.1-4-2.2-10.3-2.2-14.1.1-3.9 2.3-3.9 5.9-.1 8.2-.1 0-.1-.1-.2-.1-4-2.3-4-6 0-8.3 3.9-2.2 10.3-2.2 14.2 0z"/><path id="Ae" d="M142 248.9c3.8 2.3 3.8 5.9-.1 8.2s-10.2 2.3-14.1.1c-3.8-2.3-3.8-5.9.1-8.2 3.8-2.2 10.1-2.3 14.1-.1zm-9.8 6.6c1.6.7 3.3.6 4.4 0s1.2-1.4.2-2.5c-.7-.8-.8-1.2-.4-1.5.3-.2.9-.2 1.7.2.9.5 1.2 1 1.3 1.3l1.7-.6c-.2-.3-.6-.8-1.4-1.3l1.1-.6-1.2-.7-1.2.7c-1.6-.6-3.2-.6-4.2.1-1.2.7-.9 1.6 0 2.6.6.7.7 1.1.2 1.4s-1.2.2-1.9-.2c-.8-.5-1.3-1-1.5-1.5l-1.8.6c.2.4.8 1 1.6 1.5l-1.2.7 1.2.7 1.4-.9z"/><path id="Af" d="M124.6 247.9v-3c0 1.5 1 3 3 4.2.1 0 .1.1.2.1v3c-.1 0-.1-.1-.2-.1-2-1.1-3-2.6-3-4.2z"/><path id="Ag" d="M136.2 242.8v-3c0-.1.1-.2.2-.3.3-.2.9-.2 1.7.2.9.5 1.2 1 1.3 1.3v3c-.2-.3-.5-.7-1.3-1.3-.8-.5-1.4-.4-1.7-.2-.2 0-.2.2-.2.3z"/><path id="Ah" d="M157.8 252.9c-1.5.9-2.4 1.9-2.8 3v-3c.4-1.1 1.3-2.2 2.8-3 3.9-2.3 10.3-2.3 14.3 0 .1 0 .1.1.2.1 1.4.9 2.3 1.9 2.7 3v3c-.3-1.1-1.2-2.1-2.7-3-.1 0-.1-.1-.2-.1-4-2.3-10.4-2.3-14.3 0z"/><path id="Ai" d="M172.2 250v3c-4-2.2-10.3-2.2-14.1.1v-3c3.9-2.2 10.2-2.3 14.1-.1z"/><path id="Aj" d="M164.6 254.6c-.5.3-.8.7-.8 1.1v-3c0-.4.2-.8.8-1.1 1.1-.6 2.7-.7 4.2-.1v3c-1.6-.6-3.2-.5-4.2.1z"/><path id="Ak" d="M155 256c-.1.3-.2.6-.2.9v-3c0-.3.1-.6.2-.9v3z"/><path id="Al" d="M165.1 255.1v3c0-.2-.2-.5-.5-.9-.5-.5-.8-1-.8-1.5v-3c0 .5.3.9.8 1.5.3.4.5.7.5.9z"/><path id="Am" d="M161.5 257v-3.1c.3.4.7.9 1.4 1.3s1.4.5 1.9.2c.2-.1.3-.2.3-.4v3c0 .2-.1.3-.3.4-.5.3-1.2.2-1.9-.2-.7-.3-1.2-.8-1.4-1.2z"/><path id="An" d="M155.1 257.2v-3c0 1.5.9 2.9 2.8 4.1v3c-1.8-1.1-2.8-2.6-2.8-4.1z"/><path id="Ao" d="M172.1 249.9c.1 0 .1.1.2.1-4-2.2-10.3-2.2-14.1.1-3.9 2.3-3.9 5.9-.1 8.2-.1 0-.1-.1-.2-.1-4-2.3-4-6 0-8.3 3.8-2.3 10.2-2.3 14.2 0z"/><path id="Ap" d="M172.2 250c3.8 2.3 3.8 5.9-.1 8.2s-10.2 2.3-14.1.1c-3.8-2.3-3.8-5.9.1-8.2 3.9-2.2 10.2-2.3 14.1-.1zm-9.8 6.6c1.6.7 3.3.6 4.4 0s1.2-1.4.2-2.5c-.7-.8-.8-1.2-.4-1.5.3-.2.9-.2 1.7.2.9.5 1.2 1 1.3 1.3l1.7-.6c-.2-.3-.6-.8-1.4-1.3l1.1-.6-1.2-.7-1.2.7c-1.6-.6-3.2-.6-4.2.1-1.2.7-.9 1.6 0 2.6.6.7.7 1.1.2 1.4s-1.2.2-1.9-.2c-.8-.5-1.3-1-1.5-1.5l-1.8.6c.2.4.8 1 1.6 1.5l-1.2.7 1.2.7 1.4-.9z"/><path id="Aq" d="M178.6 254.1v3c0 2-1.3 4-4 5.5-5.3 3.1-13.9 3.1-19.2 0-2.7-1.5-4-3.6-4-5.6v-3c0 2 1.3 4.1 4 5.6 5.3 3.1 13.9 3.1 19.2 0 2.6-1.5 3.9-3.5 4-5.5z"/><path id="Ar" d="M174.5 248.5c5.3 3.1 5.4 8.1.1 11.1-5.3 3.1-13.9 3.1-19.2 0s-5.4-8.1-.1-11.1c5.3-3.1 13.9-3.1 19.2 0zm-16.5 9.8c4 2.2 10.3 2.2 14.1-.1 3.9-2.3 3.9-5.9.1-8.2-.1 0-.1-.1-.2-.1-4-2.3-10.4-2.3-14.3 0s-3.9 6 0 8.3c.2.1.2.1.3.1h0z"/><path id="As" d="M166.4 251.9v-3c0-.1.1-.2.2-.3.3-.2.9-.2 1.7.2.9.5 1.2 1 1.3 1.3v3c-.2-.3-.5-.7-1.3-1.3-.8-.5-1.4-.4-1.7-.2-.1 0-.2.1-.2.3z"/><path id="At" d="M154.8 253v-3c0 1.5 1 3 3 4.2.1 0 .1.1.2.1v3c-.1 0-.1-.1-.2-.1-2-1.1-3-2.7-3-4.2z"/></defs></svg>