<svg id="Layer_1" data-name="Layer 1" xmlns="http://www.w3.org/2000/svg" width="102.08" height="53" viewBox="0 0 102.08 53">
  <defs>
    <style>
      .cls-1 {
        fill: #298dcd;
      }

      .cls-2 {
        fill: #2081b7;
      }
    </style>
  </defs>
  <title>corefactors-logo</title>
  <g>
    <path class="cls-1" d="M91.29,15.29l-7,4.27-18,11a.08.08,0,0,1-.09,0L41.87,15.43a.1.1,0,0,1,0-.12l0,0L66.18,0h.09l6.91,4.2a.08.08,0,0,1,0,.12s0,0,0,0l-7,4.33-9.85,6.13a.08.08,0,0,0,0,.11l0,0L67,21.47a.09.09,0,0,0,.1,0l17.12-10.6,0,0,0,0,7,4.27a.08.08,0,0,1,0,.12Z" transform="translate(-15.5)"/>
    <path class="cls-2" d="M91.29,15.29l-7,4.27V10.85l0,0,6.94,4.27a.1.1,0,0,1,0,.12Z" transform="translate(-15.5)"/>
    <path class="cls-2" d="M73.19,4.35l-7,4.33V0h0l6.92,4.2a.08.08,0,0,1,0,.12A0,0,0,0,1,73.19,4.35Z" transform="translate(-15.5)"/>
    <path class="cls-2" d="M63.24,19.27l-7,4.33V14.92h0l6.92,4.2a.07.07,0,0,1,0,.11Z" transform="translate(-15.5)"/>
    <path class="cls-1" d="M25.81,50.08A5.52,5.52,0,0,1,21,53a5.39,5.39,0,1,1-.24-10.77H21a5.37,5.37,0,0,1,4.77,2.84H24.61A4.43,4.43,0,0,0,21,43.16,4.44,4.44,0,0,0,21,52a4.42,4.42,0,0,0,3.65-2Z" transform="translate(-15.5)"/>
    <path class="cls-1" d="M32.34,42.18a5.33,5.33,0,1,1-5.29,5.4A5.4,5.4,0,0,1,32.34,42.18Zm0,9.48a4.06,4.06,0,0,0,4-4.21,4,4,0,1,0-4,4.21Z" transform="translate(-15.5)"/>
    <path class="cls-1" d="M39.87,42.61h1.29v1.46h0a2.89,2.89,0,0,1,2.86-1.72v1.37a3.12,3.12,0,0,0-2.19,1,3.32,3.32,0,0,0-.7,2.09v5.93h-1.3Z" transform="translate(-15.5)"/>
    <path class="cls-1" d="M46.32,48.15a4,4,0,0,0,3.93,3.67,3.86,3.86,0,0,0,3.64-2.39h1.37a5.07,5.07,0,1,1,.31-1.65c0,.13,0,.23,0,.37ZM54.24,47a4,4,0,0,0-7.92,0Z" transform="translate(-15.5)"/>
    <path class="cls-1" d="M57,42.25c0-1.47.15-4,4.05-4v1.26c-2.66,0-2.7,1.64-2.7,2.64v.08H61v1.22h-2.7v9.34H57V43.47" transform="translate(-15.5)"/>
    <path class="cls-1" d="M71,44.34a5.43,5.43,0,0,0-1.37-1.25l0,0A5,5,0,0,0,67,42.36,5.32,5.32,0,1,0,67,53,4.68,4.68,0,0,0,71,51h0v1.78h1.3V48.05A6.14,6.14,0,0,0,71,44.34Zm-4,7.48a4.15,4.15,0,1,1,0-8.29,4.15,4.15,0,0,1,0,8.29Z" transform="translate(-15.5)"/>
    <path class="cls-1" d="M84.91,49.77a5.37,5.37,0,1,1,0-4.1H83.49a4,4,0,0,0-3.58-2.15,4.16,4.16,0,0,0-.13,8.31h.13a3.89,3.89,0,0,0,3.58-2.06Z" transform="translate(-15.5)"/>
    <path class="cls-1" d="M97.72,42.35a5.32,5.32,0,1,1-5.28,5.39A5.32,5.32,0,0,1,97.72,42.35Zm0,9.47a4.05,4.05,0,0,0,4-4.21,4,4,0,1,0-4,4.21Z" transform="translate(-15.5)"/>
    <path class="cls-1" d="M104.92,42.09h1.39v1.58h0a3.1,3.1,0,0,1,3.07-1.86v1.47a3.36,3.36,0,0,0-2.35,1.08,3.54,3.54,0,0,0-.76,2.25V53h-1.39Z" transform="translate(-15.5)"/>
    <path class="cls-1" d="M112.46,49.66c0,2,1.4,2.13,1.86,2.13a1.75,1.75,0,0,0,1.94-1.86c0-1.42-1.29-1.74-2.07-2.07-1.07-.36-2.76-.93-2.76-2.89a2.83,2.83,0,0,1,3-2.89,2.78,2.78,0,0,1,2.83,2.73v.09H115.9a1.58,1.58,0,0,0-1.56-1.64,1.54,1.54,0,0,0-1.58,1.51v0c0,1.11,1.1,1.49,1.86,1.73,1.22.41,3,1.07,3,3.22v0A3,3,0,0,1,114.31,53a3.1,3.1,0,0,1-3.2-3.22v-.11Z" transform="translate(-15.5)"/>
    <path class="cls-1" d="M89,43.64h2.75V42.32H89v-4H87.5V48.65c-.09,5.5,4.22,4.21,4.22,4.21V51.68a2.76,2.76,0,0,1-.68.08,2.13,2.13,0,0,1-.71-.13c-1.3-.5-1.4-2.17-1.4-3.35s0-2.27,0-3.41Z" transform="translate(-15.5)"/>
  </g>
</svg>
